<?xml version="1.0" encoding="UTF-8"?>
<!DOCTYPE svg PUBLIC "-//W3C//DTD SVG 1.1//EN" "http://www.w3.org/Graphics/SVG/1.1/DTD/svg11.dtd">
<svg version="1.2" width="152.4mm" height="152.4mm" viewBox="0 0 15240 15240" preserveAspectRatio="xMidYMid" fill-rule="evenodd" stroke-width="28.222" stroke-linejoin="round" xmlns="http://www.w3.org/2000/svg" xmlns:ooo="http://xml.openoffice.org/svg/export" xmlns:xlink="http://www.w3.org/1999/xlink" xmlns:presentation="http://sun.com/xmlns/staroffice/presentation" xmlns:smil="http://www.w3.org/2001/SMIL20/" xmlns:anim="urn:oasis:names:tc:opendocument:xmlns:animation:1.0" xml:space="preserve">
 <defs class="ClipPathGroup">
  <clipPath id="presentation_clip_path" clipPathUnits="userSpaceOnUse">
   <rect x="0" y="0" width="15240" height="15240"/>
  </clipPath>
  <clipPath id="presentation_clip_path_shrink" clipPathUnits="userSpaceOnUse">
   <rect x="15" y="15" width="15210" height="15210"/>
  </clipPath>
 </defs>
 <defs class="TextShapeIndex">
  <g ooo:slide="id1" ooo:id-list="id3 id4 id5 id6 id7 id8"/>
 </defs>
 <defs class="EmbeddedBulletChars">
  <g id="bullet-char-template-57356" transform="scale(0.00048828125,-0.00048828125)">
   <path d="M 580,1141 L 1163,571 580,0 -4,571 580,1141 Z"/>
  </g>
  <g id="bullet-char-template-57354" transform="scale(0.00048828125,-0.00048828125)">
   <path d="M 8,1128 L 1137,1128 1137,0 8,0 8,1128 Z"/>
  </g>
  <g id="bullet-char-template-10146" transform="scale(0.00048828125,-0.00048828125)">
   <path d="M 174,0 L 602,739 174,1481 1456,739 174,0 Z M 1358,739 L 309,1346 659,739 1358,739 Z"/>
  </g>
  <g id="bullet-char-template-10132" transform="scale(0.00048828125,-0.00048828125)">
   <path d="M 2015,739 L 1276,0 717,0 1260,543 174,543 174,936 1260,936 717,1481 1274,1481 2015,739 Z"/>
  </g>
  <g id="bullet-char-template-10007" transform="scale(0.00048828125,-0.00048828125)">
   <path d="M 0,-2 C -7,14 -16,27 -25,37 L 356,567 C 262,823 215,952 215,954 215,979 228,992 255,992 264,992 276,990 289,987 310,991 331,999 354,1012 L 381,999 492,748 772,1049 836,1024 860,1049 C 881,1039 901,1025 922,1006 886,937 835,863 770,784 769,783 710,716 594,584 L 774,223 C 774,196 753,168 711,139 L 727,119 C 717,90 699,76 672,76 641,76 570,178 457,381 L 164,-76 C 142,-110 111,-127 72,-127 30,-127 9,-110 8,-76 1,-67 -2,-52 -2,-32 -2,-23 -1,-13 0,-2 Z"/>
  </g>
  <g id="bullet-char-template-10004" transform="scale(0.00048828125,-0.00048828125)">
   <path d="M 285,-33 C 182,-33 111,30 74,156 52,228 41,333 41,471 41,549 55,616 82,672 116,743 169,778 240,778 293,778 328,747 346,684 L 369,508 C 377,444 397,411 428,410 L 1163,1116 C 1174,1127 1196,1133 1229,1133 1271,1133 1292,1118 1292,1087 L 1292,965 C 1292,929 1282,901 1262,881 L 442,47 C 390,-6 338,-33 285,-33 Z"/>
  </g>
  <g id="bullet-char-template-9679" transform="scale(0.00048828125,-0.00048828125)">
   <path d="M 813,0 C 632,0 489,54 383,161 276,268 223,411 223,592 223,773 276,916 383,1023 489,1130 632,1184 813,1184 992,1184 1136,1130 1245,1023 1353,916 1407,772 1407,592 1407,412 1353,268 1245,161 1136,54 992,0 813,0 Z"/>
  </g>
  <g id="bullet-char-template-8226" transform="scale(0.00048828125,-0.00048828125)">
   <path d="M 346,457 C 273,457 209,483 155,535 101,586 74,649 74,723 74,796 101,859 155,911 209,963 273,989 346,989 419,989 480,963 531,910 582,859 608,796 608,723 608,648 583,586 532,535 482,483 420,457 346,457 Z"/>
  </g>
  <g id="bullet-char-template-8211" transform="scale(0.00048828125,-0.00048828125)">
   <path d="M -4,459 L 1135,459 1135,606 -4,606 -4,459 Z"/>
  </g>
  <g id="bullet-char-template-61548" transform="scale(0.00048828125,-0.00048828125)">
   <path d="M 173,740 C 173,903 231,1043 346,1159 462,1274 601,1332 765,1332 928,1332 1067,1274 1183,1159 1299,1043 1357,903 1357,740 1357,577 1299,437 1183,322 1067,206 928,148 765,148 601,148 462,206 346,322 231,437 173,577 173,740 Z"/>
  </g>
 </defs>
 <g>
  <g id="id2" class="Master_Slide">
   <g id="bg-id2" class="Background"/>
   <g id="bo-id2" class="BackgroundObjects"/>
  </g>
 </g>
 <g class="SlideGroup">
  <g>
   <g id="container-id1">
    <g id="id1" class="Slide" clip-path="url(#presentation_clip_path)">
     <g class="Page">
      <g id="bg-id1" class="Background">
       <path fill="rgb(25,25,25)" stroke="none" d="M 7620,15239 L 0,15239 0,0 15239,0 15239,15239 7620,15239 Z"/>
      </g>
      <g class="com.sun.star.drawing.CustomShape">
       <g id="id3">
        <rect class="BoundingBox" stroke="none" fill="none" x="1151" y="2567" width="2856" height="4356"/>
        <path fill="rgb(25,25,25)" stroke="none" d="M 1178,6895 L 1178,3294 1878,2594 3979,2594 3979,6194 3278,6895 1178,6895 Z"/>
        <path fill="none" stroke="rgb(255,255,255)" stroke-width="53" stroke-linejoin="round" d="M 1178,6895 L 1178,3294 1878,2594 3979,2594 3979,6194 3278,6895 1178,6895 Z"/>
        <path fill="rgb(71,71,71)" stroke="none" d="M 1178,3294 L 1878,2594 3979,2594 3278,3294 1178,3294 Z"/>
        <path fill="none" stroke="rgb(255,255,255)" stroke-width="53" stroke-linejoin="round" d="M 1178,3294 L 1878,2594 3979,2594 3278,3294 1178,3294 Z"/>
        <path fill="rgb(20,20,20)" stroke="none" d="M 3278,6895 L 3278,3294 3979,2594 3979,6194 3278,6895 Z"/>
        <path fill="none" stroke="rgb(255,255,255)" stroke-width="53" stroke-linejoin="round" d="M 3278,6895 L 3278,3294 3979,2594 3979,6194 3278,6895 Z"/>
       </g>
      </g>
      <g class="com.sun.star.drawing.CustomShape">
       <g id="id4">
        <rect class="BoundingBox" stroke="none" fill="none" x="1451" y="3767" width="1556" height="1556"/>
        <path fill="rgb(25,25,25)" stroke="none" d="M 2979,4545 C 2979,4676 2944,4806 2878,4920 2813,5034 2718,5129 2604,5194 2490,5260 2360,5295 2229,5295 2097,5295 1967,5260 1853,5194 1739,5129 1644,5034 1579,4920 1513,4806 1478,4676 1478,4545 1478,4413 1513,4283 1579,4169 1644,4055 1739,3960 1853,3895 1967,3829 2097,3794 2228,3794 2360,3794 2490,3829 2604,3895 2718,3960 2813,4055 2878,4169 2944,4283 2979,4413 2979,4544 L 2979,4545 Z"/>
        <path fill="none" stroke="rgb(255,255,255)" stroke-width="53" stroke-linejoin="round" d="M 2979,4545 C 2979,4676 2944,4806 2878,4920 2813,5034 2718,5129 2604,5194 2490,5260 2360,5295 2229,5295 2097,5295 1967,5260 1853,5194 1739,5129 1644,5034 1579,4920 1513,4806 1478,4676 1478,4545 1478,4413 1513,4283 1579,4169 1644,4055 1739,3960 1853,3895 1967,3829 2097,3794 2228,3794 2360,3794 2490,3829 2604,3895 2718,3960 2813,4055 2878,4169 2944,4283 2979,4413 2979,4544 L 2979,4545 Z"/>
        <path fill="rgb(20,20,20)" stroke="none" d="M 2055,4316 C 2055,4339 2052,4361 2046,4381 2040,4401 2031,4417 2020,4428 2010,4440 1998,4446 1986,4446 1973,4446 1961,4440 1951,4428 1940,4417 1932,4401 1925,4381 1919,4361 1916,4339 1916,4316 1916,4293 1919,4271 1925,4251 1932,4232 1940,4215 1951,4204 1961,4193 1973,4187 1986,4187 1998,4187 2010,4193 2020,4204 2031,4215 2040,4232 2046,4251 2052,4271 2055,4293 2055,4316 L 2055,4316 Z"/>
        <path fill="none" stroke="rgb(255,255,255)" stroke-width="53" stroke-linejoin="round" d="M 2055,4316 C 2055,4339 2052,4361 2046,4381 2040,4401 2031,4417 2020,4428 2010,4440 1998,4446 1986,4446 1973,4446 1961,4440 1951,4428 1940,4417 1932,4401 1925,4381 1919,4361 1916,4339 1916,4316 1916,4293 1919,4271 1925,4251 1932,4232 1940,4215 1951,4204 1961,4193 1973,4187 1986,4187 1998,4187 2010,4193 2020,4204 2031,4215 2040,4232 2046,4251 2052,4271 2055,4293 2055,4316 Z"/>
        <path fill="rgb(20,20,20)" stroke="none" d="M 2541,4316 C 2541,4339 2538,4361 2532,4381 2525,4401 2517,4417 2506,4428 2496,4440 2484,4446 2471,4446 2459,4446 2447,4440 2437,4428 2426,4417 2417,4401 2411,4381 2405,4361 2402,4339 2402,4316 2402,4293 2405,4271 2411,4251 2417,4232 2426,4215 2437,4204 2447,4193 2459,4187 2471,4187 2484,4187 2496,4193 2506,4204 2517,4215 2525,4232 2532,4251 2538,4271 2541,4293 2541,4316 L 2541,4316 Z"/>
        <path fill="none" stroke="rgb(255,255,255)" stroke-width="53" stroke-linejoin="round" d="M 2541,4316 C 2541,4339 2538,4361 2532,4381 2525,4401 2517,4417 2506,4428 2496,4440 2484,4446 2471,4446 2459,4446 2447,4440 2437,4428 2426,4417 2417,4401 2411,4381 2405,4361 2402,4339 2402,4316 2402,4293 2405,4271 2411,4251 2417,4232 2426,4215 2437,4204 2447,4193 2459,4187 2471,4187 2484,4187 2496,4193 2506,4204 2517,4215 2525,4232 2532,4251 2538,4271 2541,4293 2541,4316 Z"/>
        <path fill="none" stroke="rgb(255,255,255)" stroke-width="53" stroke-linejoin="round" d="M 1816,4802 C 2081,5080 2375,5080 2640,4802"/>
       </g>
      </g>
      <g class="com.sun.star.drawing.CustomShape">
       <g id="id5">
        <rect class="BoundingBox" stroke="none" fill="none" x="5825" y="10090" width="5058" height="3684"/>
        <path fill="rgb(25,25,25)" stroke="none" d="M 10855,12506 L 7474,13746 6575,13329 5852,11357 9232,10117 10131,10534 10855,12506 Z"/>
        <path fill="none" stroke="rgb(255,255,255)" stroke-width="53" stroke-linejoin="round" d="M 10855,12506 L 7474,13746 6575,13329 5852,11357 9232,10117 10131,10534 10855,12506 Z"/>
        <path fill="rgb(71,71,71)" stroke="none" d="M 7474,13746 L 6575,13329 5852,11357 6751,11774 7474,13746 Z"/>
        <path fill="none" stroke="rgb(255,255,255)" stroke-width="53" stroke-linejoin="round" d="M 7474,13746 L 6575,13329 5852,11357 6751,11774 7474,13746 Z"/>
        <path fill="rgb(20,20,20)" stroke="none" d="M 10131,10534 L 6751,11774 5852,11357 9232,10117 10131,10534 Z"/>
        <path fill="none" stroke="rgb(255,255,255)" stroke-width="53" stroke-linejoin="round" d="M 10131,10534 L 6751,11774 5852,11357 9232,10117 10131,10534 Z"/>
       </g>
      </g>
      <g class="com.sun.star.drawing.CustomShape">
       <g id="id6">
        <rect class="BoundingBox" stroke="none" fill="none" x="7509" y="11551" width="1556" height="1556"/>
        <path fill="rgb(25,25,25)" stroke="none" d="M 8028,11624 C 8152,11578 8285,11566 8415,11589 8545,11612 8666,11668 8767,11752 8868,11837 8946,11946 8991,12070 9036,12194 9048,12327 9026,12457 9003,12587 8947,12708 8862,12809 8778,12910 8668,12988 8545,13033 8421,13078 8288,13090 8158,13068 8028,13045 7906,12989 7805,12904 7704,12820 7627,12710 7582,12587 7536,12463 7524,12330 7547,12200 7569,12070 7626,11948 7710,11847 7795,11746 7904,11669 8028,11624 L 8028,11624 Z"/>
        <path fill="none" stroke="rgb(255,255,255)" stroke-width="53" stroke-linejoin="round" d="M 8028,11624 C 8152,11578 8285,11566 8415,11589 8545,11612 8666,11668 8767,11752 8868,11837 8946,11946 8991,12070 9036,12194 9048,12327 9026,12457 9003,12587 8947,12708 8862,12809 8778,12910 8668,12988 8545,13033 8421,13078 8288,13090 8158,13068 8028,13045 7906,12989 7805,12904 7704,12820 7627,12710 7582,12587 7536,12463 7524,12330 7547,12200 7569,12070 7626,11948 7710,11847 7795,11746 7904,11669 8028,11624 Z"/>
        <path fill="rgb(20,20,20)" stroke="none" d="M 8132,12570 C 8153,12562 8175,12557 8196,12556 8216,12555 8235,12558 8249,12564 8263,12570 8273,12579 8277,12590 8281,12602 8280,12615 8273,12629 8266,12643 8254,12657 8237,12669 8221,12682 8201,12692 8180,12700 8158,12708 8136,12713 8115,12714 8095,12715 8077,12712 8062,12706 8048,12700 8038,12691 8034,12680 8030,12668 8031,12655 8038,12641 8045,12627 8058,12613 8074,12601 8090,12588 8110,12578 8132,12570 L 8132,12570 Z"/>
        <path fill="none" stroke="rgb(255,255,255)" stroke-width="53" stroke-linejoin="round" d="M 8132,12570 C 8153,12562 8175,12557 8196,12556 8216,12555 8235,12558 8249,12564 8263,12570 8273,12579 8277,12590 8281,12602 8280,12615 8273,12629 8266,12643 8254,12657 8237,12669 8221,12682 8201,12692 8180,12700 8158,12708 8136,12713 8115,12714 8095,12715 8077,12712 8062,12706 8048,12700 8038,12691 8034,12680 8030,12668 8031,12655 8038,12641 8045,12627 8058,12613 8074,12601 8090,12588 8110,12578 8132,12570 L 8132,12570 Z"/>
        <path fill="rgb(20,20,20)" stroke="none" d="M 7964,12114 C 7986,12106 8008,12101 8028,12100 8049,12099 8067,12102 8082,12108 8096,12114 8106,12123 8110,12134 8114,12146 8113,12159 8106,12173 8099,12187 8086,12201 8070,12213 8054,12226 8034,12236 8012,12244 7991,12252 7969,12257 7948,12258 7928,12259 7909,12256 7895,12250 7881,12244 7871,12235 7867,12224 7862,12212 7864,12199 7871,12185 7878,12171 7890,12157 7907,12145 7923,12132 7943,12122 7964,12114 L 7964,12114 Z"/>
        <path fill="none" stroke="rgb(255,255,255)" stroke-width="53" stroke-linejoin="round" d="M 7964,12114 C 7986,12106 8008,12101 8028,12100 8049,12099 8067,12102 8082,12108 8096,12114 8106,12123 8110,12134 8114,12146 8113,12159 8106,12173 8099,12187 8086,12201 8070,12213 8054,12226 8034,12236 8012,12244 7991,12252 7969,12257 7948,12258 7928,12259 7909,12256 7895,12250 7881,12244 7871,12235 7867,12224 7862,12212 7864,12199 7871,12185 7878,12171 7890,12157 7907,12145 7923,12132 7943,12122 7964,12114 L 7964,12114 Z"/>
        <path fill="none" stroke="rgb(255,255,255)" stroke-width="53" stroke-linejoin="round" d="M 8670,12627 C 8840,12282 8739,12006 8386,11853"/>
       </g>
      </g>
      <g class="com.sun.star.drawing.CustomShape">
       <g id="id7">
        <rect class="BoundingBox" stroke="none" fill="none" x="8297" y="1974" width="4268" height="4949"/>
        <path fill="rgb(25,25,25)" stroke="none" d="M 11205,6895 L 8421,4611 8324,3626 9656,2001 12440,4284 12537,5271 11205,6895 Z"/>
        <path fill="none" stroke="rgb(255,255,255)" stroke-width="53" stroke-linejoin="round" d="M 11205,6895 L 8421,4611 8324,3626 9656,2001 12440,4284 12537,5271 11205,6895 Z"/>
        <path fill="rgb(71,71,71)" stroke="none" d="M 8421,4611 L 8324,3626 9656,2001 9753,2987 8421,4611 Z"/>
        <path fill="none" stroke="rgb(255,255,255)" stroke-width="53" stroke-linejoin="round" d="M 8421,4611 L 8324,3626 9656,2001 9753,2987 8421,4611 Z"/>
        <path fill="rgb(20,20,20)" stroke="none" d="M 12537,5271 L 9753,2987 9656,2001 12440,4284 12537,5271 Z"/>
        <path fill="none" stroke="rgb(255,255,255)" stroke-width="53" stroke-linejoin="round" d="M 12537,5271 L 9753,2987 9656,2001 12440,4284 12537,5271 Z"/>
       </g>
      </g>
      <g class="com.sun.star.drawing.CustomShape">
       <g id="id8">
        <rect class="BoundingBox" stroke="none" fill="none" x="9276" y="3812" width="1556" height="1556"/>
        <path fill="rgb(25,25,25)" stroke="none" d="M 10530,4010 C 10632,4093 10710,4202 10756,4325 10802,4449 10816,4582 10794,4712 10773,4842 10718,4964 10634,5066 10550,5168 10442,5246 10318,5292 10195,5339 10062,5352 9932,5330 9802,5309 9680,5254 9578,5170 9476,5087 9398,4978 9351,4854 9305,4731 9292,4598 9313,4468 9335,4338 9390,4216 9473,4114 9557,4012 9666,3934 9789,3888 9912,3841 10046,3828 10176,3849 10306,3871 10428,3926 10530,4010 L 10530,4010 Z"/>
        <path fill="none" stroke="rgb(255,255,255)" stroke-width="53" stroke-linejoin="round" d="M 10530,4010 C 10632,4093 10710,4202 10756,4325 10802,4449 10816,4582 10794,4712 10773,4842 10718,4964 10634,5066 10550,5168 10442,5246 10318,5292 10195,5339 10062,5352 9932,5330 9802,5309 9680,5254 9578,5170 9476,5087 9398,4978 9351,4854 9305,4731 9292,4598 9313,4468 9335,4338 9390,4216 9473,4114 9557,4012 9666,3934 9789,3888 9912,3841 10046,3828 10176,3849 10306,3871 10428,3926 10530,4010 Z"/>
        <path fill="rgb(20,20,20)" stroke="none" d="M 9767,4579 C 9785,4594 9800,4610 9811,4628 9823,4645 9830,4662 9832,4677 9834,4693 9831,4706 9823,4715 9816,4725 9803,4730 9788,4731 9772,4732 9754,4728 9735,4721 9716,4713 9697,4701 9679,4687 9662,4672 9646,4656 9635,4638 9624,4621 9616,4604 9614,4589 9612,4573 9615,4560 9623,4551 9631,4541 9643,4536 9658,4535 9674,4534 9692,4538 9711,4545 9730,4553 9750,4565 9767,4579 L 9767,4579 Z"/>
        <path fill="none" stroke="rgb(255,255,255)" stroke-width="53" stroke-linejoin="round" d="M 9767,4579 C 9785,4594 9800,4610 9811,4628 9823,4645 9830,4662 9832,4677 9834,4693 9831,4706 9823,4715 9816,4725 9803,4730 9788,4731 9772,4732 9754,4728 9735,4721 9716,4713 9697,4701 9679,4687 9662,4672 9646,4656 9635,4638 9624,4621 9616,4604 9614,4589 9612,4573 9615,4560 9623,4551 9631,4541 9643,4536 9658,4535 9674,4534 9692,4538 9711,4545 9730,4553 9750,4565 9767,4579 Z"/>
        <path fill="rgb(20,20,20)" stroke="none" d="M 10075,4204 C 10093,4218 10108,4235 10119,4252 10131,4269 10138,4286 10140,4302 10142,4317 10139,4330 10131,4340 10124,4349 10111,4354 10096,4355 10080,4356 10062,4353 10043,4345 10024,4337 10005,4326 9987,4311 9970,4297 9954,4280 9943,4263 9932,4246 9925,4228 9922,4213 9920,4198 9923,4185 9931,4175 9939,4166 9951,4160 9966,4159 9982,4158 10000,4162 10019,4170 10038,4178 10058,4189 10075,4204 L 10075,4204 Z"/>
        <path fill="none" stroke="rgb(255,255,255)" stroke-width="53" stroke-linejoin="round" d="M 10075,4204 C 10093,4218 10108,4235 10119,4252 10131,4269 10138,4286 10140,4302 10142,4317 10139,4330 10131,4340 10124,4349 10111,4354 10096,4355 10080,4356 10062,4353 10043,4345 10024,4337 10005,4326 9987,4311 9970,4297 9954,4280 9943,4263 9932,4246 9925,4228 9922,4213 9920,4198 9923,4185 9931,4175 9939,4166 9951,4160 9966,4159 9982,4158 10000,4162 10019,4170 10038,4178 10058,4189 10075,4204 Z"/>
        <path fill="none" stroke="rgb(255,255,255)" stroke-width="53" stroke-linejoin="round" d="M 9991,5072 C 10374,5044 10561,4816 10514,4435"/>
       </g>
      </g>
     </g>
    </g>
   </g>
  </g>
 </g>
</svg>