<?xml version="1.0" encoding="UTF-8"?>
<!DOCTYPE svg PUBLIC "-//W3C//DTD SVG 1.1//EN" "http://www.w3.org/Graphics/SVG/1.1/DTD/svg11.dtd">
<svg version="1.2" width="130mm" height="130mm" viewBox="0 0 13000 13000" preserveAspectRatio="xMidYMid" fill-rule="evenodd" stroke-width="28.222" stroke-linejoin="round" xmlns="http://www.w3.org/2000/svg" xmlns:ooo="http://xml.openoffice.org/svg/export" xmlns:xlink="http://www.w3.org/1999/xlink" xmlns:presentation="http://sun.com/xmlns/staroffice/presentation" xmlns:smil="http://www.w3.org/2001/SMIL20/" xmlns:anim="urn:oasis:names:tc:opendocument:xmlns:animation:1.0" xml:space="preserve">
 <defs class="ClipPathGroup">
  <clipPath id="presentation_clip_path" clipPathUnits="userSpaceOnUse">
   <rect x="0" y="0" width="13000" height="13000"/>
  </clipPath>
  <clipPath id="presentation_clip_path_shrink" clipPathUnits="userSpaceOnUse">
   <rect x="13" y="13" width="12974" height="12974"/>
  </clipPath>
 </defs>
 <defs class="TextShapeIndex">
  <g ooo:slide="id1" ooo:id-list="id3 id4 id5 id6 id7 id8 id9 id10 id11 id12 id13 id14"/>
 </defs>
 <defs class="EmbeddedBulletChars">
  <g id="bullet-char-template-57356" transform="scale(0.00048828125,-0.00048828125)">
   <path d="M 580,1141 L 1163,571 580,0 -4,571 580,1141 Z"/>
  </g>
  <g id="bullet-char-template-57354" transform="scale(0.00048828125,-0.00048828125)">
   <path d="M 8,1128 L 1137,1128 1137,0 8,0 8,1128 Z"/>
  </g>
  <g id="bullet-char-template-10146" transform="scale(0.00048828125,-0.00048828125)">
   <path d="M 174,0 L 602,739 174,1481 1456,739 174,0 Z M 1358,739 L 309,1346 659,739 1358,739 Z"/>
  </g>
  <g id="bullet-char-template-10132" transform="scale(0.00048828125,-0.00048828125)">
   <path d="M 2015,739 L 1276,0 717,0 1260,543 174,543 174,936 1260,936 717,1481 1274,1481 2015,739 Z"/>
  </g>
  <g id="bullet-char-template-10007" transform="scale(0.00048828125,-0.00048828125)">
   <path d="M 0,-2 C -7,14 -16,27 -25,37 L 356,567 C 262,823 215,952 215,954 215,979 228,992 255,992 264,992 276,990 289,987 310,991 331,999 354,1012 L 381,999 492,748 772,1049 836,1024 860,1049 C 881,1039 901,1025 922,1006 886,937 835,863 770,784 769,783 710,716 594,584 L 774,223 C 774,196 753,168 711,139 L 727,119 C 717,90 699,76 672,76 641,76 570,178 457,381 L 164,-76 C 142,-110 111,-127 72,-127 30,-127 9,-110 8,-76 1,-67 -2,-52 -2,-32 -2,-23 -1,-13 0,-2 Z"/>
  </g>
  <g id="bullet-char-template-10004" transform="scale(0.00048828125,-0.00048828125)">
   <path d="M 285,-33 C 182,-33 111,30 74,156 52,228 41,333 41,471 41,549 55,616 82,672 116,743 169,778 240,778 293,778 328,747 346,684 L 369,508 C 377,444 397,411 428,410 L 1163,1116 C 1174,1127 1196,1133 1229,1133 1271,1133 1292,1118 1292,1087 L 1292,965 C 1292,929 1282,901 1262,881 L 442,47 C 390,-6 338,-33 285,-33 Z"/>
  </g>
  <g id="bullet-char-template-9679" transform="scale(0.00048828125,-0.00048828125)">
   <path d="M 813,0 C 632,0 489,54 383,161 276,268 223,411 223,592 223,773 276,916 383,1023 489,1130 632,1184 813,1184 992,1184 1136,1130 1245,1023 1353,916 1407,772 1407,592 1407,412 1353,268 1245,161 1136,54 992,0 813,0 Z"/>
  </g>
  <g id="bullet-char-template-8226" transform="scale(0.00048828125,-0.00048828125)">
   <path d="M 346,457 C 273,457 209,483 155,535 101,586 74,649 74,723 74,796 101,859 155,911 209,963 273,989 346,989 419,989 480,963 531,910 582,859 608,796 608,723 608,648 583,586 532,535 482,483 420,457 346,457 Z"/>
  </g>
  <g id="bullet-char-template-8211" transform="scale(0.00048828125,-0.00048828125)">
   <path d="M -4,459 L 1135,459 1135,606 -4,606 -4,459 Z"/>
  </g>
  <g id="bullet-char-template-61548" transform="scale(0.00048828125,-0.00048828125)">
   <path d="M 173,740 C 173,903 231,1043 346,1159 462,1274 601,1332 765,1332 928,1332 1067,1274 1183,1159 1299,1043 1357,903 1357,740 1357,577 1299,437 1183,322 1067,206 928,148 765,148 601,148 462,206 346,322 231,437 173,577 173,740 Z"/>
  </g>
 </defs>
 <defs class="TextEmbeddedBitmaps"/>
 <g>
  <g id="id2" class="Master_Slide">
   <g id="bg-id2" class="Background"/>
   <g id="bo-id2" class="BackgroundObjects"/>
  </g>
 </g>
 <g class="SlideGroup">
  <g>
   <g id="container-id1">
    <g id="id1" class="Slide" clip-path="url(#presentation_clip_path)">
     <g class="Page">
      <g class="com.sun.star.drawing.CustomShape">
       <g id="id3">
        <rect class="BoundingBox" stroke="none" fill="none" x="4804" y="1347" width="4125" height="5883"/>
        <path fill="rgb(25,25,25)" stroke="none" d="M 6120,1486 C 5330,1696 4755,2189 4857,2572 L 5976,6776 C 6078,7158 6821,7302 7612,7091 8402,6881 8978,6387 8876,6004 L 7757,1800 C 7655,1417 6911,1275 6120,1486 L 6120,1486 Z"/>
        <path fill="none" stroke="rgb(255,255,255)" stroke-width="81" stroke-linejoin="round" d="M 6120,1486 C 5330,1696 4755,2189 4857,2572 L 5976,6776 C 6078,7158 6821,7302 7612,7091 8402,6881 8978,6387 8876,6004 L 7757,1800 C 7655,1417 6911,1275 6120,1486 Z"/>
        <path fill="rgb(117,117,117)" stroke="none" d="M 6120,1486 C 5330,1696 4755,2189 4857,2572 4959,2954 5703,3097 6493,2887 7284,2676 7859,2182 7757,1800 7655,1417 6911,1275 6120,1486 L 6120,1486 Z"/>
        <path fill="none" stroke="rgb(255,255,255)" stroke-width="81" stroke-linejoin="round" d="M 6120,1486 C 5330,1696 4755,2189 4857,2572 4959,2954 5703,3097 6493,2887 7284,2676 7859,2182 7757,1800 7655,1417 6911,1275 6120,1486 Z"/>
       </g>
      </g>
      <g class="com.sun.star.drawing.LineShape">
       <g id="id4">
        <rect class="BoundingBox" stroke="none" fill="none" x="1479" y="4700" width="423" height="4842"/>
        <path fill="none" stroke="rgb(0,0,255)" stroke-width="81" stroke-linejoin="round" d="M 1690,9500 L 1690,5303"/>
        <path fill="rgb(0,0,255)" stroke="none" d="M 1690,4700 L 1480,5332 1901,5332 1690,4700 Z"/>
       </g>
      </g>
      <g class="com.sun.star.drawing.LineShape">
       <g id="id5">
        <rect class="BoundingBox" stroke="none" fill="none" x="1649" y="9460" width="3642" height="2641"/>
        <path fill="none" stroke="rgb(255,0,0)" stroke-width="81" stroke-linejoin="round" d="M 1690,9501 L 4801,11747"/>
        <path fill="rgb(255,0,0)" stroke="none" d="M 5290,12100 L 4901,11560 4655,11901 5290,12100 Z"/>
       </g>
      </g>
      <g class="com.sun.star.drawing.LineShape">
       <g id="id6">
        <rect class="BoundingBox" stroke="none" fill="none" x="1649" y="7500" width="4493" height="2043"/>
        <path fill="none" stroke="rgb(0,255,0)" stroke-width="81" stroke-linejoin="round" d="M 1690,9501 L 5591,7747"/>
        <path fill="rgb(0,255,0)" stroke="none" d="M 6141,7500 L 5479,7567 5651,7951 6141,7500 Z"/>
       </g>
      </g>
      <g class="com.sun.star.drawing.EllipseShape">
       <g id="id7">
        <rect class="BoundingBox" stroke="none" fill="none" x="5958" y="5773" width="3001" height="1476"/>
        <path fill="none" stroke="rgb(255,255,255)" stroke-width="81" stroke-linejoin="round" d="M 7612,7090 C 7595,7094 7579,7099 7562,7103"/>
        <path fill="none" stroke="rgb(255,255,255)" stroke-width="81" stroke-linejoin="round" d="M 7513,7115 C 7496,7119 7480,7123 7464,7127"/>
        <path fill="none" stroke="rgb(255,255,255)" stroke-width="81" stroke-linejoin="round" d="M 7414,7138 C 7397,7141 7380,7145 7364,7148"/>
        <path fill="none" stroke="rgb(255,255,255)" stroke-width="81" stroke-linejoin="round" d="M 7314,7157 C 7297,7160 7280,7163 7263,7166"/>
        <path fill="none" stroke="rgb(255,255,255)" stroke-width="81" stroke-linejoin="round" d="M 7213,7174 C 7196,7176 7179,7179 7163,7181"/>
        <path fill="none" stroke="rgb(255,255,255)" stroke-width="81" stroke-linejoin="round" d="M 7112,7187 C 7095,7189 7078,7191 7061,7193"/>
        <path fill="none" stroke="rgb(255,255,255)" stroke-width="81" stroke-linejoin="round" d="M 7010,7197 C 6993,7198 6977,7200 6960,7201"/>
        <path fill="none" stroke="rgb(255,255,255)" stroke-width="81" stroke-linejoin="round" d="M 6909,7203 C 6895,7204 6881,7205 6867,7205 6864,7205 6861,7205 6857,7205"/>
        <path fill="none" stroke="rgb(255,255,255)" stroke-width="81" stroke-linejoin="round" d="M 6806,7207 C 6789,7207 6772,7207 6755,7207"/>
        <path fill="none" stroke="rgb(255,255,255)" stroke-width="81" stroke-linejoin="round" d="M 6704,7206 C 6687,7205 6670,7205 6654,7204"/>
        <path fill="none" stroke="rgb(255,255,255)" stroke-width="81" stroke-linejoin="round" d="M 6603,7200 C 6585,7199 6569,7197 6552,7195"/>
        <path fill="none" stroke="rgb(255,255,255)" stroke-width="81" stroke-linejoin="round" d="M 6501,7189 C 6484,7186 6467,7183 6451,7180"/>
        <path fill="none" stroke="rgb(255,255,255)" stroke-width="81" stroke-linejoin="round" d="M 6401,7170 C 6384,7166 6368,7162 6352,7157"/>
        <path fill="none" stroke="rgb(255,255,255)" stroke-width="81" stroke-linejoin="round" d="M 6303,7142 C 6295,7140 6287,7137 6280,7134 6271,7131 6263,7128 6255,7125"/>
        <path fill="none" stroke="rgb(255,255,255)" stroke-width="81" stroke-linejoin="round" d="M 6208,7105 C 6192,7097 6177,7089 6163,7081"/>
        <path fill="none" stroke="rgb(255,255,255)" stroke-width="81" stroke-linejoin="round" d="M 6120,7054 C 6106,7043 6093,7032 6081,7020"/>
        <path fill="none" stroke="rgb(255,255,255)" stroke-width="81" stroke-linejoin="round" d="M 6048,6982 C 6038,6968 6030,6953 6023,6938"/>
        <path fill="none" stroke="rgb(255,255,255)" stroke-width="81" stroke-linejoin="round" d="M 6007,6889 C 6003,6873 6000,6856 5999,6839"/>
        <path fill="none" stroke="rgb(255,255,255)" stroke-width="81" stroke-linejoin="round" d="M 6002,6788 C 6004,6772 6008,6755 6014,6739"/>
        <path fill="none" stroke="rgb(255,255,255)" stroke-width="81" stroke-linejoin="round" d="M 6033,6691 C 6040,6677 6048,6662 6057,6647"/>
        <path fill="none" stroke="rgb(255,255,255)" stroke-width="81" stroke-linejoin="round" d="M 6086,6605 C 6095,6591 6106,6578 6117,6564"/>
        <path fill="none" stroke="rgb(255,255,255)" stroke-width="81" stroke-linejoin="round" d="M 6151,6526 C 6162,6513 6174,6501 6186,6489"/>
        <path fill="none" stroke="rgb(255,255,255)" stroke-width="81" stroke-linejoin="round" d="M 6223,6454 C 6235,6443 6248,6431 6261,6420"/>
        <path fill="none" stroke="rgb(255,255,255)" stroke-width="81" stroke-linejoin="round" d="M 6301,6388 C 6314,6378 6328,6368 6342,6358"/>
        <path fill="none" stroke="rgb(255,255,255)" stroke-width="81" stroke-linejoin="round" d="M 6384,6329 C 6398,6319 6412,6310 6427,6301"/>
        <path fill="none" stroke="rgb(255,255,255)" stroke-width="81" stroke-linejoin="round" d="M 6470,6274 C 6484,6265 6499,6257 6514,6248"/>
        <path fill="none" stroke="rgb(255,255,255)" stroke-width="81" stroke-linejoin="round" d="M 6558,6223 C 6572,6216 6585,6208 6599,6201 6601,6200 6602,6199 6603,6199"/>
        <path fill="none" stroke="rgb(255,255,255)" stroke-width="81" stroke-linejoin="round" d="M 6649,6175 C 6664,6168 6679,6160 6694,6153"/>
        <path fill="none" stroke="rgb(255,255,255)" stroke-width="81" stroke-linejoin="round" d="M 6740,6131 C 6756,6124 6771,6117 6787,6110"/>
        <path fill="none" stroke="rgb(255,255,255)" stroke-width="81" stroke-linejoin="round" d="M 6833,6089 C 6849,6083 6865,6076 6881,6070"/>
        <path fill="none" stroke="rgb(255,255,255)" stroke-width="81" stroke-linejoin="round" d="M 6928,6051 C 6944,6045 6960,6039 6976,6033"/>
        <path fill="none" stroke="rgb(255,255,255)" stroke-width="81" stroke-linejoin="round" d="M 7024,6016 C 7040,6010 7056,6005 7072,5999"/>
        <path fill="none" stroke="rgb(255,255,255)" stroke-width="81" stroke-linejoin="round" d="M 7120,5984 C 7136,5978 7153,5973 7169,5968"/>
        <path fill="none" stroke="rgb(255,255,255)" stroke-width="81" stroke-linejoin="round" d="M 7218,5954 C 7234,5949 7250,5945 7267,5940"/>
        <path fill="none" stroke="rgb(255,255,255)" stroke-width="81" stroke-linejoin="round" d="M 7317,5927 C 7333,5922 7350,5918 7366,5914"/>
        <path fill="none" stroke="rgb(255,255,255)" stroke-width="81" stroke-linejoin="round" d="M 7416,5902 C 7432,5898 7449,5894 7465,5891"/>
        <path fill="none" stroke="rgb(255,255,255)" stroke-width="81" stroke-linejoin="round" d="M 7515,5880 C 7532,5876 7549,5873 7565,5870"/>
        <path fill="none" stroke="rgb(255,255,255)" stroke-width="81" stroke-linejoin="round" d="M 7615,5861 C 7632,5858 7649,5855 7666,5852"/>
        <path fill="none" stroke="rgb(255,255,255)" stroke-width="81" stroke-linejoin="round" d="M 7716,5844 C 7733,5842 7750,5840 7766,5838"/>
        <path fill="none" stroke="rgb(255,255,255)" stroke-width="81" stroke-linejoin="round" d="M 7817,5832 C 7834,5830 7851,5828 7868,5826"/>
        <path fill="none" stroke="rgb(255,255,255)" stroke-width="81" stroke-linejoin="round" d="M 7919,5822 C 7936,5821 7952,5820 7969,5819"/>
        <path fill="none" stroke="rgb(255,255,255)" stroke-width="81" stroke-linejoin="round" d="M 8020,5816 C 8030,5816 8039,5815 8049,5815 8057,5815 8064,5815 8072,5814"/>
        <path fill="none" stroke="rgb(255,255,255)" stroke-width="81" stroke-linejoin="round" d="M 8122,5814 C 8140,5813 8157,5813 8174,5814"/>
        <path fill="none" stroke="rgb(255,255,255)" stroke-width="81" stroke-linejoin="round" d="M 8225,5815 C 8242,5816 8259,5816 8276,5817"/>
        <path fill="none" stroke="rgb(255,255,255)" stroke-width="81" stroke-linejoin="round" d="M 8326,5821 C 8344,5823 8360,5824 8377,5826"/>
        <path fill="none" stroke="rgb(255,255,255)" stroke-width="81" stroke-linejoin="round" d="M 8427,5834 C 8445,5836 8461,5839 8478,5843"/>
        <path fill="none" stroke="rgb(255,255,255)" stroke-width="81" stroke-linejoin="round" d="M 8528,5854 C 8544,5858 8561,5862 8577,5867"/>
        <path fill="none" stroke="rgb(255,255,255)" stroke-width="81" stroke-linejoin="round" d="M 8625,5882 C 8629,5884 8632,5885 8636,5886 8649,5891 8661,5896 8673,5900"/>
        <path fill="none" stroke="rgb(255,255,255)" stroke-width="81" stroke-linejoin="round" d="M 8720,5921 C 8736,5929 8750,5937 8764,5946"/>
        <path fill="none" stroke="rgb(255,255,255)" stroke-width="81" stroke-linejoin="round" d="M 8806,5975 C 8820,5986 8833,5997 8844,6009"/>
        <path fill="none" stroke="rgb(255,255,255)" stroke-width="81" stroke-linejoin="round" d="M 8875,6050 C 8884,6064 8892,6079 8898,6095"/>
        <path fill="none" stroke="rgb(255,255,255)" stroke-width="81" stroke-linejoin="round" d="M 8912,6144 C 8915,6161 8917,6178 8917,6195"/>
        <path fill="none" stroke="rgb(255,255,255)" stroke-width="81" stroke-linejoin="round" d="M 8912,6245 C 8908,6261 8904,6278 8898,6294"/>
        <path fill="none" stroke="rgb(255,255,255)" stroke-width="81" stroke-linejoin="round" d="M 8877,6341 C 8870,6355 8861,6370 8851,6385"/>
        <path fill="none" stroke="rgb(255,255,255)" stroke-width="81" stroke-linejoin="round" d="M 8822,6427 C 8812,6440 8802,6453 8790,6466 8790,6466 8790,6466 8790,6466"/>
        <path fill="none" stroke="rgb(255,255,255)" stroke-width="81" stroke-linejoin="round" d="M 8756,6504 C 8744,6517 8732,6529 8720,6541"/>
        <path fill="none" stroke="rgb(255,255,255)" stroke-width="81" stroke-linejoin="round" d="M 8683,6575 C 8670,6587 8657,6598 8644,6608"/>
        <path fill="none" stroke="rgb(255,255,255)" stroke-width="81" stroke-linejoin="round" d="M 8604,6640 C 8591,6650 8577,6660 8563,6670"/>
        <path fill="none" stroke="rgb(255,255,255)" stroke-width="81" stroke-linejoin="round" d="M 8521,6699 C 8507,6708 8493,6717 8478,6727"/>
        <path fill="none" stroke="rgb(255,255,255)" stroke-width="81" stroke-linejoin="round" d="M 8434,6753 C 8420,6762 8405,6770 8390,6779"/>
        <path fill="none" stroke="rgb(255,255,255)" stroke-width="81" stroke-linejoin="round" d="M 8346,6803 C 8336,6809 8326,6814 8316,6819 8311,6822 8306,6825 8300,6828"/>
        <path fill="none" stroke="rgb(255,255,255)" stroke-width="81" stroke-linejoin="round" d="M 8255,6851 C 8240,6859 8225,6866 8209,6873"/>
        <path fill="none" stroke="rgb(255,255,255)" stroke-width="81" stroke-linejoin="round" d="M 8163,6895 C 8148,6902 8132,6909 8117,6916"/>
        <path fill="none" stroke="rgb(255,255,255)" stroke-width="81" stroke-linejoin="round" d="M 8070,6936 C 8054,6943 8039,6949 8023,6956"/>
        <path fill="none" stroke="rgb(255,255,255)" stroke-width="81" stroke-linejoin="round" d="M 7975,6974 C 7959,6980 7944,6986 7927,6992"/>
        <path fill="none" stroke="rgb(255,255,255)" stroke-width="81" stroke-linejoin="round" d="M 7879,7009 C 7863,7014 7847,7020 7831,7025"/>
        <path fill="none" stroke="rgb(255,255,255)" stroke-width="81" stroke-linejoin="round" d="M 7783,7041 C 7766,7046 7750,7051 7734,7056"/>
        <path fill="none" stroke="rgb(255,255,255)" stroke-width="81" stroke-linejoin="round" d="M 7685,7070 C 7669,7075 7652,7079 7636,7084"/>
       </g>
      </g>
      <g class="com.sun.star.drawing.LineShape">
       <g id="id8">
        <rect class="BoundingBox" stroke="none" fill="none" x="5866" y="1851" width="1318" height="4682"/>
        <path fill="none" stroke="rgb(0,0,255)" stroke-width="81" stroke-linejoin="round" d="M 7142,6491 L 6063,2435"/>
        <path fill="rgb(0,0,255)" stroke="none" d="M 5908,1852 L 5867,2516 6274,2408 5908,1852 Z"/>
       </g>
      </g>
      <g class="com.sun.star.drawing.LineShape">
       <g id="id9">
        <rect class="BoundingBox" stroke="none" fill="none" x="7101" y="6451" width="4189" height="1628"/>
        <path fill="none" stroke="rgb(255,0,0)" stroke-width="81" stroke-linejoin="round" d="M 7142,6492 L 10725,7862"/>
        <path fill="rgb(255,0,0)" stroke="none" d="M 11289,8078 L 10774,7656 10624,8049 11289,8078 Z"/>
       </g>
      </g>
      <g class="com.sun.star.drawing.LineShape">
       <g id="id10">
        <rect class="BoundingBox" stroke="none" fill="none" x="7101" y="3414" width="3829" height="3120"/>
        <path fill="none" stroke="rgb(0,255,0)" stroke-width="81" stroke-linejoin="round" d="M 7142,6492 L 10461,3795"/>
        <path fill="rgb(0,255,0)" stroke="none" d="M 10929,3414 L 10306,3649 10572,3976 10929,3414 Z"/>
       </g>
      </g>
      <g class="com.sun.star.drawing.CustomShape">
       <g id="id11">
        <rect class="BoundingBox" stroke="none" fill="none" x="2463" y="6692" width="4270" height="3536"/>
        <path fill="rgb(25,25,25)" stroke="none" d="M 2504,9332 L 3230,7201 4181,6733 6691,7588 5965,9717 5012,10186 2504,9332 Z"/>
        <path fill="none" stroke="rgb(255,255,255)" stroke-width="81" stroke-linejoin="round" d="M 2504,9332 L 3230,7201 4181,6733 6691,7588 5965,9717 5012,10186 2504,9332 Z"/>
        <path fill="rgb(71,71,71)" stroke="none" d="M 3230,7201 L 4181,6733 6691,7588 5738,8055 3230,7201 Z"/>
        <path fill="none" stroke="rgb(255,255,255)" stroke-width="81" stroke-linejoin="round" d="M 3230,7201 L 4181,6733 6691,7588 5738,8055 3230,7201 Z"/>
        <path fill="rgb(20,20,20)" stroke="none" d="M 5012,10186 L 5738,8055 6691,7588 5965,9717 5012,10186 Z"/>
        <path fill="none" stroke="rgb(255,255,255)" stroke-width="81" stroke-linejoin="round" d="M 5012,10186 L 5738,8055 6691,7588 5965,9717 5012,10186 Z"/>
       </g>
      </g>
      <g class="com.sun.star.drawing.LineShape">
       <g id="id12">
        <rect class="BoundingBox" stroke="none" fill="none" x="2478" y="8873" width="840" height="455"/>
        <path fill="none" stroke="rgb(255,255,255)" stroke-width="53" stroke-linejoin="round" d="M 2505,9300 L 2550,9277"/>
        <path fill="none" stroke="rgb(255,255,255)" stroke-width="53" stroke-linejoin="round" d="M 2596,9254 L 2641,9231"/>
        <path fill="none" stroke="rgb(255,255,255)" stroke-width="53" stroke-linejoin="round" d="M 2687,9207 L 2732,9184"/>
        <path fill="none" stroke="rgb(255,255,255)" stroke-width="53" stroke-linejoin="round" d="M 2778,9161 L 2823,9138"/>
        <path fill="none" stroke="rgb(255,255,255)" stroke-width="53" stroke-linejoin="round" d="M 2869,9115 L 2914,9092"/>
        <path fill="none" stroke="rgb(255,255,255)" stroke-width="53" stroke-linejoin="round" d="M 2959,9068 L 3005,9045"/>
        <path fill="none" stroke="rgb(255,255,255)" stroke-width="53" stroke-linejoin="round" d="M 3050,9022 L 3096,8999"/>
        <path fill="none" stroke="rgb(255,255,255)" stroke-width="53" stroke-linejoin="round" d="M 3141,8976 L 3187,8953"/>
        <path fill="none" stroke="rgb(255,255,255)" stroke-width="53" stroke-linejoin="round" d="M 3232,8930 L 3277,8906"/>
       </g>
      </g>
      <g class="com.sun.star.drawing.LineShape">
       <g id="id13">
        <rect class="BoundingBox" stroke="none" fill="none" x="3263" y="6673" width="855" height="2255"/>
        <path fill="none" stroke="rgb(255,255,255)" stroke-width="53" stroke-linejoin="round" d="M 4090,6700 L 4073,6748"/>
        <path fill="none" stroke="rgb(255,255,255)" stroke-width="53" stroke-linejoin="round" d="M 4055,6796 L 4038,6844"/>
        <path fill="none" stroke="rgb(255,255,255)" stroke-width="53" stroke-linejoin="round" d="M 4020,6892 L 4003,6940"/>
        <path fill="none" stroke="rgb(255,255,255)" stroke-width="53" stroke-linejoin="round" d="M 3985,6988 L 3968,7036"/>
        <path fill="none" stroke="rgb(255,255,255)" stroke-width="53" stroke-linejoin="round" d="M 3951,7083 L 3933,7131"/>
        <path fill="none" stroke="rgb(255,255,255)" stroke-width="53" stroke-linejoin="round" d="M 3916,7179 L 3898,7227"/>
        <path fill="none" stroke="rgb(255,255,255)" stroke-width="53" stroke-linejoin="round" d="M 3881,7275 L 3863,7323"/>
        <path fill="none" stroke="rgb(255,255,255)" stroke-width="53" stroke-linejoin="round" d="M 3846,7371 L 3829,7419"/>
        <path fill="none" stroke="rgb(255,255,255)" stroke-width="53" stroke-linejoin="round" d="M 3811,7467 L 3794,7515"/>
        <path fill="none" stroke="rgb(255,255,255)" stroke-width="53" stroke-linejoin="round" d="M 3776,7563 L 3759,7611"/>
        <path fill="none" stroke="rgb(255,255,255)" stroke-width="53" stroke-linejoin="round" d="M 3741,7659 L 3724,7707"/>
        <path fill="none" stroke="rgb(255,255,255)" stroke-width="53" stroke-linejoin="round" d="M 3707,7754 L 3689,7802"/>
        <path fill="none" stroke="rgb(255,255,255)" stroke-width="53" stroke-linejoin="round" d="M 3672,7850 L 3654,7898"/>
        <path fill="none" stroke="rgb(255,255,255)" stroke-width="53" stroke-linejoin="round" d="M 3637,7946 L 3619,7994"/>
        <path fill="none" stroke="rgb(255,255,255)" stroke-width="53" stroke-linejoin="round" d="M 3602,8042 L 3585,8090"/>
        <path fill="none" stroke="rgb(255,255,255)" stroke-width="53" stroke-linejoin="round" d="M 3567,8138 L 3550,8186"/>
        <path fill="none" stroke="rgb(255,255,255)" stroke-width="53" stroke-linejoin="round" d="M 3532,8234 L 3515,8282"/>
        <path fill="none" stroke="rgb(255,255,255)" stroke-width="53" stroke-linejoin="round" d="M 3497,8330 L 3480,8378"/>
        <path fill="none" stroke="rgb(255,255,255)" stroke-width="53" stroke-linejoin="round" d="M 3463,8425 L 3445,8473"/>
        <path fill="none" stroke="rgb(255,255,255)" stroke-width="53" stroke-linejoin="round" d="M 3428,8521 L 3410,8569"/>
        <path fill="none" stroke="rgb(255,255,255)" stroke-width="53" stroke-linejoin="round" d="M 3393,8617 L 3375,8665"/>
        <path fill="none" stroke="rgb(255,255,255)" stroke-width="53" stroke-linejoin="round" d="M 3358,8713 L 3341,8761"/>
        <path fill="none" stroke="rgb(255,255,255)" stroke-width="53" stroke-linejoin="round" d="M 3323,8809 L 3306,8857"/>
       </g>
      </g>
      <g class="com.sun.star.drawing.LineShape">
       <g id="id14">
        <rect class="BoundingBox" stroke="none" fill="none" x="3263" y="8873" width="2655" height="855"/>
        <path fill="none" stroke="rgb(255,255,255)" stroke-width="53" stroke-linejoin="round" d="M 5890,9700 L 5841,9685"/>
        <path fill="none" stroke="rgb(255,255,255)" stroke-width="53" stroke-linejoin="round" d="M 5793,9670 L 5744,9655"/>
        <path fill="none" stroke="rgb(255,255,255)" stroke-width="53" stroke-linejoin="round" d="M 5695,9640 L 5646,9625"/>
        <path fill="none" stroke="rgb(255,255,255)" stroke-width="53" stroke-linejoin="round" d="M 5598,9610 L 5549,9595"/>
        <path fill="none" stroke="rgb(255,255,255)" stroke-width="53" stroke-linejoin="round" d="M 5500,9580 L 5451,9565"/>
        <path fill="none" stroke="rgb(255,255,255)" stroke-width="53" stroke-linejoin="round" d="M 5403,9550 L 5354,9535"/>
        <path fill="none" stroke="rgb(255,255,255)" stroke-width="53" stroke-linejoin="round" d="M 5305,9520 L 5256,9505"/>
        <path fill="none" stroke="rgb(255,255,255)" stroke-width="53" stroke-linejoin="round" d="M 5208,9490 L 5159,9475"/>
        <path fill="none" stroke="rgb(255,255,255)" stroke-width="53" stroke-linejoin="round" d="M 5110,9460 L 5061,9445"/>
        <path fill="none" stroke="rgb(255,255,255)" stroke-width="53" stroke-linejoin="round" d="M 5013,9430 L 4964,9415"/>
        <path fill="none" stroke="rgb(255,255,255)" stroke-width="53" stroke-linejoin="round" d="M 4915,9400 L 4866,9385"/>
        <path fill="none" stroke="rgb(255,255,255)" stroke-width="53" stroke-linejoin="round" d="M 4818,9370 L 4769,9355"/>
        <path fill="none" stroke="rgb(255,255,255)" stroke-width="53" stroke-linejoin="round" d="M 4720,9340 L 4671,9325"/>
        <path fill="none" stroke="rgb(255,255,255)" stroke-width="53" stroke-linejoin="round" d="M 4623,9310 L 4574,9295"/>
        <path fill="none" stroke="rgb(255,255,255)" stroke-width="53" stroke-linejoin="round" d="M 4525,9280 L 4476,9265"/>
        <path fill="none" stroke="rgb(255,255,255)" stroke-width="53" stroke-linejoin="round" d="M 4428,9250 L 4379,9235"/>
        <path fill="none" stroke="rgb(255,255,255)" stroke-width="53" stroke-linejoin="round" d="M 4330,9220 L 4281,9205"/>
        <path fill="none" stroke="rgb(255,255,255)" stroke-width="53" stroke-linejoin="round" d="M 4233,9190 L 4184,9175"/>
        <path fill="none" stroke="rgb(255,255,255)" stroke-width="53" stroke-linejoin="round" d="M 4135,9160 L 4086,9145"/>
        <path fill="none" stroke="rgb(255,255,255)" stroke-width="53" stroke-linejoin="round" d="M 4038,9130 L 3989,9115"/>
        <path fill="none" stroke="rgb(255,255,255)" stroke-width="53" stroke-linejoin="round" d="M 3940,9100 L 3891,9085"/>
        <path fill="none" stroke="rgb(255,255,255)" stroke-width="53" stroke-linejoin="round" d="M 3843,9070 L 3794,9055"/>
        <path fill="none" stroke="rgb(255,255,255)" stroke-width="53" stroke-linejoin="round" d="M 3745,9040 L 3696,9025"/>
        <path fill="none" stroke="rgb(255,255,255)" stroke-width="53" stroke-linejoin="round" d="M 3648,9010 L 3599,8995"/>
        <path fill="none" stroke="rgb(255,255,255)" stroke-width="53" stroke-linejoin="round" d="M 3550,8980 L 3502,8965"/>
        <path fill="none" stroke="rgb(255,255,255)" stroke-width="53" stroke-linejoin="round" d="M 3453,8950 L 3404,8935"/>
        <path fill="none" stroke="rgb(255,255,255)" stroke-width="53" stroke-linejoin="round" d="M 3355,8920 L 3307,8905"/>
       </g>
      </g>
     </g>
    </g>
   </g>
  </g>
 </g>
</svg>