<?xml version="1.0" encoding="UTF-8"?>
<!DOCTYPE svg PUBLIC "-//W3C//DTD SVG 1.1//EN" "http://www.w3.org/Graphics/SVG/1.1/DTD/svg11.dtd">
<svg version="1.2" width="254mm" height="254mm" viewBox="0 0 25400 25400" preserveAspectRatio="xMidYMid" fill-rule="evenodd" stroke-width="28.222" stroke-linejoin="round" xmlns="http://www.w3.org/2000/svg" xmlns:ooo="http://xml.openoffice.org/svg/export" xmlns:xlink="http://www.w3.org/1999/xlink" xmlns:presentation="http://sun.com/xmlns/staroffice/presentation" xmlns:smil="http://www.w3.org/2001/SMIL20/" xmlns:anim="urn:oasis:names:tc:opendocument:xmlns:animation:1.0" xml:space="preserve">
 <defs class="ClipPathGroup">
  <clipPath id="presentation_clip_path" clipPathUnits="userSpaceOnUse">
   <rect x="0" y="0" width="25400" height="25400"/>
  </clipPath>
  <clipPath id="presentation_clip_path_shrink" clipPathUnits="userSpaceOnUse">
   <rect x="25" y="25" width="25350" height="25350"/>
  </clipPath>
 </defs>
 <defs class="TextShapeIndex">
  <g ooo:slide="id1" ooo:id-list="id3 id4 id5 id6 id7 id8 id9 id10 id11 id12 id13"/>
 </defs>
 <defs class="EmbeddedBulletChars">
  <g id="bullet-char-template-57356" transform="scale(0.00048828125,-0.00048828125)">
   <path d="M 580,1141 L 1163,571 580,0 -4,571 580,1141 Z"/>
  </g>
  <g id="bullet-char-template-57354" transform="scale(0.00048828125,-0.00048828125)">
   <path d="M 8,1128 L 1137,1128 1137,0 8,0 8,1128 Z"/>
  </g>
  <g id="bullet-char-template-10146" transform="scale(0.00048828125,-0.00048828125)">
   <path d="M 174,0 L 602,739 174,1481 1456,739 174,0 Z M 1358,739 L 309,1346 659,739 1358,739 Z"/>
  </g>
  <g id="bullet-char-template-10132" transform="scale(0.00048828125,-0.00048828125)">
   <path d="M 2015,739 L 1276,0 717,0 1260,543 174,543 174,936 1260,936 717,1481 1274,1481 2015,739 Z"/>
  </g>
  <g id="bullet-char-template-10007" transform="scale(0.00048828125,-0.00048828125)">
   <path d="M 0,-2 C -7,14 -16,27 -25,37 L 356,567 C 262,823 215,952 215,954 215,979 228,992 255,992 264,992 276,990 289,987 310,991 331,999 354,1012 L 381,999 492,748 772,1049 836,1024 860,1049 C 881,1039 901,1025 922,1006 886,937 835,863 770,784 769,783 710,716 594,584 L 774,223 C 774,196 753,168 711,139 L 727,119 C 717,90 699,76 672,76 641,76 570,178 457,381 L 164,-76 C 142,-110 111,-127 72,-127 30,-127 9,-110 8,-76 1,-67 -2,-52 -2,-32 -2,-23 -1,-13 0,-2 Z"/>
  </g>
  <g id="bullet-char-template-10004" transform="scale(0.00048828125,-0.00048828125)">
   <path d="M 285,-33 C 182,-33 111,30 74,156 52,228 41,333 41,471 41,549 55,616 82,672 116,743 169,778 240,778 293,778 328,747 346,684 L 369,508 C 377,444 397,411 428,410 L 1163,1116 C 1174,1127 1196,1133 1229,1133 1271,1133 1292,1118 1292,1087 L 1292,965 C 1292,929 1282,901 1262,881 L 442,47 C 390,-6 338,-33 285,-33 Z"/>
  </g>
  <g id="bullet-char-template-9679" transform="scale(0.00048828125,-0.00048828125)">
   <path d="M 813,0 C 632,0 489,54 383,161 276,268 223,411 223,592 223,773 276,916 383,1023 489,1130 632,1184 813,1184 992,1184 1136,1130 1245,1023 1353,916 1407,772 1407,592 1407,412 1353,268 1245,161 1136,54 992,0 813,0 Z"/>
  </g>
  <g id="bullet-char-template-8226" transform="scale(0.00048828125,-0.00048828125)">
   <path d="M 346,457 C 273,457 209,483 155,535 101,586 74,649 74,723 74,796 101,859 155,911 209,963 273,989 346,989 419,989 480,963 531,910 582,859 608,796 608,723 608,648 583,586 532,535 482,483 420,457 346,457 Z"/>
  </g>
  <g id="bullet-char-template-8211" transform="scale(0.00048828125,-0.00048828125)">
   <path d="M -4,459 L 1135,459 1135,606 -4,606 -4,459 Z"/>
  </g>
  <g id="bullet-char-template-61548" transform="scale(0.00048828125,-0.00048828125)">
   <path d="M 173,740 C 173,903 231,1043 346,1159 462,1274 601,1332 765,1332 928,1332 1067,1274 1183,1159 1299,1043 1357,903 1357,740 1357,577 1299,437 1183,322 1067,206 928,148 765,148 601,148 462,206 346,322 231,437 173,577 173,740 Z"/>
  </g>
 </defs>
 <g>
  <g id="id2" class="Master_Slide">
   <g id="bg-id2" class="Background"/>
   <g id="bo-id2" class="BackgroundObjects"/>
  </g>
 </g>
 <g class="SlideGroup">
  <g>
   <g id="container-id1">
    <g id="id1" class="Slide" clip-path="url(#presentation_clip_path)">
     <g class="Page">
      <g id="bg-id1" class="Background">
       <path fill="rgb(25,25,25)" stroke="none" d="M 12700,25399 L 0,25399 0,0 25399,0 25399,25399 12700,25399 Z"/>
      </g>
      <g class="com.sun.star.drawing.LineShape">
       <g id="id3">
        <rect class="BoundingBox" stroke="none" fill="none" x="15060" y="4028" width="2647" height="6203"/>
        <path fill="none" stroke="rgb(236,46,215)" stroke-width="106" stroke-linejoin="round" d="M 17653,4081 L 17612,4179"/>
        <path fill="none" stroke="rgb(236,46,215)" stroke-width="106" stroke-linejoin="round" d="M 17571,4277 L 17531,4375"/>
        <path fill="none" stroke="rgb(236,46,215)" stroke-width="106" stroke-linejoin="round" d="M 17490,4472 L 17449,4570"/>
        <path fill="none" stroke="rgb(236,46,215)" stroke-width="106" stroke-linejoin="round" d="M 17408,4668 L 17368,4766"/>
        <path fill="none" stroke="rgb(236,46,215)" stroke-width="106" stroke-linejoin="round" d="M 17327,4864 L 17286,4962"/>
        <path fill="none" stroke="rgb(236,46,215)" stroke-width="106" stroke-linejoin="round" d="M 17245,5059 L 17205,5157"/>
        <path fill="none" stroke="rgb(236,46,215)" stroke-width="106" stroke-linejoin="round" d="M 17164,5255 L 17123,5353"/>
        <path fill="none" stroke="rgb(236,46,215)" stroke-width="106" stroke-linejoin="round" d="M 17082,5451 L 17041,5549"/>
        <path fill="none" stroke="rgb(236,46,215)" stroke-width="106" stroke-linejoin="round" d="M 17001,5647 L 16960,5744"/>
        <path fill="none" stroke="rgb(236,46,215)" stroke-width="106" stroke-linejoin="round" d="M 16919,5842 L 16878,5940"/>
        <path fill="none" stroke="rgb(236,46,215)" stroke-width="106" stroke-linejoin="round" d="M 16838,6038 L 16797,6136"/>
        <path fill="none" stroke="rgb(236,46,215)" stroke-width="106" stroke-linejoin="round" d="M 16756,6234 L 16715,6331"/>
        <path fill="none" stroke="rgb(236,46,215)" stroke-width="106" stroke-linejoin="round" d="M 16675,6429 L 16634,6527"/>
        <path fill="none" stroke="rgb(236,46,215)" stroke-width="106" stroke-linejoin="round" d="M 16593,6625 L 16552,6723"/>
        <path fill="none" stroke="rgb(236,46,215)" stroke-width="106" stroke-linejoin="round" d="M 16511,6821 L 16471,6919"/>
        <path fill="none" stroke="rgb(236,46,215)" stroke-width="106" stroke-linejoin="round" d="M 16430,7016 L 16389,7114"/>
        <path fill="none" stroke="rgb(236,46,215)" stroke-width="106" stroke-linejoin="round" d="M 16348,7212 L 16308,7310"/>
        <path fill="none" stroke="rgb(236,46,215)" stroke-width="106" stroke-linejoin="round" d="M 16267,7408 L 16226,7506"/>
        <path fill="none" stroke="rgb(236,46,215)" stroke-width="106" stroke-linejoin="round" d="M 16185,7603 L 16145,7701"/>
        <path fill="none" stroke="rgb(236,46,215)" stroke-width="106" stroke-linejoin="round" d="M 16104,7799 L 16063,7897"/>
        <path fill="none" stroke="rgb(236,46,215)" stroke-width="106" stroke-linejoin="round" d="M 16022,7995 L 15981,8093"/>
        <path fill="none" stroke="rgb(236,46,215)" stroke-width="106" stroke-linejoin="round" d="M 15941,8191 L 15900,8288"/>
        <path fill="none" stroke="rgb(236,46,215)" stroke-width="106" stroke-linejoin="round" d="M 15859,8386 L 15818,8484"/>
        <path fill="none" stroke="rgb(236,46,215)" stroke-width="106" stroke-linejoin="round" d="M 15778,8582 L 15737,8680"/>
        <path fill="none" stroke="rgb(236,46,215)" stroke-width="106" stroke-linejoin="round" d="M 15696,8778 L 15655,8875"/>
        <path fill="none" stroke="rgb(236,46,215)" stroke-width="106" stroke-linejoin="round" d="M 15615,8973 L 15574,9071"/>
        <path fill="none" stroke="rgb(236,46,215)" stroke-width="106" stroke-linejoin="round" d="M 15533,9169 L 15492,9267"/>
        <path fill="none" stroke="rgb(236,46,215)" stroke-width="106" stroke-linejoin="round" d="M 15451,9365 L 15411,9463"/>
        <path fill="none" stroke="rgb(236,46,215)" stroke-width="106" stroke-linejoin="round" d="M 15370,9560 L 15329,9658"/>
        <path fill="none" stroke="rgb(236,46,215)" stroke-width="106" stroke-linejoin="round" d="M 15288,9756 L 15248,9854"/>
        <path fill="none" stroke="rgb(236,46,215)" stroke-width="106" stroke-linejoin="round" d="M 15207,9952 L 15166,10050"/>
        <path fill="none" stroke="rgb(236,46,215)" stroke-width="106" stroke-linejoin="round" d="M 15125,10147 L 15113,10177"/>
       </g>
      </g>
      <g class="com.sun.star.drawing.PolyPolygonShape">
       <g id="id4">
        <rect class="BoundingBox" stroke="none" fill="none" x="4826" y="8653" width="13971" height="13972"/>
        <path fill="rgb(89,131,176)" stroke="none" d="M 9144,9669 L 4826,15638 8636,22623 18796,19956 17780,11574 11049,8653 9144,9669 Z"/>
       </g>
      </g>
      <g class="com.sun.star.drawing.CustomShape">
       <g id="id5">
        <rect class="BoundingBox" stroke="none" fill="none" x="17144" y="3698" width="1020" height="893"/>
        <path fill="rgb(129,212,26)" stroke="none" d="M 18162,4144 C 18162,4222 18139,4299 18094,4367 18049,4434 17985,4490 17908,4529 17830,4568 17743,4589 17654,4589 17564,4589 17477,4568 17399,4529 17322,4490 17258,4434 17213,4367 17168,4299 17145,4222 17145,4144 17145,4066 17168,3989 17213,3922 17258,3854 17322,3798 17399,3759 17477,3720 17564,3699 17654,3699 17743,3699 17830,3720 17908,3759 17985,3798 18049,3854 18094,3922 18139,3989 18162,4066 18162,4144 L 18162,4144 Z"/>
        <path fill="none" stroke="rgb(94,185,30)" d="M 18162,4144 C 18162,4222 18139,4299 18094,4367 18049,4434 17985,4490 17908,4529 17830,4568 17743,4589 17654,4589 17564,4589 17477,4568 17399,4529 17322,4490 17258,4434 17213,4367 17168,4299 17145,4222 17145,4144 17145,4066 17168,3989 17213,3922 17258,3854 17322,3798 17399,3759 17477,3720 17564,3699 17654,3699 17743,3699 17830,3720 17908,3759 17985,3798 18049,3854 18094,3922 18139,3989 18162,4066 18162,4144 L 18162,4144 Z"/>
       </g>
      </g>
      <g class="com.sun.star.drawing.CustomShape">
       <g id="id6">
        <rect class="BoundingBox" stroke="none" fill="none" x="14478" y="10049" width="1019" height="892"/>
        <path fill="rgb(255,0,0)" stroke="none" d="M 15495,10494 C 15495,10572 15472,10649 15427,10717 15382,10784 15318,10840 15241,10879 15163,10918 15076,10939 14987,10939 14897,10939 14810,10918 14732,10879 14655,10840 14591,10784 14546,10717 14501,10649 14478,10572 14478,10494 14478,10416 14501,10339 14546,10272 14591,10204 14655,10148 14732,10109 14810,10070 14897,10049 14987,10049 15076,10049 15163,10070 15241,10109 15318,10148 15382,10204 15427,10272 15472,10339 15495,10416 15495,10494 L 15495,10494 Z"/>
       </g>
      </g>
      <g class="com.sun.star.drawing.CustomShape">
       <g id="id7">
        <rect class="BoundingBox" stroke="none" fill="none" x="13555" y="3557" width="3576" height="6353"/>
        <path fill="none" stroke="rgb(236,46,215)" stroke-width="81" stroke-linejoin="round" d="M 14250,9868 C 13818,9668 13503,9212 13621,8956 L 14621,6791 C 14739,6535 14425,6079 13992,5879 14425,6079 14976,6022 15094,5766 L 15987,3832 C 16105,3576 16657,3519 17089,3718"/>
       </g>
      </g>
      <g class="OLE2">
       <g id="id8">
        <rect class="BoundingBox" stroke="none" fill="none" x="20353" y="13999" width="2000" height="1000"/>
        <defs>
         <clipPath id="clip_path_1" clipPathUnits="userSpaceOnUse">
          <path d="M 20346,13996 L 22357,13996 22357,15002 20346,15002 20346,13996 Z"/>
         </clipPath>
        </defs>
        <g clip-path="url(#clip_path_1)"/>
       </g>
      </g>
      <g class="Graphic">
       <title>TexMaths
       </title>
       <desc>14§display§\textcolor{white}{p}§svg§600§TRUE§
       </desc>
       <g id="id9">
        <rect class="BoundingBox" stroke="none" fill="none" x="18415" y="3090" width="940" height="1119"/>
        <path fill="rgb(255,255,255)" stroke="none" d="M 18595,4036 C 18583,4089 18580,4100 18510,4100 18491,4100 18474,4100 18474,4130 18474,4143 18482,4149 18495,4149 18537,4149 18583,4144 18627,4144 18679,4144 18732,4149 18782,4149 18790,4149 18811,4149 18811,4117 18811,4100 18795,4100 18773,4100 18694,4100 18694,4089 18694,4075 18694,4056 18760,3800 18771,3761 18792,3806 18836,3861 18916,3861 19098,3861 19295,3632 19295,3401 19295,3253 19205,3149 19086,3149 19007,3149 18932,3206 18880,3267 18864,3182 18796,3149 18738,3149 18666,3149 18636,3210 18622,3239 18594,3292 18573,3387 18573,3391 18573,3407 18589,3407 18592,3407 18608,3407 18609,3405 18619,3371 18646,3259 18677,3184 18734,3184 18760,3184 18782,3196 18782,3256 18782,3292 18778,3309 18771,3336 L 18595,4036 18595,4036 Z M 18872,3353 C 18883,3311 18925,3267 18954,3243 19009,3195 19054,3184 19081,3184 19144,3184 19182,3239 19182,3331 19182,3424 19130,3605 19101,3665 19048,3775 18973,3827 18914,3827 18811,3827 18790,3696 18790,3687 18790,3684 18790,3680 18795,3662 L 18872,3353 18872,3353 Z"/>
       </g>
      </g>
      <g class="Graphic">
       <title>TexMaths
       </title>
       <desc>14§display§\textcolor{white}{\Pi_{\mathcal{U}}(p)}§svg§600§TRUE§
       </desc>
       <g id="id10">
        <rect class="BoundingBox" stroke="none" fill="none" x="16383" y="9590" width="2991" height="1223"/>
        <path fill="rgb(255,255,255)" stroke="none" d="M 17123,9801 C 17123,9760 17125,9748 17213,9748 L 17240,9748 17240,9712 16463,9712 16463,9748 16491,9748 C 16578,9748 16580,9760 16580,9801 L 16580,10396 C 16580,10437 16578,10450 16491,10450 L 16463,10450 16463,10485 C 16503,10482 16587,10482 16630,10482 16674,10482 16759,10482 16799,10485 L 16799,10450 16772,10450 C 16684,10450 16682,10437 16682,10396 L 16682,9748 17022,9748 17022,10396 C 17022,10437 17019,10450 16932,10450 L 16905,10450 16905,10485 C 16944,10482 17029,10482 17072,10482 17115,10482 17200,10482 17240,10485 L 17240,10450 17213,10450 C 17125,10450 17123,10437 17123,10396 L 17123,9801 17123,9801 Z"/>
        <path fill="rgb(255,255,255)" stroke="none" d="M 17725,10410 C 17692,10535 17678,10587 17678,10641 17678,10668 17698,10677 17715,10677 17749,10677 17814,10641 17814,10622 17814,10620 17812,10616 17805,10616 17797,10616 17783,10621 17770,10629 17752,10626 17752,10609 17752,10605 17752,10501 17845,10226 17866,10178 17879,10147 17885,10123 17885,10119 17885,10112 17878,10112 17876,10112 17858,10112 17825,10131 17814,10148 17814,10150 17806,10167 17791,10212 17745,10338 17525,10623 17423,10623 17382,10623 17354,10590 17354,10530 17354,10480 17373,10428 17425,10310 17453,10247 17479,10185 17479,10150 17479,10115 17455,10112 17439,10112 17373,10112 17289,10161 17289,10181 17289,10188 17297,10188 17299,10188 17311,10188 17326,10180 17336,10173 17354,10163 17370,10161 17383,10161 17400,10161 17405,10170 17405,10186 17405,10218 17382,10272 17348,10350 17301,10456 17279,10515 17279,10566 17279,10621 17303,10671 17366,10671 17440,10671 17531,10609 17592,10554 17623,10526 17663,10487 17724,10410 L 17725,10410 17725,10410 Z"/>
        <path fill="rgb(255,255,255)" stroke="none" d="M 18364,10758 C 18364,10754 18364,10752 18344,10733 18202,10590 18166,10375 18166,10201 18166,10003 18209,9806 18349,9663 18364,9650 18364,9648 18364,9644 18364,9636 18359,9633 18352,9633 18341,9633 18238,9710 18171,9854 18113,9979 18100,10106 18100,10201 18100,10290 18112,10427 18175,10556 18243,10695 18341,10769 18352,10769 18359,10769 18364,10766 18364,10758 L 18364,10758 Z"/>
        <path fill="rgb(255,255,255)" stroke="none" d="M 18481,10624 C 18471,10662 18469,10670 18419,10670 18406,10670 18393,10670 18393,10692 18393,10701 18399,10706 18408,10706 18439,10706 18471,10702 18503,10702 18541,10702 18580,10706 18616,10706 18622,10706 18636,10706 18636,10683 18636,10670 18625,10670 18609,10670 18552,10670 18552,10662 18552,10652 18552,10639 18600,10453 18608,10425 18623,10458 18655,10498 18713,10498 18844,10498 18987,10332 18987,10165 18987,10058 18922,9983 18835,9983 18779,9983 18724,10024 18686,10068 18675,10007 18626,9983 18584,9983 18532,9983 18510,10027 18500,10048 18479,10086 18465,10154 18465,10158 18465,10169 18476,10169 18478,10169 18490,10169 18491,10168 18498,10143 18517,10062 18540,10008 18581,10008 18600,10008 18616,10017 18616,10060 18616,10086 18612,10099 18608,10118 L 18481,10624 18481,10624 Z M 18681,10131 C 18689,10100 18719,10068 18740,10051 18780,10016 18813,10008 18832,10008 18877,10008 18905,10048 18905,10115 18905,10182 18867,10312 18847,10356 18808,10435 18754,10473 18711,10473 18636,10473 18622,10378 18622,10371 18622,10369 18622,10367 18625,10353 L 18681,10131 18681,10131 Z"/>
        <path fill="rgb(255,255,255)" stroke="none" d="M 19330,10201 C 19330,10112 19318,9975 19255,9846 19187,9707 19089,9633 19078,9633 19071,9633 19066,9637 19066,9644 19066,9648 19066,9650 19088,9670 19199,9783 19264,9963 19264,10201 19264,10395 19222,10595 19081,10739 19066,10752 19066,10754 19066,10758 19066,10765 19071,10769 19078,10769 19089,10769 19191,10692 19259,10548 19317,10423 19330,10296 19330,10201 L 19330,10201 Z"/>
       </g>
      </g>
      <g class="Graphic">
       <title>TexMaths
       </title>
       <desc>14§display§\textcolor{white}{D}§svg§600§TRUE§
       </desc>
       <g id="id11">
        <rect class="BoundingBox" stroke="none" fill="none" x="12700" y="5116" width="1026" height="871"/>
        <defs>
         <clipPath id="clip_path_2" clipPathUnits="userSpaceOnUse">
          <path d="M 12700,5116 L 13725,5116 13725,5986 12700,5986 12700,5116 Z"/>
         </clipPath>
        </defs>
        <g clip-path="url(#clip_path_2)">
         <path fill="rgb(255,255,255)" stroke="none" d="M 12903,5887 C 12890,5936 12887,5947 12787,5947 12765,5947 12751,5947 12751,5971 12751,5986 12762,5986 12787,5986 L 13209,5986 C 13474,5986 13725,5717 13725,5438 13725,5259 13617,5116 13425,5116 L 12997,5116 C 12973,5116 12959,5116 12959,5140 12959,5155 12970,5155 12996,5155 13012,5155 13035,5157 13051,5158 13071,5161 13079,5164 13079,5178 13079,5184 13077,5187 13074,5203 L 12903,5887 12903,5887 Z M 13178,5204 C 13190,5159 13192,5155 13247,5155 L 13383,5155 C 13508,5155 13614,5223 13614,5391 13614,5454 13589,5662 13480,5803 13443,5850 13343,5947 13186,5947 L 13042,5947 C 13024,5947 13021,5947 13014,5945 13001,5944 12997,5943 12997,5933 12997,5929 12997,5926 13003,5903 L 13178,5204 13178,5204 Z"/>
        </g>
       </g>
      </g>
      <g class="Graphic">
       <title>TexMaths
       </title>
       <desc>14§display§\textcolor{white}{E_{\mathcal{U}}(p) = 0.5D^2}§svg§600§TRUE§
       </desc>
       <g id="id12">
        <rect class="BoundingBox" stroke="none" fill="none" x="4445" y="3229" width="7086" height="1234"/>
        <defs>
         <clipPath id="clip_path_3" clipPathUnits="userSpaceOnUse">
          <path d="M 4445,3229 L 11530,3229 11530,4462 4445,4462 4445,3229 Z"/>
         </clipPath>
        </defs>
        <g clip-path="url(#clip_path_3)">
         <path fill="rgb(255,255,255)" stroke="none" d="M 5221,3934 C 5223,3928 5227,3921 5227,3919 5227,3917 5227,3907 5214,3907 5204,3907 5201,3913 5199,3920 5128,4082 5087,4155 4900,4155 L 4740,4155 C 4725,4155 4722,4155 4716,4154 4705,4153 4702,4151 4702,4143 4702,4139 4702,4137 4707,4118 L 4782,3819 4890,3819 C 4983,3819 4983,3842 4983,3869 4983,3877 4983,3890 4976,3923 4973,3928 4972,3932 4972,3935 4972,3940 4977,3947 4987,3947 4995,3947 4999,3942 5003,3925 L 5066,3669 C 5066,3663 5060,3657 5052,3657 5043,3657 5040,3664 5037,3677 5014,3760 4994,3785 4893,3785 L 4790,3785 4856,3522 C 4866,3483 4867,3479 4915,3479 L 5070,3479 C 5204,3479 5237,3511 5237,3600 5237,3627 5237,3629 5232,3658 5232,3665 5231,3673 5231,3678 5231,3684 5234,3691 5244,3691 5256,3691 5257,3685 5260,3664 L 5282,3475 C 5285,3445 5279,3445 5252,3445 L 4698,3445 C 4676,3445 4665,3445 4665,3467 4665,3479 4675,3479 4696,3479 4737,3479 4767,3479 4767,3499 4767,3503 4767,3505 4762,3525 L 4617,4103 C 4606,4146 4604,4155 4517,4155 4499,4155 4487,4155 4487,4176 4487,4189 4497,4189 4517,4189 L 5086,4189 C 5112,4189 5113,4188 5120,4170 L 5221,3934 5221,3934 Z"/>
         <path fill="rgb(255,255,255)" stroke="none" d="M 5685,4116 C 5653,4236 5639,4287 5639,4339 5639,4365 5659,4373 5675,4373 5708,4373 5770,4339 5770,4321 5770,4318 5768,4314 5762,4314 5754,4314 5740,4319 5728,4327 5710,4324 5710,4308 5710,4304 5710,4204 5801,3939 5821,3893 5833,3864 5839,3840 5839,3837 5839,3830 5832,3830 5830,3830 5813,3830 5781,3848 5771,3864 5770,3867 5763,3883 5748,3926 5704,4047 5491,4321 5393,4321 5354,4321 5326,4290 5326,4232 5326,4184 5345,4134 5396,4020 5422,3959 5448,3900 5448,3867 5448,3832 5424,3830 5409,3830 5346,3830 5264,3877 5264,3897 5264,3903 5272,3903 5273,3903 5285,3903 5300,3895 5310,3889 5326,3879 5343,3877 5355,3877 5371,3877 5376,3885 5376,3901 5376,3932 5354,3984 5321,4059 5276,4161 5255,4217 5255,4266 5255,4319 5278,4368 5339,4368 5410,4368 5498,4308 5557,4255 5586,4228 5625,4190 5684,4116 L 5685,4116 5685,4116 Z"/>
         <path fill="rgb(255,255,255)" stroke="none" d="M 6300,4451 C 6300,4448 6300,4446 6282,4427 6145,4289 6109,4083 6109,3915 6109,3725 6151,3535 6286,3398 6300,3385 6300,3383 6300,3380 6300,3372 6296,3369 6289,3369 6278,3369 6180,3443 6115,3582 6059,3702 6046,3823 6046,3915 6046,4001 6058,4133 6118,4256 6184,4391 6278,4462 6289,4462 6296,4462 6300,4459 6300,4451 L 6300,4451 Z"/>
         <path fill="rgb(255,255,255)" stroke="none" d="M 6413,4322 C 6404,4359 6402,4367 6354,4367 6341,4367 6329,4367 6329,4388 6329,4396 6334,4401 6343,4401 6372,4401 6404,4397 6435,4397 6471,4397 6508,4401 6544,4401 6549,4401 6563,4401 6563,4379 6563,4367 6552,4367 6537,4367 6482,4367 6482,4359 6482,4349 6482,4336 6528,4158 6536,4131 6550,4162 6581,4201 6637,4201 6764,4201 6901,4041 6901,3880 6901,3778 6838,3705 6755,3705 6700,3705 6648,3745 6611,3787 6601,3728 6553,3705 6513,3705 6462,3705 6442,3748 6432,3768 6412,3805 6398,3870 6398,3874 6398,3885 6409,3885 6411,3885 6422,3885 6423,3884 6429,3860 6448,3782 6470,3729 6510,3729 6528,3729 6544,3738 6544,3780 6544,3805 6540,3817 6536,3835 L 6413,4322 6413,4322 Z M 6606,3848 C 6614,3818 6643,3787 6663,3771 6701,3737 6733,3729 6752,3729 6796,3729 6822,3768 6822,3832 6822,3897 6786,4022 6766,4064 6729,4141 6676,4177 6636,4177 6563,4177 6549,4086 6549,4079 6549,4077 6549,4075 6552,4062 L 6606,3848 6606,3848 Z"/>
         <path fill="rgb(255,255,255)" stroke="none" d="M 7232,3915 C 7232,3830 7220,3698 7160,3574 7094,3440 7000,3369 6989,3369 6982,3369 6978,3373 6978,3380 6978,3383 6978,3385 6999,3405 7106,3513 7169,3687 7169,3915 7169,4102 7128,4295 6992,4432 6978,4446 6978,4448 6978,4451 6978,4458 6982,4462 6989,4462 7000,4462 7098,4388 7163,4249 7219,4129 7232,4007 7232,3915 L 7232,3915 Z"/>
         <path fill="rgb(255,255,255)" stroke="none" d="M 8399,3831 C 8416,3831 8437,3831 8437,3809 8437,3787 8416,3787 8400,3787 L 7744,3787 C 7728,3787 7708,3787 7708,3809 7708,3831 7728,3831 7745,3831 L 8399,3831 8399,3831 Z M 8400,4043 C 8416,4043 8437,4043 8437,4021 8437,3999 8416,3999 8399,3999 L 7745,3999 C 7728,3999 7708,3999 7708,4021 7708,4043 7728,4043 7744,4043 L 8400,4043 8400,4043 Z"/>
         <path fill="rgb(255,255,255)" stroke="none" d="M 9308,3839 C 9308,3751 9302,3664 9264,3583 9213,3478 9124,3460 9078,3460 9012,3460 8932,3489 8887,3591 8852,3666 8846,3751 8846,3839 8846,3921 8851,4019 8896,4102 8943,4191 9023,4213 9076,4213 9136,4213 9219,4190 9267,4086 9302,4010 9308,3925 9308,3839 L 9308,3839 Z M 9076,4189 C 9034,4189 8969,4161 8949,4056 8937,3991 8937,3890 8937,3826 8937,3756 8937,3684 8946,3624 8967,3494 9049,3485 9076,3485 9113,3485 9185,3504 9206,3612 9217,3674 9217,3757 9217,3826 9217,3908 9217,3982 9205,4052 9188,4156 9126,4189 9076,4189 L 9076,4189 Z"/>
         <path fill="rgb(255,255,255)" stroke="none" d="M 9562,4131 C 9562,4099 9536,4073 9504,4073 9472,4073 9446,4099 9446,4131 9446,4162 9472,4189 9504,4189 9536,4189 9562,4162 9562,4131 L 9562,4131 Z"/>
         <path fill="rgb(255,255,255)" stroke="none" d="M 10148,3969 C 10148,3839 10058,3729 9940,3729 9887,3729 9840,3747 9801,3785 L 9801,3572 C 9823,3579 9859,3586 9894,3586 10029,3586 10106,3487 10106,3472 10106,3466 10102,3460 10095,3460 10094,3460 10091,3460 10086,3464 10064,3474 10010,3495 9937,3495 9893,3495 9843,3488 9791,3465 9782,3462 9780,3462 9778,3462 9767,3462 9767,3470 9767,3488 L 9767,3811 C 9767,3831 9767,3840 9782,3840 9790,3840 9792,3837 9796,3830 9809,3813 9849,3753 9938,3753 9995,3753 10022,3804 10031,3823 10049,3864 10051,3907 10051,3961 10051,3999 10051,4065 10025,4111 9998,4154 9958,4182 9907,4182 9827,4182 9765,4124 9746,4060 9749,4061 9753,4062 9765,4062 9801,4062 9819,4034 9819,4008 9819,3982 9801,3955 9765,3955 9749,3955 9711,3962 9711,4013 9711,4107 9787,4213 9909,4213 10037,4213 10148,4108 10148,3969 L 10148,3969 Z"/>
         <path fill="rgb(255,255,255)" stroke="none" d="M 10379,4103 C 10368,4146 10365,4155 10279,4155 10260,4155 10248,4155 10248,4176 10248,4189 10258,4189 10279,4189 L 10642,4189 C 10870,4189 11086,3958 11086,3718 11086,3564 10993,3442 10828,3442 L 10460,3442 C 10439,3442 10427,3442 10427,3463 10427,3476 10437,3476 10459,3476 10473,3476 10493,3477 10506,3478 10523,3480 10530,3483 10530,3495 10530,3500 10529,3503 10526,3516 L 10379,4103 10379,4103 Z M 10615,3517 C 10625,3479 10627,3476 10675,3476 L 10792,3476 C 10899,3476 10990,3534 10990,3678 10990,3732 10968,3911 10875,4031 10843,4072 10757,4155 10622,4155 L 10498,4155 C 10483,4155 10481,4155 10474,4154 10463,4153 10460,4151 10460,4143 10460,4139 10460,4137 10465,4118 L 10615,3517 10615,3517 Z"/>
         <path fill="rgb(255,255,255)" stroke="none" d="M 11530,3598 L 11504,3598 C 11502,3615 11494,3660 11484,3668 11478,3672 11419,3672 11408,3672 L 11267,3672 C 11347,3601 11374,3580 11420,3544 11477,3498 11530,3451 11530,3378 11530,3286 11449,3229 11350,3229 11255,3229 11191,3296 11191,3366 11191,3405 11224,3409 11231,3409 11250,3409 11272,3396 11272,3368 11272,3355 11267,3328 11227,3328 11251,3273 11303,3257 11339,3257 11416,3257 11456,3316 11456,3378 11456,3445 11408,3498 11383,3525 L 11198,3707 C 11191,3714 11191,3716 11191,3737 L 11507,3737 11530,3598 11530,3598 Z"/>
        </g>
       </g>
      </g>
      <g class="Graphic">
       <title>TexMaths
       </title>
       <desc>14§display§\textcolor{mydarkblue}{\mathcal{U}}§svg§600§TRUE§
       </desc>
       <g id="id13">
        <rect class="BoundingBox" stroke="none" fill="none" x="10732" y="14003" width="3493" height="3524"/>
        <defs>
         <clipPath id="clip_path_4" clipPathUnits="userSpaceOnUse">
          <path d="M 10732,14003 L 14224,14003 14224,17526 10732,17526 10732,14003 Z"/>
         </clipPath>
        </defs>
        <g clip-path="url(#clip_path_4)">
         <path fill="rgb(8,69,148)" stroke="none" d="M 13258,15921 C 13144,16337 12971,16951 12971,17333 12971,17467 13055,17526 13174,17526 13372,17526 13744,17313 13744,17214 13744,17189 13719,17179 13694,17179 13635,17179 13545,17224 13491,17253 13427,17244 13392,17194 13392,17125 13392,16520 13957,14786 14100,14419 14160,14280 14224,14077 14224,14038 14224,14003 14194,14003 14174,14003 14070,14003 13848,14137 13808,14231 13744,14404 13734,14429 13674,14612 13511,15083 13020,15901 12530,16476 12376,16649 11891,17224 11539,17224 11302,17224 11153,17021 11153,16694 11153,16347 11346,15901 11643,15222 11822,14816 11970,14464 11970,14241 11970,14008 11812,14003 11723,14003 11341,14003 10866,14310 10866,14414 10866,14444 10900,14444 10920,14444 10980,14444 11069,14404 11148,14350 11183,14325 11262,14276 11396,14276 11505,14276 11549,14345 11549,14454 11549,14672 11371,15078 11163,15554 10836,16297 10732,16614 10732,16902 10732,17229 10861,17496 11212,17496 11520,17496 11970,17293 12476,16822 12817,16500 13040,16203 13253,15916 L 13258,15921 13258,15921 Z"/>
        </g>
       </g>
      </g>
     </g>
    </g>
   </g>
  </g>
 </g>
</svg>