<?xml version="1.0" encoding="utf-8" standalone="no"?>
<!DOCTYPE svg PUBLIC "-//W3C//DTD SVG 1.1//EN"
  "http://www.w3.org/Graphics/SVG/1.1/DTD/svg11.dtd">
<svg xmlns:xlink="http://www.w3.org/1999/xlink" width="576pt" height="504pt" viewBox="0 0 576 504" xmlns="http://www.w3.org/2000/svg" version="1.1">
 <metadata>
  <rdf:RDF xmlns:dc="http://purl.org/dc/elements/1.1/" xmlns:cc="http://creativecommons.org/ns#" xmlns:rdf="http://www.w3.org/1999/02/22-rdf-syntax-ns#">
   <cc:Work>
    <dc:type rdf:resource="http://purl.org/dc/dcmitype/StillImage"/>
    <dc:date>2025-03-05T15:10:16.665563</dc:date>
    <dc:format>image/svg+xml</dc:format>
    <dc:creator>
     <cc:Agent>
      <dc:title>Matplotlib v3.10.0, https://matplotlib.org/</dc:title>
     </cc:Agent>
    </dc:creator>
   </cc:Work>
  </rdf:RDF>
 </metadata>
 <defs>
  <style type="text/css">*{stroke-linejoin: round; stroke-linecap: butt}</style>
 </defs>
 <g id="figure_1">
  <g id="patch_1">
   <path d="M 0 504 
L 576 504 
L 576 0 
L 0 0 
z
" style="fill: #191919"/>
  </g>
  <g id="axes_1">
   <g id="patch_2">
    <path d="M 72 448.56 
L 518.4 448.56 
L 518.4 60.48 
L 72 60.48 
z
" style="fill: #191919"/>
   </g>
   <g id="matplotlib.axis_1">
    <g id="xtick_1">
     <g id="line2d_1">
      <defs>
       <path id="mf08121c47c" d="M 0 0 
L 0 3.5 
" style="stroke: #ffffff; stroke-width: 0.8"/>
      </defs>
      <g>
       <use xlink:href="#mf08121c47c" x="72" y="448.56" style="fill: #ffffff; stroke: #ffffff; stroke-width: 0.8"/>
      </g>
     </g>
     <g id="text_1">
      <!-- −2.0 -->
      <g style="fill: #ffffff" transform="translate(59.858594 463.158437) scale(0.1 -0.1)">
       <defs>
        <path id="DejaVuSans-2212" d="M 678 2272 
L 4684 2272 
L 4684 1741 
L 678 1741 
L 678 2272 
z
" transform="scale(0.015625)"/>
        <path id="DejaVuSans-32" d="M 1228 531 
L 3431 531 
L 3431 0 
L 469 0 
L 469 531 
Q 828 903 1448 1529 
Q 2069 2156 2228 2338 
Q 2531 2678 2651 2914 
Q 2772 3150 2772 3378 
Q 2772 3750 2511 3984 
Q 2250 4219 1831 4219 
Q 1534 4219 1204 4116 
Q 875 4013 500 3803 
L 500 4441 
Q 881 4594 1212 4672 
Q 1544 4750 1819 4750 
Q 2544 4750 2975 4387 
Q 3406 4025 3406 3419 
Q 3406 3131 3298 2873 
Q 3191 2616 2906 2266 
Q 2828 2175 2409 1742 
Q 1991 1309 1228 531 
z
" transform="scale(0.015625)"/>
        <path id="DejaVuSans-2e" d="M 684 794 
L 1344 794 
L 1344 0 
L 684 0 
L 684 794 
z
" transform="scale(0.015625)"/>
        <path id="DejaVuSans-30" d="M 2034 4250 
Q 1547 4250 1301 3770 
Q 1056 3291 1056 2328 
Q 1056 1369 1301 889 
Q 1547 409 2034 409 
Q 2525 409 2770 889 
Q 3016 1369 3016 2328 
Q 3016 3291 2770 3770 
Q 2525 4250 2034 4250 
z
M 2034 4750 
Q 2819 4750 3233 4129 
Q 3647 3509 3647 2328 
Q 3647 1150 3233 529 
Q 2819 -91 2034 -91 
Q 1250 -91 836 529 
Q 422 1150 422 2328 
Q 422 3509 836 4129 
Q 1250 4750 2034 4750 
z
" transform="scale(0.015625)"/>
       </defs>
       <use xlink:href="#DejaVuSans-2212"/>
       <use xlink:href="#DejaVuSans-32" transform="translate(83.789062 0)"/>
       <use xlink:href="#DejaVuSans-2e" transform="translate(147.412109 0)"/>
       <use xlink:href="#DejaVuSans-30" transform="translate(179.199219 0)"/>
      </g>
     </g>
    </g>
    <g id="xtick_2">
     <g id="line2d_2">
      <g>
       <use xlink:href="#mf08121c47c" x="127.8" y="448.56" style="fill: #ffffff; stroke: #ffffff; stroke-width: 0.8"/>
      </g>
     </g>
     <g id="text_2">
      <!-- −1.5 -->
      <g style="fill: #ffffff" transform="translate(115.658594 463.158437) scale(0.1 -0.1)">
       <defs>
        <path id="DejaVuSans-31" d="M 794 531 
L 1825 531 
L 1825 4091 
L 703 3866 
L 703 4441 
L 1819 4666 
L 2450 4666 
L 2450 531 
L 3481 531 
L 3481 0 
L 794 0 
L 794 531 
z
" transform="scale(0.015625)"/>
        <path id="DejaVuSans-35" d="M 691 4666 
L 3169 4666 
L 3169 4134 
L 1269 4134 
L 1269 2991 
Q 1406 3038 1543 3061 
Q 1681 3084 1819 3084 
Q 2600 3084 3056 2656 
Q 3513 2228 3513 1497 
Q 3513 744 3044 326 
Q 2575 -91 1722 -91 
Q 1428 -91 1123 -41 
Q 819 9 494 109 
L 494 744 
Q 775 591 1075 516 
Q 1375 441 1709 441 
Q 2250 441 2565 725 
Q 2881 1009 2881 1497 
Q 2881 1984 2565 2268 
Q 2250 2553 1709 2553 
Q 1456 2553 1204 2497 
Q 953 2441 691 2322 
L 691 4666 
z
" transform="scale(0.015625)"/>
       </defs>
       <use xlink:href="#DejaVuSans-2212"/>
       <use xlink:href="#DejaVuSans-31" transform="translate(83.789062 0)"/>
       <use xlink:href="#DejaVuSans-2e" transform="translate(147.412109 0)"/>
       <use xlink:href="#DejaVuSans-35" transform="translate(179.199219 0)"/>
      </g>
     </g>
    </g>
    <g id="xtick_3">
     <g id="line2d_3">
      <g>
       <use xlink:href="#mf08121c47c" x="183.6" y="448.56" style="fill: #ffffff; stroke: #ffffff; stroke-width: 0.8"/>
      </g>
     </g>
     <g id="text_3">
      <!-- −1.0 -->
      <g style="fill: #ffffff" transform="translate(171.458594 463.158437) scale(0.1 -0.1)">
       <use xlink:href="#DejaVuSans-2212"/>
       <use xlink:href="#DejaVuSans-31" transform="translate(83.789062 0)"/>
       <use xlink:href="#DejaVuSans-2e" transform="translate(147.412109 0)"/>
       <use xlink:href="#DejaVuSans-30" transform="translate(179.199219 0)"/>
      </g>
     </g>
    </g>
    <g id="xtick_4">
     <g id="line2d_4">
      <g>
       <use xlink:href="#mf08121c47c" x="239.4" y="448.56" style="fill: #ffffff; stroke: #ffffff; stroke-width: 0.8"/>
      </g>
     </g>
     <g id="text_4">
      <!-- −0.5 -->
      <g style="fill: #ffffff" transform="translate(227.258594 463.158437) scale(0.1 -0.1)">
       <use xlink:href="#DejaVuSans-2212"/>
       <use xlink:href="#DejaVuSans-30" transform="translate(83.789062 0)"/>
       <use xlink:href="#DejaVuSans-2e" transform="translate(147.412109 0)"/>
       <use xlink:href="#DejaVuSans-35" transform="translate(179.199219 0)"/>
      </g>
     </g>
    </g>
    <g id="xtick_5">
     <g id="line2d_5">
      <g>
       <use xlink:href="#mf08121c47c" x="295.2" y="448.56" style="fill: #ffffff; stroke: #ffffff; stroke-width: 0.8"/>
      </g>
     </g>
     <g id="text_5">
      <!-- 0.0 -->
      <g style="fill: #ffffff" transform="translate(287.248437 463.158437) scale(0.1 -0.1)">
       <use xlink:href="#DejaVuSans-30"/>
       <use xlink:href="#DejaVuSans-2e" transform="translate(63.623047 0)"/>
       <use xlink:href="#DejaVuSans-30" transform="translate(95.410156 0)"/>
      </g>
     </g>
    </g>
    <g id="xtick_6">
     <g id="line2d_6">
      <g>
       <use xlink:href="#mf08121c47c" x="351" y="448.56" style="fill: #ffffff; stroke: #ffffff; stroke-width: 0.8"/>
      </g>
     </g>
     <g id="text_6">
      <!-- 0.5 -->
      <g style="fill: #ffffff" transform="translate(343.048437 463.158437) scale(0.1 -0.1)">
       <use xlink:href="#DejaVuSans-30"/>
       <use xlink:href="#DejaVuSans-2e" transform="translate(63.623047 0)"/>
       <use xlink:href="#DejaVuSans-35" transform="translate(95.410156 0)"/>
      </g>
     </g>
    </g>
    <g id="xtick_7">
     <g id="line2d_7">
      <g>
       <use xlink:href="#mf08121c47c" x="406.8" y="448.56" style="fill: #ffffff; stroke: #ffffff; stroke-width: 0.8"/>
      </g>
     </g>
     <g id="text_7">
      <!-- 1.0 -->
      <g style="fill: #ffffff" transform="translate(398.848437 463.158437) scale(0.1 -0.1)">
       <use xlink:href="#DejaVuSans-31"/>
       <use xlink:href="#DejaVuSans-2e" transform="translate(63.623047 0)"/>
       <use xlink:href="#DejaVuSans-30" transform="translate(95.410156 0)"/>
      </g>
     </g>
    </g>
    <g id="xtick_8">
     <g id="line2d_8">
      <g>
       <use xlink:href="#mf08121c47c" x="462.6" y="448.56" style="fill: #ffffff; stroke: #ffffff; stroke-width: 0.8"/>
      </g>
     </g>
     <g id="text_8">
      <!-- 1.5 -->
      <g style="fill: #ffffff" transform="translate(454.648437 463.158437) scale(0.1 -0.1)">
       <use xlink:href="#DejaVuSans-31"/>
       <use xlink:href="#DejaVuSans-2e" transform="translate(63.623047 0)"/>
       <use xlink:href="#DejaVuSans-35" transform="translate(95.410156 0)"/>
      </g>
     </g>
    </g>
    <g id="xtick_9">
     <g id="line2d_9">
      <g>
       <use xlink:href="#mf08121c47c" x="518.4" y="448.56" style="fill: #ffffff; stroke: #ffffff; stroke-width: 0.8"/>
      </g>
     </g>
     <g id="text_9">
      <!-- 2.0 -->
      <g style="fill: #ffffff" transform="translate(510.448437 463.158437) scale(0.1 -0.1)">
       <use xlink:href="#DejaVuSans-32"/>
       <use xlink:href="#DejaVuSans-2e" transform="translate(63.623047 0)"/>
       <use xlink:href="#DejaVuSans-30" transform="translate(95.410156 0)"/>
      </g>
     </g>
    </g>
    <g id="text_10">
     <!-- $x_1$ -->
     <g style="fill: #ffffff" transform="translate(286.64 481.395625) scale(0.16 -0.16)">
      <defs>
       <path id="DejaVuSans-Oblique-78" d="M 3841 3500 
L 2234 1784 
L 3219 0 
L 2559 0 
L 1819 1388 
L 531 0 
L -166 0 
L 1556 1844 
L 641 3500 
L 1300 3500 
L 1972 2234 
L 3144 3500 
L 3841 3500 
z
" transform="scale(0.015625)"/>
      </defs>
      <use xlink:href="#DejaVuSans-Oblique-78" transform="translate(0 0.3125)"/>
      <use xlink:href="#DejaVuSans-31" transform="translate(59.179688 -16.09375) scale(0.7)"/>
     </g>
    </g>
   </g>
   <g id="matplotlib.axis_2">
    <g id="ytick_1">
     <g id="line2d_10">
      <defs>
       <path id="mad511f7684" d="M 0 0 
L -3.5 0 
" style="stroke: #ffffff; stroke-width: 0.8"/>
      </defs>
      <g>
       <use xlink:href="#mad511f7684" x="72" y="448.56" style="fill: #ffffff; stroke: #ffffff; stroke-width: 0.8"/>
      </g>
     </g>
     <g id="text_11">
      <!-- −2.0 -->
      <g style="fill: #ffffff" transform="translate(40.717187 452.359219) scale(0.1 -0.1)">
       <use xlink:href="#DejaVuSans-2212"/>
       <use xlink:href="#DejaVuSans-32" transform="translate(83.789062 0)"/>
       <use xlink:href="#DejaVuSans-2e" transform="translate(147.412109 0)"/>
       <use xlink:href="#DejaVuSans-30" transform="translate(179.199219 0)"/>
      </g>
     </g>
    </g>
    <g id="ytick_2">
     <g id="line2d_11">
      <g>
       <use xlink:href="#mad511f7684" x="72" y="400.05" style="fill: #ffffff; stroke: #ffffff; stroke-width: 0.8"/>
      </g>
     </g>
     <g id="text_12">
      <!-- −1.5 -->
      <g style="fill: #ffffff" transform="translate(40.717187 403.849219) scale(0.1 -0.1)">
       <use xlink:href="#DejaVuSans-2212"/>
       <use xlink:href="#DejaVuSans-31" transform="translate(83.789062 0)"/>
       <use xlink:href="#DejaVuSans-2e" transform="translate(147.412109 0)"/>
       <use xlink:href="#DejaVuSans-35" transform="translate(179.199219 0)"/>
      </g>
     </g>
    </g>
    <g id="ytick_3">
     <g id="line2d_12">
      <g>
       <use xlink:href="#mad511f7684" x="72" y="351.54" style="fill: #ffffff; stroke: #ffffff; stroke-width: 0.8"/>
      </g>
     </g>
     <g id="text_13">
      <!-- −1.0 -->
      <g style="fill: #ffffff" transform="translate(40.717187 355.339219) scale(0.1 -0.1)">
       <use xlink:href="#DejaVuSans-2212"/>
       <use xlink:href="#DejaVuSans-31" transform="translate(83.789062 0)"/>
       <use xlink:href="#DejaVuSans-2e" transform="translate(147.412109 0)"/>
       <use xlink:href="#DejaVuSans-30" transform="translate(179.199219 0)"/>
      </g>
     </g>
    </g>
    <g id="ytick_4">
     <g id="line2d_13">
      <g>
       <use xlink:href="#mad511f7684" x="72" y="303.03" style="fill: #ffffff; stroke: #ffffff; stroke-width: 0.8"/>
      </g>
     </g>
     <g id="text_14">
      <!-- −0.5 -->
      <g style="fill: #ffffff" transform="translate(40.717187 306.829219) scale(0.1 -0.1)">
       <use xlink:href="#DejaVuSans-2212"/>
       <use xlink:href="#DejaVuSans-30" transform="translate(83.789062 0)"/>
       <use xlink:href="#DejaVuSans-2e" transform="translate(147.412109 0)"/>
       <use xlink:href="#DejaVuSans-35" transform="translate(179.199219 0)"/>
      </g>
     </g>
    </g>
    <g id="ytick_5">
     <g id="line2d_14">
      <g>
       <use xlink:href="#mad511f7684" x="72" y="254.52" style="fill: #ffffff; stroke: #ffffff; stroke-width: 0.8"/>
      </g>
     </g>
     <g id="text_15">
      <!-- 0.0 -->
      <g style="fill: #ffffff" transform="translate(49.096875 258.319219) scale(0.1 -0.1)">
       <use xlink:href="#DejaVuSans-30"/>
       <use xlink:href="#DejaVuSans-2e" transform="translate(63.623047 0)"/>
       <use xlink:href="#DejaVuSans-30" transform="translate(95.410156 0)"/>
      </g>
     </g>
    </g>
    <g id="ytick_6">
     <g id="line2d_15">
      <g>
       <use xlink:href="#mad511f7684" x="72" y="206.01" style="fill: #ffffff; stroke: #ffffff; stroke-width: 0.8"/>
      </g>
     </g>
     <g id="text_16">
      <!-- 0.5 -->
      <g style="fill: #ffffff" transform="translate(49.096875 209.809219) scale(0.1 -0.1)">
       <use xlink:href="#DejaVuSans-30"/>
       <use xlink:href="#DejaVuSans-2e" transform="translate(63.623047 0)"/>
       <use xlink:href="#DejaVuSans-35" transform="translate(95.410156 0)"/>
      </g>
     </g>
    </g>
    <g id="ytick_7">
     <g id="line2d_16">
      <g>
       <use xlink:href="#mad511f7684" x="72" y="157.5" style="fill: #ffffff; stroke: #ffffff; stroke-width: 0.8"/>
      </g>
     </g>
     <g id="text_17">
      <!-- 1.0 -->
      <g style="fill: #ffffff" transform="translate(49.096875 161.299219) scale(0.1 -0.1)">
       <use xlink:href="#DejaVuSans-31"/>
       <use xlink:href="#DejaVuSans-2e" transform="translate(63.623047 0)"/>
       <use xlink:href="#DejaVuSans-30" transform="translate(95.410156 0)"/>
      </g>
     </g>
    </g>
    <g id="ytick_8">
     <g id="line2d_17">
      <g>
       <use xlink:href="#mad511f7684" x="72" y="108.99" style="fill: #ffffff; stroke: #ffffff; stroke-width: 0.8"/>
      </g>
     </g>
     <g id="text_18">
      <!-- 1.5 -->
      <g style="fill: #ffffff" transform="translate(49.096875 112.789219) scale(0.1 -0.1)">
       <use xlink:href="#DejaVuSans-31"/>
       <use xlink:href="#DejaVuSans-2e" transform="translate(63.623047 0)"/>
       <use xlink:href="#DejaVuSans-35" transform="translate(95.410156 0)"/>
      </g>
     </g>
    </g>
    <g id="ytick_9">
     <g id="line2d_18">
      <g>
       <use xlink:href="#mad511f7684" x="72" y="60.48" style="fill: #ffffff; stroke: #ffffff; stroke-width: 0.8"/>
      </g>
     </g>
     <g id="text_19">
      <!-- 2.0 -->
      <g style="fill: #ffffff" transform="translate(49.096875 64.279219) scale(0.1 -0.1)">
       <use xlink:href="#DejaVuSans-32"/>
       <use xlink:href="#DejaVuSans-2e" transform="translate(63.623047 0)"/>
       <use xlink:href="#DejaVuSans-30" transform="translate(95.410156 0)"/>
      </g>
     </g>
    </g>
    <g id="text_20">
     <!-- $x_2$ -->
     <g style="fill: #ffffff" transform="translate(33.389687 263.08) rotate(-90) scale(0.16 -0.16)">
      <use xlink:href="#DejaVuSans-Oblique-78" transform="translate(0 0.3125)"/>
      <use xlink:href="#DejaVuSans-32" transform="translate(59.179688 -16.09375) scale(0.7)"/>
     </g>
    </g>
   </g>
   <g id="QuadContourSet_1">
    <path clip-path="url(#pc614706517)" style="fill: none; stroke: #beffbe; stroke-width: 1.5"/>
    <path d="M 399.807519 170.525571 
L 399.15986 170.387368 
L 398.688722 170.278949 
L 397.569925 169.983345 
L 396.451128 169.649599 
L 395.744564 169.414737 
L 395.332331 169.266048 
L 394.213534 168.821121 
L 393.341586 168.442105 
L 393.094737 168.324824 
L 391.97594 167.748031 
L 391.474922 167.469474 
L 390.857143 167.090771 
L 389.953951 166.496842 
L 389.738346 166.338859 
L 388.697154 165.524211 
L 388.619549 165.455656 
L 387.657216 164.551579 
L 387.500752 164.382809 
L 386.797486 163.578947 
L 386.381955 163.021376 
L 386.089128 162.606316 
L 385.522271 161.633684 
L 385.263158 161.070531 
L 385.084292 160.661053 
L 384.772728 159.688421 
L 384.57446 158.715789 
L 384.489489 157.743158 
L 384.517813 156.770526 
L 384.659432 155.797895 
L 384.914348 154.825263 
L 385.263158 153.903882 
L 385.283595 153.852632 
L 385.790783 152.88 
L 386.381955 151.962253 
L 386.419301 151.907368 
L 387.207186 150.934737 
L 387.500752 150.622321 
L 388.15817 149.962105 
L 388.619549 149.554926 
L 389.30095 148.989474 
L 389.738346 148.665745 
L 390.674532 148.016842 
L 390.857143 147.902617 
L 391.97594 147.250242 
L 392.356989 147.044211 
L 393.094737 146.680771 
L 394.213534 146.172841 
L 394.457328 146.071579 
L 395.332331 145.737808 
L 396.451128 145.35074 
L 397.262096 145.098947 
L 397.569925 145.010585 
L 398.688722 144.726136 
L 399.807519 144.47839 
L 400.926316 144.267347 
L 401.831364 144.126316 
L 402.045113 144.095345 
L 403.16391 143.967367 
L 404.282707 143.873517 
L 405.401504 143.813794 
L 406.520301 143.788198 
L 407.639098 143.79673 
L 408.757895 143.839389 
L 409.876692 143.916176 
L 410.995489 144.02709 
L 411.760877 144.126316 
L 412.114286 144.17559 
L 413.233083 144.368281 
L 414.35188 144.597675 
L 415.470677 144.863772 
L 416.339609 145.098947 
L 416.589474 145.172093 
L 417.708271 145.539311 
L 418.827068 145.946229 
L 419.141077 146.071579 
L 419.945865 146.421402 
L 421.064662 146.950946 
L 421.246836 147.044211 
L 422.183459 147.570499 
L 422.922061 148.016842 
L 423.302256 148.271435 
L 424.304221 148.989474 
L 424.421053 149.083347 
L 425.44742 149.962105 
L 425.53985 150.052158 
L 426.393216 150.934737 
L 426.658647 151.253176 
L 427.17406 151.907368 
L 427.777444 152.819095 
L 427.815657 152.88 
L 428.309671 153.852632 
L 428.687447 154.825263 
L 428.896241 155.601747 
L 428.946379 155.797895 
L 429.084502 156.770526 
L 429.112127 157.743158 
L 429.029253 158.715789 
L 428.896241 159.384821 
L 428.832745 159.688421 
L 428.513089 160.661053 
L 428.077194 161.633684 
L 427.777444 162.161721 
L 427.511231 162.606316 
L 426.806236 163.578947 
L 426.658647 163.7524 
L 425.939212 164.551579 
L 425.53985 164.937965 
L 424.896627 165.524211 
L 424.421053 165.908122 
L 423.643947 166.496842 
L 423.302256 166.729151 
L 422.183459 167.439921 
L 422.133429 167.469474 
L 421.064662 168.042082 
L 420.257073 168.442105 
L 419.945865 168.583137 
L 418.827068 169.048758 
L 417.861901 169.414737 
L 417.708271 169.468422 
L 416.589474 169.82124 
L 415.470677 170.135915 
L 414.453343 170.387368 
L 414.35188 170.410623 
L 413.233083 170.631676 
L 412.114286 170.81736 
L 410.995489 170.967676 
L 409.876692 171.082623 
L 408.757895 171.162202 
L 407.639098 171.206413 
L 406.520301 171.215255 
L 405.401504 171.188728 
L 404.282707 171.126834 
L 403.16391 171.029571 
L 402.045113 170.896939 
L 400.926316 170.728939 
L 399.807519 170.525571 
z
" clip-path="url(#pc614706517)" style="fill: none; stroke: #bdfebd; stroke-width: 1.5"/>
    <path d="M 395.332331 184.02018 
L 395.237493 184.004211 
L 394.213534 183.825342 
L 393.094737 183.611726 
L 391.97594 183.379931 
L 390.857143 183.129956 
L 390.446696 183.031579 
L 389.738346 182.855207 
L 388.619549 182.557752 
L 387.500752 182.24141 
L 386.891795 182.058947 
L 386.381955 181.900011 
L 385.263158 181.531589 
L 384.144361 181.143519 
L 383.987392 181.086316 
L 383.025564 180.721041 
L 381.906767 180.275679 
L 381.517708 180.113684 
L 380.78797 179.796483 
L 379.669173 179.288791 
L 379.356757 179.141053 
L 378.550376 178.74219 
L 377.435435 178.168421 
L 377.431579 178.166341 
L 376.312782 177.539404 
L 375.721684 177.195789 
L 375.193985 176.873498 
L 374.1662 176.223158 
L 374.075188 176.162498 
L 372.956391 175.390877 
L 372.75951 175.250526 
L 371.837594 174.556293 
L 371.479535 174.277895 
L 370.718797 173.651092 
L 370.311888 173.305263 
L 369.6 172.661821 
L 369.246584 172.332632 
L 368.481203 171.571383 
L 368.274789 171.36 
L 367.38941 170.387368 
L 367.362406 170.355376 
L 366.590632 169.414737 
L 366.243609 168.955789 
L 365.865768 168.442105 
L 365.211233 167.469474 
L 365.124812 167.327881 
L 364.631022 166.496842 
L 364.112375 165.524211 
L 364.006015 165.299015 
L 363.662111 164.551579 
L 363.272337 163.578947 
L 362.940307 162.606316 
L 362.887218 162.41806 
L 362.671586 161.633684 
L 362.460492 160.661053 
L 362.30569 159.688421 
L 362.207179 158.715789 
L 362.164961 157.743158 
L 362.179034 156.770526 
L 362.249398 155.797895 
L 362.376054 154.825263 
L 362.559002 153.852632 
L 362.798242 152.88 
L 362.887218 152.587168 
L 363.099104 151.907368 
L 363.460006 150.934737 
L 363.878653 149.962105 
L 364.006015 149.702074 
L 364.364289 148.989474 
L 364.912574 148.016842 
L 365.124812 147.677073 
L 365.53089 147.044211 
L 366.215867 146.071579 
L 366.243609 146.035403 
L 366.981819 145.098947 
L 367.362406 144.652592 
L 367.824051 144.126316 
L 368.481203 143.429732 
L 368.749341 143.153684 
L 369.6 142.335358 
L 369.7653 142.181053 
L 370.718797 141.345749 
L 370.880494 141.208421 
L 371.837594 140.442685 
L 372.104604 140.235789 
L 372.956391 139.61194 
L 373.448615 139.263158 
L 374.075188 138.842242 
L 374.925036 138.290526 
L 375.193985 138.124549 
L 376.312782 137.458116 
L 376.556983 137.317895 
L 377.431579 136.839331 
L 378.369576 136.345263 
L 378.550376 136.254311 
L 379.669173 135.713353 
L 380.403516 135.372632 
L 380.78797 135.201924 
L 381.906767 134.726067 
L 382.708636 134.4 
L 383.025564 134.276441 
L 384.144361 133.860315 
L 385.263158 133.464243 
L 385.372875 133.427368 
L 386.381955 133.101657 
L 387.500752 132.759792 
L 388.558683 132.454737 
L 388.619549 132.437855 
L 389.738346 132.146065 
L 390.857143 131.872802 
L 391.97594 131.618065 
L 392.619906 131.482105 
L 393.094737 131.385534 
L 394.213534 131.175838 
L 395.332331 130.983989 
L 396.451128 130.809986 
L 397.569925 130.653829 
L 398.688722 130.515519 
L 398.744869 130.509474 
L 399.807519 130.399106 
L 400.926316 130.300121 
L 402.045113 130.218351 
L 403.16391 130.153796 
L 404.282707 130.106456 
L 405.401504 130.07633 
L 406.520301 130.063419 
L 407.639098 130.067722 
L 408.757895 130.089241 
L 409.876692 130.127974 
L 410.995489 130.183922 
L 412.114286 130.257084 
L 413.233083 130.347462 
L 414.35188 130.455054 
L 414.839714 130.509474 
L 415.470677 130.582443 
L 416.589474 130.729677 
L 417.708271 130.894756 
L 418.827068 131.077682 
L 419.945865 131.278455 
L 420.988058 131.482105 
L 421.064662 131.497644 
L 422.183459 131.743118 
L 423.302256 132.007118 
L 424.421053 132.289644 
L 425.034584 132.454737 
L 425.53985 132.596081 
L 426.658647 132.928317 
L 427.777444 133.279813 
L 428.22271 133.427368 
L 428.896241 133.659772 
L 430.015038 134.065871 
L 430.89224 134.4 
L 431.133835 134.495982 
L 432.252632 134.961381 
L 433.198737 135.372632 
L 433.371429 135.45107 
L 434.490226 135.9811 
L 435.228465 136.345263 
L 435.609023 136.541821 
L 436.72782 137.142564 
L 437.042366 137.317895 
L 437.846617 137.78833 
L 438.674774 138.290526 
L 438.965414 138.475926 
L 440.084211 139.214874 
L 440.154898 139.263158 
L 441.203008 140.018313 
L 441.495193 140.235789 
L 442.321805 140.886713 
L 442.717677 141.208421 
L 443.440602 141.832065 
L 443.83298 142.181053 
L 444.559398 142.869508 
L 444.85049 143.153684 
L 445.678195 144.01843 
L 445.77853 144.126316 
L 446.619612 145.098947 
L 446.796992 145.320817 
L 447.380657 146.071579 
L 447.915789 146.8211 
L 448.070807 147.044211 
L 448.68652 148.016842 
L 449.034586 148.626117 
L 449.236738 148.989474 
L 449.719356 149.962105 
L 450.143475 150.934737 
L 450.153383 150.961095 
L 450.500032 151.907368 
L 450.799328 152.88 
L 451.041616 153.852632 
L 451.226894 154.825263 
L 451.27218 155.168656 
L 451.353102 155.797895 
L 451.422593 156.770526 
L 451.436491 157.743158 
L 451.394796 158.715789 
L 451.29751 159.688421 
L 451.27218 159.849568 
L 451.141381 160.661053 
L 450.927598 161.633684 
L 450.656806 162.606316 
L 450.329006 163.578947 
L 450.153383 164.022846 
L 449.938728 164.551579 
L 449.485359 165.524211 
L 449.034586 166.380752 
L 448.971851 166.496842 
L 448.386172 167.469474 
L 447.915789 168.177968 
L 447.735586 168.442105 
L 447.010297 169.414737 
L 446.796992 169.678349 
L 446.207006 170.387368 
L 445.678195 170.976651 
L 445.324141 171.36 
L 444.559398 172.131882 
L 444.354524 172.332632 
L 443.440602 173.171295 
L 443.290084 173.305263 
L 442.321805 174.115632 
L 442.121719 174.277895 
L 441.203008 174.980964 
L 440.839121 175.250526 
L 440.084211 175.77993 
L 439.430575 176.223158 
L 438.965414 176.522611 
L 437.882705 177.195789 
L 437.846617 177.217146 
L 436.72782 177.855802 
L 436.159311 178.168421 
L 435.609023 178.457108 
L 434.490226 179.021682 
L 434.243917 179.141053 
L 433.371429 179.545309 
L 432.252632 180.042313 
L 432.084749 180.113684 
L 431.133835 180.50092 
L 430.015038 180.936044 
L 429.609577 181.086316 
L 428.896241 181.340011 
L 427.777444 181.718256 
L 426.71451 182.058947 
L 426.658647 182.076157 
L 425.53985 182.401942 
L 424.421053 182.70884 
L 423.302256 182.996852 
L 423.157892 183.031579 
L 422.183459 183.257216 
L 421.064662 183.498101 
L 419.945865 183.720807 
L 418.827068 183.925332 
L 418.353489 184.004211 
L 417.708271 184.107805 
L 416.589474 184.26991 
L 415.470677 184.41449 
L 414.35188 184.541546 
L 413.233083 184.651076 
L 412.114286 184.743082 
L 410.995489 184.817563 
L 409.876692 184.874519 
L 408.757895 184.91395 
L 407.639098 184.935856 
L 406.520301 184.940237 
L 405.401504 184.927093 
L 404.282707 184.896425 
L 403.16391 184.848231 
L 402.045113 184.782513 
L 400.926316 184.69927 
L 399.807519 184.598502 
L 398.688722 184.480209 
L 397.569925 184.344391 
L 396.451128 184.191048 
L 395.332331 184.02018 
z
" clip-path="url(#pc614706517)" style="fill: none; stroke: #bcfdbc; stroke-width: 1.5"/>
    <path d="M 403.16391 198.601278 
L 398.688722 198.356846 
L 394.213534 197.925859 
L 389.738346 197.30083 
L 385.263158 196.473072 
L 380.78797 195.42689 
L 376.312782 194.144925 
L 371.837594 192.603736 
L 367.362406 190.764612 
L 363.445389 188.867368 
L 359.975197 186.922105 
L 356.945281 184.976842 
L 353.936842 182.760895 
L 351.699248 180.884981 
L 349.461654 178.753509 
L 347.168537 176.223158 
L 345.657387 174.277895 
L 343.867669 171.555103 
L 342.706881 169.414737 
L 341.460256 166.496842 
L 340.57474 163.578947 
L 340.180461 161.633684 
L 339.93704 159.688421 
L 339.843417 157.743158 
L 339.899591 155.797895 
L 340.105562 153.852632 
L 340.511278 151.699809 
L 341.288866 148.989474 
L 342.038509 147.044211 
L 342.952572 145.098947 
L 344.039904 143.153684 
L 345.309998 141.208421 
L 347.22406 138.715768 
L 348.441927 137.317895 
L 350.580451 135.144272 
L 352.818045 133.149687 
L 355.055639 131.376499 
L 358.41203 129.051898 
L 361.768421 127.040408 
L 365.124812 125.285528 
L 368.583386 123.701053 
L 372.956391 121.984962 
L 376.535809 120.783158 
L 380.78797 119.573037 
L 385.263158 118.52777 
L 389.738346 117.698236 
L 394.213534 117.073394 
L 398.688722 116.643229 
L 403.16391 116.40151 
L 407.639098 116.343958 
L 412.114286 116.470573 
L 416.589474 116.781354 
L 421.064662 117.285604 
L 425.53985 117.984063 
L 430.015038 118.891575 
L 434.490226 120.024537 
L 438.965414 121.401105 
L 442.631165 122.728421 
L 446.796992 124.490269 
L 450.153383 126.133876 
L 453.509774 128.010896 
L 456.866165 130.170903 
L 459.103759 131.803213 
L 461.341353 133.624552 
L 463.578947 135.685895 
L 465.816541 138.058356 
L 467.583261 140.235789 
L 469.172932 142.534469 
L 470.646764 145.098947 
L 471.562596 147.044211 
L 472.626899 149.962105 
L 473.334999 152.88 
L 473.64812 155.167305 
L 473.758004 157.743158 
L 473.64812 159.850674 
L 473.419971 161.633684 
L 473.023435 163.578947 
L 472.47492 165.524211 
L 471.350287 168.442105 
L 470.291729 170.570135 
L 469.172932 172.469032 
L 467.944163 174.277895 
L 465.816541 176.941366 
L 463.757245 179.141053 
L 461.341353 181.374519 
L 459.103759 183.198244 
L 455.747368 185.584399 
L 453.509774 186.991969 
L 450.153383 188.869856 
L 446.127857 190.812632 
L 442.321805 192.389485 
L 438.576013 193.730526 
L 434.490226 194.975087 
L 430.015038 196.106041 
L 425.53985 197.014411 
L 421.064662 197.71619 
L 416.589474 198.217066 
L 412.114286 198.53157 
L 407.639098 198.658157 
L 403.16391 198.601278 
L 403.16391 198.601278 
" clip-path="url(#pc614706517)" style="fill: none; stroke: #b9fab9; stroke-width: 1.5"/>
    <path d="M 399.807519 212.214179 
L 394.213534 211.832607 
L 388.619549 211.232798 
L 383.025564 210.400066 
L 377.431579 209.328155 
L 372.956391 208.286416 
L 367.362406 206.735772 
L 362.887218 205.284155 
L 357.998363 203.456842 
L 353.464106 201.511579 
L 349.457844 199.566316 
L 344.986466 197.098054 
L 341.164917 194.703158 
L 338.273684 192.678673 
L 334.668026 189.84 
L 331.43414 186.922105 
L 328.622737 184.004211 
L 326.186369 181.086316 
L 324.094525 178.168421 
L 322.319916 175.250526 
L 320.844121 172.332632 
L 319.650913 169.414737 
L 318.729526 166.496842 
L 318.069736 163.578947 
L 317.669915 160.661053 
L 317.522613 157.743158 
L 317.627829 154.825263 
L 317.985563 151.907368 
L 318.601664 148.989474 
L 319.478236 146.071579 
L 320.625463 143.153684 
L 322.054063 140.235789 
L 323.775952 137.317895 
L 325.966917 134.200936 
L 328.204511 131.465575 
L 330.938731 128.564211 
L 333.798496 125.90755 
L 336.460854 123.701053 
L 339.392481 121.515226 
L 342.748872 119.269368 
L 346.105263 117.25308 
L 349.461654 115.434513 
L 353.936842 113.274267 
L 358.41203 111.379239 
L 362.887218 109.717116 
L 367.775274 108.138947 
L 372.956391 106.715589 
L 378.550376 105.438628 
L 384.144361 104.414923 
L 389.738346 103.630723 
L 395.332331 103.073255 
L 400.926316 102.738238 
L 406.520301 102.61936 
L 412.114286 102.716624 
L 417.708271 103.030027 
L 423.302256 103.564707 
L 428.896241 104.325279 
L 434.490226 105.324469 
L 440.084211 106.575977 
L 445.678195 108.094574 
L 450.153383 109.524565 
L 454.628571 111.157952 
L 459.103759 113.021706 
L 463.578947 115.147784 
L 468.054135 117.574343 
L 471.697212 119.810526 
L 474.766917 121.914412 
L 478.348395 124.673684 
L 481.657313 127.591579 
L 484.536014 130.509474 
L 487.03327 133.427368 
L 489.180325 136.345263 
L 491.005103 139.263158 
L 492.530864 142.181053 
L 493.786466 145.141574 
L 494.73621 148.016842 
L 495.437151 150.934737 
L 495.881846 153.852632 
L 496.071827 156.770526 
L 496.008902 159.688421 
L 495.691262 162.606316 
L 495.119511 165.524211 
L 494.285832 168.442105 
L 493.184361 171.36 
L 491.804563 174.277895 
L 490.131371 177.195789 
L 488.148755 180.113684 
L 485.830287 183.031579 
L 483.14644 185.949474 
L 480.360902 188.598191 
L 477.750545 190.812632 
L 474.766917 193.084438 
L 470.94007 195.675789 
L 466.935338 198.062828 
L 463.578947 199.851728 
L 459.103759 201.975851 
L 454.628571 203.840561 
L 450.153383 205.477142 
L 444.559398 207.231671 
L 440.084211 208.425342 
L 434.490226 209.674231 
L 428.896241 210.673202 
L 423.302256 211.435703 
L 417.708271 211.969996 
L 412.114286 212.284877 
L 406.520301 212.381283 
L 400.926316 212.263453 
L 399.807519 212.214179 
L 399.807519 212.214179 
" clip-path="url(#pc614706517)" style="fill: none; stroke: #b6f7b6; stroke-width: 1.5"/>
    <path d="M 397.569925 225.868181 
L 390.857143 225.398138 
L 384.144361 224.673916 
L 377.431579 223.684259 
L 371.837594 222.648557 
L 366.243609 221.411233 
L 360.649624 219.962495 
L 355.055639 218.282208 
L 349.461654 216.354717 
L 344.986466 214.616755 
L 340.511278 212.687737 
L 335.479982 210.265263 
L 331.560902 208.166705 
L 326.911268 205.402105 
L 322.541294 202.484211 
L 318.644125 199.566316 
L 315.156156 196.648421 
L 312.033934 193.730526 
L 309.184962 190.750491 
L 306.751813 187.894737 
L 304.542869 184.976842 
L 302.47218 181.856316 
L 300.899518 179.141053 
L 299.437845 176.223158 
L 297.996992 172.755263 
L 297.187939 170.387368 
L 296.386066 167.469474 
L 295.759398 164.348947 
L 295.403991 161.633684 
L 295.218927 158.715789 
L 295.235751 155.797895 
L 295.454463 152.88 
L 295.876235 149.962105 
L 296.505027 147.044211 
L 297.342453 144.126316 
L 298.393775 141.208421 
L 299.665694 138.290526 
L 301.353383 135.03927 
L 302.904169 132.454737 
L 304.892388 129.536842 
L 307.146703 126.618947 
L 309.685519 123.701053 
L 312.541353 120.771238 
L 315.897744 117.703895 
L 319.26223 114.947368 
L 323.236342 112.029474 
L 327.085714 109.489893 
L 330.971573 107.166316 
L 334.917293 105.024397 
L 339.392481 102.826758 
L 343.867669 100.84682 
L 348.342857 99.062902 
L 353.936842 97.083075 
L 359.530827 95.355181 
L 365.124812 93.861107 
L 370.738618 92.576842 
L 377.431579 91.316073 
L 384.144361 90.326534 
L 390.857143 89.600538 
L 397.569925 89.133259 
L 404.282707 88.915196 
L 410.995489 88.946348 
L 417.708271 89.226715 
L 424.421053 89.757703 
L 431.133835 90.547747 
L 436.72782 91.410486 
L 442.857353 92.576842 
L 447.915789 93.723224 
L 453.509774 95.19623 
L 459.103759 96.899486 
L 464.697744 98.85304 
L 469.172932 100.613054 
L 473.64812 102.567389 
L 478.123308 104.737538 
L 482.630257 107.166316 
L 487.452101 110.084211 
L 491.738701 113.002105 
L 495.564365 115.92 
L 498.988532 118.837895 
L 502.053589 121.755789 
L 504.974436 124.879363 
L 507.236049 127.591579 
L 509.449624 130.581975 
L 511.687218 134.070358 
L 512.960914 136.345263 
L 514.383228 139.263158 
L 515.580718 142.181053 
L 516.560248 145.098947 
L 517.328407 148.016842 
L 517.886396 150.934737 
L 518.24148 153.852632 
L 518.393659 156.770526 
L 518.342933 159.688421 
L 518.089301 162.606316 
L 517.632765 165.524211 
L 516.970189 168.442105 
L 516.098413 171.36 
L 515.010917 174.277895 
L 513.700906 177.195789 
L 512.161297 180.113684 
L 510.382713 183.031579 
L 508.330827 185.977059 
L 506.051239 188.867368 
L 503.462439 191.785263 
L 500.499248 194.765124 
L 497.142857 197.774664 
L 493.705906 200.538947 
L 489.6569 203.456842 
L 485.954887 205.858485 
L 481.479699 208.478456 
L 477.004511 210.826525 
L 471.98553 213.183158 
L 466.935338 215.290696 
L 461.341353 217.350805 
L 455.747368 219.151969 
L 450.153383 220.714011 
L 444.559398 222.0566 
L 438.965414 223.190765 
L 433.371429 224.129242 
L 426.658647 225.007691 
L 419.945865 225.624737 
L 413.233083 225.988471 
L 406.520301 226.101888 
L 399.807519 225.96785 
L 397.569925 225.868181 
L 397.569925 225.868181 
" clip-path="url(#pc614706517)" style="fill: none; stroke: #b2f2b2; stroke-width: 1.5"/>
    <path d="M 518.4 203.003827 
L 515.043609 205.971034 
L 511.687218 208.683711 
L 508.252744 211.237895 
L 503.855639 214.223677 
L 499.226761 217.073684 
L 493.978788 219.991579 
L 489.311278 222.340839 
L 483.717293 224.891001 
L 478.123308 227.175844 
L 472.529323 229.224663 
L 466.935338 231.056154 
L 461.341353 232.687087 
L 454.628571 234.393945 
L 447.915789 235.846987 
L 441.203008 237.059932 
L 434.490226 238.043746 
L 427.777444 238.806636 
L 421.064662 239.355374 
L 414.35188 239.69211 
L 407.639098 239.82122 
L 400.926316 239.743754 
L 393.95633 239.444211 
L 387.500752 238.963418 
L 380.78797 238.255315 
L 374.075188 237.327629 
L 367.362406 236.172201 
L 360.649624 234.780465 
L 355.055639 233.429852 
L 348.342857 231.566545 
L 342.512496 229.717895 
L 337.039865 227.772632 
L 331.560902 225.602173 
L 325.966917 223.135234 
L 321.491729 220.960089 
L 315.897744 217.953394 
L 311.16551 215.128421 
L 306.732943 212.210526 
L 302.47218 209.114711 
L 299.035407 206.374737 
L 295.689845 203.456842 
L 292.403008 200.299416 
L 289.861536 197.621053 
L 286.809023 194.055182 
L 284.334914 190.812632 
L 282.333835 187.882104 
L 280.096241 184.156699 
L 278.495301 181.086316 
L 277.170441 178.168421 
L 276.031186 175.250526 
L 275.072806 172.332632 
L 274.290732 169.414737 
L 273.518174 165.524211 
L 273.138666 162.606316 
L 272.928454 159.688421 
L 272.886411 156.770526 
L 273.012539 153.852632 
L 273.383459 150.384613 
L 273.772553 148.016842 
L 274.502256 144.733706 
L 275.528877 141.208421 
L 276.73985 137.883432 
L 278.261304 134.4 
L 280.096241 130.844965 
L 282.031472 127.591579 
L 283.988316 124.673684 
L 286.16317 121.755789 
L 289.046617 118.291756 
L 291.284211 115.850271 
L 294.640602 112.518931 
L 297.996992 109.504569 
L 301.353383 106.752587 
L 304.709774 104.220243 
L 309.184962 101.140999 
L 313.66015 98.347515 
L 318.707861 95.494737 
L 323.729323 92.92955 
L 328.686496 90.631579 
L 333.798496 88.48359 
L 339.392481 86.366266 
L 344.986466 84.471355 
L 350.580451 82.781584 
L 357.293233 81.008112 
L 362.887218 79.728402 
L 369.6 78.417114 
L 376.312782 77.338743 
L 383.025564 76.484894 
L 389.738346 75.847572 
L 396.451128 75.423308 
L 403.16391 75.206847 
L 409.876692 75.198189 
L 416.589474 75.397333 
L 423.302256 75.80428 
L 430.015038 76.423556 
L 436.72782 77.258922 
L 443.440602 78.318355 
L 450.153383 79.610231 
L 456.866165 81.146393 
L 463.578947 82.941722 
L 470.291729 85.017161 
L 475.885714 86.976966 
L 481.479699 89.166046 
L 487.073684 91.604563 
L 492.667669 94.326824 
L 497.142857 96.731414 
L 501.653496 99.385263 
L 506.158434 102.303158 
L 510.568421 105.461231 
L 513.976553 108.138947 
L 517.373652 111.056842 
L 518.4 111.993952 
L 518.4 111.993952 
" clip-path="url(#pc614706517)" style="fill: none; stroke: #aeedae; stroke-width: 1.5"/>
    <path d="M 518.4 224.71657 
L 513.924812 227.413182 
L 509.449624 229.906354 
L 503.855639 232.765375 
L 497.841227 235.553684 
L 491.548872 238.186357 
L 485.647795 240.416842 
L 479.242105 242.596077 
L 472.529323 244.630951 
L 465.816541 246.428699 
L 459.103759 248.002412 
L 452.390977 249.364116 
L 445.678195 250.522649 
L 437.846617 251.628331 
L 430.015038 252.477561 
L 422.183459 253.078129 
L 414.35188 253.431478 
L 406.520301 253.543515 
L 398.688722 253.414241 
L 390.857143 253.043478 
L 383.025564 252.425322 
L 375.193985 251.55796 
L 368.481203 250.610262 
L 361.768421 249.468051 
L 355.055639 248.124318 
L 348.342857 246.567836 
L 341.630075 244.789444 
L 334.917293 242.774809 
L 328.204511 240.507399 
L 322.610526 238.408211 
L 317.016541 236.101535 
L 311.422556 233.572252 
L 305.631719 230.690526 
L 300.234586 227.736827 
L 295.420479 224.854737 
L 290.942182 221.936842 
L 286.809023 219.012883 
L 282.333835 215.553428 
L 278.387894 212.210526 
L 274.502256 208.591668 
L 271.380117 205.402105 
L 268.757131 202.484211 
L 265.55188 198.552537 
L 262.758428 194.703158 
L 260.259799 190.812632 
L 258.072437 186.922105 
L 256.182484 183.031579 
L 254.578459 179.141053 
L 253.245113 175.229087 
L 252.195616 171.36 
L 251.404903 167.469474 
L 250.873683 163.578947 
L 250.60149 159.688421 
L 250.585478 155.797895 
L 250.825649 151.907368 
L 251.324269 148.016842 
L 252.126316 143.939724 
L 253.105273 140.235789 
L 254.397144 136.345263 
L 255.966612 132.454737 
L 257.819602 128.564211 
L 259.968869 124.673684 
L 262.42822 120.783158 
L 265.212335 116.892632 
L 267.789474 113.65804 
L 270.927917 110.084211 
L 273.734714 107.166316 
L 276.773993 104.248421 
L 280.096241 101.303664 
L 284.571429 97.676469 
L 288.838012 94.522105 
L 293.521805 91.353268 
L 297.996992 88.572211 
L 303.590977 85.395301 
L 309.184962 82.509208 
L 314.778947 79.881318 
L 320.372932 77.489419 
L 326.614533 75.069474 
L 332.679699 72.951603 
L 339.392481 70.854914 
L 346.105263 68.99936 
L 353.181976 67.288421 
L 359.530827 65.957348 
L 366.243609 64.748512 
L 372.956391 63.736585 
L 379.669173 62.915492 
L 387.500752 62.191547 
L 395.332331 61.715131 
L 403.16391 61.481254 
L 410.995489 61.489916 
L 418.827068 61.741117 
L 426.658647 62.234858 
L 434.490226 62.97675 
L 442.321805 63.971533 
L 449.034586 65.031877 
L 455.872964 66.315789 
L 462.46015 67.757775 
L 469.172932 69.441318 
L 475.885714 71.355468 
L 482.598496 73.516266 
L 489.311278 75.941278 
L 494.905263 78.183586 
L 501.063195 80.905263 
L 506.093233 83.346616 
L 511.687218 86.316365 
L 516.162406 88.908065 
L 518.4 90.284188 
L 518.4 90.284188 
" clip-path="url(#pc614706517)" style="fill: none; stroke: #a8e7a8; stroke-width: 1.5"/>
    <path d="M 518.4 243.185025 
L 512.806015 245.827869 
L 507.21203 248.265259 
L 500.499248 250.937954 
L 493.786466 253.35893 
L 487.073684 255.546868 
L 480.360902 257.517107 
L 473.64812 259.282117 
L 465.816541 261.09602 
L 457.984962 262.658675 
L 450.153383 263.980387 
L 442.321805 265.070687 
L 434.490226 265.936938 
L 426.658647 266.584271 
L 418.827068 267.015345 
L 410.995489 267.234241 
L 403.16391 267.241789 
L 395.332331 267.037989 
L 387.500752 266.622349 
L 379.669173 265.990247 
L 371.837594 265.139847 
L 364.006015 264.065687 
L 356.174436 262.761354 
L 348.342857 261.215606 
L 340.511278 259.420235 
L 333.798496 257.672113 
L 327.085714 255.719432 
L 320.372932 253.549763 
L 313.570162 251.115789 
L 306.947368 248.497394 
L 301.353383 246.081075 
L 295.504388 243.334737 
L 289.797078 240.416842 
L 284.538438 237.498947 
L 278.977444 234.142512 
L 273.729826 230.690526 
L 268.908271 227.235388 
L 264.433083 223.751006 
L 259.957895 219.951425 
L 255.817007 216.101053 
L 252.001444 212.210526 
L 248.531278 208.32 
L 245.382723 204.429474 
L 242.539455 200.538947 
L 239.819549 196.382156 
L 237.581955 192.536655 
L 235.686876 188.867368 
L 233.925631 184.976842 
L 232.411883 181.086316 
L 231.13871 177.195789 
L 230.101538 173.305263 
L 229.295907 169.414737 
L 228.718008 165.524211 
L 228.367296 161.633684 
L 228.241234 157.743158 
L 228.339282 153.852632 
L 228.661628 149.962105 
L 229.211336 146.071579 
L 229.988063 142.181053 
L 230.995961 138.290526 
L 232.239484 134.4 
L 233.723199 130.509474 
L 235.452496 126.618947 
L 237.581955 122.463647 
L 239.819549 118.617557 
L 242.204006 114.947368 
L 245.011723 111.056842 
L 248.120855 107.166316 
L 251.549893 103.275789 
L 255.320049 99.385263 
L 258.839098 96.056124 
L 262.823438 92.576842 
L 266.670677 89.4704 
L 271.644007 85.768421 
L 276.73985 82.293474 
L 282.061156 78.96 
L 287.115722 76.042105 
L 292.590083 73.124211 
L 298.549323 70.206316 
L 304.709774 67.445327 
L 310.303759 65.144107 
L 317.016541 62.620358 
L 323.287997 60.48 
M 490.313091 60.48 
L 496.03781 62.425263 
L 502.736842 64.924563 
L 508.523766 67.288421 
L 515.052079 70.206316 
L 518.4 71.815504 
L 518.4 71.815504 
" clip-path="url(#pc614706517)" style="fill: none; stroke: #a2e0a2; stroke-width: 1.5"/>
    <path d="M 518.4 260.175324 
L 511.687218 262.816469 
L 504.974436 265.233251 
L 497.600807 267.650526 
L 490.430075 269.775432 
L 482.598496 271.857034 
L 474.766917 273.702599 
L 466.368219 275.431579 
L 459.103759 276.72614 
L 451.27218 277.921152 
L 443.440602 278.913785 
L 435.609023 279.708867 
L 426.658647 280.381094 
L 417.708271 280.803143 
L 408.757895 280.979636 
L 399.807519 280.910574 
L 390.857143 280.595955 
L 381.906767 280.033722 
L 372.956391 279.220778 
L 364.006015 278.151047 
L 356.174436 276.999507 
L 348.342857 275.641314 
L 340.511278 274.068098 
L 332.679699 272.272106 
L 324.84812 270.241791 
L 317.016541 267.964793 
L 310.007036 265.705263 
L 302.47218 263.025529 
L 295.759398 260.404111 
L 289.046617 257.544423 
L 282.333835 254.424967 
L 276.73985 251.608426 
L 271.145865 248.575315 
L 265.512093 245.28 
L 259.957895 241.763713 
L 255.134437 238.471579 
L 249.860841 234.581053 
L 245.007695 230.690526 
L 240.535899 226.8 
L 236.415495 222.909474 
L 232.623637 219.018947 
L 229.137187 215.128421 
L 225.939152 211.237895 
L 223.013775 207.347368 
L 220.350418 203.456842 
L 217.93583 199.566316 
L 215.761269 195.675789 
L 213.818399 191.785263 
L 211.849624 187.278065 
L 210.601871 184.004211 
L 209.317646 180.113684 
L 208.242991 176.223158 
L 207.374389 172.332632 
L 206.710935 168.442105 
L 206.247812 164.551579 
L 205.986396 160.661053 
L 205.924155 156.770526 
L 206.061087 152.88 
L 206.397984 148.989474 
L 206.936259 145.098947 
L 207.676511 141.208421 
L 208.621365 137.317895 
L 209.774311 133.427368 
L 211.138924 129.536842 
L 212.968421 125.079447 
L 214.520357 121.755789 
L 216.548852 117.865263 
L 218.81246 113.974737 
L 221.319692 110.084211 
L 224.156391 106.090873 
L 227.512782 101.80616 
L 230.869173 97.898467 
L 234.225564 94.298456 
L 237.921435 90.631579 
L 242.169537 86.741053 
L 246.781111 82.850526 
L 251.787592 78.96 
L 256.601504 75.502352 
L 261.624169 72.151579 
L 266.670677 69.021797 
L 272.264662 65.799766 
L 277.858647 62.811528 
L 282.528222 60.48 
L 282.528222 60.48 
" clip-path="url(#pc614706517)" style="fill: none; stroke: #9bd99b; stroke-width: 1.5"/>
    <path d="M 518.4 276.324448 
L 511.687218 278.612732 
L 503.855639 281.055505 
L 496.02406 283.267096 
L 488.192481 285.258595 
L 479.242105 287.278709 
L 470.237654 289.048421 
L 461.341353 290.546598 
L 452.390977 291.813735 
L 443.440602 292.845299 
L 434.490226 293.646345 
L 425.53985 294.221789 
L 416.589474 294.574217 
L 407.639098 294.705513 
L 398.688722 294.615679 
L 389.738346 294.304713 
L 380.78797 293.771622 
L 371.837594 293.013004 
L 362.887218 292.025134 
L 353.936842 290.802647 
L 344.986466 289.339606 
L 337.154887 287.855925 
L 328.204511 285.918398 
L 320.372932 284.00266 
L 312.541353 281.870862 
L 304.709774 279.512692 
L 296.878195 276.913431 
L 289.046617 274.058041 
L 282.333835 271.392268 
L 275.621053 268.508927 
L 268.908271 265.390338 
L 262.195489 262.016851 
L 256.431038 258.896842 
L 249.888722 255.078871 
L 244.294737 251.55451 
L 238.700752 247.762865 
L 233.950609 244.307368 
L 228.631579 240.14302 
L 224.156391 236.365402 
L 219.681203 232.295408 
L 216.049413 228.745263 
L 211.849624 224.310284 
L 208.493233 220.466863 
L 205.136842 216.301433 
L 202.112379 212.210526 
L 199.474909 208.32 
L 197.062249 204.429474 
L 194.865541 200.538947 
L 192.830075 196.54787 
L 190.680817 191.785263 
L 189.146052 187.894737 
L 187.804598 184.004211 
L 186.653058 180.113684 
L 185.688551 176.223158 
L 184.908254 172.332632 
L 184.190535 167.469474 
L 183.819314 163.578947 
L 183.62888 159.688421 
L 183.617678 155.797895 
L 183.785708 151.907368 
L 184.134243 148.016842 
L 184.663385 144.126316 
L 185.374552 140.235789 
L 186.269226 136.345263 
L 187.35022 132.454737 
L 188.620404 128.564211 
L 190.082707 124.673684 
L 191.740269 120.783158 
L 193.948872 116.207401 
L 196.213095 112.029474 
L 198.544335 108.138947 
L 201.096805 104.248421 
L 204.018045 100.170909 
L 207.374436 95.88278 
L 210.730827 91.93844 
L 214.087218 88.279986 
L 217.511358 84.795789 
L 221.918797 80.630464 
L 226.393985 76.71225 
L 230.869173 73.064118 
L 236.463158 68.836471 
L 242.057143 64.928162 
L 247.651128 61.300581 
L 248.974359 60.48 
L 248.974359 60.48 
" clip-path="url(#pc614706517)" style="fill: none; stroke: #93d193; stroke-width: 1.5"/>
    <path d="M 518.4 291.934745 
L 510.568421 294.284073 
L 502.736842 296.427671 
L 493.786466 298.637183 
L 484.83609 300.60089 
L 475.885714 302.328708 
L 466.935338 303.830026 
L 457.984962 305.110646 
L 449.034586 306.177108 
L 440.084211 307.033589 
L 431.133835 307.68416 
L 422.183459 308.130408 
L 413.233083 308.37553 
L 404.282707 308.419526 
L 395.332331 308.262396 
L 386.381955 307.904141 
L 377.431579 307.343566 
L 368.253983 306.555789 
L 359.359213 305.583158 
L 350.580451 304.417153 
L 341.630075 303.012934 
L 332.679699 301.385068 
L 323.729323 299.525673 
L 314.778947 297.425088 
L 305.828571 295.073102 
L 297.996992 292.798074 
L 289.299668 290.021053 
L 282.333835 287.595137 
L 274.502256 284.641107 
L 266.670677 281.430327 
L 259.721759 278.349474 
L 253.245113 275.265678 
L 245.977349 271.541053 
L 239.819549 268.145639 
L 234.026331 264.732632 
L 227.512782 260.612433 
L 221.918797 256.809663 
L 216.324812 252.730495 
L 211.756423 249.170526 
L 207.076774 245.28 
L 202.699931 241.389474 
L 198.42406 237.317851 
L 193.866421 232.635789 
L 190.356841 228.745263 
L 187.085074 224.854737 
L 183.315078 219.991579 
L 180.523308 216.073034 
L 177.370145 211.237895 
L 174.929323 207.120333 
L 172.439393 202.484211 
L 170.114362 197.621053 
L 168.07361 192.757895 
L 166.31077 187.894737 
L 164.81856 183.031579 
L 163.593341 178.168421 
L 162.622556 173.260723 
L 161.92669 168.442105 
L 161.479283 163.578947 
L 161.288362 158.715789 
L 161.352003 153.852632 
L 161.670965 148.989474 
L 162.246347 144.126316 
L 163.079542 139.263158 
L 164.173348 134.4 
L 165.53139 129.536842 
L 167.157636 124.673684 
L 169.058952 119.810526 
L 171.240837 114.947368 
L 173.711067 110.084211 
L 176.04812 105.946576 
L 178.916867 101.330526 
L 181.642105 97.320413 
L 185.156585 92.576842 
L 188.354887 88.602311 
L 192.521961 83.823158 
L 196.186466 79.932283 
L 200.661654 75.516495 
L 205.136842 71.412834 
L 209.61203 67.580698 
L 214.087218 63.986236 
L 218.728758 60.48 
L 218.728758 60.48 
" clip-path="url(#pc614706517)" style="fill: none; stroke: #8bc88b; stroke-width: 1.5"/>
    <path d="M 518.4 307.174435 
L 509.449624 309.576334 
L 500.499248 311.743933 
L 491.548872 313.688178 
L 482.598496 315.417304 
L 472.529323 317.113182 
L 463.578947 318.405864 
L 453.509774 319.624593 
L 443.440602 320.599767 
L 433.371429 321.335715 
L 423.302256 321.834999 
L 413.233083 322.100852 
L 403.16391 322.133183 
L 393.094737 321.932263 
L 383.025564 321.49782 
L 372.956391 320.828067 
L 362.887218 319.919882 
L 352.818045 318.76895 
L 342.748872 317.370851 
L 333.798496 315.914078 
L 324.84812 314.251639 
L 315.897744 312.37576 
L 306.947368 310.278273 
L 297.996992 307.950585 
L 289.046617 305.382338 
L 280.096241 302.560109 
L 271.145865 299.468212 
L 263.314286 296.528269 
L 255.482707 293.354225 
L 247.651128 289.930009 
L 239.819549 286.234333 
L 233.106767 282.832403 
L 226.393985 279.196721 
L 219.681203 275.304054 
L 212.968421 271.127991 
L 207.374436 267.409358 
L 201.780451 263.448473 
L 196.186466 259.217584 
L 190.979424 255.006316 
L 186.117293 250.802598 
L 181.204922 246.252632 
L 177.166917 242.249068 
L 172.691729 237.48905 
L 168.475081 232.635789 
L 164.580974 227.772632 
L 161.003107 222.909474 
L 157.727543 218.046316 
L 154.74223 213.183158 
L 152.038387 208.32 
L 149.605621 203.456842 
L 147.436915 198.593684 
L 145.52549 193.730526 
L 143.865913 188.867368 
L 142.453086 184.004211 
L 141.283833 179.141053 
L 140.354443 174.277895 
L 139.662798 169.414737 
L 139.205907 164.551579 
L 138.983922 159.688421 
L 138.995588 154.825263 
L 139.241052 149.962105 
L 139.721374 145.098947 
L 140.436794 140.235789 
L 141.389816 135.372632 
L 142.583461 130.509474 
L 144.020805 125.646316 
L 145.704976 120.783158 
L 147.642088 115.92 
L 149.836929 111.056842 
L 152.296287 106.193684 
L 155.028246 101.330526 
L 158.147368 96.305241 
L 161.503759 91.384487 
L 164.955637 86.741053 
L 168.882633 81.877895 
L 173.142805 77.014737 
L 177.755215 72.151579 
L 181.712681 68.261053 
L 186.117293 64.197038 
L 190.399983 60.48 
L 190.399983 60.48 
" clip-path="url(#pc614706517)" style="fill: none; stroke: #82be82; stroke-width: 1.5"/>
    <path d="M 518.4 322.148313 
L 509.449624 324.333902 
L 499.380451 326.545447 
L 489.311278 328.50466 
L 479.242105 330.220059 
L 469.172932 331.698976 
L 459.103759 332.946977 
L 449.034586 333.969063 
L 438.965414 334.769736 
L 428.896241 335.350521 
L 418.827068 335.715757 
L 408.757895 335.864732 
L 398.688722 335.799228 
L 388.619549 335.51817 
L 378.550376 335.02121 
L 368.481203 334.306206 
L 358.41203 333.370738 
L 348.342857 332.211125 
L 338.273684 330.823337 
L 328.204511 329.200407 
L 318.135338 327.336898 
L 309.184962 325.471763 
L 300.234586 323.403442 
L 291.284211 321.124586 
L 282.333835 318.624541 
L 273.383459 315.894748 
L 264.433083 312.922394 
L 256.601504 310.111611 
L 248.769925 307.093085 
L 240.433533 303.637895 
L 233.106767 300.379885 
L 225.275188 296.652722 
L 217.443609 292.651075 
L 210.730827 288.984785 
L 204.018045 285.079294 
L 197.305263 280.911955 
L 191.711278 277.220815 
L 186.117293 273.309676 
L 179.830137 268.623158 
L 174.929323 264.732044 
L 169.184846 259.869474 
L 163.741353 254.920351 
L 158.848073 250.143158 
L 154.209315 245.28 
L 149.897647 240.416842 
L 145.840602 235.482749 
L 142.193028 230.690526 
L 138.773783 225.827368 
L 135.628013 220.964211 
L 132.747054 216.101053 
L 130.121594 211.237895 
L 127.745578 206.374737 
L 125.611741 201.511579 
L 123.715345 196.648421 
L 122.051102 191.785263 
L 120.615207 186.922105 
L 119.404017 182.058947 
L 118.414916 177.195789 
L 117.645328 172.332632 
L 117.094037 167.469474 
L 116.75188 162.439177 
L 116.640463 157.743158 
L 116.75188 152.568063 
L 117.050798 148.016842 
L 117.58047 143.153684 
L 118.328103 138.290526 
L 119.295078 133.427368 
L 120.48397 128.564211 
L 121.897391 123.701053 
L 123.538285 118.837895 
L 125.411757 113.974737 
L 127.521594 109.111579 
L 129.873223 104.248421 
L 132.472783 99.385263 
L 135.328438 94.522105 
L 138.447127 89.658947 
L 141.838604 84.795789 
L 145.513374 79.932632 
L 149.483728 75.069474 
L 153.763282 70.206316 
L 158.368769 65.343158 
L 163.31815 60.48 
L 163.31815 60.48 
" clip-path="url(#pc614706517)" style="fill: none; stroke: #79b479; stroke-width: 1.5"/>
    <path d="M 518.4 336.920982 
L 508.330827 339.166684 
L 498.261654 341.17671 
L 488.192481 342.958473 
L 478.123308 344.519079 
L 468.054135 345.862407 
L 457.984962 346.994667 
L 447.915789 347.919093 
L 437.846617 348.638854 
L 426.658647 349.201176 
L 416.589474 349.495202 
L 405.401504 349.587424 
L 394.213534 349.433721 
L 384.144361 349.083768 
L 374.075188 348.533187 
L 364.006015 347.779347 
L 353.936842 346.820493 
L 343.867669 345.653449 
L 333.798496 344.273862 
L 323.729323 342.677392 
L 313.66015 340.857868 
L 303.590977 338.809271 
L 293.521805 336.523167 
L 283.452632 333.990559 
L 274.502256 331.523586 
L 265.55188 328.845105 
L 256.601504 325.944099 
L 247.651128 322.808768 
L 238.700752 319.426465 
L 230.869173 316.251929 
L 221.918797 312.360642 
L 213.655558 308.501053 
L 205.867242 304.610526 
L 198.42406 300.644281 
L 190.592481 296.185259 
L 183.650612 291.966316 
L 177.166917 287.77546 
L 170.454135 283.157489 
L 163.909618 278.349474 
L 158.147368 273.836184 
L 152.553383 269.173685 
L 147.542808 264.732632 
L 142.391346 259.869474 
L 137.571489 255.006316 
L 133.064597 250.143158 
L 128.855571 245.28 
L 124.583459 239.967258 
L 121.227068 235.479906 
L 117.870677 230.658981 
L 114.514286 225.432747 
L 111.867769 220.964211 
L 108.920301 215.528472 
L 106.682707 210.99497 
L 104.445113 205.99987 
L 102.633006 201.511579 
L 100.878649 196.648421 
L 99.33814 191.785263 
L 98.007613 186.922105 
L 96.884789 182.058947 
L 95.967426 177.195789 
L 95.253312 172.332632 
L 94.741576 167.469474 
L 94.43052 162.606316 
L 94.320345 157.743158 
L 94.410452 152.88 
L 94.70144 148.016842 
L 95.193108 143.153684 
L 95.886865 138.290526 
L 96.783723 133.427368 
L 97.885894 128.564211 
L 99.195619 123.701053 
L 100.715171 118.837895 
L 102.447741 113.974737 
L 104.445113 108.998819 
L 106.682707 104.005032 
L 108.963869 99.385263 
L 111.592046 94.522105 
L 114.514286 89.566175 
L 117.870677 84.342425 
L 121.227068 79.521149 
L 124.583459 75.031531 
L 128.45078 70.206316 
L 132.630335 65.343158 
L 137.106776 60.48 
L 137.106776 60.48 
" clip-path="url(#pc614706517)" style="fill: none; stroke: #6faa6f; stroke-width: 1.5"/>
    <path d="M 518.4 351.539544 
L 508.330827 353.617991 
L 498.261654 355.481396 
L 488.192481 357.136029 
L 477.004511 358.734328 
L 465.816541 360.087655 
L 454.628571 361.199223 
L 443.440602 362.074102 
L 432.252632 362.714447 
L 421.064662 363.123301 
L 409.876692 363.301292 
L 398.688722 363.249617 
L 387.500752 362.968277 
L 376.312782 362.454847 
L 365.124812 361.709304 
L 353.936842 360.728311 
L 342.748872 359.508469 
L 331.560902 358.046025 
L 320.372932 356.334426 
L 310.303759 354.576176 
L 300.234586 352.606049 
L 289.757547 350.324211 
L 280.096241 348.00241 
L 270.027068 345.353035 
L 259.957895 342.458421 
L 249.888722 339.306749 
L 240.938346 336.279113 
L 231.42991 332.816842 
L 223.037594 329.53765 
L 214.087218 325.796406 
L 205.136842 321.785579 
L 197.305263 318.039742 
L 189.473684 314.056057 
L 181.642105 309.816316 
L 174.288809 305.583158 
L 167.097744 301.184715 
L 160.384962 296.828409 
L 153.338207 291.966316 
L 146.720558 287.103158 
L 140.246617 282.033244 
L 134.652632 277.374614 
L 129.058647 272.423597 
L 123.464662 267.141297 
L 118.989474 262.644915 
L 114.514286 257.871852 
L 110.039098 252.779649 
L 106.263548 248.197895 
L 102.207519 242.931206 
L 98.851128 238.256704 
L 95.494737 233.237429 
L 92.138346 227.802295 
L 89.35885 222.909474 
L 86.544361 217.500441 
L 84.046441 212.210526 
L 81.968404 207.347368 
L 79.831579 201.752744 
L 78.113154 196.648421 
L 76.475188 191.035672 
L 75.214303 185.949474 
L 74.027409 180.113684 
L 73.11435 174.277895 
L 72.561973 169.414737 
L 72.196843 164.551579 
L 72.018959 159.688421 
L 72.028321 154.825263 
L 72.22493 149.962105 
L 72.608785 145.098947 
L 73.180091 140.235789 
L 73.940986 135.372632 
L 74.891954 130.509474 
L 76.034715 125.646316 
L 77.593985 120.036997 
L 78.904105 115.92 
L 80.950376 110.230987 
L 82.981634 105.221053 
L 85.425564 99.804377 
L 87.663158 95.287059 
L 90.164129 90.631579 
L 93.257143 85.334912 
L 96.613534 80.04654 
L 99.969925 75.149203 
L 103.326316 70.577183 
L 106.682707 66.278703 
L 111.157895 60.915173 
L 111.534627 60.48 
L 111.534627 60.48 
" clip-path="url(#pc614706517)" style="fill: none; stroke: #659f65; stroke-width: 1.5"/>
    <path d="M 518.4 366.03629 
L 507.21203 368.174246 
L 496.02406 370.068579 
L 484.83609 371.725908 
L 473.64812 373.150297 
L 462.46015 374.34794 
L 451.27218 375.321877 
L 440.084211 376.075094 
L 428.896241 376.610524 
L 417.708271 376.928272 
L 406.520301 377.030598 
L 395.332331 376.917501 
L 384.051285 376.585263 
L 372.956391 376.042637 
L 361.768421 375.278408 
L 350.580451 374.293359 
L 339.392481 373.084505 
L 328.204511 371.648469 
L 317.016541 369.979652 
L 305.828571 368.073281 
L 295.759398 366.148952 
L 285.327825 363.941053 
L 274.502256 361.41088 
L 264.433083 358.832035 
L 254.36391 356.026878 
L 244.294737 352.985263 
L 234.225564 349.69643 
L 224.940228 346.433684 
L 215.206015 342.762354 
L 206.255639 339.147349 
L 197.305263 335.28894 
L 188.354887 331.170786 
L 180.523308 327.339288 
L 172.337148 323.090526 
L 164.86015 318.974743 
L 156.916185 314.336842 
L 149.086804 309.473684 
L 141.724675 304.610526 
L 134.791006 299.747368 
L 128.254794 294.884211 
L 122.087954 290.021053 
L 116.267421 285.157895 
L 110.772385 280.294737 
L 105.56391 275.411346 
L 99.969925 269.827819 
L 95.182773 264.732632 
L 90.884121 259.869474 
L 86.544361 254.63933 
L 82.305766 249.170526 
L 78.712782 244.203126 
L 74.859761 238.471579 
L 72 233.892345 
M 72 81.107395 
L 75.17457 76.042105 
L 78.712782 70.797653 
L 82.670654 65.343158 
L 86.447888 60.48 
L 86.447888 60.48 
" clip-path="url(#pc614706517)" style="fill: none; stroke: #5b955b; stroke-width: 1.5"/>
    <path d="M 518.4 380.434902 
L 507.21203 382.436303 
L 496.02406 384.211212 
L 484.83609 385.765222 
L 473.64812 387.103232 
L 462.148193 388.256842 
L 451.27218 389.14411 
L 440.084211 389.852299 
L 428.896241 390.355794 
L 417.708271 390.654987 
L 406.520301 390.751338 
L 395.332331 390.644845 
L 384.144361 390.33551 
L 372.956391 389.821745 
L 361.768421 389.1032 
L 350.580451 388.17728 
L 339.392481 387.041347 
L 328.204511 385.692715 
L 317.016541 384.127635 
L 305.828571 382.34153 
L 294.640602 380.328603 
L 283.452632 378.082853 
L 272.264662 375.597999 
L 261.076692 372.864191 
L 251.007519 370.183719 
L 240.938346 367.286697 
L 230.869173 364.163964 
L 220.8 360.804793 
L 210.555655 357.132632 
L 200.445056 353.242105 
L 190.992883 349.351579 
L 182.11572 345.461053 
L 173.747458 341.570526 
L 164.86015 337.184517 
L 156.523463 332.816842 
L 148.078195 328.121141 
L 141.172395 324.063158 
L 133.336051 319.2 
L 125.702256 314.175042 
L 118.952502 309.473684 
L 112.276692 304.56058 
L 105.56391 299.328678 
L 99.969925 294.722742 
L 94.37594 289.867071 
L 88.781955 284.733015 
L 83.18797 279.287089 
L 77.593985 273.483316 
L 72.335105 267.650526 
L 72 267.264568 
L 72 267.264568 
" clip-path="url(#pc614706517)" style="fill: none; stroke: #518a51; stroke-width: 1.5"/>
    <path d="M 518.4 394.752647 
L 507.21203 396.634161 
L 496.02406 398.304708 
L 483.717293 399.904103 
L 472.529323 401.144572 
L 460.222556 402.278985 
L 447.915789 403.175454 
L 435.609023 403.836793 
L 423.302256 404.263696 
L 410.995489 404.458702 
L 398.688722 404.421809 
L 386.381955 404.153018 
L 374.075188 403.651669 
L 361.768421 402.916182 
L 349.461654 401.944311 
L 337.154887 400.733225 
L 324.84812 399.279468 
L 313.66015 397.743816 
L 302.47218 396.000264 
L 291.284211 394.043672 
L 280.096241 391.868732 
L 268.908271 389.469956 
L 257.720301 386.839794 
L 246.532331 383.970496 
L 235.344361 380.852695 
L 225.275188 377.82558 
L 215.206015 374.580095 
L 205.136842 371.105356 
L 195.067669 367.391046 
L 184.998496 363.423873 
L 176.04812 359.673204 
L 167.097744 355.698892 
L 157.754038 351.296842 
L 149.196992 347.022535 
L 140.718082 342.543158 
L 132.415038 337.902701 
L 124.583459 333.277763 
L 116.75188 328.392437 
L 110.039098 323.980737 
L 103.12433 319.2 
L 96.448136 314.336842 
L 89.900752 309.308388 
L 83.18797 303.859072 
L 77.262573 298.774737 
L 72 294.018901 
L 72 294.018901 
" clip-path="url(#pc614706517)" style="fill: none; stroke: #477f47; stroke-width: 1.5"/>
    <path d="M 518.4 409.004168 
L 506.093233 410.946495 
L 493.786466 412.650104 
L 481.479699 414.118899 
L 469.172932 415.358009 
L 456.866165 416.370026 
L 444.559398 417.157505 
L 432.252632 417.722961 
L 419.945865 418.067605 
L 407.639098 418.192476 
L 395.332331 418.097574 
L 383.025564 417.782899 
L 370.718797 417.247749 
L 358.025693 416.463158 
L 345.893611 415.490526 
L 333.798496 414.30144 
L 321.491729 412.86388 
L 309.184962 411.192684 
L 296.878195 409.283271 
L 284.571429 407.130076 
L 272.578976 404.791579 
L 261.076692 402.318675 
L 249.888722 399.691583 
L 238.700752 396.83808 
L 227.512782 393.749771 
L 216.324812 390.417844 
L 206.255639 387.201918 
L 195.117415 383.393684 
L 184.998496 379.694192 
L 174.929323 375.77515 
L 165.133134 371.722105 
L 155.909774 367.676854 
L 146.959398 363.52618 
L 137.884212 359.077895 
L 128.517318 354.214737 
L 119.673138 349.351579 
L 111.157895 344.400561 
L 103.326316 339.595596 
L 95.494737 334.528935 
L 87.663158 329.178368 
L 80.568403 324.063158 
L 74.156404 319.2 
L 72 317.508912 
L 72 317.508912 
" clip-path="url(#pc614706517)" style="fill: none; stroke: #3d743d; stroke-width: 1.5"/>
    <path d="M 518.4 423.200091 
L 506.093233 425.039231 
L 493.786466 426.65322 
L 481.479699 428.046589 
L 469.172932 429.221939 
L 456.866165 430.182471 
L 444.559398 430.930349 
L 432.252632 431.467154 
L 419.945865 431.794673 
L 407.639098 431.913339 
L 395.332331 431.823153 
L 383.025564 431.524114 
L 370.718797 431.016093 
L 358.41203 430.296796 
L 346.105263 429.365357 
L 333.798496 428.219624 
L 321.491729 426.856181 
L 308.781351 425.216842 
L 296.878195 423.464162 
L 284.571429 421.426811 
L 272.264662 419.15469 
L 259.957895 416.642108 
L 248.769925 414.142959 
L 237.581955 411.433368 
L 226.393985 408.505987 
L 215.206015 405.353121 
L 203.72161 401.873684 
L 192.830075 398.33581 
L 182.760902 394.850598 
L 172.691729 391.149698 
L 162.622556 387.222132 
L 152.553383 383.056162 
L 142.484211 378.639227 
L 133.533835 374.489152 
L 123.908833 369.776842 
L 115.633083 365.505013 
L 106.682707 360.640876 
L 98.846437 356.16 
L 89.900752 350.769924 
L 82.069173 345.793395 
L 74.237594 340.555561 
L 72 339.007196 
L 72 339.007196 
" clip-path="url(#pc614706517)" style="fill: none; stroke: #346a34; stroke-width: 1.5"/>
    <path d="M 518.4 437.348047 
L 506.093233 439.095023 
L 493.786466 440.629176 
L 481.479699 441.953759 
L 468.054135 443.163273 
L 454.628571 444.13029 
L 441.203008 444.857271 
L 427.777444 445.345642 
L 414.35188 445.597227 
L 400.926316 445.612026 
L 387.500752 445.390039 
L 374.075188 444.931266 
L 360.649624 444.234235 
L 347.22406 443.297372 
L 333.798496 442.118218 
L 321.113343 440.778947 
L 309.184962 439.316572 
L 296.878195 437.599021 
L 284.571429 435.665113 
L 272.264662 433.510274 
L 259.578247 431.052632 
L 247.651128 428.516737 
L 235.344361 425.665165 
L 224.156391 422.859182 
L 212.968421 419.842953 
L 201.292092 416.463158 
L 190.592481 413.149561 
L 179.404511 409.454962 
L 168.216541 405.514529 
L 157.028571 401.316496 
L 146.959398 397.307061 
L 136.890226 393.067109 
L 126.821053 388.583011 
L 117.838432 384.366316 
L 107.801504 379.396836 
L 98.698138 374.64 
L 89.856562 369.776842 
L 80.950376 364.61814 
L 73.118797 359.851453 
L 72 359.152118 
L 72 359.152118 
" clip-path="url(#pc614706517)" style="fill: none; stroke: #2a602a; stroke-width: 1.5"/>
    <path d="M 276.653496 448.56 
L 264.433083 446.389829 
L 252.126316 443.988898 
L 239.819549 441.366129 
L 227.512782 438.515387 
L 215.206015 435.429493 
L 202.899248 432.10096 
L 191.711278 428.856161 
L 179.963158 425.216842 
L 169.335338 421.711094 
L 158.147368 417.792714 
L 146.959398 413.630101 
L 136.865877 409.654737 
L 125.702256 405.002067 
L 115.633083 400.563234 
L 105.56391 395.881442 
L 95.494737 390.94149 
L 86.52676 386.311579 
L 77.555985 381.448421 
L 72 378.313397 
L 72 378.313397 
" clip-path="url(#pc614706517)" style="fill: none; stroke: #225622; stroke-width: 1.5"/>
    <path d="M 208.415704 448.56 
L 196.186466 445.294437 
L 183.81631 441.751579 
L 171.572932 437.997587 
L 160.384962 434.343811 
L 149.196992 430.46813 
L 138.009023 426.360923 
L 127.541977 422.298947 
L 116.75188 417.878637 
L 106.682707 413.530581 
L 96.030199 408.682105 
L 85.894473 403.818947 
L 76.258361 398.955789 
L 72 396.728171 
L 72 396.728171 
" clip-path="url(#pc614706517)" style="fill: none; stroke: #1a4e1a; stroke-width: 1.5"/>
    <path d="M 156.259158 448.56 
L 155.909774 448.446257 
L 154.790977 448.080401 
L 153.67218 447.712917 
L 153.291635 447.587368 
L 152.553383 447.342988 
L 151.434586 446.971003 
L 150.367749 446.614737 
L 150.315789 446.597327 
L 149.196992 446.220811 
L 148.078195 445.842656 
L 147.487412 445.642105 
L 146.959398 445.462257 
L 145.840602 445.079535 
L 144.721805 444.695169 
L 144.647331 444.669474 
L 143.603008 444.307936 
L 142.484211 443.918966 
L 141.848014 443.696842 
L 141.365414 443.527772 
L 140.246617 443.134166 
L 139.12782 442.738906 
L 139.086398 442.724211 
L 138.009023 442.340683 
L 136.890226 441.94075 
L 136.363217 441.751579 
L 135.771429 441.538427 
L 134.652632 441.133789 
L 133.675543 440.778947 
L 133.533835 440.727307 
L 132.415038 440.317932 
L 131.296241 439.906884 
L 131.02362 439.806316 
L 130.177444 439.493087 
L 129.058647 439.077264 
L 128.405916 438.833684 
L 127.93985 438.65916 
L 126.821053 438.238528 
L 125.821046 437.861053 
L 125.702256 437.816057 
L 124.583459 437.390583 
L 123.464662 436.96342 
L 123.269004 436.888421 
L 122.345865 436.533332 
L 121.227068 436.101287 
L 120.748593 435.915789 
L 120.108271 435.666677 
L 118.989474 435.229716 
L 118.258615 434.943158 
L 117.870677 434.790519 
L 116.75188 434.348608 
L 115.798366 433.970526 
L 115.633083 433.904758 
L 114.514286 433.457862 
L 113.395489 433.009251 
L 113.367274 432.997895 
L 112.276692 432.557375 
L 111.157895 432.103738 
L 110.965084 432.025263 
L 110.039098 431.647044 
L 108.920301 431.188345 
L 108.590528 431.052632 
L 107.801504 430.726763 
L 106.682707 430.262966 
L 106.242988 430.08 
L 105.56391 429.796427 
L 104.445113 429.327495 
L 103.921866 429.107368 
L 103.326316 428.855926 
L 102.207519 428.381822 
L 101.62658 428.134737 
L 101.088722 427.905151 
L 99.969925 427.425839 
L 99.356567 427.162105 
L 98.851128 426.94399 
L 97.732331 426.459432 
L 97.111277 426.189474 
L 96.613534 425.972331 
L 95.494737 425.482488 
L 94.89018 425.216842 
L 94.37594 424.990059 
L 93.257143 424.494893 
L 92.692758 424.244211 
L 92.138346 423.997058 
L 91.019549 423.49653 
L 90.518509 423.271579 
L 89.900752 422.993209 
L 88.781955 422.48728 
L 88.366944 422.298947 
L 87.663158 421.978393 
L 86.544361 421.467023 
L 86.237589 421.326316 
L 85.425564 420.952488 
L 84.306767 420.435637 
L 84.129982 420.353684 
L 83.18797 419.915371 
L 82.069173 419.392999 
L 82.043675 419.381053 
L 80.950376 418.866917 
L 79.978734 418.408421 
L 79.831579 418.338723 
L 78.712782 417.806999 
L 77.93438 417.435789 
L 77.593985 417.272851 
L 76.475188 416.735488 
L 75.91011 416.463158 
L 75.356391 416.195298 
L 74.237594 415.652253 
L 73.90552 415.490526 
L 73.118797 415.10593 
L 72 414.55716 
" clip-path="url(#pc614706517)" style="fill: none; stroke: #124612; stroke-width: 1.5"/>
    <path d="M 111.534627 448.56 
L 111.157895 448.415428 
L 110.039098 447.984458 
L 109.012131 447.587368 
L 108.920301 447.551742 
L 107.801504 447.116059 
L 106.682707 446.678742 
L 106.519571 446.614737 
L 105.56391 446.238528 
L 104.445113 445.79646 
L 104.05591 445.642105 
L 103.326316 445.351775 
L 102.207519 444.904924 
L 101.620176 444.669474 
L 101.088722 444.455705 
L 99.969925 444.004038 
L 99.211759 443.696842 
L 98.851128 443.550223 
L 97.732331 443.093707 
L 96.830067 442.724211 
L 96.613534 442.635233 
L 95.494737 442.173835 
L 94.474524 441.751579 
L 94.37594 441.710636 
L 93.257143 441.244323 
L 92.144572 440.778947 
L 92.138346 440.776334 
L 91.019549 440.305072 
L 89.900752 439.832137 
L 89.839883 439.806316 
L 88.781955 439.355981 
L 87.663158 438.878057 
L 87.559647 438.833684 
L 86.544361 438.396947 
L 85.425564 437.914 
L 85.303332 437.861053 
L 84.306767 437.427868 
L 83.18797 436.939862 
L 83.070443 436.888421 
L 82.069173 436.448638 
L 80.950376 435.955538 
L 80.860498 435.915789 
L 79.831579 435.45915 
L 78.712782 434.960921 
L 78.673029 434.943158 
L 77.593985 434.459297 
L 76.507689 433.970526 
L 76.475188 433.955851 
L 75.356391 433.448969 
L 74.36413 432.997895 
L 74.237594 432.940169 
L 73.118797 432.428054 
L 72.241782 432.025263 
L 72 431.913825 
" clip-path="url(#pc614706517)" style="fill: none; stroke: #0c3f0c; stroke-width: 1.5"/>
    <path clip-path="url(#pc614706517)" style="fill: none; stroke: #073907; stroke-width: 1.5"/>
    <path clip-path="url(#pc614706517)" style="fill: none; stroke: #033503; stroke-width: 1.5"/>
    <path clip-path="url(#pc614706517)" style="fill: none; stroke: #003200; stroke-width: 1.5"/>
    <path clip-path="url(#pc614706517)" style="fill: none; stroke: #003200; stroke-width: 1.5"/>
   </g>
   <g id="line2d_19">
    <path d="M 164.07 334.340695 
L 309.15 407.159575 
L 384.48 369.349772 
L 384.48 195.704751 
L 281.25 143.891317 
L 164.07 202.706566 
L 164.07 334.340695 
" clip-path="url(#pc614706517)" style="fill: none; stroke: #ff0000; stroke-width: 2; stroke-linecap: square"/>
   </g>
   <g id="line2d_20">
    <path d="M 239.4 303.03 
L 246.02904 291.620448 
L 252.39557 281.105405 
L 258.509985 271.414741 
L 264.38227 262.483825 
L 270.022012 254.253094 
L 275.43842 246.667651 
L 280.640339 239.676907 
L 285.636262 233.234238 
L 290.434346 227.296673 
L 297.277577 219.25163 
L 303.718372 212.13389 
L 309.780396 205.836569 
L 315.485925 200.265103 
L 320.855923 195.335826 
L 325.910122 190.974717 
L 330.667094 187.116288 
L 336.577432 182.654492 
L 342.028939 178.864881 
L 345.837996 176.40228 
L 367.351288 187.20028 
L 367.351288 187.20028 
" clip-path="url(#pc614706517)" style="fill: none; stroke: #00ffff; stroke-width: 1.5; stroke-linecap: square"/>
   </g>
   <g id="patch_3">
    <path d="M 72 448.56 
L 72 60.48 
" style="fill: none; stroke: #000000; stroke-width: 0.8; stroke-linejoin: miter; stroke-linecap: square"/>
   </g>
   <g id="patch_4">
    <path d="M 518.4 448.56 
L 518.4 60.48 
" style="fill: none; stroke: #000000; stroke-width: 0.8; stroke-linejoin: miter; stroke-linecap: square"/>
   </g>
   <g id="patch_5">
    <path d="M 72 448.56 
L 518.4 448.56 
" style="fill: none; stroke: #000000; stroke-width: 0.8; stroke-linejoin: miter; stroke-linecap: square"/>
   </g>
   <g id="patch_6">
    <path d="M 72 60.48 
L 518.4 60.48 
" style="fill: none; stroke: #000000; stroke-width: 0.8; stroke-linejoin: miter; stroke-linecap: square"/>
   </g>
   <g id="PathCollection_1">
    <defs>
     <path id="mf2f288217e" d="M 0 5 
C 1.326016 5 2.597899 4.473168 3.535534 3.535534 
C 4.473168 2.597899 5 1.326016 5 0 
C 5 -1.326016 4.473168 -2.597899 3.535534 -3.535534 
C 2.597899 -4.473168 1.326016 -5 0 -5 
C -1.326016 -5 -2.597899 -4.473168 -3.535534 -3.535534 
C -4.473168 -2.597899 -5 -1.326016 -5 0 
C -5 1.326016 -4.473168 2.597899 -3.535534 3.535534 
C -2.597899 4.473168 -1.326016 5 0 5 
z
" style="stroke: #00ffff"/>
    </defs>
    <g clip-path="url(#pc614706517)">
     <use xlink:href="#mf2f288217e" x="367.351288" y="187.20028" style="fill: #00ffff; stroke: #00ffff"/>
    </g>
   </g>
  </g>
 </g>
 <defs>
  <clipPath id="pc614706517">
   <rect x="72" y="60.48" width="446.4" height="388.08"/>
  </clipPath>
 </defs>
</svg>
