<?xml version="1.0" encoding="UTF-8"?>
<!DOCTYPE svg PUBLIC "-//W3C//DTD SVG 1.1//EN" "http://www.w3.org/Graphics/SVG/1.1/DTD/svg11.dtd">
<svg version="1.2" width="304.8mm" height="406.4mm" viewBox="0 0 30480 40640" preserveAspectRatio="xMidYMid" fill-rule="evenodd" stroke-width="28.222" stroke-linejoin="round" xmlns="http://www.w3.org/2000/svg" xmlns:ooo="http://xml.openoffice.org/svg/export" xmlns:xlink="http://www.w3.org/1999/xlink" xmlns:presentation="http://sun.com/xmlns/staroffice/presentation" xmlns:smil="http://www.w3.org/2001/SMIL20/" xmlns:anim="urn:oasis:names:tc:opendocument:xmlns:animation:1.0" xml:space="preserve">
 <defs class="ClipPathGroup">
  <clipPath id="presentation_clip_path" clipPathUnits="userSpaceOnUse">
   <rect x="0" y="0" width="30480" height="40640"/>
  </clipPath>
  <clipPath id="presentation_clip_path_shrink" clipPathUnits="userSpaceOnUse">
   <rect x="30" y="40" width="30420" height="40559"/>
  </clipPath>
 </defs>
 <defs class="TextShapeIndex">
  <g ooo:slide="id1" ooo:id-list="id3 id4 id5 id6 id7 id8 id9 id10 id11 id12 id13 id14 id15 id16 id17 id18 id19 id20 id21 id22 id23 id24 id25 id26 id27"/>
 </defs>
 <defs class="EmbeddedBulletChars">
  <g id="bullet-char-template-57356" transform="scale(0.00048828125,-0.00048828125)">
   <path d="M 580,1141 L 1163,571 580,0 -4,571 580,1141 Z"/>
  </g>
  <g id="bullet-char-template-57354" transform="scale(0.00048828125,-0.00048828125)">
   <path d="M 8,1128 L 1137,1128 1137,0 8,0 8,1128 Z"/>
  </g>
  <g id="bullet-char-template-10146" transform="scale(0.00048828125,-0.00048828125)">
   <path d="M 174,0 L 602,739 174,1481 1456,739 174,0 Z M 1358,739 L 309,1346 659,739 1358,739 Z"/>
  </g>
  <g id="bullet-char-template-10132" transform="scale(0.00048828125,-0.00048828125)">
   <path d="M 2015,739 L 1276,0 717,0 1260,543 174,543 174,936 1260,936 717,1481 1274,1481 2015,739 Z"/>
  </g>
  <g id="bullet-char-template-10007" transform="scale(0.00048828125,-0.00048828125)">
   <path d="M 0,-2 C -7,14 -16,27 -25,37 L 356,567 C 262,823 215,952 215,954 215,979 228,992 255,992 264,992 276,990 289,987 310,991 331,999 354,1012 L 381,999 492,748 772,1049 836,1024 860,1049 C 881,1039 901,1025 922,1006 886,937 835,863 770,784 769,783 710,716 594,584 L 774,223 C 774,196 753,168 711,139 L 727,119 C 717,90 699,76 672,76 641,76 570,178 457,381 L 164,-76 C 142,-110 111,-127 72,-127 30,-127 9,-110 8,-76 1,-67 -2,-52 -2,-32 -2,-23 -1,-13 0,-2 Z"/>
  </g>
  <g id="bullet-char-template-10004" transform="scale(0.00048828125,-0.00048828125)">
   <path d="M 285,-33 C 182,-33 111,30 74,156 52,228 41,333 41,471 41,549 55,616 82,672 116,743 169,778 240,778 293,778 328,747 346,684 L 369,508 C 377,444 397,411 428,410 L 1163,1116 C 1174,1127 1196,1133 1229,1133 1271,1133 1292,1118 1292,1087 L 1292,965 C 1292,929 1282,901 1262,881 L 442,47 C 390,-6 338,-33 285,-33 Z"/>
  </g>
  <g id="bullet-char-template-9679" transform="scale(0.00048828125,-0.00048828125)">
   <path d="M 813,0 C 632,0 489,54 383,161 276,268 223,411 223,592 223,773 276,916 383,1023 489,1130 632,1184 813,1184 992,1184 1136,1130 1245,1023 1353,916 1407,772 1407,592 1407,412 1353,268 1245,161 1136,54 992,0 813,0 Z"/>
  </g>
  <g id="bullet-char-template-8226" transform="scale(0.00048828125,-0.00048828125)">
   <path d="M 346,457 C 273,457 209,483 155,535 101,586 74,649 74,723 74,796 101,859 155,911 209,963 273,989 346,989 419,989 480,963 531,910 582,859 608,796 608,723 608,648 583,586 532,535 482,483 420,457 346,457 Z"/>
  </g>
  <g id="bullet-char-template-8211" transform="scale(0.00048828125,-0.00048828125)">
   <path d="M -4,459 L 1135,459 1135,606 -4,606 -4,459 Z"/>
  </g>
  <g id="bullet-char-template-61548" transform="scale(0.00048828125,-0.00048828125)">
   <path d="M 173,740 C 173,903 231,1043 346,1159 462,1274 601,1332 765,1332 928,1332 1067,1274 1183,1159 1299,1043 1357,903 1357,740 1357,577 1299,437 1183,322 1067,206 928,148 765,148 601,148 462,206 346,322 231,437 173,577 173,740 Z"/>
  </g>
 </defs>
 <g>
  <g id="id2" class="Master_Slide">
   <g id="bg-id2" class="Background"/>
   <g id="bo-id2" class="BackgroundObjects"/>
  </g>
 </g>
 <g class="SlideGroup">
  <g>
   <g id="container-id1">
    <g id="id1" class="Slide" clip-path="url(#presentation_clip_path)">
     <g class="Page">
      <g id="bg-id1" class="Background">
       <path fill="rgb(25,25,25)" stroke="none" d="M 15240,40639 L 0,40639 0,0 30479,0 30479,40639 15240,40639 Z"/>
      </g>
      <g class="com.sun.star.drawing.LineShape">
       <g id="id3">
        <rect class="BoundingBox" stroke="none" fill="none" x="10869" y="13282" width="5187" height="4298"/>
        <path fill="none" stroke="rgb(7,74,162)" stroke-width="106" stroke-linejoin="round" d="M 10922,13335 L 11004,13402"/>
        <path fill="none" stroke="rgb(7,74,162)" stroke-width="106" stroke-linejoin="round" d="M 11086,13470 L 11167,13537"/>
        <path fill="none" stroke="rgb(7,74,162)" stroke-width="106" stroke-linejoin="round" d="M 11249,13605 L 11331,13672"/>
        <path fill="none" stroke="rgb(7,74,162)" stroke-width="106" stroke-linejoin="round" d="M 11413,13740 L 11494,13807"/>
        <path fill="none" stroke="rgb(7,74,162)" stroke-width="106" stroke-linejoin="round" d="M 11576,13875 L 11658,13942"/>
        <path fill="none" stroke="rgb(7,74,162)" stroke-width="106" stroke-linejoin="round" d="M 11740,14010 L 11821,14077"/>
        <path fill="none" stroke="rgb(7,74,162)" stroke-width="106" stroke-linejoin="round" d="M 11903,14144 L 11985,14212"/>
        <path fill="none" stroke="rgb(7,74,162)" stroke-width="106" stroke-linejoin="round" d="M 12067,14279 L 12148,14347"/>
        <path fill="none" stroke="rgb(7,74,162)" stroke-width="106" stroke-linejoin="round" d="M 12230,14414 L 12312,14482"/>
        <path fill="none" stroke="rgb(7,74,162)" stroke-width="106" stroke-linejoin="round" d="M 12394,14549 L 12476,14617"/>
        <path fill="none" stroke="rgb(7,74,162)" stroke-width="106" stroke-linejoin="round" d="M 12557,14684 L 12639,14752"/>
        <path fill="none" stroke="rgb(7,74,162)" stroke-width="106" stroke-linejoin="round" d="M 12721,14819 L 12803,14887"/>
        <path fill="none" stroke="rgb(7,74,162)" stroke-width="106" stroke-linejoin="round" d="M 12884,14954 L 12966,15021"/>
        <path fill="none" stroke="rgb(7,74,162)" stroke-width="106" stroke-linejoin="round" d="M 13048,15089 L 13130,15156"/>
        <path fill="none" stroke="rgb(7,74,162)" stroke-width="106" stroke-linejoin="round" d="M 13211,15224 L 13293,15291"/>
        <path fill="none" stroke="rgb(7,74,162)" stroke-width="106" stroke-linejoin="round" d="M 13375,15359 L 13457,15426"/>
        <path fill="none" stroke="rgb(7,74,162)" stroke-width="106" stroke-linejoin="round" d="M 13538,15494 L 13620,15561"/>
        <path fill="none" stroke="rgb(7,74,162)" stroke-width="106" stroke-linejoin="round" d="M 13702,15629 L 13784,15696"/>
        <path fill="none" stroke="rgb(7,74,162)" stroke-width="106" stroke-linejoin="round" d="M 13866,15763 L 13947,15831"/>
        <path fill="none" stroke="rgb(7,74,162)" stroke-width="106" stroke-linejoin="round" d="M 14029,15898 L 14111,15966"/>
        <path fill="none" stroke="rgb(7,74,162)" stroke-width="106" stroke-linejoin="round" d="M 14193,16033 L 14274,16101"/>
        <path fill="none" stroke="rgb(7,74,162)" stroke-width="106" stroke-linejoin="round" d="M 14356,16168 L 14438,16236"/>
        <path fill="none" stroke="rgb(7,74,162)" stroke-width="106" stroke-linejoin="round" d="M 14520,16303 L 14601,16371"/>
        <path fill="none" stroke="rgb(7,74,162)" stroke-width="106" stroke-linejoin="round" d="M 14683,16438 L 14765,16505"/>
        <path fill="none" stroke="rgb(7,74,162)" stroke-width="106" stroke-linejoin="round" d="M 14847,16573 L 14929,16640"/>
        <path fill="none" stroke="rgb(7,74,162)" stroke-width="106" stroke-linejoin="round" d="M 15010,16708 L 15092,16775"/>
        <path fill="none" stroke="rgb(7,74,162)" stroke-width="106" stroke-linejoin="round" d="M 15174,16843 L 15256,16910"/>
        <path fill="none" stroke="rgb(7,74,162)" stroke-width="106" stroke-linejoin="round" d="M 15337,16978 L 15419,17045"/>
        <path fill="none" stroke="rgb(7,74,162)" stroke-width="106" stroke-linejoin="round" d="M 15501,17113 L 15583,17180"/>
        <path fill="none" stroke="rgb(7,74,162)" stroke-width="106" stroke-linejoin="round" d="M 15664,17247 L 15746,17315"/>
        <path fill="none" stroke="rgb(7,74,162)" stroke-width="106" stroke-linejoin="round" d="M 15828,17382 L 15910,17450"/>
        <path fill="none" stroke="rgb(7,74,162)" stroke-width="106" stroke-linejoin="round" d="M 15991,17517 L 16002,17526"/>
       </g>
      </g>
      <g class="com.sun.star.drawing.PolyPolygonShape">
       <g id="id4">
        <rect class="BoundingBox" stroke="none" fill="none" x="2941" y="3985" width="5373" height="11832"/>
        <path fill="rgb(46,236,77)" stroke="none" d="M 7893,4065 L 3021,11330 8233,15736 7893,4065 Z"/>
        <path fill="none" stroke="rgb(0,157,26)" stroke-width="159" stroke-linejoin="round" d="M 7893,4065 L 3021,11330 8233,15736 7893,4065 Z"/>
       </g>
      </g>
      <g class="com.sun.star.drawing.PolyPolygonShape">
       <g id="id5">
        <rect class="BoundingBox" stroke="none" fill="none" x="7839" y="3773" width="6113" height="12137"/>
        <path fill="rgb(46,236,77)" stroke="none" d="M 8233,15855 L 13898,10615 7893,3826 8233,15855 Z"/>
        <path fill="none" stroke="rgb(0,157,26)" stroke-width="106" stroke-linejoin="round" d="M 8233,15855 L 13898,10615 7893,3826 8233,15855 Z"/>
       </g>
      </g>
      <g class="com.sun.star.drawing.LineShape">
       <g id="id6">
        <rect class="BoundingBox" stroke="none" fill="none" x="2741" y="10681" width="11098" height="584"/>
        <path fill="none" stroke="rgb(0,157,26)" stroke-width="106" stroke-linejoin="round" d="M 2794,11210 L 2900,11206"/>
        <path fill="none" stroke="rgb(0,157,26)" stroke-width="106" stroke-linejoin="round" d="M 3006,11201 L 3112,11197"/>
        <path fill="none" stroke="rgb(0,157,26)" stroke-width="106" stroke-linejoin="round" d="M 3218,11192 L 3324,11187"/>
        <path fill="none" stroke="rgb(0,157,26)" stroke-width="106" stroke-linejoin="round" d="M 3429,11183 L 3535,11178"/>
        <path fill="none" stroke="rgb(0,157,26)" stroke-width="106" stroke-linejoin="round" d="M 3641,11174 L 3747,11169"/>
        <path fill="none" stroke="rgb(0,157,26)" stroke-width="106" stroke-linejoin="round" d="M 3853,11165 L 3959,11160"/>
        <path fill="none" stroke="rgb(0,157,26)" stroke-width="106" stroke-linejoin="round" d="M 4065,11155 L 4171,11151"/>
        <path fill="none" stroke="rgb(0,157,26)" stroke-width="106" stroke-linejoin="round" d="M 4277,11146 L 4383,11142"/>
        <path fill="none" stroke="rgb(0,157,26)" stroke-width="106" stroke-linejoin="round" d="M 4488,11137 L 4594,11132"/>
        <path fill="none" stroke="rgb(0,157,26)" stroke-width="106" stroke-linejoin="round" d="M 4700,11128 L 4806,11123"/>
        <path fill="none" stroke="rgb(0,157,26)" stroke-width="106" stroke-linejoin="round" d="M 4912,11119 L 5018,11114"/>
        <path fill="none" stroke="rgb(0,157,26)" stroke-width="106" stroke-linejoin="round" d="M 5124,11109 L 5230,11105"/>
        <path fill="none" stroke="rgb(0,157,26)" stroke-width="106" stroke-linejoin="round" d="M 5336,11100 L 5442,11096"/>
        <path fill="none" stroke="rgb(0,157,26)" stroke-width="106" stroke-linejoin="round" d="M 5547,11091 L 5653,11086"/>
        <path fill="none" stroke="rgb(0,157,26)" stroke-width="106" stroke-linejoin="round" d="M 5759,11082 L 5865,11077"/>
        <path fill="none" stroke="rgb(0,157,26)" stroke-width="106" stroke-linejoin="round" d="M 5971,11073 L 6077,11068"/>
        <path fill="none" stroke="rgb(0,157,26)" stroke-width="106" stroke-linejoin="round" d="M 6183,11064 L 6289,11059"/>
        <path fill="none" stroke="rgb(0,157,26)" stroke-width="106" stroke-linejoin="round" d="M 6395,11054 L 6501,11050"/>
        <path fill="none" stroke="rgb(0,157,26)" stroke-width="106" stroke-linejoin="round" d="M 6606,11045 L 6712,11041"/>
        <path fill="none" stroke="rgb(0,157,26)" stroke-width="106" stroke-linejoin="round" d="M 6818,11036 L 6924,11031"/>
        <path fill="none" stroke="rgb(0,157,26)" stroke-width="106" stroke-linejoin="round" d="M 7030,11027 L 7136,11022"/>
        <path fill="none" stroke="rgb(0,157,26)" stroke-width="106" stroke-linejoin="round" d="M 7242,11018 L 7348,11013"/>
        <path fill="none" stroke="rgb(0,157,26)" stroke-width="106" stroke-linejoin="round" d="M 7454,11008 L 7560,11004"/>
        <path fill="none" stroke="rgb(0,157,26)" stroke-width="106" stroke-linejoin="round" d="M 7665,10999 L 7771,10995"/>
        <path fill="none" stroke="rgb(0,157,26)" stroke-width="106" stroke-linejoin="round" d="M 7877,10990 L 7983,10986"/>
        <path fill="none" stroke="rgb(0,157,26)" stroke-width="106" stroke-linejoin="round" d="M 8089,10981 L 8195,10976"/>
        <path fill="none" stroke="rgb(0,157,26)" stroke-width="106" stroke-linejoin="round" d="M 8301,10972 L 8407,10967"/>
        <path fill="none" stroke="rgb(0,157,26)" stroke-width="106" stroke-linejoin="round" d="M 8513,10963 L 8619,10958"/>
        <path fill="none" stroke="rgb(0,157,26)" stroke-width="106" stroke-linejoin="round" d="M 8724,10953 L 8830,10949"/>
        <path fill="none" stroke="rgb(0,157,26)" stroke-width="106" stroke-linejoin="round" d="M 8936,10944 L 9042,10940"/>
        <path fill="none" stroke="rgb(0,157,26)" stroke-width="106" stroke-linejoin="round" d="M 9148,10935 L 9254,10930"/>
        <path fill="none" stroke="rgb(0,157,26)" stroke-width="106" stroke-linejoin="round" d="M 9360,10926 L 9466,10921"/>
        <path fill="none" stroke="rgb(0,157,26)" stroke-width="106" stroke-linejoin="round" d="M 9572,10917 L 9678,10912"/>
        <path fill="none" stroke="rgb(0,157,26)" stroke-width="106" stroke-linejoin="round" d="M 9783,10907 L 9889,10903"/>
        <path fill="none" stroke="rgb(0,157,26)" stroke-width="106" stroke-linejoin="round" d="M 9995,10898 L 10101,10894"/>
        <path fill="none" stroke="rgb(0,157,26)" stroke-width="106" stroke-linejoin="round" d="M 10207,10889 L 10313,10885"/>
        <path fill="none" stroke="rgb(0,157,26)" stroke-width="106" stroke-linejoin="round" d="M 10419,10880 L 10525,10875"/>
        <path fill="none" stroke="rgb(0,157,26)" stroke-width="106" stroke-linejoin="round" d="M 10631,10871 L 10737,10866"/>
        <path fill="none" stroke="rgb(0,157,26)" stroke-width="106" stroke-linejoin="round" d="M 10842,10862 L 10948,10857"/>
        <path fill="none" stroke="rgb(0,157,26)" stroke-width="106" stroke-linejoin="round" d="M 11054,10852 L 11160,10848"/>
        <path fill="none" stroke="rgb(0,157,26)" stroke-width="106" stroke-linejoin="round" d="M 11266,10843 L 11372,10839"/>
        <path fill="none" stroke="rgb(0,157,26)" stroke-width="106" stroke-linejoin="round" d="M 11478,10834 L 11584,10829"/>
        <path fill="none" stroke="rgb(0,157,26)" stroke-width="106" stroke-linejoin="round" d="M 11690,10825 L 11796,10820"/>
        <path fill="none" stroke="rgb(0,157,26)" stroke-width="106" stroke-linejoin="round" d="M 11901,10816 L 12007,10811"/>
        <path fill="none" stroke="rgb(0,157,26)" stroke-width="106" stroke-linejoin="round" d="M 12113,10806 L 12219,10802"/>
        <path fill="none" stroke="rgb(0,157,26)" stroke-width="106" stroke-linejoin="round" d="M 12325,10797 L 12431,10793"/>
        <path fill="none" stroke="rgb(0,157,26)" stroke-width="106" stroke-linejoin="round" d="M 12537,10788 L 12643,10784"/>
        <path fill="none" stroke="rgb(0,157,26)" stroke-width="106" stroke-linejoin="round" d="M 12749,10779 L 12855,10774"/>
        <path fill="none" stroke="rgb(0,157,26)" stroke-width="106" stroke-linejoin="round" d="M 12960,10770 L 13066,10765"/>
        <path fill="none" stroke="rgb(0,157,26)" stroke-width="106" stroke-linejoin="round" d="M 13172,10761 L 13278,10756"/>
        <path fill="none" stroke="rgb(0,157,26)" stroke-width="106" stroke-linejoin="round" d="M 13384,10751 L 13490,10747"/>
        <path fill="none" stroke="rgb(0,157,26)" stroke-width="106" stroke-linejoin="round" d="M 13596,10742 L 13702,10738"/>
       </g>
      </g>
      <g class="com.sun.star.drawing.LineShape">
       <g id="id7">
        <rect class="BoundingBox" stroke="none" fill="none" x="8175" y="10588" width="5876" height="5368"/>
        <path fill="none" stroke="rgb(198,114,207)" stroke-width="159" stroke-linejoin="round" d="M 8255,15875 L 13970,10668"/>
       </g>
      </g>
      <g class="com.sun.star.drawing.CustomShape">
       <g id="id8">
        <rect class="BoundingBox" stroke="none" fill="none" x="10412" y="12698" width="1147" height="1147"/>
        <path fill="rgb(7,74,162)" stroke="none" d="M 11557,13271 C 11557,13371 11531,13470 11480,13557 11430,13644 11358,13716 11271,13766 11184,13817 11085,13843 10985,13843 10885,13843 10786,13817 10699,13766 10612,13716 10540,13644 10490,13557 10439,13470 10413,13371 10413,13271 10413,13171 10439,13072 10490,12985 10540,12898 10612,12826 10699,12776 10786,12725 10885,12699 10985,12699 11085,12699 11184,12725 11271,12776 11358,12826 11430,12898 11480,12985 11531,13072 11557,13171 11557,13271 L 11557,13271 Z"/>
        <path fill="none" stroke="rgb(7,74,162)" d="M 11557,13271 C 11557,13371 11531,13470 11480,13557 11430,13644 11358,13716 11271,13766 11184,13817 11085,13843 10985,13843 10885,13843 10786,13817 10699,13766 10612,13716 10540,13644 10490,13557 10439,13470 10413,13371 10413,13271 10413,13171 10439,13072 10490,12985 10540,12898 10612,12826 10699,12776 10786,12725 10885,12699 10985,12699 11085,12699 11184,12725 11271,12776 11358,12826 11430,12898 11480,12985 11531,13072 11557,13171 11557,13271 Z"/>
       </g>
      </g>
      <g class="com.sun.star.drawing.LineShape">
       <g id="id9">
        <rect class="BoundingBox" stroke="none" fill="none" x="20240" y="10334" width="5876" height="5368"/>
        <path fill="none" stroke="rgb(198,114,207)" stroke-width="159" stroke-linejoin="round" d="M 20320,15621 L 26035,10414"/>
       </g>
      </g>
      <g class="Graphic">
       <title>TexMaths
       </title>
       <desc>14§display§\textcolor{white}{\mathcal{P}}§svg§600§TRUE§
       </desc>
       <g id="id10">
        <rect class="BoundingBox" stroke="none" fill="none" x="10013" y="3048" width="1418" height="1418"/>
        <defs>
         <clipPath id="clip_path_1" clipPathUnits="userSpaceOnUse">
          <path d="M 10013,3048 L 11430,3048 11430,4465 10013,4465 10013,3048 Z"/>
         </clipPath>
        </defs>
        <g clip-path="url(#clip_path_1)">
         <path fill="rgb(255,255,255)" stroke="none" d="M 10686,3048 C 10413,3048 10206,3179 10127,3270 10059,3348 10054,3404 10054,3408 10054,3419 10061,3423 10073,3423 10104,3423 10148,3396 10164,3386 10204,3359 10210,3348 10222,3311 10249,3234 10303,3166 10547,3154 10512,3589 10396,4013 10233,4417 10222,4446 10222,4450 10222,4451 10222,4457 10228,4465 10241,4465 10272,4465 10365,4422 10386,4372 10487,4136 10645,3692 10703,3154 L 10804,3154 C 11040,3154 11266,3245 11266,3438 11266,3583 11126,3854 10751,3866 10711,3868 10690,3868 10635,3902 10601,3926 10585,3947 10585,3959 10585,3972 10597,3972 10622,3972 10974,3972 11430,3674 11430,3355 11430,3135 11169,3048 10945,3048 L 10686,3048 10686,3048 Z"/>
        </g>
       </g>
      </g>
      <g class="Graphic">
       <title>TexMaths
       </title>
       <desc>14§display§\textcolor{white}{\mathcal{P}&apos;}§svg§600§TRUE§
       </desc>
       <g id="id11">
        <rect class="BoundingBox" stroke="none" fill="none" x="25781" y="8362" width="1910" height="1672"/>
        <path fill="rgb(255,255,255)" stroke="none" d="M 26474,8648 C 26221,8648 26028,8770 25955,8854 25892,8926 25886,8978 25886,8982 25886,8993 25894,8996 25904,8996 25933,8996 25974,8971 25989,8962 26027,8937 26032,8926 26043,8892 26068,8820 26118,8757 26345,8746 26312,9151 26204,9545 26053,9920 26043,9947 26043,9951 26043,9953 26043,9958 26048,9965 26061,9965 26089,9965 26176,9926 26195,9879 26289,9660 26436,9246 26490,8746 L 26584,8746 C 26803,8746 27013,8831 27013,9011 27013,9146 26884,9397 26535,9408 26497,9410 26478,9410 26427,9442 26395,9464 26381,9484 26381,9494 26381,9507 26391,9507 26415,9507 26742,9507 27166,9230 27166,8933 27166,8728 26923,8648 26715,8648 L 26474,8648 26474,8648 Z"/>
        <path fill="rgb(255,255,255)" stroke="none" d="M 27611,8539 C 27621,8518 27622,8508 27622,8499 27622,8460 27587,8430 27548,8430 27500,8430 27485,8469 27479,8489 L 27313,9034 C 27312,9036 27307,9053 27307,9054 27307,9069 27346,9082 27356,9082 27365,9082 27366,9079 27375,9060 L 27611,8539 27611,8539 Z"/>
       </g>
      </g>
      <g class="Graphic">
       <title>TexMaths
       </title>
       <desc>14§display§\textcolor{white}{c^*}§svg§600§TRUE§
       </desc>
       <g id="id12">
        <rect class="BoundingBox" stroke="none" fill="none" x="10137" y="14261" width="1548" height="1488"/>
        <defs>
         <clipPath id="clip_path_2" clipPathUnits="userSpaceOnUse">
          <path d="M 10137,14261 L 11684,14261 11684,15748 10137,15748 10137,14261 Z"/>
         </clipPath>
        </defs>
        <g clip-path="url(#clip_path_2)">
         <path fill="rgb(255,255,255)" stroke="none" d="M 10923,14972 C 10891,14972 10864,14972 10836,15000 10804,15030 10800,15063 10800,15077 10800,15125 10836,15147 10874,15147 10931,15147 10985,15099 10985,15020 10985,14923 10891,14849 10750,14849 10482,14849 10218,15133 10218,15413 10218,15591 10334,15748 10540,15748 10824,15748 10991,15538 10991,15514 10991,15502 10979,15488 10967,15488 10957,15488 10953,15492 10941,15508 10784,15704 10568,15704 10544,15704 10419,15704 10365,15607 10365,15488 10365,15407 10405,15214 10473,15091 10534,14978 10643,14893 10752,14893 10820,14893 10895,14919 10923,14972 L 10923,14972 Z"/>
         <path fill="rgb(255,255,255)" stroke="none" d="M 11445,14561 C 11559,14511 11610,14492 11645,14475 11671,14464 11684,14458 11684,14432 11684,14408 11666,14387 11641,14387 11631,14387 11628,14387 11612,14400 L 11423,14526 11444,14321 C 11446,14296 11444,14261 11402,14261 11385,14261 11359,14272 11359,14303 11359,14315 11364,14357 11366,14371 11369,14394 11378,14494 11381,14526 L 11193,14400 C 11180,14392 11175,14387 11163,14387 11138,14387 11120,14408 11120,14432 11120,14460 11136,14467 11149,14472 L 11359,14560 C 11245,14610 11193,14629 11159,14646 11132,14657 11120,14662 11120,14689 11120,14712 11138,14733 11163,14733 11173,14733 11175,14733 11192,14721 L 11381,14594 11359,14818 C 11359,14849 11385,14860 11402,14860 11419,14860 11445,14849 11445,14818 11445,14805 11439,14764 11438,14750 11435,14726 11426,14626 11423,14594 L 11590,14705 C 11626,14733 11628,14733 11641,14733 11666,14733 11684,14712 11684,14689 11684,14661 11667,14654 11655,14649 L 11445,14561 11445,14561 Z"/>
        </g>
       </g>
      </g>
      <g class="com.sun.star.drawing.CustomShape">
       <g id="id13">
        <rect class="BoundingBox" stroke="none" fill="none" x="15365" y="16762" width="1147" height="1147"/>
        <path fill="rgb(198,114,207)" stroke="none" d="M 16510,17335 C 16510,17435 16484,17534 16433,17621 16383,17708 16311,17780 16224,17830 16137,17881 16038,17907 15938,17907 15838,17907 15739,17881 15652,17830 15565,17780 15493,17708 15443,17621 15392,17534 15366,17435 15366,17335 15366,17235 15392,17136 15443,17049 15493,16962 15565,16890 15652,16840 15739,16789 15838,16763 15938,16763 16038,16763 16137,16789 16224,16840 16311,16890 16383,16962 16433,17049 16484,17136 16510,17235 16510,17335 L 16510,17335 Z"/>
        <path fill="none" stroke="rgb(198,114,207)" d="M 16510,17335 C 16510,17435 16484,17534 16433,17621 16383,17708 16311,17780 16224,17830 16137,17881 16038,17907 15938,17907 15838,17907 15739,17881 15652,17830 15565,17780 15493,17708 15443,17621 15392,17534 15366,17435 15366,17335 15366,17235 15392,17136 15443,17049 15493,16962 15565,16890 15652,16840 15739,16789 15838,16763 15938,16763 16038,16763 16137,16789 16224,16840 16311,16890 16383,16962 16433,17049 16484,17136 16510,17235 16510,17335 Z"/>
       </g>
      </g>
      <g class="Graphic">
       <title>TexMaths
       </title>
       <desc>14§display§\textcolor{white}{0}§svg§600§TRUE§
       </desc>
       <g id="id14">
        <rect class="BoundingBox" stroke="none" fill="none" x="16982" y="17474" width="799" height="1196"/>
        <defs>
         <clipPath id="clip_path_3" clipPathUnits="userSpaceOnUse">
          <path d="M 16982,17474 L 17780,17474 17780,18669 16982,18669 16982,17474 Z"/>
         </clipPath>
        </defs>
        <g clip-path="url(#clip_path_3)">
         <path fill="rgb(255,255,255)" stroke="none" d="M 17780,18075 C 17780,17936 17771,17797 17711,17669 17631,17502 17489,17474 17416,17474 17312,17474 17185,17519 17114,17681 17058,17801 17050,17936 17050,18075 17050,18205 17057,18362 17128,18494 17202,18634 17329,18669 17414,18669 17508,18669 17639,18633 17716,18468 17771,18348 17780,18212 17780,18075 L 17780,18075 Z M 17414,18631 C 17346,18631 17244,18587 17213,18421 17194,18316 17194,18157 17194,18054 17194,17943 17194,17828 17208,17735 17240,17528 17371,17512 17414,17512 17471,17512 17586,17543 17619,17715 17636,17813 17636,17945 17636,18054 17636,18184 17636,18303 17617,18414 17591,18579 17492,18631 17414,18631 L 17414,18631 Z"/>
        </g>
       </g>
      </g>
      <g class="com.sun.star.drawing.PolyPolygonShape">
       <g id="id15">
        <rect class="BoundingBox" stroke="none" fill="none" x="2687" y="23924" width="5373" height="11832"/>
        <path fill="rgb(46,236,77)" stroke="none" d="M 7639,24004 L 2767,31269 7979,35675 7639,24004 Z"/>
        <path fill="none" stroke="rgb(0,157,26)" stroke-width="159" stroke-linejoin="round" d="M 7639,24004 L 2767,31269 7979,35675 7639,24004 Z"/>
       </g>
      </g>
      <g class="com.sun.star.drawing.PolyPolygonShape">
       <g id="id16">
        <rect class="BoundingBox" stroke="none" fill="none" x="7667" y="23796" width="6058" height="12079"/>
        <path fill="rgb(198,114,207)" stroke="none" d="M 7979,35794 L 13644,30554 7747,23876 7979,35794 Z"/>
        <path fill="none" stroke="rgb(236,46,215)" stroke-width="159" stroke-linejoin="round" d="M 7979,35794 L 13644,30554 7747,23876 7979,35794 Z"/>
       </g>
      </g>
      <g class="com.sun.star.drawing.LineShape">
       <g id="id17">
        <rect class="BoundingBox" stroke="none" fill="none" x="2487" y="30620" width="11098" height="584"/>
        <path fill="none" stroke="rgb(0,157,26)" stroke-width="106" stroke-linejoin="round" d="M 2540,31149 L 2646,31145"/>
        <path fill="none" stroke="rgb(0,157,26)" stroke-width="106" stroke-linejoin="round" d="M 2752,31140 L 2858,31136"/>
        <path fill="none" stroke="rgb(0,157,26)" stroke-width="106" stroke-linejoin="round" d="M 2964,31131 L 3070,31126"/>
        <path fill="none" stroke="rgb(0,157,26)" stroke-width="106" stroke-linejoin="round" d="M 3175,31122 L 3281,31117"/>
        <path fill="none" stroke="rgb(0,157,26)" stroke-width="106" stroke-linejoin="round" d="M 3387,31113 L 3493,31108"/>
        <path fill="none" stroke="rgb(0,157,26)" stroke-width="106" stroke-linejoin="round" d="M 3599,31104 L 3705,31099"/>
        <path fill="none" stroke="rgb(0,157,26)" stroke-width="106" stroke-linejoin="round" d="M 3811,31094 L 3917,31090"/>
        <path fill="none" stroke="rgb(0,157,26)" stroke-width="106" stroke-linejoin="round" d="M 4023,31085 L 4129,31081"/>
        <path fill="none" stroke="rgb(0,157,26)" stroke-width="106" stroke-linejoin="round" d="M 4234,31076 L 4340,31071"/>
        <path fill="none" stroke="rgb(0,157,26)" stroke-width="106" stroke-linejoin="round" d="M 4446,31067 L 4552,31062"/>
        <path fill="none" stroke="rgb(0,157,26)" stroke-width="106" stroke-linejoin="round" d="M 4658,31058 L 4764,31053"/>
        <path fill="none" stroke="rgb(0,157,26)" stroke-width="106" stroke-linejoin="round" d="M 4870,31048 L 4976,31044"/>
        <path fill="none" stroke="rgb(0,157,26)" stroke-width="106" stroke-linejoin="round" d="M 5082,31039 L 5188,31035"/>
        <path fill="none" stroke="rgb(0,157,26)" stroke-width="106" stroke-linejoin="round" d="M 5293,31030 L 5399,31025"/>
        <path fill="none" stroke="rgb(0,157,26)" stroke-width="106" stroke-linejoin="round" d="M 5505,31021 L 5611,31016"/>
        <path fill="none" stroke="rgb(0,157,26)" stroke-width="106" stroke-linejoin="round" d="M 5717,31012 L 5823,31007"/>
        <path fill="none" stroke="rgb(0,157,26)" stroke-width="106" stroke-linejoin="round" d="M 5929,31003 L 6035,30998"/>
        <path fill="none" stroke="rgb(0,157,26)" stroke-width="106" stroke-linejoin="round" d="M 6141,30993 L 6247,30989"/>
        <path fill="none" stroke="rgb(0,157,26)" stroke-width="106" stroke-linejoin="round" d="M 6352,30984 L 6458,30980"/>
        <path fill="none" stroke="rgb(0,157,26)" stroke-width="106" stroke-linejoin="round" d="M 6564,30975 L 6670,30970"/>
        <path fill="none" stroke="rgb(0,157,26)" stroke-width="106" stroke-linejoin="round" d="M 6776,30966 L 6882,30961"/>
        <path fill="none" stroke="rgb(0,157,26)" stroke-width="106" stroke-linejoin="round" d="M 6988,30957 L 7094,30952"/>
        <path fill="none" stroke="rgb(0,157,26)" stroke-width="106" stroke-linejoin="round" d="M 7200,30947 L 7306,30943"/>
        <path fill="none" stroke="rgb(0,157,26)" stroke-width="106" stroke-linejoin="round" d="M 7411,30938 L 7517,30934"/>
        <path fill="none" stroke="rgb(0,157,26)" stroke-width="106" stroke-linejoin="round" d="M 7623,30929 L 7729,30925"/>
        <path fill="none" stroke="rgb(0,157,26)" stroke-width="106" stroke-linejoin="round" d="M 7835,30920 L 7941,30915"/>
        <path fill="none" stroke="rgb(0,157,26)" stroke-width="106" stroke-linejoin="round" d="M 8047,30911 L 8153,30906"/>
        <path fill="none" stroke="rgb(0,157,26)" stroke-width="106" stroke-linejoin="round" d="M 8259,30902 L 8365,30897"/>
        <path fill="none" stroke="rgb(0,157,26)" stroke-width="106" stroke-linejoin="round" d="M 8470,30892 L 8576,30888"/>
        <path fill="none" stroke="rgb(0,157,26)" stroke-width="106" stroke-linejoin="round" d="M 8682,30883 L 8788,30879"/>
        <path fill="none" stroke="rgb(0,157,26)" stroke-width="106" stroke-linejoin="round" d="M 8894,30874 L 9000,30869"/>
        <path fill="none" stroke="rgb(0,157,26)" stroke-width="106" stroke-linejoin="round" d="M 9106,30865 L 9212,30860"/>
        <path fill="none" stroke="rgb(0,157,26)" stroke-width="106" stroke-linejoin="round" d="M 9318,30856 L 9424,30851"/>
        <path fill="none" stroke="rgb(0,157,26)" stroke-width="106" stroke-linejoin="round" d="M 9529,30846 L 9635,30842"/>
        <path fill="none" stroke="rgb(0,157,26)" stroke-width="106" stroke-linejoin="round" d="M 9741,30837 L 9847,30833"/>
        <path fill="none" stroke="rgb(0,157,26)" stroke-width="106" stroke-linejoin="round" d="M 9953,30828 L 10059,30824"/>
        <path fill="none" stroke="rgb(0,157,26)" stroke-width="106" stroke-linejoin="round" d="M 10165,30819 L 10271,30814"/>
        <path fill="none" stroke="rgb(0,157,26)" stroke-width="106" stroke-linejoin="round" d="M 10377,30810 L 10483,30805"/>
        <path fill="none" stroke="rgb(0,157,26)" stroke-width="106" stroke-linejoin="round" d="M 10588,30801 L 10694,30796"/>
        <path fill="none" stroke="rgb(0,157,26)" stroke-width="106" stroke-linejoin="round" d="M 10800,30791 L 10906,30787"/>
        <path fill="none" stroke="rgb(0,157,26)" stroke-width="106" stroke-linejoin="round" d="M 11012,30782 L 11118,30778"/>
        <path fill="none" stroke="rgb(0,157,26)" stroke-width="106" stroke-linejoin="round" d="M 11224,30773 L 11330,30768"/>
        <path fill="none" stroke="rgb(0,157,26)" stroke-width="106" stroke-linejoin="round" d="M 11436,30764 L 11542,30759"/>
        <path fill="none" stroke="rgb(0,157,26)" stroke-width="106" stroke-linejoin="round" d="M 11647,30755 L 11753,30750"/>
        <path fill="none" stroke="rgb(0,157,26)" stroke-width="106" stroke-linejoin="round" d="M 11859,30745 L 11965,30741"/>
        <path fill="none" stroke="rgb(0,157,26)" stroke-width="106" stroke-linejoin="round" d="M 12071,30736 L 12177,30732"/>
        <path fill="none" stroke="rgb(0,157,26)" stroke-width="106" stroke-linejoin="round" d="M 12283,30727 L 12389,30723"/>
        <path fill="none" stroke="rgb(0,157,26)" stroke-width="106" stroke-linejoin="round" d="M 12495,30718 L 12601,30713"/>
        <path fill="none" stroke="rgb(0,157,26)" stroke-width="106" stroke-linejoin="round" d="M 12706,30709 L 12812,30704"/>
        <path fill="none" stroke="rgb(0,157,26)" stroke-width="106" stroke-linejoin="round" d="M 12918,30700 L 13024,30695"/>
        <path fill="none" stroke="rgb(0,157,26)" stroke-width="106" stroke-linejoin="round" d="M 13130,30690 L 13236,30686"/>
        <path fill="none" stroke="rgb(0,157,26)" stroke-width="106" stroke-linejoin="round" d="M 13342,30681 L 13448,30677"/>
       </g>
      </g>
      <g class="com.sun.star.drawing.LineShape">
       <g id="id18">
        <rect class="BoundingBox" stroke="none" fill="none" x="7921" y="30527" width="5876" height="5368"/>
        <path fill="none" stroke="rgb(198,114,207)" stroke-width="159" stroke-linejoin="round" d="M 8001,35814 L 13716,30607"/>
       </g>
      </g>
      <g class="Graphic">
       <title>TexMaths
       </title>
       <desc>14§display§\textcolor{white}{\mathcal{P}}§svg§600§TRUE§
       </desc>
       <g id="id19">
        <rect class="BoundingBox" stroke="none" fill="none" x="3302" y="24364" width="1418" height="1418"/>
        <defs>
         <clipPath id="clip_path_4" clipPathUnits="userSpaceOnUse">
          <path d="M 3302,24364 L 4719,24364 4719,25781 3302,25781 3302,24364 Z"/>
         </clipPath>
        </defs>
        <g clip-path="url(#clip_path_4)">
         <path fill="rgb(255,255,255)" stroke="none" d="M 3975,24364 C 3702,24364 3495,24495 3416,24586 3348,24664 3343,24720 3343,24724 3343,24735 3350,24739 3362,24739 3393,24739 3437,24712 3453,24702 3493,24675 3499,24664 3511,24627 3538,24550 3592,24482 3836,24470 3801,24905 3685,25329 3522,25733 3511,25762 3511,25766 3511,25767 3511,25773 3517,25781 3530,25781 3561,25781 3654,25738 3675,25688 3776,25452 3934,25008 3992,24470 L 4093,24470 C 4329,24470 4555,24561 4555,24754 4555,24899 4415,25170 4040,25182 4000,25184 3979,25184 3924,25218 3890,25242 3874,25263 3874,25275 3874,25288 3886,25288 3911,25288 4263,25288 4719,24990 4719,24671 4719,24451 4458,24364 4234,24364 L 3975,24364 3975,24364 Z"/>
        </g>
       </g>
      </g>
      <g class="Graphic">
       <title>TexMaths
       </title>
       <desc>14§display§\textcolor{white}{c^*}§svg§600§TRUE§
       </desc>
       <g id="id20">
        <rect class="BoundingBox" stroke="none" fill="none" x="8509" y="27305" width="1548" height="1488"/>
        <defs>
         <clipPath id="clip_path_5" clipPathUnits="userSpaceOnUse">
          <path d="M 8509,27305 L 10056,27305 10056,28792 8509,28792 8509,27305 Z"/>
         </clipPath>
        </defs>
        <g clip-path="url(#clip_path_5)">
         <path fill="rgb(255,255,255)" stroke="none" d="M 9295,28016 C 9263,28016 9236,28016 9208,28044 9176,28074 9172,28107 9172,28121 9172,28169 9208,28191 9246,28191 9303,28191 9357,28143 9357,28064 9357,27967 9263,27893 9122,27893 8854,27893 8590,28177 8590,28457 8590,28635 8706,28792 8912,28792 9196,28792 9363,28582 9363,28558 9363,28546 9351,28532 9339,28532 9329,28532 9325,28536 9313,28552 9156,28748 8940,28748 8916,28748 8791,28748 8737,28651 8737,28532 8737,28451 8777,28258 8845,28135 8906,28022 9015,27937 9124,27937 9192,27937 9267,27963 9295,28016 L 9295,28016 Z"/>
         <path fill="rgb(255,255,255)" stroke="none" d="M 9817,27605 C 9931,27555 9982,27536 10017,27519 10043,27508 10056,27502 10056,27476 10056,27452 10038,27431 10013,27431 10003,27431 10000,27431 9984,27444 L 9795,27570 9816,27365 C 9818,27340 9816,27305 9774,27305 9757,27305 9731,27316 9731,27347 9731,27359 9736,27401 9738,27415 9741,27438 9750,27538 9753,27570 L 9565,27444 C 9552,27436 9547,27431 9535,27431 9510,27431 9492,27452 9492,27476 9492,27504 9508,27511 9521,27516 L 9731,27604 C 9617,27654 9565,27673 9531,27690 9504,27701 9492,27706 9492,27733 9492,27756 9510,27777 9535,27777 9545,27777 9547,27777 9564,27765 L 9753,27638 9731,27862 C 9731,27893 9757,27904 9774,27904 9791,27904 9817,27893 9817,27862 9817,27849 9811,27808 9810,27794 9807,27770 9798,27670 9795,27638 L 9962,27749 C 9998,27777 10000,27777 10013,27777 10038,27777 10056,27756 10056,27733 10056,27705 10039,27698 10027,27693 L 9817,27605 9817,27605 Z"/>
        </g>
       </g>
      </g>
      <g class="Graphic">
       <title>TexMaths
       </title>
       <desc>14§display§\textcolor{white}{0}§svg§600§TRUE§
       </desc>
       <g id="id21">
        <rect class="BoundingBox" stroke="none" fill="none" x="17871" y="29920" width="799" height="1196"/>
        <defs>
         <clipPath id="clip_path_6" clipPathUnits="userSpaceOnUse">
          <path d="M 17871,29920 L 18669,29920 18669,31115 17871,31115 17871,29920 Z"/>
         </clipPath>
        </defs>
        <g clip-path="url(#clip_path_6)">
         <path fill="rgb(255,255,255)" stroke="none" d="M 18669,30521 C 18669,30382 18660,30243 18600,30115 18520,29948 18378,29920 18305,29920 18201,29920 18074,29965 18003,30127 17947,30247 17939,30382 17939,30521 17939,30651 17946,30808 18017,30940 18091,31080 18218,31115 18303,31115 18397,31115 18528,31079 18605,30914 18660,30794 18669,30658 18669,30521 L 18669,30521 Z M 18303,31077 C 18235,31077 18133,31033 18102,30867 18083,30762 18083,30603 18083,30500 18083,30389 18083,30274 18097,30181 18129,29974 18260,29958 18303,29958 18360,29958 18475,29989 18508,30161 18525,30259 18525,30391 18525,30500 18525,30630 18525,30749 18506,30860 18480,31025 18381,31077 18303,31077 L 18303,31077 Z"/>
        </g>
       </g>
      </g>
      <g class="com.sun.star.drawing.LineShape">
       <g id="id22">
        <rect class="BoundingBox" stroke="none" fill="none" x="9726" y="29665" width="6965" height="234"/>
        <path fill="none" stroke="rgb(7,74,162)" stroke-width="106" stroke-linejoin="round" d="M 9779,29845 L 9885,29843"/>
        <path fill="none" stroke="rgb(7,74,162)" stroke-width="106" stroke-linejoin="round" d="M 9991,29841 L 10097,29839"/>
        <path fill="none" stroke="rgb(7,74,162)" stroke-width="106" stroke-linejoin="round" d="M 10203,29837 L 10309,29835"/>
        <path fill="none" stroke="rgb(7,74,162)" stroke-width="106" stroke-linejoin="round" d="M 10415,29833 L 10521,29831"/>
        <path fill="none" stroke="rgb(7,74,162)" stroke-width="106" stroke-linejoin="round" d="M 10627,29829 L 10733,29827"/>
        <path fill="none" stroke="rgb(7,74,162)" stroke-width="106" stroke-linejoin="round" d="M 10839,29825 L 10945,29823"/>
        <path fill="none" stroke="rgb(7,74,162)" stroke-width="106" stroke-linejoin="round" d="M 11051,29821 L 11157,29819"/>
        <path fill="none" stroke="rgb(7,74,162)" stroke-width="106" stroke-linejoin="round" d="M 11263,29818 L 11369,29816"/>
        <path fill="none" stroke="rgb(7,74,162)" stroke-width="106" stroke-linejoin="round" d="M 11475,29814 L 11581,29812"/>
        <path fill="none" stroke="rgb(7,74,162)" stroke-width="106" stroke-linejoin="round" d="M 11687,29810 L 11793,29808"/>
        <path fill="none" stroke="rgb(7,74,162)" stroke-width="106" stroke-linejoin="round" d="M 11899,29806 L 12005,29804"/>
        <path fill="none" stroke="rgb(7,74,162)" stroke-width="106" stroke-linejoin="round" d="M 12111,29802 L 12217,29800"/>
        <path fill="none" stroke="rgb(7,74,162)" stroke-width="106" stroke-linejoin="round" d="M 12323,29798 L 12429,29796"/>
        <path fill="none" stroke="rgb(7,74,162)" stroke-width="106" stroke-linejoin="round" d="M 12535,29794 L 12641,29792"/>
        <path fill="none" stroke="rgb(7,74,162)" stroke-width="106" stroke-linejoin="round" d="M 12746,29790 L 12852,29788"/>
        <path fill="none" stroke="rgb(7,74,162)" stroke-width="106" stroke-linejoin="round" d="M 12958,29786 L 13064,29784"/>
        <path fill="none" stroke="rgb(7,74,162)" stroke-width="106" stroke-linejoin="round" d="M 13170,29782 L 13276,29780"/>
        <path fill="none" stroke="rgb(7,74,162)" stroke-width="106" stroke-linejoin="round" d="M 13382,29778 L 13488,29776"/>
        <path fill="none" stroke="rgb(7,74,162)" stroke-width="106" stroke-linejoin="round" d="M 13594,29774 L 13700,29772"/>
        <path fill="none" stroke="rgb(7,74,162)" stroke-width="106" stroke-linejoin="round" d="M 13806,29770 L 13912,29768"/>
        <path fill="none" stroke="rgb(7,74,162)" stroke-width="106" stroke-linejoin="round" d="M 14018,29766 L 14124,29765"/>
        <path fill="none" stroke="rgb(7,74,162)" stroke-width="106" stroke-linejoin="round" d="M 14230,29763 L 14336,29761"/>
        <path fill="none" stroke="rgb(7,74,162)" stroke-width="106" stroke-linejoin="round" d="M 14442,29759 L 14548,29757"/>
        <path fill="none" stroke="rgb(7,74,162)" stroke-width="106" stroke-linejoin="round" d="M 14654,29755 L 14760,29753"/>
        <path fill="none" stroke="rgb(7,74,162)" stroke-width="106" stroke-linejoin="round" d="M 14866,29751 L 14972,29749"/>
        <path fill="none" stroke="rgb(7,74,162)" stroke-width="106" stroke-linejoin="round" d="M 15078,29747 L 15184,29745"/>
        <path fill="none" stroke="rgb(7,74,162)" stroke-width="106" stroke-linejoin="round" d="M 15290,29743 L 15396,29741"/>
        <path fill="none" stroke="rgb(7,74,162)" stroke-width="106" stroke-linejoin="round" d="M 15502,29739 L 15608,29737"/>
        <path fill="none" stroke="rgb(7,74,162)" stroke-width="106" stroke-linejoin="round" d="M 15714,29735 L 15820,29733"/>
        <path fill="none" stroke="rgb(7,74,162)" stroke-width="106" stroke-linejoin="round" d="M 15926,29731 L 16032,29729"/>
        <path fill="none" stroke="rgb(7,74,162)" stroke-width="106" stroke-linejoin="round" d="M 16138,29727 L 16244,29725"/>
        <path fill="none" stroke="rgb(7,74,162)" stroke-width="106" stroke-linejoin="round" d="M 16350,29723 L 16456,29721"/>
        <path fill="none" stroke="rgb(7,74,162)" stroke-width="106" stroke-linejoin="round" d="M 16562,29719 L 16637,29718"/>
       </g>
      </g>
      <g class="com.sun.star.drawing.CustomShape">
       <g id="id23">
        <rect class="BoundingBox" stroke="none" fill="none" x="9142" y="29208" width="1147" height="1147"/>
        <path fill="rgb(7,74,162)" stroke="none" d="M 10287,29781 C 10287,29881 10261,29980 10210,30067 10160,30154 10088,30226 10001,30276 9914,30327 9815,30353 9715,30353 9615,30353 9516,30327 9429,30276 9342,30226 9270,30154 9220,30067 9169,29980 9143,29881 9143,29781 9143,29681 9169,29582 9220,29495 9270,29408 9342,29336 9429,29286 9516,29235 9615,29209 9715,29209 9815,29209 9914,29235 10001,29286 10088,29336 10160,29408 10210,29495 10261,29582 10287,29681 10287,29781 L 10287,29781 Z"/>
        <path fill="none" stroke="rgb(7,74,162)" d="M 10287,29781 C 10287,29881 10261,29980 10210,30067 10160,30154 10088,30226 10001,30276 9914,30327 9815,30353 9715,30353 9615,30353 9516,30327 9429,30276 9342,30226 9270,30154 9220,30067 9169,29980 9143,29881 9143,29781 9143,29681 9169,29582 9220,29495 9270,29408 9342,29336 9429,29286 9516,29235 9615,29209 9715,29209 9815,29209 9914,29235 10001,29286 10088,29336 10160,29408 10210,29495 10261,29582 10287,29681 10287,29781 Z"/>
       </g>
      </g>
      <g class="com.sun.star.drawing.CustomShape">
       <g id="id24">
        <rect class="BoundingBox" stroke="none" fill="none" x="16254" y="29208" width="1147" height="1147"/>
        <path fill="rgb(198,114,207)" stroke="none" d="M 17399,29781 C 17399,29881 17373,29980 17322,30067 17272,30154 17200,30226 17113,30276 17026,30327 16927,30353 16827,30353 16727,30353 16628,30327 16541,30276 16454,30226 16382,30154 16332,30067 16281,29980 16255,29881 16255,29781 16255,29681 16281,29582 16332,29495 16382,29408 16454,29336 16541,29286 16628,29235 16727,29209 16827,29209 16927,29209 17026,29235 17113,29286 17200,29336 17272,29408 17322,29495 17373,29582 17399,29681 17399,29781 L 17399,29781 Z"/>
        <path fill="none" stroke="rgb(198,114,207)" d="M 17399,29781 C 17399,29881 17373,29980 17322,30067 17272,30154 17200,30226 17113,30276 17026,30327 16927,30353 16827,30353 16727,30353 16628,30327 16541,30276 16454,30226 16382,30154 16332,30067 16281,29980 16255,29881 16255,29781 16255,29681 16281,29582 16332,29495 16382,29408 16454,29336 16541,29286 16628,29235 16727,29209 16827,29209 16927,29209 17026,29235 17113,29286 17200,29336 17272,29408 17322,29495 17373,29582 17399,29681 17399,29781 Z"/>
       </g>
      </g>
      <g class="com.sun.star.drawing.PolyPolygonShape">
       <g id="id25">
        <rect class="BoundingBox" stroke="none" fill="none" x="21383" y="24050" width="6058" height="12079"/>
        <path fill="rgb(198,114,207)" stroke="none" d="M 21695,36048 L 27360,30808 21463,24130 21695,36048 Z"/>
        <path fill="none" stroke="rgb(236,46,215)" stroke-width="159" stroke-linejoin="round" d="M 21695,36048 L 27360,30808 21463,24130 21695,36048 Z"/>
       </g>
      </g>
      <g class="com.sun.star.drawing.LineShape">
       <g id="id26">
        <rect class="BoundingBox" stroke="none" fill="none" x="21637" y="30781" width="5876" height="5368"/>
        <path fill="none" stroke="rgb(198,114,207)" stroke-width="159" stroke-linejoin="round" d="M 21717,36068 L 27432,30861"/>
       </g>
      </g>
      <g class="Graphic">
       <title>TexMaths
       </title>
       <desc>14§display§\textcolor{white}{\mathcal{P}&apos;}§svg§600§TRUE§
       </desc>
       <g id="id27">
        <rect class="BoundingBox" stroke="none" fill="none" x="24511" y="24511" width="1910" height="1672"/>
        <path fill="rgb(255,255,255)" stroke="none" d="M 25204,24797 C 24951,24797 24758,24919 24685,25003 24622,25075 24616,25127 24616,25131 24616,25142 24624,25145 24634,25145 24663,25145 24704,25120 24719,25111 24757,25086 24762,25075 24773,25041 24798,24969 24848,24906 25075,24895 25042,25300 24934,25694 24783,26069 24773,26096 24773,26100 24773,26102 24773,26107 24778,26114 24791,26114 24819,26114 24906,26075 24925,26028 25019,25809 25166,25395 25220,24895 L 25314,24895 C 25533,24895 25743,24980 25743,25160 25743,25295 25614,25546 25265,25557 25227,25559 25208,25559 25157,25591 25125,25613 25111,25633 25111,25643 25111,25656 25121,25656 25145,25656 25472,25656 25896,25379 25896,25082 25896,24877 25653,24797 25445,24797 L 25204,24797 25204,24797 Z"/>
        <path fill="rgb(255,255,255)" stroke="none" d="M 26341,24688 C 26351,24667 26352,24657 26352,24648 26352,24609 26317,24579 26278,24579 26230,24579 26215,24618 26209,24638 L 26043,25183 C 26042,25185 26037,25202 26037,25203 26037,25218 26076,25231 26086,25231 26095,25231 26096,25228 26105,25209 L 26341,24688 26341,24688 Z"/>
       </g>
      </g>
     </g>
    </g>
   </g>
  </g>
 </g>
</svg>