<?xml version="1.0" encoding="UTF-8"?>
<!DOCTYPE svg PUBLIC "-//W3C//DTD SVG 1.1//EN" "http://www.w3.org/Graphics/SVG/1.1/DTD/svg11.dtd">
<svg version="1.2" width="203.2mm" height="203.2mm" viewBox="0 0 20320 20320" preserveAspectRatio="xMidYMid" fill-rule="evenodd" stroke-width="28.222" stroke-linejoin="round" xmlns="http://www.w3.org/2000/svg" xmlns:ooo="http://xml.openoffice.org/svg/export" xmlns:xlink="http://www.w3.org/1999/xlink" xmlns:presentation="http://sun.com/xmlns/staroffice/presentation" xmlns:smil="http://www.w3.org/2001/SMIL20/" xmlns:anim="urn:oasis:names:tc:opendocument:xmlns:animation:1.0" xml:space="preserve">
 <defs class="ClipPathGroup">
  <clipPath id="presentation_clip_path" clipPathUnits="userSpaceOnUse">
   <rect x="0" y="0" width="20320" height="20320"/>
  </clipPath>
  <clipPath id="presentation_clip_path_shrink" clipPathUnits="userSpaceOnUse">
   <rect x="20" y="20" width="20280" height="20280"/>
  </clipPath>
 </defs>
 <defs class="TextShapeIndex">
  <g ooo:slide="id1" ooo:id-list="id3 id4 id5 id6 id7 id8 id9 id10 id11 id12 id13 id14 id15 id16 id17 id18 id19 id20 id21"/>
 </defs>
 <defs class="EmbeddedBulletChars">
  <g id="bullet-char-template-57356" transform="scale(0.00048828125,-0.00048828125)">
   <path d="M 580,1141 L 1163,571 580,0 -4,571 580,1141 Z"/>
  </g>
  <g id="bullet-char-template-57354" transform="scale(0.00048828125,-0.00048828125)">
   <path d="M 8,1128 L 1137,1128 1137,0 8,0 8,1128 Z"/>
  </g>
  <g id="bullet-char-template-10146" transform="scale(0.00048828125,-0.00048828125)">
   <path d="M 174,0 L 602,739 174,1481 1456,739 174,0 Z M 1358,739 L 309,1346 659,739 1358,739 Z"/>
  </g>
  <g id="bullet-char-template-10132" transform="scale(0.00048828125,-0.00048828125)">
   <path d="M 2015,739 L 1276,0 717,0 1260,543 174,543 174,936 1260,936 717,1481 1274,1481 2015,739 Z"/>
  </g>
  <g id="bullet-char-template-10007" transform="scale(0.00048828125,-0.00048828125)">
   <path d="M 0,-2 C -7,14 -16,27 -25,37 L 356,567 C 262,823 215,952 215,954 215,979 228,992 255,992 264,992 276,990 289,987 310,991 331,999 354,1012 L 381,999 492,748 772,1049 836,1024 860,1049 C 881,1039 901,1025 922,1006 886,937 835,863 770,784 769,783 710,716 594,584 L 774,223 C 774,196 753,168 711,139 L 727,119 C 717,90 699,76 672,76 641,76 570,178 457,381 L 164,-76 C 142,-110 111,-127 72,-127 30,-127 9,-110 8,-76 1,-67 -2,-52 -2,-32 -2,-23 -1,-13 0,-2 Z"/>
  </g>
  <g id="bullet-char-template-10004" transform="scale(0.00048828125,-0.00048828125)">
   <path d="M 285,-33 C 182,-33 111,30 74,156 52,228 41,333 41,471 41,549 55,616 82,672 116,743 169,778 240,778 293,778 328,747 346,684 L 369,508 C 377,444 397,411 428,410 L 1163,1116 C 1174,1127 1196,1133 1229,1133 1271,1133 1292,1118 1292,1087 L 1292,965 C 1292,929 1282,901 1262,881 L 442,47 C 390,-6 338,-33 285,-33 Z"/>
  </g>
  <g id="bullet-char-template-9679" transform="scale(0.00048828125,-0.00048828125)">
   <path d="M 813,0 C 632,0 489,54 383,161 276,268 223,411 223,592 223,773 276,916 383,1023 489,1130 632,1184 813,1184 992,1184 1136,1130 1245,1023 1353,916 1407,772 1407,592 1407,412 1353,268 1245,161 1136,54 992,0 813,0 Z"/>
  </g>
  <g id="bullet-char-template-8226" transform="scale(0.00048828125,-0.00048828125)">
   <path d="M 346,457 C 273,457 209,483 155,535 101,586 74,649 74,723 74,796 101,859 155,911 209,963 273,989 346,989 419,989 480,963 531,910 582,859 608,796 608,723 608,648 583,586 532,535 482,483 420,457 346,457 Z"/>
  </g>
  <g id="bullet-char-template-8211" transform="scale(0.00048828125,-0.00048828125)">
   <path d="M -4,459 L 1135,459 1135,606 -4,606 -4,459 Z"/>
  </g>
  <g id="bullet-char-template-61548" transform="scale(0.00048828125,-0.00048828125)">
   <path d="M 173,740 C 173,903 231,1043 346,1159 462,1274 601,1332 765,1332 928,1332 1067,1274 1183,1159 1299,1043 1357,903 1357,740 1357,577 1299,437 1183,322 1067,206 928,148 765,148 601,148 462,206 346,322 231,437 173,577 173,740 Z"/>
  </g>
 </defs>
 <g>
  <g id="id2" class="Master_Slide">
   <g id="bg-id2" class="Background"/>
   <g id="bo-id2" class="BackgroundObjects"/>
  </g>
 </g>
 <g class="SlideGroup">
  <g>
   <g id="container-id1">
    <g id="id1" class="Slide" clip-path="url(#presentation_clip_path)">
     <g class="Page">
      <g class="com.sun.star.drawing.CustomShape">
       <g id="id3">
        <rect class="BoundingBox" stroke="none" fill="none" x="-161" y="-129" width="20482" height="20450"/>
        <path fill="rgb(25,25,25)" stroke="none" d="M 10080,20319 L -160,20319 -160,-128 20319,-128 20319,20319 10080,20319 Z"/>
        <path fill="none" stroke="rgb(25,25,25)" d="M 10080,20319 L -160,20319 -160,-128 20319,-128 20319,20319 10080,20319 Z"/>
       </g>
      </g>
      <g class="com.sun.star.drawing.CustomShape">
       <g id="id4">
        <rect class="BoundingBox" stroke="none" fill="none" x="4003" y="1230" width="3513" height="3259"/>
        <path fill="rgb(89,131,176)" stroke="none" d="M 7474,2859 C 7474,3138 7395,3412 7244,3653 7094,3894 6877,4095 6617,4234 6356,4374 6060,4447 5759,4447 5458,4447 5162,4374 4902,4234 4641,4095 4424,3894 4274,3653 4123,3412 4044,3138 4044,2859 4044,2580 4123,2306 4274,2065 4424,1824 4641,1623 4901,1484 5162,1344 5458,1271 5759,1271 6060,1271 6356,1344 6616,1484 6877,1623 7094,1824 7244,2065 7395,2306 7474,2580 7474,2859 L 7474,2859 Z"/>
        <path fill="none" stroke="rgb(89,131,176)" stroke-width="81" stroke-linejoin="round" d="M 7474,2859 C 7474,3138 7395,3412 7244,3653 7094,3894 6877,4095 6617,4234 6356,4374 6060,4447 5759,4447 5458,4447 5162,4374 4902,4234 4641,4095 4424,3894 4274,3653 4123,3412 4044,3138 4044,2859 4044,2580 4123,2306 4274,2065 4424,1824 4641,1623 4901,1484 5162,1344 5458,1271 5759,1271 6060,1271 6356,1344 6616,1484 6877,1623 7094,1824 7244,2065 7395,2306 7474,2580 7474,2859 L 7474,2859 Z"/>
       </g>
      </g>
      <g class="com.sun.star.drawing.CustomShape">
       <g id="id5">
        <rect class="BoundingBox" stroke="none" fill="none" x="12011" y="964" width="4298" height="3790"/>
        <path fill="rgb(129,212,26)" stroke="none" d="M 14160,4700 L 12064,4700 12064,1017 16255,1017 16255,4700 14160,4700 Z"/>
        <path fill="none" stroke="rgb(129,212,26)" stroke-width="106" stroke-linejoin="round" d="M 14160,4700 L 12064,4700 12064,1017 16255,1017 16255,4700 14160,4700 Z"/>
       </g>
      </g>
      <g class="com.sun.star.drawing.CustomShape">
       <g id="id6">
        <rect class="BoundingBox" stroke="none" fill="none" x="2680" y="11551" width="4325" height="3952"/>
        <path fill="rgb(129,212,26)" stroke="none" d="M 4842,15502 L 2680,15502 2680,11551 7004,11551 7004,15502 4842,15502 Z"/>
       </g>
      </g>
      <g class="com.sun.star.drawing.CustomShape">
       <g id="id7">
        <rect class="BoundingBox" stroke="none" fill="none" x="882" y="9906" width="3550" height="3295"/>
        <path fill="rgb(89,131,176)" fill-opacity="0.522" stroke="rgb(255,255,255)" stroke-opacity="0.522" d="M 4431,11553 C 4431,11842 4349,12125 4193,12376 4038,12626 3814,12834 3544,12978 3274,13123 2968,13199 2657,13199 2345,13199 2039,13123 1769,12978 1499,12834 1275,12626 1120,12376 964,12125 882,11842 882,11553 882,11263 964,10980 1120,10729 1275,10479 1499,10271 1769,10127 2039,9982 2345,9906 2656,9906 2968,9906 3274,9982 3544,10127 3814,10271 4038,10479 4193,10729 4349,10980 4431,11263 4431,11552 L 4431,11553 Z"/>
       </g>
      </g>
      <g class="com.sun.star.drawing.CustomShape">
       <g id="id8">
        <rect class="BoundingBox" stroke="none" fill="none" x="3153" y="9908" width="3551" height="3295"/>
        <path fill="rgb(89,131,176)" fill-opacity="0.522" stroke="rgb(255,255,255)" stroke-opacity="0.522" d="M 6703,11555 C 6703,11844 6621,12127 6465,12378 6310,12628 6086,12836 5816,12980 5546,13125 5240,13201 4929,13201 4617,13201 4311,13125 4041,12980 3771,12836 3547,12628 3392,12378 3236,12127 3154,11844 3154,11555 3154,11265 3236,10982 3392,10731 3547,10481 3771,10273 4041,10129 4311,9984 4617,9908 4928,9908 5240,9908 5546,9984 5816,10129 6086,10273 6310,10481 6465,10731 6621,10982 6703,11265 6703,11554 L 6703,11555 Z"/>
       </g>
      </g>
      <g class="com.sun.star.drawing.CustomShape">
       <g id="id9">
        <rect class="BoundingBox" stroke="none" fill="none" x="5249" y="9908" width="3550" height="3296"/>
        <path fill="rgb(89,131,176)" fill-opacity="0.522" stroke="rgb(255,255,255)" stroke-opacity="0.522" d="M 8798,11555 C 8798,11844 8716,12128 8560,12379 8405,12629 8181,12837 7911,12981 7641,13126 7335,13202 7024,13202 6713,13202 6407,13126 6137,12981 5867,12837 5643,12629 5488,12379 5332,12128 5250,11844 5250,11555 5250,11266 5332,10982 5488,10732 5643,10481 5867,10273 6137,10129 6407,9984 6713,9908 7024,9908 7335,9908 7641,9984 7911,10129 8181,10273 8405,10481 8560,10731 8716,10982 8798,11266 8798,11555 L 8798,11555 Z"/>
       </g>
      </g>
      <g class="com.sun.star.drawing.CustomShape">
       <g id="id10">
        <rect class="BoundingBox" stroke="none" fill="none" x="5212" y="11592" width="3551" height="3294"/>
        <path fill="rgb(89,131,176)" fill-opacity="0.522" stroke="rgb(255,255,255)" stroke-opacity="0.522" d="M 8762,13239 C 8762,13528 8680,13811 8524,14062 8369,14312 8145,14520 7875,14664 7605,14809 7299,14885 6987,14885 6676,14885 6370,14809 6100,14664 5830,14520 5606,14312 5451,14062 5295,13811 5213,13528 5213,13239 5213,12949 5295,12666 5451,12415 5606,12165 5830,11957 6100,11813 6370,11668 6676,11592 6987,11592 7299,11592 7605,11668 7875,11813 8145,11957 8369,12165 8524,12415 8680,12666 8762,12949 8762,13238 L 8762,13239 Z"/>
       </g>
      </g>
      <g class="com.sun.star.drawing.CustomShape">
       <g id="id11">
        <rect class="BoundingBox" stroke="none" fill="none" x="5252" y="13809" width="3551" height="3295"/>
        <path fill="rgb(89,131,176)" fill-opacity="0.522" stroke="rgb(255,255,255)" stroke-opacity="0.522" d="M 8802,15456 C 8802,15745 8720,16029 8564,16280 8409,16530 8185,16738 7915,16882 7645,17027 7339,17103 7027,17103 6716,17103 6410,17027 6140,16882 5870,16738 5646,16530 5491,16280 5335,16029 5253,15745 5253,15456 5253,15167 5335,14883 5491,14633 5646,14382 5870,14174 6140,14030 6410,13885 6716,13809 7027,13809 7339,13809 7645,13885 7915,14030 8185,14174 8409,14382 8564,14632 8720,14883 8802,15167 8802,15456 L 8802,15456 Z"/>
       </g>
      </g>
      <g class="com.sun.star.drawing.CustomShape">
       <g id="id12">
        <rect class="BoundingBox" stroke="none" fill="none" x="883" y="13882" width="3550" height="3294"/>
        <path fill="rgb(89,131,176)" fill-opacity="0.522" stroke="rgb(255,255,255)" stroke-opacity="0.522" d="M 4432,15529 C 4432,15818 4350,16101 4194,16352 4039,16602 3815,16810 3545,16954 3275,17099 2969,17175 2658,17175 2346,17175 2040,17099 1770,16954 1500,16810 1276,16602 1121,16352 965,16101 883,15818 883,15529 883,15239 965,14956 1121,14705 1276,14455 1500,14247 1770,14103 2040,13958 2346,13882 2657,13882 2969,13882 3275,13958 3545,14103 3815,14247 4039,14455 4194,14705 4350,14956 4432,15239 4432,15528 L 4432,15529 Z"/>
       </g>
      </g>
      <g class="com.sun.star.drawing.CustomShape">
       <g id="id13">
        <rect class="BoundingBox" stroke="none" fill="none" x="3154" y="13884" width="3549" height="3295"/>
        <path fill="rgb(89,131,176)" fill-opacity="0.522" stroke="rgb(255,255,255)" stroke-opacity="0.522" d="M 6702,15531 C 6702,15820 6620,16103 6464,16354 6309,16604 6085,16812 5815,16956 5545,17101 5239,17177 4928,17177 4617,17177 4311,17101 4041,16956 3771,16812 3547,16604 3392,16354 3236,16103 3154,15820 3154,15531 3154,15241 3236,14958 3392,14707 3547,14457 3771,14249 4041,14105 4311,13960 4617,13884 4928,13884 5239,13884 5545,13960 5815,14105 6085,14249 6309,14457 6464,14707 6620,14958 6702,15241 6702,15531 L 6702,15531 Z"/>
       </g>
      </g>
      <g class="com.sun.star.drawing.CustomShape">
       <g id="id14">
        <rect class="BoundingBox" stroke="none" fill="none" x="761" y="11593" width="3551" height="3295"/>
        <path fill="rgb(89,131,176)" fill-opacity="0.522" stroke="rgb(255,255,255)" stroke-opacity="0.522" d="M 4311,13240 C 4311,13529 4229,13812 4073,14063 3918,14313 3694,14521 3424,14665 3154,14810 2848,14886 2537,14886 2225,14886 1919,14810 1649,14665 1379,14521 1155,14313 1000,14063 844,13812 762,13529 762,13240 762,12950 844,12667 1000,12416 1155,12166 1379,11958 1649,11814 1919,11669 2225,11593 2536,11593 2848,11593 3154,11669 3424,11814 3694,11958 3918,12166 4073,12416 4229,12667 4311,12950 4311,13240 L 4311,13240 Z"/>
       </g>
      </g>
      <g class="com.sun.star.drawing.CustomShape">
       <g id="id15">
        <rect class="BoundingBox" stroke="none" fill="none" x="11303" y="10033" width="8130" height="7368"/>
        <path fill="rgb(236,155,164)" stroke="none" d="M 13151,10033 L 13152,10033 C 12827,10033 12509,10118 12228,10281 11946,10443 11713,10676 11551,10958 11388,11239 11303,11557 11303,11882 L 11303,15551 11303,15551 C 11303,15876 11388,16194 11551,16476 11713,16757 11946,16990 12228,17152 12509,17315 12827,17400 13152,17400 L 17583,17400 17583,17400 C 17908,17400 18226,17315 18508,17152 18789,16990 19022,16757 19184,16476 19347,16194 19432,15876 19432,15551 L 19432,11881 19432,11882 19432,11882 C 19432,11557 19347,11239 19184,10957 19022,10676 18789,10443 18508,10281 18226,10118 17908,10033 17583,10033 L 13151,10033 Z"/>
       </g>
      </g>
      <g class="com.sun.star.drawing.CustomShape">
       <g id="id16">
        <rect class="BoundingBox" stroke="none" fill="none" x="9143" y="13080" width="1527" height="1020"/>
        <path fill="rgb(255,255,255)" stroke="none" d="M 9144,13335 L 10287,13335 10287,13081 10668,13589 10287,14098 10287,13843 9144,13843 9144,13335 Z"/>
        <path fill="none" stroke="rgb(255,255,255)" d="M 9144,13335 L 10287,13335 10287,13081 10668,13589 10287,14098 10287,13843 9144,13843 9144,13335 Z"/>
       </g>
      </g>
      <g class="Graphic">
       <title>TexMaths
       </title>
       <desc>14§display§\textcolor{white}{\mathcal{A}}§svg§600§TRUE§
       </desc>
       <g id="id17">
        <rect class="BoundingBox" stroke="none" fill="none" x="4826" y="4953" width="1637" height="1583"/>
        <defs>
         <clipPath id="clip_path_1" clipPathUnits="userSpaceOnUse">
          <path d="M 4826,4953 L 6462,4953 6462,6535 4826,6535 4826,4953 Z"/>
         </clipPath>
        </defs>
        <g clip-path="url(#clip_path_1)">
         <path fill="rgb(255,255,255)" stroke="none" d="M 6046,6094 C 6056,6224 6081,6318 6091,6357 6113,6449 6124,6494 6212,6494 6304,6494 6462,6402 6462,6361 6462,6351 6454,6346 6444,6346 6417,6346 6374,6369 6368,6373 6353,6381 6349,6381 6345,6381 6288,6381 6275,6326 6251,6203 6236,6135 6218,6053 6202,5773 6187,5564 6179,5355 6179,5146 6179,5096 6181,5043 6181,4994 6181,4961 6181,4953 6159,4953 6130,4953 6046,4988 6009,5043 L 5995,5066 C 5833,5412 5681,5660 5574,5826 5453,6012 5240,6346 5129,6346 5054,6346 4990,6297 4972,6224 4970,6219 4965,6207 4957,6207 4926,6207 4881,6305 4881,6363 4881,6445 4970,6535 5066,6535 5207,6535 5443,6166 5488,6094 L 6046,6094 6046,6094 Z M 6005,5205 L 6005,5324 C 6005,5443 6009,5562 6015,5680 6017,5721 6025,5875 6036,5982 L 5660,5982 C 5628,5982 5597,5982 5544,6014 5687,5793 5806,5580 5818,5558 5921,5375 5976,5256 6003,5205 L 6005,5205 6005,5205 Z"/>
        </g>
       </g>
      </g>
      <g class="Graphic">
       <title>TexMaths
       </title>
       <desc>14§display§\textcolor{white}{\mathcal{B}}§svg§600§TRUE§
       </desc>
       <g id="id18">
        <rect class="BoundingBox" stroke="none" fill="none" x="13081" y="5015" width="1703" height="1844"/>
        <path fill="rgb(255,255,255)" stroke="none" d="M 13811,5163 C 13816,5138 13816,5133 13816,5127 13816,5111 13811,5104 13791,5104 13765,5104 13696,5138 13650,5161 13545,5214 13457,5257 13457,5299 13457,5312 13473,5312 13483,5312 13510,5312 13570,5280 13614,5260 13586,5485 13531,5778 13489,5976 13404,6366 13361,6505 13248,6728 13237,6749 13237,6753 13237,6756 13237,6772 13255,6772 13260,6772 13296,6772 13393,6730 13430,6666 13460,6613 13547,6446 13616,6180 13666,5982 13754,5682 13917,5446 14023,5296 14119,5228 14264,5228 14388,5228 14501,5308 14501,5429 14501,5631 14283,5705 14044,5785 14016,5794 13857,5849 13857,5907 13857,5920 13873,5923 13880,5923 13889,5923 13942,5914 13991,5914 14223,5914 14411,6051 14411,6269 14411,6554 14168,6645 13958,6645 13781,6645 13696,6549 13666,6517 13657,6505 13655,6501 13637,6501 13586,6501 13469,6572 13469,6613 13469,6620 13558,6772 13807,6772 14131,6772 14607,6542 14607,6173 14607,5980 14478,5836 14244,5792 14427,5714 14696,5549 14696,5333 14696,5200 14586,5101 14416,5101 14338,5101 14044,5122 13765,5466 L 13811,5163 13811,5163 Z"/>
       </g>
      </g>
      <g class="Graphic">
       <title>TexMaths
       </title>
       <desc>14§display§\textcolor{white}{\mathcal{A}}§svg§600§TRUE§
       </desc>
       <g id="id19">
        <rect class="BoundingBox" stroke="none" fill="none" x="4826" y="4953" width="1637" height="1583"/>
        <defs>
         <clipPath id="clip_path_2" clipPathUnits="userSpaceOnUse">
          <path d="M 4826,4953 L 6462,4953 6462,6535 4826,6535 4826,4953 Z"/>
         </clipPath>
        </defs>
        <g clip-path="url(#clip_path_2)">
         <path fill="rgb(255,255,255)" stroke="none" d="M 6046,6094 C 6056,6224 6081,6318 6091,6357 6113,6449 6124,6494 6212,6494 6304,6494 6462,6402 6462,6361 6462,6351 6454,6346 6444,6346 6417,6346 6374,6369 6368,6373 6353,6381 6349,6381 6345,6381 6288,6381 6275,6326 6251,6203 6236,6135 6218,6053 6202,5773 6187,5564 6179,5355 6179,5146 6179,5096 6181,5043 6181,4994 6181,4961 6181,4953 6159,4953 6130,4953 6046,4988 6009,5043 L 5995,5066 C 5833,5412 5681,5660 5574,5826 5453,6012 5240,6346 5129,6346 5054,6346 4990,6297 4972,6224 4970,6219 4965,6207 4957,6207 4926,6207 4881,6305 4881,6363 4881,6445 4970,6535 5066,6535 5207,6535 5443,6166 5488,6094 L 6046,6094 6046,6094 Z M 6005,5205 L 6005,5324 C 6005,5443 6009,5562 6015,5680 6017,5721 6025,5875 6036,5982 L 5660,5982 C 5628,5982 5597,5982 5544,6014 5687,5793 5806,5580 5818,5558 5921,5375 5976,5256 6003,5205 L 6005,5205 6005,5205 Z"/>
        </g>
       </g>
      </g>
      <g class="Graphic">
       <title>TexMaths
       </title>
       <desc>14§display§\textcolor{white}{\oplus}§svg§600§TRUE§
       </desc>
       <g id="id20">
        <rect class="BoundingBox" stroke="none" fill="none" x="8890" y="2381" width="1690" height="1557"/>
        <defs>
         <clipPath id="clip_path_3" clipPathUnits="userSpaceOnUse">
          <path d="M 8890,2381 L 10579,2381 10579,3937 8890,3937 8890,2381 Z"/>
         </clipPath>
        </defs>
        <g clip-path="url(#clip_path_3)">
         <path fill="rgb(255,255,255)" stroke="none" d="M 10579,3159 C 10579,2729 10228,2381 9800,2381 9365,2381 9019,2734 9019,3159 9019,3589 9370,3937 9798,3937 10233,3937 10579,3584 10579,3159 L 10579,3159 Z M 9077,3129 C 9101,2736 9405,2458 9770,2439 L 9770,3129 9077,3129 9077,3129 Z M 9828,2439 C 10195,2458 10497,2738 10521,3129 L 9828,3129 9828,2439 9828,2439 Z M 9770,3879 C 9407,3860 9101,3587 9077,3187 L 9770,3187 9770,3879 9770,3879 Z M 10521,3187 C 10497,3587 10188,3860 9828,3879 L 9828,3187 10521,3187 10521,3187 Z"/>
        </g>
       </g>
      </g>
      <g class="Graphic">
       <title>TexMaths
       </title>
       <desc>14§display§\textcolor{white}{\mathcal{A} \oplus \mathcal{B}}§svg§600§TRUE§
       </desc>
       <g id="id21">
        <rect class="BoundingBox" stroke="none" fill="none" x="12641" y="17907" width="4886" height="1463"/>
        <defs>
         <clipPath id="clip_path_4" clipPathUnits="userSpaceOnUse">
          <path d="M 12641,17907 L 17526,17907 17526,19369 12641,19369 12641,17907 Z"/>
         </clipPath>
        </defs>
        <g clip-path="url(#clip_path_4)">
         <path fill="rgb(255,255,255)" stroke="none" d="M 13723,18919 C 13732,19033 13754,19117 13763,19151 13783,19233 13792,19273 13871,19273 13952,19273 14092,19191 14092,19155 14092,19146 14085,19142 14076,19142 14052,19142 14014,19162 14009,19166 13996,19173 13992,19173 13989,19173 13938,19173 13927,19124 13905,19015 13892,18955 13876,18882 13861,18633 13849,18448 13841,18263 13841,18078 13841,18034 13843,17987 13843,17943 13843,17914 13843,17907 13823,17907 13798,17907 13723,17938 13691,17987 L 13678,18007 C 13534,18314 13399,18534 13305,18681 13198,18846 13008,19142 12910,19142 12843,19142 12787,19098 12770,19033 12768,19029 12765,19018 12757,19018 12730,19018 12690,19106 12690,19157 12690,19229 12768,19309 12854,19309 12979,19309 13188,18982 13229,18919 L 13723,18919 13723,18919 Z M 13687,18130 L 13687,18236 C 13687,18341 13691,18446 13696,18552 13698,18588 13705,18724 13714,18819 L 13381,18819 C 13352,18819 13325,18819 13278,18848 13405,18652 13510,18463 13521,18443 13612,18281 13661,18176 13685,18130 L 13687,18130 13687,18130 Z"/>
         <path fill="rgb(255,255,255)" stroke="none" d="M 15811,18764 C 15811,18430 15538,18159 15205,18159 14867,18159 14598,18434 14598,18764 14598,19098 14870,19369 15203,19369 15542,19369 15811,19095 15811,18764 L 15811,18764 Z M 14643,18741 C 14661,18435 14898,18219 15181,18205 L 15181,18741 14643,18741 14643,18741 Z M 15227,18205 C 15512,18219 15747,18437 15765,18741 L 15227,18741 15227,18205 15227,18205 Z M 15181,19324 C 14900,19309 14661,19097 14643,18786 L 15181,18786 15181,19324 15181,19324 Z M 15765,18786 C 15747,19097 15507,19309 15227,19324 L 15227,18786 15765,18786 15765,18786 Z"/>
         <path fill="rgb(255,255,255)" stroke="none" d="M 16826,17985 C 16829,17965 16829,17961 16829,17956 16829,17943 16826,17938 16809,17938 16789,17938 16735,17965 16698,17983 16615,18025 16546,18060 16546,18092 16546,18103 16558,18103 16566,18103 16587,18103 16635,18078 16669,18061 16647,18239 16604,18472 16571,18628 16504,18937 16469,19048 16380,19224 16371,19240 16371,19244 16371,19246 16371,19258 16386,19258 16389,19258 16418,19258 16495,19226 16524,19175 16547,19133 16617,19000 16671,18790 16711,18633 16780,18396 16909,18208 16993,18090 17069,18036 17184,18036 17282,18036 17371,18100 17371,18196 17371,18356 17199,18414 17009,18477 16988,18485 16862,18528 16862,18574 16862,18584 16875,18586 16880,18586 16888,18586 16929,18579 16968,18579 17151,18579 17300,18688 17300,18860 17300,19086 17108,19158 16942,19158 16802,19158 16735,19082 16711,19057 16704,19048 16702,19044 16687,19044 16647,19044 16555,19100 16555,19133 16555,19138 16626,19258 16822,19258 17079,19258 17455,19077 17455,18784 17455,18632 17353,18517 17168,18483 17313,18421 17526,18290 17526,18119 17526,18014 17439,17936 17304,17936 17242,17936 17009,17952 16789,18225 L 16826,17985 16826,17985 Z"/>
        </g>
       </g>
      </g>
     </g>
    </g>
   </g>
  </g>
 </g>
</svg>