<?xml version="1.0" encoding="UTF-8"?>
<!DOCTYPE svg PUBLIC "-//W3C//DTD SVG 1.1//EN" "http://www.w3.org/Graphics/SVG/1.1/DTD/svg11.dtd">
<svg version="1.2" width="203.2mm" height="203.2mm" viewBox="0 0 20320 20320" preserveAspectRatio="xMidYMid" fill-rule="evenodd" stroke-width="28.222" stroke-linejoin="round" xmlns="http://www.w3.org/2000/svg" xmlns:ooo="http://xml.openoffice.org/svg/export" xmlns:xlink="http://www.w3.org/1999/xlink" xmlns:presentation="http://sun.com/xmlns/staroffice/presentation" xmlns:smil="http://www.w3.org/2001/SMIL20/" xmlns:anim="urn:oasis:names:tc:opendocument:xmlns:animation:1.0" xml:space="preserve">
 <defs class="ClipPathGroup">
  <clipPath id="presentation_clip_path" clipPathUnits="userSpaceOnUse">
   <rect x="0" y="0" width="20320" height="20320"/>
  </clipPath>
  <clipPath id="presentation_clip_path_shrink" clipPathUnits="userSpaceOnUse">
   <rect x="20" y="20" width="20280" height="20280"/>
  </clipPath>
 </defs>
 <defs class="TextShapeIndex">
  <g ooo:slide="id1" ooo:id-list="id3 id4 id5 id6 id7 id8 id9 id10 id11 id12 id13 id14 id15 id16 id17 id18 id19 id20 id21 id22 id23 id24 id25 id26"/>
 </defs>
 <defs class="EmbeddedBulletChars">
  <g id="bullet-char-template-57356" transform="scale(0.00048828125,-0.00048828125)">
   <path d="M 580,1141 L 1163,571 580,0 -4,571 580,1141 Z"/>
  </g>
  <g id="bullet-char-template-57354" transform="scale(0.00048828125,-0.00048828125)">
   <path d="M 8,1128 L 1137,1128 1137,0 8,0 8,1128 Z"/>
  </g>
  <g id="bullet-char-template-10146" transform="scale(0.00048828125,-0.00048828125)">
   <path d="M 174,0 L 602,739 174,1481 1456,739 174,0 Z M 1358,739 L 309,1346 659,739 1358,739 Z"/>
  </g>
  <g id="bullet-char-template-10132" transform="scale(0.00048828125,-0.00048828125)">
   <path d="M 2015,739 L 1276,0 717,0 1260,543 174,543 174,936 1260,936 717,1481 1274,1481 2015,739 Z"/>
  </g>
  <g id="bullet-char-template-10007" transform="scale(0.00048828125,-0.00048828125)">
   <path d="M 0,-2 C -7,14 -16,27 -25,37 L 356,567 C 262,823 215,952 215,954 215,979 228,992 255,992 264,992 276,990 289,987 310,991 331,999 354,1012 L 381,999 492,748 772,1049 836,1024 860,1049 C 881,1039 901,1025 922,1006 886,937 835,863 770,784 769,783 710,716 594,584 L 774,223 C 774,196 753,168 711,139 L 727,119 C 717,90 699,76 672,76 641,76 570,178 457,381 L 164,-76 C 142,-110 111,-127 72,-127 30,-127 9,-110 8,-76 1,-67 -2,-52 -2,-32 -2,-23 -1,-13 0,-2 Z"/>
  </g>
  <g id="bullet-char-template-10004" transform="scale(0.00048828125,-0.00048828125)">
   <path d="M 285,-33 C 182,-33 111,30 74,156 52,228 41,333 41,471 41,549 55,616 82,672 116,743 169,778 240,778 293,778 328,747 346,684 L 369,508 C 377,444 397,411 428,410 L 1163,1116 C 1174,1127 1196,1133 1229,1133 1271,1133 1292,1118 1292,1087 L 1292,965 C 1292,929 1282,901 1262,881 L 442,47 C 390,-6 338,-33 285,-33 Z"/>
  </g>
  <g id="bullet-char-template-9679" transform="scale(0.00048828125,-0.00048828125)">
   <path d="M 813,0 C 632,0 489,54 383,161 276,268 223,411 223,592 223,773 276,916 383,1023 489,1130 632,1184 813,1184 992,1184 1136,1130 1245,1023 1353,916 1407,772 1407,592 1407,412 1353,268 1245,161 1136,54 992,0 813,0 Z"/>
  </g>
  <g id="bullet-char-template-8226" transform="scale(0.00048828125,-0.00048828125)">
   <path d="M 346,457 C 273,457 209,483 155,535 101,586 74,649 74,723 74,796 101,859 155,911 209,963 273,989 346,989 419,989 480,963 531,910 582,859 608,796 608,723 608,648 583,586 532,535 482,483 420,457 346,457 Z"/>
  </g>
  <g id="bullet-char-template-8211" transform="scale(0.00048828125,-0.00048828125)">
   <path d="M -4,459 L 1135,459 1135,606 -4,606 -4,459 Z"/>
  </g>
  <g id="bullet-char-template-61548" transform="scale(0.00048828125,-0.00048828125)">
   <path d="M 173,740 C 173,903 231,1043 346,1159 462,1274 601,1332 765,1332 928,1332 1067,1274 1183,1159 1299,1043 1357,903 1357,740 1357,577 1299,437 1183,322 1067,206 928,148 765,148 601,148 462,206 346,322 231,437 173,577 173,740 Z"/>
  </g>
 </defs>
 <g>
  <g id="id2" class="Master_Slide">
   <g id="bg-id2" class="Background"/>
   <g id="bo-id2" class="BackgroundObjects"/>
  </g>
 </g>
 <g class="SlideGroup">
  <g>
   <g id="container-id1">
    <g id="id1" class="Slide" clip-path="url(#presentation_clip_path)">
     <g class="Page">
      <g id="bg-id1" class="Background">
       <path fill="rgb(25,25,25)" stroke="none" d="M 10160,20319 L 0,20319 0,0 20319,0 20319,20319 10160,20319 Z"/>
      </g>
      <g class="com.sun.star.drawing.OpenBezierShape">
       <g id="id3">
        <rect class="BoundingBox" stroke="none" fill="none" x="2446" y="1471" width="8403" height="17055"/>
        <path fill="none" stroke="rgb(255,255,255)" stroke-width="106" stroke-linejoin="round" d="M 10668,1524 C 4445,2159 2159,12954 2540,15367 2921,17780 4064,18034 4699,18415 5334,18796 6477,17145 6603,16129 6731,15113 6604,15113 5842,14097 5080,13081 6985,9017 8382,7366 9779,5715 9017,6096 10795,5842"/>
       </g>
      </g>
      <g class="Group">
       <g class="com.sun.star.drawing.CustomShape">
        <g id="id4">
         <rect class="BoundingBox" stroke="none" fill="none" x="4099" y="14253" width="2609" height="4376"/>
         <path fill="rgb(25,25,25)" stroke="none" d="M 6589,16662 C 6520,17035 6397,17390 6232,17694 6068,17997 5868,18237 5653,18390 5438,18542 5215,18602 5007,18563 4798,18524 4612,18388 4467,18168 4321,17948 4221,17652 4177,17310 4133,16968 4147,16592 4216,16219 4286,15846 4409,15491 4573,15187 4738,14884 4938,14644 5153,14491 5368,14339 5591,14279 5799,14318 6007,14357 6194,14493 6339,14713 6485,14933 6585,15229 6629,15571 6672,15913 6659,16289 6589,16662 L 6589,16662 Z"/>
         <path fill="none" stroke="rgb(255,255,255)" stroke-width="106" stroke-linejoin="round" d="M 6589,16662 C 6520,17035 6397,17390 6232,17694 6068,17997 5868,18237 5653,18390 5438,18542 5215,18602 5007,18563 4798,18524 4612,18388 4467,18168 4321,17948 4221,17652 4177,17310 4133,16968 4147,16592 4216,16219 4286,15846 4409,15491 4573,15187 4738,14884 4938,14644 5153,14491 5368,14339 5591,14279 5799,14318 6007,14357 6194,14493 6339,14713 6485,14933 6585,15229 6629,15571 6672,15913 6659,16289 6589,16662 L 6589,16662 Z"/>
        </g>
       </g>
       <g class="com.sun.star.drawing.CustomShape">
        <g id="id5">
         <rect class="BoundingBox" stroke="none" fill="none" x="5369" y="15762" width="1146" height="1618"/>
         <path fill="rgb(25,25,25)" stroke="none" d="M 6441,16664 C 6417,16795 6370,16920 6304,17026 6239,17132 6158,17215 6070,17266 5982,17318 5889,17337 5802,17320 5714,17304 5634,17253 5570,17173 5507,17093 5461,16987 5439,16865 5416,16742 5417,16609 5442,16477 5466,16346 5513,16221 5578,16115 5644,16009 5724,15926 5813,15875 5901,15823 5994,15805 6081,15821 6169,15837 6249,15888 6312,15968 6376,16048 6422,16154 6444,16277 6467,16399 6466,16532 6441,16664 L 6441,16664 Z"/>
         <path fill="none" stroke="rgb(255,255,255)" stroke-width="106" stroke-linejoin="round" d="M 6441,16664 C 6417,16795 6370,16920 6304,17026 6239,17132 6158,17215 6070,17266 5982,17318 5889,17337 5802,17320 5714,17304 5634,17253 5570,17173 5507,17093 5461,16987 5439,16865 5416,16742 5417,16609 5442,16477 5466,16346 5513,16221 5578,16115 5644,16009 5724,15926 5813,15875 5901,15823 5994,15805 6081,15821 6169,15837 6249,15888 6312,15968 6376,16048 6422,16154 6444,16277 6467,16399 6466,16532 6441,16664 Z"/>
        </g>
       </g>
       <g class="com.sun.star.drawing.CustomShape">
        <g id="id6">
         <rect class="BoundingBox" stroke="none" fill="none" x="5663" y="15816" width="1146" height="1618"/>
         <path fill="rgb(25,25,25)" stroke="none" d="M 6735,16718 C 6711,16849 6664,16974 6598,17080 6533,17186 6452,17269 6364,17320 6276,17372 6183,17391 6096,17374 6008,17358 5928,17307 5864,17227 5801,17147 5755,17041 5733,16919 5710,16796 5711,16663 5736,16531 5760,16400 5807,16275 5872,16169 5938,16063 6018,15980 6107,15929 6195,15877 6288,15859 6375,15875 6463,15891 6543,15942 6606,16022 6670,16102 6716,16208 6738,16331 6761,16453 6760,16586 6735,16718 L 6735,16718 Z"/>
         <path fill="none" stroke="rgb(255,255,255)" stroke-width="106" stroke-linejoin="round" d="M 6735,16718 C 6711,16849 6664,16974 6598,17080 6533,17186 6452,17269 6364,17320 6276,17372 6183,17391 6096,17374 6008,17358 5928,17307 5864,17227 5801,17147 5755,17041 5733,16919 5710,16796 5711,16663 5736,16531 5760,16400 5807,16275 5872,16169 5938,16063 6018,15980 6107,15929 6195,15877 6288,15859 6375,15875 6463,15891 6543,15942 6606,16022 6670,16102 6716,16208 6738,16331 6761,16453 6760,16586 6735,16718 Z"/>
        </g>
       </g>
      </g>
      <g class="com.sun.star.drawing.LineShape">
       <g id="id7">
        <rect class="BoundingBox" stroke="none" fill="none" x="6309" y="16469" width="4360" height="686"/>
        <path fill="none" stroke="rgb(89,131,176)" stroke-width="81" stroke-linejoin="round" d="M 6350,16510 L 10069,16947"/>
        <path fill="rgb(89,131,176)" stroke="none" d="M 10668,17018 L 10065,16735 10016,17153 10668,17018 Z"/>
       </g>
      </g>
      <g class="com.sun.star.drawing.LineShape">
       <g id="id8">
        <rect class="BoundingBox" stroke="none" fill="none" x="5825" y="16469" width="547" height="3464"/>
        <path fill="none" stroke="rgb(255,0,0)" stroke-width="81" stroke-linejoin="round" d="M 6330,16510 L 6032,19332"/>
        <path fill="rgb(255,0,0)" stroke="none" d="M 5969,19932 L 6245,19326 5826,19282 5969,19932 Z"/>
       </g>
      </g>
      <g class="com.sun.star.drawing.LineShape">
       <g id="id9">
        <rect class="BoundingBox" stroke="none" fill="none" x="6182" y="15126" width="3264" height="1426"/>
        <path fill="none" stroke="rgb(129,212,26)" stroke-width="81" stroke-linejoin="round" d="M 6223,16510 L 8891,15364"/>
        <path fill="rgb(129,212,26)" stroke="none" d="M 9445,15126 L 8782,15182 8948,15569 9445,15126 Z"/>
       </g>
      </g>
      <g class="com.sun.star.drawing.CustomShape">
       <g id="id10">
        <rect class="BoundingBox" stroke="none" fill="none" x="8888" y="8381" width="639" height="766"/>
        <path fill="rgb(25,25,25)" stroke="none" d="M 9525,8764 C 9525,8830 9510,8896 9482,8954 9454,9012 9414,9060 9366,9094 9318,9127 9263,9145 9207,9145 9151,9145 9096,9127 9048,9094 9000,9060 8960,9012 8932,8954 8904,8896 8889,8830 8889,8764 8889,8697 8904,8631 8932,8573 8960,8515 9000,8467 9048,8433 9096,8400 9151,8382 9207,8382 9263,8382 9318,8400 9366,8433 9414,8467 9454,8515 9482,8573 9510,8631 9525,8697 9525,8764 L 9525,8764 Z"/>
        <path fill="none" stroke="rgb(25,25,25)" d="M 9525,8764 C 9525,8830 9510,8896 9482,8954 9454,9012 9414,9060 9366,9094 9318,9127 9263,9145 9207,9145 9151,9145 9096,9127 9048,9094 9000,9060 8960,9012 8932,8954 8904,8896 8889,8830 8889,8764 8889,8697 8904,8631 8932,8573 8960,8515 9000,8467 9048,8433 9096,8400 9151,8382 9207,8382 9263,8382 9318,8400 9366,8433 9414,8467 9454,8515 9482,8573 9510,8631 9525,8697 9525,8764 Z"/>
       </g>
      </g>
      <g class="com.sun.star.drawing.CustomShape">
       <g id="id11">
        <rect class="BoundingBox" stroke="none" fill="none" x="10793" y="16763" width="639" height="766"/>
        <path fill="rgb(25,25,25)" stroke="none" d="M 11430,17146 C 11430,17212 11415,17278 11387,17336 11359,17394 11319,17442 11271,17476 11223,17509 11168,17527 11112,17527 11056,17527 11001,17509 10953,17476 10905,17442 10865,17394 10837,17336 10809,17278 10794,17212 10794,17146 10794,17079 10809,17013 10837,16955 10865,16897 10905,16849 10953,16815 11001,16782 11056,16764 11112,16764 11168,16764 11223,16782 11271,16815 11319,16849 11359,16897 11387,16955 11415,17013 11430,17079 11430,17146 L 11430,17146 Z"/>
        <path fill="none" stroke="rgb(25,25,25)" d="M 11430,17146 C 11430,17212 11415,17278 11387,17336 11359,17394 11319,17442 11271,17476 11223,17509 11168,17527 11112,17527 11056,17527 11001,17509 10953,17476 10905,17442 10865,17394 10837,17336 10809,17278 10794,17212 10794,17146 10794,17079 10809,17013 10837,16955 10865,16897 10905,16849 10953,16815 11001,16782 11056,16764 11112,16764 11168,16764 11223,16782 11271,16815 11319,16849 11359,16897 11387,16955 11415,17013 11430,17079 11430,17146 Z"/>
       </g>
      </g>
      <g class="com.sun.star.drawing.ConnectorShape">
       <g id="id12">
        <rect class="BoundingBox" stroke="none" fill="none" x="9432" y="8493" width="1723" height="8313"/>
        <path fill="none" stroke="rgb(255,255,255)" stroke-width="81" stroke-linejoin="round" d="M 11113,16764 C 11113,11250 10727,9510 9955,8732"/>
        <path fill="rgb(255,255,255)" stroke="none" d="M 9432,8493 L 9911,8956 10092,8576 9432,8493 Z"/>
       </g>
      </g>
      <g class="Graphic">
       <title>TexMaths
       </title>
       <desc>14§display§\textcolor{white}{\mathcal{F}_{DHi}}§svg§600§TRUE§
       </desc>
       <g id="id13">
        <rect class="BoundingBox" stroke="none" fill="none" x="7076" y="17827" width="2831" height="1075"/>
        <path fill="rgb(255,255,255)" stroke="none" d="M 8089,17924 C 8089,17871 7999,17879 7963,17879 L 7523,17879 C 7465,17879 7361,17913 7342,17975 7344,17982 7347,17984 7354,17984 7379,17984 7414,17963 7431,17945 7467,17945 7502,17943 7538,17943 L 7611,17943 C 7611,17943 7606,17964 7606,17965 7560,18178 7491,18358 7440,18472 7433,18487 7370,18633 7354,18647 7302,18647 7264,18619 7243,18573 7239,18566 7239,18562 7231,18562 7204,18562 7140,18599 7140,18619 7140,18621 7141,18623 7142,18626 7163,18680 7216,18712 7273,18712 7333,18712 7401,18669 7439,18626 7477,18582 7554,18391 7585,18321 L 7810,18321 C 7809,18322 7808,18323 7808,18324 7808,18329 7815,18333 7820,18333 7845,18333 7912,18300 7912,18264 7912,18256 7904,18257 7890,18257 L 7609,18257 C 7640,18152 7679,18050 7700,17943 L 7855,17943 C 7884,17943 7966,17937 7987,17963 7989,17970 7985,17981 7989,17987 7991,17989 7995,17991 7998,17991 8026,17991 8089,17956 8089,17924 L 8089,17924 Z"/>
        <path fill="rgb(255,255,255)" stroke="none" d="M 8114,18786 C 8107,18813 8106,18820 8042,18820 8027,18820 8018,18820 8018,18838 8018,18849 8027,18849 8042,18849 L 8334,18849 C 8515,18849 8690,18683 8690,18505 8690,18387 8607,18293 8474,18293 L 8176,18293 C 8160,18293 8150,18293 8150,18311 8150,18322 8159,18322 8177,18322 8190,18322 8193,18322 8208,18324 8224,18325 8226,18327 8226,18335 8226,18337 8226,18341 8223,18353 L 8114,18786 8114,18786 Z M 8297,18350 C 8304,18325 8305,18322 8339,18322 L 8444,18322 C 8535,18322 8612,18368 8612,18479 8612,18497 8604,18638 8522,18731 8490,18768 8420,18820 8319,18820 L 8208,18820 C 8183,18820 8182,18819 8182,18812 8182,18811 8182,18807 8185,18795 L 8297,18350 8297,18350 Z"/>
        <path fill="rgb(255,255,255)" stroke="none" d="M 9436,18359 C 9443,18329 9445,18322 9505,18322 9523,18322 9533,18322 9533,18304 9533,18301 9531,18293 9520,18293 9496,18293 9437,18296 9413,18296 9399,18296 9371,18296 9357,18295 9340,18295 9321,18293 9305,18293 9300,18293 9288,18293 9288,18311 9288,18322 9298,18322 9314,18322 9315,18322 9330,18322 9345,18324 9362,18325 9364,18327 9364,18335 9364,18336 9364,18341 9361,18353 L 9313,18545 9039,18545 9086,18356 C 9093,18329 9095,18322 9158,18322 9172,18322 9183,18322 9183,18304 9183,18301 9180,18293 9169,18293 9146,18293 9086,18296 9062,18296 9048,18296 9020,18296 9006,18295 8990,18295 8970,18293 8954,18293 8949,18293 8937,18293 8937,18311 8937,18322 8947,18322 8963,18322 8964,18322 8980,18322 8994,18324 9012,18325 9013,18327 9013,18335 9013,18337 9013,18341 9010,18353 L 8901,18786 C 8895,18813 8893,18820 8829,18820 8815,18820 8805,18820 8805,18837 8805,18845 8810,18849 8818,18849 8842,18849 8900,18846 8924,18846 8938,18846 8967,18846 8981,18847 8997,18847 9017,18849 9033,18849 9037,18849 9050,18849 9050,18832 9050,18820 9042,18820 9023,18820 9010,18820 9007,18820 8992,18818 8974,18816 8974,18814 8974,18806 8974,18805 8974,18800 8977,18788 L 9031,18575 9305,18575 9252,18786 C 9245,18813 9244,18820 9180,18820 9166,18820 9156,18820 9156,18837 9156,18845 9161,18849 9169,18849 9192,18849 9251,18846 9275,18846 9289,18846 9317,18846 9331,18847 9348,18847 9368,18849 9384,18849 9388,18849 9401,18849 9401,18832 9401,18820 9393,18820 9374,18820 9361,18820 9357,18820 9343,18818 9325,18816 9325,18814 9325,18806 9325,18801 9327,18793 9328,18788 L 9436,18359 9436,18359 Z"/>
        <path fill="rgb(255,255,255)" stroke="none" d="M 9841,18340 C 9841,18327 9831,18309 9808,18309 9786,18309 9762,18330 9762,18354 9762,18368 9773,18385 9795,18385 9819,18385 9841,18362 9841,18340 L 9841,18340 Z M 9674,18754 C 9671,18764 9667,18774 9667,18788 9667,18826 9699,18857 9744,18857 9826,18857 9862,18745 9862,18733 9862,18722 9851,18722 9849,18722 9838,18722 9837,18727 9833,18736 9815,18801 9779,18834 9747,18834 9730,18834 9726,18824 9726,18806 9726,18787 9732,18772 9739,18754 9748,18732 9757,18710 9766,18689 9773,18669 9802,18595 9806,18585 9808,18577 9811,18567 9811,18559 9811,18521 9778,18490 9733,18490 9652,18490 9614,18601 9614,18615 9614,18625 9626,18625 9628,18625 9640,18625 9640,18621 9643,18612 9664,18542 9700,18513 9730,18513 9743,18513 9751,18519 9751,18541 9751,18560 9746,18572 9725,18623 L 9674,18754 9674,18754 Z"/>
       </g>
      </g>
      <g class="Graphic">
       <title>TexMaths
       </title>
       <desc>14§display§\textcolor{white}{\mathcal{F}_{obj,k,i}}§svg§600§TRUE§
       </desc>
       <g id="id14">
        <rect class="BoundingBox" stroke="none" fill="none" x="9435" y="6731" width="3647" height="1271"/>
        <path fill="rgb(255,255,255)" stroke="none" d="M 10479,6831 C 10479,6776 10386,6785 10349,6785 L 9895,6785 C 9835,6785 9728,6819 9709,6884 9711,6891 9714,6892 9721,6892 9747,6892 9783,6871 9800,6853 9838,6853 9874,6850 9911,6850 L 9986,6850 C 9986,6850 9981,6872 9981,6873 9934,7093 9863,7279 9810,7396 9803,7412 9738,7562 9721,7576 9668,7576 9628,7547 9607,7500 9603,7493 9603,7488 9595,7488 9567,7488 9501,7527 9501,7547 9501,7550 9502,7552 9503,7554 9525,7611 9579,7643 9638,7643 9699,7643 9770,7599 9809,7554 9848,7509 9928,7312 9959,7240 L 10191,7240 C 10190,7241 10189,7243 10189,7244 10189,7249 10196,7252 10201,7252 10227,7252 10296,7219 10296,7181 10296,7173 10287,7174 10273,7174 L 9984,7174 C 10016,7066 10057,6961 10078,6850 L 10237,6850 C 10267,6850 10351,6844 10373,6871 10375,6878 10372,6890 10375,6896 10378,6898 10381,6900 10385,6900 10414,6900 10479,6864 10479,6831 L 10479,6831 Z"/>
        <path fill="rgb(255,255,255)" stroke="none" d="M 10792,7561 C 10792,7468 10722,7414 10640,7414 10515,7414 10397,7531 10397,7646 10397,7730 10459,7793 10550,7793 10671,7793 10792,7682 10792,7561 L 10792,7561 Z M 10551,7770 C 10509,7770 10467,7743 10467,7676 10467,7642 10483,7560 10516,7512 10552,7460 10601,7438 10639,7438 10684,7438 10723,7469 10723,7531 10723,7551 10713,7634 10676,7693 10644,7743 10593,7770 10551,7770 L 10551,7770 Z"/>
        <path fill="rgb(255,255,255)" stroke="none" d="M 11042,7227 C 11043,7226 11045,7215 11045,7214 11045,7210 11042,7202 11032,7202 11015,7202 10945,7209 10924,7210 10917,7211 10906,7212 10906,7230 10906,7242 10917,7242 10928,7242 10968,7242 10968,7247 10968,7254 10968,7260 10960,7294 10955,7313 L 10935,7390 C 10928,7419 10881,7602 10880,7613 10875,7634 10875,7644 10875,7655 10875,7739 10929,7793 10999,7793 11104,7793 11216,7679 11216,7555 11216,7456 11148,7414 11090,7414 11046,7414 11009,7439 10984,7461 L 11042,7227 11042,7227 Z M 11000,7770 C 10959,7770 10935,7733 10935,7684 10935,7653 10943,7624 10966,7529 10971,7513 10971,7512 10987,7493 11019,7456 11057,7438 11088,7438 11120,7438 11149,7462 11149,7519 11149,7554 11131,7639 11105,7688 11085,7729 11043,7770 11000,7770 L 11000,7770 Z"/>
        <path fill="rgb(255,255,255)" stroke="none" d="M 11613,7260 C 11613,7246 11602,7228 11579,7228 11554,7228 11532,7252 11532,7274 11532,7288 11542,7306 11565,7306 11588,7306 11613,7284 11613,7260 L 11613,7260 Z M 11434,7826 C 11420,7884 11375,7932 11325,7932 11314,7932 11304,7931 11295,7927 11317,7917 11324,7897 11324,7885 11324,7864 11308,7853 11291,7853 11265,7853 11243,7876 11243,7903 11243,7935 11276,7956 11326,7956 11377,7956 11475,7926 11501,7823 L 11577,7523 C 11580,7513 11581,7506 11581,7493 11581,7447 11542,7414 11491,7414 11398,7414 11344,7531 11344,7543 11344,7554 11356,7554 11358,7554 11368,7554 11369,7551 11375,7539 11396,7490 11440,7438 11489,7438 11510,7438 11517,7452 11517,7479 11517,7488 11516,7500 11515,7504 L 11434,7826 11434,7826 Z"/>
        <path fill="rgb(255,255,255)" stroke="none" d="M 11815,7771 C 11815,7817 11807,7871 11750,7925 11746,7928 11744,7931 11744,7935 11744,7941 11751,7947 11756,7947 11767,7947 11839,7879 11839,7780 11839,7728 11819,7688 11780,7688 11752,7688 11732,7710 11732,7736 11732,7763 11751,7785 11781,7785 11801,7785 11815,7771 11815,7771 L 11815,7771 Z"/>
        <path fill="rgb(255,255,255)" stroke="none" d="M 12187,7227 C 12188,7226 12190,7215 12190,7214 12190,7210 12187,7202 12177,7202 12160,7202 12090,7209 12069,7210 12062,7211 12051,7212 12051,7230 12051,7242 12062,7242 12073,7242 12113,7242 12113,7247 12113,7254 12113,7260 12111,7265 12110,7273 L 11991,7748 C 11987,7763 11987,7764 11987,7766 11987,7779 11997,7793 12015,7793 12038,7793 12049,7776 12054,7758 12056,7754 12092,7607 12095,7595 12155,7601 12203,7620 12203,7664 12203,7668 12203,7672 12201,7681 12198,7693 12198,7697 12198,7707 12198,7766 12247,7793 12287,7793 12369,7793 12394,7665 12394,7665 12394,7654 12383,7654 12381,7654 12369,7654 12368,7658 12364,7674 12354,7710 12331,7770 12290,7770 12267,7770 12260,7749 12260,7726 12260,7712 12260,7710 12265,7688 12266,7686 12270,7671 12270,7662 12270,7587 12169,7576 12133,7573 12158,7558 12189,7530 12203,7518 12246,7477 12288,7438 12335,7438 12345,7438 12356,7440 12363,7449 12327,7455 12319,7483 12319,7496 12319,7514 12334,7527 12353,7527 12376,7527 12401,7508 12401,7473 12401,7446 12381,7414 12336,7414 12288,7414 12244,7449 12201,7488 12166,7522 12138,7548 12104,7562 L 12187,7227 12187,7227 Z"/>
        <path fill="rgb(255,255,255)" stroke="none" d="M 12633,7771 C 12633,7817 12625,7871 12567,7925 12564,7928 12561,7931 12561,7935 12561,7941 12568,7947 12573,7947 12585,7947 12657,7879 12657,7780 12657,7728 12636,7688 12598,7688 12570,7688 12550,7710 12550,7736 12550,7763 12569,7785 12598,7785 12619,7785 12632,7771 12633,7771 L 12633,7771 Z"/>
        <path fill="rgb(255,255,255)" stroke="none" d="M 13014,7260 C 13014,7247 13004,7228 12980,7228 12957,7228 12933,7250 12933,7274 12933,7289 12944,7306 12967,7306 12991,7306 13014,7283 13014,7260 L 13014,7260 Z M 12842,7686 C 12839,7697 12834,7707 12834,7722 12834,7761 12868,7793 12914,7793 12999,7793 13036,7677 13036,7665 13036,7654 13025,7654 13022,7654 13010,7654 13010,7659 13006,7668 12987,7735 12950,7770 12917,7770 12900,7770 12896,7759 12896,7740 12896,7721 12902,7705 12909,7686 12918,7664 12927,7641 12936,7619 12944,7599 12974,7523 12978,7513 12980,7504 12983,7494 12983,7486 12983,7446 12949,7414 12903,7414 12819,7414 12781,7529 12781,7543 12781,7554 12792,7554 12795,7554 12807,7554 12808,7550 12810,7540 12832,7468 12869,7438 12900,7438 12914,7438 12921,7445 12921,7467 12921,7487 12916,7499 12895,7551 L 12842,7686 12842,7686 Z"/>
       </g>
      </g>
      <g class="Graphic">
       <title>TexMaths
       </title>
       <desc>14§display§\textcolor{white}{T_{DHi}^{obj,k,i}}§svg§600§TRUE§
       </desc>
       <g id="id15">
        <rect class="BoundingBox" stroke="none" fill="none" x="11684" y="10935" width="3134" height="1385"/>
        <path fill="rgb(255,255,255)" stroke="none" d="M 12164,11344 C 12171,11315 12175,11309 12187,11306 12197,11304 12231,11304 12252,11304 12357,11304 12403,11308 12403,11389 12403,11404 12399,11444 12395,11471 12394,11475 12392,11488 12392,11491 12392,11497 12395,11504 12404,11504 12415,11504 12418,11496 12420,11480 L 12447,11301 C 12448,11297 12450,11287 12450,11283 12450,11272 12439,11272 12422,11272 L 11849,11272 C 11824,11272 11823,11273 11816,11293 L 11754,11474 C 11753,11476 11748,11491 11748,11493 11748,11499 11753,11504 11760,11504 11770,11504 11771,11499 11778,11482 11833,11323 11860,11304 12013,11304 L 12053,11304 C 12082,11304 12082,11308 12082,11316 12082,11323 12079,11335 12078,11338 L 11940,11889 C 11930,11927 11927,11938 11817,11938 11780,11938 11773,11938 11773,11958 11773,11970 11785,11970 11791,11970 11819,11970 11848,11968 11876,11968 11905,11968 11934,11967 11963,11967 11992,11967 12021,11968 12049,11968 12079,11968 12110,11970 12139,11970 12149,11970 12162,11970 12162,11949 12162,11938 12153,11938 12126,11938 12101,11938 12087,11938 12060,11936 12030,11933 12022,11930 12022,11913 12022,11912 12022,11907 12026,11892 L 12164,11344 12164,11344 Z"/>
        <path fill="rgb(255,255,255)" stroke="none" d="M 12853,11283 C 12853,11203 12793,11156 12722,11156 12615,11156 12514,11257 12514,11356 12514,11428 12567,11482 12646,11482 12749,11482 12853,11387 12853,11283 L 12853,11283 Z M 12646,11462 C 12610,11462 12574,11439 12574,11382 12574,11352 12588,11281 12616,11240 12647,11195 12689,11177 12722,11177 12761,11177 12794,11203 12794,11257 12794,11274 12785,11345 12753,11396 12726,11439 12683,11462 12646,11462 L 12646,11462 Z"/>
        <path fill="rgb(255,255,255)" stroke="none" d="M 13068,10995 C 13068,10994 13070,10985 13070,10984 13070,10980 13068,10974 13059,10974 13044,10974 12985,10980 12966,10981 12961,10982 12951,10982 12951,10998 12951,11008 12961,11008 12969,11008 13004,11008 13004,11013 13004,11019 13004,11024 12997,11052 12992,11069 L 12976,11135 C 12969,11160 12930,11318 12928,11327 12925,11345 12925,11354 12925,11363 12925,11436 12971,11482 13031,11482 13121,11482 13217,11384 13217,11277 13217,11192 13159,11156 13109,11156 13071,11156 13039,11177 13018,11196 L 13068,10995 13068,10995 Z M 13031,11462 C 12996,11462 12976,11431 12976,11388 12976,11361 12982,11337 13003,11255 13007,11242 13007,11240 13021,11224 13048,11192 13081,11177 13107,11177 13135,11177 13159,11198 13159,11247 13159,11276 13143,11350 13122,11392 13104,11427 13068,11462 13031,11462 L 13031,11462 Z"/>
        <path fill="rgb(255,255,255)" stroke="none" d="M 13557,11024 C 13557,11011 13548,10996 13528,10996 13507,10996 13488,11016 13488,11036 13488,11047 13496,11063 13517,11063 13536,11063 13557,11045 13557,11024 L 13557,11024 Z M 13404,11510 C 13392,11560 13353,11602 13311,11602 13301,11602 13293,11600 13285,11597 13303,11589 13309,11571 13309,11560 13309,11543 13295,11534 13281,11534 13259,11534 13240,11553 13240,11576 13240,11604 13268,11622 13311,11622 13355,11622 13439,11596 13462,11508 L 13527,11249 C 13529,11242 13530,11235 13530,11224 13530,11185 13496,11156 13453,11156 13373,11156 13327,11257 13327,11267 13327,11276 13337,11276 13339,11276 13347,11276 13348,11274 13353,11263 13371,11221 13409,11177 13451,11177 13469,11177 13475,11189 13475,11212 13475,11220 13474,11230 13473,11234 L 13404,11510 13404,11510 Z"/>
        <path fill="rgb(255,255,255)" stroke="none" d="M 13731,11463 C 13731,11503 13724,11549 13675,11595 13672,11598 13670,11600 13670,11604 13670,11609 13676,11614 13680,11614 13690,11614 13751,11556 13751,11470 13751,11426 13734,11392 13701,11392 13677,11392 13660,11410 13660,11433 13660,11456 13676,11475 13702,11475 13719,11475 13730,11463 13731,11463 L 13731,11463 Z"/>
        <path fill="rgb(255,255,255)" stroke="none" d="M 14050,10995 C 14051,10994 14053,10985 14053,10984 14053,10980 14050,10974 14041,10974 14027,10974 13967,10980 13949,10981 13943,10982 13933,10982 13933,10998 13933,11008 13943,11008 13952,11008 13986,11008 13986,11013 13986,11019 13986,11024 13985,11028 13984,11034 L 13882,11443 C 13878,11456 13878,11457 13878,11459 13878,11470 13887,11482 13903,11482 13922,11482 13932,11467 13936,11452 13937,11449 13968,11322 13971,11312 14023,11317 14064,11333 14064,11371 14064,11374 14064,11378 14062,11385 14059,11396 14059,11400 14059,11408 14059,11459 14101,11482 14136,11482 14206,11482 14228,11372 14228,11371 14228,11362 14218,11362 14216,11362 14206,11362 14205,11366 14202,11379 14193,11410 14174,11462 14138,11462 14119,11462 14113,11444 14113,11424 14113,11412 14113,11410 14117,11392 14118,11389 14121,11377 14121,11369 14121,11305 14034,11295 14004,11293 14025,11280 14051,11256 14064,11245 14101,11210 14137,11177 14177,11177 14186,11177 14195,11179 14201,11186 14170,11191 14163,11216 14163,11226 14163,11242 14176,11253 14192,11253 14212,11253 14234,11237 14234,11207 14234,11183 14216,11156 14178,11156 14137,11156 14099,11186 14062,11220 14032,11249 14008,11271 13978,11283 L 14050,10995 14050,10995 Z"/>
        <path fill="rgb(255,255,255)" stroke="none" d="M 14433,11463 C 14433,11503 14425,11549 14376,11595 14373,11598 14371,11600 14371,11604 14371,11609 14377,11614 14381,11614 14391,11614 14453,11556 14453,11470 14453,11426 14435,11392 14402,11392 14378,11392 14361,11410 14361,11433 14361,11456 14378,11475 14403,11475 14420,11475 14432,11463 14433,11463 L 14433,11463 Z"/>
        <path fill="rgb(255,255,255)" stroke="none" d="M 14759,11024 C 14759,11012 14751,10996 14730,10996 14711,10996 14690,11015 14690,11036 14690,11048 14699,11063 14719,11063 14740,11063 14759,11043 14759,11024 L 14759,11024 Z M 14612,11390 C 14609,11400 14605,11408 14605,11420 14605,11454 14634,11482 14674,11482 14746,11482 14778,11382 14778,11371 14778,11362 14769,11362 14767,11362 14756,11362 14756,11366 14753,11374 14736,11432 14704,11462 14676,11462 14662,11462 14658,11452 14658,11436 14658,11420 14663,11406 14670,11390 14677,11371 14685,11351 14693,11332 14699,11315 14725,11249 14728,11241 14730,11234 14733,11225 14733,11218 14733,11184 14704,11156 14664,11156 14592,11156 14559,11255 14559,11267 14559,11276 14569,11276 14572,11276 14582,11276 14582,11273 14585,11265 14603,11203 14635,11177 14662,11177 14673,11177 14680,11182 14680,11202 14680,11218 14676,11229 14657,11274 L 14612,11390 14612,11390 Z"/>
        <path fill="rgb(255,255,255)" stroke="none" d="M 12463,12217 C 12457,12241 12455,12247 12399,12247 12386,12247 12377,12247 12377,12263 12377,12273 12386,12273 12399,12273 L 12657,12273 C 12817,12273 12971,12126 12971,11968 12971,11863 12898,11780 12781,11780 L 12518,11780 C 12503,11780 12494,11780 12494,11796 12494,11806 12502,11806 12518,11806 12530,11806 12533,11806 12546,11808 12560,11809 12562,11810 12562,11818 12562,11819 12562,11823 12559,11834 L 12463,12217 12463,12217 Z M 12624,11831 C 12630,11808 12631,11806 12661,11806 L 12754,11806 C 12835,11806 12903,11846 12903,11945 12903,11961 12895,12086 12823,12168 12795,12201 12733,12247 12644,12247 L 12546,12247 C 12523,12247 12523,12246 12523,12240 12523,12239 12523,12235 12525,12225 L 12624,11831 12624,11831 Z"/>
        <path fill="rgb(255,255,255)" stroke="none" d="M 13631,11839 C 13637,11812 13639,11806 13692,11806 13708,11806 13717,11806 13717,11790 13717,11787 13715,11780 13705,11780 13684,11780 13632,11783 13611,11783 13598,11783 13573,11783 13561,11782 13546,11782 13529,11780 13515,11780 13511,11780 13500,11780 13500,11796 13500,11806 13509,11806 13523,11806 13524,11806 13538,11806 13551,11808 13566,11809 13567,11810 13567,11818 13567,11818 13567,11823 13564,11834 L 13522,12004 13280,12004 13322,11836 C 13328,11812 13330,11806 13385,11806 13397,11806 13407,11806 13407,11790 13407,11787 13405,11780 13395,11780 13374,11780 13322,11783 13301,11783 13288,11783 13263,11783 13251,11782 13236,11782 13219,11780 13205,11780 13201,11780 13190,11780 13190,11796 13190,11806 13199,11806 13213,11806 13214,11806 13228,11806 13241,11808 13256,11809 13257,11810 13257,11818 13257,11819 13257,11823 13254,11834 L 13158,12217 C 13153,12241 13151,12247 13095,12247 13082,12247 13073,12247 13073,12262 13073,12269 13078,12273 13085,12273 13106,12273 13158,12270 13179,12270 13191,12270 13216,12270 13228,12271 13243,12272 13261,12273 13275,12273 13278,12273 13290,12273 13290,12258 13290,12247 13283,12247 13266,12247 13254,12247 13251,12247 13238,12246 13223,12243 13223,12242 13223,12235 13223,12234 13223,12230 13225,12219 L 13273,12030 13515,12030 13468,12217 C 13462,12241 13461,12247 13405,12247 13392,12247 13383,12247 13383,12262 13383,12269 13388,12273 13395,12273 13416,12273 13468,12270 13488,12270 13501,12270 13526,12270 13538,12271 13553,12272 13571,12273 13585,12273 13588,12273 13600,12273 13600,12258 13600,12247 13593,12247 13576,12247 13564,12247 13561,12247 13548,12246 13533,12243 13533,12242 13533,12235 13533,12230 13535,12223 13535,12219 L 13631,11839 13631,11839 Z"/>
        <path fill="rgb(255,255,255)" stroke="none" d="M 13989,11822 C 13989,11810 13980,11795 13960,11795 13940,11795 13919,11813 13919,11834 13919,11846 13929,11862 13948,11862 13969,11862 13989,11841 13989,11822 L 13989,11822 Z M 13841,12189 C 13838,12198 13835,12207 13835,12219 13835,12253 13864,12280 13903,12280 13976,12280 14007,12181 14007,12170 14007,12160 13998,12160 13996,12160 13986,12160 13985,12165 13982,12173 13965,12230 13934,12260 13905,12260 13891,12260 13887,12251 13887,12235 13887,12218 13892,12204 13899,12189 13906,12169 13914,12150 13922,12131 13929,12113 13955,12048 13957,12039 13960,12032 13962,12023 13962,12016 13962,11982 13933,11955 13893,11955 13822,11955 13788,12053 13788,12065 13788,12075 13799,12075 13801,12075 13811,12075 13812,12071 13814,12063 13832,12001 13864,11975 13891,11975 13903,11975 13909,11981 13909,12000 13909,12017 13905,12028 13887,12072 L 13841,12189 13841,12189 Z"/>
       </g>
      </g>
      <g class="com.sun.star.drawing.CustomShape">
       <g id="id16">
        <rect class="BoundingBox" stroke="none" fill="none" x="9598" y="1444" width="2521" height="4426"/>
        <path fill="rgb(25,25,25)" stroke="none" d="M 12065,3656 C 12065,4036 12009,4408 11903,4736 11797,5065 11645,5337 11461,5527 11278,5716 11070,5816 10858,5816 10646,5816 10438,5716 10254,5527 10071,5337 9919,5065 9813,4736 9707,4408 9651,4036 9651,3657 9651,3277 9707,2905 9813,2577 9919,2248 10071,1976 10254,1786 10438,1597 10646,1497 10858,1497 11070,1497 11278,1597 11461,1786 11645,1976 11797,2248 11903,2577 12009,2905 12065,3277 12065,3656 L 12065,3656 Z"/>
        <path fill="none" stroke="rgb(255,255,255)" stroke-width="106" stroke-linejoin="round" d="M 12065,3656 C 12065,4036 12009,4408 11903,4736 11797,5065 11645,5337 11461,5527 11278,5716 11070,5816 10858,5816 10646,5816 10438,5716 10254,5527 10071,5337 9919,5065 9813,4736 9707,4408 9651,4036 9651,3657 9651,3277 9707,2905 9813,2577 9919,2248 10071,1976 10254,1786 10438,1597 10646,1497 10858,1497 11070,1497 11278,1597 11461,1786 11645,1976 11797,2248 11903,2577 12009,2905 12065,3277 12065,3656 L 12065,3656 Z"/>
       </g>
      </g>
      <g class="com.sun.star.drawing.CustomShape">
       <g id="id17">
        <rect class="BoundingBox" stroke="none" fill="none" x="10289" y="2869" width="1124" height="1632"/>
        <path fill="rgb(25,25,25)" stroke="none" d="M 11359,3685 C 11359,3818 11336,3950 11291,4066 11246,4182 11182,4278 11105,4345 11027,4412 10940,4447 10851,4447 10761,4447 10674,4412 10596,4345 10519,4278 10455,4182 10410,4066 10365,3950 10342,3818 10342,3685 10342,3551 10365,3419 10410,3303 10455,3187 10519,3091 10596,3024 10674,2957 10761,2922 10851,2922 10940,2922 11027,2957 11105,3024 11182,3091 11246,3187 11291,3303 11336,3419 11359,3551 11359,3684 L 11359,3685 Z"/>
        <path fill="none" stroke="rgb(255,255,255)" stroke-width="106" stroke-linejoin="round" d="M 11359,3680 C 11359,3682 11359,3683 11359,3684 L 11359,3685 C 11359,3720 11357,3755 11354,3790"/>
        <path fill="none" stroke="rgb(255,255,255)" stroke-width="106" stroke-linejoin="round" d="M 11339,3895 C 11332,3930 11324,3965 11314,3998"/>
        <path fill="none" stroke="rgb(255,255,255)" stroke-width="106" stroke-linejoin="round" d="M 11278,4098 C 11263,4131 11247,4163 11230,4192"/>
        <path fill="none" stroke="rgb(255,255,255)" stroke-width="106" stroke-linejoin="round" d="M 11169,4279 C 11149,4303 11127,4325 11105,4345 11101,4348 11098,4351 11094,4354"/>
        <path fill="none" stroke="rgb(255,255,255)" stroke-width="106" stroke-linejoin="round" d="M 11005,4411 C 10972,4427 10939,4437 10904,4443"/>
        <path fill="none" stroke="rgb(255,255,255)" stroke-width="106" stroke-linejoin="round" d="M 10799,4443 C 10765,4438 10731,4427 10698,4412"/>
        <path fill="none" stroke="rgb(255,255,255)" stroke-width="106" stroke-linejoin="round" d="M 10609,4355 C 10604,4352 10600,4348 10596,4345 10574,4326 10553,4304 10533,4281"/>
        <path fill="none" stroke="rgb(255,255,255)" stroke-width="106" stroke-linejoin="round" d="M 10472,4194 C 10455,4165 10439,4133 10424,4100"/>
        <path fill="none" stroke="rgb(255,255,255)" stroke-width="106" stroke-linejoin="round" d="M 10388,4000 C 10378,3967 10369,3933 10362,3897"/>
        <path fill="none" stroke="rgb(255,255,255)" stroke-width="106" stroke-linejoin="round" d="M 10347,3793 C 10344,3758 10342,3722 10342,3687"/>
        <path fill="none" stroke="rgb(255,255,255)" stroke-width="106" stroke-linejoin="round" d="M 10347,3581 C 10350,3545 10355,3510 10361,3476"/>
        <path fill="none" stroke="rgb(255,255,255)" stroke-width="106" stroke-linejoin="round" d="M 10386,3373 C 10393,3349 10401,3326 10410,3303 10414,3293 10418,3283 10422,3273"/>
        <path fill="none" stroke="rgb(255,255,255)" stroke-width="106" stroke-linejoin="round" d="M 10470,3179 C 10489,3147 10509,3118 10531,3092"/>
        <path fill="none" stroke="rgb(255,255,255)" stroke-width="106" stroke-linejoin="round" d="M 10605,3017 C 10634,2993 10663,2974 10694,2959"/>
        <path fill="none" stroke="rgb(255,255,255)" stroke-width="106" stroke-linejoin="round" d="M 10794,2927 C 10813,2924 10832,2922 10851,2922 10867,2922 10884,2923 10900,2926"/>
        <path fill="none" stroke="rgb(255,255,255)" stroke-width="106" stroke-linejoin="round" d="M 11001,2956 C 11032,2971 11062,2989 11091,3012"/>
        <path fill="none" stroke="rgb(255,255,255)" stroke-width="106" stroke-linejoin="round" d="M 11166,3087 C 11188,3113 11209,3142 11228,3173"/>
        <path fill="none" stroke="rgb(255,255,255)" stroke-width="106" stroke-linejoin="round" d="M 11276,3267 C 11281,3279 11286,3291 11291,3303 11299,3324 11306,3345 11313,3367"/>
        <path fill="none" stroke="rgb(255,255,255)" stroke-width="106" stroke-linejoin="round" d="M 11338,3469 C 11345,3504 11350,3539 11354,3574"/>
       </g>
      </g>
      <g class="com.sun.star.drawing.CustomShape">
       <g id="id18">
        <rect class="BoundingBox" stroke="none" fill="none" x="10488" y="2868" width="1124" height="1632"/>
        <path fill="rgb(25,25,25)" stroke="none" d="M 11558,3683 C 11558,3817 11535,3949 11490,4065 11445,4181 11381,4277 11304,4344 11226,4411 11139,4446 11050,4446 10960,4446 10873,4411 10795,4344 10718,4277 10654,4181 10609,4065 10564,3949 10541,3817 10541,3684 10541,3550 10564,3418 10609,3302 10654,3186 10718,3090 10795,3023 10873,2956 10960,2921 11050,2921 11139,2921 11226,2956 11304,3023 11381,3090 11445,3186 11490,3302 11535,3418 11558,3550 11558,3683 L 11558,3683 Z"/>
        <path fill="none" stroke="rgb(255,255,255)" stroke-width="106" stroke-linejoin="round" d="M 11558,3683 C 11558,3817 11535,3949 11490,4065 11445,4181 11381,4277 11304,4344 11226,4411 11139,4446 11050,4446 10960,4446 10873,4411 10795,4344 10718,4277 10654,4181 10609,4065 10564,3949 10541,3817 10541,3684 10541,3550 10564,3418 10609,3302 10654,3186 10718,3090 10795,3023 10873,2956 10960,2921 11050,2921 11139,2921 11226,2956 11304,3023 11381,3090 11445,3186 11490,3302 11535,3418 11558,3550 11558,3683 L 11558,3683 Z"/>
       </g>
      </g>
      <g class="com.sun.star.drawing.CustomShape">
       <g id="id19">
        <rect class="BoundingBox" stroke="none" fill="none" x="4704" y="4271" width="4620" height="3162"/>
        <path fill="none" stroke="rgb(236,46,215)" stroke-width="106" stroke-linejoin="round" d="M 9207,6993 C 9114,7171 8922,7293 8649,7347 8376,7401 8033,7385 7653,7301 7273,7216 6870,7066 6485,6866 6100,6666 5747,6422 5459,6160 5172,5897 4962,5625 4850,5370 4738,5116 4727,4888 4820,4710 4913,4532 5105,4410 5378,4356 5650,4302 5994,4318 6374,4403 6753,4487 7156,4637 7541,4837 7926,5038 8280,5281 8567,5544 8854,5806 9064,6078 9177,6333 9289,6587 9299,6815 9207,6993 L 9207,6993 Z"/>
       </g>
      </g>
      <g class="com.sun.star.drawing.LineShape">
       <g id="id20">
        <rect class="BoundingBox" stroke="none" fill="none" x="2106" y="4646" width="2774" height="5314"/>
        <path fill="none" stroke="rgb(236,46,215)" stroke-width="106" stroke-linejoin="round" d="M 4826,4699 L 2159,9906"/>
       </g>
      </g>
      <g class="com.sun.star.drawing.LineShape">
       <g id="id21">
        <rect class="BoundingBox" stroke="none" fill="none" x="6423" y="7059" width="2775" height="5187"/>
        <path fill="none" stroke="rgb(236,46,215)" stroke-width="106" stroke-linejoin="round" d="M 9144,7112 L 6477,12192"/>
       </g>
      </g>
      <g class="com.sun.star.drawing.CustomShape">
       <g id="id22">
        <rect class="BoundingBox" stroke="none" fill="none" x="2062" y="9438" width="4620" height="3162"/>
        <path fill="none" stroke="rgb(236,46,215)" stroke-width="106" stroke-linejoin="round" d="M 6565,12160 C 6472,12338 6280,12460 6007,12514 5734,12568 5391,12552 5011,12468 4631,12383 4228,12233 3843,12033 3458,11833 3105,11589 2817,11327 2530,11064 2320,10792 2208,10537 2096,10283 2085,10055 2178,9877 2271,9699 2463,9577 2736,9523 3008,9469 3352,9485 3732,9570 4111,9654 4514,9804 4899,10004 5284,10205 5638,10448 5925,10711 6212,10973 6422,11245 6535,11500 6647,11754 6657,11982 6565,12160 L 6565,12160 Z"/>
       </g>
      </g>
      <g class="Group">
       <g class="com.sun.star.drawing.LineShape">
        <g id="id23">
         <rect class="BoundingBox" stroke="none" fill="none" x="5039" y="8849" width="2963" height="1820"/>
         <path fill="none" stroke="rgb(255,0,0)" stroke-width="81" stroke-linejoin="round" d="M 5080,8890 L 7486,10354"/>
         <path fill="rgb(255,0,0)" stroke="none" d="M 8001,10668 L 7571,10160 7352,10519 8001,10668 Z"/>
        </g>
       </g>
       <g class="com.sun.star.drawing.LineShape">
        <g id="id24">
         <rect class="BoundingBox" stroke="none" fill="none" x="5039" y="7825" width="3979" height="1094"/>
         <path fill="none" stroke="rgb(129,212,26)" stroke-width="81" stroke-linejoin="round" d="M 5080,8877 L 8432,8023"/>
         <path fill="rgb(129,212,26)" stroke="none" d="M 9017,7874 L 8353,7826 8457,8234 9017,7874 Z"/>
        </g>
       </g>
       <g class="com.sun.star.drawing.LineShape">
        <g id="id25">
         <rect class="BoundingBox" stroke="none" fill="none" x="5039" y="5334" width="2074" height="3598"/>
         <path fill="none" stroke="rgb(89,131,176)" stroke-width="81" stroke-linejoin="round" d="M 5080,8890 L 6813,5858"/>
         <path fill="rgb(89,131,176)" stroke="none" d="M 7112,5334 L 6616,5778 6981,5987 7112,5334 Z"/>
        </g>
       </g>
      </g>
      <g class="com.sun.star.drawing.OpenBezierShape">
       <g id="id26">
        <rect class="BoundingBox" stroke="none" fill="none" x="10996" y="2868" width="361" height="1631"/>
        <path fill="none" stroke="rgb(255,255,255)" stroke-width="106" stroke-linejoin="round" d="M 11049,2921 C 11303,3175 11303,3556 11303,3683 11303,3810 11303,4191 11176,4318 L 11049,4445"/>
       </g>
      </g>
     </g>
    </g>
   </g>
  </g>
 </g>
</svg>