<?xml version="1.0" encoding="utf-8" standalone="no"?>
<!DOCTYPE svg PUBLIC "-//W3C//DTD SVG 1.1//EN"
  "http://www.w3.org/Graphics/SVG/1.1/DTD/svg11.dtd">
<svg xmlns:xlink="http://www.w3.org/1999/xlink" width="432pt" height="432pt" viewBox="0 0 432 432" xmlns="http://www.w3.org/2000/svg" version="1.1">
 <metadata>
  <rdf:RDF xmlns:dc="http://purl.org/dc/elements/1.1/" xmlns:cc="http://creativecommons.org/ns#" xmlns:rdf="http://www.w3.org/1999/02/22-rdf-syntax-ns#">
   <cc:Work>
    <dc:type rdf:resource="http://purl.org/dc/dcmitype/StillImage"/>
    <dc:date>2025-03-08T17:42:34.958617</dc:date>
    <dc:format>image/svg+xml</dc:format>
    <dc:creator>
     <cc:Agent>
      <dc:title>Matplotlib v3.10.0, https://matplotlib.org/</dc:title>
     </cc:Agent>
    </dc:creator>
   </cc:Work>
  </rdf:RDF>
 </metadata>
 <defs>
  <style type="text/css">*{stroke-linejoin: round; stroke-linecap: butt}</style>
 </defs>
 <g id="figure_1">
  <g id="patch_1">
   <path d="M 0 432 
L 432 432 
L 432 0 
L 0 0 
z
" style="fill: #191919"/>
  </g>
  <g id="axes_1">
   <g id="patch_2">
    <path d="M 54 384.48 
L 388.8 384.48 
L 388.8 51.84 
L 54 51.84 
z
" style="fill: #191919"/>
   </g>
   <g id="matplotlib.axis_1"/>
   <g id="matplotlib.axis_2"/>
   <g id="line2d_1">
    <path d="M 136.067606 228.244955 
L 83.506243 326.519517 
L 83.506243 369.36 
L 220.189701 309.310681 
L 300.73174 213.402143 
L 359.293757 103.908091 
L 359.293757 66.96 
L 249.430065 127.055529 
L 136.067606 228.244955 
" clip-path="url(#p9f8bd628a2)" style="fill: none; stroke: #81d41a; stroke-width: 2; stroke-linecap: square"/>
   </g>
   <g id="PathCollection_1">
    <defs>
     <path id="m50357c2594" d="M 0 5 
C 1.326016 5 2.597899 4.473168 3.535534 3.535534 
C 4.473168 2.597899 5 1.326016 5 0 
C 5 -1.326016 4.473168 -2.597899 3.535534 -3.535534 
C 2.597899 -4.473168 1.326016 -5 0 -5 
C -1.326016 -5 -2.597899 -4.473168 -3.535534 -3.535534 
C -4.473168 -2.597899 -5 -1.326016 -5 0 
C -5 1.326016 -4.473168 2.597899 -3.535534 3.535534 
C -2.597899 4.473168 -1.326016 5 0 5 
z
" style="stroke: #ffb66c"/>
    </defs>
    <g clip-path="url(#p9f8bd628a2)">
     <use xlink:href="#m50357c2594" x="359.293757" y="66.96" style="fill: #ffb66c; stroke: #ffb66c"/>
    </g>
   </g>
   <g id="PathCollection_2">
    <g clip-path="url(#p9f8bd628a2)">
     <use xlink:href="#m50357c2594" x="243.210345" y="194.245037" style="fill: #ffb66c; stroke: #ffb66c"/>
    </g>
   </g>
   <g id="PathCollection_3">
    <g clip-path="url(#p9f8bd628a2)">
     <use xlink:href="#m50357c2594" x="263.465665" y="233.914178" style="fill: #ffb66c; stroke: #ffb66c"/>
    </g>
   </g>
   <g id="PathCollection_4">
    <g clip-path="url(#p9f8bd628a2)">
     <use xlink:href="#m50357c2594" x="283.625821" y="233.771675" style="fill: #ffb66c; stroke: #ffb66c"/>
    </g>
   </g>
   <g id="PathCollection_5">
    <g clip-path="url(#p9f8bd628a2)">
     <use xlink:href="#m50357c2594" x="283.625821" y="233.771675" style="fill: #ffb66c; stroke: #ffb66c"/>
    </g>
   </g>
   <g id="PathCollection_6">
    <defs>
     <path id="mc6979ff119" d="M 0 5 
C 1.326016 5 2.597899 4.473168 3.535534 3.535534 
C 4.473168 2.597899 5 1.326016 5 0 
C 5 -1.326016 4.473168 -2.597899 3.535534 -3.535534 
C 2.597899 -4.473168 1.326016 -5 0 -5 
C -1.326016 -5 -2.597899 -4.473168 -3.535534 -3.535534 
C -4.473168 -2.597899 -5 -1.326016 -5 0 
C -5 1.326016 -4.473168 2.597899 -3.535534 3.535534 
C -2.597899 4.473168 -1.326016 5 0 5 
z
" style="stroke: #ffffff"/>
    </defs>
    <g clip-path="url(#p9f8bd628a2)">
     <use xlink:href="#mc6979ff119" x="327.704078" y="270.312316" style="fill: #ffffff; stroke: #ffffff"/>
    </g>
   </g>
  </g>
 </g>
 <defs>
  <clipPath id="p9f8bd628a2">
   <rect x="54" y="51.84" width="334.8" height="332.64"/>
  </clipPath>
 </defs>
</svg>
