<?xml version="1.0" encoding="utf-8" standalone="no"?>
<!DOCTYPE svg PUBLIC "-//W3C//DTD SVG 1.1//EN"
  "http://www.w3.org/Graphics/SVG/1.1/DTD/svg11.dtd">
<svg xmlns:xlink="http://www.w3.org/1999/xlink" width="432pt" height="432pt" viewBox="0 0 432 432" xmlns="http://www.w3.org/2000/svg" version="1.1">
 <metadata>
  <rdf:RDF xmlns:dc="http://purl.org/dc/elements/1.1/" xmlns:cc="http://creativecommons.org/ns#" xmlns:rdf="http://www.w3.org/1999/02/22-rdf-syntax-ns#">
   <cc:Work>
    <dc:type rdf:resource="http://purl.org/dc/dcmitype/StillImage"/>
    <dc:date>2025-03-08T13:06:13.777523</dc:date>
    <dc:format>image/svg+xml</dc:format>
    <dc:creator>
     <cc:Agent>
      <dc:title>Matplotlib v3.10.0, https://matplotlib.org/</dc:title>
     </cc:Agent>
    </dc:creator>
   </cc:Work>
  </rdf:RDF>
 </metadata>
 <defs>
  <style type="text/css">*{stroke-linejoin: round; stroke-linecap: butt}</style>
 </defs>
 <g id="figure_1">
  <g id="patch_1">
   <path d="M 0 432 
L 432 432 
L 432 0 
L 0 0 
z
" style="fill: #191919"/>
  </g>
  <g id="axes_1">
   <g id="patch_2">
    <path d="M 54 384.48 
L 388.8 384.48 
L 388.8 51.84 
L 54 51.84 
z
" style="fill: #191919"/>
   </g>
   <g id="PathCollection_1">
    <defs>
     <path id="m5878777694" d="M 0 3.535534 
C 0.937635 3.535534 1.836992 3.163008 2.5 2.5 
C 3.163008 1.836992 3.535534 0.937635 3.535534 0 
C 3.535534 -0.937635 3.163008 -1.836992 2.5 -2.5 
C 1.836992 -3.163008 0.937635 -3.535534 0 -3.535534 
C -0.937635 -3.535534 -1.836992 -3.163008 -2.5 -2.5 
C -3.163008 -1.836992 -3.535534 -0.937635 -3.535534 0 
C -3.535534 0.937635 -3.163008 1.836992 -2.5 2.5 
C -1.836992 3.163008 -0.937635 3.535534 0 3.535534 
z
" style="stroke: #ec2ed7"/>
    </defs>
    <g clip-path="url(#p6bf4981a72)">
     <use xlink:href="#m5878777694" x="359.293757" y="66.96" style="fill: #ec2ed7; stroke: #ec2ed7"/>
     <use xlink:href="#m5878777694" x="220.189701" y="309.310681" style="fill: #ec2ed7; stroke: #ec2ed7"/>
     <use xlink:href="#m5878777694" x="359.293757" y="66.96" style="fill: #ec2ed7; stroke: #ec2ed7"/>
    </g>
   </g>
   <g id="QuadContourSet_1">
    <path clip-path="url(#p6bf4981a72)" style="fill: none; stroke: #beffbe; stroke-width: 1.5"/>
    <path clip-path="url(#p6bf4981a72)" style="fill: none; stroke: #b4f4b4; stroke-width: 1.5"/>
    <path clip-path="url(#p6bf4981a72)" style="fill: none; stroke: #abeaab; stroke-width: 1.5"/>
    <path clip-path="url(#p6bf4981a72)" style="fill: none; stroke: #a1e0a1; stroke-width: 1.5"/>
    <path clip-path="url(#p6bf4981a72)" style="fill: none; stroke: #99d799; stroke-width: 1.5"/>
    <path clip-path="url(#p6bf4981a72)" style="fill: none; stroke: #90cd90; stroke-width: 1.5"/>
    <path d="M 60.796129 51.84 
L 60.712782 51.985206 
L 59.873684 53.447068 
L 59.034586 54.908929 
L 58.195489 56.370791 
L 57.356391 57.832652 
L 56.899539 58.628571 
L 56.517293 59.294514 
L 55.678195 60.756375 
L 54.839098 62.218237 
L 54 63.680098 
" clip-path="url(#p6bf4981a72)" style="fill: none; stroke: #88c488; stroke-width: 1.5"/>
    <path d="M 81.443995 51.84 
L 80.851128 52.872883 
L 80.01203 54.334745 
L 79.172932 55.796606 
L 78.333835 57.258468 
L 77.547405 58.628571 
L 77.494737 58.720329 
L 76.655639 60.182191 
L 75.816541 61.644052 
L 74.977444 63.105914 
L 74.138346 64.567775 
L 73.650815 65.417143 
L 73.299248 66.029637 
L 72.46015 67.491498 
L 71.621053 68.95336 
L 70.781955 70.415221 
L 69.942857 71.877083 
L 69.754225 72.205714 
L 69.103759 73.338944 
L 68.264662 74.800806 
L 67.425564 76.262667 
L 66.586466 77.724529 
L 65.857635 78.994286 
L 65.747368 79.18639 
L 64.908271 80.648252 
L 64.069173 82.110113 
L 63.230075 83.571975 
L 62.390977 85.033836 
L 61.961045 85.782857 
L 61.55188 86.495698 
L 60.712782 87.957559 
L 59.873684 89.419421 
L 59.034586 90.881282 
L 58.195489 92.343144 
L 58.064455 92.571429 
L 57.356391 93.805005 
L 56.517293 95.266867 
L 55.678195 96.728728 
L 54.839098 98.19059 
L 54.167865 99.36 
L 54 99.652451 
" clip-path="url(#p6bf4981a72)" style="fill: none; stroke: #7fbc7f; stroke-width: 1.5"/>
    <path d="M 102.091861 51.84 
L 101.828571 52.298698 
L 100.989474 53.76056 
L 100.150376 55.222421 
L 99.311278 56.684283 
L 98.47218 58.146144 
L 98.195271 58.628571 
L 97.633083 59.608006 
L 96.793985 61.069867 
L 95.954887 62.531729 
L 95.115789 63.99359 
L 94.298681 65.417143 
L 94.276692 65.455452 
L 93.437594 66.917313 
L 92.598496 68.379175 
L 91.759398 69.841036 
L 90.920301 71.302898 
L 90.402091 72.205714 
L 90.081203 72.764759 
L 89.242105 74.226621 
L 88.403008 75.688482 
L 87.56391 77.150344 
L 86.724812 78.612205 
L 86.505501 78.994286 
L 85.885714 80.074067 
L 85.046617 81.535929 
L 84.207519 82.99779 
L 83.368421 84.459652 
L 82.608911 85.782857 
L 82.529323 85.921513 
L 81.690226 87.383375 
L 80.851128 88.845236 
L 80.01203 90.307098 
L 79.172932 91.768959 
L 78.712321 92.571429 
L 78.333835 93.230821 
L 77.494737 94.692682 
L 76.655639 96.154544 
L 75.816541 97.616405 
L 74.977444 99.078267 
L 74.815731 99.36 
L 74.138346 100.540128 
L 73.299248 102.00199 
L 72.46015 103.463851 
L 71.621053 104.925713 
L 70.919141 106.148571 
L 70.781955 106.387574 
L 69.942857 107.849436 
L 69.103759 109.311297 
L 68.264662 110.773159 
L 67.425564 112.23502 
L 67.022551 112.937143 
L 66.586466 113.696882 
L 65.747368 115.158743 
L 64.908271 116.620605 
L 64.069173 118.082466 
L 63.230075 119.544328 
L 63.125961 119.725714 
L 62.390977 121.006189 
L 61.55188 122.468051 
L 60.712782 123.929912 
L 59.873684 125.391774 
L 59.229371 126.514286 
L 59.034586 126.853635 
L 58.195489 128.315497 
L 57.356391 129.777358 
L 56.517293 131.23922 
L 55.678195 132.701082 
L 55.332781 133.302857 
L 54.839098 134.162943 
L 54 135.624805 
" clip-path="url(#p6bf4981a72)" style="fill: none; stroke: #78b378; stroke-width: 1.5"/>
    <path d="M 122.739727 51.84 
L 121.966917 53.186375 
L 121.12782 54.648236 
L 120.288722 56.110098 
L 119.449624 57.57196 
L 118.843137 58.628571 
L 118.610526 59.033821 
L 117.771429 60.495683 
L 116.932331 61.957544 
L 116.093233 63.419406 
L 115.254135 64.881267 
L 114.946547 65.417143 
L 114.415038 66.343129 
L 113.57594 67.80499 
L 112.736842 69.266852 
L 111.897744 70.728713 
L 111.058647 72.190575 
L 111.049957 72.205714 
L 110.219549 73.652436 
L 109.380451 75.114298 
L 108.541353 76.576159 
L 107.702256 78.038021 
L 107.153367 78.994286 
L 106.863158 79.499882 
L 106.02406 80.961744 
L 105.184962 82.423605 
L 104.345865 83.885467 
L 103.506767 85.347328 
L 103.256777 85.782857 
L 102.667669 86.80919 
L 101.828571 88.271051 
L 100.989474 89.732913 
L 100.150376 91.194774 
L 99.360187 92.571429 
L 99.311278 92.656636 
L 98.47218 94.118497 
L 97.633083 95.580359 
L 96.793985 97.04222 
L 95.954887 98.504082 
L 95.463597 99.36 
L 95.115789 99.965943 
L 94.276692 101.427805 
L 93.437594 102.889666 
L 92.598496 104.351528 
L 91.759398 105.813389 
L 91.567007 106.148571 
L 90.920301 107.275251 
L 90.081203 108.737113 
L 89.242105 110.198974 
L 88.403008 111.660836 
L 87.670417 112.937143 
L 87.56391 113.122697 
L 86.724812 114.584559 
L 85.885714 116.04642 
L 85.046617 117.508282 
L 84.207519 118.970143 
L 83.773827 119.725714 
L 83.368421 120.432005 
L 82.529323 121.893866 
L 81.690226 123.355728 
L 80.851128 124.817589 
L 80.01203 126.279451 
L 79.877236 126.514286 
L 79.172932 127.741312 
L 78.333835 129.203174 
L 77.494737 130.665035 
L 76.655639 132.126897 
L 75.980646 133.302857 
L 75.816541 133.588758 
L 74.977444 135.05062 
L 74.138346 136.512481 
L 73.299248 137.974343 
L 72.46015 139.436204 
L 72.084056 140.091429 
L 71.621053 140.898066 
L 70.781955 142.359927 
L 69.942857 143.821789 
L 69.103759 145.28365 
L 68.264662 146.745512 
L 68.187466 146.88 
L 67.425564 148.207373 
L 66.586466 149.669235 
L 65.747368 151.131096 
L 64.908271 152.592958 
L 64.290876 153.668571 
L 64.069173 154.054819 
L 63.230075 155.516681 
L 62.390977 156.978542 
L 61.55188 158.440404 
L 60.712782 159.902266 
L 60.394286 160.457143 
L 59.873684 161.364127 
L 59.034586 162.825989 
L 58.195489 164.28785 
L 57.356391 165.749712 
L 56.517293 167.211573 
L 56.497696 167.245714 
L 55.678195 168.673435 
L 54.839098 170.135296 
L 54 171.597158 
" clip-path="url(#p6bf4981a72)" style="fill: none; stroke: #70ab70; stroke-width: 1.5"/>
    <path d="M 143.387592 51.84 
L 54 207.569511 
L 54 207.569511 
" clip-path="url(#p6bf4981a72)" style="fill: none; stroke: #69a369; stroke-width: 1.5"/>
    <path d="M 164.035458 51.84 
L 54 243.541864 
L 54 243.541864 
" clip-path="url(#p6bf4981a72)" style="fill: none; stroke: #619b61; stroke-width: 1.5"/>
    <path d="M 184.683324 51.84 
L 54 279.514217 
L 54 279.514217 
" clip-path="url(#p6bf4981a72)" style="fill: none; stroke: #5b945b; stroke-width: 1.5"/>
    <path d="M 205.33119 51.84 
L 54 315.48657 
L 54 315.48657 
" clip-path="url(#p6bf4981a72)" style="fill: none; stroke: #548d54; stroke-width: 1.5"/>
    <path d="M 225.979055 51.84 
L 54 351.458923 
L 54 351.458923 
" clip-path="url(#p6bf4981a72)" style="fill: none; stroke: #4e864e; stroke-width: 1.5"/>
    <path d="M 246.626921 51.84 
L 55.694011 384.48 
L 55.694011 384.48 
" clip-path="url(#p6bf4981a72)" style="fill: none; stroke: #477f47; stroke-width: 1.5"/>
    <path d="M 267.274787 51.84 
L 76.341877 384.48 
L 76.341877 384.48 
" clip-path="url(#p6bf4981a72)" style="fill: none; stroke: #427942; stroke-width: 1.5"/>
    <path d="M 287.922653 51.84 
L 96.989742 384.48 
L 96.989742 384.48 
" clip-path="url(#p6bf4981a72)" style="fill: none; stroke: #3c733c; stroke-width: 1.5"/>
    <path d="M 308.570519 51.84 
L 117.637608 384.48 
L 117.637608 384.48 
" clip-path="url(#p6bf4981a72)" style="fill: none; stroke: #376d37; stroke-width: 1.5"/>
    <path d="M 329.218384 51.84 
L 138.285474 384.48 
L 138.285474 384.48 
" clip-path="url(#p6bf4981a72)" style="fill: none; stroke: #316731; stroke-width: 1.5"/>
    <path d="M 349.86625 51.84 
L 158.93334 384.48 
L 158.93334 384.48 
" clip-path="url(#p6bf4981a72)" style="fill: none; stroke: #2d622d; stroke-width: 1.5"/>
    <path d="M 370.514116 51.84 
L 179.581205 384.48 
L 179.581205 384.48 
" clip-path="url(#p6bf4981a72)" style="fill: none; stroke: #285d28; stroke-width: 1.5"/>
    <path d="M 388.8 55.955003 
L 200.229071 384.48 
L 200.229071 384.48 
" clip-path="url(#p6bf4981a72)" style="fill: none; stroke: #245824; stroke-width: 1.5"/>
    <path d="M 388.8 91.927357 
L 220.876937 384.48 
L 220.876937 384.48 
" clip-path="url(#p6bf4981a72)" style="fill: none; stroke: #1f541f; stroke-width: 1.5"/>
    <path d="M 388.8 127.89971 
L 241.524803 384.48 
L 241.524803 384.48 
" clip-path="url(#p6bf4981a72)" style="fill: none; stroke: #1c501c; stroke-width: 1.5"/>
    <path d="M 388.8 163.872063 
L 262.172669 384.48 
L 262.172669 384.48 
" clip-path="url(#p6bf4981a72)" style="fill: none; stroke: #184c18; stroke-width: 1.5"/>
    <path d="M 388.8 199.844416 
L 282.820534 384.48 
L 282.820534 384.48 
" clip-path="url(#p6bf4981a72)" style="fill: none; stroke: #154815; stroke-width: 1.5"/>
    <path d="M 388.8 235.816769 
L 387.960902 237.27863 
L 387.121805 238.740492 
L 386.282707 240.202353 
L 385.443609 241.664215 
L 385.29679 241.92 
L 384.604511 243.126076 
L 383.765414 244.587938 
L 382.926316 246.0498 
L 382.087218 247.511661 
L 381.4002 248.708571 
L 381.24812 248.973523 
L 380.409023 250.435384 
L 379.569925 251.897246 
L 378.730827 253.359107 
L 377.891729 254.820969 
L 377.50361 255.497143 
L 377.052632 256.28283 
L 376.213534 257.744692 
L 375.374436 259.206553 
L 374.535338 260.668415 
L 373.696241 262.130276 
L 373.60702 262.285714 
L 372.857143 263.592138 
L 372.018045 265.053999 
L 371.178947 266.515861 
L 370.33985 267.977722 
L 369.71043 269.074286 
L 369.500752 269.439584 
L 368.661654 270.901445 
L 367.822556 272.363307 
L 366.983459 273.825168 
L 366.144361 275.28703 
L 365.81384 275.862857 
L 365.305263 276.748891 
L 364.466165 278.210753 
L 363.627068 279.672614 
L 362.78797 281.134476 
L 361.948872 282.596337 
L 361.91725 282.651429 
L 361.109774 284.058199 
L 360.270677 285.52006 
L 359.431579 286.981922 
L 358.592481 288.443783 
L 358.02066 289.44 
L 357.753383 289.905645 
L 356.914286 291.367506 
L 356.075188 292.829368 
L 355.23609 294.291229 
L 354.396992 295.753091 
L 354.12407 296.228571 
L 353.557895 297.214953 
L 352.718797 298.676814 
L 351.879699 300.138676 
L 351.040602 301.600537 
L 350.22748 303.017143 
L 350.201504 303.062399 
L 349.362406 304.52426 
L 348.523308 305.986122 
L 347.684211 307.447983 
L 346.845113 308.909845 
L 346.33089 309.805714 
L 346.006015 310.371706 
L 345.166917 311.833568 
L 344.32782 313.295429 
L 343.488722 314.757291 
L 342.649624 316.219152 
L 342.4343 316.594286 
L 341.810526 317.681014 
L 340.971429 319.142875 
L 340.132331 320.604737 
L 339.293233 322.066598 
L 338.53771 323.382857 
L 338.454135 323.52846 
L 337.615038 324.990321 
L 336.77594 326.452183 
L 335.936842 327.914044 
L 335.097744 329.375906 
L 334.64112 330.171429 
L 334.258647 330.837767 
L 333.419549 332.299629 
L 332.580451 333.76149 
L 331.741353 335.223352 
L 330.902256 336.685213 
L 330.74453 336.96 
L 330.063158 338.147075 
L 329.22406 339.608936 
L 328.384962 341.070798 
L 327.545865 342.532659 
L 326.84794 343.748571 
L 326.706767 343.994521 
L 325.867669 345.456383 
L 325.028571 346.918244 
L 324.189474 348.380106 
L 323.350376 349.841967 
L 322.95135 350.537143 
L 322.511278 351.303829 
L 321.67218 352.76569 
L 320.833083 354.227552 
L 319.993985 355.689413 
L 319.154887 357.151275 
L 319.05476 357.325714 
L 318.315789 358.613136 
L 317.476692 360.074998 
L 316.637594 361.536859 
L 315.798496 362.998721 
L 315.15817 364.114286 
L 314.959398 364.460582 
L 314.120301 365.922444 
L 313.281203 367.384305 
L 312.442105 368.846167 
L 311.603008 370.308028 
L 311.26158 370.902857 
L 310.76391 371.76989 
L 309.924812 373.231751 
L 309.085714 374.693613 
L 308.246617 376.155474 
L 307.407519 377.617336 
L 307.36499 377.691429 
L 306.568421 379.079197 
L 305.729323 380.541059 
L 304.890226 382.00292 
L 304.051128 383.464782 
L 303.4684 384.48 
" clip-path="url(#p6bf4981a72)" style="fill: none; stroke: #114511; stroke-width: 1.5"/>
    <path d="M 388.8 271.789122 
L 387.960902 273.250984 
L 387.121805 274.712845 
L 386.461706 275.862857 
L 386.282707 276.174707 
L 385.443609 277.636568 
L 384.604511 279.09843 
L 383.765414 280.560291 
L 382.926316 282.022153 
L 382.565116 282.651429 
L 382.087218 283.484014 
L 381.24812 284.945876 
L 380.409023 286.407737 
L 379.569925 287.869599 
L 378.730827 289.33146 
L 378.668526 289.44 
L 377.891729 290.793322 
L 377.052632 292.255183 
L 376.213534 293.717045 
L 375.374436 295.178906 
L 374.771936 296.228571 
L 374.535338 296.640768 
L 373.696241 298.102629 
L 372.857143 299.564491 
L 372.018045 301.026352 
L 371.178947 302.488214 
L 370.875346 303.017143 
L 370.33985 303.950075 
L 369.500752 305.411937 
L 368.661654 306.873798 
L 367.822556 308.33566 
L 366.983459 309.797521 
L 366.978756 309.805714 
L 366.144361 311.259383 
L 365.305263 312.721244 
L 364.466165 314.183106 
L 363.627068 315.644967 
L 363.082166 316.594286 
L 362.78797 317.106829 
L 361.948872 318.56869 
L 361.109774 320.030552 
L 360.270677 321.492413 
L 359.431579 322.954275 
L 359.185576 323.382857 
L 358.592481 324.416137 
L 357.753383 325.877998 
L 356.914286 327.33986 
L 356.075188 328.801721 
L 355.288986 330.171429 
L 355.23609 330.263583 
L 354.396992 331.725444 
L 353.557895 333.187306 
L 352.718797 334.649167 
L 351.879699 336.111029 
L 351.392396 336.96 
L 351.040602 337.57289 
L 350.201504 339.034752 
L 349.362406 340.496613 
L 348.523308 341.958475 
L 347.684211 343.420336 
L 347.495806 343.748571 
L 346.845113 344.882198 
L 346.006015 346.344059 
L 345.166917 347.805921 
L 344.32782 349.267782 
L 343.599216 350.537143 
L 343.488722 350.729644 
L 342.649624 352.191505 
L 341.810526 353.653367 
L 340.971429 355.115228 
L 340.132331 356.57709 
L 339.702626 357.325714 
L 339.293233 358.038951 
L 338.454135 359.500813 
L 337.615038 360.962674 
L 336.77594 362.424536 
L 335.936842 363.886397 
L 335.806036 364.114286 
L 335.097744 365.348259 
L 334.258647 366.81012 
L 333.419549 368.271982 
L 332.580451 369.733843 
L 331.909446 370.902857 
L 331.741353 371.195705 
L 330.902256 372.657567 
L 330.063158 374.119428 
L 329.22406 375.58129 
L 328.384962 377.043151 
L 328.012856 377.691429 
L 327.545865 378.505013 
L 326.706767 379.966874 
L 325.867669 381.428736 
L 325.028571 382.890597 
L 324.189474 384.352459 
L 324.116266 384.48 
" clip-path="url(#p6bf4981a72)" style="fill: none; stroke: #0f420f; stroke-width: 1.5"/>
    <path d="M 388.8 307.761475 
L 387.960902 309.223337 
L 387.626622 309.805714 
L 387.121805 310.685198 
L 386.282707 312.14706 
L 385.443609 313.608921 
L 384.604511 315.070783 
L 383.765414 316.532644 
L 383.730032 316.594286 
L 382.926316 317.994506 
L 382.087218 319.456367 
L 381.24812 320.918229 
L 380.409023 322.38009 
L 379.833442 323.382857 
L 379.569925 323.841952 
L 378.730827 325.303813 
L 377.891729 326.765675 
L 377.052632 328.227536 
L 376.213534 329.689398 
L 375.936852 330.171429 
L 375.374436 331.151259 
L 374.535338 332.613121 
L 373.696241 334.074982 
L 372.857143 335.536844 
L 372.040262 336.96 
L 372.018045 336.998705 
L 371.178947 338.460567 
L 370.33985 339.922428 
L 369.500752 341.38429 
L 368.661654 342.846151 
L 368.143672 343.748571 
L 367.822556 344.308013 
L 366.983459 345.769874 
L 366.144361 347.231736 
L 365.305263 348.693598 
L 364.466165 350.155459 
L 364.247082 350.537143 
L 363.627068 351.617321 
L 362.78797 353.079182 
L 361.948872 354.541044 
L 361.109774 356.002905 
L 360.350492 357.325714 
L 360.270677 357.464767 
L 359.431579 358.926628 
L 358.592481 360.38849 
L 357.753383 361.850351 
L 356.914286 363.312213 
L 356.453902 364.114286 
L 356.075188 364.774074 
L 355.23609 366.235936 
L 354.396992 367.697797 
L 353.557895 369.159659 
L 352.718797 370.62152 
L 352.557312 370.902857 
L 351.879699 372.083382 
L 351.040602 373.545243 
L 350.201504 375.007105 
L 349.362406 376.468966 
L 348.660722 377.691429 
L 348.523308 377.930828 
L 347.684211 379.392689 
L 346.845113 380.854551 
L 346.006015 382.316412 
L 345.166917 383.778274 
L 344.764132 384.48 
" clip-path="url(#p6bf4981a72)" style="fill: none; stroke: #0c3f0c; stroke-width: 1.5"/>
    <path d="M 388.8 343.733828 
L 388.791537 343.748571 
L 387.960902 345.19569 
L 387.121805 346.657551 
L 386.282707 348.119413 
L 385.443609 349.581274 
L 384.894947 350.537143 
L 384.604511 351.043136 
L 383.765414 352.504997 
L 382.926316 353.966859 
L 382.087218 355.42872 
L 381.24812 356.890582 
L 380.998357 357.325714 
L 380.409023 358.352443 
L 379.569925 359.814305 
L 378.730827 361.276166 
L 377.891729 362.738028 
L 377.101767 364.114286 
L 377.052632 364.199889 
L 376.213534 365.661751 
L 375.374436 367.123612 
L 374.535338 368.585474 
L 373.696241 370.047335 
L 373.205177 370.902857 
L 372.857143 371.509197 
L 372.018045 372.971058 
L 371.178947 374.43292 
L 370.33985 375.894782 
L 369.500752 377.356643 
L 369.308587 377.691429 
L 368.661654 378.818505 
L 367.822556 380.280366 
L 366.983459 381.742228 
L 366.144361 383.204089 
L 365.411997 384.48 
" clip-path="url(#p6bf4981a72)" style="fill: none; stroke: #0a3c0a; stroke-width: 1.5"/>
    <path d="M 388.8 379.706181 
L 387.960902 381.168043 
L 387.121805 382.629904 
L 386.282707 384.091766 
L 386.059863 384.48 
" clip-path="url(#p6bf4981a72)" style="fill: none; stroke: #073a07; stroke-width: 1.5"/>
    <path clip-path="url(#p6bf4981a72)" style="fill: none; stroke: #063806; stroke-width: 1.5"/>
    <path clip-path="url(#p6bf4981a72)" style="fill: none; stroke: #043604; stroke-width: 1.5"/>
    <path clip-path="url(#p6bf4981a72)" style="fill: none; stroke: #033503; stroke-width: 1.5"/>
    <path clip-path="url(#p6bf4981a72)" style="fill: none; stroke: #013401; stroke-width: 1.5"/>
    <path clip-path="url(#p6bf4981a72)" style="fill: none; stroke: #013301; stroke-width: 1.5"/>
    <path clip-path="url(#p6bf4981a72)" style="fill: none; stroke: #003200; stroke-width: 1.5"/>
    <path clip-path="url(#p6bf4981a72)" style="fill: none; stroke: #003200; stroke-width: 1.5"/>
    <path clip-path="url(#p6bf4981a72)" style="fill: none; stroke: #003200; stroke-width: 1.5"/>
   </g>
   <g id="matplotlib.axis_1"/>
   <g id="matplotlib.axis_2"/>
   <g id="line2d_1">
    <path d="M 136.067606 228.244955 
L 83.506243 326.519517 
L 83.506243 369.36 
L 220.189701 309.310681 
L 300.73174 213.402143 
L 359.293757 103.908091 
L 359.293757 66.96 
L 249.430065 127.055529 
L 136.067606 228.244955 
" clip-path="url(#p6bf4981a72)" style="fill: none; stroke: #81d41a; stroke-width: 2; stroke-linecap: square"/>
   </g>
   <g id="line2d_2">
    <path d="M 359.293757 66.96 
L 220.189701 309.310681 
L 359.293757 66.96 
" clip-path="url(#p6bf4981a72)" style="fill: none; stroke-dasharray: 7.4,3.2; stroke-dashoffset: 0; stroke: #ec2ed7; stroke-width: 2"/>
   </g>
   <g id="PathCollection_2">
    <defs>
     <path id="m8c1bf6f178" d="M 0 5 
C 1.326016 5 2.597899 4.473168 3.535534 3.535534 
C 4.473168 2.597899 5 1.326016 5 0 
C 5 -1.326016 4.473168 -2.597899 3.535534 -3.535534 
C 2.597899 -4.473168 1.326016 -5 0 -5 
C -1.326016 -5 -2.597899 -4.473168 -3.535534 -3.535534 
C -4.473168 -2.597899 -5 -1.326016 -5 0 
C -5 1.326016 -4.473168 2.597899 -3.535534 3.535534 
C -2.597899 4.473168 -1.326016 5 0 5 
z
" style="stroke: #ffffff"/>
    </defs>
    <g clip-path="url(#p6bf4981a72)">
     <use xlink:href="#m8c1bf6f178" x="327.704078" y="270.312316" style="fill: #ffffff; stroke: #ffffff"/>
    </g>
   </g>
   <g id="Quiver_1">
    <path d="M 264.084595 232.821838 
L 318.491955 263.649602 
L 318.637477 260.845992 
L 327.704078 270.312316 
L 314.923893 267.400028 
L 317.254094 265.83428 
L 262.846734 235.006517 
L 264.084595 232.821838 
" clip-path="url(#p6bf4981a72)" style="fill: #ff0000"/>
   </g>
  </g>
 </g>
 <defs>
  <clipPath id="p6bf4981a72">
   <rect x="54" y="51.84" width="334.8" height="332.64"/>
  </clipPath>
 </defs>
</svg>
