<?xml version="1.0" encoding="UTF-8"?>
<!DOCTYPE svg PUBLIC "-//W3C//DTD SVG 1.1//EN" "http://www.w3.org/Graphics/SVG/1.1/DTD/svg11.dtd">
<svg version="1.2" width="203.2mm" height="355.6mm" viewBox="0 0 20320 35560" preserveAspectRatio="xMidYMid" fill-rule="evenodd" stroke-width="28.222" stroke-linejoin="round" xmlns="http://www.w3.org/2000/svg" xmlns:ooo="http://xml.openoffice.org/svg/export" xmlns:xlink="http://www.w3.org/1999/xlink" xmlns:presentation="http://sun.com/xmlns/staroffice/presentation" xmlns:smil="http://www.w3.org/2001/SMIL20/" xmlns:anim="urn:oasis:names:tc:opendocument:xmlns:animation:1.0" xml:space="preserve">
 <defs class="ClipPathGroup">
  <clipPath id="presentation_clip_path" clipPathUnits="userSpaceOnUse">
   <rect x="0" y="0" width="20320" height="35560"/>
  </clipPath>
  <clipPath id="presentation_clip_path_shrink" clipPathUnits="userSpaceOnUse">
   <rect x="20" y="35" width="20280" height="35489"/>
  </clipPath>
 </defs>
 <defs class="TextShapeIndex">
  <g ooo:slide="id1" ooo:id-list="id3 id4 id5 id6 id7 id8 id9 id10 id11 id12 id13 id14 id15 id16 id17 id18 id19 id20 id21"/>
 </defs>
 <defs class="EmbeddedBulletChars">
  <g id="bullet-char-template-57356" transform="scale(0.00048828125,-0.00048828125)">
   <path d="M 580,1141 L 1163,571 580,0 -4,571 580,1141 Z"/>
  </g>
  <g id="bullet-char-template-57354" transform="scale(0.00048828125,-0.00048828125)">
   <path d="M 8,1128 L 1137,1128 1137,0 8,0 8,1128 Z"/>
  </g>
  <g id="bullet-char-template-10146" transform="scale(0.00048828125,-0.00048828125)">
   <path d="M 174,0 L 602,739 174,1481 1456,739 174,0 Z M 1358,739 L 309,1346 659,739 1358,739 Z"/>
  </g>
  <g id="bullet-char-template-10132" transform="scale(0.00048828125,-0.00048828125)">
   <path d="M 2015,739 L 1276,0 717,0 1260,543 174,543 174,936 1260,936 717,1481 1274,1481 2015,739 Z"/>
  </g>
  <g id="bullet-char-template-10007" transform="scale(0.00048828125,-0.00048828125)">
   <path d="M 0,-2 C -7,14 -16,27 -25,37 L 356,567 C 262,823 215,952 215,954 215,979 228,992 255,992 264,992 276,990 289,987 310,991 331,999 354,1012 L 381,999 492,748 772,1049 836,1024 860,1049 C 881,1039 901,1025 922,1006 886,937 835,863 770,784 769,783 710,716 594,584 L 774,223 C 774,196 753,168 711,139 L 727,119 C 717,90 699,76 672,76 641,76 570,178 457,381 L 164,-76 C 142,-110 111,-127 72,-127 30,-127 9,-110 8,-76 1,-67 -2,-52 -2,-32 -2,-23 -1,-13 0,-2 Z"/>
  </g>
  <g id="bullet-char-template-10004" transform="scale(0.00048828125,-0.00048828125)">
   <path d="M 285,-33 C 182,-33 111,30 74,156 52,228 41,333 41,471 41,549 55,616 82,672 116,743 169,778 240,778 293,778 328,747 346,684 L 369,508 C 377,444 397,411 428,410 L 1163,1116 C 1174,1127 1196,1133 1229,1133 1271,1133 1292,1118 1292,1087 L 1292,965 C 1292,929 1282,901 1262,881 L 442,47 C 390,-6 338,-33 285,-33 Z"/>
  </g>
  <g id="bullet-char-template-9679" transform="scale(0.00048828125,-0.00048828125)">
   <path d="M 813,0 C 632,0 489,54 383,161 276,268 223,411 223,592 223,773 276,916 383,1023 489,1130 632,1184 813,1184 992,1184 1136,1130 1245,1023 1353,916 1407,772 1407,592 1407,412 1353,268 1245,161 1136,54 992,0 813,0 Z"/>
  </g>
  <g id="bullet-char-template-8226" transform="scale(0.00048828125,-0.00048828125)">
   <path d="M 346,457 C 273,457 209,483 155,535 101,586 74,649 74,723 74,796 101,859 155,911 209,963 273,989 346,989 419,989 480,963 531,910 582,859 608,796 608,723 608,648 583,586 532,535 482,483 420,457 346,457 Z"/>
  </g>
  <g id="bullet-char-template-8211" transform="scale(0.00048828125,-0.00048828125)">
   <path d="M -4,459 L 1135,459 1135,606 -4,606 -4,459 Z"/>
  </g>
  <g id="bullet-char-template-61548" transform="scale(0.00048828125,-0.00048828125)">
   <path d="M 173,740 C 173,903 231,1043 346,1159 462,1274 601,1332 765,1332 928,1332 1067,1274 1183,1159 1299,1043 1357,903 1357,740 1357,577 1299,437 1183,322 1067,206 928,148 765,148 601,148 462,206 346,322 231,437 173,577 173,740 Z"/>
  </g>
 </defs>
 <g>
  <g id="id2" class="Master_Slide">
   <g id="bg-id2" class="Background"/>
   <g id="bo-id2" class="BackgroundObjects"/>
  </g>
 </g>
 <g class="SlideGroup">
  <g>
   <g id="container-id1">
    <g id="id1" class="Slide" clip-path="url(#presentation_clip_path)">
     <g class="Page">
      <g id="bg-id1" class="Background">
       <path fill="rgb(25,25,25)" stroke="none" d="M 10160,35559 L 0,35559 0,0 20319,0 20319,35559 10160,35559 Z"/>
      </g>
      <g class="com.sun.star.drawing.ClosedBezierShape">
       <g id="id3">
        <rect class="BoundingBox" stroke="none" fill="none" x="2814" y="-432" width="16417" height="12796"/>
        <path fill="none" stroke="rgb(8,69,148)" stroke-width="106" stroke-linejoin="round" d="M 2867,-335 C 9219,10078 9734,12310 12481,12310 15228,12310 19177,-379 19177,-379 L 2867,-335 Z"/>
       </g>
      </g>
      <g class="com.sun.star.drawing.LineShape">
       <g id="id4">
        <rect class="BoundingBox" stroke="none" fill="none" x="1784" y="14411" width="11557" height="461"/>
        <path fill="none" stroke="rgb(129,212,26)" stroke-width="106" stroke-linejoin="round" d="M 1837,14641 L 12682,14641"/>
        <path fill="rgb(129,212,26)" stroke="none" d="M 13340,14641 L 12652,14412 12652,14871 13340,14641 Z"/>
       </g>
      </g>
      <g class="com.sun.star.drawing.LineShape">
       <g id="id5">
        <rect class="BoundingBox" stroke="none" fill="none" x="1311" y="3302" width="544" height="11393"/>
        <path fill="none" stroke="rgb(129,212,26)" stroke-width="106" stroke-linejoin="round" d="M 1801,14641 L 1540,3960"/>
        <path fill="rgb(129,212,26)" stroke="none" d="M 1524,3302 L 1311,3996 1770,3985 1524,3302 Z"/>
       </g>
      </g>
      <g class="com.sun.star.drawing.ClosedBezierShape">
       <g id="id6">
        <rect class="BoundingBox" stroke="none" fill="none" x="2941" y="18845" width="16417" height="12796"/>
        <path fill="rgb(89,131,176)" stroke="none" d="M 2994,18942 C 9346,29355 9861,31587 12608,31587 15355,31587 19304,18898 19304,18898 L 2994,18942 Z"/>
        <path fill="none" stroke="rgb(8,69,148)" stroke-width="106" stroke-linejoin="round" d="M 2994,18942 C 9346,29355 9861,31587 12608,31587 15355,31587 19304,18898 19304,18898 L 2994,18942 Z"/>
       </g>
      </g>
      <g class="com.sun.star.drawing.CustomShape">
       <g id="id7">
        <rect class="BoundingBox" stroke="none" fill="none" x="2994" y="18796" width="16311" height="333"/>
        <path fill="rgb(89,131,176)" stroke="none" d="M 11149,19128 L 2994,19128 2994,18796 19304,18796 19304,19128 11149,19128 Z"/>
       </g>
      </g>
      <g class="com.sun.star.drawing.LineShape">
       <g id="id8">
        <rect class="BoundingBox" stroke="none" fill="none" x="1911" y="33588" width="11557" height="461"/>
        <path fill="none" stroke="rgb(129,212,26)" stroke-width="106" stroke-linejoin="round" d="M 1964,33818 L 12809,33818"/>
        <path fill="rgb(129,212,26)" stroke="none" d="M 13467,33818 L 12779,33589 12779,34048 13467,33818 Z"/>
       </g>
      </g>
      <g class="com.sun.star.drawing.LineShape">
       <g id="id9">
        <rect class="BoundingBox" stroke="none" fill="none" x="1557" y="22479" width="461" height="11393"/>
        <path fill="none" stroke="rgb(129,212,26)" stroke-width="106" stroke-linejoin="round" d="M 1928,33818 L 1787,23137"/>
        <path fill="rgb(129,212,26)" stroke="none" d="M 1778,22479 L 1558,23170 2017,23164 1778,22479 Z"/>
       </g>
      </g>
      <g class="com.sun.star.drawing.CustomShape">
       <g id="id10">
        <rect class="BoundingBox" stroke="none" fill="none" x="6858" y="6857" width="1018" height="892"/>
        <path fill="rgb(129,212,26)" stroke="none" d="M 7875,7302 C 7875,7380 7852,7457 7807,7525 7762,7592 7698,7648 7621,7687 7543,7726 7456,7747 7367,7747 7277,7747 7190,7726 7112,7687 7035,7648 6971,7592 6926,7525 6881,7457 6858,7380 6858,7302 6858,7224 6881,7147 6926,7080 6971,7012 7035,6956 7112,6917 7190,6878 7277,6857 7367,6857 7456,6857 7543,6878 7621,6917 7698,6956 7762,7012 7807,7080 7852,7147 7875,7224 7875,7302 L 7875,7302 Z"/>
       </g>
      </g>
      <g class="com.sun.star.drawing.CustomShape">
       <g id="id11">
        <rect class="BoundingBox" stroke="none" fill="none" x="16891" y="4317" width="1018" height="892"/>
        <path fill="rgb(129,212,26)" stroke="none" d="M 17908,4762 C 17908,4840 17885,4917 17840,4985 17795,5052 17731,5108 17654,5147 17576,5186 17489,5207 17400,5207 17310,5207 17223,5186 17145,5147 17068,5108 17004,5052 16959,4985 16914,4917 16891,4840 16891,4762 16891,4684 16914,4607 16959,4540 17004,4472 17068,4416 17145,4377 17223,4338 17310,4317 17400,4317 17489,4317 17576,4338 17654,4377 17731,4416 17795,4472 17840,4540 17885,4607 17908,4684 17908,4762 L 17908,4762 Z"/>
       </g>
      </g>
      <g class="com.sun.star.drawing.LineShape">
       <g id="id12">
        <rect class="BoundingBox" stroke="none" fill="none" x="7313" y="4646" width="9886" height="2774"/>
        <path fill="none" stroke="rgb(129,212,26)" stroke-width="106" stroke-linejoin="round" d="M 7366,7366 L 7468,7338"/>
        <path fill="none" stroke="rgb(129,212,26)" stroke-width="106" stroke-linejoin="round" d="M 7571,7310 L 7673,7282"/>
        <path fill="none" stroke="rgb(129,212,26)" stroke-width="106" stroke-linejoin="round" d="M 7775,7254 L 7877,7227"/>
        <path fill="none" stroke="rgb(129,212,26)" stroke-width="106" stroke-linejoin="round" d="M 7980,7199 L 8082,7171"/>
        <path fill="none" stroke="rgb(129,212,26)" stroke-width="106" stroke-linejoin="round" d="M 8184,7143 L 8286,7115"/>
        <path fill="none" stroke="rgb(129,212,26)" stroke-width="106" stroke-linejoin="round" d="M 8389,7087 L 8491,7059"/>
        <path fill="none" stroke="rgb(129,212,26)" stroke-width="106" stroke-linejoin="round" d="M 8593,7031 L 8695,7003"/>
        <path fill="none" stroke="rgb(129,212,26)" stroke-width="106" stroke-linejoin="round" d="M 8798,6976 L 8900,6948"/>
        <path fill="none" stroke="rgb(129,212,26)" stroke-width="106" stroke-linejoin="round" d="M 9002,6920 L 9105,6892"/>
        <path fill="none" stroke="rgb(129,212,26)" stroke-width="106" stroke-linejoin="round" d="M 9207,6864 L 9309,6836"/>
        <path fill="none" stroke="rgb(129,212,26)" stroke-width="106" stroke-linejoin="round" d="M 9411,6808 L 9514,6780"/>
        <path fill="none" stroke="rgb(129,212,26)" stroke-width="106" stroke-linejoin="round" d="M 9616,6752 L 9718,6725"/>
        <path fill="none" stroke="rgb(129,212,26)" stroke-width="106" stroke-linejoin="round" d="M 9820,6697 L 9923,6669"/>
        <path fill="none" stroke="rgb(129,212,26)" stroke-width="106" stroke-linejoin="round" d="M 10025,6641 L 10127,6613"/>
        <path fill="none" stroke="rgb(129,212,26)" stroke-width="106" stroke-linejoin="round" d="M 10229,6585 L 10332,6557"/>
        <path fill="none" stroke="rgb(129,212,26)" stroke-width="106" stroke-linejoin="round" d="M 10434,6529 L 10536,6501"/>
        <path fill="none" stroke="rgb(129,212,26)" stroke-width="106" stroke-linejoin="round" d="M 10638,6474 L 10741,6446"/>
        <path fill="none" stroke="rgb(129,212,26)" stroke-width="106" stroke-linejoin="round" d="M 10843,6418 L 10945,6390"/>
        <path fill="none" stroke="rgb(129,212,26)" stroke-width="106" stroke-linejoin="round" d="M 11048,6362 L 11150,6334"/>
        <path fill="none" stroke="rgb(129,212,26)" stroke-width="106" stroke-linejoin="round" d="M 11252,6306 L 11354,6278"/>
        <path fill="none" stroke="rgb(129,212,26)" stroke-width="106" stroke-linejoin="round" d="M 11457,6250 L 11559,6222"/>
        <path fill="none" stroke="rgb(129,212,26)" stroke-width="106" stroke-linejoin="round" d="M 11661,6195 L 11763,6167"/>
        <path fill="none" stroke="rgb(129,212,26)" stroke-width="106" stroke-linejoin="round" d="M 11866,6139 L 11968,6111"/>
        <path fill="none" stroke="rgb(129,212,26)" stroke-width="106" stroke-linejoin="round" d="M 12070,6083 L 12172,6055"/>
        <path fill="none" stroke="rgb(129,212,26)" stroke-width="106" stroke-linejoin="round" d="M 12275,6027 L 12377,5999"/>
        <path fill="none" stroke="rgb(129,212,26)" stroke-width="106" stroke-linejoin="round" d="M 12479,5971 L 12582,5944"/>
        <path fill="none" stroke="rgb(129,212,26)" stroke-width="106" stroke-linejoin="round" d="M 12684,5916 L 12786,5888"/>
        <path fill="none" stroke="rgb(129,212,26)" stroke-width="106" stroke-linejoin="round" d="M 12888,5860 L 12991,5832"/>
        <path fill="none" stroke="rgb(129,212,26)" stroke-width="106" stroke-linejoin="round" d="M 13093,5804 L 13195,5776"/>
        <path fill="none" stroke="rgb(129,212,26)" stroke-width="106" stroke-linejoin="round" d="M 13297,5748 L 13400,5720"/>
        <path fill="none" stroke="rgb(129,212,26)" stroke-width="106" stroke-linejoin="round" d="M 13502,5693 L 13604,5665"/>
        <path fill="none" stroke="rgb(129,212,26)" stroke-width="106" stroke-linejoin="round" d="M 13706,5637 L 13809,5609"/>
        <path fill="none" stroke="rgb(129,212,26)" stroke-width="106" stroke-linejoin="round" d="M 13911,5581 L 14013,5553"/>
        <path fill="none" stroke="rgb(129,212,26)" stroke-width="106" stroke-linejoin="round" d="M 14115,5525 L 14218,5497"/>
        <path fill="none" stroke="rgb(129,212,26)" stroke-width="106" stroke-linejoin="round" d="M 14320,5469 L 14422,5442"/>
        <path fill="none" stroke="rgb(129,212,26)" stroke-width="106" stroke-linejoin="round" d="M 14525,5414 L 14627,5386"/>
        <path fill="none" stroke="rgb(129,212,26)" stroke-width="106" stroke-linejoin="round" d="M 14729,5358 L 14831,5330"/>
        <path fill="none" stroke="rgb(129,212,26)" stroke-width="106" stroke-linejoin="round" d="M 14934,5302 L 15036,5274"/>
        <path fill="none" stroke="rgb(129,212,26)" stroke-width="106" stroke-linejoin="round" d="M 15138,5246 L 15240,5218"/>
        <path fill="none" stroke="rgb(129,212,26)" stroke-width="106" stroke-linejoin="round" d="M 15343,5191 L 15445,5163"/>
        <path fill="none" stroke="rgb(129,212,26)" stroke-width="106" stroke-linejoin="round" d="M 15547,5135 L 15649,5107"/>
        <path fill="none" stroke="rgb(129,212,26)" stroke-width="106" stroke-linejoin="round" d="M 15752,5079 L 15854,5051"/>
        <path fill="none" stroke="rgb(129,212,26)" stroke-width="106" stroke-linejoin="round" d="M 15956,5023 L 16059,4995"/>
        <path fill="none" stroke="rgb(129,212,26)" stroke-width="106" stroke-linejoin="round" d="M 16161,4967 L 16263,4940"/>
        <path fill="none" stroke="rgb(129,212,26)" stroke-width="106" stroke-linejoin="round" d="M 16365,4912 L 16468,4884"/>
        <path fill="none" stroke="rgb(129,212,26)" stroke-width="106" stroke-linejoin="round" d="M 16570,4856 L 16672,4828"/>
        <path fill="none" stroke="rgb(129,212,26)" stroke-width="106" stroke-linejoin="round" d="M 16774,4800 L 16877,4772"/>
        <path fill="none" stroke="rgb(129,212,26)" stroke-width="106" stroke-linejoin="round" d="M 16979,4744 L 17081,4716"/>
       </g>
      </g>
      <g class="Graphic">
       <title>TexMaths
       </title>
       <desc>14§display§\textcolor{white}{(u_1,f(u_1))}§svg§600§TRUE§
       </desc>
       <g id="id13">
        <rect class="BoundingBox" stroke="none" fill="none" x="3266" y="8382" width="4355" height="957"/>
        <defs>
         <clipPath id="clip_path_1" clipPathUnits="userSpaceOnUse">
          <path d="M 3266,8382 L 7620,8382 7620,9338 3266,9338 3266,8382 Z"/>
         </clipPath>
        </defs>
        <g clip-path="url(#clip_path_1)">
         <path fill="rgb(255,255,255)" stroke="none" d="M 3583,9328 C 3583,9326 3583,9324 3567,9307 3447,9187 3417,9006 3417,8860 3417,8694 3453,8527 3571,8408 3583,8396 3583,8394 3583,8392 3583,8385 3580,8382 3574,8382 3564,8382 3478,8447 3421,8568 3372,8674 3361,8780 3361,8860 3361,8935 3372,9050 3424,9158 3482,9276 3564,9338 3574,9338 3580,9338 3583,9335 3583,9328 L 3583,9328 Z"/>
         <path fill="rgb(255,255,255)" stroke="none" d="M 3975,9045 C 3985,9085 4019,9110 4060,9110 4094,9110 4116,9088 4131,9057 4147,9023 4160,8964 4160,8962 4160,8953 4151,8953 4148,8953 4139,8953 4138,8957 4135,8970 4121,9023 4103,9088 4063,9088 4043,9088 4033,9076 4033,9045 4033,9023 4045,8979 4052,8945 L 4079,8842 C 4082,8827 4092,8791 4096,8777 4100,8755 4110,8719 4110,8713 4110,8696 4097,8687 4082,8687 4077,8687 4052,8688 4045,8720 4026,8790 3984,8958 3973,9008 3972,9012 3933,9088 3863,9088 3814,9088 3804,9045 3804,9010 3804,8957 3831,8881 3856,8815 3867,8786 3872,8773 3872,8755 3872,8712 3841,8676 3793,8676 3702,8676 3667,8815 3667,8824 3667,8833 3676,8833 3678,8833 3688,8833 3689,8831 3694,8816 3718,8733 3754,8697 3791,8697 3799,8697 3815,8698 3815,8729 3815,8752 3804,8780 3798,8794 3763,8889 3743,8948 3743,8995 3743,9086 3809,9110 3861,9110 3924,9110 3958,9066 3975,9045 L 3975,9045 Z"/>
         <path fill="rgb(255,255,255)" stroke="none" d="M 4413,8817 C 4413,8799 4412,8798 4393,8798 4350,8840 4289,8841 4261,8841 L 4261,8865 C 4277,8865 4322,8865 4359,8846 L 4359,9188 C 4359,9210 4359,9218 4291,9218 L 4266,9218 4266,9242 C 4278,9242 4361,9240 4385,9240 4406,9240 4491,9242 4506,9242 L 4506,9218 4480,9218 C 4413,9218 4413,9210 4413,9188 L 4413,8817 4413,8817 Z"/>
         <path fill="rgb(255,255,255)" stroke="none" d="M 4813,9098 C 4813,9035 4789,8998 4752,8998 4720,8998 4701,9022 4701,9048 4701,9074 4720,9099 4752,9099 4763,9099 4776,9095 4785,9087 4788,9085 4789,9084 4790,9084 4791,9084 4792,9085 4792,9098 4792,9169 4758,9226 4727,9258 4716,9268 4716,9270 4716,9273 4716,9280 4721,9284 4726,9284 4736,9284 4813,9210 4813,9098 L 4813,9098 Z"/>
         <path fill="rgb(255,255,255)" stroke="none" d="M 5397,8717 L 5479,8717 C 5498,8717 5508,8717 5508,8697 5508,8687 5498,8687 5482,8687 L 5402,8687 5423,8578 C 5426,8558 5440,8490 5446,8479 5454,8460 5470,8446 5491,8446 5494,8446 5519,8446 5538,8463 5495,8467 5486,8501 5486,8515 5486,8537 5503,8548 5521,8548 5546,8548 5574,8527 5574,8491 5574,8447 5530,8425 5491,8425 5458,8425 5398,8442 5369,8537 5363,8557 5360,8567 5337,8687 L 5271,8687 C 5253,8687 5242,8687 5242,8705 5242,8717 5251,8717 5269,8717 L 5332,8717 5260,9094 C 5243,9187 5227,9274 5177,9274 5173,9274 5149,9274 5131,9257 5175,9254 5184,9219 5184,9205 5184,9183 5166,9172 5148,9172 5123,9172 5095,9193 5095,9229 5095,9272 5138,9295 5177,9295 5230,9295 5268,9239 5285,9202 5316,9142 5338,9026 5339,9020 L 5397,8717 5397,8717 Z"/>
         <path fill="rgb(255,255,255)" stroke="none" d="M 5935,9328 C 5935,9326 5935,9324 5919,9307 5799,9187 5768,9006 5768,8860 5768,8694 5804,8527 5922,8408 5935,8396 5935,8394 5935,8392 5935,8385 5931,8382 5925,8382 5916,8382 5829,8447 5773,8568 5724,8674 5712,8780 5712,8860 5712,8935 5723,9050 5776,9158 5833,9276 5916,9338 5925,9338 5931,9338 5935,9335 5935,9328 L 5935,9328 Z"/>
         <path fill="rgb(255,255,255)" stroke="none" d="M 6326,9045 C 6337,9085 6370,9110 6412,9110 6445,9110 6467,9088 6482,9057 6499,9023 6511,8964 6511,8962 6511,8953 6503,8953 6500,8953 6490,8953 6489,8957 6486,8970 6473,9023 6455,9088 6414,9088 6394,9088 6385,9076 6385,9045 6385,9023 6396,8979 6404,8945 L 6431,8842 C 6434,8827 6443,8791 6447,8777 6452,8755 6461,8719 6461,8713 6461,8696 6448,8687 6434,8687 6429,8687 6404,8688 6396,8720 6378,8790 6336,8958 6324,9008 6323,9012 6285,9088 6215,9088 6165,9088 6155,9045 6155,9010 6155,8957 6182,8881 6207,8815 6219,8786 6224,8773 6224,8755 6224,8712 6193,8676 6145,8676 6054,8676 6018,8815 6018,8824 6018,8833 6028,8833 6030,8833 6039,8833 6040,8831 6045,8816 6069,8733 6106,8697 6142,8697 6151,8697 6166,8698 6166,8729 6166,8752 6155,8780 6150,8794 6114,8889 6094,8948 6094,8995 6094,9086 6160,9110 6212,9110 6275,9110 6310,9066 6326,9045 L 6326,9045 Z"/>
         <path fill="rgb(255,255,255)" stroke="none" d="M 6764,8817 C 6764,8799 6763,8798 6744,8798 6701,8840 6640,8841 6613,8841 L 6613,8865 C 6629,8865 6673,8865 6710,8846 L 6710,9188 C 6710,9210 6710,9218 6643,9218 L 6617,9218 6617,9242 C 6629,9242 6712,9240 6737,9240 6758,9240 6842,9242 6857,9242 L 6857,9218 6832,9218 C 6764,9218 6764,9210 6764,9188 L 6764,8817 6764,8817 Z"/>
         <path fill="rgb(255,255,255)" stroke="none" d="M 7247,8860 C 7247,8785 7236,8670 7184,8562 7126,8444 7044,8382 7034,8382 7028,8382 7024,8386 7024,8392 7024,8394 7024,8396 7043,8414 7137,8508 7191,8660 7191,8860 7191,9023 7156,9192 7037,9312 7024,9324 7024,9326 7024,9328 7024,9334 7028,9338 7034,9338 7044,9338 7130,9273 7187,9152 7235,9046 7247,8940 7247,8860 L 7247,8860 Z"/>
         <path fill="rgb(255,255,255)" stroke="none" d="M 7620,8860 C 7620,8785 7609,8670 7557,8562 7499,8444 7417,8382 7407,8382 7401,8382 7397,8386 7397,8392 7397,8394 7397,8396 7416,8414 7510,8508 7564,8660 7564,8860 7564,9023 7529,9192 7410,9312 7397,9324 7397,9326 7397,9328 7397,9334 7401,9338 7407,9338 7417,9338 7503,9273 7560,9152 7608,9046 7620,8940 7620,8860 L 7620,8860 Z"/>
        </g>
       </g>
      </g>
      <g class="Graphic">
       <title>TexMaths
       </title>
       <desc>14§display§\textcolor{white}{(u_2,f(u_2))}§svg§600§TRUE§
       </desc>
       <g id="id14">
        <rect class="BoundingBox" stroke="none" fill="none" x="12518" y="2794" width="4628" height="1017"/>
        <defs>
         <clipPath id="clip_path_2" clipPathUnits="userSpaceOnUse">
          <path d="M 12518,2794 L 17145,2794 17145,3810 12518,3810 12518,2794 Z"/>
         </clipPath>
        </defs>
        <g clip-path="url(#clip_path_2)">
         <path fill="rgb(255,255,255)" stroke="none" d="M 12855,3800 C 12855,3797 12855,3795 12838,3777 12711,3649 12678,3457 12678,3302 12678,3125 12717,2948 12842,2821 12855,2809 12855,2807 12855,2804 12855,2797 12851,2794 12845,2794 12835,2794 12743,2863 12683,2992 12631,3104 12619,3217 12619,3302 12619,3381 12630,3504 12686,3619 12747,3744 12835,3810 12845,3810 12851,3810 12855,3807 12855,3800 L 12855,3800 Z"/>
         <path fill="rgb(255,255,255)" stroke="none" d="M 13271,3499 C 13282,3541 13318,3567 13362,3567 13398,3567 13421,3544 13437,3511 13455,3475 13468,3413 13468,3411 13468,3401 13459,3401 13456,3401 13445,3401 13444,3405 13441,3419 13427,3476 13408,3545 13365,3545 13344,3545 13333,3532 13333,3498 13333,3476 13346,3428 13354,3392 L 13382,3283 C 13385,3267 13395,3229 13400,3214 13405,3190 13415,3152 13415,3146 13415,3127 13401,3118 13385,3118 13380,3118 13354,3119 13346,3154 13326,3228 13281,3406 13269,3459 13268,3464 13227,3545 13153,3545 13100,3545 13090,3499 13090,3462 13090,3405 13118,3324 13145,3254 13157,3224 13162,3210 13162,3190 13162,3145 13129,3107 13078,3107 12982,3107 12944,3254 12944,3263 12944,3274 12954,3274 12956,3274 12966,3274 12967,3272 12972,3255 12998,3167 13037,3129 13075,3129 13085,3129 13101,3130 13101,3163 13101,3187 13090,3217 13084,3232 13046,3332 13024,3395 13024,3445 13024,3542 13095,3567 13150,3567 13217,3567 13254,3521 13271,3499 L 13271,3499 Z"/>
         <path fill="rgb(255,255,255)" stroke="none" d="M 13858,3579 L 13834,3579 C 13832,3595 13825,3637 13815,3644 13810,3648 13755,3648 13745,3648 L 13613,3648 C 13688,3582 13713,3562 13756,3528 13809,3487 13858,3442 13858,3375 13858,3289 13783,3236 13691,3236 13603,3236 13543,3298 13543,3363 13543,3400 13574,3403 13581,3403 13598,3403 13618,3391 13618,3366 13618,3353 13613,3328 13576,3328 13598,3277 13647,3262 13681,3262 13752,3262 13789,3317 13789,3375 13789,3437 13745,3486 13722,3511 L 13550,3681 C 13543,3687 13543,3688 13543,3708 L 13837,3708 13858,3579 13858,3579 Z"/>
         <path fill="rgb(255,255,255)" stroke="none" d="M 14162,3555 C 14162,3488 14137,3448 14097,3448 14063,3448 14043,3474 14043,3502 14043,3530 14063,3556 14097,3556 14109,3556 14122,3552 14132,3543 14136,3541 14137,3540 14138,3540 14139,3540 14140,3541 14140,3555 14140,3630 14104,3691 14070,3725 14059,3736 14059,3738 14059,3741 14059,3748 14064,3752 14069,3752 14081,3752 14162,3674 14162,3555 L 14162,3555 Z"/>
         <path fill="rgb(255,255,255)" stroke="none" d="M 14782,3150 L 14870,3150 C 14890,3150 14900,3150 14900,3129 14900,3118 14890,3118 14873,3118 L 14788,3118 14810,3002 C 14814,2981 14828,2909 14834,2897 14843,2877 14861,2862 14882,2862 14886,2862 14913,2862 14932,2880 14887,2884 14877,2920 14877,2935 14877,2959 14895,2971 14915,2971 14941,2971 14971,2948 14971,2910 14971,2863 14924,2840 14882,2840 14847,2840 14783,2858 14753,2959 14747,2980 14743,2990 14719,3118 L 14649,3118 C 14629,3118 14618,3118 14618,3137 14618,3150 14627,3150 14647,3150 L 14714,3150 14637,3551 C 14619,3649 14602,3742 14549,3742 14545,3742 14519,3742 14500,3724 14547,3721 14556,3684 14556,3669 14556,3645 14538,3633 14518,3633 14492,3633 14462,3656 14462,3694 14462,3740 14507,3764 14549,3764 14605,3764 14646,3704 14664,3666 14697,3602 14720,3479 14721,3472 L 14782,3150 14782,3150 Z"/>
         <path fill="rgb(255,255,255)" stroke="none" d="M 15354,3800 C 15354,3797 15354,3795 15337,3777 15210,3649 15177,3457 15177,3302 15177,3125 15216,2948 15341,2821 15354,2809 15354,2807 15354,2804 15354,2797 15350,2794 15344,2794 15334,2794 15242,2863 15182,2992 15130,3104 15118,3217 15118,3302 15118,3381 15129,3504 15185,3619 15246,3744 15334,3810 15344,3810 15350,3810 15354,3807 15354,3800 L 15354,3800 Z"/>
         <path fill="rgb(255,255,255)" stroke="none" d="M 15770,3499 C 15781,3541 15817,3567 15861,3567 15896,3567 15920,3544 15936,3511 15954,3475 15967,3413 15967,3411 15967,3401 15958,3401 15955,3401 15944,3401 15943,3405 15940,3419 15926,3476 15907,3545 15864,3545 15842,3545 15832,3532 15832,3498 15832,3476 15844,3428 15853,3392 L 15881,3283 C 15884,3267 15894,3229 15898,3214 15904,3190 15914,3152 15914,3146 15914,3127 15899,3118 15884,3118 15879,3118 15853,3119 15844,3154 15825,3228 15780,3406 15768,3459 15767,3464 15726,3545 15652,3545 15599,3545 15589,3499 15589,3462 15589,3405 15617,3324 15644,3254 15656,3224 15661,3210 15661,3190 15661,3145 15628,3107 15577,3107 15481,3107 15443,3254 15443,3263 15443,3274 15453,3274 15455,3274 15465,3274 15466,3272 15471,3255 15497,3167 15536,3129 15574,3129 15584,3129 15600,3130 15600,3163 15600,3187 15589,3217 15582,3232 15545,3332 15523,3395 15523,3445 15523,3542 15594,3567 15649,3567 15716,3567 15753,3521 15770,3499 L 15770,3499 Z"/>
         <path fill="rgb(255,255,255)" stroke="none" d="M 16357,3579 L 16333,3579 C 16331,3595 16324,3637 16314,3644 16309,3648 16254,3648 16244,3648 L 16112,3648 C 16187,3582 16212,3562 16255,3528 16308,3487 16357,3442 16357,3375 16357,3289 16281,3236 16190,3236 16102,3236 16042,3298 16042,3363 16042,3400 16072,3403 16080,3403 16097,3403 16117,3391 16117,3366 16117,3353 16112,3328 16075,3328 16097,3277 16146,3262 16179,3262 16251,3262 16288,3317 16288,3375 16288,3437 16244,3486 16221,3511 L 16049,3681 C 16042,3687 16042,3688 16042,3708 L 16336,3708 16357,3579 16357,3579 Z"/>
         <path fill="rgb(255,255,255)" stroke="none" d="M 16749,3302 C 16749,3223 16737,3100 16681,2985 16620,2860 16533,2794 16522,2794 16516,2794 16512,2798 16512,2804 16512,2807 16512,2809 16532,2828 16631,2928 16689,3090 16689,3302 16689,3476 16652,3655 16525,3783 16512,3795 16512,3797 16512,3800 16512,3806 16516,3810 16522,3810 16533,3810 16624,3741 16684,3612 16736,3500 16749,3387 16749,3302 L 16749,3302 Z"/>
         <path fill="rgb(255,255,255)" stroke="none" d="M 17145,3302 C 17145,3223 17134,3100 17078,2985 17017,2860 16929,2794 16919,2794 16913,2794 16909,2798 16909,2804 16909,2807 16909,2809 16928,2828 17028,2928 17086,3090 17086,3302 17086,3476 17048,3655 16922,3783 16909,3795 16909,3797 16909,3800 16909,3806 16913,3810 16919,3810 16929,3810 17021,3741 17081,3612 17133,3500 17145,3387 17145,3302 L 17145,3302 Z"/>
        </g>
       </g>
      </g>
      <g class="Graphic">
       <title>TexMaths
       </title>
       <desc>14§display§\textcolor{mydarkblue}{v \geq f(u)}§svg§600§TRUE§
       </desc>
       <g id="id15">
        <rect class="BoundingBox" stroke="none" fill="none" x="8509" y="23180" width="7358" height="2094"/>
        <path fill="rgb(8,69,148)" stroke="none" d="M 9494,23989 C 9494,23884 9443,23853 9408,23853 9360,23853 9313,23903 9313,23946 9313,23972 9323,23983 9344,24005 9385,24044 9410,24094 9410,24164 9410,24246 9291,24692 9063,24692 8964,24692 8919,24624 8919,24522 8919,24413 8972,24271 9032,24110 9046,24077 9056,24049 9056,24012 9056,23925 8993,23853 8896,23853 8713,23853 8639,24135 8639,24153 8639,24172 8658,24172 8662,24172 8682,24172 8684,24168 8693,24137 8750,23940 8834,23896 8890,23896 8906,23896 8939,23896 8939,23958 8939,24007 8919,24059 8906,24094 8820,24320 8795,24409 8795,24493 8795,24703 8966,24735 9056,24735 9383,24735 9494,24090 9494,23989 L 9494,23989 Z"/>
        <path fill="rgb(8,69,148)" stroke="none" d="M 11450,24082 C 11478,24071 11489,24057 11489,24040 11489,24020 11482,24008 11450,23995 L 10377,23489 C 10350,23475 10342,23475 10338,23475 10315,23475 10299,23493 10299,23514 10299,23537 10315,23547 10336,23557 L 11359,24038 10340,24518 C 10301,24536 10299,24552 10299,24563 10299,24585 10317,24602 10338,24602 10344,24602 10348,24602 10373,24589 L 11450,24082 11450,24082 Z M 11421,24980 C 11454,24980 11489,24980 11489,24941 11489,24902 11448,24902 11419,24902 L 10369,24902 C 10340,24902 10299,24902 10299,24941 10299,24980 10334,24980 10367,24980 L 11421,24980 11421,24980 Z"/>
        <path fill="rgb(8,69,148)" stroke="none" d="M 12909,23935 L 13076,23935 C 13115,23935 13135,23935 13135,23896 13135,23874 13115,23874 13082,23874 L 12920,23874 12961,23652 C 12969,23611 12996,23473 13008,23450 13025,23413 13059,23384 13099,23384 13107,23384 13158,23384 13195,23419 13109,23427 13090,23495 13090,23524 13090,23569 13125,23592 13162,23592 13212,23592 13269,23549 13269,23475 13269,23386 13179,23341 13099,23341 13033,23341 12911,23376 12852,23569 12840,23609 12835,23629 12788,23874 L 12653,23874 C 12616,23874 12595,23874 12595,23911 12595,23935 12612,23935 12650,23935 L 12778,23935 12632,24703 C 12597,24892 12564,25069 12463,25069 12455,25069 12406,25069 12369,25034 12459,25028 12476,24958 12476,24929 12476,24884 12441,24861 12404,24861 12353,24861 12297,24904 12297,24978 12297,25065 12383,25112 12463,25112 12570,25112 12648,24997 12683,24923 12745,24801 12790,24565 12792,24552 L 12909,23935 12909,23935 Z"/>
        <path fill="rgb(8,69,148)" stroke="none" d="M 14002,25180 C 14002,25174 14002,25171 13969,25137 13725,24892 13663,24524 13663,24227 13663,23888 13737,23549 13977,23306 14002,23282 14002,23279 14002,23273 14002,23259 13994,23253 13982,23253 13963,23253 13788,23386 13673,23633 13573,23847 13550,24063 13550,24227 13550,24378 13571,24614 13678,24834 13795,25073 13963,25200 13982,25200 13994,25200 14002,25194 14002,25180 L 14002,25180 Z"/>
        <path fill="rgb(8,69,148)" stroke="none" d="M 14796,24604 C 14818,24684 14886,24735 14970,24735 15038,24735 15083,24690 15114,24627 15147,24557 15172,24439 15172,24435 15172,24415 15155,24415 15149,24415 15129,24415 15128,24423 15122,24450 15094,24559 15057,24692 14976,24692 14935,24692 14915,24666 14915,24602 14915,24559 14939,24468 14954,24400 L 15009,24190 C 15015,24160 15034,24086 15042,24057 15052,24012 15071,23938 15071,23927 15071,23892 15044,23874 15015,23874 15005,23874 14954,23876 14939,23942 14902,24084 14816,24425 14792,24528 14791,24536 14713,24692 14570,24692 14469,24692 14450,24604 14450,24532 14450,24423 14504,24269 14555,24135 14578,24077 14588,24049 14588,24012 14588,23925 14526,23853 14428,23853 14243,23853 14171,24135 14171,24153 14171,24172 14191,24172 14194,24172 14214,24172 14216,24168 14226,24137 14274,23968 14348,23896 14422,23896 14440,23896 14471,23898 14471,23960 14471,24007 14450,24063 14438,24092 14366,24285 14325,24406 14325,24501 14325,24686 14459,24735 14565,24735 14693,24735 14763,24647 14796,24604 L 14796,24604 Z"/>
        <path fill="rgb(8,69,148)" stroke="none" d="M 15793,24227 C 15793,24075 15771,23839 15664,23619 15547,23380 15380,23253 15360,23253 15349,23253 15341,23261 15341,23273 15341,23279 15341,23282 15378,23317 15569,23510 15680,23820 15680,24227 15680,24559 15608,24902 15366,25147 15341,25171 15341,25174 15341,25180 15341,25192 15349,25200 15360,25200 15380,25200 15555,25067 15670,24820 15769,24606 15793,24390 15793,24227 L 15793,24227 Z"/>
       </g>
      </g>
      <g class="Graphic">
       <title>TexMaths
       </title>
       <desc>14§display§\textcolor{mygreen}{v}§svg§600§TRUE§
       </desc>
       <g id="id16">
        <rect class="BoundingBox" stroke="none" fill="none" x="1208" y="1778" width="1079" height="1046"/>
        <defs>
         <clipPath id="clip_path_3" clipPathUnits="userSpaceOnUse">
          <path d="M 1208,1778 L 2286,1778 2286,2823 1208,2823 1208,1778 Z"/>
         </clipPath>
        </defs>
        <g clip-path="url(#clip_path_3)">
         <path fill="rgb(129,212,26)" stroke="none" d="M 2286,1939 C 2286,1815 2226,1778 2185,1778 2127,1778 2072,1838 2072,1889 2072,1919 2083,1933 2109,1958 2157,2004 2187,2064 2187,2147 2187,2244 2046,2772 1777,2772 1659,2772 1606,2692 1606,2572 1606,2442 1669,2274 1740,2083 1756,2043 1768,2011 1768,1967 1768,1863 1694,1778 1579,1778 1362,1778 1275,2112 1275,2133 1275,2156 1298,2156 1302,2156 1325,2156 1328,2152 1339,2115 1406,1882 1505,1829 1572,1829 1590,1829 1630,1829 1630,1903 1630,1960 1606,2023 1590,2064 1489,2332 1459,2438 1459,2537 1459,2786 1662,2823 1768,2823 2155,2823 2286,2059 2286,1939 L 2286,1939 Z"/>
        </g>
       </g>
      </g>
      <g class="Graphic">
       <title>TexMaths
       </title>
       <desc>14§display§\textcolor{mygreen}{u}§svg§600§TRUE§
       </desc>
       <g id="id17">
        <rect class="BoundingBox" stroke="none" fill="none" x="13970" y="33274" width="1149" height="955"/>
        <defs>
         <clipPath id="clip_path_4" clipPathUnits="userSpaceOnUse">
          <path d="M 13970,33274 L 15118,33274 15118,34228 13970,34228 13970,33274 Z"/>
         </clipPath>
        </defs>
        <g clip-path="url(#clip_path_4)">
         <path fill="rgb(129,212,26)" stroke="none" d="M 14710,34087 C 14733,34173 14807,34228 14898,34228 14972,34228 15021,34180 15055,34112 15091,34036 15118,33908 15118,33904 15118,33883 15099,33883 15093,33883 15071,33883 15069,33891 15063,33921 15033,34038 14993,34182 14904,34182 14860,34182 14839,34154 14839,34085 14839,34038 14864,33939 14881,33866 L 14940,33638 C 14947,33607 14968,33527 14976,33495 14987,33447 15008,33367 15008,33354 15008,33316 14978,33297 14947,33297 14936,33297 14881,33299 14864,33371 14824,33525 14731,33893 14706,34005 14704,34013 14619,34182 14465,34182 14355,34182 14334,34087 14334,34009 14334,33891 14393,33725 14448,33579 14473,33516 14484,33487 14484,33447 14484,33352 14416,33274 14310,33274 14110,33274 14031,33579 14031,33598 14031,33619 14052,33619 14057,33619 14078,33619 14080,33615 14091,33581 14143,33398 14224,33320 14304,33320 14323,33320 14357,33322 14357,33390 14357,33440 14334,33501 14321,33533 14243,33742 14198,33872 14198,33975 14198,34175 14344,34228 14458,34228 14598,34228 14674,34133 14710,34087 L 14710,34087 Z"/>
        </g>
       </g>
      </g>
      <g class="Graphic">
       <g id="id18">
        <rect class="BoundingBox" stroke="none" fill="none" x="0" y="0" width="191" height="159"/>
        <defs>
         <clipPath id="clip_path_5" clipPathUnits="userSpaceOnUse">
          <path d="M 0,0 L 190,0 190,158 0,158 0,0 Z"/>
         </clipPath>
        </defs>
        <g clip-path="url(#clip_path_5)">
         <path fill="rgb(129,212,26)" stroke="none" d="M 122,135 C 126,149 139,158 154,158 166,158 174,150 180,139 185,126 190,105 190,104 190,101 187,101 186,101 182,101 182,102 181,107 176,127 169,150 155,150 147,150 144,146 144,134 144,127 148,110 151,98 L 161,60 C 162,55 165,42 167,37 168,29 172,15 172,13 172,7 167,4 162,4 160,4 151,4 148,16 141,42 126,103 122,121 121,122 107,150 82,150 64,150 60,135 60,122 60,102 70,75 79,51 83,40 85,35 85,29 85,13 74,0 56,0 23,0 10,51 10,54 10,57 14,57 14,57 18,57 18,57 20,51 29,21 42,8 55,8 58,8 64,8 64,19 64,28 60,38 58,43 45,77 38,99 38,116 38,149 62,158 81,158 104,158 117,142 122,135 L 122,135 Z"/>
        </g>
       </g>
      </g>
      <g class="Graphic">
       <g id="id19">
        <rect class="BoundingBox" stroke="none" fill="none" x="0" y="0" width="191" height="159"/>
        <defs>
         <clipPath id="clip_path_6" clipPathUnits="userSpaceOnUse">
          <path d="M 0,0 L 190,0 190,158 0,158 0,0 Z"/>
         </clipPath>
        </defs>
        <g clip-path="url(#clip_path_6)">
         <path fill="rgb(129,212,26)" stroke="none" d="M 122,135 C 126,149 139,158 154,158 166,158 174,150 180,139 185,126 190,105 190,104 190,101 187,101 186,101 182,101 182,102 181,107 176,127 169,150 155,150 147,150 144,146 144,134 144,127 148,110 151,98 L 161,60 C 162,55 165,42 167,37 168,29 172,15 172,13 172,7 167,4 162,4 160,4 151,4 148,16 141,42 126,103 122,121 121,122 107,150 82,150 64,150 60,135 60,122 60,102 70,75 79,51 83,40 85,35 85,29 85,13 74,0 56,0 23,0 10,51 10,54 10,57 14,57 14,57 18,57 18,57 20,51 29,21 42,8 55,8 58,8 64,8 64,19 64,28 60,38 58,43 45,77 38,99 38,116 38,149 62,158 81,158 104,158 117,142 122,135 L 122,135 Z"/>
        </g>
       </g>
      </g>
      <g class="Graphic">
       <title>TexMaths
       </title>
       <desc>14§display§\textcolor{mygreen}{v}§svg§600§TRUE§
       </desc>
       <g id="id20">
        <rect class="BoundingBox" stroke="none" fill="none" x="1270" y="20926" width="1079" height="1046"/>
        <defs>
         <clipPath id="clip_path_7" clipPathUnits="userSpaceOnUse">
          <path d="M 1270,20926 L 2348,20926 2348,21971 1270,21971 1270,20926 Z"/>
         </clipPath>
        </defs>
        <g clip-path="url(#clip_path_7)">
         <path fill="rgb(129,212,26)" stroke="none" d="M 2348,21087 C 2348,20963 2288,20926 2247,20926 2189,20926 2134,20986 2134,21037 2134,21067 2145,21081 2171,21106 2219,21152 2249,21212 2249,21295 2249,21392 2108,21920 1839,21920 1721,21920 1668,21840 1668,21720 1668,21590 1731,21422 1802,21231 1818,21191 1830,21159 1830,21115 1830,21011 1756,20926 1641,20926 1424,20926 1337,21260 1337,21281 1337,21304 1360,21304 1364,21304 1387,21304 1390,21300 1401,21263 1468,21030 1567,20977 1634,20977 1652,20977 1692,20977 1692,21051 1692,21108 1668,21171 1652,21212 1551,21480 1521,21586 1521,21685 1521,21934 1724,21971 1830,21971 2217,21971 2348,21207 2348,21087 L 2348,21087 Z"/>
        </g>
       </g>
      </g>
      <g class="Graphic">
       <title>TexMaths
       </title>
       <desc>14§display§\textcolor{mygreen}{u}§svg§600§TRUE§
       </desc>
       <g id="id21">
        <rect class="BoundingBox" stroke="none" fill="none" x="13716" y="13970" width="1149" height="955"/>
        <defs>
         <clipPath id="clip_path_8" clipPathUnits="userSpaceOnUse">
          <path d="M 13716,13970 L 14864,13970 14864,14924 13716,14924 13716,13970 Z"/>
         </clipPath>
        </defs>
        <g clip-path="url(#clip_path_8)">
         <path fill="rgb(129,212,26)" stroke="none" d="M 14456,14783 C 14479,14869 14553,14924 14644,14924 14718,14924 14767,14876 14801,14808 14837,14732 14864,14604 14864,14600 14864,14579 14845,14579 14839,14579 14817,14579 14815,14587 14809,14617 14779,14734 14739,14878 14650,14878 14606,14878 14585,14850 14585,14781 14585,14734 14610,14635 14627,14562 L 14686,14334 C 14693,14303 14714,14223 14722,14191 14733,14143 14754,14063 14754,14050 14754,14012 14724,13993 14693,13993 14682,13993 14627,13995 14610,14067 14570,14221 14477,14589 14452,14701 14450,14709 14365,14878 14211,14878 14101,14878 14080,14783 14080,14705 14080,14587 14139,14421 14194,14275 14219,14212 14230,14183 14230,14143 14230,14048 14162,13970 14056,13970 13856,13970 13777,14275 13777,14294 13777,14315 13798,14315 13803,14315 13824,14315 13826,14311 13837,14277 13889,14094 13970,14016 14050,14016 14069,14016 14103,14018 14103,14086 14103,14136 14080,14197 14067,14229 13989,14438 13944,14568 13944,14671 13944,14871 14090,14924 14204,14924 14344,14924 14420,14829 14456,14783 L 14456,14783 Z"/>
        </g>
       </g>
      </g>
     </g>
    </g>
   </g>
  </g>
 </g>
</svg>