<?xml version="1.0" encoding="UTF-8"?>
<!DOCTYPE svg PUBLIC "-//W3C//DTD SVG 1.1//EN" "http://www.w3.org/Graphics/SVG/1.1/DTD/svg11.dtd">
<svg version="1.2" width="254mm" height="203.2mm" viewBox="0 0 25400 20320" preserveAspectRatio="xMidYMid" fill-rule="evenodd" stroke-width="28.222" stroke-linejoin="round" xmlns="http://www.w3.org/2000/svg" xmlns:ooo="http://xml.openoffice.org/svg/export" xmlns:xlink="http://www.w3.org/1999/xlink" xmlns:presentation="http://sun.com/xmlns/staroffice/presentation" xmlns:smil="http://www.w3.org/2001/SMIL20/" xmlns:anim="urn:oasis:names:tc:opendocument:xmlns:animation:1.0" xml:space="preserve">
 <defs class="ClipPathGroup">
  <clipPath id="presentation_clip_path" clipPathUnits="userSpaceOnUse">
   <rect x="0" y="0" width="25400" height="20320"/>
  </clipPath>
  <clipPath id="presentation_clip_path_shrink" clipPathUnits="userSpaceOnUse">
   <rect x="25" y="20" width="25350" height="20280"/>
  </clipPath>
 </defs>
 <defs class="TextShapeIndex">
  <g ooo:slide="id1" ooo:id-list="id3 id4 id5 id6 id7 id8 id9 id10 id11 id12 id13 id14 id15 id16 id17 id18 id19 id20 id21 id22 id23 id24"/>
 </defs>
 <defs class="EmbeddedBulletChars">
  <g id="bullet-char-template-57356" transform="scale(0.00048828125,-0.00048828125)">
   <path d="M 580,1141 L 1163,571 580,0 -4,571 580,1141 Z"/>
  </g>
  <g id="bullet-char-template-57354" transform="scale(0.00048828125,-0.00048828125)">
   <path d="M 8,1128 L 1137,1128 1137,0 8,0 8,1128 Z"/>
  </g>
  <g id="bullet-char-template-10146" transform="scale(0.00048828125,-0.00048828125)">
   <path d="M 174,0 L 602,739 174,1481 1456,739 174,0 Z M 1358,739 L 309,1346 659,739 1358,739 Z"/>
  </g>
  <g id="bullet-char-template-10132" transform="scale(0.00048828125,-0.00048828125)">
   <path d="M 2015,739 L 1276,0 717,0 1260,543 174,543 174,936 1260,936 717,1481 1274,1481 2015,739 Z"/>
  </g>
  <g id="bullet-char-template-10007" transform="scale(0.00048828125,-0.00048828125)">
   <path d="M 0,-2 C -7,14 -16,27 -25,37 L 356,567 C 262,823 215,952 215,954 215,979 228,992 255,992 264,992 276,990 289,987 310,991 331,999 354,1012 L 381,999 492,748 772,1049 836,1024 860,1049 C 881,1039 901,1025 922,1006 886,937 835,863 770,784 769,783 710,716 594,584 L 774,223 C 774,196 753,168 711,139 L 727,119 C 717,90 699,76 672,76 641,76 570,178 457,381 L 164,-76 C 142,-110 111,-127 72,-127 30,-127 9,-110 8,-76 1,-67 -2,-52 -2,-32 -2,-23 -1,-13 0,-2 Z"/>
  </g>
  <g id="bullet-char-template-10004" transform="scale(0.00048828125,-0.00048828125)">
   <path d="M 285,-33 C 182,-33 111,30 74,156 52,228 41,333 41,471 41,549 55,616 82,672 116,743 169,778 240,778 293,778 328,747 346,684 L 369,508 C 377,444 397,411 428,410 L 1163,1116 C 1174,1127 1196,1133 1229,1133 1271,1133 1292,1118 1292,1087 L 1292,965 C 1292,929 1282,901 1262,881 L 442,47 C 390,-6 338,-33 285,-33 Z"/>
  </g>
  <g id="bullet-char-template-9679" transform="scale(0.00048828125,-0.00048828125)">
   <path d="M 813,0 C 632,0 489,54 383,161 276,268 223,411 223,592 223,773 276,916 383,1023 489,1130 632,1184 813,1184 992,1184 1136,1130 1245,1023 1353,916 1407,772 1407,592 1407,412 1353,268 1245,161 1136,54 992,0 813,0 Z"/>
  </g>
  <g id="bullet-char-template-8226" transform="scale(0.00048828125,-0.00048828125)">
   <path d="M 346,457 C 273,457 209,483 155,535 101,586 74,649 74,723 74,796 101,859 155,911 209,963 273,989 346,989 419,989 480,963 531,910 582,859 608,796 608,723 608,648 583,586 532,535 482,483 420,457 346,457 Z"/>
  </g>
  <g id="bullet-char-template-8211" transform="scale(0.00048828125,-0.00048828125)">
   <path d="M -4,459 L 1135,459 1135,606 -4,606 -4,459 Z"/>
  </g>
  <g id="bullet-char-template-61548" transform="scale(0.00048828125,-0.00048828125)">
   <path d="M 173,740 C 173,903 231,1043 346,1159 462,1274 601,1332 765,1332 928,1332 1067,1274 1183,1159 1299,1043 1357,903 1357,740 1357,577 1299,437 1183,322 1067,206 928,148 765,148 601,148 462,206 346,322 231,437 173,577 173,740 Z"/>
  </g>
 </defs>
 <g>
  <g id="id2" class="Master_Slide">
   <g id="bg-id2" class="Background"/>
   <g id="bo-id2" class="BackgroundObjects"/>
  </g>
 </g>
 <g class="SlideGroup">
  <g>
   <g id="container-id1">
    <g id="id1" class="Slide" clip-path="url(#presentation_clip_path)">
     <g class="Page">
      <g id="bg-id1" class="Background">
       <path fill="rgb(25,25,25)" stroke="none" d="M 12700,20319 L 0,20319 0,0 25399,0 25399,20319 12700,20319 Z"/>
      </g>
      <g class="com.sun.star.drawing.CustomShape">
       <g id="id3">
        <rect class="BoundingBox" stroke="none" fill="none" x="12773" y="1089" width="4298" height="3790"/>
        <path fill="rgb(129,212,26)" stroke="none" d="M 14922,4825 L 12826,4825 12826,1142 17017,1142 17017,4825 14922,4825 Z"/>
        <path fill="none" stroke="rgb(129,212,26)" stroke-width="106" stroke-linejoin="round" d="M 14922,4825 L 12826,4825 12826,1142 17017,1142 17017,4825 14922,4825 Z"/>
       </g>
      </g>
      <g class="com.sun.star.drawing.CustomShape">
       <g id="id4">
        <rect class="BoundingBox" stroke="none" fill="none" x="7070" y="4657" width="3513" height="3259"/>
        <path fill="rgb(89,131,176)" stroke="none" d="M 10541,6286 C 10541,6565 10462,6839 10311,7080 10161,7321 9944,7522 9684,7661 9423,7801 9127,7874 8826,7874 8525,7874 8229,7801 7969,7661 7708,7522 7491,7321 7341,7080 7190,6839 7111,6565 7111,6286 7111,6007 7190,5733 7341,5492 7491,5251 7708,5050 7969,4911 8229,4771 8525,4698 8826,4698 9127,4698 9423,4771 9683,4911 9944,5050 10161,5251 10311,5492 10462,5733 10541,6007 10541,6286 L 10541,6286 Z"/>
        <path fill="none" stroke="rgb(89,131,176)" stroke-width="81" stroke-linejoin="round" d="M 10541,6286 C 10541,6565 10462,6839 10311,7080 10161,7321 9944,7522 9684,7661 9423,7801 9127,7874 8826,7874 8525,7874 8229,7801 7969,7661 7708,7522 7491,7321 7341,7080 7190,6839 7111,6565 7111,6286 7111,6007 7190,5733 7341,5492 7491,5251 7708,5050 7969,4911 8229,4771 8525,4698 8826,4698 9127,4698 9423,4771 9683,4911 9944,5050 10161,5251 10311,5492 10462,5733 10541,6007 10541,6286 L 10541,6286 Z"/>
       </g>
      </g>
      <g class="com.sun.star.drawing.CustomShape">
       <g id="id5">
        <rect class="BoundingBox" stroke="none" fill="none" x="5436" y="13202" width="4325" height="3952"/>
        <path fill="rgb(129,212,26)" stroke="none" d="M 7598,17153 L 5436,17153 5436,13202 9760,13202 9760,17153 7598,17153 Z"/>
       </g>
      </g>
      <g class="com.sun.star.drawing.CustomShape">
       <g id="id6">
        <rect class="BoundingBox" stroke="none" fill="none" x="3637" y="11557" width="3551" height="3294"/>
        <path fill="rgb(89,131,176)" fill-opacity="0.522" stroke="rgb(255,255,255)" stroke-opacity="0.522" d="M 7187,13204 C 7187,13493 7105,13776 6949,14027 6794,14277 6570,14485 6300,14629 6030,14774 5724,14850 5412,14850 5101,14850 4795,14774 4525,14629 4255,14485 4031,14277 3876,14027 3720,13776 3638,13493 3638,13204 3638,12914 3720,12631 3876,12380 4031,12130 4255,11922 4525,11778 4795,11633 5101,11557 5412,11557 5724,11557 6030,11633 6300,11778 6570,11922 6794,12130 6949,12380 7105,12631 7187,12914 7187,13204 L 7187,13204 Z"/>
       </g>
      </g>
      <g class="com.sun.star.drawing.CustomShape">
       <g id="id7">
        <rect class="BoundingBox" stroke="none" fill="none" x="5910" y="11559" width="3550" height="3295"/>
        <path fill="rgb(89,131,176)" fill-opacity="0.522" stroke="rgb(255,255,255)" stroke-opacity="0.522" d="M 9459,13206 C 9459,13495 9377,13778 9221,14029 9066,14279 8842,14487 8572,14631 8302,14776 7996,14852 7684,14852 7373,14852 7067,14776 6797,14631 6527,14487 6303,14279 6148,14029 5992,13778 5910,13495 5910,13206 5910,12916 5992,12633 6148,12382 6303,12132 6527,11924 6797,11780 7067,11635 7373,11559 7684,11559 7996,11559 8302,11635 8572,11780 8842,11924 9066,12132 9221,12382 9377,12633 9459,12916 9459,13205 L 9459,13206 Z"/>
       </g>
      </g>
      <g class="com.sun.star.drawing.CustomShape">
       <g id="id8">
        <rect class="BoundingBox" stroke="none" fill="none" x="8005" y="11559" width="3550" height="3295"/>
        <path fill="rgb(89,131,176)" fill-opacity="0.522" stroke="rgb(255,255,255)" stroke-opacity="0.522" d="M 11554,13206 C 11554,13495 11472,13779 11316,14030 11161,14280 10937,14488 10667,14632 10397,14777 10091,14853 9780,14853 9469,14853 9163,14777 8893,14632 8623,14488 8399,14280 8244,14030 8088,13779 8006,13495 8006,13206 8006,12917 8088,12633 8244,12383 8399,12132 8623,11924 8893,11780 9163,11635 9469,11559 9780,11559 10091,11559 10397,11635 10667,11780 10937,11924 11161,12132 11316,12382 11472,12633 11554,12917 11554,13206 L 11554,13206 Z"/>
       </g>
      </g>
      <g class="com.sun.star.drawing.CustomShape">
       <g id="id9">
        <rect class="BoundingBox" stroke="none" fill="none" x="7969" y="13243" width="3550" height="3295"/>
        <path fill="rgb(89,131,176)" fill-opacity="0.522" stroke="rgb(255,255,255)" stroke-opacity="0.522" d="M 11518,14890 C 11518,15179 11436,15462 11280,15713 11125,15963 10901,16171 10631,16315 10361,16460 10055,16536 9744,16536 9432,16536 9126,16460 8856,16315 8586,16171 8362,15963 8207,15713 8051,15462 7969,15179 7969,14890 7969,14600 8051,14317 8207,14066 8362,13816 8586,13608 8856,13464 9126,13319 9432,13243 9743,13243 10055,13243 10361,13319 10631,13464 10901,13608 11125,13816 11280,14066 11436,14317 11518,14600 11518,14890 L 11518,14890 Z"/>
       </g>
      </g>
      <g class="com.sun.star.drawing.CustomShape">
       <g id="id10">
        <rect class="BoundingBox" stroke="none" fill="none" x="8009" y="15460" width="3550" height="3296"/>
        <path fill="rgb(89,131,176)" fill-opacity="0.522" stroke="rgb(255,255,255)" stroke-opacity="0.522" d="M 11558,17107 C 11558,17396 11476,17680 11320,17931 11165,18181 10941,18389 10671,18533 10401,18678 10095,18754 9784,18754 9472,18754 9166,18678 8896,18533 8626,18389 8402,18181 8247,17931 8091,17680 8009,17396 8009,17107 8009,16818 8091,16534 8247,16284 8402,16033 8626,15825 8896,15681 9166,15536 9472,15460 9783,15460 10095,15460 10401,15536 10671,15681 10941,15825 11165,16033 11320,16284 11476,16534 11558,16818 11558,17107 L 11558,17107 Z"/>
       </g>
      </g>
      <g class="com.sun.star.drawing.CustomShape">
       <g id="id11">
        <rect class="BoundingBox" stroke="none" fill="none" x="3638" y="15533" width="3551" height="3295"/>
        <path fill="rgb(89,131,176)" fill-opacity="0.522" stroke="rgb(255,255,255)" stroke-opacity="0.522" d="M 7188,17180 C 7188,17469 7106,17752 6950,18003 6795,18253 6571,18461 6301,18605 6031,18750 5725,18826 5413,18826 5102,18826 4796,18750 4526,18605 4256,18461 4032,18253 3877,18003 3721,17752 3639,17469 3639,17180 3639,16890 3721,16607 3877,16356 4032,16106 4256,15898 4526,15754 4796,15609 5102,15533 5413,15533 5725,15533 6031,15609 6301,15754 6571,15898 6795,16106 6950,16356 7106,16607 7188,16890 7188,17180 L 7188,17180 Z"/>
       </g>
      </g>
      <g class="com.sun.star.drawing.CustomShape">
       <g id="id12">
        <rect class="BoundingBox" stroke="none" fill="none" x="5910" y="15535" width="3549" height="3294"/>
        <path fill="rgb(89,131,176)" fill-opacity="0.522" stroke="rgb(255,255,255)" stroke-opacity="0.522" d="M 9458,17182 C 9458,17471 9376,17754 9220,18005 9065,18255 8841,18463 8571,18607 8301,18752 7995,18828 7684,18828 7373,18828 7067,18752 6797,18607 6527,18463 6303,18255 6148,18005 5992,17754 5910,17471 5910,17182 5910,16892 5992,16609 6148,16358 6303,16108 6527,15900 6797,15756 7067,15611 7373,15535 7684,15535 7995,15535 8301,15611 8571,15756 8841,15900 9065,16108 9220,16358 9376,16609 9458,16892 9458,17182 L 9458,17182 Z"/>
       </g>
      </g>
      <g class="com.sun.star.drawing.CustomShape">
       <g id="id13">
        <rect class="BoundingBox" stroke="none" fill="none" x="3518" y="13244" width="3550" height="3294"/>
        <path fill="rgb(89,131,176)" fill-opacity="0.522" stroke="rgb(255,255,255)" stroke-opacity="0.522" d="M 7067,14891 C 7067,15180 6985,15463 6829,15714 6674,15964 6450,16172 6180,16316 5910,16461 5604,16537 5293,16537 4981,16537 4675,16461 4405,16316 4135,16172 3911,15964 3756,15714 3600,15463 3518,15180 3518,14891 3518,14601 3600,14318 3756,14067 3911,13817 4135,13609 4405,13465 4675,13320 4981,13244 5292,13244 5604,13244 5910,13320 6180,13465 6450,13609 6674,13817 6829,14067 6985,14318 7067,14601 7067,14890 L 7067,14891 Z"/>
       </g>
      </g>
      <g class="com.sun.star.drawing.CustomShape">
       <g id="id14">
        <rect class="BoundingBox" stroke="none" fill="none" x="16256" y="11557" width="8130" height="7368"/>
        <path fill="rgb(236,155,164)" stroke="none" d="M 18104,11557 L 18105,11557 C 17780,11557 17462,11642 17181,11805 16899,11967 16666,12200 16504,12482 16341,12763 16256,13081 16256,13406 L 16256,17075 16256,17075 C 16256,17400 16341,17718 16504,18000 16666,18281 16899,18514 17181,18676 17462,18839 17780,18924 18105,18924 L 22536,18924 22536,18924 C 22861,18924 23179,18839 23461,18676 23742,18514 23975,18281 24137,18000 24300,17718 24385,17400 24385,17075 L 24385,13405 24385,13406 24385,13406 C 24385,13081 24300,12763 24137,12482 23975,12200 23742,11967 23461,11805 23179,11642 22861,11557 22536,11557 L 18104,11557 Z"/>
       </g>
      </g>
      <g class="com.sun.star.drawing.CustomShape">
       <g id="id15">
        <rect class="BoundingBox" stroke="none" fill="none" x="11937" y="14350" width="1527" height="1020"/>
        <path fill="rgb(255,255,255)" stroke="none" d="M 11938,14605 L 13081,14605 13081,14351 13462,14859 13081,15368 13081,15113 11938,15113 11938,14605 Z"/>
        <path fill="none" stroke="rgb(255,255,255)" d="M 11938,14605 L 13081,14605 13081,14351 13462,14859 13081,15368 13081,15113 11938,15113 11938,14605 Z"/>
       </g>
      </g>
      <g class="Graphic">
       <title>TexMaths
       </title>
       <desc>14§display§\textcolor{mydarkgreen}{\mathcal{B}}§svg§600§TRUE§
       </desc>
       <g id="id16">
        <rect class="BoundingBox" stroke="none" fill="none" x="14224" y="2286" width="1407" height="1524"/>
        <path fill="rgb(34,75,18)" stroke="none" d="M 14827,2409 C 14831,2388 14831,2384 14831,2378 14831,2365 14827,2359 14810,2359 14789,2359 14732,2388 14694,2407 14607,2450 14535,2486 14535,2520 14535,2532 14548,2532 14556,2532 14578,2532 14628,2505 14664,2488 14641,2674 14596,2917 14561,3080 14491,3402 14455,3518 14362,3702 14352,3719 14352,3722 14352,3724 14352,3738 14368,3738 14371,3738 14402,3738 14482,3704 14512,3650 14537,3607 14609,3468 14666,3248 14708,3085 14780,2837 14915,2642 15002,2519 15082,2462 15201,2462 15304,2462 15397,2528 15397,2628 15397,2795 15217,2856 15019,2922 14996,2930 14865,2975 14865,3023 14865,3034 14879,3036 14884,3036 14892,3036 14936,3029 14975,3029 15167,3029 15323,3142 15323,3322 15323,3558 15122,3633 14949,3633 14803,3633 14732,3554 14708,3527 14700,3518 14698,3514 14683,3514 14641,3514 14544,3573 14544,3607 14544,3612 14618,3738 14823,3738 15091,3738 15484,3548 15484,3243 15484,3084 15378,2964 15184,2928 15336,2864 15559,2727 15559,2549 15559,2439 15467,2357 15327,2357 15262,2357 15019,2374 14789,2659 L 14827,2409 14827,2409 Z"/>
       </g>
      </g>
      <g class="Graphic">
       <title>TexMaths
       </title>
       <desc>14§display§\textcolor{red}{\mathcal{A} \oplus \mathcal{B}}§svg§600§TRUE§
       </desc>
       <g id="id17">
        <rect class="BoundingBox" stroke="none" fill="none" x="17653" y="14351" width="5090" height="1524"/>
        <defs>
         <clipPath id="clip_path_1" clipPathUnits="userSpaceOnUse">
          <path d="M 17653,14351 L 22742,14351 22742,15874 17653,15874 17653,14351 Z"/>
         </clipPath>
        </defs>
        <g clip-path="url(#clip_path_1)">
         <path fill="rgb(255,0,0)" stroke="none" d="M 18780,15405 C 18790,15524 18813,15611 18822,15647 18843,15732 18852,15774 18934,15774 19019,15774 19165,15689 19165,15651 19165,15641 19158,15638 19148,15638 19123,15638 19084,15658 19078,15662 19065,15670 19061,15670 19057,15670 19004,15670 18993,15619 18970,15505 18957,15443 18940,15367 18924,15108 18911,14915 18904,14722 18904,14529 18904,14483 18906,14434 18906,14389 18906,14359 18906,14351 18885,14351 18858,14351 18780,14383 18746,14434 L 18733,14455 C 18583,14775 18443,15004 18345,15157 18233,15329 18036,15638 17933,15638 17863,15638 17805,15592 17788,15524 17786,15520 17782,15509 17774,15509 17746,15509 17704,15600 17704,15653 17704,15728 17786,15812 17875,15812 18005,15812 18223,15471 18265,15405 L 18780,15405 18780,15405 Z M 18743,14584 L 18743,14693 C 18743,14803 18746,14913 18752,15023 18754,15060 18761,15202 18771,15301 L 18424,15301 C 18394,15301 18365,15301 18316,15331 18449,15127 18559,14930 18570,14909 18665,14741 18716,14631 18741,14584 L 18743,14584 18743,14584 Z"/>
         <path fill="rgb(255,0,0)" stroke="none" d="M 20955,15244 C 20955,14896 20671,14614 20324,14614 19972,14614 19691,14900 19691,15244 19691,15592 19976,15874 20322,15874 20675,15874 20955,15588 20955,15244 L 20955,15244 Z M 19739,15219 C 19758,14902 20004,14676 20300,14661 L 20300,15219 19739,15219 19739,15219 Z M 20347,14661 C 20644,14676 20889,14903 20908,15219 L 20347,15219 20347,14661 20347,14661 Z M 20300,15827 C 20006,15812 19758,15590 19739,15267 L 20300,15267 20300,15827 20300,15827 Z M 20908,15267 C 20889,15590 20639,15812 20347,15827 L 20347,15267 20908,15267 20908,15267 Z"/>
         <path fill="rgb(255,0,0)" stroke="none" d="M 22012,14432 C 22016,14412 22016,14408 22016,14402 22016,14389 22012,14383 21995,14383 21975,14383 21918,14412 21880,14430 21793,14474 21721,14510 21721,14544 21721,14555 21734,14555 21742,14555 21764,14555 21814,14529 21850,14512 21827,14697 21781,14939 21747,15102 21677,15424 21641,15539 21548,15723 21539,15740 21539,15743 21539,15745 21539,15759 21554,15759 21558,15759 21588,15759 21668,15725 21698,15672 21723,15628 21795,15490 21851,15270 21893,15108 21965,14860 22100,14665 22187,14542 22266,14485 22386,14485 22488,14485 22581,14552 22581,14652 22581,14818 22401,14879 22204,14945 22181,14953 22050,14998 22050,15045 22050,15057 22064,15059 22069,15059 22077,15059 22120,15051 22160,15051 22352,15051 22507,15165 22507,15344 22507,15579 22306,15655 22134,15655 21988,15655 21918,15575 21893,15549 21886,15539 21884,15535 21868,15535 21827,15535 21730,15594 21730,15628 21730,15634 21804,15759 22009,15759 22276,15759 22668,15569 22668,15265 22668,15106 22562,14987 22369,14951 22520,14886 22742,14750 22742,14572 22742,14463 22651,14381 22511,14381 22446,14381 22204,14398 21975,14682 L 22012,14432 22012,14432 Z"/>
        </g>
       </g>
      </g>
      <g class="com.sun.star.drawing.LineShape">
       <g id="id18">
        <rect class="BoundingBox" stroke="none" fill="none" x="8425" y="3302" width="423" height="2992"/>
        <path fill="none" stroke="rgb(129,212,26)" stroke-width="81" stroke-linejoin="round" d="M 8636,6252 L 8636,3905"/>
        <path fill="rgb(129,212,26)" stroke="none" d="M 8636,3302 L 8426,3934 8847,3934 8636,3302 Z"/>
       </g>
      </g>
      <g class="com.sun.star.drawing.LineShape">
       <g id="id19">
        <rect class="BoundingBox" stroke="none" fill="none" x="8598" y="6023" width="2833" height="423"/>
        <path fill="none" stroke="rgb(255,0,0)" stroke-width="81" stroke-linejoin="round" d="M 8639,6272 L 10827,6234"/>
        <path fill="rgb(255,0,0)" stroke="none" d="M 11430,6223 L 10795,6024 10802,6445 11430,6223 Z"/>
       </g>
      </g>
      <g class="Graphic">
       <title>TexMaths
       </title>
       <desc>14§display§\textcolor{mydarkblue}{\mathcal{A}}§svg§600§TRUE§
       </desc>
       <g id="id20">
        <rect class="BoundingBox" stroke="none" fill="none" x="7747" y="5403" width="1637" height="1583"/>
        <defs>
         <clipPath id="clip_path_2" clipPathUnits="userSpaceOnUse">
          <path d="M 7747,5403 L 9383,5403 9383,6985 7747,6985 7747,5403 Z"/>
         </clipPath>
        </defs>
        <g clip-path="url(#clip_path_2)">
         <path fill="rgb(8,69,148)" stroke="none" d="M 8967,6544 C 8977,6674 9002,6768 9012,6807 9034,6899 9045,6944 9133,6944 9225,6944 9383,6852 9383,6811 9383,6801 9375,6796 9365,6796 9338,6796 9295,6819 9289,6823 9274,6831 9270,6831 9266,6831 9209,6831 9196,6776 9172,6653 9157,6585 9139,6503 9123,6223 9108,6014 9100,5805 9100,5596 9100,5546 9102,5493 9102,5444 9102,5411 9102,5403 9080,5403 9051,5403 8967,5438 8930,5493 L 8916,5516 C 8754,5862 8602,6110 8495,6276 8374,6462 8161,6796 8050,6796 7975,6796 7911,6747 7893,6674 7891,6669 7886,6657 7878,6657 7847,6657 7802,6755 7802,6813 7802,6895 7891,6985 7987,6985 8128,6985 8364,6616 8409,6544 L 8967,6544 8967,6544 Z M 8926,5655 L 8926,5774 C 8926,5893 8930,6012 8936,6130 8938,6171 8946,6325 8957,6432 L 8581,6432 C 8549,6432 8518,6432 8465,6464 8608,6243 8727,6030 8739,6008 8842,5825 8897,5706 8924,5655 L 8926,5655 8926,5655 Z"/>
        </g>
       </g>
      </g>
      <g class="com.sun.star.drawing.LineShape">
       <g id="id21">
        <rect class="BoundingBox" stroke="none" fill="none" x="13632" y="15494" width="423" height="2992"/>
        <path fill="none" stroke="rgb(129,212,26)" stroke-width="81" stroke-linejoin="round" d="M 13843,18444 L 13843,16097"/>
        <path fill="rgb(129,212,26)" stroke="none" d="M 13843,15494 L 13633,16126 14054,16126 13843,15494 Z"/>
       </g>
      </g>
      <g class="com.sun.star.drawing.LineShape">
       <g id="id22">
        <rect class="BoundingBox" stroke="none" fill="none" x="13805" y="18215" width="2833" height="423"/>
        <path fill="none" stroke="rgb(255,0,0)" stroke-width="81" stroke-linejoin="round" d="M 13846,18464 L 16034,18426"/>
        <path fill="rgb(255,0,0)" stroke="none" d="M 16637,18415 L 16002,18216 16009,18637 16637,18415 Z"/>
       </g>
      </g>
      <g class="com.sun.star.drawing.LineShape">
       <g id="id23">
        <rect class="BoundingBox" stroke="none" fill="none" x="1148" y="15494" width="423" height="2992"/>
        <path fill="none" stroke="rgb(129,212,26)" stroke-width="81" stroke-linejoin="round" d="M 1359,18444 L 1359,16097"/>
        <path fill="rgb(129,212,26)" stroke="none" d="M 1359,15494 L 1149,16126 1570,16126 1359,15494 Z"/>
       </g>
      </g>
      <g class="com.sun.star.drawing.LineShape">
       <g id="id24">
        <rect class="BoundingBox" stroke="none" fill="none" x="1321" y="18215" width="2833" height="423"/>
        <path fill="none" stroke="rgb(255,0,0)" stroke-width="81" stroke-linejoin="round" d="M 1362,18464 L 3550,18426"/>
        <path fill="rgb(255,0,0)" stroke="none" d="M 4153,18415 L 3518,18216 3525,18637 4153,18415 Z"/>
       </g>
      </g>
     </g>
    </g>
   </g>
  </g>
 </g>
</svg>