<?xml version="1.0" encoding="utf-8" standalone="no"?>
<!DOCTYPE svg PUBLIC "-//W3C//DTD SVG 1.1//EN"
  "http://www.w3.org/Graphics/SVG/1.1/DTD/svg11.dtd">
<svg xmlns:xlink="http://www.w3.org/1999/xlink" width="398.88pt" height="386.64pt" viewBox="0 0 398.88 386.64" xmlns="http://www.w3.org/2000/svg" version="1.1">
 <metadata>
  <rdf:RDF xmlns:dc="http://purl.org/dc/elements/1.1/" xmlns:cc="http://creativecommons.org/ns#" xmlns:rdf="http://www.w3.org/1999/02/22-rdf-syntax-ns#">
   <cc:Work>
    <dc:type rdf:resource="http://purl.org/dc/dcmitype/StillImage"/>
    <dc:date>2025-03-04T20:59:02.111425</dc:date>
    <dc:format>image/svg+xml</dc:format>
    <dc:creator>
     <cc:Agent>
      <dc:title>Matplotlib v3.10.0, https://matplotlib.org/</dc:title>
     </cc:Agent>
    </dc:creator>
   </cc:Work>
  </rdf:RDF>
 </metadata>
 <defs>
  <style type="text/css">*{stroke-linejoin: round; stroke-linecap: butt}</style>
 </defs>
 <g id="figure_1">
  <g id="patch_1">
   <path d="M 0 386.64 
L 398.88 386.64 
L 398.88 0 
L 0 0 
z
" style="fill: #191919"/>
  </g>
  <g id="axes_1">
   <g id="patch_2">
    <path d="M 49.86 344.1096 
L 358.992 344.1096 
L 358.992 46.3968 
L 49.86 46.3968 
z
" style="fill: #191919"/>
   </g>
   <g id="matplotlib.axis_1">
    <g id="xtick_1">
     <g id="line2d_1">
      <defs>
       <path id="mf1cfdebc19" d="M 0 0 
L 0 3.5 
" style="stroke: #ffffff; stroke-width: 0.8"/>
      </defs>
      <g>
       <use xlink:href="#mf1cfdebc19" x="49.86" y="344.1096" style="fill: #ffffff; stroke: #ffffff; stroke-width: 0.8"/>
      </g>
     </g>
     <g id="text_1">
      <!-- −2.0 -->
      <g style="fill: #ffffff" transform="translate(37.718594 358.708037) scale(0.1 -0.1)">
       <defs>
        <path id="DejaVuSans-2212" d="M 678 2272 
L 4684 2272 
L 4684 1741 
L 678 1741 
L 678 2272 
z
" transform="scale(0.015625)"/>
        <path id="DejaVuSans-32" d="M 1228 531 
L 3431 531 
L 3431 0 
L 469 0 
L 469 531 
Q 828 903 1448 1529 
Q 2069 2156 2228 2338 
Q 2531 2678 2651 2914 
Q 2772 3150 2772 3378 
Q 2772 3750 2511 3984 
Q 2250 4219 1831 4219 
Q 1534 4219 1204 4116 
Q 875 4013 500 3803 
L 500 4441 
Q 881 4594 1212 4672 
Q 1544 4750 1819 4750 
Q 2544 4750 2975 4387 
Q 3406 4025 3406 3419 
Q 3406 3131 3298 2873 
Q 3191 2616 2906 2266 
Q 2828 2175 2409 1742 
Q 1991 1309 1228 531 
z
" transform="scale(0.015625)"/>
        <path id="DejaVuSans-2e" d="M 684 794 
L 1344 794 
L 1344 0 
L 684 0 
L 684 794 
z
" transform="scale(0.015625)"/>
        <path id="DejaVuSans-30" d="M 2034 4250 
Q 1547 4250 1301 3770 
Q 1056 3291 1056 2328 
Q 1056 1369 1301 889 
Q 1547 409 2034 409 
Q 2525 409 2770 889 
Q 3016 1369 3016 2328 
Q 3016 3291 2770 3770 
Q 2525 4250 2034 4250 
z
M 2034 4750 
Q 2819 4750 3233 4129 
Q 3647 3509 3647 2328 
Q 3647 1150 3233 529 
Q 2819 -91 2034 -91 
Q 1250 -91 836 529 
Q 422 1150 422 2328 
Q 422 3509 836 4129 
Q 1250 4750 2034 4750 
z
" transform="scale(0.015625)"/>
       </defs>
       <use xlink:href="#DejaVuSans-2212"/>
       <use xlink:href="#DejaVuSans-32" transform="translate(83.789062 0)"/>
       <use xlink:href="#DejaVuSans-2e" transform="translate(147.412109 0)"/>
       <use xlink:href="#DejaVuSans-30" transform="translate(179.199219 0)"/>
      </g>
     </g>
    </g>
    <g id="xtick_2">
     <g id="line2d_2">
      <g>
       <use xlink:href="#mf1cfdebc19" x="88.5015" y="344.1096" style="fill: #ffffff; stroke: #ffffff; stroke-width: 0.8"/>
      </g>
     </g>
     <g id="text_2">
      <!-- −1.5 -->
      <g style="fill: #ffffff" transform="translate(76.360094 358.708037) scale(0.1 -0.1)">
       <defs>
        <path id="DejaVuSans-31" d="M 794 531 
L 1825 531 
L 1825 4091 
L 703 3866 
L 703 4441 
L 1819 4666 
L 2450 4666 
L 2450 531 
L 3481 531 
L 3481 0 
L 794 0 
L 794 531 
z
" transform="scale(0.015625)"/>
        <path id="DejaVuSans-35" d="M 691 4666 
L 3169 4666 
L 3169 4134 
L 1269 4134 
L 1269 2991 
Q 1406 3038 1543 3061 
Q 1681 3084 1819 3084 
Q 2600 3084 3056 2656 
Q 3513 2228 3513 1497 
Q 3513 744 3044 326 
Q 2575 -91 1722 -91 
Q 1428 -91 1123 -41 
Q 819 9 494 109 
L 494 744 
Q 775 591 1075 516 
Q 1375 441 1709 441 
Q 2250 441 2565 725 
Q 2881 1009 2881 1497 
Q 2881 1984 2565 2268 
Q 2250 2553 1709 2553 
Q 1456 2553 1204 2497 
Q 953 2441 691 2322 
L 691 4666 
z
" transform="scale(0.015625)"/>
       </defs>
       <use xlink:href="#DejaVuSans-2212"/>
       <use xlink:href="#DejaVuSans-31" transform="translate(83.789062 0)"/>
       <use xlink:href="#DejaVuSans-2e" transform="translate(147.412109 0)"/>
       <use xlink:href="#DejaVuSans-35" transform="translate(179.199219 0)"/>
      </g>
     </g>
    </g>
    <g id="xtick_3">
     <g id="line2d_3">
      <g>
       <use xlink:href="#mf1cfdebc19" x="127.143" y="344.1096" style="fill: #ffffff; stroke: #ffffff; stroke-width: 0.8"/>
      </g>
     </g>
     <g id="text_3">
      <!-- −1.0 -->
      <g style="fill: #ffffff" transform="translate(115.001594 358.708037) scale(0.1 -0.1)">
       <use xlink:href="#DejaVuSans-2212"/>
       <use xlink:href="#DejaVuSans-31" transform="translate(83.789062 0)"/>
       <use xlink:href="#DejaVuSans-2e" transform="translate(147.412109 0)"/>
       <use xlink:href="#DejaVuSans-30" transform="translate(179.199219 0)"/>
      </g>
     </g>
    </g>
    <g id="xtick_4">
     <g id="line2d_4">
      <g>
       <use xlink:href="#mf1cfdebc19" x="165.7845" y="344.1096" style="fill: #ffffff; stroke: #ffffff; stroke-width: 0.8"/>
      </g>
     </g>
     <g id="text_4">
      <!-- −0.5 -->
      <g style="fill: #ffffff" transform="translate(153.643094 358.708037) scale(0.1 -0.1)">
       <use xlink:href="#DejaVuSans-2212"/>
       <use xlink:href="#DejaVuSans-30" transform="translate(83.789062 0)"/>
       <use xlink:href="#DejaVuSans-2e" transform="translate(147.412109 0)"/>
       <use xlink:href="#DejaVuSans-35" transform="translate(179.199219 0)"/>
      </g>
     </g>
    </g>
    <g id="xtick_5">
     <g id="line2d_5">
      <g>
       <use xlink:href="#mf1cfdebc19" x="204.426" y="344.1096" style="fill: #ffffff; stroke: #ffffff; stroke-width: 0.8"/>
      </g>
     </g>
     <g id="text_5">
      <!-- 0.0 -->
      <g style="fill: #ffffff" transform="translate(196.474437 358.708037) scale(0.1 -0.1)">
       <use xlink:href="#DejaVuSans-30"/>
       <use xlink:href="#DejaVuSans-2e" transform="translate(63.623047 0)"/>
       <use xlink:href="#DejaVuSans-30" transform="translate(95.410156 0)"/>
      </g>
     </g>
    </g>
    <g id="xtick_6">
     <g id="line2d_6">
      <g>
       <use xlink:href="#mf1cfdebc19" x="243.0675" y="344.1096" style="fill: #ffffff; stroke: #ffffff; stroke-width: 0.8"/>
      </g>
     </g>
     <g id="text_6">
      <!-- 0.5 -->
      <g style="fill: #ffffff" transform="translate(235.115938 358.708037) scale(0.1 -0.1)">
       <use xlink:href="#DejaVuSans-30"/>
       <use xlink:href="#DejaVuSans-2e" transform="translate(63.623047 0)"/>
       <use xlink:href="#DejaVuSans-35" transform="translate(95.410156 0)"/>
      </g>
     </g>
    </g>
    <g id="xtick_7">
     <g id="line2d_7">
      <g>
       <use xlink:href="#mf1cfdebc19" x="281.709" y="344.1096" style="fill: #ffffff; stroke: #ffffff; stroke-width: 0.8"/>
      </g>
     </g>
     <g id="text_7">
      <!-- 1.0 -->
      <g style="fill: #ffffff" transform="translate(273.757437 358.708037) scale(0.1 -0.1)">
       <use xlink:href="#DejaVuSans-31"/>
       <use xlink:href="#DejaVuSans-2e" transform="translate(63.623047 0)"/>
       <use xlink:href="#DejaVuSans-30" transform="translate(95.410156 0)"/>
      </g>
     </g>
    </g>
    <g id="xtick_8">
     <g id="line2d_8">
      <g>
       <use xlink:href="#mf1cfdebc19" x="320.3505" y="344.1096" style="fill: #ffffff; stroke: #ffffff; stroke-width: 0.8"/>
      </g>
     </g>
     <g id="text_8">
      <!-- 1.5 -->
      <g style="fill: #ffffff" transform="translate(312.398937 358.708037) scale(0.1 -0.1)">
       <use xlink:href="#DejaVuSans-31"/>
       <use xlink:href="#DejaVuSans-2e" transform="translate(63.623047 0)"/>
       <use xlink:href="#DejaVuSans-35" transform="translate(95.410156 0)"/>
      </g>
     </g>
    </g>
    <g id="xtick_9">
     <g id="line2d_9">
      <g>
       <use xlink:href="#mf1cfdebc19" x="358.992" y="344.1096" style="fill: #ffffff; stroke: #ffffff; stroke-width: 0.8"/>
      </g>
     </g>
     <g id="text_9">
      <!-- 2.0 -->
      <g style="fill: #ffffff" transform="translate(351.040437 358.708037) scale(0.1 -0.1)">
       <use xlink:href="#DejaVuSans-32"/>
       <use xlink:href="#DejaVuSans-2e" transform="translate(63.623047 0)"/>
       <use xlink:href="#DejaVuSans-30" transform="translate(95.410156 0)"/>
      </g>
     </g>
    </g>
    <g id="text_10">
     <!-- x -->
     <g style="fill: #ffffff" transform="translate(201.466625 372.386163) scale(0.1 -0.1)">
      <defs>
       <path id="DejaVuSans-78" d="M 3513 3500 
L 2247 1797 
L 3578 0 
L 2900 0 
L 1881 1375 
L 863 0 
L 184 0 
L 1544 1831 
L 300 3500 
L 978 3500 
L 1906 2253 
L 2834 3500 
L 3513 3500 
z
" transform="scale(0.015625)"/>
      </defs>
      <use xlink:href="#DejaVuSans-78"/>
     </g>
    </g>
   </g>
   <g id="matplotlib.axis_2">
    <g id="ytick_1">
     <g id="line2d_10">
      <defs>
       <path id="mbe65ff522f" d="M 0 0 
L -3.5 0 
" style="stroke: #ffffff; stroke-width: 0.8"/>
      </defs>
      <g>
       <use xlink:href="#mbe65ff522f" x="49.86" y="344.1096" style="fill: #ffffff; stroke: #ffffff; stroke-width: 0.8"/>
      </g>
     </g>
     <g id="text_11">
      <!-- −2.0 -->
      <g style="fill: #ffffff" transform="translate(18.577187 347.908819) scale(0.1 -0.1)">
       <use xlink:href="#DejaVuSans-2212"/>
       <use xlink:href="#DejaVuSans-32" transform="translate(83.789062 0)"/>
       <use xlink:href="#DejaVuSans-2e" transform="translate(147.412109 0)"/>
       <use xlink:href="#DejaVuSans-30" transform="translate(179.199219 0)"/>
      </g>
     </g>
    </g>
    <g id="ytick_2">
     <g id="line2d_11">
      <g>
       <use xlink:href="#mbe65ff522f" x="49.86" y="306.8955" style="fill: #ffffff; stroke: #ffffff; stroke-width: 0.8"/>
      </g>
     </g>
     <g id="text_12">
      <!-- −1.5 -->
      <g style="fill: #ffffff" transform="translate(18.577187 310.694719) scale(0.1 -0.1)">
       <use xlink:href="#DejaVuSans-2212"/>
       <use xlink:href="#DejaVuSans-31" transform="translate(83.789062 0)"/>
       <use xlink:href="#DejaVuSans-2e" transform="translate(147.412109 0)"/>
       <use xlink:href="#DejaVuSans-35" transform="translate(179.199219 0)"/>
      </g>
     </g>
    </g>
    <g id="ytick_3">
     <g id="line2d_12">
      <g>
       <use xlink:href="#mbe65ff522f" x="49.86" y="269.6814" style="fill: #ffffff; stroke: #ffffff; stroke-width: 0.8"/>
      </g>
     </g>
     <g id="text_13">
      <!-- −1.0 -->
      <g style="fill: #ffffff" transform="translate(18.577187 273.480619) scale(0.1 -0.1)">
       <use xlink:href="#DejaVuSans-2212"/>
       <use xlink:href="#DejaVuSans-31" transform="translate(83.789062 0)"/>
       <use xlink:href="#DejaVuSans-2e" transform="translate(147.412109 0)"/>
       <use xlink:href="#DejaVuSans-30" transform="translate(179.199219 0)"/>
      </g>
     </g>
    </g>
    <g id="ytick_4">
     <g id="line2d_13">
      <g>
       <use xlink:href="#mbe65ff522f" x="49.86" y="232.4673" style="fill: #ffffff; stroke: #ffffff; stroke-width: 0.8"/>
      </g>
     </g>
     <g id="text_14">
      <!-- −0.5 -->
      <g style="fill: #ffffff" transform="translate(18.577187 236.266519) scale(0.1 -0.1)">
       <use xlink:href="#DejaVuSans-2212"/>
       <use xlink:href="#DejaVuSans-30" transform="translate(83.789062 0)"/>
       <use xlink:href="#DejaVuSans-2e" transform="translate(147.412109 0)"/>
       <use xlink:href="#DejaVuSans-35" transform="translate(179.199219 0)"/>
      </g>
     </g>
    </g>
    <g id="ytick_5">
     <g id="line2d_14">
      <g>
       <use xlink:href="#mbe65ff522f" x="49.86" y="195.2532" style="fill: #ffffff; stroke: #ffffff; stroke-width: 0.8"/>
      </g>
     </g>
     <g id="text_15">
      <!-- 0.0 -->
      <g style="fill: #ffffff" transform="translate(26.956875 199.052419) scale(0.1 -0.1)">
       <use xlink:href="#DejaVuSans-30"/>
       <use xlink:href="#DejaVuSans-2e" transform="translate(63.623047 0)"/>
       <use xlink:href="#DejaVuSans-30" transform="translate(95.410156 0)"/>
      </g>
     </g>
    </g>
    <g id="ytick_6">
     <g id="line2d_15">
      <g>
       <use xlink:href="#mbe65ff522f" x="49.86" y="158.0391" style="fill: #ffffff; stroke: #ffffff; stroke-width: 0.8"/>
      </g>
     </g>
     <g id="text_16">
      <!-- 0.5 -->
      <g style="fill: #ffffff" transform="translate(26.956875 161.838319) scale(0.1 -0.1)">
       <use xlink:href="#DejaVuSans-30"/>
       <use xlink:href="#DejaVuSans-2e" transform="translate(63.623047 0)"/>
       <use xlink:href="#DejaVuSans-35" transform="translate(95.410156 0)"/>
      </g>
     </g>
    </g>
    <g id="ytick_7">
     <g id="line2d_16">
      <g>
       <use xlink:href="#mbe65ff522f" x="49.86" y="120.825" style="fill: #ffffff; stroke: #ffffff; stroke-width: 0.8"/>
      </g>
     </g>
     <g id="text_17">
      <!-- 1.0 -->
      <g style="fill: #ffffff" transform="translate(26.956875 124.624219) scale(0.1 -0.1)">
       <use xlink:href="#DejaVuSans-31"/>
       <use xlink:href="#DejaVuSans-2e" transform="translate(63.623047 0)"/>
       <use xlink:href="#DejaVuSans-30" transform="translate(95.410156 0)"/>
      </g>
     </g>
    </g>
    <g id="ytick_8">
     <g id="line2d_17">
      <g>
       <use xlink:href="#mbe65ff522f" x="49.86" y="83.6109" style="fill: #ffffff; stroke: #ffffff; stroke-width: 0.8"/>
      </g>
     </g>
     <g id="text_18">
      <!-- 1.5 -->
      <g style="fill: #ffffff" transform="translate(26.956875 87.410119) scale(0.1 -0.1)">
       <use xlink:href="#DejaVuSans-31"/>
       <use xlink:href="#DejaVuSans-2e" transform="translate(63.623047 0)"/>
       <use xlink:href="#DejaVuSans-35" transform="translate(95.410156 0)"/>
      </g>
     </g>
    </g>
    <g id="ytick_9">
     <g id="line2d_18">
      <g>
       <use xlink:href="#mbe65ff522f" x="49.86" y="46.3968" style="fill: #ffffff; stroke: #ffffff; stroke-width: 0.8"/>
      </g>
     </g>
     <g id="text_19">
      <!-- 2.0 -->
      <g style="fill: #ffffff" transform="translate(26.956875 50.196019) scale(0.1 -0.1)">
       <use xlink:href="#DejaVuSans-32"/>
       <use xlink:href="#DejaVuSans-2e" transform="translate(63.623047 0)"/>
       <use xlink:href="#DejaVuSans-30" transform="translate(95.410156 0)"/>
      </g>
     </g>
    </g>
    <g id="text_20">
     <!-- y -->
     <g style="fill: #ffffff" transform="translate(12.4975 198.212575) rotate(-90) scale(0.1 -0.1)">
      <defs>
       <path id="DejaVuSans-79" d="M 2059 -325 
Q 1816 -950 1584 -1140 
Q 1353 -1331 966 -1331 
L 506 -1331 
L 506 -850 
L 844 -850 
Q 1081 -850 1212 -737 
Q 1344 -625 1503 -206 
L 1606 56 
L 191 3500 
L 800 3500 
L 1894 763 
L 2988 3500 
L 3597 3500 
L 2059 -325 
z
" transform="scale(0.015625)"/>
      </defs>
      <use xlink:href="#DejaVuSans-79"/>
     </g>
    </g>
   </g>
   <g id="QuadContourSet_1">
    <path clip-path="url(#pf790907c91)" style="fill: none; stroke: #00ffff; stroke-width: 1.5"/>
    <path d="M 189.080097 183.871037 
L 189.318045 179.956607 
L 189.694385 176.972589 
L 190.129956 174.734147 
L 190.867579 172.197872 
L 191.662298 170.257263 
L 192.465345 168.764968 
L 193.496084 167.272674 
L 194.835266 165.780379 
L 196.290947 164.566788 
L 197.944049 163.541937 
L 199.655085 162.795789 
L 200.939549 162.405942 
L 202.945145 162.049642 
L 204.038617 161.975401 
L 205.906855 162.049642 
L 207.137684 162.231654 
L 209.196915 162.795789 
L 210.236752 163.218398 
L 211.786286 164.046383 
L 213.33582 165.168768 
L 214.885353 166.697539 
L 215.902176 168.018821 
L 216.807065 169.511116 
L 217.520157 171.003411 
L 218.320991 173.241853 
L 218.885383 175.480295 
L 219.370743 178.464884 
L 219.649787 181.449474 
L 219.830281 185.926358 
L 219.877796 194.133979 
L 219.791755 206.072337 
L 219.533955 210.549793 
L 219.157615 213.533811 
L 218.722044 215.772253 
L 217.984421 218.308528 
L 217.189702 220.249137 
L 216.386655 221.741432 
L 215.355916 223.233726 
L 214.016734 224.726021 
L 212.561053 225.939612 
L 210.907951 226.964463 
L 209.196915 227.710611 
L 207.912451 228.100458 
L 205.906855 228.456758 
L 204.813383 228.530999 
L 202.945145 228.456758 
L 201.714316 228.274746 
L 199.655085 227.710611 
L 198.615248 227.288002 
L 197.065714 226.460017 
L 195.51618 225.337632 
L 193.966647 223.808861 
L 192.949824 222.487579 
L 192.044935 220.995284 
L 191.331843 219.502989 
L 190.531009 217.264547 
L 189.966617 215.026105 
L 189.45686 211.833047 
L 189.45686 211.833047 
" clip-path="url(#pf790907c91)" style="fill: none; stroke: #ff00ff; stroke-width: 1.5"/>
    <path d="M 235.251559 208.078112 
L 235.029293 212.936487 
L 234.68615 216.5184 
L 234.230403 219.502989 
L 233.479759 222.757959 
L 232.590582 225.472168 
L 231.619234 227.710611 
L 230.379295 229.949053 
L 228.785851 232.187495 
L 227.281624 233.874957 
L 225.73209 235.318242 
L 223.999776 236.664379 
L 221.631898 238.156674 
L 219.533955 239.216413 
L 217.209654 240.165643 
L 214.885353 240.912637 
L 212.561053 241.484207 
L 209.461985 242.007823 
L 206.362917 242.275028 
L 203.26385 242.304717 
L 200.164782 242.096891 
L 197.065714 241.639953 
L 193.966647 240.912637 
L 191.642346 240.165643 
L 189.318045 239.216413 
L 186.993744 238.027846 
L 184.669444 236.532797 
L 182.948343 235.172084 
L 181.379441 233.679789 
L 180.020842 232.130302 
L 178.471308 229.946784 
L 177.232766 227.710611 
L 176.147008 225.163872 
L 175.297005 222.487579 
L 174.597474 219.368988 
L 174.078166 215.772253 
L 173.764575 212.041516 
L 173.571304 206.818484 
L 173.51527 197.864716 
L 173.606411 182.195621 
L 173.866916 176.972589 
L 174.263267 173.241853 
L 174.768907 170.257263 
L 175.508206 167.272674 
L 176.261418 165.034232 
L 177.232766 162.795789 
L 178.472705 160.557347 
L 180.066149 158.318905 
L 181.570376 156.631443 
L 183.11991 155.188158 
L 184.852224 153.842021 
L 187.220102 152.349726 
L 189.318045 151.289987 
L 191.642346 150.340757 
L 193.966647 149.593763 
L 196.290947 149.022193 
L 199.390015 148.498577 
L 202.489083 148.231372 
L 205.58815 148.201683 
L 208.687218 148.409509 
L 211.786286 148.866447 
L 214.885353 149.593763 
L 217.209654 150.340757 
L 219.533955 151.289987 
L 221.858256 152.478554 
L 224.182556 153.973603 
L 225.903657 155.334316 
L 227.472559 156.826611 
L 228.831158 158.376098 
L 230.380692 160.559616 
L 231.619234 162.795789 
L 232.704992 165.342528 
L 233.554995 168.018821 
L 234.254526 171.137412 
L 234.773834 174.734147 
L 235.087425 178.464884 
L 235.17479 180.192095 
L 235.17479 180.192095 
" clip-path="url(#pf790907c91)" style="fill: none; stroke: #ffff00; stroke-width: 1.5"/>
    <path d="M 158.319062 176.464969 
L 158.624132 172.495705 
L 159.102135 168.758907 
L 159.6691 165.780379 
L 160.448365 162.795789 
L 161.495805 159.8112 
L 162.501562 157.572758 
L 163.750737 155.305872 
L 165.300271 153.019589 
L 167.090747 150.857432 
L 169.174105 148.788476 
L 171.171219 147.126695 
L 173.277193 145.6344 
L 176.147008 143.93306 
L 179.246075 142.426647 
L 182.440743 141.157516 
L 186.218977 139.968495 
L 189.318045 139.19984 
L 193.19188 138.470149 
L 197.065714 137.970875 
L 200.939549 137.686299 
L 204.813383 137.604992 
L 208.687218 137.726953 
L 212.561053 138.052182 
L 216.434887 138.596988 
L 220.308722 139.375813 
L 223.407789 140.18834 
L 226.506857 141.191875 
L 230.111118 142.649811 
L 233.092391 144.142105 
L 235.80406 145.787216 
L 238.128361 147.478435 
L 240.301509 149.365137 
L 242.002195 151.127216 
L 243.609549 153.095874 
L 245.118903 155.334316 
L 246.350438 157.572758 
L 247.425564 159.987248 
L 248.403635 162.795789 
L 249.1829 165.780379 
L 249.750865 168.764968 
L 250.227868 172.495705 
L 250.56054 176.972589 
L 250.746236 182.941768 
L 250.794306 193.387832 
L 250.70051 209.803074 
L 250.47348 215.026105 
L 250.062701 219.502989 
L 249.489557 223.233726 
L 248.823334 226.218316 
L 247.916904 229.202905 
L 247.043023 231.441347 
L 245.87603 233.848724 
L 244.647624 235.918232 
L 243.033855 238.156674 
L 241.227429 240.217304 
L 239.490535 241.887411 
L 237.353594 243.625147 
L 235.029293 245.219589 
L 232.704992 246.57334 
L 229.605925 248.079753 
L 226.411257 249.348884 
L 222.633023 250.537905 
L 219.533955 251.30656 
L 215.66012 252.036251 
L 211.786286 252.535525 
L 207.912451 252.820101 
L 204.038617 252.901408 
L 200.164782 252.779447 
L 196.290947 252.454218 
L 192.417113 251.909412 
L 188.543278 251.130587 
L 185.444211 250.31806 
L 182.345143 249.314525 
L 178.740882 247.856589 
L 175.759609 246.364295 
L 173.04794 244.719184 
L 170.723639 243.027965 
L 168.550491 241.141263 
L 166.849805 239.379184 
L 165.242451 237.410526 
L 163.733097 235.172084 
L 162.501562 232.933642 
L 161.426436 230.519152 
L 160.448365 227.710611 
L 159.6691 224.726021 
L 159.101135 221.741432 
L 158.624132 218.010695 
L 158.29146 213.533811 
L 158.105764 207.564632 
L 158.072116 204.348416 
L 158.072116 204.348416 
" clip-path="url(#pf790907c91)" style="fill: none; stroke: #00ff00; stroke-width: 1.5"/>
    <path d="M 193.966647 261.341446 
L 189.318045 260.804061 
L 184.669444 260.052238 
L 179.960385 259.0488 
L 175.372241 257.795009 
L 171.498406 256.494063 
L 168.399338 255.264958 
L 165.289641 253.825768 
L 162.201203 252.146252 
L 159.876902 250.684548 
L 157.03717 248.602737 
L 155.228301 247.059307 
L 152.904 244.74512 
L 151.120206 242.633558 
L 149.524908 240.395116 
L 148.185484 238.156674 
L 147.066426 235.918232 
L 145.858981 232.933642 
L 144.925355 229.949053 
L 144.213208 226.964463 
L 143.572258 223.233726 
L 143.082898 218.756842 
L 142.77596 213.533811 
L 142.628707 206.818484 
L 142.601062 191.149389 
L 142.704604 179.211032 
L 142.970917 173.241853 
L 143.380399 168.764968 
L 143.927641 165.034232 
L 144.728471 161.303495 
L 145.602819 158.318905 
L 146.735019 155.334316 
L 147.790381 153.095874 
L 149.051102 150.857432 
L 150.579699 148.587422 
L 152.349361 146.380547 
L 154.483683 144.142105 
L 157.03717 141.903663 
L 159.102135 140.353144 
L 162.201203 138.360148 
L 164.525504 137.074081 
L 167.624571 135.582188 
L 170.723639 134.301825 
L 174.597474 132.949377 
L 179.246075 131.635926 
L 183.331017 130.711453 
L 187.768511 129.925667 
L 192.417113 129.321048 
L 197.065714 128.922742 
L 202.489083 128.701593 
L 207.912451 128.738451 
L 213.33582 129.033317 
L 217.984421 129.5008 
L 222.633023 130.177949 
L 227.281624 131.087035 
L 231.751869 132.203747 
L 235.80406 133.462216 
L 238.903128 134.60389 
L 242.011572 135.934484 
L 245.101263 137.482959 
L 248.200331 139.314146 
L 250.854602 141.157516 
L 252.848932 142.763152 
L 255.173233 144.941137 
L 257.134849 147.126695 
L 258.826087 149.365137 
L 260.245441 151.603579 
L 261.435413 153.842021 
L 262.718515 156.826611 
L 263.716642 159.8112 
L 264.480031 162.795789 
L 265.170611 166.526526 
L 265.633633 170.257263 
L 265.972462 174.734147 
L 266.169237 180.13927 
M 266.208068 208.129263 
L 266.011276 215.026105 
L 265.633633 220.249137 
L 265.170611 223.979874 
L 264.470436 227.7527 
L 263.695669 230.765155 
L 262.718515 233.679789 
L 261.435413 236.664379 
L 260.245441 238.902821 
L 258.826087 241.141263 
L 257.134849 243.379705 
L 255.122157 245.618147 
L 252.718055 247.856589 
L 250.524632 249.592714 
L 248.200331 251.192254 
L 245.87603 252.592511 
L 242.776962 254.207473 
L 239.677895 255.588198 
L 235.80406 257.044184 
L 231.751869 258.302653 
L 227.281624 259.419365 
L 222.633023 260.328451 
L 217.984421 261.0056 
L 213.33582 261.473083 
L 207.912451 261.767949 
L 202.489083 261.804807 
L 197.065714 261.583658 
L 193.966647 261.341446 
L 193.966647 261.341446 
" clip-path="url(#pf790907c91)" style="fill: none; stroke: #ff0000; stroke-width: 1.5"/>
    <path d="M 127.14551 189.142535 
L 127.262464 177.718737 
L 127.528966 171.749558 
L 127.919465 167.272674 
L 128.428002 163.541937 
L 129.15703 159.8112 
L 129.940074 156.826611 
L 130.94035 153.842021 
L 132.201123 150.857432 
L 133.534827 148.290361 
L 135.084361 145.799868 
L 136.633895 143.684251 
L 138.183429 141.838097 
L 140.507729 139.454825 
L 142.83203 137.41034 
L 145.781381 135.188337 
L 148.255398 133.572505 
L 151.354466 131.799055 
L 154.453534 130.251167 
L 157.552602 128.89109 
L 161.426436 127.411295 
L 165.300271 126.137359 
L 170.346369 124.742274 
L 175.372241 123.609773 
L 180.795609 122.63077 
L 186.218977 121.881518 
L 191.642346 121.342214 
L 197.840481 120.961191 
L 204.038617 120.827559 
L 210.236752 120.931495 
L 215.66012 121.223619 
L 221.858256 121.790807 
L 227.281624 122.508755 
L 232.704992 123.454535 
L 238.128361 124.649511 
L 242.776962 125.906616 
L 246.650797 127.140372 
L 250.524632 128.575163 
L 254.398466 130.251167 
L 257.497534 131.799055 
L 260.798566 133.696042 
L 263.695669 135.632856 
L 266.040323 137.426779 
L 268.56748 139.665221 
L 270.727966 141.903663 
L 272.574857 144.142105 
L 274.154808 146.380547 
L 275.503603 148.618989 
L 276.993451 151.603579 
L 278.184407 154.588168 
L 279.191008 157.807772 
L 280.017431 161.303495 
L 280.651286 165.034232 
L 281.153093 169.511116 
L 281.485312 174.734147 
L 281.66267 181.449474 
L 281.708272 194.133979 
L 281.608493 212.041516 
L 281.369909 218.010695 
L 280.932535 223.233726 
L 280.423998 226.964463 
L 279.69497 230.6952 
L 278.911926 233.679789 
L 277.91165 236.664379 
L 276.650877 239.648968 
L 275.317173 242.216039 
L 273.767639 244.706532 
L 272.218105 246.822149 
L 270.668571 248.668303 
L 268.344271 251.051575 
L 266.01997 253.09606 
L 263.070619 255.318063 
L 260.596602 256.933895 
L 257.497534 258.707345 
L 254.398466 260.255233 
L 251.299398 261.61531 
L 247.425564 263.095105 
L 243.551729 264.369041 
L 238.505631 265.764126 
L 233.479759 266.896627 
L 228.056391 267.87563 
L 222.633023 268.624882 
L 217.209654 269.164186 
L 211.011519 269.545209 
L 204.813383 269.678841 
L 198.615248 269.574905 
L 193.19188 269.282781 
L 186.993744 268.715593 
L 181.570376 267.997645 
L 176.147008 267.051865 
L 170.723639 265.856889 
L 166.075038 264.599784 
L 162.201203 263.366028 
L 158.327368 261.931237 
L 154.453534 260.255233 
L 151.354466 258.707345 
L 148.053434 256.810358 
L 145.156331 254.873544 
L 142.811677 253.079621 
L 140.28452 250.841179 
L 138.124034 248.602737 
L 136.277143 246.364295 
L 134.697192 244.125853 
L 133.348397 241.887411 
L 131.858549 238.902821 
L 130.667593 235.918232 
L 129.660992 232.698628 
L 128.834569 229.202905 
L 128.200714 225.472168 
L 127.698907 220.995284 
L 127.427332 217.025892 
L 127.427332 217.025892 
" clip-path="url(#pf790907c91)" style="fill: none; stroke: #0000ff; stroke-width: 1.5"/>
    <path d="M 189.318045 276.238422 
L 183.11991 275.685229 
L 176.921774 274.927899 
L 170.723639 273.94837 
L 164.525504 272.71543 
L 159.102135 271.405048 
L 154.453534 270.083502 
L 149.804932 268.546057 
L 145.156331 266.754034 
L 141.259871 265.017979 
L 137.408662 263.036062 
L 134.309594 261.212723 
L 131.100248 259.0488 
L 128.111459 256.709664 
L 125.744485 254.571916 
L 123.462857 252.188743 
L 121.722302 250.095032 
L 120.103982 247.856589 
L 118.704393 245.618147 
L 117.13522 242.633558 
L 115.857185 239.648968 
L 114.825929 236.664379 
L 114.003858 233.679789 
L 113.220304 229.949053 
L 112.61612 225.888116 
L 112.205234 221.741432 
L 111.901467 216.5184 
L 111.72492 209.056926 
L 111.686917 194.880126 
L 111.785864 177.718737 
L 112.050626 171.003411 
L 112.482065 165.780379 
L 113.091829 161.303495 
L 113.827278 157.572758 
L 114.60255 154.588168 
L 115.715188 151.235045 
L 116.790595 148.618989 
L 118.282404 145.6344 
L 119.613904 143.395958 
L 121.156088 141.157516 
L 122.938054 138.919074 
L 125.012391 136.660118 
L 127.361153 134.442189 
L 130.097059 132.203747 
L 133.262799 129.965305 
L 136.633895 127.904687 
L 139.741568 126.234568 
L 143.606797 124.415659 
L 147.480632 122.821872 
L 151.354466 121.4225 
L 156.003068 119.960705 
L 161.426436 118.510993 
L 166.924023 117.2808 
L 173.04794 116.164672 
L 179.246075 115.269429 
L 185.444211 114.591326 
L 191.642346 114.113194 
L 198.615248 113.803626 
L 205.58815 113.726234 
L 212.561053 113.881018 
L 219.533955 114.267978 
L 225.73209 114.821171 
L 231.930226 115.578501 
L 238.128361 116.55803 
L 244.326496 117.79097 
L 249.749865 119.101352 
L 254.398466 120.422898 
L 259.047068 121.960343 
L 263.695669 123.752366 
L 267.592129 125.488421 
L 271.443338 127.470338 
L 274.542406 129.293677 
L 277.751752 131.4576 
L 280.740541 133.796736 
L 283.107515 135.934484 
L 285.389143 138.317657 
L 287.129698 140.411368 
L 288.748018 142.649811 
L 290.147607 144.888253 
L 291.71678 147.872842 
L 292.994815 150.857432 
L 294.026071 153.842021 
L 294.848142 156.826611 
L 295.631696 160.557347 
L 296.23588 164.618284 
L 296.646766 168.764968 
L 296.950533 173.988 
L 297.009147 175.613552 
M 297.159713 203.702994 
L 297.027902 214.279958 
L 296.754334 220.249137 
L 296.286167 225.472168 
L 295.760171 229.202905 
L 295.024722 232.933642 
L 294.24945 235.918232 
L 293.136812 239.271355 
L 292.061405 241.887411 
L 290.569596 244.872 
L 289.238096 247.110442 
L 287.695912 249.348884 
L 285.913946 251.587326 
L 283.839609 253.846282 
L 281.490847 256.064211 
L 278.754941 258.302653 
L 275.589201 260.541095 
L 272.218105 262.601713 
L 269.110432 264.271832 
L 265.245203 266.090741 
L 261.371368 267.684528 
L 257.497534 269.0839 
L 252.848932 270.545695 
L 247.425564 271.995407 
L 241.927977 273.2256 
L 235.80406 274.341728 
L 229.605925 275.236971 
L 223.407789 275.915074 
L 217.209654 276.393206 
L 210.236752 276.702774 
L 203.26385 276.780166 
L 196.290947 276.625382 
L 189.318045 276.238422 
L 189.318045 276.238422 
" clip-path="url(#pf790907c91)" style="fill: none; stroke: #00ffff; stroke-width: 1.5"/>
    <path d="M 96.496717 171.936621 
L 96.844699 166.526526 
L 97.329168 162.049642 
L 97.916793 158.318905 
L 98.718151 154.588168 
L 99.782981 150.857432 
L 100.994617 147.548526 
L 102.181676 144.888253 
L 103.780065 141.903663 
L 105.643218 139.005829 
L 107.192752 136.932962 
L 108.742286 135.085547 
L 111.066586 132.648505 
L 113.390887 130.515937 
L 115.907999 128.473011 
L 119.046021 126.234568 
L 122.68809 123.970469 
L 126.789462 121.757684 
L 131.210526 119.690433 
L 135.262599 118.026947 
L 140.507729 116.152155 
L 145.156331 114.706201 
L 150.579699 113.238948 
L 156.777835 111.811761 
L 163.258485 110.565474 
L 169.948872 109.516989 
L 176.921774 108.649477 
L 183.894677 107.994645 
L 191.642346 107.498473 
L 199.390015 107.238658 
L 207.137684 107.204769 
L 214.885353 107.396807 
L 222.633023 107.820819 
L 230.380692 108.485385 
L 237.353594 109.304646 
L 244.326496 110.350816 
L 250.524632 111.492061 
L 256.722767 112.856868 
L 262.920902 114.482249 
L 268.344271 116.152155 
L 272.992872 117.800816 
L 277.249842 119.519242 
L 281.515308 121.487474 
L 284.892064 123.249979 
L 288.661722 125.488421 
L 291.944448 127.726863 
L 294.814271 129.965305 
L 297.326906 132.203747 
L 299.529525 134.442189 
L 301.659248 136.932962 
L 303.208782 139.005829 
L 305.071935 141.903663 
L 306.670324 144.888253 
L 307.989812 147.872842 
L 309.069019 150.857432 
L 309.94332 153.842021 
L 310.793102 157.572758 
L 311.419986 161.303495 
L 311.940831 165.780379 
L 312.310192 171.003411 
L 312.537035 177.718737 
L 312.619582 188.1648 
L 312.537035 212.787663 
L 312.310192 219.502989 
L 311.940831 224.726021 
L 311.419986 229.202905 
L 310.793102 232.933642 
L 309.94332 236.664379 
L 309.069019 239.648968 
L 307.857383 242.957874 
L 306.670324 245.618147 
L 305.071935 248.602737 
L 303.208782 251.500571 
L 301.659248 253.573438 
L 300.109714 255.420853 
L 297.785414 257.857895 
L 295.461113 259.990463 
L 292.944001 262.033389 
L 289.805979 264.271832 
L 286.16391 266.535931 
L 282.062538 268.748716 
L 277.641474 270.815967 
L 273.589401 272.479453 
L 268.344271 274.354245 
L 263.695669 275.800199 
L 258.272301 277.267452 
L 252.074165 278.694639 
L 245.593515 279.940926 
L 238.903128 280.989411 
L 231.930226 281.856923 
L 224.957323 282.511755 
L 217.209654 283.007927 
L 209.461985 283.267742 
L 201.714316 283.301631 
L 193.966647 283.109593 
L 186.218977 282.685581 
L 178.471308 282.021015 
L 171.498406 281.201754 
L 164.525504 280.155584 
L 158.327368 279.014339 
L 152.129233 277.649532 
L 145.931098 276.024151 
L 140.507729 274.354245 
L 135.859128 272.705584 
L 131.602158 270.987158 
L 127.336692 269.018926 
L 123.959936 267.256421 
L 120.190278 265.017979 
L 116.907552 262.779537 
L 114.037729 260.541095 
L 111.525094 258.302653 
L 109.322475 256.064211 
L 107.192752 253.573438 
L 105.643218 251.500571 
L 103.780065 248.602737 
L 102.181676 245.618147 
L 100.862188 242.633558 
L 99.782981 239.648968 
L 98.90868 236.664379 
L 98.058898 232.933642 
L 97.432014 229.202905 
L 96.911169 224.726021 
L 96.541808 219.502989 
L 96.314965 212.787663 
L 96.232418 202.3416 
L 96.23059 199.921911 
L 96.23059 199.921911 
" clip-path="url(#pf790907c91)" style="fill: none; stroke: #ff00ff; stroke-width: 1.5"/>
    <path d="M 186.993744 288.926585 
L 179.246075 288.4047 
L 171.498406 287.680852 
L 163.750737 286.740172 
L 156.777835 285.68814 
L 149.766687 284.417811 
L 142.83203 282.919711 
L 136.633895 281.348244 
L 130.435759 279.520797 
L 125.012391 277.677473 
L 119.589023 275.55273 
L 115.715188 273.829839 
L 111.523754 271.733305 
L 107.59184 269.494863 
L 104.093684 267.228285 
L 100.994617 264.946124 
L 97.895549 262.332021 
L 95.571248 260.092035 
L 93.907922 258.302653 
L 91.697414 255.602586 
L 89.911522 253.079621 
L 88.110675 250.095032 
L 86.602636 247.110442 
L 85.348229 244.125853 
L 84.314163 241.141263 
L 83.284861 237.410526 
L 82.501531 233.679789 
L 81.823633 229.202905 
L 81.369015 224.726021 
L 81.014012 218.756842 
L 80.825411 211.295368 
L 80.773454 197.864716 
L 80.876465 176.226442 
L 81.119824 169.511116 
L 81.499223 164.288084 
L 82.021926 159.8112 
L 82.641015 156.080463 
L 83.469749 152.349726 
L 84.55363 148.618989 
L 85.639887 145.6344 
L 87.048812 142.457047 
L 88.598346 139.551182 
L 90.412672 136.680632 
L 92.47218 133.910949 
L 94.021714 132.0768 
L 96.346015 129.636648 
L 98.670316 127.484943 
L 101.085319 125.488421 
L 104.133961 123.249979 
L 107.967519 120.786546 
L 111.841353 118.60599 
L 116.015957 116.534653 
L 120.363789 114.632477 
L 125.08051 112.803916 
L 130.435759 110.985603 
L 135.859128 109.37294 
L 141.282496 107.959836 
L 147.480632 106.55667 
L 154.453534 105.214281 
L 162.201203 103.982882 
L 169.174105 103.082541 
L 177.696541 102.229038 
L 186.414848 101.611705 
L 194.741414 101.255072 
L 203.26385 101.112185 
L 211.786286 101.193834 
L 220.308722 101.500021 
L 228.056391 101.981964 
L 235.80406 102.663953 
L 243.551729 103.560764 
L 250.719198 104.596295 
L 258.272301 105.930689 
L 264.470436 107.231838 
L 270.668571 108.744558 
L 276.09194 110.268087 
L 281.663501 112.057768 
L 286.938677 114.007038 
L 291.587278 115.965095 
L 295.898029 118.026947 
L 300.109714 120.326256 
L 303.983549 122.752587 
L 307.082617 124.963611 
L 309.598541 126.980716 
L 312.505985 129.636648 
L 314.830286 132.0768 
L 316.80145 134.442189 
L 318.70412 137.073612 
L 320.320599 139.665221 
L 321.897927 142.649811 
L 323.352722 145.992906 
L 324.29837 148.618989 
L 325.382251 152.349726 
L 326.210985 156.080463 
L 326.830074 159.8112 
L 327.352777 164.288084 
L 327.732176 169.511116 
L 327.962527 175.662848 
M 328.074642 203.652653 
L 327.958314 215.026105 
L 327.690174 221.741432 
L 327.280202 226.964463 
L 326.721058 231.441347 
L 326.063298 235.172084 
L 325.187461 238.902821 
L 324.127489 242.394899 
L 323.212113 244.872 
L 321.803188 248.049353 
L 320.253654 250.955218 
L 318.439328 253.825768 
L 316.37982 256.595451 
L 314.830286 258.4296 
L 312.505985 260.869752 
L 310.181684 263.021457 
L 307.766681 265.017979 
L 304.718039 267.256421 
L 300.884481 269.719854 
L 297.010647 271.90041 
L 292.836043 273.971747 
L 288.488211 275.873923 
L 283.77149 277.702484 
L 278.416241 279.520797 
L 272.992872 281.13346 
L 267.569504 282.546564 
L 261.371368 283.94973 
L 254.398466 285.292119 
L 246.650797 286.523518 
L 239.677895 287.423859 
L 231.155459 288.277362 
L 222.437152 288.894695 
L 214.110586 289.251328 
L 205.58815 289.394215 
L 197.065714 289.312566 
L 188.543278 289.006379 
L 186.993744 288.926585 
L 186.993744 288.926585 
" clip-path="url(#pf790907c91)" style="fill: none; stroke: #ffff00; stroke-width: 1.5"/>
    <path d="M 190.867579 294.871031 
L 182.345143 294.472004 
L 173.04794 293.811938 
L 164.525504 292.986591 
L 156.003068 291.935611 
L 148.255398 290.761138 
L 140.507729 289.358997 
L 133.534827 287.875586 
L 126.561925 286.151509 
L 120.363789 284.385928 
L 114.165654 282.356563 
L 109.517053 280.634238 
L 104.093684 278.359466 
L 99.445083 276.136244 
L 95.440659 273.971747 
L 91.697414 271.688576 
L 88.502105 269.494863 
L 85.499278 267.173831 
L 83.014838 265.017979 
L 80.714447 262.779537 
L 78.526376 260.374005 
L 76.290521 257.556505 
L 74.26666 254.571916 
L 72.550736 251.587326 
L 71.104546 248.602737 
L 69.89353 245.618147 
L 68.888523 242.633558 
L 67.880165 238.902821 
L 67.104925 235.172084 
L 66.425363 230.6952 
L 65.961627 226.218316 
L 65.590418 220.249137 
L 65.38282 212.787663 
L 65.328674 206.687567 
M 65.3706 178.596112 
L 65.559145 171.003411 
L 65.901657 165.034232 
L 66.425363 159.8112 
L 67.104925 155.334316 
L 67.880165 151.603579 
L 68.888523 147.872842 
L 70.00394 144.595531 
L 71.104546 141.903663 
L 72.550736 138.919074 
L 74.26666 135.934484 
L 76.290521 132.949895 
L 78.526376 130.132395 
L 80.07591 128.398314 
L 82.400211 126.063198 
L 84.724511 123.978692 
L 87.823579 121.5141 
L 90.922647 119.32852 
L 94.16653 117.2808 
L 98.149366 115.042358 
L 102.656206 112.803916 
L 107.783349 110.565474 
L 112.61612 108.704079 
L 118.079586 106.834737 
L 124.237624 104.990034 
L 130.435759 103.365232 
L 136.633895 101.943912 
L 143.606797 100.557274 
L 151.354466 99.249044 
L 159.876902 98.063909 
L 168.399338 97.115705 
L 177.696541 96.332605 
L 186.993744 95.792989 
L 196.290947 95.484178 
L 205.58815 95.400868 
L 214.885353 95.539717 
L 224.182556 95.906592 
L 233.479759 96.505629 
L 242.776962 97.353037 
L 251.299398 98.362969 
L 259.047068 99.492146 
L 266.901072 100.865558 
L 274.542406 102.453644 
L 281.515308 104.150467 
L 287.713444 105.887679 
L 293.136812 107.614452 
L 298.56018 109.573028 
L 303.208782 111.465534 
L 307.857383 113.597087 
L 312.505985 116.024246 
L 316.37982 118.323965 
L 319.478887 120.389282 
L 322.577955 122.707762 
L 325.009013 124.742274 
L 327.40031 126.980716 
L 329.550857 129.244348 
L 332.002051 132.203747 
L 334.110181 135.188337 
L 335.899116 138.172926 
L 337.409494 141.157516 
L 338.84806 144.595531 
L 339.730183 147.126695 
L 340.790095 150.857432 
L 341.60852 154.588168 
L 342.32987 159.065053 
L 342.825907 163.541937 
L 343.190071 168.764968 
L 343.428252 175.480295 
L 343.528114 185.180211 
L 343.489039 211.295368 
L 343.292855 219.502989 
L 342.950343 225.472168 
L 342.426637 230.6952 
L 341.747075 235.172084 
L 340.971835 238.902821 
L 339.963477 242.633558 
L 338.84806 245.910869 
L 337.747454 248.602737 
L 336.301264 251.587326 
L 334.58534 254.571916 
L 332.561479 257.556505 
L 330.325624 260.374005 
L 328.77609 262.108086 
L 326.451789 264.443202 
L 324.127489 266.527708 
L 321.028421 268.9923 
L 317.929353 271.17788 
L 314.68547 273.2256 
L 310.702634 275.464042 
L 306.195794 277.702484 
L 301.068651 279.940926 
L 296.23588 281.802321 
L 290.772414 283.671663 
L 284.614376 285.516366 
L 278.416241 287.141168 
L 272.218105 288.562488 
L 265.245203 289.949126 
L 257.497534 291.257356 
L 248.975098 292.442491 
L 240.452662 293.390695 
L 231.155459 294.173795 
L 221.858256 294.713411 
L 212.561053 295.022222 
L 203.26385 295.105532 
L 193.966647 294.966683 
L 190.867579 294.871031 
L 190.867579 294.871031 
" clip-path="url(#pf790907c91)" style="fill: none; stroke: #00ff00; stroke-width: 1.5"/>
   </g>
   <g id="patch_3">
    <path d="M 49.86 344.1096 
L 49.86 46.3968 
" style="fill: none; stroke: #000000; stroke-width: 0.8; stroke-linejoin: miter; stroke-linecap: square"/>
   </g>
   <g id="patch_4">
    <path d="M 358.992 344.1096 
L 358.992 46.3968 
" style="fill: none; stroke: #000000; stroke-width: 0.8; stroke-linejoin: miter; stroke-linecap: square"/>
   </g>
   <g id="patch_5">
    <path d="M 49.86 344.1096 
L 358.992 344.1096 
" style="fill: none; stroke: #000000; stroke-width: 0.8; stroke-linejoin: miter; stroke-linecap: square"/>
   </g>
   <g id="patch_6">
    <path d="M 49.86 46.3968 
L 358.992 46.3968 
" style="fill: none; stroke: #000000; stroke-width: 0.8; stroke-linejoin: miter; stroke-linecap: square"/>
   </g>
   <g id="text_21">
    <g clip-path="url(#pf790907c91)">
     <!-- 0.04 -->
     <g style="fill: #ffffff" transform="translate(186.686699 188.978751) rotate(-270.517091) scale(0.08 -0.08)">
      <defs>
       <path id="DejaVuSans-34" d="M 2419 4116 
L 825 1625 
L 2419 1625 
L 2419 4116 
z
M 2253 4666 
L 3047 4666 
L 3047 1625 
L 3713 1625 
L 3713 1100 
L 3047 1100 
L 3047 0 
L 2419 0 
L 2419 1100 
L 313 1100 
L 313 1709 
L 2253 4666 
z
" transform="scale(0.015625)"/>
      </defs>
      <use xlink:href="#DejaVuSans-30"/>
      <use xlink:href="#DejaVuSans-2e" transform="translate(63.623047 0)"/>
      <use xlink:href="#DejaVuSans-30" transform="translate(95.410156 0)"/>
      <use xlink:href="#DejaVuSans-34" transform="translate(159.033203 0)"/>
     </g>
    </g>
   </g>
   <g id="text_22">
    <g clip-path="url(#pf790907c91)">
     <!-- 0.16 -->
     <g style="fill: #ffffff" transform="translate(233.113202 185.231752) rotate(-270.104043) scale(0.08 -0.08)">
      <defs>
       <path id="DejaVuSans-36" d="M 2113 2584 
Q 1688 2584 1439 2293 
Q 1191 2003 1191 1497 
Q 1191 994 1439 701 
Q 1688 409 2113 409 
Q 2538 409 2786 701 
Q 3034 994 3034 1497 
Q 3034 2003 2786 2293 
Q 2538 2584 2113 2584 
z
M 3366 4563 
L 3366 3988 
Q 3128 4100 2886 4159 
Q 2644 4219 2406 4219 
Q 1781 4219 1451 3797 
Q 1122 3375 1075 2522 
Q 1259 2794 1537 2939 
Q 1816 3084 2150 3084 
Q 2853 3084 3261 2657 
Q 3669 2231 3669 1497 
Q 3669 778 3244 343 
Q 2819 -91 2113 -91 
Q 1303 -91 875 529 
Q 447 1150 447 2328 
Q 447 3434 972 4092 
Q 1497 4750 2381 4750 
Q 2619 4750 2861 4703 
Q 3103 4656 3366 4563 
z
" transform="scale(0.015625)"/>
      </defs>
      <use xlink:href="#DejaVuSans-30"/>
      <use xlink:href="#DejaVuSans-2e" transform="translate(63.623047 0)"/>
      <use xlink:href="#DejaVuSans-31" transform="translate(95.410156 0)"/>
      <use xlink:href="#DejaVuSans-36" transform="translate(159.033203 0)"/>
     </g>
    </g>
   </g>
   <g id="text_23">
    <g clip-path="url(#pf790907c91)">
     <!-- 0.36 -->
     <g style="fill: #ffffff" transform="translate(160.209159 199.323467) rotate(-89.632516) scale(0.08 -0.08)">
      <defs>
       <path id="DejaVuSans-33" d="M 2597 2516 
Q 3050 2419 3304 2112 
Q 3559 1806 3559 1356 
Q 3559 666 3084 287 
Q 2609 -91 1734 -91 
Q 1441 -91 1130 -33 
Q 819 25 488 141 
L 488 750 
Q 750 597 1062 519 
Q 1375 441 1716 441 
Q 2309 441 2620 675 
Q 2931 909 2931 1356 
Q 2931 1769 2642 2001 
Q 2353 2234 1838 2234 
L 1294 2234 
L 1294 2753 
L 1863 2753 
Q 2328 2753 2575 2939 
Q 2822 3125 2822 3475 
Q 2822 3834 2567 4026 
Q 2313 4219 1838 4219 
Q 1578 4219 1281 4162 
Q 984 4106 628 3988 
L 628 4550 
Q 988 4650 1302 4700 
Q 1616 4750 1894 4750 
Q 2613 4750 3031 4423 
Q 3450 4097 3450 3541 
Q 3450 3153 3228 2886 
Q 3006 2619 2597 2516 
z
" transform="scale(0.015625)"/>
      </defs>
      <use xlink:href="#DejaVuSans-30"/>
      <use xlink:href="#DejaVuSans-2e" transform="translate(63.623047 0)"/>
      <use xlink:href="#DejaVuSans-33" transform="translate(95.410156 0)"/>
      <use xlink:href="#DejaVuSans-36" transform="translate(159.033203 0)"/>
     </g>
    </g>
   </g>
   <g id="text_24">
    <g clip-path="url(#pf790907c91)">
     <!-- 0.64 -->
     <g style="fill: #ffffff" transform="translate(264.03571 185.229758) rotate(-270.05257) scale(0.08 -0.08)">
      <use xlink:href="#DejaVuSans-30"/>
      <use xlink:href="#DejaVuSans-2e" transform="translate(63.623047 0)"/>
      <use xlink:href="#DejaVuSans-36" transform="translate(95.410156 0)"/>
      <use xlink:href="#DejaVuSans-34" transform="translate(159.033203 0)"/>
     </g>
    </g>
   </g>
   <g id="text_25">
    <g clip-path="url(#pf790907c91)">
     <!-- 1.00 -->
     <g style="fill: #ffffff" transform="translate(124.86852 194.199765) rotate(-270.466488) scale(0.08 -0.08)">
      <use xlink:href="#DejaVuSans-31"/>
      <use xlink:href="#DejaVuSans-2e" transform="translate(63.623047 0)"/>
      <use xlink:href="#DejaVuSans-30" transform="translate(95.410156 0)"/>
      <use xlink:href="#DejaVuSans-30" transform="translate(159.033203 0)"/>
     </g>
    </g>
   </g>
   <g id="text_26">
    <g clip-path="url(#pf790907c91)">
     <!-- 1.44 -->
     <g style="fill: #ffffff" transform="translate(294.920953 180.759745) rotate(-270.229165) scale(0.08 -0.08)">
      <use xlink:href="#DejaVuSans-31"/>
      <use xlink:href="#DejaVuSans-2e" transform="translate(63.623047 0)"/>
      <use xlink:href="#DejaVuSans-34" transform="translate(95.410156 0)"/>
      <use xlink:href="#DejaVuSans-34" transform="translate(159.033203 0)"/>
     </g>
    </g>
   </g>
   <g id="text_27">
    <g clip-path="url(#pf790907c91)">
     <!-- 1.96 -->
     <g style="fill: #ffffff" transform="translate(98.372406 194.850154) rotate(-89.537035) scale(0.08 -0.08)">
      <defs>
       <path id="DejaVuSans-39" d="M 703 97 
L 703 672 
Q 941 559 1184 500 
Q 1428 441 1663 441 
Q 2288 441 2617 861 
Q 2947 1281 2994 2138 
Q 2813 1869 2534 1725 
Q 2256 1581 1919 1581 
Q 1219 1581 811 2004 
Q 403 2428 403 3163 
Q 403 3881 828 4315 
Q 1253 4750 1959 4750 
Q 2769 4750 3195 4129 
Q 3622 3509 3622 2328 
Q 3622 1225 3098 567 
Q 2575 -91 1691 -91 
Q 1453 -91 1209 -44 
Q 966 3 703 97 
z
M 1959 2075 
Q 2384 2075 2632 2365 
Q 2881 2656 2881 3163 
Q 2881 3666 2632 3958 
Q 2384 4250 1959 4250 
Q 1534 4250 1286 3958 
Q 1038 3666 1038 3163 
Q 1038 2656 1286 2365 
Q 1534 2075 1959 2075 
z
" transform="scale(0.015625)"/>
      </defs>
      <use xlink:href="#DejaVuSans-31"/>
      <use xlink:href="#DejaVuSans-2e" transform="translate(63.623047 0)"/>
      <use xlink:href="#DejaVuSans-39" transform="translate(95.410156 0)"/>
      <use xlink:href="#DejaVuSans-36" transform="translate(159.033203 0)"/>
     </g>
    </g>
   </g>
   <g id="text_28">
    <g clip-path="url(#pf790907c91)">
     <!-- 2.56 -->
     <g style="fill: #ffffff" transform="translate(325.843812 180.757455) rotate(-270.170543) scale(0.08 -0.08)">
      <use xlink:href="#DejaVuSans-32"/>
      <use xlink:href="#DejaVuSans-2e" transform="translate(63.623047 0)"/>
      <use xlink:href="#DejaVuSans-35" transform="translate(95.410156 0)"/>
      <use xlink:href="#DejaVuSans-36" transform="translate(159.033203 0)"/>
     </g>
    </g>
   </g>
   <g id="text_29">
    <g clip-path="url(#pf790907c91)">
     <!-- 3.24 -->
     <g style="fill: #ffffff" transform="translate(67.515205 201.550167) rotate(-89.941921) scale(0.08 -0.08)">
      <use xlink:href="#DejaVuSans-33"/>
      <use xlink:href="#DejaVuSans-2e" transform="translate(63.623047 0)"/>
      <use xlink:href="#DejaVuSans-32" transform="translate(95.410156 0)"/>
      <use xlink:href="#DejaVuSans-34" transform="translate(159.033203 0)"/>
     </g>
    </g>
   </g>
  </g>
 </g>
 <defs>
  <clipPath id="pf790907c91">
   <rect x="49.86" y="46.3968" width="309.132" height="297.7128"/>
  </clipPath>
 </defs>
</svg>
