<?xml version="1.0" encoding="UTF-8"?>
<!DOCTYPE svg PUBLIC "-//W3C//DTD SVG 1.1//EN" "http://www.w3.org/Graphics/SVG/1.1/DTD/svg11.dtd">
<svg version="1.2" width="304.8mm" height="304.8mm" viewBox="0 0 30480 30480" preserveAspectRatio="xMidYMid" fill-rule="evenodd" stroke-width="28.222" stroke-linejoin="round" xmlns="http://www.w3.org/2000/svg" xmlns:ooo="http://xml.openoffice.org/svg/export" xmlns:xlink="http://www.w3.org/1999/xlink" xmlns:presentation="http://sun.com/xmlns/staroffice/presentation" xmlns:smil="http://www.w3.org/2001/SMIL20/" xmlns:anim="urn:oasis:names:tc:opendocument:xmlns:animation:1.0" xml:space="preserve">
 <defs class="ClipPathGroup">
  <clipPath id="presentation_clip_path" clipPathUnits="userSpaceOnUse">
   <rect x="0" y="0" width="30480" height="30480"/>
  </clipPath>
  <clipPath id="presentation_clip_path_shrink" clipPathUnits="userSpaceOnUse">
   <rect x="30" y="30" width="30420" height="30420"/>
  </clipPath>
 </defs>
 <defs class="TextShapeIndex">
  <g ooo:slide="id1" ooo:id-list="id3 id4 id5 id6 id7 id8 id9 id10 id11 id12 id13 id14"/>
 </defs>
 <defs class="EmbeddedBulletChars">
  <g id="bullet-char-template-57356" transform="scale(0.00048828125,-0.00048828125)">
   <path d="M 580,1141 L 1163,571 580,0 -4,571 580,1141 Z"/>
  </g>
  <g id="bullet-char-template-57354" transform="scale(0.00048828125,-0.00048828125)">
   <path d="M 8,1128 L 1137,1128 1137,0 8,0 8,1128 Z"/>
  </g>
  <g id="bullet-char-template-10146" transform="scale(0.00048828125,-0.00048828125)">
   <path d="M 174,0 L 602,739 174,1481 1456,739 174,0 Z M 1358,739 L 309,1346 659,739 1358,739 Z"/>
  </g>
  <g id="bullet-char-template-10132" transform="scale(0.00048828125,-0.00048828125)">
   <path d="M 2015,739 L 1276,0 717,0 1260,543 174,543 174,936 1260,936 717,1481 1274,1481 2015,739 Z"/>
  </g>
  <g id="bullet-char-template-10007" transform="scale(0.00048828125,-0.00048828125)">
   <path d="M 0,-2 C -7,14 -16,27 -25,37 L 356,567 C 262,823 215,952 215,954 215,979 228,992 255,992 264,992 276,990 289,987 310,991 331,999 354,1012 L 381,999 492,748 772,1049 836,1024 860,1049 C 881,1039 901,1025 922,1006 886,937 835,863 770,784 769,783 710,716 594,584 L 774,223 C 774,196 753,168 711,139 L 727,119 C 717,90 699,76 672,76 641,76 570,178 457,381 L 164,-76 C 142,-110 111,-127 72,-127 30,-127 9,-110 8,-76 1,-67 -2,-52 -2,-32 -2,-23 -1,-13 0,-2 Z"/>
  </g>
  <g id="bullet-char-template-10004" transform="scale(0.00048828125,-0.00048828125)">
   <path d="M 285,-33 C 182,-33 111,30 74,156 52,228 41,333 41,471 41,549 55,616 82,672 116,743 169,778 240,778 293,778 328,747 346,684 L 369,508 C 377,444 397,411 428,410 L 1163,1116 C 1174,1127 1196,1133 1229,1133 1271,1133 1292,1118 1292,1087 L 1292,965 C 1292,929 1282,901 1262,881 L 442,47 C 390,-6 338,-33 285,-33 Z"/>
  </g>
  <g id="bullet-char-template-9679" transform="scale(0.00048828125,-0.00048828125)">
   <path d="M 813,0 C 632,0 489,54 383,161 276,268 223,411 223,592 223,773 276,916 383,1023 489,1130 632,1184 813,1184 992,1184 1136,1130 1245,1023 1353,916 1407,772 1407,592 1407,412 1353,268 1245,161 1136,54 992,0 813,0 Z"/>
  </g>
  <g id="bullet-char-template-8226" transform="scale(0.00048828125,-0.00048828125)">
   <path d="M 346,457 C 273,457 209,483 155,535 101,586 74,649 74,723 74,796 101,859 155,911 209,963 273,989 346,989 419,989 480,963 531,910 582,859 608,796 608,723 608,648 583,586 532,535 482,483 420,457 346,457 Z"/>
  </g>
  <g id="bullet-char-template-8211" transform="scale(0.00048828125,-0.00048828125)">
   <path d="M -4,459 L 1135,459 1135,606 -4,606 -4,459 Z"/>
  </g>
  <g id="bullet-char-template-61548" transform="scale(0.00048828125,-0.00048828125)">
   <path d="M 173,740 C 173,903 231,1043 346,1159 462,1274 601,1332 765,1332 928,1332 1067,1274 1183,1159 1299,1043 1357,903 1357,740 1357,577 1299,437 1183,322 1067,206 928,148 765,148 601,148 462,206 346,322 231,437 173,577 173,740 Z"/>
  </g>
 </defs>
 <g>
  <g id="id2" class="Master_Slide">
   <g id="bg-id2" class="Background"/>
   <g id="bo-id2" class="BackgroundObjects"/>
  </g>
 </g>
 <g class="SlideGroup">
  <g>
   <g id="container-id1">
    <g id="id1" class="Slide" clip-path="url(#presentation_clip_path)">
     <g class="Page">
      <g id="bg-id1" class="Background">
       <path fill="rgb(25,25,25)" stroke="none" d="M 15240,30479 L 0,30479 0,0 30479,0 30479,30479 15240,30479 Z"/>
      </g>
      <g class="com.sun.star.drawing.PolyPolygonShape">
       <g id="id3">
        <rect class="BoundingBox" stroke="none" fill="none" x="2413" y="2794" width="17400" height="15241"/>
        <path fill="rgb(89,131,176)" stroke="none" d="M 6477,6604 L 6223,7112 2413,12827 6350,18034 8001,16510 6223,13462 9144,9144 14732,7366 19812,4572 17907,2794 11303,5715 7874,6223 6477,6604 Z"/>
       </g>
      </g>
      <g class="com.sun.star.drawing.PolyPolygonShape">
       <g id="id4">
        <rect class="BoundingBox" stroke="none" fill="none" x="18160" y="20701" width="10035" height="7114"/>
        <path fill="rgb(129,212,26)" stroke="none" d="M 18415,27051 L 18161,22733 24765,20701 28194,23495 25146,26924 20701,27813 18415,27051 Z"/>
       </g>
      </g>
      <g class="com.sun.star.drawing.LineShape">
       <g id="id5">
        <rect class="BoundingBox" stroke="none" fill="none" x="7821" y="16203" width="10140" height="6457"/>
        <path fill="none" stroke="rgb(236,46,215)" stroke-width="106" stroke-linejoin="round" d="M 7874,16256 L 7964,16313"/>
        <path fill="none" stroke="rgb(236,46,215)" stroke-width="106" stroke-linejoin="round" d="M 8053,16369 L 8143,16426"/>
        <path fill="none" stroke="rgb(236,46,215)" stroke-width="106" stroke-linejoin="round" d="M 8232,16483 L 8322,16539"/>
        <path fill="none" stroke="rgb(236,46,215)" stroke-width="106" stroke-linejoin="round" d="M 8411,16596 L 8501,16653"/>
        <path fill="none" stroke="rgb(236,46,215)" stroke-width="106" stroke-linejoin="round" d="M 8591,16710 L 8680,16766"/>
        <path fill="none" stroke="rgb(236,46,215)" stroke-width="106" stroke-linejoin="round" d="M 8770,16823 L 8859,16880"/>
        <path fill="none" stroke="rgb(236,46,215)" stroke-width="106" stroke-linejoin="round" d="M 8949,16936 L 9038,16993"/>
        <path fill="none" stroke="rgb(236,46,215)" stroke-width="106" stroke-linejoin="round" d="M 9128,17050 L 9218,17106"/>
        <path fill="none" stroke="rgb(236,46,215)" stroke-width="106" stroke-linejoin="round" d="M 9307,17163 L 9397,17220"/>
        <path fill="none" stroke="rgb(236,46,215)" stroke-width="106" stroke-linejoin="round" d="M 9486,17276 L 9576,17333"/>
        <path fill="none" stroke="rgb(236,46,215)" stroke-width="106" stroke-linejoin="round" d="M 9665,17390 L 9755,17446"/>
        <path fill="none" stroke="rgb(236,46,215)" stroke-width="106" stroke-linejoin="round" d="M 9844,17503 L 9934,17560"/>
        <path fill="none" stroke="rgb(236,46,215)" stroke-width="106" stroke-linejoin="round" d="M 10024,17617 L 10113,17673"/>
        <path fill="none" stroke="rgb(236,46,215)" stroke-width="106" stroke-linejoin="round" d="M 10203,17730 L 10292,17787"/>
        <path fill="none" stroke="rgb(236,46,215)" stroke-width="106" stroke-linejoin="round" d="M 10382,17843 L 10471,17900"/>
        <path fill="none" stroke="rgb(236,46,215)" stroke-width="106" stroke-linejoin="round" d="M 10561,17957 L 10651,18013"/>
        <path fill="none" stroke="rgb(236,46,215)" stroke-width="106" stroke-linejoin="round" d="M 10740,18070 L 10830,18127"/>
        <path fill="none" stroke="rgb(236,46,215)" stroke-width="106" stroke-linejoin="round" d="M 10919,18183 L 11009,18240"/>
        <path fill="none" stroke="rgb(236,46,215)" stroke-width="106" stroke-linejoin="round" d="M 11098,18297 L 11188,18353"/>
        <path fill="none" stroke="rgb(236,46,215)" stroke-width="106" stroke-linejoin="round" d="M 11278,18410 L 11367,18467"/>
        <path fill="none" stroke="rgb(236,46,215)" stroke-width="106" stroke-linejoin="round" d="M 11457,18524 L 11546,18580"/>
        <path fill="none" stroke="rgb(236,46,215)" stroke-width="106" stroke-linejoin="round" d="M 11636,18637 L 11725,18694"/>
        <path fill="none" stroke="rgb(236,46,215)" stroke-width="106" stroke-linejoin="round" d="M 11815,18750 L 11905,18807"/>
        <path fill="none" stroke="rgb(236,46,215)" stroke-width="106" stroke-linejoin="round" d="M 11994,18864 L 12084,18920"/>
        <path fill="none" stroke="rgb(236,46,215)" stroke-width="106" stroke-linejoin="round" d="M 12173,18977 L 12263,19034"/>
        <path fill="none" stroke="rgb(236,46,215)" stroke-width="106" stroke-linejoin="round" d="M 12352,19090 L 12442,19147"/>
        <path fill="none" stroke="rgb(236,46,215)" stroke-width="106" stroke-linejoin="round" d="M 12532,19204 L 12621,19260"/>
        <path fill="none" stroke="rgb(236,46,215)" stroke-width="106" stroke-linejoin="round" d="M 12711,19317 L 12800,19374"/>
        <path fill="none" stroke="rgb(236,46,215)" stroke-width="106" stroke-linejoin="round" d="M 12890,19431 L 12979,19487"/>
        <path fill="none" stroke="rgb(236,46,215)" stroke-width="106" stroke-linejoin="round" d="M 13069,19544 L 13159,19601"/>
        <path fill="none" stroke="rgb(236,46,215)" stroke-width="106" stroke-linejoin="round" d="M 13248,19657 L 13338,19714"/>
        <path fill="none" stroke="rgb(236,46,215)" stroke-width="106" stroke-linejoin="round" d="M 13427,19771 L 13517,19827"/>
        <path fill="none" stroke="rgb(236,46,215)" stroke-width="106" stroke-linejoin="round" d="M 13606,19884 L 13696,19941"/>
        <path fill="none" stroke="rgb(236,46,215)" stroke-width="106" stroke-linejoin="round" d="M 13785,19997 L 13875,20054"/>
        <path fill="none" stroke="rgb(236,46,215)" stroke-width="106" stroke-linejoin="round" d="M 13965,20111 L 14054,20168"/>
        <path fill="none" stroke="rgb(236,46,215)" stroke-width="106" stroke-linejoin="round" d="M 14144,20224 L 14233,20281"/>
        <path fill="none" stroke="rgb(236,46,215)" stroke-width="106" stroke-linejoin="round" d="M 14323,20338 L 14412,20394"/>
        <path fill="none" stroke="rgb(236,46,215)" stroke-width="106" stroke-linejoin="round" d="M 14502,20451 L 14592,20508"/>
        <path fill="none" stroke="rgb(236,46,215)" stroke-width="106" stroke-linejoin="round" d="M 14681,20564 L 14771,20621"/>
        <path fill="none" stroke="rgb(236,46,215)" stroke-width="106" stroke-linejoin="round" d="M 14860,20678 L 14950,20734"/>
        <path fill="none" stroke="rgb(236,46,215)" stroke-width="106" stroke-linejoin="round" d="M 15039,20791 L 15129,20848"/>
        <path fill="none" stroke="rgb(236,46,215)" stroke-width="106" stroke-linejoin="round" d="M 15219,20904 L 15308,20961"/>
        <path fill="none" stroke="rgb(236,46,215)" stroke-width="106" stroke-linejoin="round" d="M 15398,21018 L 15487,21075"/>
        <path fill="none" stroke="rgb(236,46,215)" stroke-width="106" stroke-linejoin="round" d="M 15577,21131 L 15666,21188"/>
        <path fill="none" stroke="rgb(236,46,215)" stroke-width="106" stroke-linejoin="round" d="M 15756,21245 L 15846,21301"/>
        <path fill="none" stroke="rgb(236,46,215)" stroke-width="106" stroke-linejoin="round" d="M 15935,21358 L 16025,21415"/>
        <path fill="none" stroke="rgb(236,46,215)" stroke-width="106" stroke-linejoin="round" d="M 16114,21471 L 16204,21528"/>
        <path fill="none" stroke="rgb(236,46,215)" stroke-width="106" stroke-linejoin="round" d="M 16293,21585 L 16383,21641"/>
        <path fill="none" stroke="rgb(236,46,215)" stroke-width="106" stroke-linejoin="round" d="M 16473,21698 L 16562,21755"/>
        <path fill="none" stroke="rgb(236,46,215)" stroke-width="106" stroke-linejoin="round" d="M 16652,21811 L 16741,21868"/>
        <path fill="none" stroke="rgb(236,46,215)" stroke-width="106" stroke-linejoin="round" d="M 16831,21925 L 16920,21982"/>
        <path fill="none" stroke="rgb(236,46,215)" stroke-width="106" stroke-linejoin="round" d="M 17010,22038 L 17099,22095"/>
        <path fill="none" stroke="rgb(236,46,215)" stroke-width="106" stroke-linejoin="round" d="M 17189,22152 L 17279,22208"/>
        <path fill="none" stroke="rgb(236,46,215)" stroke-width="106" stroke-linejoin="round" d="M 17368,22265 L 17458,22322"/>
        <path fill="none" stroke="rgb(236,46,215)" stroke-width="106" stroke-linejoin="round" d="M 17547,22378 L 17637,22435"/>
        <path fill="none" stroke="rgb(236,46,215)" stroke-width="106" stroke-linejoin="round" d="M 17726,22492 L 17816,22548"/>
        <path fill="none" stroke="rgb(236,46,215)" stroke-width="106" stroke-linejoin="round" d="M 17906,22605 L 17907,22606"/>
       </g>
      </g>
      <g class="com.sun.star.drawing.CustomShape">
       <g id="id6">
        <rect class="BoundingBox" stroke="none" fill="none" x="17652" y="22351" width="1145" height="1145"/>
        <path fill="rgb(89,131,176)" stroke="none" d="M 18796,22923 C 18796,23023 18770,23122 18719,23209 18669,23296 18597,23368 18510,23418 18423,23469 18324,23495 18224,23495 18124,23495 18025,23469 17938,23418 17851,23368 17779,23296 17729,23209 17678,23122 17652,23023 17652,22923 17652,22823 17678,22724 17729,22637 17779,22550 17851,22478 17938,22428 18025,22377 18124,22351 18224,22351 18324,22351 18423,22377 18510,22428 18597,22478 18669,22550 18719,22637 18770,22724 18796,22823 18796,22923 L 18796,22923 Z"/>
       </g>
      </g>
      <g class="com.sun.star.drawing.CustomShape">
       <g id="id7">
        <rect class="BoundingBox" stroke="none" fill="none" x="7238" y="15747" width="1145" height="1145"/>
        <path fill="rgb(129,212,26)" stroke="none" d="M 8382,16319 C 8382,16419 8356,16518 8305,16605 8255,16692 8183,16764 8096,16814 8009,16865 7910,16891 7810,16891 7710,16891 7611,16865 7524,16814 7437,16764 7365,16692 7315,16605 7264,16518 7238,16419 7238,16319 7238,16219 7264,16120 7315,16033 7365,15946 7437,15874 7524,15824 7611,15773 7710,15747 7810,15747 7910,15747 8009,15773 8096,15824 8183,15874 8255,15946 8305,16033 8356,16120 8382,16219 8382,16319 L 8382,16319 Z"/>
       </g>
      </g>
      <g class="Graphic">
       <title>TexMaths
       </title>
       <desc>14§display§\textcolor{mydarkblue}{\mathcal{A}}§svg§600§TRUE§
       </desc>
       <g id="id8">
        <rect class="BoundingBox" stroke="none" fill="none" x="4954" y="9017" width="2496" height="2414"/>
        <defs>
         <clipPath id="clip_path_1" clipPathUnits="userSpaceOnUse">
          <path d="M 4954,9017 L 7449,9017 7449,11430 4954,11430 4954,9017 Z"/>
         </clipPath>
        </defs>
        <g clip-path="url(#clip_path_1)">
         <path fill="rgb(8,69,148)" stroke="none" d="M 6814,10758 C 6830,10955 6867,11099 6883,11158 6917,11299 6933,11367 7068,11367 7208,11367 7449,11227 7449,11164 7449,11149 7436,11142 7421,11142 7380,11142 7315,11177 7305,11183 7283,11196 7277,11196 7271,11196 7183,11196 7164,11111 7127,10924 7105,10820 7077,10695 7052,10267 7030,9948 7018,9630 7018,9311 7018,9236 7021,9155 7021,9080 7021,9030 7021,9017 6986,9017 6942,9017 6814,9070 6758,9155 L 6736,9189 C 6489,9717 6258,10095 6095,10349 5911,10633 5586,11142 5417,11142 5301,11142 5204,11067 5176,10955 5173,10949 5167,10930 5154,10930 5107,10930 5038,11080 5038,11167 5038,11292 5173,11430 5320,11430 5536,11430 5895,10867 5964,10758 L 6814,10758 6814,10758 Z M 6752,9401 L 6752,9583 C 6752,9764 6758,9945 6767,10127 6771,10189 6783,10424 6799,10586 L 6227,10586 C 6176,10586 6130,10586 6048,10636 6267,10299 6448,9973 6467,9939 6624,9661 6708,9480 6749,9401 L 6752,9401 6752,9401 Z"/>
        </g>
       </g>
      </g>
      <g class="Graphic">
       <title>TexMaths
       </title>
       <desc>14§display§\textcolor{mydarkgreen}{\mathcal{B}}§svg§600§TRUE§
       </desc>
       <g id="id9">
        <rect class="BoundingBox" stroke="none" fill="none" x="22082" y="23115" width="1922" height="2080"/>
        <path fill="rgb(34,75,18)" stroke="none" d="M 22906,23282 C 22911,23254 22911,23249 22911,23241 22911,23223 22906,23215 22883,23215 22854,23215 22777,23254 22725,23280 22605,23339 22507,23388 22507,23435 22507,23451 22525,23451 22535,23451 22566,23451 22634,23414 22683,23391 22652,23645 22590,23976 22543,24198 22447,24638 22398,24796 22270,25047 22258,25071 22258,25076 22258,25078 22258,25097 22278,25097 22283,25097 22325,25097 22434,25050 22476,24978 22509,24918 22608,24729 22686,24429 22743,24206 22841,23867 23026,23601 23145,23432 23254,23355 23417,23355 23558,23355 23685,23445 23685,23583 23685,23810 23438,23893 23168,23984 23137,23994 22958,24056 22958,24121 22958,24136 22976,24139 22984,24139 22994,24139 23054,24129 23109,24129 23371,24129 23584,24284 23584,24530 23584,24851 23308,24954 23072,24954 22873,24954 22777,24846 22743,24809 22732,24796 22730,24791 22709,24791 22652,24791 22520,24871 22520,24918 22520,24926 22621,25097 22901,25097 23267,25097 23804,24838 23804,24421 23804,24204 23659,24041 23394,23991 23602,23903 23905,23717 23905,23474 23905,23324 23781,23212 23589,23212 23501,23212 23168,23236 22854,23624 L 22906,23282 22906,23282 Z"/>
       </g>
      </g>
      <g class="Graphic">
       <title>TexMaths
       </title>
       <desc>14§display§\textcolor{white}{a^*}§svg§600§TRUE§
       </desc>
       <g id="id10">
        <rect class="BoundingBox" stroke="none" fill="none" x="7366" y="17678" width="1906" height="1627"/>
        <defs>
         <clipPath id="clip_path_2" clipPathUnits="userSpaceOnUse">
          <path d="M 7366,17678 L 9271,17678 9271,19304 7366,19304 7366,17678 Z"/>
         </clipPath>
        </defs>
        <g clip-path="url(#clip_path_2)">
         <path fill="rgb(255,255,255)" stroke="none" d="M 8178,18460 C 8139,18380 8076,18321 7978,18321 7723,18321 7453,18640 7453,18957 7453,19161 7573,19304 7743,19304 7786,19304 7895,19295 8026,19141 8043,19232 8119,19304 8224,19304 8300,19304 8350,19254 8385,19185 8422,19107 8450,18974 8450,18970 8450,18948 8431,18948 8424,18948 8402,18948 8400,18957 8394,18987 8356,19128 8317,19256 8228,19256 8169,19256 8163,19200 8163,19156 8163,19109 8167,19091 8191,18996 8215,18905 8219,18883 8239,18801 L 8317,18497 C 8333,18436 8333,18432 8333,18423 8333,18386 8306,18364 8269,18364 8217,18364 8185,18412 8178,18460 L 8178,18460 Z M 8036,19022 C 8026,19061 8026,19065 7993,19102 7897,19222 7808,19256 7747,19256 7638,19256 7608,19137 7608,19052 7608,18944 7677,18677 7727,18577 7795,18449 7893,18369 7980,18369 8121,18369 8152,18547 8152,18560 8152,18573 8148,18586 8145,18597 L 8036,19022 8036,19022 Z"/>
         <path fill="rgb(255,255,255)" stroke="none" d="M 9009,18006 C 9134,17951 9190,17930 9228,17912 9257,17900 9271,17894 9271,17865 9271,17839 9251,17816 9224,17816 9213,17816 9210,17816 9192,17830 L 8985,17968 9007,17743 C 9010,17716 9007,17678 8962,17678 8943,17678 8914,17690 8914,17724 8914,17737 8921,17783 8922,17798 8925,17824 8936,17933 8939,17968 L 8733,17830 C 8718,17821 8713,17816 8700,17816 8672,17816 8652,17839 8652,17865 8652,17895 8671,17903 8684,17909 L 8914,18005 C 8789,18059 8733,18080 8695,18099 8666,18111 8652,18117 8652,18146 8652,18172 8672,18194 8700,18194 8710,18194 8713,18194 8732,18181 L 8939,18043 8914,18287 C 8914,18320 8943,18333 8962,18333 8980,18333 9009,18320 9009,18287 9009,18273 9003,18228 9001,18213 8998,18187 8988,18077 8985,18043 L 9167,18164 C 9207,18194 9210,18194 9224,18194 9251,18194 9271,18172 9271,18146 9271,18115 9253,18108 9239,18102 L 9009,18006 9009,18006 Z"/>
        </g>
       </g>
      </g>
      <g class="Graphic">
       <title>TexMaths
       </title>
       <desc>14§display§\textcolor{white}{b^*}§svg§600§TRUE§
       </desc>
       <g id="id11">
        <rect class="BoundingBox" stroke="none" fill="none" x="15875" y="23313" width="1652" height="1591"/>
        <defs>
         <clipPath id="clip_path_3" clipPathUnits="userSpaceOnUse">
          <path d="M 15875,23313 L 17526,23313 17526,24903 15875,24903 15875,23313 Z"/>
         </clipPath>
        </defs>
        <g clip-path="url(#clip_path_3)">
         <path fill="rgb(255,255,255)" stroke="none" d="M 16384,23431 C 16384,23428 16384,23407 16356,23407 16307,23407 16152,23424 16096,23428 16079,23431 16056,23433 16056,23471 16056,23496 16075,23496 16107,23496 16209,23496 16213,23511 16213,23532 16213,23547 16194,23619 16184,23664 L 16009,24356 C 15984,24462 15975,24496 15975,24570 15975,24771 16088,24903 16245,24903 16497,24903 16758,24587 16758,24281 16758,24088 16646,23942 16475,23942 16377,23942 16290,24003 16226,24069 L 16384,23431 16384,23431 Z M 16184,24233 C 16196,24186 16196,24182 16216,24158 16320,24020 16416,23989 16471,23989 16548,23989 16605,24052 16605,24188 16605,24313 16535,24557 16497,24638 16426,24780 16328,24856 16245,24856 16173,24856 16103,24799 16103,24642 16103,24602 16103,24561 16137,24428 L 16184,24233 16184,24233 Z"/>
         <path fill="rgb(255,255,255)" stroke="none" d="M 17270,23634 C 17392,23580 17447,23560 17484,23542 17513,23530 17526,23524 17526,23496 17526,23470 17507,23448 17480,23448 17469,23448 17466,23448 17449,23462 L 17246,23597 17268,23377 C 17271,23350 17268,23313 17224,23313 17206,23313 17177,23325 17177,23358 17177,23371 17183,23415 17185,23430 17188,23456 17198,23563 17201,23597 L 17000,23462 C 16985,23453 16981,23448 16967,23448 16940,23448 16921,23470 16921,23496 16921,23525 16939,23533 16952,23539 L 17177,23632 C 17055,23686 17000,23707 16963,23724 16934,23736 16921,23742 16921,23770 16921,23796 16940,23818 16967,23818 16978,23818 16981,23818 16999,23805 L 17201,23669 17177,23909 C 17177,23941 17206,23953 17224,23953 17241,23953 17270,23941 17270,23909 17270,23895 17264,23851 17262,23836 17259,23811 17249,23704 17246,23669 L 17425,23788 C 17463,23818 17466,23818 17480,23818 17507,23818 17526,23796 17526,23770 17526,23741 17508,23733 17495,23727 L 17270,23634 17270,23634 Z"/>
        </g>
       </g>
      </g>
      <g class="com.sun.star.drawing.CustomShape">
       <g id="id12">
        <rect class="BoundingBox" stroke="none" fill="none" x="8628" y="15119" width="10171" height="7147"/>
        <path fill="none" stroke="rgb(236,46,215)" stroke-width="81" stroke-linejoin="round" d="M 8669,15547 C 8934,15152 9614,15034 10029,15312 L 13535,17663 C 13949,17941 14630,17825 14896,17428 14630,17825 14779,18498 15194,18776 L 18325,20876 C 18740,21154 18889,21829 18624,22224"/>
       </g>
      </g>
      <g class="Graphic">
       <title>TexMaths
       </title>
       <desc>14§display§\textcolor{white}{D}§svg§600§TRUE§
       </desc>
       <g id="id13">
        <rect class="BoundingBox" stroke="none" fill="none" x="14224" y="15494" width="1624" height="1379"/>
        <defs>
         <clipPath id="clip_path_4" clipPathUnits="userSpaceOnUse">
          <path d="M 14224,15494 L 15847,15494 15847,16872 14224,16872 14224,15494 Z"/>
         </clipPath>
        </defs>
        <g clip-path="url(#clip_path_4)">
         <path fill="rgb(255,255,255)" stroke="none" d="M 14545,16715 C 14525,16793 14521,16809 14361,16809 14327,16809 14305,16809 14305,16848 14305,16872 14323,16872 14361,16872 L 15029,16872 C 15449,16872 15847,16446 15847,16004 15847,15720 15675,15494 15373,15494 L 14694,15494 C 14656,15494 14634,15494 14634,15532 14634,15557 14652,15557 14692,15557 14719,15557 14755,15559 14779,15561 14811,15565 14824,15571 14824,15593 14824,15601 14822,15607 14815,15631 L 14545,16715 14545,16715 Z M 14981,15633 C 14999,15563 15003,15557 15090,15557 L 15306,15557 C 15504,15557 15671,15663 15671,15930 15671,16029 15631,16360 15459,16581 15401,16656 15241,16809 14993,16809 L 14765,16809 C 14737,16809 14733,16809 14721,16807 14700,16805 14694,16803 14694,16787 14694,16781 14694,16777 14704,16741 L 14981,15633 14981,15633 Z"/>
        </g>
       </g>
      </g>
      <g class="Graphic">
       <title>TexMaths
       </title>
       <desc>14§display§\textcolor{white}{\Lambda_{\mathcal{A},\mathcal{B}} = 0.5D^2}§svg§600§TRUE§
       </desc>
       <g id="id14">
        <rect class="BoundingBox" stroke="none" fill="none" x="16764" y="8717" width="11437" height="2333"/>
        <path fill="rgb(255,255,255)" stroke="none" d="M 17533,9132 C 17521,9096 17510,9092 17489,9092 17459,9092 17455,9100 17446,9132 L 17084,10253 C 17065,10309 17027,10383 16895,10383 L 16895,10441 C 16958,10437 17054,10435 17071,10435 17125,10435 17225,10439 17284,10441 L 17284,10383 C 17182,10381 17139,10330 17139,10285 17139,10275 17139,10270 17148,10243 L 17431,9366 17729,10292 C 17738,10319 17738,10322 17738,10326 17738,10383 17627,10383 17578,10383 L 17578,10441 C 17644,10435 17778,10435 17850,10435 17923,10435 18008,10439 18081,10441 L 18081,10383 C 17938,10383 17932,10371 17910,10302 L 17533,9132 17533,9132 Z"/>
        <path fill="rgb(255,255,255)" stroke="none" d="M 19032,10507 C 19042,10573 19050,10613 19067,10668 19083,10725 19095,10762 19157,10762 19224,10762 19333,10700 19333,10670 19333,10663 19327,10658 19318,10658 19302,10658 19286,10664 19272,10672 19255,10681 19253,10681 19249,10681 19227,10681 19211,10667 19206,10656 19131,10494 19109,9935 19109,9838 19109,9818 19109,9786 19107,9778 19107,9773 19102,9768 19091,9768 19075,9768 19018,9785 18989,9828 L 18974,9848 C 18786,10227 18556,10518 18505,10576 18486,10597 18430,10660 18385,10660 18358,10660 18292,10642 18271,10585 18267,10575 18266,10571 18259,10571 18238,10571 18207,10637 18207,10675 18207,10730 18271,10791 18343,10791 18419,10791 18515,10672 18617,10532 18633,10513 18633,10510 18636,10509 18637,10507 18640,10507 18662,10507 L 19032,10507 19032,10507 Z M 18987,9936 C 18991,10055 18997,10212 19022,10427 L 18753,10427 C 18735,10427 18711,10427 18680,10444 18791,10286 18888,10124 18985,9936 L 18987,9936 18987,9936 Z"/>
        <path fill="rgb(255,255,255)" stroke="none" d="M 19634,10703 C 19634,10775 19621,10859 19531,10944 19526,10949 19522,10953 19522,10960 19522,10969 19533,10978 19541,10978 19559,10978 19671,10873 19671,10716 19671,10634 19640,10572 19579,10572 19535,10572 19504,10606 19504,10647 19504,10689 19534,10724 19580,10724 19612,10724 19633,10703 19634,10703 L 19634,10703 Z"/>
        <path fill="rgb(255,255,255)" stroke="none" d="M 20208,9827 C 20208,9824 20210,9811 20210,9810 20210,9797 20198,9797 20193,9797 20176,9797 20159,9805 20113,9828 20035,9868 19986,9892 19986,9918 19986,9929 19998,9929 20003,9929 20020,9929 20036,9921 20084,9897 20056,10126 20012,10319 20000,10374 19977,10476 19953,10584 19887,10704 19871,10733 19871,10735 19871,10739 19871,10750 19883,10750 19887,10750 19900,10750 19944,10739 19982,10700 19985,10696 20006,10666 20043,10581 20074,10511 20089,10453 20099,10414 20155,10204 20289,9875 20511,9875 20584,9875 20652,9914 20652,9988 20652,10051 20614,10078 20565,10103 20507,10134 20400,10170 20361,10183 20317,10198 20305,10202 20282,10219 20251,10242 20251,10254 20251,10257 20251,10265 20256,10269 20266,10269 20271,10269 20275,10267 20280,10267 20282,10267 20313,10261 20346,10261 20482,10261 20610,10329 20610,10464 20610,10506 20597,10588 20520,10629 20469,10656 20386,10670 20326,10670 20275,10670 20202,10659 20140,10606 20127,10594 20126,10593 20117,10593 20082,10593 20012,10638 20012,10663 20012,10675 20056,10706 20097,10725 20156,10750 20205,10750 20233,10750 20462,10750 20733,10613 20733,10405 20733,10273 20621,10203 20507,10184 20602,10141 20775,10055 20775,9929 20775,9856 20713,9794 20605,9794 20485,9794 20308,9868 20179,10031 L 20208,9827 20208,9827 Z"/>
        <path fill="rgb(255,255,255)" stroke="none" d="M 22744,9825 C 22772,9825 22808,9825 22808,9787 22808,9750 22772,9750 22746,9750 L 21617,9750 C 21590,9750 21554,9750 21554,9787 21554,9825 21590,9825 21618,9825 L 22744,9825 22744,9825 Z M 22746,10191 C 22772,10191 22808,10191 22808,10153 22808,10115 22772,10115 22744,10115 L 21618,10115 C 21590,10115 21554,10115 21554,10153 21554,10191 21590,10191 21617,10191 L 22746,10191 22746,10191 Z"/>
        <path fill="rgb(255,255,255)" stroke="none" d="M 24307,9838 C 24307,9688 24297,9537 24231,9398 24144,9217 23990,9187 23911,9187 23797,9187 23660,9236 23583,9411 23522,9541 23513,9688 23513,9838 23513,9980 23520,10149 23598,10292 23679,10445 23816,10483 23909,10483 24011,10483 24154,10443 24237,10264 24297,10134 24307,9987 24307,9838 L 24307,9838 Z M 23909,10441 C 23835,10441 23724,10394 23690,10213 23669,10100 23669,9927 23669,9816 23669,9695 23669,9571 23684,9469 23720,9245 23862,9228 23909,9228 23971,9228 24095,9262 24131,9448 24150,9554 24150,9697 24150,9816 24150,9957 24150,10085 24129,10206 24101,10385 23994,10441 23909,10441 L 23909,10441 Z"/>
        <path fill="rgb(255,255,255)" stroke="none" d="M 24744,10341 C 24744,10287 24699,10241 24644,10241 24590,10241 24544,10287 24544,10341 24544,10396 24590,10441 24644,10441 24699,10441 24744,10396 24744,10341 L 24744,10341 Z"/>
        <path fill="rgb(255,255,255)" stroke="none" d="M 25753,10062 C 25753,9838 25598,9650 25394,9650 25304,9650 25223,9680 25155,9746 L 25155,9379 C 25193,9390 25255,9403 25315,9403 25547,9403 25679,9232 25679,9207 25679,9196 25673,9187 25660,9187 25658,9187 25655,9187 25645,9192 25607,9209 25515,9247 25389,9247 25313,9247 25226,9234 25138,9194 25123,9189 25119,9189 25115,9189 25096,9189 25096,9204 25096,9234 L 25096,9791 C 25096,9825 25096,9840 25123,9840 25136,9840 25140,9835 25147,9823 25168,9793 25238,9691 25391,9691 25489,9691 25536,9778 25551,9812 25581,9882 25585,9955 25585,10049 25585,10115 25585,10228 25540,10307 25494,10381 25424,10430 25338,10430 25200,10430 25093,10330 25061,10219 25066,10221 25072,10223 25093,10223 25155,10223 25187,10176 25187,10130 25187,10085 25155,10038 25093,10038 25066,10038 25000,10051 25000,10138 25000,10300 25130,10483 25342,10483 25560,10483 25753,10302 25753,10062 L 25753,10062 Z"/>
        <path fill="rgb(255,255,255)" stroke="none" d="M 26149,10294 C 26130,10368 26126,10383 25977,10383 25945,10383 25924,10383 25924,10418 25924,10441 25941,10441 25977,10441 L 26601,10441 C 26993,10441 27365,10044 27365,9631 27365,9366 27205,9155 26922,9155 L 26288,9155 C 26252,9155 26232,9155 26232,9190 26232,9213 26249,9213 26286,9213 26311,9213 26345,9215 26367,9217 26398,9221 26409,9226 26409,9247 26409,9254 26407,9260 26401,9283 L 26149,10294 26149,10294 Z M 26556,9285 C 26573,9219 26577,9213 26658,9213 L 26860,9213 C 27044,9213 27201,9313 27201,9561 27201,9654 27163,9963 27003,10170 26948,10240 26799,10383 26567,10383 L 26354,10383 C 26328,10383 26324,10383 26313,10381 26294,10379 26288,10377 26288,10362 26288,10356 26288,10353 26298,10319 L 26556,9285 26556,9285 Z"/>
        <path fill="rgb(255,255,255)" stroke="none" d="M 28129,9423 L 28084,9423 C 28080,9452 28067,9530 28050,9543 28039,9551 27938,9551 27919,9551 L 27676,9551 C 27815,9429 27861,9392 27940,9330 28038,9252 28129,9170 28129,9045 28129,8885 27989,8788 27820,8788 27656,8788 27546,8903 27546,9024 27546,9091 27602,9098 27616,9098 27647,9098 27685,9075 27685,9028 27685,9004 27676,8958 27608,8958 27649,8864 27738,8835 27800,8835 27932,8835 28001,8938 28001,9045 28001,9160 27919,9251 27877,9298 L 27559,9612 C 27546,9624 27546,9626 27546,9663 L 28089,9663 28129,9423 28129,9423 Z"/>
       </g>
      </g>
     </g>
    </g>
   </g>
  </g>
 </g>
</svg>