<?xml version="1.0" encoding="utf-8" standalone="no"?>
<!DOCTYPE svg PUBLIC "-//W3C//DTD SVG 1.1//EN"
  "http://www.w3.org/Graphics/SVG/1.1/DTD/svg11.dtd">
<svg xmlns:xlink="http://www.w3.org/1999/xlink" width="432pt" height="432pt" viewBox="0 0 432 432" xmlns="http://www.w3.org/2000/svg" version="1.1">
 <metadata>
  <rdf:RDF xmlns:dc="http://purl.org/dc/elements/1.1/" xmlns:cc="http://creativecommons.org/ns#" xmlns:rdf="http://www.w3.org/1999/02/22-rdf-syntax-ns#">
   <cc:Work>
    <dc:type rdf:resource="http://purl.org/dc/dcmitype/StillImage"/>
    <dc:date>2025-03-08T01:40:36.939924</dc:date>
    <dc:format>image/svg+xml</dc:format>
    <dc:creator>
     <cc:Agent>
      <dc:title>Matplotlib v3.10.0, https://matplotlib.org/</dc:title>
     </cc:Agent>
    </dc:creator>
   </cc:Work>
  </rdf:RDF>
 </metadata>
 <defs>
  <style type="text/css">*{stroke-linejoin: round; stroke-linecap: butt}</style>
 </defs>
 <g id="figure_1">
  <g id="patch_1">
   <path d="M 0 432 
L 432 432 
L 432 0 
L 0 0 
z
" style="fill: #191919"/>
  </g>
  <g id="axes_1">
   <g id="patch_2">
    <path d="M 54 384.48 
L 388.8 384.48 
L 388.8 51.84 
L 54 51.84 
z
" style="fill: #191919"/>
   </g>
   <g id="PathCollection_1">
    <defs>
     <path id="m696e0d1cdd" d="M 0 3.535534 
C 0.937635 3.535534 1.836992 3.163008 2.5 2.5 
C 3.163008 1.836992 3.535534 0.937635 3.535534 0 
C 3.535534 -0.937635 3.163008 -1.836992 2.5 -2.5 
C 1.836992 -3.163008 0.937635 -3.535534 0 -3.535534 
C -0.937635 -3.535534 -1.836992 -3.163008 -2.5 -2.5 
C -3.163008 -1.836992 -3.535534 -0.937635 -3.535534 0 
C -3.535534 0.937635 -3.163008 1.836992 -2.5 2.5 
C -1.836992 3.163008 -0.937635 3.535534 0 3.535534 
z
" style="stroke: #ff00ff"/>
    </defs>
    <g clip-path="url(#pb300f529b5)">
     <use xlink:href="#m696e0d1cdd" x="359.293757" y="66.96" style="fill: #ff00ff; stroke: #ff00ff"/>
     <use xlink:href="#m696e0d1cdd" x="83.506243" y="369.36" style="fill: #ff00ff; stroke: #ff00ff"/>
     <use xlink:href="#m696e0d1cdd" x="359.293757" y="66.96" style="fill: #ff00ff; stroke: #ff00ff"/>
    </g>
   </g>
   <g id="QuadContourSet_1">
    <path clip-path="url(#pb300f529b5)" style="fill: none; stroke: #beffbe; stroke-width: 1.5"/>
    <path clip-path="url(#pb300f529b5)" style="fill: none; stroke: #b4f4b4; stroke-width: 1.5"/>
    <path clip-path="url(#pb300f529b5)" style="fill: none; stroke: #abeaab; stroke-width: 1.5"/>
    <path clip-path="url(#pb300f529b5)" style="fill: none; stroke: #a1e0a1; stroke-width: 1.5"/>
    <path clip-path="url(#pb300f529b5)" style="fill: none; stroke: #99d799; stroke-width: 1.5"/>
    <path clip-path="url(#pb300f529b5)" style="fill: none; stroke: #90cd90; stroke-width: 1.5"/>
    <path d="M 67.071756 51.84 
L 66.586466 52.372116 
L 65.747368 53.292178 
L 64.908271 54.21224 
L 64.069173 55.132303 
L 63.230075 56.052365 
L 62.390977 56.972427 
L 61.55188 57.892489 
L 60.880572 58.628571 
L 60.712782 58.812552 
L 59.873684 59.732614 
L 59.034586 60.652676 
L 58.195489 61.572738 
L 57.356391 62.492801 
L 56.517293 63.412863 
L 55.678195 64.332925 
L 54.839098 65.252988 
L 54.689388 65.417143 
L 54 66.17305 
" clip-path="url(#pb300f529b5)" style="fill: none; stroke: #88c488; stroke-width: 1.5"/>
    <path d="M 91.27593 51.84 
L 90.920301 52.229944 
L 90.081203 53.150006 
L 89.242105 54.070069 
L 88.403008 54.990131 
L 87.56391 55.910193 
L 86.724812 56.830255 
L 85.885714 57.750318 
L 85.084746 58.628571 
L 85.046617 58.67038 
L 84.207519 59.590442 
L 83.368421 60.510504 
L 82.529323 61.430567 
L 81.690226 62.350629 
L 80.851128 63.270691 
L 80.01203 64.190754 
L 79.172932 65.110816 
L 78.893562 65.417143 
L 78.333835 66.030878 
L 77.494737 66.95094 
L 76.655639 67.871003 
L 75.816541 68.791065 
L 74.977444 69.711127 
L 74.138346 70.631189 
L 73.299248 71.551252 
L 72.702378 72.205714 
L 72.46015 72.471314 
L 71.621053 73.391376 
L 70.781955 74.311438 
L 69.942857 75.231501 
L 69.103759 76.151563 
L 68.264662 77.071625 
L 67.425564 77.991687 
L 66.586466 78.91175 
L 66.511193 78.994286 
L 65.747368 79.831812 
L 64.908271 80.751874 
L 64.069173 81.671937 
L 63.230075 82.591999 
L 62.390977 83.512061 
L 61.55188 84.432123 
L 60.712782 85.352186 
L 60.320009 85.782857 
L 59.873684 86.272248 
L 59.034586 87.19231 
L 58.195489 88.112372 
L 57.356391 89.032435 
L 56.517293 89.952497 
L 55.678195 90.872559 
L 54.839098 91.792621 
L 54.128825 92.571429 
L 54 92.712684 
" clip-path="url(#pb300f529b5)" style="fill: none; stroke: #7fbc7f; stroke-width: 1.5"/>
    <path d="M 115.480104 51.84 
L 115.254135 52.087772 
L 114.415038 53.007835 
L 113.57594 53.927897 
L 112.736842 54.847959 
L 111.897744 55.768021 
L 111.058647 56.688084 
L 110.219549 57.608146 
L 109.380451 58.528208 
L 109.28892 58.628571 
L 108.541353 59.448271 
L 107.702256 60.368333 
L 106.863158 61.288395 
L 106.02406 62.208457 
L 105.184962 63.12852 
L 104.345865 64.048582 
L 103.506767 64.968644 
L 103.097736 65.417143 
L 102.667669 65.888706 
L 101.828571 66.808769 
L 100.989474 67.728831 
L 100.150376 68.648893 
L 99.311278 69.568955 
L 98.47218 70.489018 
L 97.633083 71.40908 
L 96.906551 72.205714 
L 96.793985 72.329142 
L 95.954887 73.249204 
L 95.115789 74.169267 
L 94.276692 75.089329 
L 93.437594 76.009391 
L 92.598496 76.929453 
L 91.759398 77.849516 
L 90.920301 78.769578 
L 90.715367 78.994286 
L 90.081203 79.68964 
L 89.242105 80.609703 
L 88.403008 81.529765 
L 87.56391 82.449827 
L 86.724812 83.369889 
L 85.885714 84.289952 
L 85.046617 85.210014 
L 84.524183 85.782857 
L 84.207519 86.130076 
L 83.368421 87.050138 
L 82.529323 87.970201 
L 81.690226 88.890263 
L 80.851128 89.810325 
L 80.01203 90.730387 
L 79.172932 91.65045 
L 78.333835 92.570512 
L 78.332999 92.571429 
L 77.494737 93.490574 
L 76.655639 94.410636 
L 75.816541 95.330699 
L 74.977444 96.250761 
L 74.138346 97.170823 
L 73.299248 98.090886 
L 72.46015 99.010948 
L 72.141814 99.36 
L 71.621053 99.93101 
L 70.781955 100.851072 
L 69.942857 101.771135 
L 69.103759 102.691197 
L 68.264662 103.611259 
L 67.425564 104.531321 
L 66.586466 105.451384 
L 65.95063 106.148571 
L 65.747368 106.371446 
L 64.908271 107.291508 
L 64.069173 108.21157 
L 63.230075 109.131633 
L 62.390977 110.051695 
L 61.55188 110.971757 
L 60.712782 111.891819 
L 59.873684 112.811882 
L 59.759446 112.937143 
L 59.034586 113.731944 
L 58.195489 114.652006 
L 57.356391 115.572068 
L 56.517293 116.492131 
L 55.678195 117.412193 
L 54.839098 118.332255 
L 54 119.252318 
" clip-path="url(#pb300f529b5)" style="fill: none; stroke: #78b378; stroke-width: 1.5"/>
    <path d="M 139.684278 51.84 
L 139.58797 51.945601 
L 138.748872 52.865663 
L 137.909774 53.785725 
L 137.070677 54.705787 
L 136.231579 55.62585 
L 135.392481 56.545912 
L 134.553383 57.465974 
L 133.714286 58.386037 
L 133.493094 58.628571 
L 132.875188 59.306099 
L 132.03609 60.226161 
L 131.196992 61.146223 
L 130.357895 62.066286 
L 129.518797 62.986348 
L 128.679699 63.90641 
L 127.840602 64.826472 
L 127.301909 65.417143 
L 127.001504 65.746535 
L 126.162406 66.666597 
L 125.323308 67.586659 
L 124.484211 68.506721 
L 123.645113 69.426784 
L 122.806015 70.346846 
L 121.966917 71.266908 
L 121.12782 72.18697 
L 121.110725 72.205714 
L 120.288722 73.107033 
L 119.449624 74.027095 
L 118.610526 74.947157 
L 117.771429 75.867219 
L 116.932331 76.787282 
L 116.093233 77.707344 
L 115.254135 78.627406 
L 114.919541 78.994286 
L 114.415038 79.547469 
L 113.57594 80.467531 
L 112.736842 81.387593 
L 111.897744 82.307655 
L 111.058647 83.227718 
L 110.219549 84.14778 
L 109.380451 85.067842 
L 108.728357 85.782857 
L 108.541353 85.987904 
L 107.702256 86.907967 
L 106.863158 87.828029 
L 106.02406 88.748091 
L 105.184962 89.668153 
L 104.345865 90.588216 
L 103.506767 91.508278 
L 102.667669 92.42834 
L 102.537172 92.571429 
L 101.828571 93.348402 
L 100.989474 94.268465 
L 100.150376 95.188527 
L 99.311278 96.108589 
L 98.47218 97.028652 
L 97.633083 97.948714 
L 96.793985 98.868776 
L 96.345988 99.36 
L 95.954887 99.788838 
L 95.115789 100.708901 
L 94.276692 101.628963 
L 93.437594 102.549025 
L 92.598496 103.469087 
L 91.759398 104.38915 
L 90.920301 105.309212 
L 90.154804 106.148571 
L 90.081203 106.229274 
L 89.242105 107.149336 
L 88.403008 108.069399 
L 87.56391 108.989461 
L 86.724812 109.909523 
L 85.885714 110.829585 
L 85.046617 111.749648 
L 84.207519 112.66971 
L 83.96362 112.937143 
L 83.368421 113.589772 
L 82.529323 114.509834 
L 81.690226 115.429897 
L 80.851128 116.349959 
L 80.01203 117.270021 
L 79.172932 118.190084 
L 78.333835 119.110146 
L 77.772435 119.725714 
L 77.494737 120.030208 
L 76.655639 120.95027 
L 75.816541 121.870333 
L 74.977444 122.790395 
L 74.138346 123.710457 
L 73.299248 124.630519 
L 72.46015 125.550582 
L 71.621053 126.470644 
L 71.581251 126.514286 
L 70.781955 127.390706 
L 69.942857 128.310768 
L 69.103759 129.230831 
L 68.264662 130.150893 
L 67.425564 131.070955 
L 66.586466 131.991017 
L 65.747368 132.91108 
L 65.390067 133.302857 
L 64.908271 133.831142 
L 64.069173 134.751204 
L 63.230075 135.671267 
L 62.390977 136.591329 
L 61.55188 137.511391 
L 60.712782 138.431453 
L 59.873684 139.351516 
L 59.198883 140.091429 
L 59.034586 140.271578 
L 58.195489 141.19164 
L 57.356391 142.111702 
L 56.517293 143.031765 
L 55.678195 143.951827 
L 54.839098 144.871889 
L 54 145.791951 
" clip-path="url(#pb300f529b5)" style="fill: none; stroke: #70ab70; stroke-width: 1.5"/>
    <path d="M 163.888452 51.84 
L 54 172.331585 
L 54 172.331585 
" clip-path="url(#pb300f529b5)" style="fill: none; stroke: #69a369; stroke-width: 1.5"/>
    <path d="M 188.092626 51.84 
L 54 198.871219 
L 54 198.871219 
" clip-path="url(#pb300f529b5)" style="fill: none; stroke: #619b61; stroke-width: 1.5"/>
    <path d="M 212.296799 51.84 
L 54 225.410853 
L 54 225.410853 
" clip-path="url(#pb300f529b5)" style="fill: none; stroke: #5b945b; stroke-width: 1.5"/>
    <path d="M 236.500973 51.84 
L 54 251.950487 
L 54 251.950487 
" clip-path="url(#pb300f529b5)" style="fill: none; stroke: #548d54; stroke-width: 1.5"/>
    <path d="M 260.705147 51.84 
L 54 278.490121 
L 54 278.490121 
" clip-path="url(#pb300f529b5)" style="fill: none; stroke: #4e864e; stroke-width: 1.5"/>
    <path d="M 284.909321 51.84 
L 54 305.029755 
L 54 305.029755 
" clip-path="url(#pb300f529b5)" style="fill: none; stroke: #477f47; stroke-width: 1.5"/>
    <path d="M 309.113495 51.84 
L 54 331.569388 
L 54 331.569388 
" clip-path="url(#pb300f529b5)" style="fill: none; stroke: #427942; stroke-width: 1.5"/>
    <path d="M 333.317668 51.84 
L 54 358.109022 
L 54 358.109022 
" clip-path="url(#pb300f529b5)" style="fill: none; stroke: #3c733c; stroke-width: 1.5"/>
    <path d="M 357.521842 51.84 
L 54.153815 384.48 
L 54.153815 384.48 
" clip-path="url(#pb300f529b5)" style="fill: none; stroke: #376d37; stroke-width: 1.5"/>
    <path d="M 381.726016 51.84 
L 78.357988 384.48 
L 78.357988 384.48 
" clip-path="url(#pb300f529b5)" style="fill: none; stroke: #316731; stroke-width: 1.5"/>
    <path d="M 388.8 70.623081 
L 102.562162 384.48 
L 102.562162 384.48 
" clip-path="url(#pb300f529b5)" style="fill: none; stroke: #2d622d; stroke-width: 1.5"/>
    <path d="M 388.8 97.162715 
L 126.766336 384.48 
L 126.766336 384.48 
" clip-path="url(#pb300f529b5)" style="fill: none; stroke: #285d28; stroke-width: 1.5"/>
    <path d="M 388.8 123.702349 
L 150.97051 384.48 
L 150.97051 384.48 
" clip-path="url(#pb300f529b5)" style="fill: none; stroke: #245824; stroke-width: 1.5"/>
    <path d="M 388.8 150.241983 
L 175.174684 384.48 
L 175.174684 384.48 
" clip-path="url(#pb300f529b5)" style="fill: none; stroke: #1f541f; stroke-width: 1.5"/>
    <path d="M 388.8 176.781617 
L 199.378858 384.48 
L 199.378858 384.48 
" clip-path="url(#pb300f529b5)" style="fill: none; stroke: #1c501c; stroke-width: 1.5"/>
    <path d="M 388.8 203.321251 
L 223.583031 384.48 
L 223.583031 384.48 
" clip-path="url(#pb300f529b5)" style="fill: none; stroke: #184c18; stroke-width: 1.5"/>
    <path d="M 388.8 229.860885 
L 247.787205 384.48 
L 247.787205 384.48 
" clip-path="url(#pb300f529b5)" style="fill: none; stroke: #154815; stroke-width: 1.5"/>
    <path d="M 388.8 256.400519 
L 271.991379 384.48 
L 271.991379 384.48 
" clip-path="url(#pb300f529b5)" style="fill: none; stroke: #114511; stroke-width: 1.5"/>
    <path d="M 388.8 282.940152 
L 387.960902 283.860215 
L 387.121805 284.780277 
L 386.282707 285.700339 
L 385.443609 286.620401 
L 384.604511 287.540464 
L 383.765414 288.460526 
L 382.926316 289.380588 
L 382.872132 289.44 
L 382.087218 290.30065 
L 381.24812 291.220713 
L 380.409023 292.140775 
L 379.569925 293.060837 
L 378.730827 293.9809 
L 377.891729 294.900962 
L 377.052632 295.821024 
L 376.680948 296.228571 
L 376.213534 296.741086 
L 375.374436 297.661149 
L 374.535338 298.581211 
L 373.696241 299.501273 
L 372.857143 300.421335 
L 372.018045 301.341398 
L 371.178947 302.26146 
L 370.489764 303.017143 
L 370.33985 303.181522 
L 369.500752 304.101584 
L 368.661654 305.021647 
L 367.822556 305.941709 
L 366.983459 306.861771 
L 366.144361 307.781833 
L 365.305263 308.701896 
L 364.466165 309.621958 
L 364.298579 309.805714 
L 363.627068 310.54202 
L 362.78797 311.462082 
L 361.948872 312.382145 
L 361.109774 313.302207 
L 360.270677 314.222269 
L 359.431579 315.142332 
L 358.592481 316.062394 
L 358.107395 316.594286 
L 357.753383 316.982456 
L 356.914286 317.902518 
L 356.075188 318.822581 
L 355.23609 319.742643 
L 354.396992 320.662705 
L 353.557895 321.582767 
L 352.718797 322.50283 
L 351.916211 323.382857 
L 351.879699 323.422892 
L 351.040602 324.342954 
L 350.201504 325.263016 
L 349.362406 326.183079 
L 348.523308 327.103141 
L 347.684211 328.023203 
L 346.845113 328.943265 
L 346.006015 329.863328 
L 345.725027 330.171429 
L 345.166917 330.78339 
L 344.32782 331.703452 
L 343.488722 332.623515 
L 342.649624 333.543577 
L 341.810526 334.463639 
L 340.971429 335.383701 
L 340.132331 336.303764 
L 339.533843 336.96 
L 339.293233 337.223826 
L 338.454135 338.143888 
L 337.615038 339.06395 
L 336.77594 339.984013 
L 335.936842 340.904075 
L 335.097744 341.824137 
L 334.258647 342.744199 
L 333.419549 343.664262 
L 333.342658 343.748571 
L 332.580451 344.584324 
L 331.741353 345.504386 
L 330.902256 346.424448 
L 330.063158 347.344511 
L 329.22406 348.264573 
L 328.384962 349.184635 
L 327.545865 350.104697 
L 327.151474 350.537143 
L 326.706767 351.02476 
L 325.867669 351.944822 
L 325.028571 352.864884 
L 324.189474 353.784947 
L 323.350376 354.705009 
L 322.511278 355.625071 
L 321.67218 356.545133 
L 320.96029 357.325714 
L 320.833083 357.465196 
L 319.993985 358.385258 
L 319.154887 359.30532 
L 318.315789 360.225382 
L 317.476692 361.145445 
L 316.637594 362.065507 
L 315.798496 362.985569 
L 314.959398 363.905631 
L 314.769106 364.114286 
L 314.120301 364.825694 
L 313.281203 365.745756 
L 312.442105 366.665818 
L 311.603008 367.58588 
L 310.76391 368.505943 
L 309.924812 369.426005 
L 309.085714 370.346067 
L 308.577921 370.902857 
L 308.246617 371.26613 
L 307.407519 372.186192 
L 306.568421 373.106254 
L 305.729323 374.026316 
L 304.890226 374.946379 
L 304.051128 375.866441 
L 303.21203 376.786503 
L 302.386737 377.691429 
L 302.372932 377.706565 
L 301.533835 378.626628 
L 300.694737 379.54669 
L 299.855639 380.466752 
L 299.016541 381.386814 
L 298.177444 382.306877 
L 297.338346 383.226939 
L 296.499248 384.147001 
L 296.195553 384.48 
" clip-path="url(#pb300f529b5)" style="fill: none; stroke: #0f420f; stroke-width: 1.5"/>
    <path d="M 388.8 309.479786 
L 388.502753 309.805714 
L 387.960902 310.399849 
L 387.121805 311.319911 
L 386.282707 312.239973 
L 385.443609 313.160035 
L 384.604511 314.080098 
L 383.765414 315.00016 
L 382.926316 315.920222 
L 382.311569 316.594286 
L 382.087218 316.840284 
L 381.24812 317.760347 
L 380.409023 318.680409 
L 379.569925 319.600471 
L 378.730827 320.520533 
L 377.891729 321.440596 
L 377.052632 322.360658 
L 376.213534 323.28072 
L 376.120385 323.382857 
L 375.374436 324.200782 
L 374.535338 325.120845 
L 373.696241 326.040907 
L 372.857143 326.960969 
L 372.018045 327.881031 
L 371.178947 328.801094 
L 370.33985 329.721156 
L 369.929201 330.171429 
L 369.500752 330.641218 
L 368.661654 331.561281 
L 367.822556 332.481343 
L 366.983459 333.401405 
L 366.144361 334.321467 
L 365.305263 335.24153 
L 364.466165 336.161592 
L 363.738016 336.96 
L 363.627068 337.081654 
L 362.78797 338.001716 
L 361.948872 338.921779 
L 361.109774 339.841841 
L 360.270677 340.761903 
L 359.431579 341.681965 
L 358.592481 342.602028 
L 357.753383 343.52209 
L 357.546832 343.748571 
L 356.914286 344.442152 
L 356.075188 345.362214 
L 355.23609 346.282277 
L 354.396992 347.202339 
L 353.557895 348.122401 
L 352.718797 349.042464 
L 351.879699 349.962526 
L 351.355648 350.537143 
L 351.040602 350.882588 
L 350.201504 351.80265 
L 349.362406 352.722713 
L 348.523308 353.642775 
L 347.684211 354.562837 
L 346.845113 355.482899 
L 346.006015 356.402962 
L 345.166917 357.323024 
L 345.164464 357.325714 
L 344.32782 358.243086 
L 343.488722 359.163148 
L 342.649624 360.083211 
L 341.810526 361.003273 
L 340.971429 361.923335 
L 340.132331 362.843397 
L 339.293233 363.76346 
L 338.973279 364.114286 
L 338.454135 364.683522 
L 337.615038 365.603584 
L 336.77594 366.523646 
L 335.936842 367.443709 
L 335.097744 368.363771 
L 334.258647 369.283833 
L 333.419549 370.203896 
L 332.782095 370.902857 
L 332.580451 371.123958 
L 331.741353 372.04402 
L 330.902256 372.964082 
L 330.063158 373.884145 
L 329.22406 374.804207 
L 328.384962 375.724269 
L 327.545865 376.644331 
L 326.706767 377.564394 
L 326.590911 377.691429 
L 325.867669 378.484456 
L 325.028571 379.404518 
L 324.189474 380.32458 
L 323.350376 381.244643 
L 322.511278 382.164705 
L 321.67218 383.084767 
L 320.833083 384.004829 
L 320.399727 384.48 
" clip-path="url(#pb300f529b5)" style="fill: none; stroke: #0c3f0c; stroke-width: 1.5"/>
    <path d="M 388.8 336.01942 
L 387.960902 336.939482 
L 387.94219 336.96 
L 387.121805 337.859545 
L 386.282707 338.779607 
L 385.443609 339.699669 
L 384.604511 340.619731 
L 383.765414 341.539794 
L 382.926316 342.459856 
L 382.087218 343.379918 
L 381.751006 343.748571 
L 381.24812 344.29998 
L 380.409023 345.220043 
L 379.569925 346.140105 
L 378.730827 347.060167 
L 377.891729 347.98023 
L 377.052632 348.900292 
L 376.213534 349.820354 
L 375.559822 350.537143 
L 375.374436 350.740416 
L 374.535338 351.660479 
L 373.696241 352.580541 
L 372.857143 353.500603 
L 372.018045 354.420665 
L 371.178947 355.340728 
L 370.33985 356.26079 
L 369.500752 357.180852 
L 369.368637 357.325714 
L 368.661654 358.100914 
L 367.822556 359.020977 
L 366.983459 359.941039 
L 366.144361 360.861101 
L 365.305263 361.781163 
L 364.466165 362.701226 
L 363.627068 363.621288 
L 363.177453 364.114286 
L 362.78797 364.54135 
L 361.948872 365.461412 
L 361.109774 366.381475 
L 360.270677 367.301537 
L 359.431579 368.221599 
L 358.592481 369.141662 
L 357.753383 370.061724 
L 356.986269 370.902857 
L 356.914286 370.981786 
L 356.075188 371.901848 
L 355.23609 372.821911 
L 354.396992 373.741973 
L 353.557895 374.662035 
L 352.718797 375.582097 
L 351.879699 376.50216 
L 351.040602 377.422222 
L 350.795085 377.691429 
L 350.201504 378.342284 
L 349.362406 379.262346 
L 348.523308 380.182409 
L 347.684211 381.102471 
L 346.845113 382.022533 
L 346.006015 382.942595 
L 345.166917 383.862658 
L 344.6039 384.48 
" clip-path="url(#pb300f529b5)" style="fill: none; stroke: #0a3c0a; stroke-width: 1.5"/>
    <path d="M 388.8 362.559054 
L 387.960902 363.479116 
L 387.381627 364.114286 
L 387.121805 364.399178 
L 386.282707 365.319241 
L 385.443609 366.239303 
L 384.604511 367.159365 
L 383.765414 368.079428 
L 382.926316 368.99949 
L 382.087218 369.919552 
L 381.24812 370.839614 
L 381.190443 370.902857 
L 380.409023 371.759677 
L 379.569925 372.679739 
L 378.730827 373.599801 
L 377.891729 374.519863 
L 377.052632 375.439926 
L 376.213534 376.359988 
L 375.374436 377.28005 
L 374.999259 377.691429 
L 374.535338 378.200112 
L 373.696241 379.120175 
L 372.857143 380.040237 
L 372.018045 380.960299 
L 371.178947 381.880361 
L 370.33985 382.800424 
L 369.500752 383.720486 
L 368.808074 384.48 
" clip-path="url(#pb300f529b5)" style="fill: none; stroke: #073a07; stroke-width: 1.5"/>
    <path clip-path="url(#pb300f529b5)" style="fill: none; stroke: #063806; stroke-width: 1.5"/>
    <path clip-path="url(#pb300f529b5)" style="fill: none; stroke: #043604; stroke-width: 1.5"/>
    <path clip-path="url(#pb300f529b5)" style="fill: none; stroke: #033503; stroke-width: 1.5"/>
    <path clip-path="url(#pb300f529b5)" style="fill: none; stroke: #013401; stroke-width: 1.5"/>
    <path clip-path="url(#pb300f529b5)" style="fill: none; stroke: #013301; stroke-width: 1.5"/>
    <path clip-path="url(#pb300f529b5)" style="fill: none; stroke: #003200; stroke-width: 1.5"/>
    <path clip-path="url(#pb300f529b5)" style="fill: none; stroke: #003200; stroke-width: 1.5"/>
    <path clip-path="url(#pb300f529b5)" style="fill: none; stroke: #003200; stroke-width: 1.5"/>
   </g>
   <g id="matplotlib.axis_1"/>
   <g id="matplotlib.axis_2"/>
   <g id="line2d_1">
    <path d="M 136.067606 228.244955 
L 83.506243 326.519517 
L 83.506243 369.36 
L 193.285457 309.310681 
L 300.73174 213.402143 
L 359.293757 103.908091 
L 359.293757 66.96 
L 249.430065 127.055529 
L 136.067606 228.244955 
" clip-path="url(#pb300f529b5)" style="fill: none; stroke: #00ffff; stroke-width: 2; stroke-linecap: square"/>
   </g>
   <g id="line2d_2">
    <path d="M 359.293757 66.96 
L 83.506243 369.36 
L 359.293757 66.96 
" clip-path="url(#pb300f529b5)" style="fill: none; stroke-dasharray: 7.4,3.2; stroke-dashoffset: 0; stroke: #ff00ff; stroke-width: 2"/>
   </g>
   <g id="PathCollection_2">
    <defs>
     <path id="mf80769d2be" d="M 0 5 
C 1.326016 5 2.597899 4.473168 3.535534 3.535534 
C 4.473168 2.597899 5 1.326016 5 0 
C 5 -1.326016 4.473168 -2.597899 3.535534 -3.535534 
C 2.597899 -4.473168 1.326016 -5 0 -5 
C -1.326016 -5 -2.597899 -4.473168 -3.535534 -3.535534 
C -4.473168 -2.597899 -5 -1.326016 -5 0 
C -5 1.326016 -4.473168 2.597899 -3.535534 3.535534 
C -2.597899 4.473168 -1.326016 5 0 5 
z
" style="stroke: #000000"/>
    </defs>
    <g clip-path="url(#pb300f529b5)">
     <use xlink:href="#mf80769d2be" x="327.704078" y="270.312316" style="fill: #ffffff; stroke: #000000"/>
    </g>
   </g>
   <g id="Quiver_1">
    <path d="M 244.05037 193.311957 
L 320.146384 261.819011 
L 320.893354 259.112826 
L 327.704078 270.312316 
L 315.853204 264.711306 
L 318.466334 263.685171 
L 242.37032 195.178117 
L 244.05037 193.311957 
" clip-path="url(#pb300f529b5)" style="fill: #00ff00"/>
   </g>
  </g>
 </g>
 <defs>
  <clipPath id="pb300f529b5">
   <rect x="54" y="51.84" width="334.8" height="332.64"/>
  </clipPath>
 </defs>
</svg>
