<?xml version="1.0" encoding="utf-8" standalone="no"?>
<!DOCTYPE svg PUBLIC "-//W3C//DTD SVG 1.1//EN"
  "http://www.w3.org/Graphics/SVG/1.1/DTD/svg11.dtd">
<svg xmlns:xlink="http://www.w3.org/1999/xlink" width="432pt" height="432pt" viewBox="0 0 432 432" xmlns="http://www.w3.org/2000/svg" version="1.1">
 <metadata>
  <rdf:RDF xmlns:dc="http://purl.org/dc/elements/1.1/" xmlns:cc="http://creativecommons.org/ns#" xmlns:rdf="http://www.w3.org/1999/02/22-rdf-syntax-ns#">
   <cc:Work>
    <dc:type rdf:resource="http://purl.org/dc/dcmitype/StillImage"/>
    <dc:date>2025-03-14T22:37:42.296047</dc:date>
    <dc:format>image/svg+xml</dc:format>
    <dc:creator>
     <cc:Agent>
      <dc:title>Matplotlib v3.10.0, https://matplotlib.org/</dc:title>
     </cc:Agent>
    </dc:creator>
   </cc:Work>
  </rdf:RDF>
 </metadata>
 <defs>
  <style type="text/css">*{stroke-linejoin: round; stroke-linecap: butt}</style>
 </defs>
 <g id="figure_1">
  <g id="patch_1">
   <path d="M 0 432 
L 432 432 
L 432 0 
L 0 0 
z
" style="fill: #191919"/>
  </g>
  <g id="axes_1">
   <g id="patch_2">
    <path d="M 54 384.48 
L 388.8 384.48 
L 388.8 51.84 
L 54 51.84 
z
" style="fill: #191919"/>
   </g>
   <g id="PathCollection_1">
    <defs>
     <path id="m902ffd882e" d="M 0 3.535534 
C 0.937635 3.535534 1.836992 3.163008 2.5 2.5 
C 3.163008 1.836992 3.535534 0.937635 3.535534 0 
C 3.535534 -0.937635 3.163008 -1.836992 2.5 -2.5 
C 1.836992 -3.163008 0.937635 -3.535534 0 -3.535534 
C -0.937635 -3.535534 -1.836992 -3.163008 -2.5 -2.5 
C -3.163008 -1.836992 -3.535534 -0.937635 -3.535534 0 
C -3.535534 0.937635 -3.163008 1.836992 -2.5 2.5 
C -1.836992 3.163008 -0.937635 3.535534 0 3.535534 
z
" style="stroke: #ec2ed7"/>
    </defs>
    <g clip-path="url(#p79e9a02054)">
     <use xlink:href="#m902ffd882e" x="359.293757" y="66.96" style="fill: #ec2ed7; stroke: #ec2ed7"/>
     <use xlink:href="#m902ffd882e" x="359.293757" y="66.96" style="fill: #ec2ed7; stroke: #ec2ed7"/>
    </g>
   </g>
   <g id="QuadContourSet_1">
    <path clip-path="url(#p79e9a02054)" style="fill: none; stroke: #beffbe; stroke-width: 1.5"/>
    <path clip-path="url(#p79e9a02054)" style="fill: none; stroke: #b4f4b4; stroke-width: 1.5"/>
    <path clip-path="url(#p79e9a02054)" style="fill: none; stroke: #abeaab; stroke-width: 1.5"/>
    <path clip-path="url(#p79e9a02054)" style="fill: none; stroke: #a1e0a1; stroke-width: 1.5"/>
    <path clip-path="url(#p79e9a02054)" style="fill: none; stroke: #99d799; stroke-width: 1.5"/>
    <path clip-path="url(#p79e9a02054)" style="fill: none; stroke: #90cd90; stroke-width: 1.5"/>
    <path clip-path="url(#p79e9a02054)" style="fill: none; stroke: #88c488; stroke-width: 1.5"/>
    <path clip-path="url(#p79e9a02054)" style="fill: none; stroke: #7fbc7f; stroke-width: 1.5"/>
    <path clip-path="url(#p79e9a02054)" style="fill: none; stroke: #78b378; stroke-width: 1.5"/>
    <path clip-path="url(#p79e9a02054)" style="fill: none; stroke: #70ab70; stroke-width: 1.5"/>
    <path clip-path="url(#p79e9a02054)" style="fill: none; stroke: #69a369; stroke-width: 1.5"/>
    <path clip-path="url(#p79e9a02054)" style="fill: none; stroke: #619b61; stroke-width: 1.5"/>
    <path clip-path="url(#p79e9a02054)" style="fill: none; stroke: #5b945b; stroke-width: 1.5"/>
    <path d="M 388.8 63.30375 
L 387.960902 63.175078 
L 387.121805 63.046405 
L 386.282707 62.917732 
L 385.443609 62.789059 
L 384.604511 62.660386 
L 383.765414 62.531714 
L 382.926316 62.403041 
L 382.087218 62.274368 
L 381.24812 62.145695 
L 380.409023 62.017023 
L 379.569925 61.88835 
L 378.730827 61.759677 
L 377.891729 61.631004 
L 377.052632 61.502331 
L 376.213534 61.373659 
L 375.374436 61.244986 
L 374.535338 61.116313 
L 373.696241 60.98764 
L 372.857143 60.858968 
L 372.018045 60.730295 
L 371.178947 60.601622 
L 370.33985 60.472949 
L 369.500752 60.344276 
L 368.661654 60.215604 
L 367.822556 60.086931 
L 366.983459 59.958258 
L 366.144361 59.829585 
L 365.305263 59.700913 
L 364.466165 59.57224 
L 363.627068 59.443567 
L 362.78797 59.314894 
L 361.948872 59.186221 
L 361.109774 59.057549 
L 360.270677 58.928876 
L 359.431579 58.800203 
L 358.592481 58.67153 
L 358.312339 58.628571 
L 357.753383 58.542857 
L 356.914286 58.414185 
L 356.075188 58.285512 
L 355.23609 58.156839 
L 354.396992 58.028166 
L 353.557895 57.899494 
L 352.718797 57.770821 
L 351.879699 57.642148 
L 351.040602 57.513475 
L 350.201504 57.384802 
L 349.362406 57.25613 
L 348.523308 57.127457 
L 347.684211 56.998784 
L 346.845113 56.870111 
L 346.006015 56.741439 
L 345.166917 56.612766 
L 344.32782 56.484093 
L 343.488722 56.35542 
L 342.649624 56.226747 
L 341.810526 56.098075 
L 340.971429 55.969402 
L 340.132331 55.840729 
L 339.293233 55.712056 
L 338.454135 55.583384 
L 337.615038 55.454711 
L 336.77594 55.326038 
L 335.936842 55.197365 
L 335.097744 55.068692 
L 334.258647 54.94002 
L 333.419549 54.811347 
L 332.580451 54.682674 
L 331.741353 54.554001 
L 330.902256 54.425329 
L 330.063158 54.296656 
L 329.22406 54.167983 
L 328.384962 54.03931 
L 327.545865 53.910637 
L 326.706767 53.781965 
L 325.867669 53.653292 
L 325.028571 53.524619 
L 324.189474 53.395946 
L 323.350376 53.267274 
L 322.511278 53.138601 
L 321.67218 53.009928 
L 320.833083 52.881255 
L 319.993985 52.752582 
L 319.154887 52.62391 
L 318.315789 52.495237 
L 317.476692 52.366564 
L 316.637594 52.237891 
L 315.798496 52.109219 
L 314.959398 51.980546 
L 314.120301 51.851873 
L 314.042875 51.84 
" clip-path="url(#p79e9a02054)" style="fill: none; stroke: #548d54; stroke-width: 1.5"/>
    <path d="M 388.8 81.335202 
L 196.456619 51.84 
L 196.456619 51.84 
" clip-path="url(#p79e9a02054)" style="fill: none; stroke: #4e864e; stroke-width: 1.5"/>
    <path d="M 388.8 99.366653 
L 78.870364 51.84 
L 78.870364 51.84 
" clip-path="url(#p79e9a02054)" style="fill: none; stroke: #477f47; stroke-width: 1.5"/>
    <path d="M 388.8 117.398105 
L 54 66.057666 
L 54 66.057666 
" clip-path="url(#p79e9a02054)" style="fill: none; stroke: #427942; stroke-width: 1.5"/>
    <path d="M 388.8 135.429556 
L 54 84.089117 
L 54 84.089117 
" clip-path="url(#p79e9a02054)" style="fill: none; stroke: #3c733c; stroke-width: 1.5"/>
    <path d="M 388.8 153.461007 
L 54 102.120569 
L 54 102.120569 
" clip-path="url(#p79e9a02054)" style="fill: none; stroke: #376d37; stroke-width: 1.5"/>
    <path d="M 388.8 171.492459 
L 54 120.15202 
L 54 120.15202 
" clip-path="url(#p79e9a02054)" style="fill: none; stroke: #316731; stroke-width: 1.5"/>
    <path d="M 388.8 189.52391 
L 54 138.183472 
L 54 138.183472 
" clip-path="url(#p79e9a02054)" style="fill: none; stroke: #2d622d; stroke-width: 1.5"/>
    <path d="M 388.8 207.555362 
L 54 156.214923 
L 54 156.214923 
" clip-path="url(#p79e9a02054)" style="fill: none; stroke: #285d28; stroke-width: 1.5"/>
    <path d="M 388.8 225.586813 
L 54 174.246375 
L 54 174.246375 
" clip-path="url(#p79e9a02054)" style="fill: none; stroke: #245824; stroke-width: 1.5"/>
    <path d="M 388.8 243.618265 
L 54 192.277826 
L 54 192.277826 
" clip-path="url(#p79e9a02054)" style="fill: none; stroke: #1f541f; stroke-width: 1.5"/>
    <path d="M 388.8 261.649716 
L 54 210.309277 
L 54 210.309277 
" clip-path="url(#p79e9a02054)" style="fill: none; stroke: #1c501c; stroke-width: 1.5"/>
    <path d="M 388.8 279.681167 
L 54 228.340729 
L 54 228.340729 
" clip-path="url(#p79e9a02054)" style="fill: none; stroke: #184c18; stroke-width: 1.5"/>
    <path d="M 388.8 297.712619 
L 54 246.37218 
L 54 246.37218 
" clip-path="url(#p79e9a02054)" style="fill: none; stroke: #154815; stroke-width: 1.5"/>
    <path d="M 388.8 315.74407 
L 54 264.403632 
L 54 264.403632 
" clip-path="url(#p79e9a02054)" style="fill: none; stroke: #114511; stroke-width: 1.5"/>
    <path d="M 388.8 333.775522 
L 54 282.435083 
L 54 282.435083 
" clip-path="url(#p79e9a02054)" style="fill: none; stroke: #0f420f; stroke-width: 1.5"/>
    <path d="M 388.8 351.806973 
L 54 300.466535 
L 54 300.466535 
" clip-path="url(#p79e9a02054)" style="fill: none; stroke: #0c3f0c; stroke-width: 1.5"/>
    <path d="M 388.8 369.838425 
L 54 318.497986 
L 54 318.497986 
" clip-path="url(#p79e9a02054)" style="fill: none; stroke: #0a3c0a; stroke-width: 1.5"/>
    <path d="M 366.694024 384.48 
L 54 336.529437 
L 54 336.529437 
" clip-path="url(#p79e9a02054)" style="fill: none; stroke: #073a07; stroke-width: 1.5"/>
    <path d="M 249.107768 384.48 
L 54 354.560889 
L 54 354.560889 
" clip-path="url(#p79e9a02054)" style="fill: none; stroke: #063806; stroke-width: 1.5"/>
    <path d="M 131.521513 384.48 
L 131.196992 384.430236 
L 130.357895 384.301563 
L 129.518797 384.17289 
L 128.679699 384.044218 
L 127.840602 383.915545 
L 127.001504 383.786872 
L 126.162406 383.658199 
L 125.323308 383.529526 
L 124.484211 383.400854 
L 123.645113 383.272181 
L 122.806015 383.143508 
L 121.966917 383.014835 
L 121.12782 382.886163 
L 120.288722 382.75749 
L 119.449624 382.628817 
L 118.610526 382.500144 
L 117.771429 382.371471 
L 116.932331 382.242799 
L 116.093233 382.114126 
L 115.254135 381.985453 
L 114.415038 381.85678 
L 113.57594 381.728108 
L 112.736842 381.599435 
L 111.897744 381.470762 
L 111.058647 381.342089 
L 110.219549 381.213416 
L 109.380451 381.084744 
L 108.541353 380.956071 
L 107.702256 380.827398 
L 106.863158 380.698725 
L 106.02406 380.570053 
L 105.184962 380.44138 
L 104.345865 380.312707 
L 103.506767 380.184034 
L 102.667669 380.055361 
L 101.828571 379.926689 
L 100.989474 379.798016 
L 100.150376 379.669343 
L 99.311278 379.54067 
L 98.47218 379.411998 
L 97.633083 379.283325 
L 96.793985 379.154652 
L 95.954887 379.025979 
L 95.115789 378.897306 
L 94.276692 378.768634 
L 93.437594 378.639961 
L 92.598496 378.511288 
L 91.759398 378.382615 
L 90.920301 378.253943 
L 90.081203 378.12527 
L 89.242105 377.996597 
L 88.403008 377.867924 
L 87.56391 377.739251 
L 87.252049 377.691429 
L 86.724812 377.610579 
L 85.885714 377.481906 
L 85.046617 377.353233 
L 84.207519 377.22456 
L 83.368421 377.095888 
L 82.529323 376.967215 
L 81.690226 376.838542 
L 80.851128 376.709869 
L 80.01203 376.581196 
L 79.172932 376.452524 
L 78.333835 376.323851 
L 77.494737 376.195178 
L 76.655639 376.066505 
L 75.816541 375.937832 
L 74.977444 375.80916 
L 74.138346 375.680487 
L 73.299248 375.551814 
L 72.46015 375.423141 
L 71.621053 375.294469 
L 70.781955 375.165796 
L 69.942857 375.037123 
L 69.103759 374.90845 
L 68.264662 374.779777 
L 67.425564 374.651105 
L 66.586466 374.522432 
L 65.747368 374.393759 
L 64.908271 374.265086 
L 64.069173 374.136414 
L 63.230075 374.007741 
L 62.390977 373.879068 
L 61.55188 373.750395 
L 60.712782 373.621722 
L 59.873684 373.49305 
L 59.034586 373.364377 
L 58.195489 373.235704 
L 57.356391 373.107031 
L 56.517293 372.978359 
L 55.678195 372.849686 
L 54.839098 372.721013 
L 54 372.59234 
" clip-path="url(#p79e9a02054)" style="fill: none; stroke: #043604; stroke-width: 1.5"/>
    <path clip-path="url(#p79e9a02054)" style="fill: none; stroke: #033503; stroke-width: 1.5"/>
    <path clip-path="url(#p79e9a02054)" style="fill: none; stroke: #013401; stroke-width: 1.5"/>
    <path clip-path="url(#p79e9a02054)" style="fill: none; stroke: #013301; stroke-width: 1.5"/>
    <path clip-path="url(#p79e9a02054)" style="fill: none; stroke: #003200; stroke-width: 1.5"/>
    <path clip-path="url(#p79e9a02054)" style="fill: none; stroke: #003200; stroke-width: 1.5"/>
    <path clip-path="url(#p79e9a02054)" style="fill: none; stroke: #003200; stroke-width: 1.5"/>
   </g>
   <g id="matplotlib.axis_1"/>
   <g id="matplotlib.axis_2"/>
   <g id="line2d_1">
    <path d="M 136.067606 228.244955 
L 83.506243 326.519517 
L 83.506243 369.36 
L 220.189701 309.310681 
L 300.73174 213.402143 
L 359.293757 103.908091 
L 359.293757 66.96 
L 249.430065 127.055529 
L 136.067606 228.244955 
" clip-path="url(#p79e9a02054)" style="fill: none; stroke: #81d41a; stroke-width: 2; stroke-linecap: square"/>
   </g>
   <g id="line2d_2">
    <path d="M 359.293757 66.96 
L 359.293757 66.96 
" clip-path="url(#p79e9a02054)" style="fill: none; stroke-dasharray: 7.4,3.2; stroke-dashoffset: 0; stroke: #ec2ed7; stroke-width: 2"/>
   </g>
   <g id="PathCollection_2">
    <defs>
     <path id="md8dab43ff6" d="M 0 5 
C 1.326016 5 2.597899 4.473168 3.535534 3.535534 
C 4.473168 2.597899 5 1.326016 5 0 
C 5 -1.326016 4.473168 -2.597899 3.535534 -3.535534 
C 2.597899 -4.473168 1.326016 -5 0 -5 
C -1.326016 -5 -2.597899 -4.473168 -3.535534 -3.535534 
C -4.473168 -2.597899 -5 -1.326016 -5 0 
C -5 1.326016 -4.473168 2.597899 -3.535534 3.535534 
C -2.597899 4.473168 -1.326016 5 0 5 
z
" style="stroke: #ffffff"/>
    </defs>
    <g clip-path="url(#p79e9a02054)">
     <use xlink:href="#md8dab43ff6" x="327.704078" y="270.312316" style="fill: #ffffff; stroke: #ffffff"/>
    </g>
   </g>
   <g id="Quiver_1">
    <path d="M 360.534377 67.152724 
L 330.67921 259.33946 
L 333.353174 258.484287 
L 327.704078 270.312316 
L 325.909454 257.327946 
L 328.197971 258.954013 
L 358.053137 66.767276 
L 360.534377 67.152724 
" clip-path="url(#p79e9a02054)" style="fill: #ff0000"/>
   </g>
  </g>
 </g>
 <defs>
  <clipPath id="p79e9a02054">
   <rect x="54" y="51.84" width="334.8" height="332.64"/>
  </clipPath>
 </defs>
</svg>
