<?xml version="1.0" encoding="utf-8" standalone="no"?>
<!DOCTYPE svg PUBLIC "-//W3C//DTD SVG 1.1//EN"
  "http://www.w3.org/Graphics/SVG/1.1/DTD/svg11.dtd">
<svg xmlns:xlink="http://www.w3.org/1999/xlink" width="460.8pt" height="345.6pt" viewBox="0 0 460.8 345.6" xmlns="http://www.w3.org/2000/svg" version="1.1">
 <metadata>
  <rdf:RDF xmlns:dc="http://purl.org/dc/elements/1.1/" xmlns:cc="http://creativecommons.org/ns#" xmlns:rdf="http://www.w3.org/1999/02/22-rdf-syntax-ns#">
   <cc:Work>
    <dc:type rdf:resource="http://purl.org/dc/dcmitype/StillImage"/>
    <dc:date>2025-03-05T11:40:23.880362</dc:date>
    <dc:format>image/svg+xml</dc:format>
    <dc:creator>
     <cc:Agent>
      <dc:title>Matplotlib v3.10.0, https://matplotlib.org/</dc:title>
     </cc:Agent>
    </dc:creator>
   </cc:Work>
  </rdf:RDF>
 </metadata>
 <defs>
  <style type="text/css">*{stroke-linejoin: round; stroke-linecap: butt}</style>
 </defs>
 <g id="figure_1">
  <g id="patch_1">
   <path d="M 0 345.6 
L 460.8 345.6 
L 460.8 0 
L 0 0 
z
" style="fill: #191919"/>
  </g>
  <g id="axes_1">
   <g id="patch_2">
    <path d="M 57.6 307.584 
L 414.72 307.584 
L 414.72 41.472 
L 57.6 41.472 
z
" style="fill: #191919"/>
   </g>
   <g id="matplotlib.axis_1">
    <g id="xtick_1">
     <g id="line2d_1">
      <defs>
       <path id="m0ca414f545" d="M 0 0 
L 0 3.5 
" style="stroke: #ffffff; stroke-width: 0.8"/>
      </defs>
      <g>
       <use xlink:href="#m0ca414f545" x="57.6" y="307.584" style="fill: #ffffff; stroke: #ffffff; stroke-width: 0.8"/>
      </g>
     </g>
     <g id="text_1">
      <!-- −2.0 -->
      <g style="fill: #ffffff" transform="translate(45.458594 322.182437) scale(0.1 -0.1)">
       <defs>
        <path id="DejaVuSans-2212" d="M 678 2272 
L 4684 2272 
L 4684 1741 
L 678 1741 
L 678 2272 
z
" transform="scale(0.015625)"/>
        <path id="DejaVuSans-32" d="M 1228 531 
L 3431 531 
L 3431 0 
L 469 0 
L 469 531 
Q 828 903 1448 1529 
Q 2069 2156 2228 2338 
Q 2531 2678 2651 2914 
Q 2772 3150 2772 3378 
Q 2772 3750 2511 3984 
Q 2250 4219 1831 4219 
Q 1534 4219 1204 4116 
Q 875 4013 500 3803 
L 500 4441 
Q 881 4594 1212 4672 
Q 1544 4750 1819 4750 
Q 2544 4750 2975 4387 
Q 3406 4025 3406 3419 
Q 3406 3131 3298 2873 
Q 3191 2616 2906 2266 
Q 2828 2175 2409 1742 
Q 1991 1309 1228 531 
z
" transform="scale(0.015625)"/>
        <path id="DejaVuSans-2e" d="M 684 794 
L 1344 794 
L 1344 0 
L 684 0 
L 684 794 
z
" transform="scale(0.015625)"/>
        <path id="DejaVuSans-30" d="M 2034 4250 
Q 1547 4250 1301 3770 
Q 1056 3291 1056 2328 
Q 1056 1369 1301 889 
Q 1547 409 2034 409 
Q 2525 409 2770 889 
Q 3016 1369 3016 2328 
Q 3016 3291 2770 3770 
Q 2525 4250 2034 4250 
z
M 2034 4750 
Q 2819 4750 3233 4129 
Q 3647 3509 3647 2328 
Q 3647 1150 3233 529 
Q 2819 -91 2034 -91 
Q 1250 -91 836 529 
Q 422 1150 422 2328 
Q 422 3509 836 4129 
Q 1250 4750 2034 4750 
z
" transform="scale(0.015625)"/>
       </defs>
       <use xlink:href="#DejaVuSans-2212"/>
       <use xlink:href="#DejaVuSans-32" transform="translate(83.789062 0)"/>
       <use xlink:href="#DejaVuSans-2e" transform="translate(147.412109 0)"/>
       <use xlink:href="#DejaVuSans-30" transform="translate(179.199219 0)"/>
      </g>
     </g>
    </g>
    <g id="xtick_2">
     <g id="line2d_2">
      <g>
       <use xlink:href="#m0ca414f545" x="102.24" y="307.584" style="fill: #ffffff; stroke: #ffffff; stroke-width: 0.8"/>
      </g>
     </g>
     <g id="text_2">
      <!-- −1.5 -->
      <g style="fill: #ffffff" transform="translate(90.098594 322.182437) scale(0.1 -0.1)">
       <defs>
        <path id="DejaVuSans-31" d="M 794 531 
L 1825 531 
L 1825 4091 
L 703 3866 
L 703 4441 
L 1819 4666 
L 2450 4666 
L 2450 531 
L 3481 531 
L 3481 0 
L 794 0 
L 794 531 
z
" transform="scale(0.015625)"/>
        <path id="DejaVuSans-35" d="M 691 4666 
L 3169 4666 
L 3169 4134 
L 1269 4134 
L 1269 2991 
Q 1406 3038 1543 3061 
Q 1681 3084 1819 3084 
Q 2600 3084 3056 2656 
Q 3513 2228 3513 1497 
Q 3513 744 3044 326 
Q 2575 -91 1722 -91 
Q 1428 -91 1123 -41 
Q 819 9 494 109 
L 494 744 
Q 775 591 1075 516 
Q 1375 441 1709 441 
Q 2250 441 2565 725 
Q 2881 1009 2881 1497 
Q 2881 1984 2565 2268 
Q 2250 2553 1709 2553 
Q 1456 2553 1204 2497 
Q 953 2441 691 2322 
L 691 4666 
z
" transform="scale(0.015625)"/>
       </defs>
       <use xlink:href="#DejaVuSans-2212"/>
       <use xlink:href="#DejaVuSans-31" transform="translate(83.789062 0)"/>
       <use xlink:href="#DejaVuSans-2e" transform="translate(147.412109 0)"/>
       <use xlink:href="#DejaVuSans-35" transform="translate(179.199219 0)"/>
      </g>
     </g>
    </g>
    <g id="xtick_3">
     <g id="line2d_3">
      <g>
       <use xlink:href="#m0ca414f545" x="146.88" y="307.584" style="fill: #ffffff; stroke: #ffffff; stroke-width: 0.8"/>
      </g>
     </g>
     <g id="text_3">
      <!-- −1.0 -->
      <g style="fill: #ffffff" transform="translate(134.738594 322.182437) scale(0.1 -0.1)">
       <use xlink:href="#DejaVuSans-2212"/>
       <use xlink:href="#DejaVuSans-31" transform="translate(83.789062 0)"/>
       <use xlink:href="#DejaVuSans-2e" transform="translate(147.412109 0)"/>
       <use xlink:href="#DejaVuSans-30" transform="translate(179.199219 0)"/>
      </g>
     </g>
    </g>
    <g id="xtick_4">
     <g id="line2d_4">
      <g>
       <use xlink:href="#m0ca414f545" x="191.52" y="307.584" style="fill: #ffffff; stroke: #ffffff; stroke-width: 0.8"/>
      </g>
     </g>
     <g id="text_4">
      <!-- −0.5 -->
      <g style="fill: #ffffff" transform="translate(179.378594 322.182437) scale(0.1 -0.1)">
       <use xlink:href="#DejaVuSans-2212"/>
       <use xlink:href="#DejaVuSans-30" transform="translate(83.789062 0)"/>
       <use xlink:href="#DejaVuSans-2e" transform="translate(147.412109 0)"/>
       <use xlink:href="#DejaVuSans-35" transform="translate(179.199219 0)"/>
      </g>
     </g>
    </g>
    <g id="xtick_5">
     <g id="line2d_5">
      <g>
       <use xlink:href="#m0ca414f545" x="236.16" y="307.584" style="fill: #ffffff; stroke: #ffffff; stroke-width: 0.8"/>
      </g>
     </g>
     <g id="text_5">
      <!-- 0.0 -->
      <g style="fill: #ffffff" transform="translate(228.208438 322.182437) scale(0.1 -0.1)">
       <use xlink:href="#DejaVuSans-30"/>
       <use xlink:href="#DejaVuSans-2e" transform="translate(63.623047 0)"/>
       <use xlink:href="#DejaVuSans-30" transform="translate(95.410156 0)"/>
      </g>
     </g>
    </g>
    <g id="xtick_6">
     <g id="line2d_6">
      <g>
       <use xlink:href="#m0ca414f545" x="280.8" y="307.584" style="fill: #ffffff; stroke: #ffffff; stroke-width: 0.8"/>
      </g>
     </g>
     <g id="text_6">
      <!-- 0.5 -->
      <g style="fill: #ffffff" transform="translate(272.848437 322.182437) scale(0.1 -0.1)">
       <use xlink:href="#DejaVuSans-30"/>
       <use xlink:href="#DejaVuSans-2e" transform="translate(63.623047 0)"/>
       <use xlink:href="#DejaVuSans-35" transform="translate(95.410156 0)"/>
      </g>
     </g>
    </g>
    <g id="xtick_7">
     <g id="line2d_7">
      <g>
       <use xlink:href="#m0ca414f545" x="325.44" y="307.584" style="fill: #ffffff; stroke: #ffffff; stroke-width: 0.8"/>
      </g>
     </g>
     <g id="text_7">
      <!-- 1.0 -->
      <g style="fill: #ffffff" transform="translate(317.488437 322.182437) scale(0.1 -0.1)">
       <use xlink:href="#DejaVuSans-31"/>
       <use xlink:href="#DejaVuSans-2e" transform="translate(63.623047 0)"/>
       <use xlink:href="#DejaVuSans-30" transform="translate(95.410156 0)"/>
      </g>
     </g>
    </g>
    <g id="xtick_8">
     <g id="line2d_8">
      <g>
       <use xlink:href="#m0ca414f545" x="370.08" y="307.584" style="fill: #ffffff; stroke: #ffffff; stroke-width: 0.8"/>
      </g>
     </g>
     <g id="text_8">
      <!-- 1.5 -->
      <g style="fill: #ffffff" transform="translate(362.128438 322.182437) scale(0.1 -0.1)">
       <use xlink:href="#DejaVuSans-31"/>
       <use xlink:href="#DejaVuSans-2e" transform="translate(63.623047 0)"/>
       <use xlink:href="#DejaVuSans-35" transform="translate(95.410156 0)"/>
      </g>
     </g>
    </g>
    <g id="xtick_9">
     <g id="line2d_9">
      <g>
       <use xlink:href="#m0ca414f545" x="414.72" y="307.584" style="fill: #ffffff; stroke: #ffffff; stroke-width: 0.8"/>
      </g>
     </g>
     <g id="text_9">
      <!-- 2.0 -->
      <g style="fill: #ffffff" transform="translate(406.768438 322.182437) scale(0.1 -0.1)">
       <use xlink:href="#DejaVuSans-32"/>
       <use xlink:href="#DejaVuSans-2e" transform="translate(63.623047 0)"/>
       <use xlink:href="#DejaVuSans-30" transform="translate(95.410156 0)"/>
      </g>
     </g>
    </g>
    <g id="text_10">
     <!-- $x_1$ -->
     <g style="fill: #ffffff" transform="translate(227.6 340.419625) scale(0.16 -0.16)">
      <defs>
       <path id="DejaVuSans-Oblique-78" d="M 3841 3500 
L 2234 1784 
L 3219 0 
L 2559 0 
L 1819 1388 
L 531 0 
L -166 0 
L 1556 1844 
L 641 3500 
L 1300 3500 
L 1972 2234 
L 3144 3500 
L 3841 3500 
z
" transform="scale(0.015625)"/>
      </defs>
      <use xlink:href="#DejaVuSans-Oblique-78" transform="translate(0 0.3125)"/>
      <use xlink:href="#DejaVuSans-31" transform="translate(59.179688 -16.09375) scale(0.7)"/>
     </g>
    </g>
   </g>
   <g id="matplotlib.axis_2">
    <g id="ytick_1">
     <g id="line2d_10">
      <defs>
       <path id="m884e42e4b1" d="M 0 0 
L -3.5 0 
" style="stroke: #ffffff; stroke-width: 0.8"/>
      </defs>
      <g>
       <use xlink:href="#m884e42e4b1" x="57.6" y="307.584" style="fill: #ffffff; stroke: #ffffff; stroke-width: 0.8"/>
      </g>
     </g>
     <g id="text_11">
      <!-- −2.0 -->
      <g style="fill: #ffffff" transform="translate(26.317187 311.383219) scale(0.1 -0.1)">
       <use xlink:href="#DejaVuSans-2212"/>
       <use xlink:href="#DejaVuSans-32" transform="translate(83.789062 0)"/>
       <use xlink:href="#DejaVuSans-2e" transform="translate(147.412109 0)"/>
       <use xlink:href="#DejaVuSans-30" transform="translate(179.199219 0)"/>
      </g>
     </g>
    </g>
    <g id="ytick_2">
     <g id="line2d_11">
      <g>
       <use xlink:href="#m884e42e4b1" x="57.6" y="274.32" style="fill: #ffffff; stroke: #ffffff; stroke-width: 0.8"/>
      </g>
     </g>
     <g id="text_12">
      <!-- −1.5 -->
      <g style="fill: #ffffff" transform="translate(26.317187 278.119219) scale(0.1 -0.1)">
       <use xlink:href="#DejaVuSans-2212"/>
       <use xlink:href="#DejaVuSans-31" transform="translate(83.789062 0)"/>
       <use xlink:href="#DejaVuSans-2e" transform="translate(147.412109 0)"/>
       <use xlink:href="#DejaVuSans-35" transform="translate(179.199219 0)"/>
      </g>
     </g>
    </g>
    <g id="ytick_3">
     <g id="line2d_12">
      <g>
       <use xlink:href="#m884e42e4b1" x="57.6" y="241.056" style="fill: #ffffff; stroke: #ffffff; stroke-width: 0.8"/>
      </g>
     </g>
     <g id="text_13">
      <!-- −1.0 -->
      <g style="fill: #ffffff" transform="translate(26.317187 244.855219) scale(0.1 -0.1)">
       <use xlink:href="#DejaVuSans-2212"/>
       <use xlink:href="#DejaVuSans-31" transform="translate(83.789062 0)"/>
       <use xlink:href="#DejaVuSans-2e" transform="translate(147.412109 0)"/>
       <use xlink:href="#DejaVuSans-30" transform="translate(179.199219 0)"/>
      </g>
     </g>
    </g>
    <g id="ytick_4">
     <g id="line2d_13">
      <g>
       <use xlink:href="#m884e42e4b1" x="57.6" y="207.792" style="fill: #ffffff; stroke: #ffffff; stroke-width: 0.8"/>
      </g>
     </g>
     <g id="text_14">
      <!-- −0.5 -->
      <g style="fill: #ffffff" transform="translate(26.317187 211.591219) scale(0.1 -0.1)">
       <use xlink:href="#DejaVuSans-2212"/>
       <use xlink:href="#DejaVuSans-30" transform="translate(83.789062 0)"/>
       <use xlink:href="#DejaVuSans-2e" transform="translate(147.412109 0)"/>
       <use xlink:href="#DejaVuSans-35" transform="translate(179.199219 0)"/>
      </g>
     </g>
    </g>
    <g id="ytick_5">
     <g id="line2d_14">
      <g>
       <use xlink:href="#m884e42e4b1" x="57.6" y="174.528" style="fill: #ffffff; stroke: #ffffff; stroke-width: 0.8"/>
      </g>
     </g>
     <g id="text_15">
      <!-- 0.0 -->
      <g style="fill: #ffffff" transform="translate(34.696875 178.327219) scale(0.1 -0.1)">
       <use xlink:href="#DejaVuSans-30"/>
       <use xlink:href="#DejaVuSans-2e" transform="translate(63.623047 0)"/>
       <use xlink:href="#DejaVuSans-30" transform="translate(95.410156 0)"/>
      </g>
     </g>
    </g>
    <g id="ytick_6">
     <g id="line2d_15">
      <g>
       <use xlink:href="#m884e42e4b1" x="57.6" y="141.264" style="fill: #ffffff; stroke: #ffffff; stroke-width: 0.8"/>
      </g>
     </g>
     <g id="text_16">
      <!-- 0.5 -->
      <g style="fill: #ffffff" transform="translate(34.696875 145.063219) scale(0.1 -0.1)">
       <use xlink:href="#DejaVuSans-30"/>
       <use xlink:href="#DejaVuSans-2e" transform="translate(63.623047 0)"/>
       <use xlink:href="#DejaVuSans-35" transform="translate(95.410156 0)"/>
      </g>
     </g>
    </g>
    <g id="ytick_7">
     <g id="line2d_16">
      <g>
       <use xlink:href="#m884e42e4b1" x="57.6" y="108" style="fill: #ffffff; stroke: #ffffff; stroke-width: 0.8"/>
      </g>
     </g>
     <g id="text_17">
      <!-- 1.0 -->
      <g style="fill: #ffffff" transform="translate(34.696875 111.799219) scale(0.1 -0.1)">
       <use xlink:href="#DejaVuSans-31"/>
       <use xlink:href="#DejaVuSans-2e" transform="translate(63.623047 0)"/>
       <use xlink:href="#DejaVuSans-30" transform="translate(95.410156 0)"/>
      </g>
     </g>
    </g>
    <g id="ytick_8">
     <g id="line2d_17">
      <g>
       <use xlink:href="#m884e42e4b1" x="57.6" y="74.736" style="fill: #ffffff; stroke: #ffffff; stroke-width: 0.8"/>
      </g>
     </g>
     <g id="text_18">
      <!-- 1.5 -->
      <g style="fill: #ffffff" transform="translate(34.696875 78.535219) scale(0.1 -0.1)">
       <use xlink:href="#DejaVuSans-31"/>
       <use xlink:href="#DejaVuSans-2e" transform="translate(63.623047 0)"/>
       <use xlink:href="#DejaVuSans-35" transform="translate(95.410156 0)"/>
      </g>
     </g>
    </g>
    <g id="ytick_9">
     <g id="line2d_18">
      <g>
       <use xlink:href="#m884e42e4b1" x="57.6" y="41.472" style="fill: #ffffff; stroke: #ffffff; stroke-width: 0.8"/>
      </g>
     </g>
     <g id="text_19">
      <!-- 2.0 -->
      <g style="fill: #ffffff" transform="translate(34.696875 45.271219) scale(0.1 -0.1)">
       <use xlink:href="#DejaVuSans-32"/>
       <use xlink:href="#DejaVuSans-2e" transform="translate(63.623047 0)"/>
       <use xlink:href="#DejaVuSans-30" transform="translate(95.410156 0)"/>
      </g>
     </g>
    </g>
    <g id="text_20">
     <!-- $x_2$ -->
     <g style="fill: #ffffff" transform="translate(18.989687 183.088) rotate(-90) scale(0.16 -0.16)">
      <use xlink:href="#DejaVuSans-Oblique-78" transform="translate(0 0.3125)"/>
      <use xlink:href="#DejaVuSans-32" transform="translate(59.179688 -16.09375) scale(0.7)"/>
     </g>
    </g>
   </g>
   <g id="QuadContourSet_1">
    <path clip-path="url(#pa994cac3bd)" style="fill: none; stroke: #9bff9b; stroke-width: 1.5"/>
    <path d="M 218.431881 164.354 
L 218.634696 161.522526 
L 219.010575 158.854737 
L 219.644715 156.186947 
L 220.496842 153.919886 
L 221.41493 152.185263 
L 222.342637 150.851368 
L 223.533382 149.517474 
L 225.080452 148.183579 
L 226.762105 147.098805 
L 228.671825 146.182737 
L 230.648474 145.515789 
L 232.132331 145.167322 
L 234.449265 144.848842 
L 236.607519 144.782481 
L 238.397594 144.894694 
L 240.187669 145.167322 
L 241.977744 145.601447 
L 243.76782 146.230624 
L 245.557895 147.098805 
L 247.34797 148.264877 
L 248.786618 149.517474 
L 250.033083 150.923621 
L 250.92812 152.223299 
L 251.942041 154.186105 
L 252.718195 156.332374 
L 253.309425 158.854737 
L 253.685304 161.522526 
L 253.911053 164.857263 
L 254.006448 170.192842 
L 253.935767 183.531789 
L 253.685304 187.533474 
L 253.309425 190.201263 
L 252.675285 192.869053 
L 251.823158 195.136114 
L 250.90507 196.870737 
L 249.977363 198.204632 
L 248.786618 199.538526 
L 247.239548 200.872421 
L 245.557895 201.957195 
L 243.648175 202.873263 
L 241.671526 203.540211 
L 240.187669 203.888678 
L 237.870735 204.207158 
L 235.712481 204.273519 
L 233.922406 204.161306 
L 232.132331 203.888678 
L 230.342256 203.454553 
L 228.55218 202.825376 
L 226.762105 201.957195 
L 224.97203 200.791123 
L 223.533382 199.538526 
L 222.286917 198.132379 
L 221.39188 196.832701 
L 220.377959 194.869895 
L 219.601805 192.723626 
L 219.010575 190.201263 
L 218.867131 189.347975 
L 218.867131 189.347975 
" clip-path="url(#pa994cac3bd)" style="fill: none; stroke: #99fd99; stroke-width: 1.5"/>
    <path d="M 271.770754 185.991608 
L 271.526392 190.201263 
L 271.117574 193.536 
L 270.591079 196.203789 
L 269.810825 198.871579 
L 269.011511 200.872421 
L 267.933835 202.953979 
L 266.657293 204.874105 
L 265.248722 206.570076 
L 263.575844 208.208842 
L 261.668571 209.723871 
L 259.878496 210.907479 
L 257.193383 212.350264 
L 254.389736 213.544421 
L 251.823158 214.412073 
L 248.243008 215.340904 
L 244.662857 215.99102 
L 241.082707 216.399456 
L 237.502556 216.585222 
L 233.922406 216.558684 
L 230.342256 216.319842 
L 226.762105 215.851805 
L 223.181955 215.136261 
L 219.847126 214.211368 
L 217.811729 213.49938 
L 214.835737 212.210526 
L 212.390226 210.876632 
L 210.400574 209.542737 
L 208.744156 208.208842 
L 207.071278 206.570076 
L 205.662707 204.874105 
L 204.338073 202.873263 
L 203.308489 200.872421 
L 202.509175 198.871579 
L 201.701053 196.084011 
L 201.202426 193.536 
L 200.793608 190.201263 
L 200.556143 186.199579 
L 200.456555 180.197053 
L 200.50039 164.857263 
L 200.690944 160.188632 
L 201.010302 156.853895 
L 201.43955 154.186105 
L 202.085218 151.518316 
L 202.753162 149.517474 
L 203.623298 147.516632 
L 204.745434 145.515789 
L 206.177854 143.514947 
L 208.018656 141.514105 
L 209.756391 140.005759 
L 211.546466 138.715672 
L 213.547696 137.512421 
L 216.28315 136.178526 
L 218.706767 135.231273 
L 221.39188 134.382799 
L 224.076992 133.715096 
L 227.657143 133.06498 
L 231.237293 132.656544 
L 234.817444 132.470778 
L 238.397594 132.497316 
L 241.977744 132.736158 
L 245.557895 133.204195 
L 249.138045 133.919739 
L 252.472874 134.844632 
L 254.508271 135.55662 
L 257.484263 136.845474 
L 259.929774 138.179368 
L 261.919426 139.513263 
L 263.575844 140.847158 
L 265.248722 142.485924 
L 266.657293 144.181895 
L 267.981927 146.182737 
L 269.011511 148.183579 
L 269.810825 150.184421 
L 270.618947 152.971989 
L 271.117574 155.52 
L 271.526392 158.854737 
L 271.682068 161.06556 
L 271.682068 161.06556 
" clip-path="url(#pa994cac3bd)" style="fill: none; stroke: #93f793; stroke-width: 1.5"/>
    <path d="M 182.895667 157.734051 
L 183.248095 154.186105 
L 183.800301 150.845951 
L 184.455278 148.183579 
L 185.355511 145.515789 
L 186.485414 143.005362 
L 187.380451 141.402803 
L 188.644748 139.513263 
L 190.27426 137.512421 
L 192.269228 135.511579 
L 194.540752 133.641918 
L 196.659261 132.176842 
L 199.01594 130.785762 
L 201.701053 129.438289 
L 205.281203 127.948169 
L 208.861353 126.729499 
L 212.441504 125.734688 
L 216.432875 124.840421 
L 220.496842 124.135002 
L 225.579886 123.506526 
L 230.342256 123.151497 
L 235.712481 122.998875 
L 241.082707 123.107891 
L 246.452932 123.478543 
L 250.92812 124.00651 
L 255.403308 124.746892 
L 258.983459 125.512934 
L 263.458647 126.729499 
L 266.143759 127.619279 
L 269.72391 129.037311 
L 272.409023 130.312595 
L 275.094135 131.8243 
L 277.604632 133.510737 
L 279.569323 135.08578 
L 281.426194 136.845474 
L 283.169851 138.846316 
L 284.592563 140.847158 
L 285.834586 143.005362 
L 286.729624 144.933251 
L 287.666175 147.516632 
L 288.376128 150.184421 
L 288.881098 152.852211 
L 289.295606 156.186947 
L 289.566131 160.188632 
L 289.708002 166.191158 
L 289.717192 181.530947 
L 289.566131 188.867368 
L 289.295606 192.869053 
L 288.881098 196.203789 
L 288.376128 198.871579 
L 287.624662 201.66886 
L 286.694985 204.207158 
L 285.75445 206.208 
L 284.592563 208.208842 
L 283.149474 210.235109 
L 281.359398 212.278714 
L 279.290978 214.211368 
L 276.884211 216.060714 
L 274.577075 217.546105 
L 272.144182 218.88 
L 268.828872 220.40075 
L 265.248722 221.747266 
L 261.558131 222.881684 
L 257.193383 223.944496 
L 252.718195 224.780992 
L 248.243008 225.389617 
L 243.76782 225.795488 
L 238.397594 226.035322 
L 233.027368 226.013519 
L 227.657143 225.730078 
L 223.181955 225.2838 
L 218.706767 224.631562 
L 214.231579 223.747986 
L 210.651429 222.850972 
L 206.487662 221.547789 
L 203.043591 220.213895 
L 199.910977 218.743405 
L 197.225865 217.2317 
L 194.715368 215.545263 
L 192.750677 213.97022 
L 190.893806 212.210526 
L 189.150149 210.209684 
L 187.727437 208.208842 
L 186.485414 206.050638 
L 185.590376 204.122749 
L 184.653825 201.539368 
L 183.943872 198.871579 
L 183.438902 196.203789 
L 183.024394 192.869053 
L 182.753869 188.867368 
L 182.611998 182.864842 
L 182.610387 182.657802 
L 182.610387 182.657802 
" clip-path="url(#pa994cac3bd)" style="fill: none; stroke: #89ed89; stroke-width: 1.5"/>
    <path d="M 224.076992 233.601293 
L 218.706767 233.120948 
L 213.336541 232.448927 
L 207.896474 231.552 
L 202.59609 230.431293 
L 198.120902 229.268436 
L 193.645714 227.865217 
L 190.065564 226.531681 
L 186.485414 224.966414 
L 183.703876 223.548632 
L 180.371344 221.547789 
L 178.430075 220.187615 
L 175.999262 218.213053 
L 173.927697 216.212211 
L 172.164812 214.180373 
L 170.73257 212.210526 
L 169.479699 210.147629 
L 168.205423 207.541895 
L 167.195346 204.874105 
L 166.429188 202.206316 
L 165.744276 198.871579 
L 165.294323 195.536842 
L 164.97489 191.535158 
L 164.789904 186.199579 
L 164.737259 176.862316 
L 164.836466 160.855579 
L 165.109401 155.52 
L 165.540347 151.518316 
L 166.122561 148.183579 
L 166.794586 145.478168 
L 167.689624 142.78547 
L 168.818466 140.180211 
L 169.896232 138.179368 
L 171.269774 136.066508 
L 173.05985 133.80258 
L 174.849925 131.912786 
L 176.773269 130.176 
L 179.389407 128.175158 
L 182.52407 126.174316 
L 185.590376 124.526611 
L 188.275489 123.274984 
L 191.855639 121.831443 
L 195.435789 120.597276 
L 199.910977 119.295836 
L 204.59221 118.170947 
L 209.756391 117.172769 
L 215.126617 116.360178 
L 220.496842 115.754905 
L 226.762105 115.285271 
L 233.027368 115.05465 
L 239.292632 115.05465 
L 245.557895 115.285271 
L 251.823158 115.754905 
L 257.193383 116.360178 
L 262.563609 117.172769 
L 267.933835 118.216052 
L 273.30406 119.534821 
L 277.779248 120.886205 
L 282.254436 122.524319 
L 285.834586 124.089586 
L 288.616124 125.507368 
L 291.948656 127.508211 
L 293.889925 128.868385 
L 296.320738 130.842947 
L 298.392303 132.843789 
L 300.155188 134.875627 
L 301.58743 136.845474 
L 302.840301 138.908371 
L 304.114577 141.514105 
L 305.124654 144.181895 
L 305.890812 146.849684 
L 306.575724 150.184421 
L 307.025677 153.519158 
L 307.34511 157.520842 
L 307.487927 161.018342 
M 307.532787 186.03733 
L 307.34511 191.535158 
L 307.025677 195.536842 
L 306.575724 198.871579 
L 305.890812 202.206316 
L 305.124654 204.874105 
L 304.114577 207.541895 
L 302.840301 210.147629 
L 301.945263 211.659146 
L 300.644553 213.544421 
L 299.004866 215.545263 
L 297.05109 217.546105 
L 294.725958 219.546947 
L 291.948656 221.547789 
L 289.414737 223.099632 
L 286.729624 224.529389 
L 284.044511 225.781016 
L 280.464361 227.224557 
L 276.884211 228.458724 
L 272.409023 229.760164 
L 267.72779 230.885053 
L 262.563609 231.883231 
L 257.193383 232.695822 
L 251.823158 233.301095 
L 245.557895 233.770729 
L 239.292632 234.00135 
L 233.027368 234.00135 
L 226.762105 233.770729 
L 224.076992 233.601293 
L 224.076992 233.601293 
" clip-path="url(#pa994cac3bd)" style="fill: none; stroke: #7ce07c; stroke-width: 1.5"/>
    <path d="M 146.8829 169.065953 
L 146.996109 159.521684 
L 147.27173 154.186105 
L 147.684934 150.184421 
L 148.22845 146.849684 
L 149.014095 143.514947 
L 149.862662 140.847158 
L 150.951732 138.179368 
L 152.327565 135.511579 
L 153.582609 133.510737 
L 155.159098 131.386916 
L 156.949173 129.343109 
L 158.816909 127.508211 
L 161.424361 125.324226 
L 164.109474 123.405721 
L 167.206022 121.505684 
L 170.374737 119.82962 
L 173.981427 118.170947 
L 178.430075 116.425624 
L 182.905263 114.92752 
L 187.380451 113.645026 
L 191.855639 112.542227 
L 197.225865 111.418558 
L 203.491128 110.350422 
L 209.793748 109.500632 
L 216.916692 108.787173 
L 224.076992 108.308434 
L 231.237293 108.052057 
L 238.397594 108.012241 
L 245.557895 108.18533 
L 252.718195 108.581999 
L 259.878496 109.208772 
L 266.143759 109.963101 
L 272.409023 110.930945 
L 278.793267 112.168421 
L 284.40233 113.502316 
L 289.414737 114.92752 
L 293.889925 116.425624 
L 298.338573 118.170947 
L 301.945263 119.82962 
L 305.113978 121.505684 
L 308.363791 123.506526 
L 311.133969 125.507368 
L 313.580752 127.580393 
L 315.528979 129.509053 
L 317.261019 131.509895 
L 318.950977 133.831651 
L 320.365886 136.178526 
L 321.666173 138.846316 
L 322.689959 141.514105 
L 323.485841 144.181895 
L 324.218092 147.516632 
L 324.719867 150.851368 
L 325.097349 154.853053 
L 325.343057 160.188632 
L 325.435498 168.192 
L 325.374129 187.533474 
L 325.141683 193.536 
L 324.797797 197.537684 
L 324.321203 200.954135 
L 323.653146 204.207158 
L 322.908186 206.874947 
L 321.945197 209.542737 
L 320.720353 212.210526 
L 319.178806 214.878316 
L 317.779306 216.879158 
L 316.13698 218.88 
L 314.213304 220.880842 
L 311.790677 223.022967 
L 309.105564 225.042083 
L 306.256487 226.883368 
L 302.632998 228.884211 
L 299.26015 230.481738 
L 295.68 231.961537 
L 292.09985 233.25733 
L 287.624662 234.664006 
L 283.149474 235.871504 
L 277.779248 237.100823 
L 271.513985 238.278047 
L 265.248722 239.212869 
L 258.983459 239.938886 
L 251.823158 240.535553 
L 244.662857 240.904403 
L 237.502556 241.050395 
L 230.342256 240.984035 
L 223.181955 240.699692 
L 216.021654 240.192709 
L 208.861353 239.441904 
L 202.59609 238.566818 
L 196.330827 237.464347 
L 190.065564 236.093076 
L 184.695338 234.664006 
L 180.22015 233.25733 
L 175.744962 231.612033 
L 172.164812 230.079383 
L 168.411703 228.217263 
L 164.980999 226.216421 
L 162.061539 224.215579 
L 159.565671 222.214737 
L 157.432079 220.213895 
L 155.606864 218.213053 
L 154.048689 216.212211 
L 152.473985 213.792841 
L 151.26683 211.543579 
L 150.111277 208.875789 
L 149.206677 206.208 
L 148.510455 203.540211 
L 147.876731 200.205474 
L 147.385442 196.203789 
L 147.208471 193.989625 
L 147.208471 193.989625 
" clip-path="url(#pa994cac3bd)" style="fill: none; stroke: #6bcf6b; stroke-width: 1.5"/>
    <path d="M 218.706767 246.917025 
L 210.651429 246.348801 
L 202.685459 245.557895 
L 195.435789 244.614958 
L 188.275489 243.455359 
L 182.003354 242.223158 
L 175.744962 240.754452 
L 170.374737 239.271087 
L 165.044852 237.554526 
L 160.529323 235.85878 
L 156.711703 234.219789 
L 152.669661 232.218947 
L 149.188111 230.218105 
L 146.175933 228.217263 
L 143.523609 226.180921 
L 141.303528 224.215579 
L 139.048421 221.886632 
L 137.258346 219.713036 
L 135.738438 217.546105 
L 134.183134 214.878316 
L 132.924498 212.210526 
L 131.88812 209.452315 
L 130.993083 206.361279 
L 130.378761 203.540211 
L 129.853486 200.205474 
L 129.444767 196.203789 
L 129.159639 190.868211 
L 129.037046 183.531789 
L 129.04623 164.190316 
L 129.209487 156.853895 
L 129.558542 151.518316 
L 130.039951 147.516632 
L 130.6476 144.181895 
L 131.497217 140.847158 
L 132.392838 138.179368 
L 133.519491 135.511579 
L 134.920543 132.843789 
L 136.363308 130.577641 
L 137.644559 128.842105 
L 139.341739 126.841263 
L 141.303528 124.840421 
L 143.566055 122.839579 
L 146.208722 120.815636 
L 149.188111 118.837895 
L 152.669661 116.837053 
L 156.711703 114.836211 
L 160.529323 113.19722 
L 165.044852 111.501474 
L 170.374737 109.784913 
L 175.744962 108.301548 
L 181.115188 107.02778 
L 187.380451 105.764609 
L 193.645714 104.707601 
L 200.806015 103.722909 
L 207.966316 102.947455 
L 215.126617 102.364786 
L 223.181955 101.921195 
L 231.237293 101.690604 
L 239.292632 101.667545 
L 247.34797 101.852018 
L 255.403308 102.246259 
L 263.458647 102.863492 
L 271.513985 103.722909 
L 278.674286 104.707601 
L 284.939549 105.764609 
L 291.204812 107.02778 
L 297.470075 108.534078 
L 302.840301 110.053938 
L 307.315489 111.515697 
L 311.790677 113.19722 
L 315.608297 114.836211 
L 319.650339 116.837053 
L 323.131889 118.837895 
L 326.144067 120.838737 
L 328.796391 122.875079 
L 331.016472 124.840421 
L 333.271579 127.169368 
L 335.061654 129.342964 
L 336.581562 131.509895 
L 338.136866 134.177684 
L 339.395502 136.845474 
L 340.43188 139.603685 
L 341.326917 142.694721 
L 341.941239 145.515789 
L 342.466514 148.850526 
L 342.875233 152.852211 
L 343.11526 156.973007 
M 343.289199 182.080889 
L 343.160361 190.868211 
L 342.875233 196.203789 
L 342.466514 200.205474 
L 341.941239 203.540211 
L 341.195932 206.874947 
L 340.402312 209.542737 
L 339.395502 212.210526 
L 338.136866 214.878316 
L 336.581562 217.546105 
L 335.061654 219.713036 
L 333.271579 221.886632 
L 331.481504 223.764638 
L 329.544127 225.549474 
L 327.006316 227.586723 
L 324.184602 229.551158 
L 320.741053 231.622537 
L 317.024849 233.552842 
L 312.544634 235.553684 
L 308.210526 237.220721 
L 303.21334 238.888421 
L 297.470075 240.521922 
L 292.09985 241.828554 
L 285.834586 243.124386 
L 278.674286 244.348399 
L 271.513985 245.333091 
L 264.353684 246.108545 
L 257.193383 246.691214 
L 249.138045 247.134805 
L 241.082707 247.365396 
L 233.027368 247.388455 
L 224.97203 247.203982 
L 218.706767 246.917025 
L 218.706767 246.917025 
" clip-path="url(#pa994cac3bd)" style="fill: none; stroke: #56ba56; stroke-width: 1.5"/>
    <path d="M 111.476351 153.686365 
L 111.807321 149.517474 
L 112.326962 145.515789 
L 112.963304 142.181053 
L 113.83543 138.846316 
L 114.882406 135.810735 
L 115.86377 133.510737 
L 117.244463 130.842947 
L 118.923632 128.175158 
L 120.408084 126.174316 
L 122.112196 124.173474 
L 124.063766 122.172632 
L 126.517895 119.985899 
L 129.203008 117.906299 
L 131.88812 116.076047 
L 135.468271 113.939895 
L 139.048421 112.070905 
L 143.523609 110.032066 
L 148.230842 108.166737 
L 153.369023 106.396726 
L 158.739248 104.782076 
L 165.004511 103.155964 
L 171.269774 101.757178 
L 177.535038 100.553708 
L 184.695338 99.384416 
L 192.750677 98.301666 
L 200.806015 97.435709 
L 209.756391 96.705547 
L 218.706767 96.197986 
L 227.657143 95.904251 
L 237.502556 95.815395 
L 247.34797 95.970893 
L 256.298346 96.328502 
L 265.248722 96.900028 
L 274.199098 97.702476 
L 282.254436 98.637601 
L 289.414737 99.657708 
L 296.575038 100.877647 
L 303.735338 102.330502 
L 310.000602 103.823155 
L 316.059958 105.498947 
L 321.63609 107.291802 
L 326.111278 108.937217 
L 330.638102 110.834526 
L 335.061654 112.975579 
L 338.641805 114.969737 
L 341.59 116.837053 
L 344.368003 118.837895 
L 346.803366 120.838737 
L 349.382256 123.296487 
L 351.172331 125.274853 
L 352.925007 127.508211 
L 354.276187 129.509053 
L 355.800505 132.176842 
L 357.047242 134.844632 
L 358.057265 137.512421 
L 358.864751 140.180211 
L 359.636252 143.514947 
L 360.192794 146.849684 
L 360.638649 150.851368 
L 360.939079 155.52 
L 361.113962 162.189474 
L 361.151592 174.861474 
L 361.053614 190.201263 
L 360.791558 196.203789 
L 360.364859 200.872421 
L 359.763161 204.874105 
L 359.038963 208.208842 
L 358.057265 211.543579 
L 357.047242 214.211368 
L 355.800505 216.879158 
L 354.276187 219.546947 
L 352.925007 221.547789 
L 351.172331 223.781147 
L 349.382256 225.759513 
L 347.546232 227.550316 
L 344.907068 229.79522 
L 342.221955 231.784333 
L 339.523887 233.552842 
L 335.956692 235.60745 
L 332.087583 237.554526 
L 327.522451 239.555368 
L 322.531128 241.451972 
L 318.05594 242.945286 
L 311.790677 244.764048 
L 305.95088 246.224842 
L 299.26015 247.662328 
L 292.09985 248.966101 
L 283.71814 250.226526 
L 275.094135 251.259712 
L 267.038797 252.013549 
L 258.088421 252.630129 
L 249.138045 253.030582 
L 239.292632 253.230508 
L 229.447218 253.18608 
L 219.601805 252.897298 
L 210.651429 252.410531 
L 201.701053 251.703194 
L 193.645714 250.861833 
L 185.590376 249.802658 
L 178.430075 248.659989 
L 171.269774 247.298822 
L 165.004511 245.900036 
L 158.739248 244.273924 
L 154.087264 242.890105 
L 148.893835 241.130126 
L 144.418647 239.398387 
L 139.943459 237.41653 
L 136.262471 235.553684 
L 132.783158 233.544738 
L 129.763058 231.552 
L 127.104368 229.551158 
L 124.72782 227.507477 
L 122.734068 225.549474 
L 120.95064 223.548632 
L 118.923632 220.880842 
L 117.244463 218.213053 
L 115.777444 215.356344 
L 114.740064 212.877474 
L 113.83543 210.209684 
L 112.963304 206.874947 
L 112.326962 203.540211 
L 111.807321 199.538526 
L 111.447452 194.869895 
L 111.237053 188.867368 
L 111.168981 178.863158 
L 111.168913 178.701149 
L 111.168913 178.701149 
" clip-path="url(#pa994cac3bd)" style="fill: none; stroke: #3da13d; stroke-width: 1.5"/>
    <path d="M 216.021654 258.2584 
L 206.176241 257.735849 
L 196.330827 256.993493 
L 187.380451 256.110407 
L 178.430075 255.009715 
L 170.374737 253.809814 
L 163.214436 252.555588 
L 156.054135 251.098311 
L 149.505358 249.559579 
L 142.628571 247.687303 
L 137.258346 246.008426 
L 131.88812 244.098452 
L 127.255176 242.223158 
L 122.904971 240.222316 
L 119.076552 238.221474 
L 115.697135 236.220632 
L 112.197293 233.846316 
L 109.51218 231.758348 
L 107.722105 230.201525 
L 105.682308 228.217263 
L 103.868906 226.216421 
L 101.788506 223.548632 
L 100.046366 220.880842 
L 98.597233 218.213053 
L 97.402643 215.545263 
L 96.427147 212.877474 
L 95.469765 209.542737 
L 94.754572 206.208 
L 94.150727 202.206316 
L 93.712432 197.537684 
L 93.45119 192.202105 
L 93.328477 184.865684 
L 93.324678 164.857263 
L 93.473468 156.186947 
L 93.760955 150.851368 
L 94.234568 146.182737 
L 94.880511 142.181053 
L 95.640378 138.846316 
L 96.652175 135.511579 
L 97.876692 132.390169 
L 98.934165 130.176 
L 100.561805 127.335908 
L 102.35188 124.738487 
L 104.447853 122.172632 
L 106.827068 119.696937 
L 108.617143 118.057475 
L 111.302256 115.876334 
L 113.987368 113.953022 
L 116.777264 112.168421 
L 120.29916 110.167579 
L 124.72782 107.965628 
L 129.203008 106.016528 
L 134.025654 104.165053 
L 139.994612 102.164211 
L 146.208722 100.359574 
L 152.473985 98.771933 
L 159.634286 97.20184 
L 166.794586 95.849688 
L 174.849925 94.554158 
L 183.800301 93.358554 
L 192.750677 92.391758 
L 201.701053 91.629181 
L 211.546466 91.009264 
L 221.39188 90.603532 
L 232.132331 90.394535 
L 242.872782 90.424392 
L 253.613233 90.693102 
L 263.458647 91.157063 
L 273.30406 91.838013 
L 283.149474 92.751935 
L 292.09985 93.808422 
L 300.155188 94.960685 
L 308.210526 96.332607 
L 315.370827 97.763522 
L 322.531128 99.425765 
L 327.901353 100.852672 
L 334.411507 102.831158 
L 340.103469 104.832 
L 345.064824 106.832842 
L 349.415029 108.833684 
L 353.243448 110.834526 
L 356.622865 112.835368 
L 360.122707 115.209684 
L 362.80782 117.297652 
L 364.597895 118.854475 
L 366.637692 120.838737 
L 368.451094 122.839579 
L 370.531494 125.507368 
L 372.273634 128.175158 
L 373.722767 130.842947 
L 374.917357 133.510737 
L 375.892853 136.178526 
L 376.850235 139.513263 
L 377.565428 142.848 
L 378.169273 146.849684 
L 378.607568 151.518316 
L 378.873678 157.017071 
M 379.003196 182.035891 
L 378.888705 191.535158 
L 378.607568 197.537684 
L 378.169273 202.206316 
L 377.565428 206.208 
L 376.850235 209.542737 
L 375.892853 212.877474 
L 374.917357 215.545263 
L 373.548271 218.559548 
L 372.273634 220.880842 
L 370.531494 223.548632 
L 368.451094 226.216421 
L 366.38797 228.471585 
L 364.580011 230.218105 
L 361.912782 232.4845 
L 359.227669 234.486723 
L 356.542556 236.270598 
L 352.962406 238.375737 
L 349.382256 240.238218 
L 344.907068 242.290391 
L 340.103469 244.224 
L 334.411507 246.224842 
L 328.796391 247.946562 
L 322.531128 249.630235 
L 315.370827 251.292478 
L 308.210526 252.723393 
L 301.050226 253.953549 
L 292.994887 255.129583 
L 283.85992 256.229053 
L 274.199098 257.144896 
L 264.353684 257.846274 
L 254.508271 258.329724 
L 243.76782 258.618339 
L 233.027368 258.6681 
L 222.286917 258.479008 
L 216.021654 258.2584 
L 216.021654 258.2584 
" clip-path="url(#pa994cac3bd)" style="fill: none; stroke: #208420; stroke-width: 1.5"/>
    <path d="M 220.496842 263.571872 
L 209.756391 263.174299 
L 199.01594 262.566047 
L 188.275489 261.732483 
L 178.430075 260.752914 
L 168.584662 259.546584 
L 158.739248 258.080748 
L 149.788872 256.491323 
L 142.081443 254.895158 
L 134.573233 253.095285 
L 128.30797 251.377609 
L 122.042707 249.422003 
L 116.672481 247.516705 
L 111.302256 245.347177 
L 106.827068 243.291562 
L 103.246917 241.445469 
L 99.666767 239.373084 
L 96.858325 237.554526 
L 94.095816 235.553684 
L 91.611429 233.530326 
L 88.926316 231.031057 
L 86.916873 228.884211 
L 84.762688 226.216421 
L 82.941406 223.548632 
L 81.411333 220.880842 
L 79.97594 217.839071 
L 79.080314 215.545263 
L 78.029632 212.210526 
L 77.228026 208.875789 
L 76.533545 204.874105 
L 76.067544 200.872421 
L 75.736196 196.203789 
L 75.5325 190.201263 
L 75.469948 184.748663 
M 75.518382 159.638982 
L 75.736196 152.852211 
L 76.131878 147.516632 
L 76.631935 143.514947 
L 77.370601 139.513263 
L 78.218062 136.178526 
L 79.325336 132.843789 
L 80.43244 130.176 
L 81.768055 127.508211 
L 83.367754 124.840421 
L 85.267884 122.172632 
L 87.136241 119.925482 
L 89.452542 117.504 
L 91.637137 115.503158 
L 94.296541 113.350376 
L 96.981654 111.418287 
L 100.561805 109.141544 
L 104.141955 107.130652 
L 107.722105 105.332097 
L 112.197293 103.326491 
L 116.782882 101.497263 
L 122.453246 99.496421 
L 128.932969 97.495579 
L 135.468271 95.732517 
L 142.081443 94.160842 
L 149.788872 92.564677 
L 157.844211 91.12305 
L 166.794586 89.75725 
L 175.744962 88.609125 
L 185.590376 87.568806 
L 195.435789 86.740973 
L 206.176241 86.059405 
L 217.811729 85.564373 
L 228.55218 85.322784 
L 240.187669 85.28693 
L 251.823158 85.484128 
L 262.563609 85.881701 
L 273.30406 86.489953 
L 284.044511 87.323517 
L 293.889925 88.303086 
L 303.735338 89.509416 
L 313.580752 90.975252 
L 322.531128 92.564677 
L 330.238557 94.160842 
L 337.746767 95.960715 
L 344.01203 97.678391 
L 350.277293 99.633997 
L 355.647519 101.539295 
L 361.017744 103.708823 
L 365.492932 105.764438 
L 369.073083 107.610531 
L 372.653233 109.682916 
L 375.461675 111.501474 
L 378.224184 113.502316 
L 380.708571 115.525674 
L 383.393684 118.024943 
L 385.403127 120.171789 
L 387.557312 122.839579 
L 389.378594 125.507368 
L 390.908667 128.175158 
L 392.34406 131.216929 
L 393.239686 133.510737 
L 394.290368 136.845474 
L 395.091974 140.180211 
L 395.786455 144.181895 
L 396.252456 148.183579 
L 396.583804 152.852211 
L 396.7875 158.854737 
L 396.862578 168.858947 
L 396.7736 190.868211 
L 396.508165 197.537684 
L 396.118842 202.206316 
L 395.583119 206.208 
L 394.949399 209.542737 
L 394.101938 212.877474 
L 392.994664 216.212211 
L 391.88756 218.88 
L 390.551945 221.547789 
L 388.952246 224.215579 
L 387.052116 226.883368 
L 385.183759 229.130518 
L 382.867458 231.552 
L 380.682863 233.552842 
L 378.023459 235.705624 
L 375.338346 237.637713 
L 371.758195 239.914456 
L 368.178045 241.925348 
L 364.597895 243.723903 
L 360.122707 245.729509 
L 355.537118 247.558737 
L 349.866754 249.559579 
L 343.387031 251.560421 
L 336.851729 253.323483 
L 330.238557 254.895158 
L 322.531128 256.491323 
L 314.475789 257.93295 
L 305.525414 259.29875 
L 296.575038 260.446875 
L 286.729624 261.487194 
L 276.884211 262.315027 
L 266.143759 262.996595 
L 254.508271 263.491627 
L 243.76782 263.733216 
L 232.132331 263.76907 
L 220.496842 263.571872 
L 220.496842 263.571872 
" clip-path="url(#pa994cac3bd)" style="fill: none; stroke: #006400; stroke-width: 1.5"/>
   </g>
   <g id="patch_3">
    <path d="M 57.6 307.584 
L 57.6 41.472 
" style="fill: none; stroke: #000000; stroke-width: 0.8; stroke-linejoin: miter; stroke-linecap: square"/>
   </g>
   <g id="patch_4">
    <path d="M 414.72 307.584 
L 414.72 41.472 
" style="fill: none; stroke: #000000; stroke-width: 0.8; stroke-linejoin: miter; stroke-linecap: square"/>
   </g>
   <g id="patch_5">
    <path d="M 57.6 307.584 
L 414.72 307.584 
" style="fill: none; stroke: #000000; stroke-width: 0.8; stroke-linejoin: miter; stroke-linecap: square"/>
   </g>
   <g id="patch_6">
    <path d="M 57.6 41.472 
L 414.72 41.472 
" style="fill: none; stroke: #000000; stroke-width: 0.8; stroke-linejoin: miter; stroke-linecap: square"/>
   </g>
   <g id="text_21">
    <g clip-path="url(#pa994cac3bd)">
     <!-- 0.04 -->
     <g style="fill: #ffffff" transform="translate(216.022088 167.976351) rotate(-270.517091) scale(0.08 -0.08)">
      <defs>
       <path id="DejaVuSans-34" d="M 2419 4116 
L 825 1625 
L 2419 1625 
L 2419 4116 
z
M 2253 4666 
L 3047 4666 
L 3047 1625 
L 3713 1625 
L 3713 1100 
L 3047 1100 
L 3047 0 
L 2419 0 
L 2419 1100 
L 313 1100 
L 313 1709 
L 2253 4666 
z
" transform="scale(0.015625)"/>
      </defs>
      <use xlink:href="#DejaVuSans-30"/>
      <use xlink:href="#DejaVuSans-2e" transform="translate(63.623047 0)"/>
      <use xlink:href="#DejaVuSans-30" transform="translate(95.410156 0)"/>
      <use xlink:href="#DejaVuSans-34" transform="translate(159.033203 0)"/>
     </g>
    </g>
   </g>
   <g id="text_22">
    <g clip-path="url(#pa994cac3bd)">
     <!-- 0.16 -->
     <g style="fill: #ffffff" transform="translate(269.64564 164.625352) rotate(-270.104043) scale(0.08 -0.08)">
      <defs>
       <path id="DejaVuSans-36" d="M 2113 2584 
Q 1688 2584 1439 2293 
Q 1191 2003 1191 1497 
Q 1191 994 1439 701 
Q 1688 409 2113 409 
Q 2538 409 2786 701 
Q 3034 994 3034 1497 
Q 3034 2003 2786 2293 
Q 2538 2584 2113 2584 
z
M 3366 4563 
L 3366 3988 
Q 3128 4100 2886 4159 
Q 2644 4219 2406 4219 
Q 1781 4219 1451 3797 
Q 1122 3375 1075 2522 
Q 1259 2794 1537 2939 
Q 1816 3084 2150 3084 
Q 2853 3084 3261 2657 
Q 3669 2231 3669 1497 
Q 3669 778 3244 343 
Q 2819 -91 2113 -91 
Q 1303 -91 875 529 
Q 447 1150 447 2328 
Q 447 3434 972 4092 
Q 1497 4750 2381 4750 
Q 2619 4750 2861 4703 
Q 3103 4656 3366 4563 
z
" transform="scale(0.015625)"/>
      </defs>
      <use xlink:href="#DejaVuSans-30"/>
      <use xlink:href="#DejaVuSans-2e" transform="translate(63.623047 0)"/>
      <use xlink:href="#DejaVuSans-31" transform="translate(95.410156 0)"/>
      <use xlink:href="#DejaVuSans-36" transform="translate(159.033203 0)"/>
     </g>
    </g>
   </g>
   <g id="text_23">
    <g clip-path="url(#pa994cac3bd)">
     <!-- 0.36 -->
     <g style="fill: #ffffff" transform="translate(184.745367 179.113067) rotate(-89.632516) scale(0.08 -0.08)">
      <defs>
       <path id="DejaVuSans-33" d="M 2597 2516 
Q 3050 2419 3304 2112 
Q 3559 1806 3559 1356 
Q 3559 666 3084 287 
Q 2609 -91 1734 -91 
Q 1441 -91 1130 -33 
Q 819 25 488 141 
L 488 750 
Q 750 597 1062 519 
Q 1375 441 1716 441 
Q 2309 441 2620 675 
Q 2931 909 2931 1356 
Q 2931 1769 2642 2001 
Q 2353 2234 1838 2234 
L 1294 2234 
L 1294 2753 
L 1863 2753 
Q 2328 2753 2575 2939 
Q 2822 3125 2822 3475 
Q 2822 3834 2567 4026 
Q 2313 4219 1838 4219 
Q 1578 4219 1281 4162 
Q 984 4106 628 3988 
L 628 4550 
Q 988 4650 1302 4700 
Q 1616 4750 1894 4750 
Q 2613 4750 3031 4423 
Q 3450 4097 3450 3541 
Q 3450 3153 3228 2886 
Q 3006 2619 2597 2516 
z
" transform="scale(0.015625)"/>
      </defs>
      <use xlink:href="#DejaVuSans-30"/>
      <use xlink:href="#DejaVuSans-2e" transform="translate(63.623047 0)"/>
      <use xlink:href="#DejaVuSans-33" transform="translate(95.410156 0)"/>
      <use xlink:href="#DejaVuSans-36" transform="translate(159.033203 0)"/>
     </g>
    </g>
   </g>
   <g id="text_24">
    <g clip-path="url(#pa994cac3bd)">
     <!-- 0.64 -->
     <g style="fill: #ffffff" transform="translate(305.367152 164.623358) rotate(-270.05257) scale(0.08 -0.08)">
      <use xlink:href="#DejaVuSans-30"/>
      <use xlink:href="#DejaVuSans-2e" transform="translate(63.623047 0)"/>
      <use xlink:href="#DejaVuSans-36" transform="translate(95.410156 0)"/>
      <use xlink:href="#DejaVuSans-34" transform="translate(159.033203 0)"/>
     </g>
    </g>
   </g>
   <g id="text_25">
    <g clip-path="url(#pa994cac3bd)">
     <!-- 1.00 -->
     <g style="fill: #ffffff" transform="translate(144.606368 172.642965) rotate(-270.466488) scale(0.08 -0.08)">
      <use xlink:href="#DejaVuSans-31"/>
      <use xlink:href="#DejaVuSans-2e" transform="translate(63.623047 0)"/>
      <use xlink:href="#DejaVuSans-30" transform="translate(95.410156 0)"/>
      <use xlink:href="#DejaVuSans-30" transform="translate(159.033203 0)"/>
     </g>
    </g>
   </g>
   <g id="text_26">
    <g clip-path="url(#pa994cac3bd)">
     <!-- 1.44 -->
     <g style="fill: #ffffff" transform="translate(341.051113 160.628545) rotate(-270.229165) scale(0.08 -0.08)">
      <use xlink:href="#DejaVuSans-31"/>
      <use xlink:href="#DejaVuSans-2e" transform="translate(63.623047 0)"/>
      <use xlink:href="#DejaVuSans-34" transform="translate(95.410156 0)"/>
      <use xlink:href="#DejaVuSans-34" transform="translate(159.033203 0)"/>
     </g>
    </g>
   </g>
   <g id="text_27">
    <g clip-path="url(#pa994cac3bd)">
     <!-- 1.96 -->
     <g style="fill: #ffffff" transform="translate(113.311715 175.114954) rotate(-89.537035) scale(0.08 -0.08)">
      <defs>
       <path id="DejaVuSans-39" d="M 703 97 
L 703 672 
Q 941 559 1184 500 
Q 1428 441 1663 441 
Q 2288 441 2617 861 
Q 2947 1281 2994 2138 
Q 2813 1869 2534 1725 
Q 2256 1581 1919 1581 
Q 1219 1581 811 2004 
Q 403 2428 403 3163 
Q 403 3881 828 4315 
Q 1253 4750 1959 4750 
Q 2769 4750 3195 4129 
Q 3622 3509 3622 2328 
Q 3622 1225 3098 567 
Q 2575 -91 1691 -91 
Q 1453 -91 1209 -44 
Q 966 3 703 97 
z
M 1959 2075 
Q 2384 2075 2632 2365 
Q 2881 2656 2881 3163 
Q 2881 3666 2632 3958 
Q 2384 4250 1959 4250 
Q 1534 4250 1286 3958 
Q 1038 3666 1038 3163 
Q 1038 2656 1286 2365 
Q 1534 2075 1959 2075 
z
" transform="scale(0.015625)"/>
      </defs>
      <use xlink:href="#DejaVuSans-31"/>
      <use xlink:href="#DejaVuSans-2e" transform="translate(63.623047 0)"/>
      <use xlink:href="#DejaVuSans-39" transform="translate(95.410156 0)"/>
      <use xlink:href="#DejaVuSans-36" transform="translate(159.033203 0)"/>
     </g>
    </g>
   </g>
   <g id="text_28">
    <g clip-path="url(#pa994cac3bd)">
     <!-- 2.56 -->
     <g style="fill: #ffffff" transform="translate(376.772859 160.626255) rotate(-270.170543) scale(0.08 -0.08)">
      <use xlink:href="#DejaVuSans-32"/>
      <use xlink:href="#DejaVuSans-2e" transform="translate(63.623047 0)"/>
      <use xlink:href="#DejaVuSans-35" transform="translate(95.410156 0)"/>
      <use xlink:href="#DejaVuSans-36" transform="translate(159.033203 0)"/>
     </g>
    </g>
   </g>
   <g id="text_29">
    <g clip-path="url(#pa994cac3bd)">
     <!-- 3.24 -->
     <g style="fill: #ffffff" transform="translate(77.654626 181.102167) rotate(-89.941921) scale(0.08 -0.08)">
      <use xlink:href="#DejaVuSans-33"/>
      <use xlink:href="#DejaVuSans-2e" transform="translate(63.623047 0)"/>
      <use xlink:href="#DejaVuSans-32" transform="translate(95.410156 0)"/>
      <use xlink:href="#DejaVuSans-34" transform="translate(159.033203 0)"/>
     </g>
    </g>
   </g>
  </g>
 </g>
 <defs>
  <clipPath id="pa994cac3bd">
   <rect x="57.6" y="41.472" width="357.12" height="266.112"/>
  </clipPath>
 </defs>
</svg>
