<?xml version="1.0" encoding="UTF-8"?>
<!DOCTYPE svg PUBLIC "-//W3C//DTD SVG 1.1//EN" "http://www.w3.org/Graphics/SVG/1.1/DTD/svg11.dtd">
<svg version="1.2" width="254mm" height="254mm" viewBox="0 0 25400 25400" preserveAspectRatio="xMidYMid" fill-rule="evenodd" stroke-width="28.222" stroke-linejoin="round" xmlns="http://www.w3.org/2000/svg" xmlns:ooo="http://xml.openoffice.org/svg/export" xmlns:xlink="http://www.w3.org/1999/xlink" xmlns:presentation="http://sun.com/xmlns/staroffice/presentation" xmlns:smil="http://www.w3.org/2001/SMIL20/" xmlns:anim="urn:oasis:names:tc:opendocument:xmlns:animation:1.0" xml:space="preserve">
 <defs class="ClipPathGroup">
  <clipPath id="presentation_clip_path" clipPathUnits="userSpaceOnUse">
   <rect x="0" y="0" width="25400" height="25400"/>
  </clipPath>
  <clipPath id="presentation_clip_path_shrink" clipPathUnits="userSpaceOnUse">
   <rect x="25" y="25" width="25350" height="25350"/>
  </clipPath>
 </defs>
 <defs class="TextShapeIndex">
  <g ooo:slide="id1" ooo:id-list="id3 id4 id5 id6 id7 id8 id9 id10 id11 id12"/>
 </defs>
 <defs class="EmbeddedBulletChars">
  <g id="bullet-char-template-57356" transform="scale(0.00048828125,-0.00048828125)">
   <path d="M 580,1141 L 1163,571 580,0 -4,571 580,1141 Z"/>
  </g>
  <g id="bullet-char-template-57354" transform="scale(0.00048828125,-0.00048828125)">
   <path d="M 8,1128 L 1137,1128 1137,0 8,0 8,1128 Z"/>
  </g>
  <g id="bullet-char-template-10146" transform="scale(0.00048828125,-0.00048828125)">
   <path d="M 174,0 L 602,739 174,1481 1456,739 174,0 Z M 1358,739 L 309,1346 659,739 1358,739 Z"/>
  </g>
  <g id="bullet-char-template-10132" transform="scale(0.00048828125,-0.00048828125)">
   <path d="M 2015,739 L 1276,0 717,0 1260,543 174,543 174,936 1260,936 717,1481 1274,1481 2015,739 Z"/>
  </g>
  <g id="bullet-char-template-10007" transform="scale(0.00048828125,-0.00048828125)">
   <path d="M 0,-2 C -7,14 -16,27 -25,37 L 356,567 C 262,823 215,952 215,954 215,979 228,992 255,992 264,992 276,990 289,987 310,991 331,999 354,1012 L 381,999 492,748 772,1049 836,1024 860,1049 C 881,1039 901,1025 922,1006 886,937 835,863 770,784 769,783 710,716 594,584 L 774,223 C 774,196 753,168 711,139 L 727,119 C 717,90 699,76 672,76 641,76 570,178 457,381 L 164,-76 C 142,-110 111,-127 72,-127 30,-127 9,-110 8,-76 1,-67 -2,-52 -2,-32 -2,-23 -1,-13 0,-2 Z"/>
  </g>
  <g id="bullet-char-template-10004" transform="scale(0.00048828125,-0.00048828125)">
   <path d="M 285,-33 C 182,-33 111,30 74,156 52,228 41,333 41,471 41,549 55,616 82,672 116,743 169,778 240,778 293,778 328,747 346,684 L 369,508 C 377,444 397,411 428,410 L 1163,1116 C 1174,1127 1196,1133 1229,1133 1271,1133 1292,1118 1292,1087 L 1292,965 C 1292,929 1282,901 1262,881 L 442,47 C 390,-6 338,-33 285,-33 Z"/>
  </g>
  <g id="bullet-char-template-9679" transform="scale(0.00048828125,-0.00048828125)">
   <path d="M 813,0 C 632,0 489,54 383,161 276,268 223,411 223,592 223,773 276,916 383,1023 489,1130 632,1184 813,1184 992,1184 1136,1130 1245,1023 1353,916 1407,772 1407,592 1407,412 1353,268 1245,161 1136,54 992,0 813,0 Z"/>
  </g>
  <g id="bullet-char-template-8226" transform="scale(0.00048828125,-0.00048828125)">
   <path d="M 346,457 C 273,457 209,483 155,535 101,586 74,649 74,723 74,796 101,859 155,911 209,963 273,989 346,989 419,989 480,963 531,910 582,859 608,796 608,723 608,648 583,586 532,535 482,483 420,457 346,457 Z"/>
  </g>
  <g id="bullet-char-template-8211" transform="scale(0.00048828125,-0.00048828125)">
   <path d="M -4,459 L 1135,459 1135,606 -4,606 -4,459 Z"/>
  </g>
  <g id="bullet-char-template-61548" transform="scale(0.00048828125,-0.00048828125)">
   <path d="M 173,740 C 173,903 231,1043 346,1159 462,1274 601,1332 765,1332 928,1332 1067,1274 1183,1159 1299,1043 1357,903 1357,740 1357,577 1299,437 1183,322 1067,206 928,148 765,148 601,148 462,206 346,322 231,437 173,577 173,740 Z"/>
  </g>
 </defs>
 <g>
  <g id="id2" class="Master_Slide">
   <g id="bg-id2" class="Background"/>
   <g id="bo-id2" class="BackgroundObjects"/>
  </g>
 </g>
 <g class="SlideGroup">
  <g>
   <g id="container-id1">
    <g id="id1" class="Slide" clip-path="url(#presentation_clip_path)">
     <g class="Page">
      <g id="bg-id1" class="Background">
       <path fill="rgb(25,25,25)" stroke="none" d="M 12700,25399 L 0,25399 0,0 25399,0 25399,25399 12700,25399 Z"/>
      </g>
      <g class="com.sun.star.drawing.LineShape">
       <g id="id3">
        <rect class="BoundingBox" stroke="none" fill="none" x="3843" y="19896" width="16678" height="461"/>
        <path fill="none" stroke="rgb(129,212,26)" stroke-width="106" stroke-linejoin="round" d="M 3896,20126 L 19862,20126"/>
        <path fill="rgb(129,212,26)" stroke="none" d="M 20520,20126 L 19832,19897 19832,20356 20520,20126 Z"/>
       </g>
      </g>
      <g class="com.sun.star.drawing.LineShape">
       <g id="id4">
        <rect class="BoundingBox" stroke="none" fill="none" x="3582" y="6350" width="461" height="13830"/>
        <path fill="none" stroke="rgb(129,212,26)" stroke-width="106" stroke-linejoin="round" d="M 3844,20126 L 3812,7008"/>
        <path fill="rgb(129,212,26)" stroke="none" d="M 3810,6350 L 3582,7039 4041,7038 3810,6350 Z"/>
       </g>
      </g>
      <g class="com.sun.star.drawing.OpenBezierShape">
       <g id="id5">
        <rect class="BoundingBox" stroke="none" fill="none" x="5535" y="5153" width="13188" height="12608"/>
        <path fill="none" stroke="rgb(89,131,176)" stroke-width="106" stroke-linejoin="round" d="M 5588,13080 C 7367,16383 9652,18034 10795,17652 11938,17272 15240,14732 16256,13081 17272,11430 18669,5207 18669,5207"/>
       </g>
      </g>
      <g class="com.sun.star.drawing.LineShape">
       <g id="id6">
        <rect class="BoundingBox" stroke="none" fill="none" x="11643" y="2245" width="9481" height="21800"/>
        <path fill="none" stroke="rgb(94,185,30)" stroke-width="81" stroke-linejoin="round" d="M 11684,24003 L 11716,23929"/>
        <path fill="none" stroke="rgb(94,185,30)" stroke-width="81" stroke-linejoin="round" d="M 11748,23854 L 11781,23780"/>
        <path fill="none" stroke="rgb(94,185,30)" stroke-width="81" stroke-linejoin="round" d="M 11813,23706 L 11845,23631"/>
        <path fill="none" stroke="rgb(94,185,30)" stroke-width="81" stroke-linejoin="round" d="M 11877,23557 L 11909,23483"/>
        <path fill="none" stroke="rgb(94,185,30)" stroke-width="81" stroke-linejoin="round" d="M 11941,23408 L 11974,23334"/>
        <path fill="none" stroke="rgb(94,185,30)" stroke-width="81" stroke-linejoin="round" d="M 12006,23260 L 12038,23185"/>
        <path fill="none" stroke="rgb(94,185,30)" stroke-width="81" stroke-linejoin="round" d="M 12070,23111 L 12102,23037"/>
        <path fill="none" stroke="rgb(94,185,30)" stroke-width="81" stroke-linejoin="round" d="M 12134,22962 L 12167,22888"/>
        <path fill="none" stroke="rgb(94,185,30)" stroke-width="81" stroke-linejoin="round" d="M 12199,22814 L 12231,22739"/>
        <path fill="none" stroke="rgb(94,185,30)" stroke-width="81" stroke-linejoin="round" d="M 12263,22665 L 12295,22591"/>
        <path fill="none" stroke="rgb(94,185,30)" stroke-width="81" stroke-linejoin="round" d="M 12327,22516 L 12360,22442"/>
        <path fill="none" stroke="rgb(94,185,30)" stroke-width="81" stroke-linejoin="round" d="M 12392,22368 L 12424,22293"/>
        <path fill="none" stroke="rgb(94,185,30)" stroke-width="81" stroke-linejoin="round" d="M 12456,22219 L 12488,22145"/>
        <path fill="none" stroke="rgb(94,185,30)" stroke-width="81" stroke-linejoin="round" d="M 12520,22070 L 12553,21996"/>
        <path fill="none" stroke="rgb(94,185,30)" stroke-width="81" stroke-linejoin="round" d="M 12585,21922 L 12617,21847"/>
        <path fill="none" stroke="rgb(94,185,30)" stroke-width="81" stroke-linejoin="round" d="M 12649,21773 L 12681,21699"/>
        <path fill="none" stroke="rgb(94,185,30)" stroke-width="81" stroke-linejoin="round" d="M 12713,21624 L 12746,21550"/>
        <path fill="none" stroke="rgb(94,185,30)" stroke-width="81" stroke-linejoin="round" d="M 12778,21476 L 12810,21401"/>
        <path fill="none" stroke="rgb(94,185,30)" stroke-width="81" stroke-linejoin="round" d="M 12842,21327 L 12874,21252"/>
        <path fill="none" stroke="rgb(94,185,30)" stroke-width="81" stroke-linejoin="round" d="M 12906,21178 L 12939,21104"/>
        <path fill="none" stroke="rgb(94,185,30)" stroke-width="81" stroke-linejoin="round" d="M 12971,21029 L 13003,20955"/>
        <path fill="none" stroke="rgb(94,185,30)" stroke-width="81" stroke-linejoin="round" d="M 13035,20881 L 13067,20806"/>
        <path fill="none" stroke="rgb(94,185,30)" stroke-width="81" stroke-linejoin="round" d="M 13099,20732 L 13132,20658"/>
        <path fill="none" stroke="rgb(94,185,30)" stroke-width="81" stroke-linejoin="round" d="M 13164,20583 L 13196,20509"/>
        <path fill="none" stroke="rgb(94,185,30)" stroke-width="81" stroke-linejoin="round" d="M 13228,20435 L 13260,20360"/>
        <path fill="none" stroke="rgb(94,185,30)" stroke-width="81" stroke-linejoin="round" d="M 13292,20286 L 13325,20212"/>
        <path fill="none" stroke="rgb(94,185,30)" stroke-width="81" stroke-linejoin="round" d="M 13357,20137 L 13389,20063"/>
        <path fill="none" stroke="rgb(94,185,30)" stroke-width="81" stroke-linejoin="round" d="M 13421,19989 L 13453,19914"/>
        <path fill="none" stroke="rgb(94,185,30)" stroke-width="81" stroke-linejoin="round" d="M 13485,19840 L 13518,19766"/>
        <path fill="none" stroke="rgb(94,185,30)" stroke-width="81" stroke-linejoin="round" d="M 13550,19691 L 13582,19617"/>
        <path fill="none" stroke="rgb(94,185,30)" stroke-width="81" stroke-linejoin="round" d="M 13614,19543 L 13646,19468"/>
        <path fill="none" stroke="rgb(94,185,30)" stroke-width="81" stroke-linejoin="round" d="M 13679,19394 L 13711,19320"/>
        <path fill="none" stroke="rgb(94,185,30)" stroke-width="81" stroke-linejoin="round" d="M 13743,19245 L 13775,19171"/>
        <path fill="none" stroke="rgb(94,185,30)" stroke-width="81" stroke-linejoin="round" d="M 13807,19097 L 13839,19022"/>
        <path fill="none" stroke="rgb(94,185,30)" stroke-width="81" stroke-linejoin="round" d="M 13872,18948 L 13904,18874"/>
        <path fill="none" stroke="rgb(94,185,30)" stroke-width="81" stroke-linejoin="round" d="M 13936,18799 L 13968,18725"/>
        <path fill="none" stroke="rgb(94,185,30)" stroke-width="81" stroke-linejoin="round" d="M 14000,18651 L 14032,18576"/>
        <path fill="none" stroke="rgb(94,185,30)" stroke-width="81" stroke-linejoin="round" d="M 14065,18502 L 14097,18428"/>
        <path fill="none" stroke="rgb(94,185,30)" stroke-width="81" stroke-linejoin="round" d="M 14129,18353 L 14161,18279"/>
        <path fill="none" stroke="rgb(94,185,30)" stroke-width="81" stroke-linejoin="round" d="M 14193,18205 L 14225,18130"/>
        <path fill="none" stroke="rgb(94,185,30)" stroke-width="81" stroke-linejoin="round" d="M 14258,18056 L 14290,17982"/>
        <path fill="none" stroke="rgb(94,185,30)" stroke-width="81" stroke-linejoin="round" d="M 14322,17907 L 14354,17833"/>
        <path fill="none" stroke="rgb(94,185,30)" stroke-width="81" stroke-linejoin="round" d="M 14386,17759 L 14418,17684"/>
        <path fill="none" stroke="rgb(94,185,30)" stroke-width="81" stroke-linejoin="round" d="M 14451,17610 L 14483,17536"/>
        <path fill="none" stroke="rgb(94,185,30)" stroke-width="81" stroke-linejoin="round" d="M 14515,17461 L 14547,17387"/>
        <path fill="none" stroke="rgb(94,185,30)" stroke-width="81" stroke-linejoin="round" d="M 14579,17313 L 14611,17238"/>
        <path fill="none" stroke="rgb(94,185,30)" stroke-width="81" stroke-linejoin="round" d="M 14644,17164 L 14676,17090"/>
        <path fill="none" stroke="rgb(94,185,30)" stroke-width="81" stroke-linejoin="round" d="M 14708,17015 L 14740,16941"/>
        <path fill="none" stroke="rgb(94,185,30)" stroke-width="81" stroke-linejoin="round" d="M 14772,16867 L 14804,16792"/>
        <path fill="none" stroke="rgb(94,185,30)" stroke-width="81" stroke-linejoin="round" d="M 14837,16718 L 14869,16644"/>
        <path fill="none" stroke="rgb(94,185,30)" stroke-width="81" stroke-linejoin="round" d="M 14901,16569 L 14933,16495"/>
        <path fill="none" stroke="rgb(94,185,30)" stroke-width="81" stroke-linejoin="round" d="M 14965,16421 L 14997,16346"/>
        <path fill="none" stroke="rgb(94,185,30)" stroke-width="81" stroke-linejoin="round" d="M 15030,16272 L 15062,16198"/>
        <path fill="none" stroke="rgb(94,185,30)" stroke-width="81" stroke-linejoin="round" d="M 15094,16123 L 15126,16049"/>
        <path fill="none" stroke="rgb(94,185,30)" stroke-width="81" stroke-linejoin="round" d="M 15158,15975 L 15190,15900"/>
        <path fill="none" stroke="rgb(94,185,30)" stroke-width="81" stroke-linejoin="round" d="M 15223,15826 L 15255,15751"/>
        <path fill="none" stroke="rgb(94,185,30)" stroke-width="81" stroke-linejoin="round" d="M 15287,15677 L 15319,15603"/>
        <path fill="none" stroke="rgb(94,185,30)" stroke-width="81" stroke-linejoin="round" d="M 15351,15528 L 15384,15454"/>
        <path fill="none" stroke="rgb(94,185,30)" stroke-width="81" stroke-linejoin="round" d="M 15416,15380 L 15448,15305"/>
        <path fill="none" stroke="rgb(94,185,30)" stroke-width="81" stroke-linejoin="round" d="M 15480,15231 L 15512,15157"/>
        <path fill="none" stroke="rgb(94,185,30)" stroke-width="81" stroke-linejoin="round" d="M 15544,15082 L 15577,15008"/>
        <path fill="none" stroke="rgb(94,185,30)" stroke-width="81" stroke-linejoin="round" d="M 15609,14934 L 15641,14859"/>
        <path fill="none" stroke="rgb(94,185,30)" stroke-width="81" stroke-linejoin="round" d="M 15673,14785 L 15705,14711"/>
        <path fill="none" stroke="rgb(94,185,30)" stroke-width="81" stroke-linejoin="round" d="M 15737,14636 L 15770,14562"/>
        <path fill="none" stroke="rgb(94,185,30)" stroke-width="81" stroke-linejoin="round" d="M 15802,14488 L 15834,14413"/>
        <path fill="none" stroke="rgb(94,185,30)" stroke-width="81" stroke-linejoin="round" d="M 15866,14339 L 15898,14265"/>
        <path fill="none" stroke="rgb(94,185,30)" stroke-width="81" stroke-linejoin="round" d="M 15930,14190 L 15963,14116"/>
        <path fill="none" stroke="rgb(94,185,30)" stroke-width="81" stroke-linejoin="round" d="M 15995,14042 L 16027,13967"/>
        <path fill="none" stroke="rgb(94,185,30)" stroke-width="81" stroke-linejoin="round" d="M 16059,13893 L 16091,13819"/>
        <path fill="none" stroke="rgb(94,185,30)" stroke-width="81" stroke-linejoin="round" d="M 16123,13744 L 16156,13670"/>
        <path fill="none" stroke="rgb(94,185,30)" stroke-width="81" stroke-linejoin="round" d="M 16188,13596 L 16220,13521"/>
        <path fill="none" stroke="rgb(94,185,30)" stroke-width="81" stroke-linejoin="round" d="M 16252,13447 L 16284,13373"/>
        <path fill="none" stroke="rgb(94,185,30)" stroke-width="81" stroke-linejoin="round" d="M 16316,13298 L 16349,13224"/>
        <path fill="none" stroke="rgb(94,185,30)" stroke-width="81" stroke-linejoin="round" d="M 16381,13150 L 16413,13075"/>
        <path fill="none" stroke="rgb(94,185,30)" stroke-width="81" stroke-linejoin="round" d="M 16445,13001 L 16477,12927"/>
        <path fill="none" stroke="rgb(94,185,30)" stroke-width="81" stroke-linejoin="round" d="M 16509,12852 L 16542,12778"/>
        <path fill="none" stroke="rgb(94,185,30)" stroke-width="81" stroke-linejoin="round" d="M 16574,12704 L 16606,12629"/>
        <path fill="none" stroke="rgb(94,185,30)" stroke-width="81" stroke-linejoin="round" d="M 16638,12555 L 16670,12481"/>
        <path fill="none" stroke="rgb(94,185,30)" stroke-width="81" stroke-linejoin="round" d="M 16702,12406 L 16735,12332"/>
        <path fill="none" stroke="rgb(94,185,30)" stroke-width="81" stroke-linejoin="round" d="M 16767,12258 L 16799,12183"/>
        <path fill="none" stroke="rgb(94,185,30)" stroke-width="81" stroke-linejoin="round" d="M 16831,12109 L 16863,12035"/>
        <path fill="none" stroke="rgb(94,185,30)" stroke-width="81" stroke-linejoin="round" d="M 16895,11960 L 16928,11886"/>
        <path fill="none" stroke="rgb(94,185,30)" stroke-width="81" stroke-linejoin="round" d="M 16960,11812 L 16992,11737"/>
        <path fill="none" stroke="rgb(94,185,30)" stroke-width="81" stroke-linejoin="round" d="M 17024,11663 L 17056,11589"/>
        <path fill="none" stroke="rgb(94,185,30)" stroke-width="81" stroke-linejoin="round" d="M 17088,11514 L 17121,11440"/>
        <path fill="none" stroke="rgb(94,185,30)" stroke-width="81" stroke-linejoin="round" d="M 17153,11366 L 17185,11291"/>
        <path fill="none" stroke="rgb(94,185,30)" stroke-width="81" stroke-linejoin="round" d="M 17217,11217 L 17249,11143"/>
        <path fill="none" stroke="rgb(94,185,30)" stroke-width="81" stroke-linejoin="round" d="M 17282,11068 L 17314,10994"/>
        <path fill="none" stroke="rgb(94,185,30)" stroke-width="81" stroke-linejoin="round" d="M 17346,10920 L 17378,10845"/>
        <path fill="none" stroke="rgb(94,185,30)" stroke-width="81" stroke-linejoin="round" d="M 17410,10771 L 17442,10697"/>
        <path fill="none" stroke="rgb(94,185,30)" stroke-width="81" stroke-linejoin="round" d="M 17475,10622 L 17507,10548"/>
        <path fill="none" stroke="rgb(94,185,30)" stroke-width="81" stroke-linejoin="round" d="M 17539,10474 L 17571,10399"/>
        <path fill="none" stroke="rgb(94,185,30)" stroke-width="81" stroke-linejoin="round" d="M 17603,10325 L 17635,10250"/>
        <path fill="none" stroke="rgb(94,185,30)" stroke-width="81" stroke-linejoin="round" d="M 17668,10176 L 17700,10102"/>
        <path fill="none" stroke="rgb(94,185,30)" stroke-width="81" stroke-linejoin="round" d="M 17732,10027 L 17764,9953"/>
        <path fill="none" stroke="rgb(94,185,30)" stroke-width="81" stroke-linejoin="round" d="M 17796,9879 L 17828,9804"/>
        <path fill="none" stroke="rgb(94,185,30)" stroke-width="81" stroke-linejoin="round" d="M 17861,9730 L 17893,9656"/>
        <path fill="none" stroke="rgb(94,185,30)" stroke-width="81" stroke-linejoin="round" d="M 17925,9581 L 17957,9507"/>
        <path fill="none" stroke="rgb(94,185,30)" stroke-width="81" stroke-linejoin="round" d="M 17989,9433 L 18021,9358"/>
        <path fill="none" stroke="rgb(94,185,30)" stroke-width="81" stroke-linejoin="round" d="M 18054,9284 L 18086,9210"/>
        <path fill="none" stroke="rgb(94,185,30)" stroke-width="81" stroke-linejoin="round" d="M 18118,9135 L 18150,9061"/>
        <path fill="none" stroke="rgb(94,185,30)" stroke-width="81" stroke-linejoin="round" d="M 18182,8987 L 18214,8912"/>
        <path fill="none" stroke="rgb(94,185,30)" stroke-width="81" stroke-linejoin="round" d="M 18247,8838 L 18279,8764"/>
        <path fill="none" stroke="rgb(94,185,30)" stroke-width="81" stroke-linejoin="round" d="M 18311,8689 L 18343,8615"/>
        <path fill="none" stroke="rgb(94,185,30)" stroke-width="81" stroke-linejoin="round" d="M 18375,8541 L 18407,8466"/>
        <path fill="none" stroke="rgb(94,185,30)" stroke-width="81" stroke-linejoin="round" d="M 18440,8392 L 18472,8318"/>
        <path fill="none" stroke="rgb(94,185,30)" stroke-width="81" stroke-linejoin="round" d="M 18504,8243 L 18536,8169"/>
        <path fill="none" stroke="rgb(94,185,30)" stroke-width="81" stroke-linejoin="round" d="M 18568,8095 L 18600,8020"/>
        <path fill="none" stroke="rgb(94,185,30)" stroke-width="81" stroke-linejoin="round" d="M 18633,7946 L 18665,7872"/>
        <path fill="none" stroke="rgb(94,185,30)" stroke-width="81" stroke-linejoin="round" d="M 18697,7797 L 18729,7723"/>
        <path fill="none" stroke="rgb(94,185,30)" stroke-width="81" stroke-linejoin="round" d="M 18761,7649 L 18793,7574"/>
        <path fill="none" stroke="rgb(94,185,30)" stroke-width="81" stroke-linejoin="round" d="M 18826,7500 L 18858,7426"/>
        <path fill="none" stroke="rgb(94,185,30)" stroke-width="81" stroke-linejoin="round" d="M 18890,7351 L 18922,7277"/>
        <path fill="none" stroke="rgb(94,185,30)" stroke-width="81" stroke-linejoin="round" d="M 18954,7203 L 18986,7128"/>
        <path fill="none" stroke="rgb(94,185,30)" stroke-width="81" stroke-linejoin="round" d="M 19019,7054 L 19051,6980"/>
        <path fill="none" stroke="rgb(94,185,30)" stroke-width="81" stroke-linejoin="round" d="M 19083,6905 L 19115,6831"/>
        <path fill="none" stroke="rgb(94,185,30)" stroke-width="81" stroke-linejoin="round" d="M 19147,6757 L 19180,6682"/>
        <path fill="none" stroke="rgb(94,185,30)" stroke-width="81" stroke-linejoin="round" d="M 19212,6608 L 19244,6534"/>
        <path fill="none" stroke="rgb(94,185,30)" stroke-width="81" stroke-linejoin="round" d="M 19276,6459 L 19308,6385"/>
        <path fill="none" stroke="rgb(94,185,30)" stroke-width="81" stroke-linejoin="round" d="M 19340,6311 L 19373,6236"/>
        <path fill="none" stroke="rgb(94,185,30)" stroke-width="81" stroke-linejoin="round" d="M 19405,6162 L 19437,6088"/>
        <path fill="none" stroke="rgb(94,185,30)" stroke-width="81" stroke-linejoin="round" d="M 19469,6013 L 19501,5939"/>
        <path fill="none" stroke="rgb(94,185,30)" stroke-width="81" stroke-linejoin="round" d="M 19533,5865 L 19566,5790"/>
        <path fill="none" stroke="rgb(94,185,30)" stroke-width="81" stroke-linejoin="round" d="M 19598,5716 L 19630,5642"/>
        <path fill="none" stroke="rgb(94,185,30)" stroke-width="81" stroke-linejoin="round" d="M 19662,5567 L 19694,5493"/>
        <path fill="none" stroke="rgb(94,185,30)" stroke-width="81" stroke-linejoin="round" d="M 19726,5419 L 19759,5344"/>
        <path fill="none" stroke="rgb(94,185,30)" stroke-width="81" stroke-linejoin="round" d="M 19791,5270 L 19823,5196"/>
        <path fill="none" stroke="rgb(94,185,30)" stroke-width="81" stroke-linejoin="round" d="M 19855,5121 L 19887,5047"/>
        <path fill="none" stroke="rgb(94,185,30)" stroke-width="81" stroke-linejoin="round" d="M 19919,4973 L 19952,4898"/>
        <path fill="none" stroke="rgb(94,185,30)" stroke-width="81" stroke-linejoin="round" d="M 19984,4824 L 20016,4749"/>
        <path fill="none" stroke="rgb(94,185,30)" stroke-width="81" stroke-linejoin="round" d="M 20048,4675 L 20080,4601"/>
        <path fill="none" stroke="rgb(94,185,30)" stroke-width="81" stroke-linejoin="round" d="M 20112,4526 L 20145,4452"/>
        <path fill="none" stroke="rgb(94,185,30)" stroke-width="81" stroke-linejoin="round" d="M 20177,4378 L 20209,4303"/>
        <path fill="none" stroke="rgb(94,185,30)" stroke-width="81" stroke-linejoin="round" d="M 20241,4229 L 20273,4155"/>
        <path fill="none" stroke="rgb(94,185,30)" stroke-width="81" stroke-linejoin="round" d="M 20305,4080 L 20338,4006"/>
        <path fill="none" stroke="rgb(94,185,30)" stroke-width="81" stroke-linejoin="round" d="M 20370,3932 L 20402,3857"/>
        <path fill="none" stroke="rgb(94,185,30)" stroke-width="81" stroke-linejoin="round" d="M 20434,3783 L 20466,3709"/>
        <path fill="none" stroke="rgb(94,185,30)" stroke-width="81" stroke-linejoin="round" d="M 20498,3634 L 20531,3560"/>
        <path fill="none" stroke="rgb(94,185,30)" stroke-width="81" stroke-linejoin="round" d="M 20563,3486 L 20595,3411"/>
        <path fill="none" stroke="rgb(94,185,30)" stroke-width="81" stroke-linejoin="round" d="M 20627,3337 L 20659,3263"/>
        <path fill="none" stroke="rgb(94,185,30)" stroke-width="81" stroke-linejoin="round" d="M 20691,3188 L 20724,3114"/>
        <path fill="none" stroke="rgb(94,185,30)" stroke-width="81" stroke-linejoin="round" d="M 20756,3040 L 20788,2965"/>
        <path fill="none" stroke="rgb(94,185,30)" stroke-width="81" stroke-linejoin="round" d="M 20820,2891 L 20852,2817"/>
        <path fill="none" stroke="rgb(94,185,30)" stroke-width="81" stroke-linejoin="round" d="M 20885,2742 L 20917,2668"/>
        <path fill="none" stroke="rgb(94,185,30)" stroke-width="81" stroke-linejoin="round" d="M 20949,2594 L 20981,2519"/>
        <path fill="none" stroke="rgb(94,185,30)" stroke-width="81" stroke-linejoin="round" d="M 21013,2445 L 21045,2371"/>
        <path fill="none" stroke="rgb(94,185,30)" stroke-width="81" stroke-linejoin="round" d="M 21078,2296 L 21082,2286"/>
       </g>
      </g>
      <g class="com.sun.star.drawing.LineShape">
       <g id="id7">
        <rect class="BoundingBox" stroke="none" fill="none" x="11623" y="2246" width="9481" height="21800"/>
        <path fill="none" stroke="rgb(129,212,26)" stroke-width="81" stroke-linejoin="round" d="M 11664,24004 L 11696,23930"/>
        <path fill="none" stroke="rgb(129,212,26)" stroke-width="81" stroke-linejoin="round" d="M 11728,23855 L 11761,23781"/>
        <path fill="none" stroke="rgb(129,212,26)" stroke-width="81" stroke-linejoin="round" d="M 11793,23707 L 11825,23632"/>
        <path fill="none" stroke="rgb(129,212,26)" stroke-width="81" stroke-linejoin="round" d="M 11857,23558 L 11889,23484"/>
        <path fill="none" stroke="rgb(129,212,26)" stroke-width="81" stroke-linejoin="round" d="M 11921,23409 L 11954,23335"/>
        <path fill="none" stroke="rgb(129,212,26)" stroke-width="81" stroke-linejoin="round" d="M 11986,23261 L 12018,23186"/>
        <path fill="none" stroke="rgb(129,212,26)" stroke-width="81" stroke-linejoin="round" d="M 12050,23112 L 12082,23038"/>
        <path fill="none" stroke="rgb(129,212,26)" stroke-width="81" stroke-linejoin="round" d="M 12114,22963 L 12147,22889"/>
        <path fill="none" stroke="rgb(129,212,26)" stroke-width="81" stroke-linejoin="round" d="M 12179,22815 L 12211,22740"/>
        <path fill="none" stroke="rgb(129,212,26)" stroke-width="81" stroke-linejoin="round" d="M 12243,22666 L 12275,22592"/>
        <path fill="none" stroke="rgb(129,212,26)" stroke-width="81" stroke-linejoin="round" d="M 12307,22517 L 12340,22443"/>
        <path fill="none" stroke="rgb(129,212,26)" stroke-width="81" stroke-linejoin="round" d="M 12372,22369 L 12404,22294"/>
        <path fill="none" stroke="rgb(129,212,26)" stroke-width="81" stroke-linejoin="round" d="M 12436,22220 L 12468,22146"/>
        <path fill="none" stroke="rgb(129,212,26)" stroke-width="81" stroke-linejoin="round" d="M 12500,22071 L 12533,21997"/>
        <path fill="none" stroke="rgb(129,212,26)" stroke-width="81" stroke-linejoin="round" d="M 12565,21923 L 12597,21848"/>
        <path fill="none" stroke="rgb(129,212,26)" stroke-width="81" stroke-linejoin="round" d="M 12629,21774 L 12661,21700"/>
        <path fill="none" stroke="rgb(129,212,26)" stroke-width="81" stroke-linejoin="round" d="M 12693,21625 L 12726,21551"/>
        <path fill="none" stroke="rgb(129,212,26)" stroke-width="81" stroke-linejoin="round" d="M 12758,21477 L 12790,21402"/>
        <path fill="none" stroke="rgb(129,212,26)" stroke-width="81" stroke-linejoin="round" d="M 12822,21328 L 12854,21253"/>
        <path fill="none" stroke="rgb(129,212,26)" stroke-width="81" stroke-linejoin="round" d="M 12886,21179 L 12919,21105"/>
        <path fill="none" stroke="rgb(129,212,26)" stroke-width="81" stroke-linejoin="round" d="M 12951,21030 L 12983,20956"/>
        <path fill="none" stroke="rgb(129,212,26)" stroke-width="81" stroke-linejoin="round" d="M 13015,20882 L 13047,20807"/>
        <path fill="none" stroke="rgb(129,212,26)" stroke-width="81" stroke-linejoin="round" d="M 13079,20733 L 13112,20659"/>
        <path fill="none" stroke="rgb(129,212,26)" stroke-width="81" stroke-linejoin="round" d="M 13144,20584 L 13176,20510"/>
        <path fill="none" stroke="rgb(129,212,26)" stroke-width="81" stroke-linejoin="round" d="M 13208,20436 L 13240,20361"/>
        <path fill="none" stroke="rgb(129,212,26)" stroke-width="81" stroke-linejoin="round" d="M 13272,20287 L 13305,20213"/>
        <path fill="none" stroke="rgb(129,212,26)" stroke-width="81" stroke-linejoin="round" d="M 13337,20138 L 13369,20064"/>
        <path fill="none" stroke="rgb(129,212,26)" stroke-width="81" stroke-linejoin="round" d="M 13401,19990 L 13433,19915"/>
        <path fill="none" stroke="rgb(129,212,26)" stroke-width="81" stroke-linejoin="round" d="M 13465,19841 L 13498,19767"/>
        <path fill="none" stroke="rgb(129,212,26)" stroke-width="81" stroke-linejoin="round" d="M 13530,19692 L 13562,19618"/>
        <path fill="none" stroke="rgb(129,212,26)" stroke-width="81" stroke-linejoin="round" d="M 13594,19544 L 13626,19469"/>
        <path fill="none" stroke="rgb(129,212,26)" stroke-width="81" stroke-linejoin="round" d="M 13659,19395 L 13691,19321"/>
        <path fill="none" stroke="rgb(129,212,26)" stroke-width="81" stroke-linejoin="round" d="M 13723,19246 L 13755,19172"/>
        <path fill="none" stroke="rgb(129,212,26)" stroke-width="81" stroke-linejoin="round" d="M 13787,19098 L 13819,19023"/>
        <path fill="none" stroke="rgb(129,212,26)" stroke-width="81" stroke-linejoin="round" d="M 13852,18949 L 13884,18875"/>
        <path fill="none" stroke="rgb(129,212,26)" stroke-width="81" stroke-linejoin="round" d="M 13916,18800 L 13948,18726"/>
        <path fill="none" stroke="rgb(129,212,26)" stroke-width="81" stroke-linejoin="round" d="M 13980,18652 L 14012,18577"/>
        <path fill="none" stroke="rgb(129,212,26)" stroke-width="81" stroke-linejoin="round" d="M 14045,18503 L 14077,18429"/>
        <path fill="none" stroke="rgb(129,212,26)" stroke-width="81" stroke-linejoin="round" d="M 14109,18354 L 14141,18280"/>
        <path fill="none" stroke="rgb(129,212,26)" stroke-width="81" stroke-linejoin="round" d="M 14173,18206 L 14205,18131"/>
        <path fill="none" stroke="rgb(129,212,26)" stroke-width="81" stroke-linejoin="round" d="M 14238,18057 L 14270,17983"/>
        <path fill="none" stroke="rgb(129,212,26)" stroke-width="81" stroke-linejoin="round" d="M 14302,17908 L 14334,17834"/>
        <path fill="none" stroke="rgb(129,212,26)" stroke-width="81" stroke-linejoin="round" d="M 14366,17760 L 14398,17685"/>
        <path fill="none" stroke="rgb(129,212,26)" stroke-width="81" stroke-linejoin="round" d="M 14431,17611 L 14463,17537"/>
        <path fill="none" stroke="rgb(129,212,26)" stroke-width="81" stroke-linejoin="round" d="M 14495,17462 L 14527,17388"/>
        <path fill="none" stroke="rgb(129,212,26)" stroke-width="81" stroke-linejoin="round" d="M 14559,17314 L 14591,17239"/>
        <path fill="none" stroke="rgb(129,212,26)" stroke-width="81" stroke-linejoin="round" d="M 14624,17165 L 14656,17091"/>
        <path fill="none" stroke="rgb(129,212,26)" stroke-width="81" stroke-linejoin="round" d="M 14688,17016 L 14720,16942"/>
        <path fill="none" stroke="rgb(129,212,26)" stroke-width="81" stroke-linejoin="round" d="M 14752,16868 L 14784,16793"/>
        <path fill="none" stroke="rgb(129,212,26)" stroke-width="81" stroke-linejoin="round" d="M 14817,16719 L 14849,16645"/>
        <path fill="none" stroke="rgb(129,212,26)" stroke-width="81" stroke-linejoin="round" d="M 14881,16570 L 14913,16496"/>
        <path fill="none" stroke="rgb(129,212,26)" stroke-width="81" stroke-linejoin="round" d="M 14945,16422 L 14977,16347"/>
        <path fill="none" stroke="rgb(129,212,26)" stroke-width="81" stroke-linejoin="round" d="M 15010,16273 L 15042,16199"/>
        <path fill="none" stroke="rgb(129,212,26)" stroke-width="81" stroke-linejoin="round" d="M 15074,16124 L 15106,16050"/>
        <path fill="none" stroke="rgb(129,212,26)" stroke-width="81" stroke-linejoin="round" d="M 15138,15976 L 15170,15901"/>
        <path fill="none" stroke="rgb(129,212,26)" stroke-width="81" stroke-linejoin="round" d="M 15203,15827 L 15235,15752"/>
        <path fill="none" stroke="rgb(129,212,26)" stroke-width="81" stroke-linejoin="round" d="M 15267,15678 L 15299,15604"/>
        <path fill="none" stroke="rgb(129,212,26)" stroke-width="81" stroke-linejoin="round" d="M 15331,15529 L 15364,15455"/>
        <path fill="none" stroke="rgb(129,212,26)" stroke-width="81" stroke-linejoin="round" d="M 15396,15381 L 15428,15306"/>
        <path fill="none" stroke="rgb(129,212,26)" stroke-width="81" stroke-linejoin="round" d="M 15460,15232 L 15492,15158"/>
        <path fill="none" stroke="rgb(129,212,26)" stroke-width="81" stroke-linejoin="round" d="M 15524,15083 L 15557,15009"/>
        <path fill="none" stroke="rgb(129,212,26)" stroke-width="81" stroke-linejoin="round" d="M 15589,14935 L 15621,14860"/>
        <path fill="none" stroke="rgb(129,212,26)" stroke-width="81" stroke-linejoin="round" d="M 15653,14786 L 15685,14712"/>
        <path fill="none" stroke="rgb(129,212,26)" stroke-width="81" stroke-linejoin="round" d="M 15717,14637 L 15750,14563"/>
        <path fill="none" stroke="rgb(129,212,26)" stroke-width="81" stroke-linejoin="round" d="M 15782,14489 L 15814,14414"/>
        <path fill="none" stroke="rgb(129,212,26)" stroke-width="81" stroke-linejoin="round" d="M 15846,14340 L 15878,14266"/>
        <path fill="none" stroke="rgb(129,212,26)" stroke-width="81" stroke-linejoin="round" d="M 15910,14191 L 15943,14117"/>
        <path fill="none" stroke="rgb(129,212,26)" stroke-width="81" stroke-linejoin="round" d="M 15975,14043 L 16007,13968"/>
        <path fill="none" stroke="rgb(129,212,26)" stroke-width="81" stroke-linejoin="round" d="M 16039,13894 L 16071,13820"/>
        <path fill="none" stroke="rgb(129,212,26)" stroke-width="81" stroke-linejoin="round" d="M 16103,13745 L 16136,13671"/>
        <path fill="none" stroke="rgb(129,212,26)" stroke-width="81" stroke-linejoin="round" d="M 16168,13597 L 16200,13522"/>
        <path fill="none" stroke="rgb(129,212,26)" stroke-width="81" stroke-linejoin="round" d="M 16232,13448 L 16264,13374"/>
        <path fill="none" stroke="rgb(129,212,26)" stroke-width="81" stroke-linejoin="round" d="M 16296,13299 L 16329,13225"/>
        <path fill="none" stroke="rgb(129,212,26)" stroke-width="81" stroke-linejoin="round" d="M 16361,13151 L 16393,13076"/>
        <path fill="none" stroke="rgb(129,212,26)" stroke-width="81" stroke-linejoin="round" d="M 16425,13002 L 16457,12928"/>
        <path fill="none" stroke="rgb(129,212,26)" stroke-width="81" stroke-linejoin="round" d="M 16489,12853 L 16522,12779"/>
        <path fill="none" stroke="rgb(129,212,26)" stroke-width="81" stroke-linejoin="round" d="M 16554,12705 L 16586,12630"/>
        <path fill="none" stroke="rgb(129,212,26)" stroke-width="81" stroke-linejoin="round" d="M 16618,12556 L 16650,12482"/>
        <path fill="none" stroke="rgb(129,212,26)" stroke-width="81" stroke-linejoin="round" d="M 16682,12407 L 16715,12333"/>
        <path fill="none" stroke="rgb(129,212,26)" stroke-width="81" stroke-linejoin="round" d="M 16747,12259 L 16779,12184"/>
        <path fill="none" stroke="rgb(129,212,26)" stroke-width="81" stroke-linejoin="round" d="M 16811,12110 L 16843,12036"/>
        <path fill="none" stroke="rgb(129,212,26)" stroke-width="81" stroke-linejoin="round" d="M 16875,11961 L 16908,11887"/>
        <path fill="none" stroke="rgb(129,212,26)" stroke-width="81" stroke-linejoin="round" d="M 16940,11813 L 16972,11738"/>
        <path fill="none" stroke="rgb(129,212,26)" stroke-width="81" stroke-linejoin="round" d="M 17004,11664 L 17036,11590"/>
        <path fill="none" stroke="rgb(129,212,26)" stroke-width="81" stroke-linejoin="round" d="M 17068,11515 L 17101,11441"/>
        <path fill="none" stroke="rgb(129,212,26)" stroke-width="81" stroke-linejoin="round" d="M 17133,11367 L 17165,11292"/>
        <path fill="none" stroke="rgb(129,212,26)" stroke-width="81" stroke-linejoin="round" d="M 17197,11218 L 17229,11144"/>
        <path fill="none" stroke="rgb(129,212,26)" stroke-width="81" stroke-linejoin="round" d="M 17262,11069 L 17294,10995"/>
        <path fill="none" stroke="rgb(129,212,26)" stroke-width="81" stroke-linejoin="round" d="M 17326,10921 L 17358,10846"/>
        <path fill="none" stroke="rgb(129,212,26)" stroke-width="81" stroke-linejoin="round" d="M 17390,10772 L 17422,10698"/>
        <path fill="none" stroke="rgb(129,212,26)" stroke-width="81" stroke-linejoin="round" d="M 17455,10623 L 17487,10549"/>
        <path fill="none" stroke="rgb(129,212,26)" stroke-width="81" stroke-linejoin="round" d="M 17519,10475 L 17551,10400"/>
        <path fill="none" stroke="rgb(129,212,26)" stroke-width="81" stroke-linejoin="round" d="M 17583,10326 L 17615,10251"/>
        <path fill="none" stroke="rgb(129,212,26)" stroke-width="81" stroke-linejoin="round" d="M 17648,10177 L 17680,10103"/>
        <path fill="none" stroke="rgb(129,212,26)" stroke-width="81" stroke-linejoin="round" d="M 17712,10028 L 17744,9954"/>
        <path fill="none" stroke="rgb(129,212,26)" stroke-width="81" stroke-linejoin="round" d="M 17776,9880 L 17808,9805"/>
        <path fill="none" stroke="rgb(129,212,26)" stroke-width="81" stroke-linejoin="round" d="M 17841,9731 L 17873,9657"/>
        <path fill="none" stroke="rgb(129,212,26)" stroke-width="81" stroke-linejoin="round" d="M 17905,9582 L 17937,9508"/>
        <path fill="none" stroke="rgb(129,212,26)" stroke-width="81" stroke-linejoin="round" d="M 17969,9434 L 18001,9359"/>
        <path fill="none" stroke="rgb(129,212,26)" stroke-width="81" stroke-linejoin="round" d="M 18034,9285 L 18066,9211"/>
        <path fill="none" stroke="rgb(129,212,26)" stroke-width="81" stroke-linejoin="round" d="M 18098,9136 L 18130,9062"/>
        <path fill="none" stroke="rgb(129,212,26)" stroke-width="81" stroke-linejoin="round" d="M 18162,8988 L 18194,8913"/>
        <path fill="none" stroke="rgb(129,212,26)" stroke-width="81" stroke-linejoin="round" d="M 18227,8839 L 18259,8765"/>
        <path fill="none" stroke="rgb(129,212,26)" stroke-width="81" stroke-linejoin="round" d="M 18291,8690 L 18323,8616"/>
        <path fill="none" stroke="rgb(129,212,26)" stroke-width="81" stroke-linejoin="round" d="M 18355,8542 L 18387,8467"/>
        <path fill="none" stroke="rgb(129,212,26)" stroke-width="81" stroke-linejoin="round" d="M 18420,8393 L 18452,8319"/>
        <path fill="none" stroke="rgb(129,212,26)" stroke-width="81" stroke-linejoin="round" d="M 18484,8244 L 18516,8170"/>
        <path fill="none" stroke="rgb(129,212,26)" stroke-width="81" stroke-linejoin="round" d="M 18548,8096 L 18580,8021"/>
        <path fill="none" stroke="rgb(129,212,26)" stroke-width="81" stroke-linejoin="round" d="M 18613,7947 L 18645,7873"/>
        <path fill="none" stroke="rgb(129,212,26)" stroke-width="81" stroke-linejoin="round" d="M 18677,7798 L 18709,7724"/>
        <path fill="none" stroke="rgb(129,212,26)" stroke-width="81" stroke-linejoin="round" d="M 18741,7650 L 18773,7575"/>
        <path fill="none" stroke="rgb(129,212,26)" stroke-width="81" stroke-linejoin="round" d="M 18806,7501 L 18838,7427"/>
        <path fill="none" stroke="rgb(129,212,26)" stroke-width="81" stroke-linejoin="round" d="M 18870,7352 L 18902,7278"/>
        <path fill="none" stroke="rgb(129,212,26)" stroke-width="81" stroke-linejoin="round" d="M 18934,7204 L 18966,7129"/>
        <path fill="none" stroke="rgb(129,212,26)" stroke-width="81" stroke-linejoin="round" d="M 18999,7055 L 19031,6981"/>
        <path fill="none" stroke="rgb(129,212,26)" stroke-width="81" stroke-linejoin="round" d="M 19063,6906 L 19095,6832"/>
        <path fill="none" stroke="rgb(129,212,26)" stroke-width="81" stroke-linejoin="round" d="M 19127,6758 L 19160,6683"/>
        <path fill="none" stroke="rgb(129,212,26)" stroke-width="81" stroke-linejoin="round" d="M 19192,6609 L 19224,6535"/>
        <path fill="none" stroke="rgb(129,212,26)" stroke-width="81" stroke-linejoin="round" d="M 19256,6460 L 19288,6386"/>
        <path fill="none" stroke="rgb(129,212,26)" stroke-width="81" stroke-linejoin="round" d="M 19320,6312 L 19353,6237"/>
        <path fill="none" stroke="rgb(129,212,26)" stroke-width="81" stroke-linejoin="round" d="M 19385,6163 L 19417,6089"/>
        <path fill="none" stroke="rgb(129,212,26)" stroke-width="81" stroke-linejoin="round" d="M 19449,6014 L 19481,5940"/>
        <path fill="none" stroke="rgb(129,212,26)" stroke-width="81" stroke-linejoin="round" d="M 19513,5866 L 19546,5791"/>
        <path fill="none" stroke="rgb(129,212,26)" stroke-width="81" stroke-linejoin="round" d="M 19578,5717 L 19610,5643"/>
        <path fill="none" stroke="rgb(129,212,26)" stroke-width="81" stroke-linejoin="round" d="M 19642,5568 L 19674,5494"/>
        <path fill="none" stroke="rgb(129,212,26)" stroke-width="81" stroke-linejoin="round" d="M 19706,5420 L 19739,5345"/>
        <path fill="none" stroke="rgb(129,212,26)" stroke-width="81" stroke-linejoin="round" d="M 19771,5271 L 19803,5197"/>
        <path fill="none" stroke="rgb(129,212,26)" stroke-width="81" stroke-linejoin="round" d="M 19835,5122 L 19867,5048"/>
        <path fill="none" stroke="rgb(129,212,26)" stroke-width="81" stroke-linejoin="round" d="M 19899,4974 L 19932,4899"/>
        <path fill="none" stroke="rgb(129,212,26)" stroke-width="81" stroke-linejoin="round" d="M 19964,4825 L 19996,4750"/>
        <path fill="none" stroke="rgb(129,212,26)" stroke-width="81" stroke-linejoin="round" d="M 20028,4676 L 20060,4602"/>
        <path fill="none" stroke="rgb(129,212,26)" stroke-width="81" stroke-linejoin="round" d="M 20092,4527 L 20125,4453"/>
        <path fill="none" stroke="rgb(129,212,26)" stroke-width="81" stroke-linejoin="round" d="M 20157,4379 L 20189,4304"/>
        <path fill="none" stroke="rgb(129,212,26)" stroke-width="81" stroke-linejoin="round" d="M 20221,4230 L 20253,4156"/>
        <path fill="none" stroke="rgb(129,212,26)" stroke-width="81" stroke-linejoin="round" d="M 20285,4081 L 20318,4007"/>
        <path fill="none" stroke="rgb(129,212,26)" stroke-width="81" stroke-linejoin="round" d="M 20350,3933 L 20382,3858"/>
        <path fill="none" stroke="rgb(129,212,26)" stroke-width="81" stroke-linejoin="round" d="M 20414,3784 L 20446,3710"/>
        <path fill="none" stroke="rgb(129,212,26)" stroke-width="81" stroke-linejoin="round" d="M 20478,3635 L 20511,3561"/>
        <path fill="none" stroke="rgb(129,212,26)" stroke-width="81" stroke-linejoin="round" d="M 20543,3487 L 20575,3412"/>
        <path fill="none" stroke="rgb(129,212,26)" stroke-width="81" stroke-linejoin="round" d="M 20607,3338 L 20639,3264"/>
        <path fill="none" stroke="rgb(129,212,26)" stroke-width="81" stroke-linejoin="round" d="M 20671,3189 L 20704,3115"/>
        <path fill="none" stroke="rgb(129,212,26)" stroke-width="81" stroke-linejoin="round" d="M 20736,3041 L 20768,2966"/>
        <path fill="none" stroke="rgb(129,212,26)" stroke-width="81" stroke-linejoin="round" d="M 20800,2892 L 20832,2818"/>
        <path fill="none" stroke="rgb(129,212,26)" stroke-width="81" stroke-linejoin="round" d="M 20865,2743 L 20897,2669"/>
        <path fill="none" stroke="rgb(129,212,26)" stroke-width="81" stroke-linejoin="round" d="M 20929,2595 L 20961,2520"/>
        <path fill="none" stroke="rgb(129,212,26)" stroke-width="81" stroke-linejoin="round" d="M 20993,2446 L 21025,2372"/>
        <path fill="none" stroke="rgb(129,212,26)" stroke-width="81" stroke-linejoin="round" d="M 21058,2297 L 21062,2287"/>
       </g>
      </g>
      <g class="Graphic">
       <title>TexMaths
       </title>
       <desc>14§display§\textcolor{white}{v = f&apos;(u_o)(u-u_0)+f(u_0)}§svg§600§TRUE§
       </desc>
       <g id="id8">
        <rect class="BoundingBox" stroke="none" fill="none" x="6096" y="2944" width="13784" height="1248"/>
        <defs>
         <clipPath id="clip_path_1" clipPathUnits="userSpaceOnUse">
          <path d="M 6096,2944 L 19879,2944 19879,4191 6096,4191 6096,2944 Z"/>
         </clipPath>
        </defs>
        <g clip-path="url(#clip_path_1)">
         <path fill="rgb(255,255,255)" stroke="none" d="M 6650,3455 C 6650,3391 6619,3372 6598,3372 6569,3372 6540,3403 6540,3429 6540,3445 6546,3452 6559,3465 6584,3488 6599,3519 6599,3562 6599,3611 6527,3882 6389,3882 6328,3882 6301,3841 6301,3779 6301,3713 6333,3627 6370,3529 6378,3508 6384,3492 6384,3469 6384,3416 6346,3372 6287,3372 6175,3372 6130,3544 6130,3555 6130,3566 6142,3566 6145,3566 6156,3566 6158,3564 6164,3545 6198,3426 6249,3398 6283,3398 6293,3398 6313,3398 6313,3436 6313,3466 6301,3498 6293,3519 6240,3656 6225,3711 6225,3762 6225,3889 6329,3908 6384,3908 6583,3908 6650,3517 6650,3455 L 6650,3455 Z"/>
         <path fill="rgb(255,255,255)" stroke="none" d="M 7855,3508 C 7873,3508 7895,3508 7895,3485 7895,3461 7873,3461 7856,3461 L 7147,3461 C 7130,3461 7108,3461 7108,3485 7108,3508 7130,3508 7148,3508 L 7855,3508 7855,3508 Z M 7856,3738 C 7873,3738 7895,3738 7895,3714 7895,3691 7873,3691 7855,3691 L 7148,3691 C 7130,3691 7108,3691 7108,3714 7108,3738 7130,3738 7147,3738 L 7856,3738 7856,3738 Z"/>
         <path fill="rgb(255,255,255)" stroke="none" d="M 8726,3422 L 8828,3422 C 8852,3422 8864,3422 8864,3398 8864,3385 8852,3385 8832,3385 L 8733,3385 8758,3251 C 8763,3226 8779,3142 8787,3128 8797,3105 8817,3087 8842,3087 8847,3087 8878,3087 8900,3109 8848,3113 8836,3155 8836,3173 8836,3200 8858,3214 8880,3214 8911,3214 8945,3188 8945,3143 8945,3089 8891,3061 8842,3061 8802,3061 8727,3083 8692,3200 8685,3225 8681,3236 8653,3385 L 8571,3385 C 8548,3385 8535,3385 8535,3408 8535,3422 8546,3422 8569,3422 L 8647,3422 8558,3889 C 8537,4004 8517,4112 8455,4112 8450,4112 8421,4112 8398,4090 8453,4087 8463,4044 8463,4027 8463,3999 8442,3985 8419,3985 8389,3985 8354,4011 8354,4056 8354,4109 8406,4138 8455,4138 8520,4138 8567,4068 8589,4023 8627,3949 8654,3805 8655,3797 L 8726,3422 8726,3422 Z"/>
         <path fill="rgb(255,255,255)" stroke="none" d="M 9239,3016 C 9246,3002 9247,2995 9247,2990 9247,2964 9223,2944 9198,2944 9166,2944 9156,2970 9152,2983 L 9043,3341 C 9042,3343 9039,3354 9039,3355 9039,3365 9064,3373 9071,3373 9077,3373 9078,3371 9083,3359 L 9239,3016 9239,3016 Z"/>
         <path fill="rgb(255,255,255)" stroke="none" d="M 9723,4179 C 9723,4176 9723,4173 9703,4153 9555,4004 9517,3781 9517,3600 9517,3394 9562,3188 9708,3040 9723,3026 9723,3023 9723,3020 9723,3012 9718,3008 9711,3008 9699,3008 9593,3089 9523,3239 9462,3369 9448,3500 9448,3600 9448,3692 9461,3835 9526,3969 9597,4114 9699,4191 9711,4191 9718,4191 9723,4187 9723,4179 L 9723,4179 Z"/>
         <path fill="rgb(255,255,255)" stroke="none" d="M 10206,3829 C 10219,3878 10261,3908 10311,3908 10353,3908 10380,3881 10399,3843 10419,3801 10435,3728 10435,3726 10435,3714 10424,3714 10420,3714 10409,3714 10407,3719 10404,3736 10387,3802 10365,3882 10315,3882 10290,3882 10278,3867 10278,3828 10278,3802 10293,3746 10302,3705 L 10335,3577 C 10339,3559 10351,3514 10355,3497 10361,3469 10373,3424 10373,3417 10373,3396 10356,3385 10339,3385 10333,3385 10302,3387 10293,3427 10270,3513 10218,3720 10204,3783 10203,3788 10155,3882 10069,3882 10007,3882 9995,3829 9995,3785 9995,3719 10028,3626 10059,3544 10073,3508 10079,3492 10079,3469 10079,3416 10041,3372 9982,3372 9870,3372 9826,3544 9826,3555 9826,3566 9838,3566 9840,3566 9852,3566 9853,3564 9859,3545 9889,3442 9934,3398 9979,3398 9989,3398 10008,3400 10008,3437 10008,3466 9995,3500 9988,3518 9944,3635 9919,3708 9919,3766 9919,3879 10001,3908 10065,3908 10143,3908 10186,3855 10206,3829 L 10206,3829 Z"/>
         <path fill="rgb(255,255,255)" stroke="none" d="M 10910,3852 C 10910,3761 10841,3708 10760,3708 10637,3708 10521,3823 10521,3936 10521,4019 10581,4081 10672,4081 10790,4081 10910,3972 10910,3852 L 10910,3852 Z M 10673,4058 C 10631,4058 10590,4031 10590,3966 10590,3932 10605,3851 10638,3804 10673,3752 10722,3731 10759,3731 10804,3731 10842,3761 10842,3823 10842,3843 10832,3924 10795,3982 10764,4031 10714,4058 10673,4058 L 10673,4058 Z"/>
         <path fill="rgb(255,255,255)" stroke="none" d="M 11338,3600 C 11338,3507 11325,3364 11260,3230 11189,3085 11087,3008 11076,3008 11068,3008 11064,3013 11064,3020 11064,3023 11064,3026 11086,3047 11202,3164 11270,3352 11270,3600 11270,3802 11226,4010 11079,4159 11064,4173 11064,4176 11064,4179 11064,4186 11068,4191 11076,4191 11087,4191 11194,4111 11264,3960 11324,3830 11338,3699 11338,3600 L 11338,3600 Z"/>
         <path fill="rgb(255,255,255)" stroke="none" d="M 11849,4179 C 11849,4176 11849,4173 11829,4153 11681,4004 11643,3781 11643,3600 11643,3394 11688,3188 11833,3040 11849,3026 11849,3023 11849,3020 11849,3012 11844,3008 11837,3008 11825,3008 11718,3089 11649,3239 11588,3369 11574,3500 11574,3600 11574,3692 11587,3835 11652,3969 11723,4114 11825,4191 11837,4191 11844,4191 11849,4187 11849,4179 L 11849,4179 Z"/>
         <path fill="rgb(255,255,255)" stroke="none" d="M 12332,3829 C 12345,3878 12386,3908 12437,3908 12479,3908 12506,3881 12525,3843 12545,3801 12560,3728 12560,3726 12560,3714 12550,3714 12546,3714 12534,3714 12533,3719 12530,3736 12513,3802 12490,3882 12441,3882 12416,3882 12404,3867 12404,3828 12404,3802 12418,3746 12428,3705 L 12461,3577 C 12464,3559 12476,3514 12481,3497 12487,3469 12499,3424 12499,3417 12499,3396 12482,3385 12464,3385 12458,3385 12428,3387 12418,3427 12396,3513 12344,3720 12329,3783 12328,3788 12281,3882 12194,3882 12133,3882 12121,3829 12121,3785 12121,3719 12154,3626 12185,3544 12199,3508 12205,3492 12205,3469 12205,3416 12167,3372 12108,3372 11995,3372 11952,3544 11952,3555 11952,3566 11963,3566 11966,3566 11978,3566 11979,3564 11985,3545 12014,3442 12059,3398 12104,3398 12115,3398 12134,3400 12134,3437 12134,3466 12121,3500 12114,3518 12070,3635 12045,3708 12045,3766 12045,3879 12127,3908 12191,3908 12269,3908 12312,3855 12332,3829 L 12332,3829 Z"/>
         <path fill="rgb(255,255,255)" stroke="none" d="M 13639,3623 C 13659,3623 13680,3623 13680,3600 13680,3576 13659,3576 13639,3576 L 12998,3576 C 12978,3576 12957,3576 12957,3600 12957,3623 12978,3623 12998,3623 L 13639,3623 13639,3623 Z"/>
         <path fill="rgb(255,255,255)" stroke="none" d="M 14457,3829 C 14470,3878 14512,3908 14562,3908 14604,3908 14631,3881 14650,3843 14670,3801 14686,3728 14686,3726 14686,3714 14675,3714 14671,3714 14660,3714 14658,3719 14655,3736 14638,3802 14616,3882 14566,3882 14541,3882 14529,3867 14529,3828 14529,3802 14544,3746 14553,3705 L 14586,3577 C 14590,3559 14602,3514 14606,3497 14612,3469 14624,3424 14624,3417 14624,3396 14607,3385 14590,3385 14584,3385 14553,3387 14544,3427 14521,3513 14469,3720 14455,3783 14454,3788 14406,3882 14320,3882 14258,3882 14246,3829 14246,3785 14246,3719 14279,3626 14310,3544 14324,3508 14330,3492 14330,3469 14330,3416 14292,3372 14233,3372 14121,3372 14077,3544 14077,3555 14077,3566 14089,3566 14091,3566 14103,3566 14104,3564 14110,3545 14140,3442 14185,3398 14230,3398 14240,3398 14259,3400 14259,3437 14259,3466 14246,3500 14239,3518 14195,3635 14170,3708 14170,3766 14170,3879 14252,3908 14316,3908 14394,3908 14437,3855 14457,3829 L 14457,3829 Z"/>
         <path fill="rgb(255,255,255)" stroke="none" d="M 15148,3809 C 15148,3717 15137,3652 15099,3594 15074,3556 15022,3523 14956,3523 14764,3523 14764,3749 14764,3809 14764,3868 14764,4089 14956,4089 15148,4089 15148,3868 15148,3809 L 15148,3809 Z M 14956,4066 C 14918,4066 14867,4044 14851,3976 14839,3927 14839,3859 14839,3798 14839,3737 14839,3674 14851,3629 14869,3563 14922,3546 14956,3546 15001,3546 15044,3573 15059,3621 15072,3666 15073,3726 15073,3798 15073,3859 15073,3920 15062,3973 15045,4048 14989,4066 14956,4066 L 14956,4066 Z"/>
         <path fill="rgb(255,255,255)" stroke="none" d="M 15594,3600 C 15594,3507 15581,3364 15516,3230 15445,3085 15343,3008 15331,3008 15324,3008 15319,3013 15319,3020 15319,3023 15319,3026 15342,3047 15458,3164 15525,3352 15525,3600 15525,3802 15482,4010 15335,4159 15319,4173 15319,4176 15319,4179 15319,4186 15324,4191 15331,4191 15343,4191 15450,4111 15519,3960 15580,3830 15594,3699 15594,3600 L 15594,3600 Z"/>
         <path fill="rgb(255,255,255)" stroke="none" d="M 16460,3623 L 16790,3623 C 16807,3623 16829,3623 16829,3600 16829,3576 16807,3576 16790,3576 L 16460,3576 16460,3245 C 16460,3228 16460,3206 16436,3206 16412,3206 16412,3228 16412,3245 L 16412,3576 16081,3576 C 16064,3576 16042,3576 16042,3600 16042,3623 16064,3623 16081,3623 L 16412,3623 16412,3954 C 16412,3971 16412,3993 16436,3993 16460,3993 16460,3971 16460,3954 L 16460,3623 16460,3623 Z"/>
         <path fill="rgb(255,255,255)" stroke="none" d="M 17594,3422 L 17696,3422 C 17720,3422 17732,3422 17732,3398 17732,3385 17720,3385 17700,3385 L 17601,3385 17626,3251 C 17631,3226 17648,3142 17655,3128 17665,3105 17686,3087 17710,3087 17715,3087 17746,3087 17768,3109 17716,3113 17704,3155 17704,3173 17704,3200 17726,3214 17748,3214 17779,3214 17813,3188 17813,3143 17813,3089 17759,3061 17710,3061 17670,3061 17596,3083 17560,3200 17553,3225 17549,3236 17521,3385 L 17439,3385 C 17417,3385 17404,3385 17404,3408 17404,3422 17414,3422 17437,3422 L 17515,3422 17426,3889 C 17405,4004 17385,4112 17323,4112 17318,4112 17289,4112 17266,4090 17321,4087 17331,4044 17331,4027 17331,3999 17310,3985 17288,3985 17257,3985 17223,4011 17223,4056 17223,4109 17275,4138 17323,4138 17388,4138 17436,4068 17457,4023 17495,3949 17522,3805 17523,3797 L 17594,3422 17594,3422 Z"/>
         <path fill="rgb(255,255,255)" stroke="none" d="M 18259,4179 C 18259,4176 18259,4173 18239,4153 18091,4004 18053,3781 18053,3600 18053,3394 18098,3188 18244,3040 18259,3026 18259,3023 18259,3020 18259,3012 18254,3008 18247,3008 18235,3008 18129,3089 18059,3239 17998,3369 17984,3500 17984,3600 17984,3692 17997,3835 18062,3969 18133,4114 18235,4191 18247,4191 18254,4191 18259,4187 18259,4179 L 18259,4179 Z"/>
         <path fill="rgb(255,255,255)" stroke="none" d="M 18742,3829 C 18755,3878 18797,3908 18847,3908 18889,3908 18916,3881 18935,3843 18955,3801 18971,3728 18971,3726 18971,3714 18960,3714 18956,3714 18945,3714 18943,3719 18940,3736 18923,3802 18901,3882 18851,3882 18826,3882 18814,3867 18814,3828 18814,3802 18828,3746 18838,3705 L 18871,3577 C 18875,3559 18887,3514 18891,3497 18897,3469 18909,3424 18909,3417 18909,3396 18892,3385 18875,3385 18869,3385 18838,3387 18828,3427 18806,3513 18754,3720 18740,3783 18738,3788 18691,3882 18605,3882 18543,3882 18531,3829 18531,3785 18531,3719 18564,3626 18595,3544 18609,3508 18615,3492 18615,3469 18615,3416 18577,3372 18518,3372 18406,3372 18362,3544 18362,3555 18362,3566 18374,3566 18376,3566 18388,3566 18389,3564 18395,3545 18425,3442 18470,3398 18515,3398 18525,3398 18544,3400 18544,3437 18544,3466 18531,3500 18524,3518 18480,3635 18455,3708 18455,3766 18455,3879 18537,3908 18601,3908 18679,3908 18722,3855 18742,3829 L 18742,3829 Z"/>
         <path fill="rgb(255,255,255)" stroke="none" d="M 19433,3809 C 19433,3717 19422,3652 19384,3594 19359,3556 19307,3523 19241,3523 19049,3523 19049,3749 19049,3809 19049,3868 19049,4089 19241,4089 19433,4089 19433,3868 19433,3809 L 19433,3809 Z M 19241,4066 C 19203,4066 19152,4044 19136,3976 19124,3927 19124,3859 19124,3798 19124,3737 19124,3674 19136,3629 19154,3563 19207,3546 19241,3546 19286,3546 19329,3573 19344,3621 19357,3666 19358,3726 19358,3798 19358,3859 19358,3920 19347,3973 19330,4048 19274,4066 19241,4066 L 19241,4066 Z"/>
         <path fill="rgb(255,255,255)" stroke="none" d="M 19879,3600 C 19879,3507 19866,3364 19801,3230 19730,3085 19628,3008 19616,3008 19609,3008 19604,3013 19604,3020 19604,3023 19604,3026 19627,3047 19743,3164 19810,3352 19810,3600 19810,3802 19766,4010 19620,4159 19604,4173 19604,4176 19604,4179 19604,4186 19609,4191 19616,4191 19628,4191 19735,4111 19804,3960 19865,3830 19879,3699 19879,3600 L 19879,3600 Z"/>
        </g>
       </g>
      </g>
      <g class="Graphic">
       <title>TexMaths
       </title>
       <desc>14§display§\textcolor{white}{  (u_0,f(u_0)) }§svg§600§TRUE§
       </desc>
       <g id="id9">
        <rect class="BoundingBox" stroke="none" fill="none" x="17272" y="12276" width="5981" height="1314"/>
        <defs>
         <clipPath id="clip_path_2" clipPathUnits="userSpaceOnUse">
          <path d="M 17272,12276 L 23252,12276 23252,13589 17272,13589 17272,12276 Z"/>
         </clipPath>
        </defs>
        <g clip-path="url(#clip_path_2)">
         <path fill="rgb(255,255,255)" stroke="none" d="M 17708,13576 C 17708,13572 17708,13569 17686,13547 17521,13382 17479,13133 17479,12933 17479,12704 17529,12476 17691,12311 17708,12296 17708,12293 17708,12289 17708,12280 17703,12276 17695,12276 17682,12276 17563,12365 17485,12532 17418,12676 17402,12822 17402,12933 17402,13035 17417,13194 17489,13342 17568,13504 17682,13589 17695,13589 17703,13589 17708,13585 17708,13576 L 17708,13576 Z"/>
         <path fill="rgb(255,255,255)" stroke="none" d="M 18245,13187 C 18260,13241 18306,13275 18363,13275 18409,13275 18439,13245 18460,13203 18482,13156 18500,13076 18500,13073 18500,13060 18488,13060 18484,13060 18471,13060 18469,13065 18465,13083 18447,13157 18422,13246 18367,13246 18339,13246 18326,13229 18326,13186 18326,13157 18342,13095 18352,13049 L 18389,12908 C 18393,12888 18406,12838 18411,12818 18418,12788 18431,12738 18431,12730 18431,12707 18413,12695 18393,12695 18386,12695 18352,12696 18342,12741 18316,12837 18259,13066 18243,13136 18241,13141 18189,13246 18093,13246 18024,13246 18011,13187 18011,13139 18011,13065 18048,12961 18082,12871 18098,12831 18104,12813 18104,12788 18104,12729 18062,12680 17996,12680 17871,12680 17822,12871 17822,12883 17822,12896 17836,12896 17838,12896 17851,12896 17853,12893 17859,12872 17892,12758 17942,12709 17992,12709 18004,12709 18025,12711 18025,12753 18025,12784 18011,12822 18003,12842 17954,12972 17927,13053 17927,13118 17927,13242 18017,13275 18089,13275 18176,13275 18223,13216 18245,13187 L 18245,13187 Z"/>
         <path fill="rgb(255,255,255)" stroke="none" d="M 19014,13165 C 19014,13063 19002,12991 18960,12926 18931,12884 18874,12847 18800,12847 18586,12847 18586,13098 18586,13165 18586,13231 18586,13476 18800,13476 19014,13476 19014,13231 19014,13165 L 19014,13165 Z M 18800,13450 C 18758,13450 18702,13426 18683,13350 18670,13296 18670,13221 18670,13153 18670,13085 18670,13016 18684,12965 18703,12892 18762,12873 18800,12873 18850,12873 18898,12903 18915,12957 18929,13006 18930,13073 18930,13153 18930,13221 18930,13289 18918,13346 18900,13430 18837,13450 18800,13450 L 18800,13450 Z"/>
         <path fill="rgb(255,255,255)" stroke="none" d="M 19397,13259 C 19397,13173 19364,13122 19312,13122 19269,13122 19243,13154 19243,13191 19243,13227 19269,13261 19312,13261 19328,13261 19345,13255 19359,13244 19363,13241 19364,13240 19365,13240 19367,13240 19368,13241 19368,13259 19368,13357 19322,13435 19278,13479 19264,13493 19264,13496 19264,13500 19264,13509 19270,13514 19277,13514 19291,13514 19397,13413 19397,13259 L 19397,13259 Z"/>
         <path fill="rgb(255,255,255)" stroke="none" d="M 20198,12736 L 20312,12736 C 20338,12736 20351,12736 20351,12709 20351,12695 20338,12695 20316,12695 L 20206,12695 20234,12545 C 20239,12518 20258,12424 20266,12409 20277,12384 20300,12364 20327,12364 20333,12364 20367,12364 20392,12388 20334,12393 20321,12439 20321,12459 20321,12489 20345,12504 20370,12504 20404,12504 20442,12476 20442,12426 20442,12365 20381,12335 20327,12335 20283,12335 20200,12359 20160,12489 20152,12516 20148,12529 20117,12695 L 20026,12695 C 20001,12695 19986,12695 19986,12720 19986,12736 19998,12736 20023,12736 L 20110,12736 20011,13254 C 19988,13382 19965,13501 19897,13501 19891,13501 19858,13501 19833,13477 19894,13473 19906,13426 19906,13406 19906,13376 19882,13361 19857,13361 19823,13361 19785,13389 19785,13439 19785,13498 19843,13530 19897,13530 19969,13530 20022,13452 20046,13403 20088,13320 20118,13161 20119,13152 L 20198,12736 20198,12736 Z"/>
         <path fill="rgb(255,255,255)" stroke="none" d="M 20938,13576 C 20938,13572 20938,13569 20915,13547 20751,13382 20708,13133 20708,12933 20708,12704 20758,12476 20921,12311 20938,12296 20938,12293 20938,12289 20938,12280 20932,12276 20924,12276 20911,12276 20793,12365 20715,12532 20648,12676 20632,12822 20632,12933 20632,13035 20647,13194 20719,13342 20798,13504 20911,13589 20924,13589 20932,13589 20938,13585 20938,13576 L 20938,13576 Z"/>
         <path fill="rgb(255,255,255)" stroke="none" d="M 21475,13187 C 21489,13241 21536,13275 21592,13275 21638,13275 21669,13245 21690,13203 21712,13156 21729,13076 21729,13073 21729,13060 21717,13060 21713,13060 21700,13060 21699,13065 21695,13083 21677,13157 21651,13246 21596,13246 21569,13246 21555,13229 21555,13186 21555,13157 21571,13095 21582,13049 L 21619,12908 C 21623,12888 21636,12838 21641,12818 21648,12788 21661,12738 21661,12730 21661,12707 21642,12695 21623,12695 21616,12695 21582,12696 21571,12741 21546,12837 21488,13066 21472,13136 21471,13141 21418,13246 21322,13246 21254,13246 21240,13187 21240,13139 21240,13065 21277,12961 21312,12871 21327,12831 21334,12813 21334,12788 21334,12729 21292,12680 21226,12680 21101,12680 21052,12871 21052,12883 21052,12896 21065,12896 21068,12896 21081,12896 21082,12893 21089,12872 21122,12758 21172,12709 21222,12709 21234,12709 21255,12711 21255,12753 21255,12784 21240,12822 21233,12842 21184,12972 21156,13053 21156,13118 21156,13242 21247,13275 21318,13275 21405,13275 21453,13216 21475,13187 L 21475,13187 Z"/>
         <path fill="rgb(255,255,255)" stroke="none" d="M 22244,13165 C 22244,13063 22232,12991 22189,12926 22161,12884 22104,12847 22030,12847 21816,12847 21816,13098 21816,13165 21816,13231 21816,13476 22030,13476 22244,13476 22244,13231 22244,13165 L 22244,13165 Z M 22030,13450 C 21987,13450 21931,13426 21913,13350 21900,13296 21900,13221 21900,13153 21900,13085 21900,13016 21914,12965 21933,12892 21992,12873 22030,12873 22080,12873 22128,12903 22144,12957 22159,13006 22160,13073 22160,13153 22160,13221 22160,13289 22148,13346 22129,13430 22067,13450 22030,13450 L 22030,13450 Z"/>
         <path fill="rgb(255,255,255)" stroke="none" d="M 22740,12933 C 22740,12830 22725,12671 22653,12523 22574,12361 22460,12276 22447,12276 22439,12276 22434,12281 22434,12289 22434,12293 22434,12296 22459,12319 22588,12449 22663,12658 22663,12933 22663,13157 22615,13388 22451,13554 22434,13569 22434,13572 22434,13576 22434,13584 22439,13589 22447,13589 22460,13589 22579,13500 22657,13333 22724,13189 22740,13043 22740,12933 L 22740,12933 Z"/>
         <path fill="rgb(255,255,255)" stroke="none" d="M 23252,12933 C 23252,12830 23238,12671 23165,12523 23086,12361 22973,12276 22960,12276 22952,12276 22946,12281 22946,12289 22946,12293 22946,12296 22971,12319 23101,12449 23176,12658 23176,12933 23176,13157 23127,13388 22964,13554 22946,13569 22946,13572 22946,13576 22946,13584 22952,13589 22960,13589 22973,13589 23091,13500 23169,13333 23236,13189 23252,13043 23252,12933 L 23252,12933 Z"/>
        </g>
       </g>
      </g>
      <g class="Graphic">
       <title>TexMaths
       </title>
       <desc>14§display§\textcolor{mygreen}{u}§svg§600§TRUE§
       </desc>
       <g id="id10">
        <rect class="BoundingBox" stroke="none" fill="none" x="20701" y="19558" width="1529" height="1271"/>
        <defs>
         <clipPath id="clip_path_3" clipPathUnits="userSpaceOnUse">
          <path d="M 20701,19558 L 22229,19558 22229,20828 20701,20828 20701,19558 Z"/>
         </clipPath>
        </defs>
        <g clip-path="url(#clip_path_3)">
         <path fill="rgb(129,212,26)" stroke="none" d="M 21686,20640 C 21717,20755 21815,20828 21936,20828 22035,20828 22100,20764 22145,20674 22192,20573 22229,20402 22229,20396 22229,20368 22204,20368 22195,20368 22167,20368 22164,20379 22156,20419 22116,20576 22063,20766 21945,20766 21886,20766 21858,20730 21858,20637 21858,20576 21891,20444 21914,20346 L 21993,20043 C 22001,20001 22029,19894 22040,19852 22055,19788 22083,19681 22083,19665 22083,19614 22043,19589 22001,19589 21987,19589 21914,19592 21891,19687 21838,19892 21714,20382 21680,20531 21677,20542 21565,20766 21359,20766 21213,20766 21185,20640 21185,20536 21185,20379 21264,20158 21337,19965 21371,19880 21385,19841 21385,19788 21385,19662 21295,19558 21154,19558 20887,19558 20783,19965 20783,19990 20783,20018 20811,20018 20816,20018 20845,20018 20847,20012 20861,19967 20932,19723 21039,19620 21146,19620 21171,19620 21216,19622 21216,19712 21216,19779 21185,19861 21168,19903 21064,20180 21005,20354 21005,20492 21005,20758 21199,20828 21351,20828 21537,20828 21638,20702 21686,20640 L 21686,20640 Z"/>
        </g>
       </g>
      </g>
      <g class="Graphic">
       <title>TexMaths
       </title>
       <desc>14§display§\textcolor{mygreen}{v}§svg§600§TRUE§
       </desc>
       <g id="id11">
        <rect class="BoundingBox" stroke="none" fill="none" x="2794" y="4319" width="1398" height="1355"/>
        <defs>
         <clipPath id="clip_path_4" clipPathUnits="userSpaceOnUse">
          <path d="M 2794,4319 L 4191,4319 4191,5673 2794,5673 2794,4319 Z"/>
         </clipPath>
        </defs>
        <g clip-path="url(#clip_path_4)">
         <path fill="rgb(129,212,26)" stroke="none" d="M 4191,4528 C 4191,4367 4113,4319 4060,4319 3985,4319 3913,4397 3913,4462 3913,4501 3928,4519 3961,4552 4024,4612 4063,4690 4063,4797 4063,4923 3881,5607 3531,5607 3379,5607 3310,5503 3310,5347 3310,5180 3391,4962 3484,4714 3504,4663 3519,4621 3519,4564 3519,4430 3424,4319 3275,4319 2994,4319 2881,4752 2881,4779 2881,4809 2910,4809 2916,4809 2946,4809 2949,4803 2964,4755 3051,4454 3179,4385 3266,4385 3290,4385 3340,4385 3340,4480 3340,4555 3310,4636 3290,4690 3158,5036 3119,5174 3119,5302 3119,5625 3382,5673 3519,5673 4021,5673 4191,4684 4191,4528 L 4191,4528 Z"/>
        </g>
       </g>
      </g>
      <g class="com.sun.star.drawing.CustomShape">
       <g id="id12">
        <rect class="BoundingBox" stroke="none" fill="none" x="16234" y="11810" width="913" height="765"/>
        <path fill="rgb(34,75,18)" stroke="none" d="M 17145,12192 C 17145,12259 17124,12325 17084,12383 17044,12440 16987,12489 16918,12522 16848,12555 16770,12573 16690,12573 16610,12573 16532,12555 16463,12522 16393,12489 16336,12440 16296,12383 16256,12325 16235,12259 16235,12192 16235,12125 16256,12059 16296,12002 16336,11944 16393,11895 16463,11862 16532,11829 16610,11811 16690,11811 16770,11811 16848,11829 16918,11862 16987,11895 17044,11944 17084,12002 17124,12059 17145,12125 17145,12192 L 17145,12192 Z"/>
        <path fill="none" stroke="rgb(34,75,18)" d="M 17145,12192 C 17145,12259 17124,12325 17084,12383 17044,12440 16987,12489 16918,12522 16848,12555 16770,12573 16690,12573 16610,12573 16532,12555 16463,12522 16393,12489 16336,12440 16296,12383 16256,12325 16235,12259 16235,12192 16235,12125 16256,12059 16296,12002 16336,11944 16393,11895 16463,11862 16532,11829 16610,11811 16690,11811 16770,11811 16848,11829 16918,11862 16987,11895 17044,11944 17084,12002 17124,12059 17145,12125 17145,12192 Z"/>
       </g>
      </g>
     </g>
    </g>
   </g>
  </g>
 </g>
</svg>