<?xml version="1.0" encoding="utf-8" standalone="no"?>
<!DOCTYPE svg PUBLIC "-//W3C//DTD SVG 1.1//EN"
  "http://www.w3.org/Graphics/SVG/1.1/DTD/svg11.dtd">
<svg xmlns:xlink="http://www.w3.org/1999/xlink" width="432pt" height="432pt" viewBox="0 0 432 432" xmlns="http://www.w3.org/2000/svg" version="1.1">
 <metadata>
  <rdf:RDF xmlns:dc="http://purl.org/dc/elements/1.1/" xmlns:cc="http://creativecommons.org/ns#" xmlns:rdf="http://www.w3.org/1999/02/22-rdf-syntax-ns#">
   <cc:Work>
    <dc:type rdf:resource="http://purl.org/dc/dcmitype/StillImage"/>
    <dc:date>2025-03-14T22:38:13.356504</dc:date>
    <dc:format>image/svg+xml</dc:format>
    <dc:creator>
     <cc:Agent>
      <dc:title>Matplotlib v3.10.0, https://matplotlib.org/</dc:title>
     </cc:Agent>
    </dc:creator>
   </cc:Work>
  </rdf:RDF>
 </metadata>
 <defs>
  <style type="text/css">*{stroke-linejoin: round; stroke-linecap: butt}</style>
 </defs>
 <g id="figure_1">
  <g id="patch_1">
   <path d="M 0 432 
L 432 432 
L 432 0 
L 0 0 
z
" style="fill: #191919"/>
  </g>
  <g id="axes_1">
   <g id="patch_2">
    <path d="M 54 384.48 
L 388.8 384.48 
L 388.8 51.84 
L 54 51.84 
z
" style="fill: #191919"/>
   </g>
   <g id="PathCollection_1">
    <defs>
     <path id="mc7f0a4d016" d="M 0 3.535534 
C 0.937635 3.535534 1.836992 3.163008 2.5 2.5 
C 3.163008 1.836992 3.535534 0.937635 3.535534 0 
C 3.535534 -0.937635 3.163008 -1.836992 2.5 -2.5 
C 1.836992 -3.163008 0.937635 -3.535534 0 -3.535534 
C -0.937635 -3.535534 -1.836992 -3.163008 -2.5 -2.5 
C -3.163008 -1.836992 -3.535534 -0.937635 -3.535534 0 
C -3.535534 0.937635 -3.163008 1.836992 -2.5 2.5 
C -1.836992 3.163008 -0.937635 3.535534 0 3.535534 
z
" style="stroke: #ec2ed7"/>
    </defs>
    <g clip-path="url(#pefb00a037c)">
     <use xlink:href="#mc7f0a4d016" x="300.73174" y="213.402143" style="fill: #ec2ed7; stroke: #ec2ed7"/>
     <use xlink:href="#mc7f0a4d016" x="220.189701" y="309.310681" style="fill: #ec2ed7; stroke: #ec2ed7"/>
     <use xlink:href="#mc7f0a4d016" x="300.73174" y="213.402143" style="fill: #ec2ed7; stroke: #ec2ed7"/>
    </g>
   </g>
   <g id="QuadContourSet_1">
    <path clip-path="url(#pefb00a037c)" style="fill: none; stroke: #beffbe; stroke-width: 1.5"/>
    <path clip-path="url(#pefb00a037c)" style="fill: none; stroke: #b4f4b4; stroke-width: 1.5"/>
    <path clip-path="url(#pefb00a037c)" style="fill: none; stroke: #abeaab; stroke-width: 1.5"/>
    <path clip-path="url(#pefb00a037c)" style="fill: none; stroke: #a1e0a1; stroke-width: 1.5"/>
    <path clip-path="url(#pefb00a037c)" style="fill: none; stroke: #99d799; stroke-width: 1.5"/>
    <path clip-path="url(#pefb00a037c)" style="fill: none; stroke: #90cd90; stroke-width: 1.5"/>
    <path d="M 67.342897 51.84 
L 66.586466 52.740731 
L 65.747368 53.7399 
L 64.908271 54.739069 
L 64.069173 55.738238 
L 63.230075 56.737406 
L 62.390977 57.736575 
L 61.641883 58.628571 
L 61.55188 58.735744 
L 60.712782 59.734913 
L 59.873684 60.734081 
L 59.034586 61.73325 
L 58.195489 62.732419 
L 57.356391 63.731588 
L 56.517293 64.730756 
L 55.940869 65.417143 
L 55.678195 65.729925 
L 54.839098 66.729094 
L 54 67.728263 
" clip-path="url(#pefb00a037c)" style="fill: none; stroke: #88c488; stroke-width: 1.5"/>
    <path d="M 90.702545 51.84 
L 90.081203 52.579873 
L 89.242105 53.579041 
L 88.403008 54.57821 
L 87.56391 55.577379 
L 86.724812 56.576548 
L 85.885714 57.575716 
L 85.046617 58.574885 
L 85.001531 58.628571 
L 84.207519 59.574054 
L 83.368421 60.573223 
L 82.529323 61.572391 
L 81.690226 62.57156 
L 80.851128 63.570729 
L 80.01203 64.569898 
L 79.300517 65.417143 
L 79.172932 65.569066 
L 78.333835 66.568235 
L 77.494737 67.567404 
L 76.655639 68.566573 
L 75.816541 69.565742 
L 74.977444 70.56491 
L 74.138346 71.564079 
L 73.599503 72.205714 
L 73.299248 72.563248 
L 72.46015 73.562417 
L 71.621053 74.561585 
L 70.781955 75.560754 
L 69.942857 76.559923 
L 69.103759 77.559092 
L 68.264662 78.55826 
L 67.898489 78.994286 
L 67.425564 79.557429 
L 66.586466 80.556598 
L 65.747368 81.555767 
L 64.908271 82.554935 
L 64.069173 83.554104 
L 63.230075 84.553273 
L 62.390977 85.552442 
L 62.197476 85.782857 
L 61.55188 86.55161 
L 60.712782 87.550779 
L 59.873684 88.549948 
L 59.034586 89.549117 
L 58.195489 90.548285 
L 57.356391 91.547454 
L 56.517293 92.546623 
L 56.496462 92.571429 
L 55.678195 93.545792 
L 54.839098 94.544961 
L 54 95.544129 
" clip-path="url(#pefb00a037c)" style="fill: none; stroke: #7fbc7f; stroke-width: 1.5"/>
    <path d="M 114.062193 51.84 
L 113.57594 52.419014 
L 112.736842 53.418183 
L 111.897744 54.417351 
L 111.058647 55.41652 
L 110.219549 56.415689 
L 109.380451 57.414858 
L 108.541353 58.414026 
L 108.361179 58.628571 
L 107.702256 59.413195 
L 106.863158 60.412364 
L 106.02406 61.411533 
L 105.184962 62.410702 
L 104.345865 63.40987 
L 103.506767 64.409039 
L 102.667669 65.408208 
L 102.660166 65.417143 
L 101.828571 66.407377 
L 100.989474 67.406545 
L 100.150376 68.405714 
L 99.311278 69.404883 
L 98.47218 70.404052 
L 97.633083 71.40322 
L 96.959152 72.205714 
L 96.793985 72.402389 
L 95.954887 73.401558 
L 95.115789 74.400727 
L 94.276692 75.399895 
L 93.437594 76.399064 
L 92.598496 77.398233 
L 91.759398 78.397402 
L 91.258138 78.994286 
L 90.920301 79.39657 
L 90.081203 80.395739 
L 89.242105 81.394908 
L 88.403008 82.394077 
L 87.56391 83.393245 
L 86.724812 84.392414 
L 85.885714 85.391583 
L 85.557124 85.782857 
L 85.046617 86.390752 
L 84.207519 87.38992 
L 83.368421 88.389089 
L 82.529323 89.388258 
L 81.690226 90.387427 
L 80.851128 91.386596 
L 80.01203 92.385764 
L 79.85611 92.571429 
L 79.172932 93.384933 
L 78.333835 94.384102 
L 77.494737 95.383271 
L 76.655639 96.382439 
L 75.816541 97.381608 
L 74.977444 98.380777 
L 74.155096 99.36 
L 74.138346 99.379946 
L 73.299248 100.379114 
L 72.46015 101.378283 
L 71.621053 102.377452 
L 70.781955 103.376621 
L 69.942857 104.375789 
L 69.103759 105.374958 
L 68.454082 106.148571 
L 68.264662 106.374127 
L 67.425564 107.373296 
L 66.586466 108.372464 
L 65.747368 109.371633 
L 64.908271 110.370802 
L 64.069173 111.369971 
L 63.230075 112.369139 
L 62.753068 112.937143 
L 62.390977 113.368308 
L 61.55188 114.367477 
L 60.712782 115.366646 
L 59.873684 116.365815 
L 59.034586 117.364983 
L 58.195489 118.364152 
L 57.356391 119.363321 
L 57.052054 119.725714 
L 56.517293 120.36249 
L 55.678195 121.361658 
L 54.839098 122.360827 
L 54 123.359996 
" clip-path="url(#pefb00a037c)" style="fill: none; stroke: #78b378; stroke-width: 1.5"/>
    <path d="M 137.421842 51.84 
L 137.070677 52.258155 
L 136.231579 53.257324 
L 135.392481 54.256493 
L 134.553383 55.255661 
L 133.714286 56.25483 
L 132.875188 57.253999 
L 132.03609 58.253168 
L 131.720828 58.628571 
L 131.196992 59.252337 
L 130.357895 60.251505 
L 129.518797 61.250674 
L 128.679699 62.249843 
L 127.840602 63.249012 
L 127.001504 64.24818 
L 126.162406 65.247349 
L 126.019814 65.417143 
L 125.323308 66.246518 
L 124.484211 67.245687 
L 123.645113 68.244855 
L 122.806015 69.244024 
L 121.966917 70.243193 
L 121.12782 71.242362 
L 120.3188 72.205714 
L 120.288722 72.24153 
L 119.449624 73.240699 
L 118.610526 74.239868 
L 117.771429 75.239037 
L 116.932331 76.238205 
L 116.093233 77.237374 
L 115.254135 78.236543 
L 114.617786 78.994286 
L 114.415038 79.235712 
L 113.57594 80.23488 
L 112.736842 81.234049 
L 111.897744 82.233218 
L 111.058647 83.232387 
L 110.219549 84.231555 
L 109.380451 85.230724 
L 108.916772 85.782857 
L 108.541353 86.229893 
L 107.702256 87.229062 
L 106.863158 88.228231 
L 106.02406 89.227399 
L 105.184962 90.226568 
L 104.345865 91.225737 
L 103.506767 92.224906 
L 103.215758 92.571429 
L 102.667669 93.224074 
L 101.828571 94.223243 
L 100.989474 95.222412 
L 100.150376 96.221581 
L 99.311278 97.220749 
L 98.47218 98.219918 
L 97.633083 99.219087 
L 97.514744 99.36 
L 96.793985 100.218256 
L 95.954887 101.217424 
L 95.115789 102.216593 
L 94.276692 103.215762 
L 93.437594 104.214931 
L 92.598496 105.214099 
L 91.813731 106.148571 
L 91.759398 106.213268 
L 90.920301 107.212437 
L 90.081203 108.211606 
L 89.242105 109.210774 
L 88.403008 110.209943 
L 87.56391 111.209112 
L 86.724812 112.208281 
L 86.112717 112.937143 
L 85.885714 113.20745 
L 85.046617 114.206618 
L 84.207519 115.205787 
L 83.368421 116.204956 
L 82.529323 117.204125 
L 81.690226 118.203293 
L 80.851128 119.202462 
L 80.411703 119.725714 
L 80.01203 120.201631 
L 79.172932 121.2008 
L 78.333835 122.199968 
L 77.494737 123.199137 
L 76.655639 124.198306 
L 75.816541 125.197475 
L 74.977444 126.196643 
L 74.710689 126.514286 
L 74.138346 127.195812 
L 73.299248 128.194981 
L 72.46015 129.19415 
L 71.621053 130.193318 
L 70.781955 131.192487 
L 69.942857 132.191656 
L 69.103759 133.190825 
L 69.009675 133.302857 
L 68.264662 134.189993 
L 67.425564 135.189162 
L 66.586466 136.188331 
L 65.747368 137.1875 
L 64.908271 138.186669 
L 64.069173 139.185837 
L 63.308661 140.091429 
L 63.230075 140.185006 
L 62.390977 141.184175 
L 61.55188 142.183344 
L 60.712782 143.182512 
L 59.873684 144.181681 
L 59.034586 145.18085 
L 58.195489 146.180019 
L 57.607647 146.88 
L 57.356391 147.179187 
L 56.517293 148.178356 
L 55.678195 149.177525 
L 54.839098 150.176694 
L 54 151.175862 
" clip-path="url(#pefb00a037c)" style="fill: none; stroke: #70ab70; stroke-width: 1.5"/>
    <path d="M 160.78149 51.84 
L 54 178.991729 
L 54 178.991729 
" clip-path="url(#pefb00a037c)" style="fill: none; stroke: #69a369; stroke-width: 1.5"/>
    <path d="M 184.141138 51.84 
L 54 206.807595 
L 54 206.807595 
" clip-path="url(#pefb00a037c)" style="fill: none; stroke: #619b61; stroke-width: 1.5"/>
    <path d="M 207.500787 51.84 
L 54 234.623462 
L 54 234.623462 
" clip-path="url(#pefb00a037c)" style="fill: none; stroke: #5b945b; stroke-width: 1.5"/>
    <path d="M 230.860435 51.84 
L 54 262.439329 
L 54 262.439329 
" clip-path="url(#pefb00a037c)" style="fill: none; stroke: #548d54; stroke-width: 1.5"/>
    <path d="M 254.220083 51.84 
L 54 290.255195 
L 54 290.255195 
" clip-path="url(#pefb00a037c)" style="fill: none; stroke: #4e864e; stroke-width: 1.5"/>
    <path d="M 277.579732 51.84 
L 54 318.071062 
L 54 318.071062 
" clip-path="url(#pefb00a037c)" style="fill: none; stroke: #477f47; stroke-width: 1.5"/>
    <path d="M 300.93938 51.84 
L 54 345.886928 
L 54 345.886928 
" clip-path="url(#pefb00a037c)" style="fill: none; stroke: #427942; stroke-width: 1.5"/>
    <path d="M 324.299029 51.84 
L 54 373.702795 
L 54 373.702795 
" clip-path="url(#pefb00a037c)" style="fill: none; stroke: #3c733c; stroke-width: 1.5"/>
    <path d="M 347.658677 51.84 
L 68.308997 384.48 
L 68.308997 384.48 
" clip-path="url(#pefb00a037c)" style="fill: none; stroke: #376d37; stroke-width: 1.5"/>
    <path d="M 371.018325 51.84 
L 91.668645 384.48 
L 91.668645 384.48 
" clip-path="url(#pefb00a037c)" style="fill: none; stroke: #316731; stroke-width: 1.5"/>
    <path d="M 388.8 58.482059 
L 115.028293 384.48 
L 115.028293 384.48 
" clip-path="url(#pefb00a037c)" style="fill: none; stroke: #2d622d; stroke-width: 1.5"/>
    <path d="M 388.8 86.297926 
L 138.387942 384.48 
L 138.387942 384.48 
" clip-path="url(#pefb00a037c)" style="fill: none; stroke: #285d28; stroke-width: 1.5"/>
    <path d="M 388.8 114.113792 
L 161.74759 384.48 
L 161.74759 384.48 
" clip-path="url(#pefb00a037c)" style="fill: none; stroke: #245824; stroke-width: 1.5"/>
    <path d="M 388.8 141.929659 
L 185.107238 384.48 
L 185.107238 384.48 
" clip-path="url(#pefb00a037c)" style="fill: none; stroke: #1f541f; stroke-width: 1.5"/>
    <path d="M 388.8 169.745526 
L 208.466887 384.48 
L 208.466887 384.48 
" clip-path="url(#pefb00a037c)" style="fill: none; stroke: #1c501c; stroke-width: 1.5"/>
    <path d="M 388.8 197.561392 
L 231.826535 384.48 
L 231.826535 384.48 
" clip-path="url(#pefb00a037c)" style="fill: none; stroke: #184c18; stroke-width: 1.5"/>
    <path d="M 388.8 225.377259 
L 255.186183 384.48 
L 255.186183 384.48 
" clip-path="url(#pefb00a037c)" style="fill: none; stroke: #154815; stroke-width: 1.5"/>
    <path d="M 388.8 253.193125 
L 278.545832 384.48 
L 278.545832 384.48 
" clip-path="url(#pefb00a037c)" style="fill: none; stroke: #114511; stroke-width: 1.5"/>
    <path d="M 388.8 281.008992 
L 387.960902 282.008161 
L 387.420688 282.651429 
L 387.121805 283.007329 
L 386.282707 284.006498 
L 385.443609 285.005667 
L 384.604511 286.004836 
L 383.765414 287.004004 
L 382.926316 288.003173 
L 382.087218 289.002342 
L 381.719675 289.44 
L 381.24812 290.001511 
L 380.409023 291.000679 
L 379.569925 291.999848 
L 378.730827 292.999017 
L 377.891729 293.998186 
L 377.052632 294.997354 
L 376.213534 295.996523 
L 376.018661 296.228571 
L 375.374436 296.995692 
L 374.535338 297.994861 
L 373.696241 298.994029 
L 372.857143 299.993198 
L 372.018045 300.992367 
L 371.178947 301.991536 
L 370.33985 302.990705 
L 370.317647 303.017143 
L 369.500752 303.989873 
L 368.661654 304.989042 
L 367.822556 305.988211 
L 366.983459 306.98738 
L 366.144361 307.986548 
L 365.305263 308.985717 
L 364.616633 309.805714 
L 364.466165 309.984886 
L 363.627068 310.984055 
L 362.78797 311.983223 
L 361.948872 312.982392 
L 361.109774 313.981561 
L 360.270677 314.98073 
L 359.431579 315.979898 
L 358.915619 316.594286 
L 358.592481 316.979067 
L 357.753383 317.978236 
L 356.914286 318.977405 
L 356.075188 319.976573 
L 355.23609 320.975742 
L 354.396992 321.974911 
L 353.557895 322.97408 
L 353.214605 323.382857 
L 352.718797 323.973248 
L 351.879699 324.972417 
L 351.040602 325.971586 
L 350.201504 326.970755 
L 349.362406 327.969923 
L 348.523308 328.969092 
L 347.684211 329.968261 
L 347.513591 330.171429 
L 346.845113 330.96743 
L 346.006015 331.966599 
L 345.166917 332.965767 
L 344.32782 333.964936 
L 343.488722 334.964105 
L 342.649624 335.963274 
L 341.812577 336.96 
L 341.810526 336.962442 
L 340.971429 337.961611 
L 340.132331 338.96078 
L 339.293233 339.959949 
L 338.454135 340.959117 
L 337.615038 341.958286 
L 336.77594 342.957455 
L 336.111563 343.748571 
L 335.936842 343.956624 
L 335.097744 344.955792 
L 334.258647 345.954961 
L 333.419549 346.95413 
L 332.580451 347.953299 
L 331.741353 348.952467 
L 330.902256 349.951636 
L 330.41055 350.537143 
L 330.063158 350.950805 
L 329.22406 351.949974 
L 328.384962 352.949142 
L 327.545865 353.948311 
L 326.706767 354.94748 
L 325.867669 355.946649 
L 325.028571 356.945818 
L 324.709536 357.325714 
L 324.189474 357.944986 
L 323.350376 358.944155 
L 322.511278 359.943324 
L 321.67218 360.942493 
L 320.833083 361.941661 
L 319.993985 362.94083 
L 319.154887 363.939999 
L 319.008522 364.114286 
L 318.315789 364.939168 
L 317.476692 365.938336 
L 316.637594 366.937505 
L 315.798496 367.936674 
L 314.959398 368.935843 
L 314.120301 369.935011 
L 313.307508 370.902857 
L 313.281203 370.93418 
L 312.442105 371.933349 
L 311.603008 372.932518 
L 310.76391 373.931686 
L 309.924812 374.930855 
L 309.085714 375.930024 
L 308.246617 376.929193 
L 307.606494 377.691429 
L 307.407519 377.928361 
L 306.568421 378.92753 
L 305.729323 379.926699 
L 304.890226 380.925868 
L 304.051128 381.925037 
L 303.21203 382.924205 
L 302.372932 383.923374 
L 301.90548 384.48 
" clip-path="url(#pefb00a037c)" style="fill: none; stroke: #0f420f; stroke-width: 1.5"/>
    <path d="M 388.8 308.824858 
L 387.976281 309.805714 
L 387.960902 309.824027 
L 387.121805 310.823196 
L 386.282707 311.822365 
L 385.443609 312.821533 
L 384.604511 313.820702 
L 383.765414 314.819871 
L 382.926316 315.81904 
L 382.275267 316.594286 
L 382.087218 316.818208 
L 381.24812 317.817377 
L 380.409023 318.816546 
L 379.569925 319.815715 
L 378.730827 320.814883 
L 377.891729 321.814052 
L 377.052632 322.813221 
L 376.574254 323.382857 
L 376.213534 323.81239 
L 375.374436 324.811559 
L 374.535338 325.810727 
L 373.696241 326.809896 
L 372.857143 327.809065 
L 372.018045 328.808234 
L 371.178947 329.807402 
L 370.87324 330.171429 
L 370.33985 330.806571 
L 369.500752 331.80574 
L 368.661654 332.804909 
L 367.822556 333.804077 
L 366.983459 334.803246 
L 366.144361 335.802415 
L 365.305263 336.801584 
L 365.172226 336.96 
L 364.466165 337.800752 
L 363.627068 338.799921 
L 362.78797 339.79909 
L 361.948872 340.798259 
L 361.109774 341.797427 
L 360.270677 342.796596 
L 359.471212 343.748571 
L 359.431579 343.795765 
L 358.592481 344.794934 
L 357.753383 345.794102 
L 356.914286 346.793271 
L 356.075188 347.79244 
L 355.23609 348.791609 
L 354.396992 349.790777 
L 353.770198 350.537143 
L 353.557895 350.789946 
L 352.718797 351.789115 
L 351.879699 352.788284 
L 351.040602 353.787453 
L 350.201504 354.786621 
L 349.362406 355.78579 
L 348.523308 356.784959 
L 348.069184 357.325714 
L 347.684211 357.784128 
L 346.845113 358.783296 
L 346.006015 359.782465 
L 345.166917 360.781634 
L 344.32782 361.780803 
L 343.488722 362.779971 
L 342.649624 363.77914 
L 342.36817 364.114286 
L 341.810526 364.778309 
L 340.971429 365.777478 
L 340.132331 366.776646 
L 339.293233 367.775815 
L 338.454135 368.774984 
L 337.615038 369.774153 
L 336.77594 370.773321 
L 336.667156 370.902857 
L 335.936842 371.77249 
L 335.097744 372.771659 
L 334.258647 373.770828 
L 333.419549 374.769996 
L 332.580451 375.769165 
L 331.741353 376.768334 
L 330.966142 377.691429 
L 330.902256 377.767503 
L 330.063158 378.766672 
L 329.22406 379.76584 
L 328.384962 380.765009 
L 327.545865 381.764178 
L 326.706767 382.763347 
L 325.867669 383.762515 
L 325.265129 384.48 
" clip-path="url(#pefb00a037c)" style="fill: none; stroke: #0c3f0c; stroke-width: 1.5"/>
    <path d="M 388.8 336.640725 
L 388.531874 336.96 
L 387.960902 337.639894 
L 387.121805 338.639062 
L 386.282707 339.638231 
L 385.443609 340.6374 
L 384.604511 341.636569 
L 383.765414 342.635737 
L 382.926316 343.634906 
L 382.83086 343.748571 
L 382.087218 344.634075 
L 381.24812 345.633244 
L 380.409023 346.632412 
L 379.569925 347.631581 
L 378.730827 348.63075 
L 377.891729 349.629919 
L 377.129846 350.537143 
L 377.052632 350.629088 
L 376.213534 351.628256 
L 375.374436 352.627425 
L 374.535338 353.626594 
L 373.696241 354.625763 
L 372.857143 355.624931 
L 372.018045 356.6241 
L 371.428832 357.325714 
L 371.178947 357.623269 
L 370.33985 358.622438 
L 369.500752 359.621606 
L 368.661654 360.620775 
L 367.822556 361.619944 
L 366.983459 362.619113 
L 366.144361 363.618281 
L 365.727819 364.114286 
L 365.305263 364.61745 
L 364.466165 365.616619 
L 363.627068 366.615788 
L 362.78797 367.614956 
L 361.948872 368.614125 
L 361.109774 369.613294 
L 360.270677 370.612463 
L 360.026805 370.902857 
L 359.431579 371.611631 
L 358.592481 372.6108 
L 357.753383 373.609969 
L 356.914286 374.609138 
L 356.075188 375.608307 
L 355.23609 376.607475 
L 354.396992 377.606644 
L 354.325791 377.691429 
L 353.557895 378.605813 
L 352.718797 379.604982 
L 351.879699 380.60415 
L 351.040602 381.603319 
L 350.201504 382.602488 
L 349.362406 383.601657 
L 348.624777 384.48 
" clip-path="url(#pefb00a037c)" style="fill: none; stroke: #0a3c0a; stroke-width: 1.5"/>
    <path d="M 388.8 364.456591 
L 387.960902 365.45576 
L 387.121805 366.454929 
L 386.282707 367.454098 
L 385.443609 368.453266 
L 384.604511 369.452435 
L 383.765414 370.451604 
L 383.386453 370.902857 
L 382.926316 371.450773 
L 382.087218 372.449942 
L 381.24812 373.44911 
L 380.409023 374.448279 
L 379.569925 375.447448 
L 378.730827 376.446617 
L 377.891729 377.445785 
L 377.685439 377.691429 
L 377.052632 378.444954 
L 376.213534 379.444123 
L 375.374436 380.443292 
L 374.535338 381.44246 
L 373.696241 382.441629 
L 372.857143 383.440798 
L 372.018045 384.439967 
L 371.984425 384.48 
" clip-path="url(#pefb00a037c)" style="fill: none; stroke: #073a07; stroke-width: 1.5"/>
    <path clip-path="url(#pefb00a037c)" style="fill: none; stroke: #063806; stroke-width: 1.5"/>
    <path clip-path="url(#pefb00a037c)" style="fill: none; stroke: #043604; stroke-width: 1.5"/>
    <path clip-path="url(#pefb00a037c)" style="fill: none; stroke: #033503; stroke-width: 1.5"/>
    <path clip-path="url(#pefb00a037c)" style="fill: none; stroke: #013401; stroke-width: 1.5"/>
    <path clip-path="url(#pefb00a037c)" style="fill: none; stroke: #013301; stroke-width: 1.5"/>
    <path clip-path="url(#pefb00a037c)" style="fill: none; stroke: #003200; stroke-width: 1.5"/>
    <path clip-path="url(#pefb00a037c)" style="fill: none; stroke: #003200; stroke-width: 1.5"/>
    <path clip-path="url(#pefb00a037c)" style="fill: none; stroke: #003200; stroke-width: 1.5"/>
   </g>
   <g id="matplotlib.axis_1"/>
   <g id="matplotlib.axis_2"/>
   <g id="line2d_1">
    <path d="M 136.067606 228.244955 
L 83.506243 326.519517 
L 83.506243 369.36 
L 220.189701 309.310681 
L 300.73174 213.402143 
L 359.293757 103.908091 
L 359.293757 66.96 
L 249.430065 127.055529 
L 136.067606 228.244955 
" clip-path="url(#pefb00a037c)" style="fill: none; stroke: #81d41a; stroke-width: 2; stroke-linecap: square"/>
   </g>
   <g id="line2d_2">
    <path d="M 300.73174 213.402143 
L 220.189701 309.310681 
L 300.73174 213.402143 
" clip-path="url(#pefb00a037c)" style="fill: none; stroke-dasharray: 7.4,3.2; stroke-dashoffset: 0; stroke: #ec2ed7; stroke-width: 2"/>
   </g>
   <g id="PathCollection_2">
    <defs>
     <path id="m9b3f7d796a" d="M 0 5 
C 1.326016 5 2.597899 4.473168 3.535534 3.535534 
C 4.473168 2.597899 5 1.326016 5 0 
C 5 -1.326016 4.473168 -2.597899 3.535534 -3.535534 
C 2.597899 -4.473168 1.326016 -5 0 -5 
C -1.326016 -5 -2.597899 -4.473168 -3.535534 -3.535534 
C -4.473168 -2.597899 -5 -1.326016 -5 0 
C -5 1.326016 -4.473168 2.597899 -3.535534 3.535534 
C -2.597899 4.473168 -1.326016 5 0 5 
z
" style="stroke: #ffffff"/>
    </defs>
    <g clip-path="url(#pefb00a037c)">
     <use xlink:href="#m9b3f7d796a" x="327.704078" y="270.312316" style="fill: #ffffff; stroke: #ffffff"/>
    </g>
   </g>
   <g id="Quiver_1">
    <path d="M 284.427095 232.805114 
L 319.806303 262.134289 
L 320.44229 259.399893 
L 327.704078 270.312316 
L 315.634646 265.19926 
L 318.203755 264.067411 
L 282.824547 234.738236 
L 284.427095 232.805114 
" clip-path="url(#pefb00a037c)" style="fill: #ff0000"/>
   </g>
  </g>
 </g>
 <defs>
  <clipPath id="pefb00a037c">
   <rect x="54" y="51.84" width="334.8" height="332.64"/>
  </clipPath>
 </defs>
</svg>
