<?xml version="1.0" encoding="utf-8" standalone="no"?>
<!DOCTYPE svg PUBLIC "-//W3C//DTD SVG 1.1//EN"
  "http://www.w3.org/Graphics/SVG/1.1/DTD/svg11.dtd">
<svg xmlns:xlink="http://www.w3.org/1999/xlink" width="432pt" height="432pt" viewBox="0 0 432 432" xmlns="http://www.w3.org/2000/svg" version="1.1">
 <metadata>
  <rdf:RDF xmlns:dc="http://purl.org/dc/elements/1.1/" xmlns:cc="http://creativecommons.org/ns#" xmlns:rdf="http://www.w3.org/1999/02/22-rdf-syntax-ns#">
   <cc:Work>
    <dc:type rdf:resource="http://purl.org/dc/dcmitype/StillImage"/>
    <dc:date>2025-03-14T23:32:48.683652</dc:date>
    <dc:format>image/svg+xml</dc:format>
    <dc:creator>
     <cc:Agent>
      <dc:title>Matplotlib v3.10.0, https://matplotlib.org/</dc:title>
     </cc:Agent>
    </dc:creator>
   </cc:Work>
  </rdf:RDF>
 </metadata>
 <defs>
  <style type="text/css">*{stroke-linejoin: round; stroke-linecap: butt}</style>
 </defs>
 <g id="figure_1">
  <g id="patch_1">
   <path d="M 0 432 
L 432 432 
L 432 0 
L 0 0 
z
" style="fill: #191919"/>
  </g>
  <g id="axes_1">
   <g id="patch_2">
    <path d="M 54 384.48 
L 388.8 384.48 
L 388.8 51.84 
L 54 51.84 
z
" style="fill: #191919"/>
   </g>
   <g id="PathCollection_1">
    <defs>
     <path id="m7752fe0ce4" d="M 0 3.535534 
C 0.937635 3.535534 1.836992 3.163008 2.5 2.5 
C 3.163008 1.836992 3.535534 0.937635 3.535534 0 
C 3.535534 -0.937635 3.163008 -1.836992 2.5 -2.5 
C 1.836992 -3.163008 0.937635 -3.535534 0 -3.535534 
C -0.937635 -3.535534 -1.836992 -3.163008 -2.5 -2.5 
C -3.163008 -1.836992 -3.535534 -0.937635 -3.535534 0 
C -3.535534 0.937635 -3.163008 1.836992 -2.5 2.5 
C -1.836992 3.163008 -0.937635 3.535534 0 3.535534 
z
" style="stroke: #ec2ed7"/>
    </defs>
    <g clip-path="url(#pad7fa9e3a3)">
     <use xlink:href="#m7752fe0ce4" x="341.587169" y="86.375209" style="fill: #ec2ed7; stroke: #ec2ed7"/>
     <use xlink:href="#m7752fe0ce4" x="101.212831" y="349.944791" style="fill: #ec2ed7; stroke: #ec2ed7"/>
     <use xlink:href="#m7752fe0ce4" x="341.587169" y="86.375209" style="fill: #ec2ed7; stroke: #ec2ed7"/>
    </g>
   </g>
   <g id="QuadContourSet_1">
    <path clip-path="url(#pad7fa9e3a3)" style="fill: none; stroke: #beffbe; stroke-width: 1.5"/>
    <path clip-path="url(#pad7fa9e3a3)" style="fill: none; stroke: #b4f4b4; stroke-width: 1.5"/>
    <path clip-path="url(#pad7fa9e3a3)" style="fill: none; stroke: #abeaab; stroke-width: 1.5"/>
    <path clip-path="url(#pad7fa9e3a3)" style="fill: none; stroke: #a1e0a1; stroke-width: 1.5"/>
    <path d="M 64.17366 51.84 
L 64.069173 51.954569 
L 63.230075 52.874632 
L 62.390977 53.794694 
L 61.55188 54.714756 
L 60.712782 55.634819 
L 59.873684 56.554881 
L 59.034586 57.474943 
L 58.195489 58.395005 
L 57.982476 58.628571 
L 57.356391 59.315068 
L 56.517293 60.23513 
L 55.678195 61.155192 
L 54.839098 62.075254 
L 54 62.995317 
" clip-path="url(#pad7fa9e3a3)" style="fill: none; stroke: #99d799; stroke-width: 1.5"/>
    <path d="M 85.269838 51.84 
L 85.046617 52.08476 
L 84.207519 53.004822 
L 83.368421 53.924884 
L 82.529323 54.844946 
L 81.690226 55.765009 
L 80.851128 56.685071 
L 80.01203 57.605133 
L 79.172932 58.525195 
L 79.078653 58.628571 
L 78.333835 59.445258 
L 77.494737 60.36532 
L 76.655639 61.285382 
L 75.816541 62.205445 
L 74.977444 63.125507 
L 74.138346 64.045569 
L 73.299248 64.965631 
L 72.887469 65.417143 
L 72.46015 65.885694 
L 71.621053 66.805756 
L 70.781955 67.725818 
L 69.942857 68.64588 
L 69.103759 69.565943 
L 68.264662 70.486005 
L 67.425564 71.406067 
L 66.696285 72.205714 
L 66.586466 72.326129 
L 65.747368 73.246192 
L 64.908271 74.166254 
L 64.069173 75.086316 
L 63.230075 76.006378 
L 62.390977 76.926441 
L 61.55188 77.846503 
L 60.712782 78.766565 
L 60.505101 78.994286 
L 59.873684 79.686628 
L 59.034586 80.60669 
L 58.195489 81.526752 
L 57.356391 82.446814 
L 56.517293 83.366877 
L 55.678195 84.286939 
L 54.839098 85.207001 
L 54.313916 85.782857 
L 54 86.127063 
" clip-path="url(#pad7fa9e3a3)" style="fill: none; stroke: #90cd90; stroke-width: 1.5"/>
    <path d="M 106.366015 51.84 
L 106.02406 52.21495 
L 105.184962 53.135012 
L 104.345865 54.055074 
L 103.506767 54.975137 
L 102.667669 55.895199 
L 101.828571 56.815261 
L 100.989474 57.735323 
L 100.174831 58.628571 
L 100.150376 58.655386 
L 99.311278 59.575448 
L 98.47218 60.49551 
L 97.633083 61.415572 
L 96.793985 62.335635 
L 95.954887 63.255697 
L 95.115789 64.175759 
L 94.276692 65.095822 
L 93.983646 65.417143 
L 93.437594 66.015884 
L 92.598496 66.935946 
L 91.759398 67.856008 
L 90.920301 68.776071 
L 90.081203 69.696133 
L 89.242105 70.616195 
L 88.403008 71.536257 
L 87.792462 72.205714 
L 87.56391 72.45632 
L 86.724812 73.376382 
L 85.885714 74.296444 
L 85.046617 75.216506 
L 84.207519 76.136569 
L 83.368421 77.056631 
L 82.529323 77.976693 
L 81.690226 78.896755 
L 81.601278 78.994286 
L 80.851128 79.816818 
L 80.01203 80.73688 
L 79.172932 81.656942 
L 78.333835 82.577005 
L 77.494737 83.497067 
L 76.655639 84.417129 
L 75.816541 85.337191 
L 75.410094 85.782857 
L 74.977444 86.257254 
L 74.138346 87.177316 
L 73.299248 88.097378 
L 72.46015 89.01744 
L 71.621053 89.937503 
L 70.781955 90.857565 
L 69.942857 91.777627 
L 69.218909 92.571429 
L 69.103759 92.697689 
L 68.264662 93.617752 
L 67.425564 94.537814 
L 66.586466 95.457876 
L 65.747368 96.377938 
L 64.908271 97.298001 
L 64.069173 98.218063 
L 63.230075 99.138125 
L 63.027725 99.36 
L 62.390977 100.058187 
L 61.55188 100.97825 
L 60.712782 101.898312 
L 59.873684 102.818374 
L 59.034586 103.738437 
L 58.195489 104.658499 
L 57.356391 105.578561 
L 56.836541 106.148571 
L 56.517293 106.498623 
L 55.678195 107.418686 
L 54.839098 108.338748 
L 54 109.25881 
" clip-path="url(#pad7fa9e3a3)" style="fill: none; stroke: #88c488; stroke-width: 1.5"/>
    <path d="M 127.462192 51.84 
L 127.001504 52.34514 
L 126.162406 53.265202 
L 125.323308 54.185265 
L 124.484211 55.105327 
L 123.645113 56.025389 
L 122.806015 56.945451 
L 121.966917 57.865514 
L 121.271008 58.628571 
L 121.12782 58.785576 
L 120.288722 59.705638 
L 119.449624 60.6257 
L 118.610526 61.545763 
L 117.771429 62.465825 
L 116.932331 63.385887 
L 116.093233 64.305949 
L 115.254135 65.226012 
L 115.079824 65.417143 
L 114.415038 66.146074 
L 113.57594 67.066136 
L 112.736842 67.986199 
L 111.897744 68.906261 
L 111.058647 69.826323 
L 110.219549 70.746385 
L 109.380451 71.666448 
L 108.888639 72.205714 
L 108.541353 72.58651 
L 107.702256 73.506572 
L 106.863158 74.426634 
L 106.02406 75.346697 
L 105.184962 76.266759 
L 104.345865 77.186821 
L 103.506767 78.106883 
L 102.697455 78.994286 
L 102.667669 79.026946 
L 101.828571 79.947008 
L 100.989474 80.86707 
L 100.150376 81.787132 
L 99.311278 82.707195 
L 98.47218 83.627257 
L 97.633083 84.547319 
L 96.793985 85.467381 
L 96.506271 85.782857 
L 95.954887 86.387444 
L 95.115789 87.307506 
L 94.276692 88.227568 
L 93.437594 89.147631 
L 92.598496 90.067693 
L 91.759398 90.987755 
L 90.920301 91.907817 
L 90.315087 92.571429 
L 90.081203 92.82788 
L 89.242105 93.747942 
L 88.403008 94.668004 
L 87.56391 95.588066 
L 86.724812 96.508129 
L 85.885714 97.428191 
L 85.046617 98.348253 
L 84.207519 99.268315 
L 84.123902 99.36 
L 83.368421 100.188378 
L 82.529323 101.10844 
L 81.690226 102.028502 
L 80.851128 102.948564 
L 80.01203 103.868627 
L 79.172932 104.788689 
L 78.333835 105.708751 
L 77.932718 106.148571 
L 77.494737 106.628814 
L 76.655639 107.548876 
L 75.816541 108.468938 
L 74.977444 109.389 
L 74.138346 110.309063 
L 73.299248 111.229125 
L 72.46015 112.149187 
L 71.741534 112.937143 
L 71.621053 113.069249 
L 70.781955 113.989312 
L 69.942857 114.909374 
L 69.103759 115.829436 
L 68.264662 116.749498 
L 67.425564 117.669561 
L 66.586466 118.589623 
L 65.747368 119.509685 
L 65.55035 119.725714 
L 64.908271 120.429747 
L 64.069173 121.34981 
L 63.230075 122.269872 
L 62.390977 123.189934 
L 61.55188 124.109996 
L 60.712782 125.030059 
L 59.873684 125.950121 
L 59.359165 126.514286 
L 59.034586 126.870183 
L 58.195489 127.790246 
L 57.356391 128.710308 
L 56.517293 129.63037 
L 55.678195 130.550432 
L 54.839098 131.470495 
L 54 132.390557 
" clip-path="url(#pad7fa9e3a3)" style="fill: none; stroke: #7fbc7f; stroke-width: 1.5"/>
    <path d="M 148.558369 51.84 
L 54 155.522304 
L 54 155.522304 
" clip-path="url(#pad7fa9e3a3)" style="fill: none; stroke: #78b378; stroke-width: 1.5"/>
    <path d="M 169.654546 51.84 
L 54 178.65405 
L 54 178.65405 
" clip-path="url(#pad7fa9e3a3)" style="fill: none; stroke: #70ab70; stroke-width: 1.5"/>
    <path d="M 190.750724 51.84 
L 54 201.785797 
L 54 201.785797 
" clip-path="url(#pad7fa9e3a3)" style="fill: none; stroke: #69a369; stroke-width: 1.5"/>
    <path d="M 211.846901 51.84 
L 54 224.917544 
L 54 224.917544 
" clip-path="url(#pad7fa9e3a3)" style="fill: none; stroke: #619b61; stroke-width: 1.5"/>
    <path d="M 232.943078 51.84 
L 54 248.049291 
L 54 248.049291 
" clip-path="url(#pad7fa9e3a3)" style="fill: none; stroke: #5b945b; stroke-width: 1.5"/>
    <path d="M 254.039255 51.84 
L 54 271.181037 
L 54 271.181037 
" clip-path="url(#pad7fa9e3a3)" style="fill: none; stroke: #548d54; stroke-width: 1.5"/>
    <path d="M 275.135432 51.84 
L 54 294.312784 
L 54 294.312784 
" clip-path="url(#pad7fa9e3a3)" style="fill: none; stroke: #4e864e; stroke-width: 1.5"/>
    <path d="M 296.23161 51.84 
L 54 317.444531 
L 54 317.444531 
" clip-path="url(#pad7fa9e3a3)" style="fill: none; stroke: #477f47; stroke-width: 1.5"/>
    <path d="M 317.327787 51.84 
L 54 340.576278 
L 54 340.576278 
" clip-path="url(#pad7fa9e3a3)" style="fill: none; stroke: #427942; stroke-width: 1.5"/>
    <path d="M 338.423964 51.84 
L 54 363.708024 
L 54 363.708024 
" clip-path="url(#pad7fa9e3a3)" style="fill: none; stroke: #3c733c; stroke-width: 1.5"/>
    <path d="M 359.520141 51.84 
L 56.152114 384.48 
L 56.152114 384.48 
" clip-path="url(#pad7fa9e3a3)" style="fill: none; stroke: #376d37; stroke-width: 1.5"/>
    <path d="M 380.616318 51.84 
L 77.248291 384.48 
L 77.248291 384.48 
" clip-path="url(#pad7fa9e3a3)" style="fill: none; stroke: #316731; stroke-width: 1.5"/>
    <path d="M 388.8 65.998422 
L 98.344468 384.48 
L 98.344468 384.48 
" clip-path="url(#pad7fa9e3a3)" style="fill: none; stroke: #2d622d; stroke-width: 1.5"/>
    <path d="M 388.8 89.130169 
L 119.440645 384.48 
L 119.440645 384.48 
" clip-path="url(#pad7fa9e3a3)" style="fill: none; stroke: #285d28; stroke-width: 1.5"/>
    <path d="M 388.8 112.261916 
L 140.536822 384.48 
L 140.536822 384.48 
" clip-path="url(#pad7fa9e3a3)" style="fill: none; stroke: #245824; stroke-width: 1.5"/>
    <path d="M 388.8 135.393662 
L 161.633 384.48 
L 161.633 384.48 
" clip-path="url(#pad7fa9e3a3)" style="fill: none; stroke: #1f541f; stroke-width: 1.5"/>
    <path d="M 388.8 158.525409 
L 182.729177 384.48 
L 182.729177 384.48 
" clip-path="url(#pad7fa9e3a3)" style="fill: none; stroke: #1c501c; stroke-width: 1.5"/>
    <path d="M 388.8 181.657156 
L 203.825354 384.48 
L 203.825354 384.48 
" clip-path="url(#pad7fa9e3a3)" style="fill: none; stroke: #184c18; stroke-width: 1.5"/>
    <path d="M 388.8 204.788902 
L 224.921531 384.48 
L 224.921531 384.48 
" clip-path="url(#pad7fa9e3a3)" style="fill: none; stroke: #154815; stroke-width: 1.5"/>
    <path d="M 388.8 227.920649 
L 246.017708 384.48 
L 246.017708 384.48 
" clip-path="url(#pad7fa9e3a3)" style="fill: none; stroke: #114511; stroke-width: 1.5"/>
    <path d="M 388.8 251.052396 
L 267.113886 384.48 
L 267.113886 384.48 
" clip-path="url(#pad7fa9e3a3)" style="fill: none; stroke: #0f420f; stroke-width: 1.5"/>
    <path d="M 388.8 274.184143 
L 288.210063 384.48 
L 288.210063 384.48 
" clip-path="url(#pad7fa9e3a3)" style="fill: none; stroke: #0c3f0c; stroke-width: 1.5"/>
    <path d="M 388.8 297.315889 
L 387.960902 298.235952 
L 387.121805 299.156014 
L 386.282707 300.076076 
L 385.443609 300.996138 
L 384.604511 301.916201 
L 383.765414 302.836263 
L 383.600451 303.017143 
L 382.926316 303.756325 
L 382.087218 304.676388 
L 381.24812 305.59645 
L 380.409023 306.516512 
L 379.569925 307.436574 
L 378.730827 308.356637 
L 377.891729 309.276699 
L 377.409267 309.805714 
L 377.052632 310.196761 
L 376.213534 311.116823 
L 375.374436 312.036886 
L 374.535338 312.956948 
L 373.696241 313.87701 
L 372.857143 314.797072 
L 372.018045 315.717135 
L 371.218082 316.594286 
L 371.178947 316.637197 
L 370.33985 317.557259 
L 369.500752 318.477321 
L 368.661654 319.397384 
L 367.822556 320.317446 
L 366.983459 321.237508 
L 366.144361 322.157571 
L 365.305263 323.077633 
L 365.026898 323.382857 
L 364.466165 323.997695 
L 363.627068 324.917757 
L 362.78797 325.83782 
L 361.948872 326.757882 
L 361.109774 327.677944 
L 360.270677 328.598006 
L 359.431579 329.518069 
L 358.835714 330.171429 
L 358.592481 330.438131 
L 357.753383 331.358193 
L 356.914286 332.278255 
L 356.075188 333.198318 
L 355.23609 334.11838 
L 354.396992 335.038442 
L 353.557895 335.958504 
L 352.718797 336.878567 
L 352.64453 336.96 
L 351.879699 337.798629 
L 351.040602 338.718691 
L 350.201504 339.638753 
L 349.362406 340.558816 
L 348.523308 341.478878 
L 347.684211 342.39894 
L 346.845113 343.319003 
L 346.453346 343.748571 
L 346.006015 344.239065 
L 345.166917 345.159127 
L 344.32782 346.079189 
L 343.488722 346.999252 
L 342.649624 347.919314 
L 341.810526 348.839376 
L 340.971429 349.759438 
L 340.262161 350.537143 
L 340.132331 350.679501 
L 339.293233 351.599563 
L 338.454135 352.519625 
L 337.615038 353.439687 
L 336.77594 354.35975 
L 335.936842 355.279812 
L 335.097744 356.199874 
L 334.258647 357.119936 
L 334.070977 357.325714 
L 333.419549 358.039999 
L 332.580451 358.960061 
L 331.741353 359.880123 
L 330.902256 360.800186 
L 330.063158 361.720248 
L 329.22406 362.64031 
L 328.384962 363.560372 
L 327.879793 364.114286 
L 327.545865 364.480435 
L 326.706767 365.400497 
L 325.867669 366.320559 
L 325.028571 367.240621 
L 324.189474 368.160684 
L 323.350376 369.080746 
L 322.511278 370.000808 
L 321.688609 370.902857 
L 321.67218 370.92087 
L 320.833083 371.840933 
L 319.993985 372.760995 
L 319.154887 373.681057 
L 318.315789 374.601119 
L 317.476692 375.521182 
L 316.637594 376.441244 
L 315.798496 377.361306 
L 315.497424 377.691429 
L 314.959398 378.281368 
L 314.120301 379.201431 
L 313.281203 380.121493 
L 312.442105 381.041555 
L 311.603008 381.961618 
L 310.76391 382.88168 
L 309.924812 383.801742 
L 309.30624 384.48 
" clip-path="url(#pad7fa9e3a3)" style="fill: none; stroke: #0a3c0a; stroke-width: 1.5"/>
    <path d="M 388.8 320.447636 
L 387.960902 321.367698 
L 387.121805 322.287761 
L 386.282707 323.207823 
L 386.123075 323.382857 
L 385.443609 324.127885 
L 384.604511 325.047948 
L 383.765414 325.96801 
L 382.926316 326.888072 
L 382.087218 327.808134 
L 381.24812 328.728197 
L 380.409023 329.648259 
L 379.931891 330.171429 
L 379.569925 330.568321 
L 378.730827 331.488383 
L 377.891729 332.408446 
L 377.052632 333.328508 
L 376.213534 334.24857 
L 375.374436 335.168632 
L 374.535338 336.088695 
L 373.740707 336.96 
L 373.696241 337.008757 
L 372.857143 337.928819 
L 372.018045 338.848881 
L 371.178947 339.768944 
L 370.33985 340.689006 
L 369.500752 341.609068 
L 368.661654 342.52913 
L 367.822556 343.449193 
L 367.549523 343.748571 
L 366.983459 344.369255 
L 366.144361 345.289317 
L 365.305263 346.20938 
L 364.466165 347.129442 
L 363.627068 348.049504 
L 362.78797 348.969566 
L 361.948872 349.889629 
L 361.358338 350.537143 
L 361.109774 350.809691 
L 360.270677 351.729753 
L 359.431579 352.649815 
L 358.592481 353.569878 
L 357.753383 354.48994 
L 356.914286 355.410002 
L 356.075188 356.330064 
L 355.23609 357.250127 
L 355.167154 357.325714 
L 354.396992 358.170189 
L 353.557895 359.090251 
L 352.718797 360.010313 
L 351.879699 360.930376 
L 351.040602 361.850438 
L 350.201504 362.7705 
L 349.362406 363.690563 
L 348.97597 364.114286 
L 348.523308 364.610625 
L 347.684211 365.530687 
L 346.845113 366.450749 
L 346.006015 367.370812 
L 345.166917 368.290874 
L 344.32782 369.210936 
L 343.488722 370.130998 
L 342.784786 370.902857 
L 342.649624 371.051061 
L 341.810526 371.971123 
L 340.971429 372.891185 
L 340.132331 373.811247 
L 339.293233 374.73131 
L 338.454135 375.651372 
L 337.615038 376.571434 
L 336.77594 377.491496 
L 336.593602 377.691429 
L 335.936842 378.411559 
L 335.097744 379.331621 
L 334.258647 380.251683 
L 333.419549 381.171745 
L 332.580451 382.091808 
L 331.741353 383.01187 
L 330.902256 383.931932 
L 330.402417 384.48 
" clip-path="url(#pad7fa9e3a3)" style="fill: none; stroke: #073a07; stroke-width: 1.5"/>
    <path d="M 388.8 343.579383 
L 388.6457 343.748571 
L 387.960902 344.499445 
L 387.121805 345.419507 
L 386.282707 346.33957 
L 385.443609 347.259632 
L 384.604511 348.179694 
L 383.765414 349.099757 
L 382.926316 350.019819 
L 382.454516 350.537143 
L 382.087218 350.939881 
L 381.24812 351.859943 
L 380.409023 352.780006 
L 379.569925 353.700068 
L 378.730827 354.62013 
L 377.891729 355.540192 
L 377.052632 356.460255 
L 376.263331 357.325714 
L 376.213534 357.380317 
L 375.374436 358.300379 
L 374.535338 359.220441 
L 373.696241 360.140504 
L 372.857143 361.060566 
L 372.018045 361.980628 
L 371.178947 362.90069 
L 370.33985 363.820753 
L 370.072147 364.114286 
L 369.500752 364.740815 
L 368.661654 365.660877 
L 367.822556 366.580939 
L 366.983459 367.501002 
L 366.144361 368.421064 
L 365.305263 369.341126 
L 364.466165 370.261189 
L 363.880963 370.902857 
L 363.627068 371.181251 
L 362.78797 372.101313 
L 361.948872 373.021375 
L 361.109774 373.941438 
L 360.270677 374.8615 
L 359.431579 375.781562 
L 358.592481 376.701624 
L 357.753383 377.621687 
L 357.689779 377.691429 
L 356.914286 378.541749 
L 356.075188 379.461811 
L 355.23609 380.381873 
L 354.396992 381.301936 
L 353.557895 382.221998 
L 352.718797 383.14206 
L 351.879699 384.062122 
L 351.498594 384.48 
" clip-path="url(#pad7fa9e3a3)" style="fill: none; stroke: #063806; stroke-width: 1.5"/>
    <path d="M 388.8 366.71113 
L 387.960902 367.631192 
L 387.121805 368.551254 
L 386.282707 369.471316 
L 385.443609 370.391379 
L 384.97714 370.902857 
L 384.604511 371.311441 
L 383.765414 372.231503 
L 382.926316 373.151566 
L 382.087218 374.071628 
L 381.24812 374.99169 
L 380.409023 375.911752 
L 379.569925 376.831815 
L 378.785956 377.691429 
L 378.730827 377.751877 
L 377.891729 378.671939 
L 377.052632 379.592001 
L 376.213534 380.512064 
L 375.374436 381.432126 
L 374.535338 382.352188 
L 373.696241 383.27225 
L 372.857143 384.192313 
L 372.594772 384.48 
" clip-path="url(#pad7fa9e3a3)" style="fill: none; stroke: #043604; stroke-width: 1.5"/>
    <path clip-path="url(#pad7fa9e3a3)" style="fill: none; stroke: #033503; stroke-width: 1.5"/>
    <path clip-path="url(#pad7fa9e3a3)" style="fill: none; stroke: #013401; stroke-width: 1.5"/>
    <path clip-path="url(#pad7fa9e3a3)" style="fill: none; stroke: #013301; stroke-width: 1.5"/>
    <path clip-path="url(#pad7fa9e3a3)" style="fill: none; stroke: #003200; stroke-width: 1.5"/>
    <path clip-path="url(#pad7fa9e3a3)" style="fill: none; stroke: #003200; stroke-width: 1.5"/>
    <path clip-path="url(#pad7fa9e3a3)" style="fill: none; stroke: #003200; stroke-width: 1.5"/>
   </g>
   <g id="matplotlib.axis_1"/>
   <g id="matplotlib.axis_2"/>
   <g id="line2d_1">
    <path d="M 147.024922 226.949972 
L 101.212831 312.605346 
L 101.212831 349.944791 
L 220.345112 297.606253 
L 290.544952 214.013087 
L 341.587169 118.578889 
L 341.587169 86.375209 
L 245.830795 138.754023 
L 147.024922 226.949972 
" clip-path="url(#pad7fa9e3a3)" style="fill: none; stroke: #81d41a; stroke-width: 2; stroke-linecap: square"/>
   </g>
   <g id="line2d_2">
    <path d="M 341.587169 86.375209 
L 101.212831 349.944791 
L 341.587169 86.375209 
" clip-path="url(#pad7fa9e3a3)" style="fill: none; stroke-dasharray: 7.4,3.2; stroke-dashoffset: 0; stroke: #ec2ed7; stroke-width: 2"/>
   </g>
   <g id="PathCollection_2">
    <defs>
     <path id="m489d8fa78b" d="M 0 5 
C 1.326016 5 2.597899 4.473168 3.535534 3.535534 
C 4.473168 2.597899 5 1.326016 5 0 
C 5 -1.326016 4.473168 -2.597899 3.535534 -3.535534 
C 2.597899 -4.473168 1.326016 -5 0 -5 
C -1.326016 -5 -2.597899 -4.473168 -3.535534 -3.535534 
C -4.473168 -2.597899 -5 -1.326016 -5 0 
C -5 1.326016 -4.473168 2.597899 -3.535534 3.535534 
C -2.597899 4.473168 -1.326016 5 0 5 
z
" style="stroke: #ffffff"/>
    </defs>
    <g clip-path="url(#pad7fa9e3a3)">
     <use xlink:href="#m489d8fa78b" x="314.053841" y="263.615569" style="fill: #ffffff; stroke: #ffffff"/>
    </g>
   </g>
   <g id="Quiver_1">
    <path d="M 241.249759 196.382817 
L 306.496147 255.122264 
L 307.243117 252.416079 
L 314.053841 263.615569 
L 302.202967 258.014559 
L 304.816097 256.988424 
L 239.569708 198.248977 
L 241.249759 196.382817 
" clip-path="url(#pad7fa9e3a3)" style="fill: #ff0000"/>
   </g>
  </g>
 </g>
 <defs>
  <clipPath id="pad7fa9e3a3">
   <rect x="54" y="51.84" width="334.8" height="332.64"/>
  </clipPath>
 </defs>
</svg>
