<?xml version="1.0" encoding="utf-8" standalone="no"?>
<!DOCTYPE svg PUBLIC "-//W3C//DTD SVG 1.1//EN"
  "http://www.w3.org/Graphics/SVG/1.1/DTD/svg11.dtd">
<svg xmlns:xlink="http://www.w3.org/1999/xlink" width="430.56pt" height="419.04pt" viewBox="0 0 430.56 419.04" xmlns="http://www.w3.org/2000/svg" version="1.1">
 <metadata>
  <rdf:RDF xmlns:dc="http://purl.org/dc/elements/1.1/" xmlns:cc="http://creativecommons.org/ns#" xmlns:rdf="http://www.w3.org/1999/02/22-rdf-syntax-ns#">
   <cc:Work>
    <dc:type rdf:resource="http://purl.org/dc/dcmitype/StillImage"/>
    <dc:date>2025-03-05T20:45:23.138525</dc:date>
    <dc:format>image/svg+xml</dc:format>
    <dc:creator>
     <cc:Agent>
      <dc:title>Matplotlib v3.10.0, https://matplotlib.org/</dc:title>
     </cc:Agent>
    </dc:creator>
   </cc:Work>
  </rdf:RDF>
 </metadata>
 <defs>
  <style type="text/css">*{stroke-linejoin: round; stroke-linecap: butt}</style>
 </defs>
 <g id="figure_1">
  <g id="patch_1">
   <path d="M 0 419.04 
L 430.56 419.04 
L 430.56 0 
L 0 0 
z
" style="fill: #191919"/>
  </g>
  <g id="axes_1">
   <g id="patch_2">
    <path d="M 53.82 372.9456 
L 387.504 372.9456 
L 387.504 50.2848 
L 53.82 50.2848 
z
" style="fill: #191919"/>
   </g>
   <g id="matplotlib.axis_1">
    <g id="xtick_1">
     <g id="line2d_1">
      <defs>
       <path id="m5b0722fb2a" d="M 0 0 
L 0 3.5 
" style="stroke: #ffffff; stroke-width: 0.8"/>
      </defs>
      <g>
       <use xlink:href="#m5b0722fb2a" x="53.82" y="372.9456" style="fill: #ffffff; stroke: #ffffff; stroke-width: 0.8"/>
      </g>
     </g>
     <g id="text_1">
      <!-- −2.0 -->
      <g style="fill: #ffffff" transform="translate(41.678594 387.544038) scale(0.1 -0.1)">
       <defs>
        <path id="DejaVuSans-2212" d="M 678 2272 
L 4684 2272 
L 4684 1741 
L 678 1741 
L 678 2272 
z
" transform="scale(0.015625)"/>
        <path id="DejaVuSans-32" d="M 1228 531 
L 3431 531 
L 3431 0 
L 469 0 
L 469 531 
Q 828 903 1448 1529 
Q 2069 2156 2228 2338 
Q 2531 2678 2651 2914 
Q 2772 3150 2772 3378 
Q 2772 3750 2511 3984 
Q 2250 4219 1831 4219 
Q 1534 4219 1204 4116 
Q 875 4013 500 3803 
L 500 4441 
Q 881 4594 1212 4672 
Q 1544 4750 1819 4750 
Q 2544 4750 2975 4387 
Q 3406 4025 3406 3419 
Q 3406 3131 3298 2873 
Q 3191 2616 2906 2266 
Q 2828 2175 2409 1742 
Q 1991 1309 1228 531 
z
" transform="scale(0.015625)"/>
        <path id="DejaVuSans-2e" d="M 684 794 
L 1344 794 
L 1344 0 
L 684 0 
L 684 794 
z
" transform="scale(0.015625)"/>
        <path id="DejaVuSans-30" d="M 2034 4250 
Q 1547 4250 1301 3770 
Q 1056 3291 1056 2328 
Q 1056 1369 1301 889 
Q 1547 409 2034 409 
Q 2525 409 2770 889 
Q 3016 1369 3016 2328 
Q 3016 3291 2770 3770 
Q 2525 4250 2034 4250 
z
M 2034 4750 
Q 2819 4750 3233 4129 
Q 3647 3509 3647 2328 
Q 3647 1150 3233 529 
Q 2819 -91 2034 -91 
Q 1250 -91 836 529 
Q 422 1150 422 2328 
Q 422 3509 836 4129 
Q 1250 4750 2034 4750 
z
" transform="scale(0.015625)"/>
       </defs>
       <use xlink:href="#DejaVuSans-2212"/>
       <use xlink:href="#DejaVuSans-32" transform="translate(83.789062 0)"/>
       <use xlink:href="#DejaVuSans-2e" transform="translate(147.412109 0)"/>
       <use xlink:href="#DejaVuSans-30" transform="translate(179.199219 0)"/>
      </g>
     </g>
    </g>
    <g id="xtick_2">
     <g id="line2d_2">
      <g>
       <use xlink:href="#m5b0722fb2a" x="95.5305" y="372.9456" style="fill: #ffffff; stroke: #ffffff; stroke-width: 0.8"/>
      </g>
     </g>
     <g id="text_2">
      <!-- −1.5 -->
      <g style="fill: #ffffff" transform="translate(83.389094 387.544038) scale(0.1 -0.1)">
       <defs>
        <path id="DejaVuSans-31" d="M 794 531 
L 1825 531 
L 1825 4091 
L 703 3866 
L 703 4441 
L 1819 4666 
L 2450 4666 
L 2450 531 
L 3481 531 
L 3481 0 
L 794 0 
L 794 531 
z
" transform="scale(0.015625)"/>
        <path id="DejaVuSans-35" d="M 691 4666 
L 3169 4666 
L 3169 4134 
L 1269 4134 
L 1269 2991 
Q 1406 3038 1543 3061 
Q 1681 3084 1819 3084 
Q 2600 3084 3056 2656 
Q 3513 2228 3513 1497 
Q 3513 744 3044 326 
Q 2575 -91 1722 -91 
Q 1428 -91 1123 -41 
Q 819 9 494 109 
L 494 744 
Q 775 591 1075 516 
Q 1375 441 1709 441 
Q 2250 441 2565 725 
Q 2881 1009 2881 1497 
Q 2881 1984 2565 2268 
Q 2250 2553 1709 2553 
Q 1456 2553 1204 2497 
Q 953 2441 691 2322 
L 691 4666 
z
" transform="scale(0.015625)"/>
       </defs>
       <use xlink:href="#DejaVuSans-2212"/>
       <use xlink:href="#DejaVuSans-31" transform="translate(83.789062 0)"/>
       <use xlink:href="#DejaVuSans-2e" transform="translate(147.412109 0)"/>
       <use xlink:href="#DejaVuSans-35" transform="translate(179.199219 0)"/>
      </g>
     </g>
    </g>
    <g id="xtick_3">
     <g id="line2d_3">
      <g>
       <use xlink:href="#m5b0722fb2a" x="137.241" y="372.9456" style="fill: #ffffff; stroke: #ffffff; stroke-width: 0.8"/>
      </g>
     </g>
     <g id="text_3">
      <!-- −1.0 -->
      <g style="fill: #ffffff" transform="translate(125.099594 387.544038) scale(0.1 -0.1)">
       <use xlink:href="#DejaVuSans-2212"/>
       <use xlink:href="#DejaVuSans-31" transform="translate(83.789062 0)"/>
       <use xlink:href="#DejaVuSans-2e" transform="translate(147.412109 0)"/>
       <use xlink:href="#DejaVuSans-30" transform="translate(179.199219 0)"/>
      </g>
     </g>
    </g>
    <g id="xtick_4">
     <g id="line2d_4">
      <g>
       <use xlink:href="#m5b0722fb2a" x="178.9515" y="372.9456" style="fill: #ffffff; stroke: #ffffff; stroke-width: 0.8"/>
      </g>
     </g>
     <g id="text_4">
      <!-- −0.5 -->
      <g style="fill: #ffffff" transform="translate(166.810094 387.544038) scale(0.1 -0.1)">
       <use xlink:href="#DejaVuSans-2212"/>
       <use xlink:href="#DejaVuSans-30" transform="translate(83.789062 0)"/>
       <use xlink:href="#DejaVuSans-2e" transform="translate(147.412109 0)"/>
       <use xlink:href="#DejaVuSans-35" transform="translate(179.199219 0)"/>
      </g>
     </g>
    </g>
    <g id="xtick_5">
     <g id="line2d_5">
      <g>
       <use xlink:href="#m5b0722fb2a" x="220.662" y="372.9456" style="fill: #ffffff; stroke: #ffffff; stroke-width: 0.8"/>
      </g>
     </g>
     <g id="text_5">
      <!-- 0.0 -->
      <g style="fill: #ffffff" transform="translate(212.710438 387.544038) scale(0.1 -0.1)">
       <use xlink:href="#DejaVuSans-30"/>
       <use xlink:href="#DejaVuSans-2e" transform="translate(63.623047 0)"/>
       <use xlink:href="#DejaVuSans-30" transform="translate(95.410156 0)"/>
      </g>
     </g>
    </g>
    <g id="xtick_6">
     <g id="line2d_6">
      <g>
       <use xlink:href="#m5b0722fb2a" x="262.3725" y="372.9456" style="fill: #ffffff; stroke: #ffffff; stroke-width: 0.8"/>
      </g>
     </g>
     <g id="text_6">
      <!-- 0.5 -->
      <g style="fill: #ffffff" transform="translate(254.420938 387.544038) scale(0.1 -0.1)">
       <use xlink:href="#DejaVuSans-30"/>
       <use xlink:href="#DejaVuSans-2e" transform="translate(63.623047 0)"/>
       <use xlink:href="#DejaVuSans-35" transform="translate(95.410156 0)"/>
      </g>
     </g>
    </g>
    <g id="xtick_7">
     <g id="line2d_7">
      <g>
       <use xlink:href="#m5b0722fb2a" x="304.083" y="372.9456" style="fill: #ffffff; stroke: #ffffff; stroke-width: 0.8"/>
      </g>
     </g>
     <g id="text_7">
      <!-- 1.0 -->
      <g style="fill: #ffffff" transform="translate(296.131438 387.544038) scale(0.1 -0.1)">
       <use xlink:href="#DejaVuSans-31"/>
       <use xlink:href="#DejaVuSans-2e" transform="translate(63.623047 0)"/>
       <use xlink:href="#DejaVuSans-30" transform="translate(95.410156 0)"/>
      </g>
     </g>
    </g>
    <g id="xtick_8">
     <g id="line2d_8">
      <g>
       <use xlink:href="#m5b0722fb2a" x="345.7935" y="372.9456" style="fill: #ffffff; stroke: #ffffff; stroke-width: 0.8"/>
      </g>
     </g>
     <g id="text_8">
      <!-- 1.5 -->
      <g style="fill: #ffffff" transform="translate(337.841938 387.544038) scale(0.1 -0.1)">
       <use xlink:href="#DejaVuSans-31"/>
       <use xlink:href="#DejaVuSans-2e" transform="translate(63.623047 0)"/>
       <use xlink:href="#DejaVuSans-35" transform="translate(95.410156 0)"/>
      </g>
     </g>
    </g>
    <g id="xtick_9">
     <g id="line2d_9">
      <g>
       <use xlink:href="#m5b0722fb2a" x="387.504" y="372.9456" style="fill: #ffffff; stroke: #ffffff; stroke-width: 0.8"/>
      </g>
     </g>
     <g id="text_9">
      <!-- 2.0 -->
      <g style="fill: #ffffff" transform="translate(379.552438 387.544038) scale(0.1 -0.1)">
       <use xlink:href="#DejaVuSans-32"/>
       <use xlink:href="#DejaVuSans-2e" transform="translate(63.623047 0)"/>
       <use xlink:href="#DejaVuSans-30" transform="translate(95.410156 0)"/>
      </g>
     </g>
    </g>
    <g id="text_10">
     <!-- $x$ -->
     <g style="fill: #ffffff" transform="translate(215.862 405.781225) scale(0.16 -0.16)">
      <defs>
       <path id="DejaVuSans-Oblique-78" d="M 3841 3500 
L 2234 1784 
L 3219 0 
L 2559 0 
L 1819 1388 
L 531 0 
L -166 0 
L 1556 1844 
L 641 3500 
L 1300 3500 
L 1972 2234 
L 3144 3500 
L 3841 3500 
z
" transform="scale(0.015625)"/>
      </defs>
      <use xlink:href="#DejaVuSans-Oblique-78" transform="translate(0 0.3125)"/>
     </g>
    </g>
   </g>
   <g id="matplotlib.axis_2">
    <g id="ytick_1">
     <g id="line2d_10">
      <defs>
       <path id="mbd547df50c" d="M 0 0 
L -3.5 0 
" style="stroke: #ffffff; stroke-width: 0.8"/>
      </defs>
      <g>
       <use xlink:href="#mbd547df50c" x="53.82" y="372.9456" style="fill: #ffffff; stroke: #ffffff; stroke-width: 0.8"/>
      </g>
     </g>
     <g id="text_11">
      <!-- −2.0 -->
      <g style="fill: #ffffff" transform="translate(22.537188 376.744819) scale(0.1 -0.1)">
       <use xlink:href="#DejaVuSans-2212"/>
       <use xlink:href="#DejaVuSans-32" transform="translate(83.789062 0)"/>
       <use xlink:href="#DejaVuSans-2e" transform="translate(147.412109 0)"/>
       <use xlink:href="#DejaVuSans-30" transform="translate(179.199219 0)"/>
      </g>
     </g>
    </g>
    <g id="ytick_2">
     <g id="line2d_11">
      <g>
       <use xlink:href="#mbd547df50c" x="53.82" y="332.613" style="fill: #ffffff; stroke: #ffffff; stroke-width: 0.8"/>
      </g>
     </g>
     <g id="text_12">
      <!-- −1.5 -->
      <g style="fill: #ffffff" transform="translate(22.537188 336.412219) scale(0.1 -0.1)">
       <use xlink:href="#DejaVuSans-2212"/>
       <use xlink:href="#DejaVuSans-31" transform="translate(83.789062 0)"/>
       <use xlink:href="#DejaVuSans-2e" transform="translate(147.412109 0)"/>
       <use xlink:href="#DejaVuSans-35" transform="translate(179.199219 0)"/>
      </g>
     </g>
    </g>
    <g id="ytick_3">
     <g id="line2d_12">
      <g>
       <use xlink:href="#mbd547df50c" x="53.82" y="292.2804" style="fill: #ffffff; stroke: #ffffff; stroke-width: 0.8"/>
      </g>
     </g>
     <g id="text_13">
      <!-- −1.0 -->
      <g style="fill: #ffffff" transform="translate(22.537188 296.079619) scale(0.1 -0.1)">
       <use xlink:href="#DejaVuSans-2212"/>
       <use xlink:href="#DejaVuSans-31" transform="translate(83.789062 0)"/>
       <use xlink:href="#DejaVuSans-2e" transform="translate(147.412109 0)"/>
       <use xlink:href="#DejaVuSans-30" transform="translate(179.199219 0)"/>
      </g>
     </g>
    </g>
    <g id="ytick_4">
     <g id="line2d_13">
      <g>
       <use xlink:href="#mbd547df50c" x="53.82" y="251.9478" style="fill: #ffffff; stroke: #ffffff; stroke-width: 0.8"/>
      </g>
     </g>
     <g id="text_14">
      <!-- −0.5 -->
      <g style="fill: #ffffff" transform="translate(22.537188 255.747019) scale(0.1 -0.1)">
       <use xlink:href="#DejaVuSans-2212"/>
       <use xlink:href="#DejaVuSans-30" transform="translate(83.789062 0)"/>
       <use xlink:href="#DejaVuSans-2e" transform="translate(147.412109 0)"/>
       <use xlink:href="#DejaVuSans-35" transform="translate(179.199219 0)"/>
      </g>
     </g>
    </g>
    <g id="ytick_5">
     <g id="line2d_14">
      <g>
       <use xlink:href="#mbd547df50c" x="53.82" y="211.6152" style="fill: #ffffff; stroke: #ffffff; stroke-width: 0.8"/>
      </g>
     </g>
     <g id="text_15">
      <!-- 0.0 -->
      <g style="fill: #ffffff" transform="translate(30.916875 215.414419) scale(0.1 -0.1)">
       <use xlink:href="#DejaVuSans-30"/>
       <use xlink:href="#DejaVuSans-2e" transform="translate(63.623047 0)"/>
       <use xlink:href="#DejaVuSans-30" transform="translate(95.410156 0)"/>
      </g>
     </g>
    </g>
    <g id="ytick_6">
     <g id="line2d_15">
      <g>
       <use xlink:href="#mbd547df50c" x="53.82" y="171.2826" style="fill: #ffffff; stroke: #ffffff; stroke-width: 0.8"/>
      </g>
     </g>
     <g id="text_16">
      <!-- 0.5 -->
      <g style="fill: #ffffff" transform="translate(30.916875 175.081819) scale(0.1 -0.1)">
       <use xlink:href="#DejaVuSans-30"/>
       <use xlink:href="#DejaVuSans-2e" transform="translate(63.623047 0)"/>
       <use xlink:href="#DejaVuSans-35" transform="translate(95.410156 0)"/>
      </g>
     </g>
    </g>
    <g id="ytick_7">
     <g id="line2d_16">
      <g>
       <use xlink:href="#mbd547df50c" x="53.82" y="130.95" style="fill: #ffffff; stroke: #ffffff; stroke-width: 0.8"/>
      </g>
     </g>
     <g id="text_17">
      <!-- 1.0 -->
      <g style="fill: #ffffff" transform="translate(30.916875 134.749219) scale(0.1 -0.1)">
       <use xlink:href="#DejaVuSans-31"/>
       <use xlink:href="#DejaVuSans-2e" transform="translate(63.623047 0)"/>
       <use xlink:href="#DejaVuSans-30" transform="translate(95.410156 0)"/>
      </g>
     </g>
    </g>
    <g id="ytick_8">
     <g id="line2d_17">
      <g>
       <use xlink:href="#mbd547df50c" x="53.82" y="90.6174" style="fill: #ffffff; stroke: #ffffff; stroke-width: 0.8"/>
      </g>
     </g>
     <g id="text_18">
      <!-- 1.5 -->
      <g style="fill: #ffffff" transform="translate(30.916875 94.416619) scale(0.1 -0.1)">
       <use xlink:href="#DejaVuSans-31"/>
       <use xlink:href="#DejaVuSans-2e" transform="translate(63.623047 0)"/>
       <use xlink:href="#DejaVuSans-35" transform="translate(95.410156 0)"/>
      </g>
     </g>
    </g>
    <g id="ytick_9">
     <g id="line2d_18">
      <g>
       <use xlink:href="#mbd547df50c" x="53.82" y="50.2848" style="fill: #ffffff; stroke: #ffffff; stroke-width: 0.8"/>
      </g>
     </g>
     <g id="text_19">
      <!-- 2.0 -->
      <g style="fill: #ffffff" transform="translate(30.916875 54.084019) scale(0.1 -0.1)">
       <use xlink:href="#DejaVuSans-32"/>
       <use xlink:href="#DejaVuSans-2e" transform="translate(63.623047 0)"/>
       <use xlink:href="#DejaVuSans-30" transform="translate(95.410156 0)"/>
      </g>
     </g>
    </g>
    <g id="text_20">
     <!-- $y$ -->
     <g style="fill: #ffffff" transform="translate(15.177188 216.4152) rotate(-90) scale(0.16 -0.16)">
      <defs>
       <path id="DejaVuSans-Oblique-79" d="M 1588 -325 
Q 1188 -997 936 -1164 
Q 684 -1331 294 -1331 
L -159 -1331 
L -63 -850 
L 269 -850 
Q 509 -850 678 -719 
Q 847 -588 1056 -206 
L 1234 128 
L 459 3500 
L 1069 3500 
L 1650 819 
L 3256 3500 
L 3859 3500 
L 1588 -325 
z
" transform="scale(0.015625)"/>
      </defs>
      <use xlink:href="#DejaVuSans-Oblique-79" transform="translate(0 0.3125)"/>
     </g>
    </g>
   </g>
   <g id="QuadContourSet_1">
    <path clip-path="url(#p10b6036828)" style="fill: none; stroke: #9bff9b; stroke-width: 1.5"/>
    <path d="M 204.097289 199.279225 
L 204.354135 195.036769 
L 204.760365 191.802695 
L 205.230531 189.376674 
L 206.026737 186.627861 
L 206.884575 184.524632 
L 207.751401 182.907284 
L 208.864004 181.289937 
L 210.309547 179.672589 
L 211.880842 178.357301 
L 213.665237 177.246568 
L 215.512168 176.437895 
L 216.898647 176.015378 
L 219.063532 175.629221 
L 220.24385 175.548758 
L 222.260468 175.629221 
L 223.589053 175.826486 
L 225.811832 176.437895 
L 226.934256 176.895917 
L 228.606857 177.793287 
L 230.279459 179.009726 
L 231.95206 180.666607 
L 233.049641 182.098611 
L 234.026399 183.715958 
L 234.796126 185.333305 
L 235.660564 187.759326 
L 236.269782 190.185347 
L 236.793691 193.420042 
L 237.094896 196.654737 
L 237.289725 201.506779 
L 237.341015 210.402189 
L 237.24814 223.340968 
L 236.969865 228.193631 
L 236.563635 231.427705 
L 236.093469 233.853726 
L 235.297263 236.602539 
L 234.439425 238.705768 
L 233.572599 240.323116 
L 232.459996 241.940463 
L 231.014453 243.557811 
L 229.443158 244.873099 
L 227.658763 245.983832 
L 225.811832 246.792505 
L 224.425353 247.215022 
L 222.260468 247.601179 
L 221.08015 247.681642 
L 219.063532 247.601179 
L 217.734947 247.403914 
L 215.512168 246.792505 
L 214.389744 246.334483 
L 212.717143 245.437113 
L 211.044541 244.220674 
L 209.37194 242.563793 
L 208.274359 241.131789 
L 207.297601 239.514442 
L 206.527874 237.897095 
L 205.663436 235.471074 
L 205.054218 233.045053 
L 204.530309 229.810358 
L 204.503975 229.584419 
L 204.503975 229.584419 
" clip-path="url(#p10b6036828)" style="fill: none; stroke: #99fd99; stroke-width: 1.5"/>
    <path d="M 253.935798 225.514825 
L 253.69588 230.780327 
L 253.325483 234.6624 
L 252.83354 237.897095 
L 252.10449 241.131789 
L 251.186977 244.032353 
L 250.350677 246.081699 
L 249.157908 248.409853 
L 247.841774 250.466218 
L 246.278679 252.453221 
L 244.496571 254.290194 
L 242.82397 255.725318 
L 240.315068 257.474695 
L 237.695409 258.922611 
L 235.297263 259.974639 
L 232.788361 260.852717 
L 230.279459 261.534637 
L 226.934256 262.175188 
L 223.589053 262.529138 
L 220.24385 262.625671 
L 216.898647 262.464784 
L 213.553444 262.041029 
L 210.208241 261.331253 
L 207.561007 260.539958 
L 205.190436 259.634646 
L 202.681534 258.435014 
L 200.737142 257.305263 
L 198.452118 255.687916 
L 196.593036 254.070568 
L 195.045321 252.453221 
L 193.482226 250.466218 
L 192.166092 248.409853 
L 190.928387 245.983832 
L 189.966369 243.557811 
L 189.21951 241.131789 
L 188.464421 237.751864 
L 187.998517 234.6624 
L 187.616528 230.619032 
L 187.394646 225.766989 
L 187.301593 218.488926 
L 187.356751 199.080758 
L 187.565372 193.420042 
L 187.903868 189.376674 
L 188.464421 185.478536 
L 189.01308 182.907284 
L 189.696825 180.481263 
L 190.582389 178.055242 
L 191.809624 175.460303 
L 193.176359 173.2032 
L 194.367432 171.585853 
L 195.991128 169.756983 
L 197.663729 168.192752 
L 199.533628 166.733811 
L 202.089568 165.116463 
L 204.354135 163.967919 
L 206.863038 162.939144 
L 209.37194 162.129553 
L 211.880842 161.510086 
L 215.226045 160.942592 
L 218.571248 160.652996 
L 221.916451 160.620818 
L 225.261654 160.84606 
L 228.606857 161.341289 
L 231.95206 162.129553 
L 234.460962 162.939144 
L 236.969865 163.967919 
L 239.478767 165.256086 
L 241.987669 166.876418 
L 243.845464 168.351158 
L 245.538972 169.968505 
L 247.005474 171.647839 
L 248.678075 174.014332 
L 250.014985 176.437895 
L 251.06348 178.863916 
L 251.876514 181.289937 
L 252.500624 183.715958 
L 253.10392 186.950653 
L 253.580784 190.994021 
L 253.852932 195.291991 
L 253.852932 195.291991 
" clip-path="url(#p10b6036828)" style="fill: none; stroke: #93f793; stroke-width: 1.5"/>
    <path d="M 170.893139 191.252536 
L 171.222439 186.950653 
L 171.738406 182.900715 
L 172.3504 179.672589 
L 173.191556 176.437895 
L 174.247308 173.394001 
L 175.083609 171.450899 
L 176.264936 169.159832 
L 177.787511 166.733811 
L 179.65156 164.307789 
L 181.774015 162.040825 
L 183.753497 160.264421 
L 185.955519 158.577736 
L 188.464421 156.943925 
L 191.248927 155.412379 
L 194.318526 154.002155 
L 196.930622 152.986358 
L 200.172632 151.935967 
L 203.517835 151.055351 
L 207.699338 150.211261 
L 211.880842 149.620801 
L 216.062346 149.268317 
L 220.24385 149.136136 
L 224.425353 149.224257 
L 228.606857 149.53268 
L 232.788361 150.073793 
L 236.969865 150.864631 
L 240.315068 151.697699 
L 243.660271 152.732528 
L 247.005474 154.002155 
L 250.350677 155.553629 
L 253.003383 157.029726 
L 255.467147 158.647074 
L 257.877383 160.524186 
L 259.549985 162.040825 
L 261.67244 164.307789 
L 263.536489 166.733811 
L 265.059064 169.159832 
L 266.304154 171.585853 
L 267.31484 174.011874 
L 268.366951 177.246568 
L 269.145551 180.481263 
L 269.708856 183.715958 
L 270.178509 187.759326 
L 270.499402 192.611368 
L 270.672587 199.080758 
L 270.713014 212.019537 
L 270.611741 227.384337 
L 270.366681 233.045053 
L 269.923276 237.897095 
L 269.304612 241.940463 
L 268.585476 245.175158 
L 267.607055 248.409853 
L 266.663769 250.835874 
L 265.40409 253.444986 
L 264.078121 255.687916 
L 262.336183 258.113937 
L 260.386286 260.347246 
L 258.511443 262.157305 
L 256.204782 264.040662 
L 253.69588 265.768717 
L 251.186977 267.23591 
L 248.387091 268.626695 
L 245.332872 269.894232 
L 241.965841 271.052716 
L 237.806165 272.175049 
L 233.624662 273.019139 
L 229.443158 273.609599 
L 225.261654 273.962083 
L 221.08015 274.094264 
L 216.898647 274.006143 
L 212.717143 273.69772 
L 208.535639 273.156607 
L 204.354135 272.365769 
L 201.008932 271.532701 
L 197.663729 270.497872 
L 194.318526 269.228245 
L 190.973323 267.676771 
L 188.320617 266.200674 
L 185.856853 264.583326 
L 183.446617 262.706214 
L 181.774015 261.189575 
L 179.65156 258.922611 
L 177.787511 256.496589 
L 176.264936 254.070568 
L 175.019846 251.644547 
L 174.00916 249.218526 
L 172.957049 245.983832 
L 172.178449 242.749137 
L 171.615144 239.514442 
L 171.145491 235.471074 
L 170.824598 230.619032 
L 170.651413 224.149642 
L 170.62658 221.472585 
L 170.62658 221.472585 
" clip-path="url(#p10b6036828)" style="fill: none; stroke: #89ed89; stroke-width: 1.5"/>
    <path d="M 209.37194 283.241567 
L 204.354135 282.65915 
L 199.336331 281.844324 
L 195.154827 280.968668 
L 190.973323 279.893437 
L 186.79182 278.584199 
L 183.446617 277.346854 
L 180.091292 275.904758 
L 176.756211 274.226522 
L 173.411008 272.241885 
L 170.902105 270.508304 
L 168.534475 268.626695 
L 166.720602 266.977483 
L 164.44931 264.583326 
L 162.513692 262.157305 
L 160.866496 259.693703 
L 159.528246 257.305263 
L 158.357594 254.804 
L 157.166942 251.644547 
L 156.223151 248.409853 
L 155.507273 245.175158 
L 154.867308 241.131789 
L 154.383476 236.279747 
L 154.086507 230.619032 
L 153.949519 223.340968 
L 153.92796 205.550147 
L 154.038544 194.228716 
L 154.326008 187.759326 
L 154.768012 182.907284 
L 155.358717 178.863916 
L 156.02419 175.629221 
L 156.906694 172.394526 
L 158.054932 169.159832 
L 159.193895 166.593686 
L 160.409246 164.307789 
L 161.941329 161.881768 
L 163.766888 159.455747 
L 165.939433 157.029726 
L 168.534475 154.603705 
L 170.902105 152.722096 
L 173.411008 150.988515 
L 175.91991 149.470918 
L 179.265113 147.720625 
L 182.610316 146.224197 
L 186.057135 144.899621 
L 190.137023 143.581316 
L 194.318526 142.457806 
L 199.336331 141.386076 
L 204.354135 140.57125 
L 209.37194 139.988833 
L 214.389744 139.62931 
L 219.407549 139.475229 
L 224.425353 139.52659 
L 229.443158 139.783391 
L 234.460962 140.252463 
L 239.478767 140.9462 
L 244.496571 141.888558 
L 248.678075 142.883047 
L 252.861352 144.090947 
L 257.437363 145.708295 
L 261.232708 147.325642 
L 264.567789 149.003878 
L 267.912992 150.988515 
L 270.421895 152.722096 
L 272.789525 154.603705 
L 274.603398 156.252917 
L 276.87469 158.647074 
L 278.810308 161.073095 
L 280.457504 163.536697 
L 281.795754 165.925137 
L 282.966406 168.4264 
L 284.157058 171.585853 
L 285.100849 174.820547 
L 285.816727 178.055242 
L 286.456692 182.098611 
L 286.940524 186.950653 
L 287.237493 192.611368 
L 287.309032 195.234739 
M 287.350947 225.570263 
L 287.14791 232.842205 
L 286.807375 237.897095 
L 286.311609 242.198635 
L 285.657036 245.983832 
L 284.888329 249.218526 
L 283.880551 252.453221 
L 282.934936 254.879242 
L 281.795754 257.305263 
L 280.434904 259.731284 
L 278.784902 262.191518 
L 276.87469 264.583326 
L 274.570854 267.009347 
L 272.094496 269.205863 
L 269.675691 271.052716 
L 267.076692 272.771778 
L 263.731489 274.669664 
L 260.386286 276.286576 
L 257.041083 277.674232 
L 252.859579 279.140014 
L 248.678075 280.347353 
L 244.496571 281.341842 
L 240.315068 282.143684 
L 235.297263 282.877578 
L 230.279459 283.384235 
L 225.261654 283.675277 
L 220.24385 283.760877 
L 215.226045 283.641037 
L 210.208241 283.315755 
L 209.37194 283.241567 
L 209.37194 283.241567 
" clip-path="url(#p10b6036828)" style="fill: none; stroke: #7ce07c; stroke-width: 1.5"/>
    <path d="M 137.24371 204.992468 
L 137.349489 193.420042 
L 137.607022 186.950653 
L 137.99311 182.098611 
L 138.500958 178.055242 
L 139.235045 174.011874 
L 140.027925 170.777179 
L 141.045525 167.542484 
L 142.331069 164.307789 
L 143.50375 161.881768 
L 144.976782 159.306636 
L 146.649383 156.82852 
L 148.394549 154.603705 
L 150.830887 151.955624 
L 153.339789 149.629437 
L 156.233126 147.325642 
L 159.193895 145.293414 
L 161.702797 143.771293 
L 165.048 141.977037 
L 168.393203 140.405887 
L 171.738406 139.020371 
L 175.91991 137.510024 
L 180.937714 135.973304 
L 185.955519 134.696155 
L 191.278091 133.578189 
L 196.827429 132.650731 
L 202.681534 131.904447 
L 208.535639 131.382023 
L 214.389744 131.06542 
L 220.24385 130.952773 
L 226.097955 131.037258 
L 231.95206 131.323976 
L 237.806165 131.817376 
L 243.660271 132.531046 
L 249.514376 133.480133 
L 254.53218 134.503771 
L 259.549985 135.745652 
L 263.731489 136.967546 
L 268.031297 138.430232 
L 272.112106 140.047579 
L 276.276 141.977037 
L 279.621203 143.771293 
L 282.772708 145.708295 
L 285.475308 147.614458 
L 288.127417 149.751663 
L 290.715802 152.177684 
L 293.002015 154.691226 
L 294.82239 157.029726 
L 296.440765 159.455747 
L 298.01982 162.270877 
L 299.341875 165.116463 
L 300.556831 168.351158 
L 301.513431 171.585853 
L 302.257082 174.820547 
L 302.94128 178.863916 
L 303.410126 182.907284 
L 303.762836 187.759326 
L 303.992419 194.228716 
L 304.078793 203.9328 
L 304.007996 228.193011 
L 303.762836 235.471074 
L 303.33089 241.131789 
L 302.823042 245.175158 
L 302.088955 249.218526 
L 301.296075 252.453221 
L 300.278475 255.687916 
L 298.992931 258.922611 
L 297.82025 261.348632 
L 296.347218 263.923764 
L 294.674617 266.40188 
L 292.929451 268.626695 
L 290.493113 271.274776 
L 287.984211 273.600963 
L 285.090874 275.904758 
L 282.130105 277.936986 
L 279.621203 279.459107 
L 276.276 281.253363 
L 272.930797 282.824513 
L 269.585594 284.210029 
L 265.40409 285.720376 
L 260.386286 287.257096 
L 255.368481 288.534245 
L 250.045909 289.652211 
L 244.496571 290.579669 
L 238.642466 291.325953 
L 232.788361 291.848377 
L 226.934256 292.16498 
L 221.08015 292.277627 
L 215.226045 292.193142 
L 209.37194 291.906424 
L 203.517835 291.413024 
L 197.663729 290.699354 
L 191.809624 289.750267 
L 186.79182 288.726629 
L 181.774015 287.484748 
L 177.592511 286.262854 
L 173.292703 284.800168 
L 169.211894 283.182821 
L 165.048 281.253363 
L 161.702797 279.459107 
L 158.551292 277.522105 
L 155.848692 275.615942 
L 153.196583 273.478737 
L 150.608198 271.052716 
L 148.321985 268.539174 
L 146.50161 266.200674 
L 144.883235 263.774653 
L 143.30418 260.959523 
L 141.982125 258.113937 
L 140.767169 254.879242 
L 139.810569 251.644547 
L 139.066918 248.409853 
L 138.38272 244.366484 
L 137.913874 240.323116 
L 137.547915 235.21242 
L 137.547915 235.21242 
" clip-path="url(#p10b6036828)" style="fill: none; stroke: #6bcf6b; stroke-width: 1.5"/>
    <path d="M 204.354135 299.386893 
L 197.663729 298.787343 
L 190.973323 297.96655 
L 184.424707 296.930274 
L 178.428812 295.751081 
L 172.574707 294.368368 
L 166.720602 292.716197 
L 161.702797 291.049917 
L 157.521293 289.453311 
L 153.339789 287.630124 
L 149.290107 285.608842 
L 145.813083 283.618353 
L 142.46788 281.436875 
L 139.397641 279.139453 
L 136.583137 276.713432 
L 134.104872 274.244367 
L 132.030484 271.861389 
L 129.923368 269.037541 
L 128.250767 266.402056 
L 126.830603 263.774653 
L 125.377366 260.539958 
L 124.201327 257.305263 
L 123.232962 253.960932 
L 122.36045 250.0272 
L 121.709376 245.983832 
L 121.18276 241.131789 
L 120.82341 235.471074 
L 120.619208 228.193011 
L 120.557678 216.062905 
L 120.647112 193.420042 
L 120.903654 186.141979 
L 121.331851 180.481263 
L 121.944021 175.629221 
L 122.688101 171.585853 
L 123.476352 168.351158 
L 124.472051 165.116463 
L 125.741865 161.813246 
L 127.242809 158.647074 
L 128.611635 156.221053 
L 130.197438 153.795032 
L 132.030484 151.369011 
L 134.144533 148.942989 
L 136.613774 146.488959 
L 139.397641 144.090947 
L 142.650714 141.664926 
L 145.813083 139.612047 
L 149.290107 137.621558 
L 153.339789 135.600276 
L 157.521293 133.777089 
L 161.702797 132.180483 
L 165.884301 130.775703 
L 170.902105 129.305583 
L 176.756211 127.8477 
L 182.610316 126.634764 
L 188.464421 125.632291 
L 194.318526 124.823789 
L 201.008932 124.117303 
L 207.699338 123.626047 
L 214.389744 123.340243 
L 221.08015 123.253259 
L 227.770556 123.365096 
L 234.460962 123.675752 
L 241.151368 124.193951 
L 247.841774 124.928878 
L 254.53218 125.899142 
L 260.386286 126.957966 
L 265.40409 128.040777 
L 271.264616 129.534821 
L 277.112301 131.315627 
L 282.130105 133.114207 
L 286.311609 134.841552 
L 289.656812 136.402364 
L 293.502614 138.430232 
L 297.183519 140.665558 
L 299.811458 142.4736 
L 303.037624 145.008752 
L 305.592589 147.325642 
L 308.055429 149.908522 
L 309.934223 152.177684 
L 311.681074 154.603705 
L 313.191821 157.029726 
L 314.745835 159.974562 
L 315.946634 162.690442 
L 317.122673 165.925137 
L 318.091038 169.269468 
L 318.96355 173.2032 
L 319.614624 177.246568 
L 320.14124 182.098611 
L 320.50059 187.759326 
L 320.598321 190.329771 
M 320.760845 220.773077 
L 320.640463 231.427705 
L 320.374046 237.897095 
L 319.908341 243.557811 
L 319.379979 247.601179 
L 318.635899 251.644547 
L 317.847648 254.879242 
L 316.851949 258.113937 
L 315.582135 261.417154 
L 314.081191 264.583326 
L 312.712365 267.009347 
L 311.126562 269.435368 
L 309.293516 271.861389 
L 307.179467 274.287411 
L 304.710226 276.741441 
L 301.926359 279.139453 
L 298.673286 281.565474 
L 295.510917 283.618353 
L 292.033893 285.608842 
L 287.984211 287.630124 
L 283.802707 289.453311 
L 279.621203 291.049917 
L 275.439699 292.454697 
L 270.421895 293.924817 
L 264.567789 295.3827 
L 258.713684 296.595636 
L 252.859579 297.598109 
L 247.005474 298.406611 
L 240.315068 299.113097 
L 233.624662 299.604353 
L 226.934256 299.890157 
L 220.24385 299.977141 
L 213.553444 299.865304 
L 206.863038 299.554648 
L 204.354135 299.386893 
L 204.354135 299.386893 
" clip-path="url(#p10b6036828)" style="fill: none; stroke: #56ba56; stroke-width: 1.5"/>
    <path d="M 104.160716 186.344718 
L 104.469965 181.289937 
L 104.955505 176.437895 
L 105.670647 171.714301 
L 106.36498 168.351158 
L 107.343248 164.670516 
L 108.26021 161.881768 
L 109.550295 158.647074 
L 111.119269 155.412379 
L 112.506303 152.986358 
L 114.098583 150.560337 
L 115.922082 148.134316 
L 118.215158 145.482903 
L 120.72406 142.961387 
L 123.232962 140.742207 
L 126.192628 138.430232 
L 129.736076 136.004211 
L 133.268571 133.8816 
L 136.859383 131.960842 
L 140.795278 130.09131 
L 144.976782 128.324208 
L 149.994586 126.453992 
L 155.012391 124.817168 
L 160.030195 123.380578 
L 165.884301 121.921371 
L 172.574707 120.503605 
L 179.265113 119.323828 
L 185.955519 118.353152 
L 192.645925 117.576339 
L 200.172632 116.916368 
L 207.699338 116.467548 
L 216.062346 116.210447 
L 224.425353 116.198204 
L 232.788361 116.430819 
L 240.315068 116.856083 
L 247.841774 117.491284 
L 255.368481 118.353152 
L 262.895188 119.459602 
L 269.585594 120.666021 
L 276.276 122.11552 
L 282.130105 123.607357 
L 287.14791 125.076607 
L 292.165714 126.749392 
L 297.183519 128.659241 
L 301.365023 130.469884 
L 305.546526 132.518095 
L 308.939977 134.386863 
L 312.82306 136.812884 
L 316.210312 139.238905 
L 319.173156 141.664926 
L 321.768853 144.090947 
L 324.044395 146.516968 
L 326.036768 148.942989 
L 328.126647 151.895759 
L 329.764303 154.603705 
L 331.026812 157.029726 
L 332.451097 160.264421 
L 333.616017 163.499116 
L 334.559757 166.733811 
L 335.477031 170.777179 
L 336.153704 174.820547 
L 336.715915 179.672589 
L 337.114612 185.333305 
L 337.342865 191.802695 
L 337.443691 201.506779 
L 337.407616 227.384337 
L 337.222948 235.471074 
L 336.854035 241.940463 
L 336.368495 246.792505 
L 335.653353 251.516099 
L 334.95902 254.879242 
L 333.980752 258.559884 
L 333.06379 261.348632 
L 331.773705 264.583326 
L 330.204731 267.818021 
L 328.817697 270.244042 
L 327.225417 272.670063 
L 325.401918 275.096084 
L 323.108842 277.747497 
L 320.59994 280.269013 
L 318.091038 282.488193 
L 315.131372 284.800168 
L 311.587924 287.226189 
L 308.055429 289.3488 
L 304.464617 291.269558 
L 300.528722 293.13909 
L 296.347218 294.906192 
L 291.329414 296.776408 
L 286.311609 298.413232 
L 281.293805 299.849822 
L 275.439699 301.309029 
L 268.749293 302.726795 
L 262.058887 303.906572 
L 255.368481 304.877248 
L 248.678075 305.654061 
L 241.151368 306.314032 
L 233.624662 306.762852 
L 225.261654 307.019953 
L 216.898647 307.032196 
L 208.535639 306.799581 
L 201.008932 306.374317 
L 193.482226 305.739116 
L 185.955519 304.877248 
L 178.428812 303.770798 
L 171.738406 302.564379 
L 165.048 301.11488 
L 159.193895 299.623043 
L 154.17609 298.153793 
L 149.158286 296.481008 
L 144.140481 294.571159 
L 139.958977 292.760516 
L 135.777474 290.712305 
L 132.384023 288.843537 
L 128.50094 286.417516 
L 125.113688 283.991495 
L 122.150844 281.565474 
L 119.555147 279.139453 
L 117.279605 276.713432 
L 115.287232 274.287411 
L 113.197353 271.334641 
L 111.559697 268.626695 
L 110.297188 266.200674 
L 108.872903 262.965979 
L 107.707983 259.731284 
L 106.764243 256.496589 
L 105.846969 252.453221 
L 105.170296 248.409853 
L 104.608085 243.557811 
L 104.209388 237.897095 
L 103.981135 231.427705 
L 103.880309 221.723621 
L 103.873453 216.675144 
L 103.873453 216.675144 
" clip-path="url(#p10b6036828)" style="fill: none; stroke: #3da13d; stroke-width: 1.5"/>
    <path d="M 201.845233 313.13831 
L 193.482226 312.572692 
L 185.119218 311.788186 
L 177.592511 310.8811 
L 170.065805 309.767014 
L 162.539098 308.422838 
L 155.848692 307.012654 
L 149.158286 305.373169 
L 143.30418 303.72197 
L 138.286376 302.120581 
L 132.8578 300.164968 
L 128.250767 298.285216 
L 123.539821 296.1216 
L 119.051459 293.777099 
L 115.706256 291.811263 
L 112.361053 289.621717 
L 109.01585 287.148313 
L 106.207148 284.800168 
L 103.637617 282.374147 
L 101.366313 279.948126 
L 98.980241 277.021797 
L 97.307639 274.670172 
L 95.562776 271.861389 
L 93.860173 268.626695 
L 92.441611 265.392 
L 91.269081 262.157305 
L 90.309376 258.922611 
L 89.363978 254.879242 
L 88.653977 250.835874 
L 88.050424 245.983832 
L 87.607892 240.323116 
L 87.339272 233.853726 
L 87.208103 224.958316 
L 87.193229 202.315453 
L 87.318455 190.185347 
L 87.607892 182.907284 
L 88.050424 177.246568 
L 88.653977 172.394526 
L 89.363978 168.351158 
L 90.309376 164.307789 
L 91.453534 160.52308 
L 92.441611 157.8384 
L 93.962436 154.394788 
L 95.635038 151.245415 
L 97.593462 148.134316 
L 99.816541 145.132537 
L 101.489143 143.144688 
L 103.998045 140.500054 
L 106.506947 138.168039 
L 109.113756 136.004211 
L 112.404528 133.578189 
L 116.13704 131.152168 
L 120.381237 128.726147 
L 124.905564 126.453927 
L 129.087068 124.58666 
L 134.104872 122.595194 
L 139.122677 120.82919 
L 144.140481 119.258606 
L 149.994586 117.638149 
L 155.848692 116.217746 
L 162.539098 114.807562 
L 170.065805 113.463386 
L 177.592511 112.3493 
L 185.955519 111.353591 
L 194.318526 110.591793 
L 202.681534 110.047844 
L 211.880842 109.693877 
L 221.08015 109.583262 
L 230.279459 109.715999 
L 239.478767 110.09209 
L 247.841774 110.657708 
L 256.204782 111.442214 
L 263.731489 112.3493 
L 271.258195 113.463386 
L 278.784902 114.807562 
L 285.475308 116.217746 
L 292.165714 117.857231 
L 298.01982 119.50843 
L 303.037624 121.109819 
L 308.4662 123.065432 
L 313.073233 124.945184 
L 317.784179 127.1088 
L 322.272541 129.453301 
L 325.617744 131.419137 
L 328.962947 133.608683 
L 332.30815 136.082087 
L 335.116852 138.430232 
L 337.686383 140.856253 
L 339.957687 143.282274 
L 342.343759 146.208603 
L 344.016361 148.560228 
L 345.761224 151.369011 
L 347.463827 154.603705 
L 348.882389 157.8384 
L 350.054919 161.073095 
L 351.014624 164.307789 
L 351.960022 168.351158 
L 352.670023 172.394526 
L 353.273576 177.246568 
L 353.716108 182.907284 
L 353.984728 189.376674 
L 354.010093 190.383199 
M 354.131111 220.718518 
L 354.005545 233.045053 
L 353.716108 240.323116 
L 353.273576 245.983832 
L 352.670023 250.835874 
L 351.960022 254.879242 
L 351.014624 258.922611 
L 349.870466 262.70732 
L 348.882389 265.392 
L 347.361564 268.835612 
L 345.688962 271.984985 
L 343.730538 275.096084 
L 341.507459 278.097863 
L 339.834857 280.085712 
L 337.325955 282.730346 
L 334.817053 285.062361 
L 332.210244 287.226189 
L 328.919472 289.652211 
L 325.18696 292.078232 
L 320.942763 294.504253 
L 316.418436 296.776473 
L 312.236932 298.64374 
L 307.219128 300.635206 
L 302.201323 302.40121 
L 297.183519 303.971794 
L 291.329414 305.592251 
L 285.475308 307.012654 
L 278.784902 308.422838 
L 271.258195 309.767014 
L 263.731489 310.8811 
L 255.368481 311.876809 
L 247.005474 312.638607 
L 238.642466 313.182556 
L 229.443158 313.536523 
L 220.24385 313.647138 
L 211.044541 313.514401 
L 201.845233 313.13831 
L 201.845233 313.13831 
" clip-path="url(#p10b6036828)" style="fill: none; stroke: #208420; stroke-width: 1.5"/>
    <path d="M 206.026737 319.580894 
L 196.827429 319.148429 
L 187.62812 318.503018 
L 178.428812 317.629808 
L 170.065805 316.624725 
L 161.702797 315.400923 
L 153.225008 313.912421 
L 145.433975 312.295074 
L 138.286376 310.57158 
L 131.59597 308.718567 
L 125.741865 306.878033 
L 120.471743 305.017011 
L 114.869955 302.782671 
L 110.688451 300.916373 
L 105.670647 298.400227 
L 101.489143 296.026673 
L 97.833743 293.695579 
L 94.446097 291.269558 
L 91.431114 288.843537 
L 88.748078 286.417516 
L 86.359529 283.991495 
L 83.926827 281.184231 
L 82.254226 279.006924 
L 80.165095 275.904758 
L 78.312888 272.670063 
L 76.751839 269.435368 
L 75.444641 266.200674 
L 74.359813 262.965979 
L 73.271369 258.922611 
L 72.434559 254.879242 
L 71.805476 250.835874 
L 71.270043 245.983832 
L 70.876956 240.323116 
L 70.619858 233.045053 
L 70.517233 224.007754 
M 70.562488 193.562266 
L 70.766008 185.333305 
L 71.135723 178.863916 
L 71.602964 174.011874 
L 72.293155 169.159832 
L 73.085002 165.116463 
L 74.119611 161.073095 
L 75.154061 157.8384 
L 76.402027 154.603705 
L 77.896746 151.369011 
L 79.672179 148.134316 
L 81.417925 145.409647 
L 83.090526 143.105244 
L 84.916148 140.856253 
L 87.27203 138.280037 
L 89.780932 135.84703 
L 92.397432 133.578189 
L 95.635038 131.077207 
L 99.053993 128.726147 
L 103.161744 126.219849 
L 107.498701 123.874105 
L 112.574026 121.448084 
L 117.378857 119.41333 
L 122.686486 117.404716 
L 128.250767 115.536085 
L 134.104872 113.788082 
L 140.795278 112.027123 
L 147.485684 110.486698 
L 155.012391 108.983861 
L 162.539098 107.695316 
L 170.902105 106.495804 
L 179.265113 105.511113 
L 187.62812 104.727382 
L 196.827429 104.081971 
L 206.026737 103.649506 
L 216.062346 103.418763 
L 226.097955 103.428795 
L 236.133564 103.68011 
L 245.332872 104.131563 
L 254.53218 104.79735 
L 263.731489 105.69186 
L 272.094496 106.717378 
L 279.621203 107.829477 
L 288.098992 109.317979 
L 295.890025 110.935326 
L 303.037624 112.65882 
L 309.72803 114.511833 
L 315.582135 116.352367 
L 320.852257 118.213389 
L 326.454045 120.447729 
L 330.635549 122.314027 
L 335.653353 124.830173 
L 339.834857 127.203727 
L 343.490257 129.534821 
L 346.877903 131.960842 
L 349.892886 134.386863 
L 352.575922 136.812884 
L 354.964471 139.238905 
L 357.397173 142.046169 
L 359.069774 144.223476 
L 361.158905 147.325642 
L 363.011112 150.560337 
L 364.572161 153.795032 
L 365.879359 157.029726 
L 366.964187 160.264421 
L 368.052631 164.307789 
L 368.889441 168.351158 
L 369.518524 172.394526 
L 370.053957 177.246568 
L 370.447044 182.907284 
L 370.704142 190.185347 
L 370.811935 200.698105 
L 370.777985 228.237048 
L 370.588772 237.088421 
L 370.248389 243.557811 
L 369.721036 249.218526 
L 369.030845 254.070568 
L 368.238998 258.113937 
L 367.204389 262.157305 
L 366.169939 265.392 
L 364.921973 268.626695 
L 363.427254 271.861389 
L 361.651821 275.096084 
L 359.906075 277.820753 
L 358.233474 280.125156 
L 356.407852 282.374147 
L 354.05197 284.950363 
L 351.543068 287.38337 
L 348.926568 289.652211 
L 345.688962 292.153193 
L 342.270007 294.504253 
L 338.162256 297.010551 
L 333.825299 299.356295 
L 328.749974 301.782316 
L 323.945143 303.81707 
L 318.637514 305.825684 
L 313.073233 307.694315 
L 307.219128 309.442318 
L 300.528722 311.203277 
L 293.838316 312.743702 
L 286.311609 314.246539 
L 278.784902 315.535084 
L 270.421895 316.734596 
L 262.058887 317.719287 
L 253.69588 318.503018 
L 244.496571 319.148429 
L 235.297263 319.580894 
L 225.261654 319.811637 
L 215.226045 319.801605 
L 206.026737 319.580894 
L 206.026737 319.580894 
" clip-path="url(#p10b6036828)" style="fill: none; stroke: #006400; stroke-width: 1.5"/>
   </g>
   <g id="patch_3">
    <path d="M 53.82 372.9456 
L 53.82 50.2848 
" style="fill: none; stroke: #000000; stroke-width: 0.8; stroke-linejoin: miter; stroke-linecap: square"/>
   </g>
   <g id="patch_4">
    <path d="M 387.504 372.9456 
L 387.504 50.2848 
" style="fill: none; stroke: #000000; stroke-width: 0.8; stroke-linejoin: miter; stroke-linecap: square"/>
   </g>
   <g id="patch_5">
    <path d="M 53.82 372.9456 
L 387.504 372.9456 
" style="fill: none; stroke: #000000; stroke-width: 0.8; stroke-linejoin: miter; stroke-linecap: square"/>
   </g>
   <g id="patch_6">
    <path d="M 53.82 50.2848 
L 387.504 50.2848 
" style="fill: none; stroke: #000000; stroke-width: 0.8; stroke-linejoin: miter; stroke-linecap: square"/>
   </g>
   <g id="text_21">
    <g clip-path="url(#p10b6036828)">
     <!-- 0.04 -->
     <g style="fill: #ffffff" transform="translate(201.695503 205.559593) rotate(-270.517091) scale(0.08 -0.08)">
      <defs>
       <path id="DejaVuSans-34" d="M 2419 4116 
L 825 1625 
L 2419 1625 
L 2419 4116 
z
M 2253 4666 
L 3047 4666 
L 3047 1625 
L 3713 1625 
L 3713 1100 
L 3047 1100 
L 3047 0 
L 2419 0 
L 2419 1100 
L 313 1100 
L 313 1709 
L 2253 4666 
z
" transform="scale(0.015625)"/>
      </defs>
      <use xlink:href="#DejaVuSans-30"/>
      <use xlink:href="#DejaVuSans-2e" transform="translate(63.623047 0)"/>
      <use xlink:href="#DejaVuSans-30" transform="translate(95.410156 0)"/>
      <use xlink:href="#DejaVuSans-34" transform="translate(159.033203 0)"/>
     </g>
    </g>
   </g>
   <g id="text_22">
    <g clip-path="url(#p10b6036828)">
     <!-- 0.16 -->
     <g style="fill: #ffffff" transform="translate(251.804217 201.499963) rotate(-270.104043) scale(0.08 -0.08)">
      <defs>
       <path id="DejaVuSans-36" d="M 2113 2584 
Q 1688 2584 1439 2293 
Q 1191 2003 1191 1497 
Q 1191 994 1439 701 
Q 1688 409 2113 409 
Q 2538 409 2786 701 
Q 3034 994 3034 1497 
Q 3034 2003 2786 2293 
Q 2538 2584 2113 2584 
z
M 3366 4563 
L 3366 3988 
Q 3128 4100 2886 4159 
Q 2644 4219 2406 4219 
Q 1781 4219 1451 3797 
Q 1122 3375 1075 2522 
Q 1259 2794 1537 2939 
Q 1816 3084 2150 3084 
Q 2853 3084 3261 2657 
Q 3669 2231 3669 1497 
Q 3669 778 3244 343 
Q 2819 -91 2113 -91 
Q 1303 -91 875 529 
Q 447 1150 447 2328 
Q 447 3434 972 4092 
Q 1497 4750 2381 4750 
Q 2619 4750 2861 4703 
Q 3103 4656 3366 4563 
z
" transform="scale(0.015625)"/>
      </defs>
      <use xlink:href="#DejaVuSans-30"/>
      <use xlink:href="#DejaVuSans-2e" transform="translate(63.623047 0)"/>
      <use xlink:href="#DejaVuSans-31" transform="translate(95.410156 0)"/>
      <use xlink:href="#DejaVuSans-36" transform="translate(159.033203 0)"/>
     </g>
    </g>
   </g>
   <g id="text_23">
    <g clip-path="url(#p10b6036828)">
     <!-- 0.36 -->
     <g style="fill: #ffffff" transform="translate(172.762568 215.279046) rotate(-89.632516) scale(0.08 -0.08)">
      <defs>
       <path id="DejaVuSans-33" d="M 2597 2516 
Q 3050 2419 3304 2112 
Q 3559 1806 3559 1356 
Q 3559 666 3084 287 
Q 2609 -91 1734 -91 
Q 1441 -91 1130 -33 
Q 819 25 488 141 
L 488 750 
Q 750 597 1062 519 
Q 1375 441 1716 441 
Q 2309 441 2620 675 
Q 2931 909 2931 1356 
Q 2931 1769 2642 2001 
Q 2353 2234 1838 2234 
L 1294 2234 
L 1294 2753 
L 1863 2753 
Q 2328 2753 2575 2939 
Q 2822 3125 2822 3475 
Q 2822 3834 2567 4026 
Q 2313 4219 1838 4219 
Q 1578 4219 1281 4162 
Q 984 4106 628 3988 
L 628 4550 
Q 988 4650 1302 4700 
Q 1616 4750 1894 4750 
Q 2613 4750 3031 4423 
Q 3450 4097 3450 3541 
Q 3450 3153 3228 2886 
Q 3006 2619 2597 2516 
z
" transform="scale(0.015625)"/>
      </defs>
      <use xlink:href="#DejaVuSans-30"/>
      <use xlink:href="#DejaVuSans-2e" transform="translate(63.623047 0)"/>
      <use xlink:href="#DejaVuSans-33" transform="translate(95.410156 0)"/>
      <use xlink:href="#DejaVuSans-36" transform="translate(159.033203 0)"/>
     </g>
    </g>
   </g>
   <g id="text_24">
    <g clip-path="url(#p10b6036828)">
     <!-- 0.64 -->
     <g style="fill: #ffffff" transform="translate(285.182029 201.497969) rotate(-270.05257) scale(0.08 -0.08)">
      <use xlink:href="#DejaVuSans-30"/>
      <use xlink:href="#DejaVuSans-2e" transform="translate(63.623047 0)"/>
      <use xlink:href="#DejaVuSans-36" transform="translate(95.410156 0)"/>
      <use xlink:href="#DejaVuSans-34" transform="translate(159.033203 0)"/>
     </g>
    </g>
   </g>
   <g id="text_25">
    <g clip-path="url(#p10b6036828)">
     <!-- 1.00 -->
     <g style="fill: #ffffff" transform="translate(134.966954 211.218292) rotate(-270.466488) scale(0.08 -0.08)">
      <use xlink:href="#DejaVuSans-31"/>
      <use xlink:href="#DejaVuSans-2e" transform="translate(63.623047 0)"/>
      <use xlink:href="#DejaVuSans-30" transform="translate(95.410156 0)"/>
      <use xlink:href="#DejaVuSans-30" transform="translate(159.033203 0)"/>
     </g>
    </g>
   </g>
   <g id="text_26">
    <g clip-path="url(#p10b6036828)">
     <!-- 1.44 -->
     <g style="fill: #ffffff" transform="translate(318.52243 196.652798) rotate(-270.229165) scale(0.08 -0.08)">
      <use xlink:href="#DejaVuSans-31"/>
      <use xlink:href="#DejaVuSans-2e" transform="translate(63.623047 0)"/>
      <use xlink:href="#DejaVuSans-34" transform="translate(95.410156 0)"/>
      <use xlink:href="#DejaVuSans-34" transform="translate(159.033203 0)"/>
     </g>
    </g>
   </g>
   <g id="text_27">
    <g clip-path="url(#p10b6036828)">
     <!-- 1.96 -->
     <g style="fill: #ffffff" transform="translate(106.015773 210.430575) rotate(-89.537035) scale(0.08 -0.08)">
      <defs>
       <path id="DejaVuSans-39" d="M 703 97 
L 703 672 
Q 941 559 1184 500 
Q 1428 441 1663 441 
Q 2288 441 2617 861 
Q 2947 1281 2994 2138 
Q 2813 1869 2534 1725 
Q 2256 1581 1919 1581 
Q 1219 1581 811 2004 
Q 403 2428 403 3163 
Q 403 3881 828 4315 
Q 1253 4750 1959 4750 
Q 2769 4750 3195 4129 
Q 3622 3509 3622 2328 
Q 3622 1225 3098 567 
Q 2575 -91 1691 -91 
Q 1453 -91 1209 -44 
Q 966 3 703 97 
z
M 1959 2075 
Q 2384 2075 2632 2365 
Q 2881 2656 2881 3163 
Q 2881 3666 2632 3958 
Q 2384 4250 1959 4250 
Q 1534 4250 1286 3958 
Q 1038 3666 1038 3163 
Q 1038 2656 1286 2365 
Q 1534 2075 1959 2075 
z
" transform="scale(0.015625)"/>
      </defs>
      <use xlink:href="#DejaVuSans-31"/>
      <use xlink:href="#DejaVuSans-2e" transform="translate(63.623047 0)"/>
      <use xlink:href="#DejaVuSans-39" transform="translate(95.410156 0)"/>
      <use xlink:href="#DejaVuSans-36" transform="translate(159.033203 0)"/>
     </g>
    </g>
   </g>
   <g id="text_28">
    <g clip-path="url(#p10b6036828)">
     <!-- 2.56 -->
     <g style="fill: #ffffff" transform="translate(351.900534 196.650507) rotate(-270.170543) scale(0.08 -0.08)">
      <use xlink:href="#DejaVuSans-32"/>
      <use xlink:href="#DejaVuSans-2e" transform="translate(63.623047 0)"/>
      <use xlink:href="#DejaVuSans-35" transform="translate(95.410156 0)"/>
      <use xlink:href="#DejaVuSans-36" transform="translate(159.033203 0)"/>
     </g>
    </g>
   </g>
   <g id="text_29">
    <g clip-path="url(#p10b6036828)">
     <!-- 3.24 -->
     <g style="fill: #ffffff" transform="translate(72.702816 217.693325) rotate(-89.941921) scale(0.08 -0.08)">
      <use xlink:href="#DejaVuSans-33"/>
      <use xlink:href="#DejaVuSans-2e" transform="translate(63.623047 0)"/>
      <use xlink:href="#DejaVuSans-32" transform="translate(95.410156 0)"/>
      <use xlink:href="#DejaVuSans-34" transform="translate(159.033203 0)"/>
     </g>
    </g>
   </g>
  </g>
 </g>
 <defs>
  <clipPath id="p10b6036828">
   <rect x="53.82" y="50.2848" width="333.684" height="322.6608"/>
  </clipPath>
 </defs>
</svg>
