<?xml version="1.0" encoding="utf-8" standalone="no"?>
<!DOCTYPE svg PUBLIC "-//W3C//DTD SVG 1.1//EN"
  "http://www.w3.org/Graphics/SVG/1.1/DTD/svg11.dtd">
<svg xmlns:xlink="http://www.w3.org/1999/xlink" width="432pt" height="432pt" viewBox="0 0 432 432" xmlns="http://www.w3.org/2000/svg" version="1.1">
 <metadata>
  <rdf:RDF xmlns:dc="http://purl.org/dc/elements/1.1/" xmlns:cc="http://creativecommons.org/ns#" xmlns:rdf="http://www.w3.org/1999/02/22-rdf-syntax-ns#">
   <cc:Work>
    <dc:type rdf:resource="http://purl.org/dc/dcmitype/StillImage"/>
    <dc:date>2025-03-08T01:40:44.548121</dc:date>
    <dc:format>image/svg+xml</dc:format>
    <dc:creator>
     <cc:Agent>
      <dc:title>Matplotlib v3.10.0, https://matplotlib.org/</dc:title>
     </cc:Agent>
    </dc:creator>
   </cc:Work>
  </rdf:RDF>
 </metadata>
 <defs>
  <style type="text/css">*{stroke-linejoin: round; stroke-linecap: butt}</style>
 </defs>
 <g id="figure_1">
  <g id="patch_1">
   <path d="M 0 432 
L 432 432 
L 432 0 
L 0 0 
z
" style="fill: #191919"/>
  </g>
  <g id="axes_1">
   <g id="patch_2">
    <path d="M 54 384.48 
L 388.8 384.48 
L 388.8 51.84 
L 54 51.84 
z
" style="fill: #191919"/>
   </g>
   <g id="PathCollection_1">
    <defs>
     <path id="m785078e9d6" d="M 0 3.535534 
C 0.937635 3.535534 1.836992 3.163008 2.5 2.5 
C 3.163008 1.836992 3.535534 0.937635 3.535534 0 
C 3.535534 -0.937635 3.163008 -1.836992 2.5 -2.5 
C 1.836992 -3.163008 0.937635 -3.535534 0 -3.535534 
C -0.937635 -3.535534 -1.836992 -3.163008 -2.5 -2.5 
C -3.163008 -1.836992 -3.535534 -0.937635 -3.535534 0 
C -3.535534 0.937635 -3.163008 1.836992 -2.5 2.5 
C -1.836992 3.163008 -0.937635 3.535534 0 3.535534 
z
" style="stroke: #ff00ff"/>
    </defs>
    <g clip-path="url(#p07d09f6f4f)">
     <use xlink:href="#m785078e9d6" x="300.73174" y="213.402143" style="fill: #ff00ff; stroke: #ff00ff"/>
     <use xlink:href="#m785078e9d6" x="193.285457" y="309.310681" style="fill: #ff00ff; stroke: #ff00ff"/>
     <use xlink:href="#m785078e9d6" x="300.73174" y="213.402143" style="fill: #ff00ff; stroke: #ff00ff"/>
    </g>
   </g>
   <g id="QuadContourSet_1">
    <path clip-path="url(#p07d09f6f4f)" style="fill: none; stroke: #beffbe; stroke-width: 1.5"/>
    <path clip-path="url(#p07d09f6f4f)" style="fill: none; stroke: #b4f4b4; stroke-width: 1.5"/>
    <path clip-path="url(#p07d09f6f4f)" style="fill: none; stroke: #abeaab; stroke-width: 1.5"/>
    <path clip-path="url(#p07d09f6f4f)" style="fill: none; stroke: #a1e0a1; stroke-width: 1.5"/>
    <path clip-path="url(#p07d09f6f4f)" style="fill: none; stroke: #99d799; stroke-width: 1.5"/>
    <path clip-path="url(#p07d09f6f4f)" style="fill: none; stroke: #90cd90; stroke-width: 1.5"/>
    <path d="M 62.536726 51.84 
L 62.390977 51.970097 
L 61.55188 52.719084 
L 60.712782 53.468071 
L 59.873684 54.217058 
L 59.034586 54.966046 
L 58.195489 55.715033 
L 57.356391 56.46402 
L 56.517293 57.213007 
L 55.678195 57.961994 
L 54.931423 58.628571 
L 54.839098 58.710982 
L 54 59.459969 
" clip-path="url(#p07d09f6f4f)" style="fill: none; stroke: #88c488; stroke-width: 1.5"/>
    <path d="M 89.374834 51.84 
L 89.242105 51.958475 
L 88.403008 52.707462 
L 87.56391 53.45645 
L 86.724812 54.205437 
L 85.885714 54.954424 
L 85.046617 55.703411 
L 84.207519 56.452398 
L 83.368421 57.201385 
L 82.529323 57.950373 
L 81.76953 58.628571 
L 81.690226 58.69936 
L 80.851128 59.448347 
L 80.01203 60.197334 
L 79.172932 60.946321 
L 78.333835 61.695308 
L 77.494737 62.444296 
L 76.655639 63.193283 
L 75.816541 63.94227 
L 74.977444 64.691257 
L 74.164227 65.417143 
L 74.138346 65.440244 
L 73.299248 66.189232 
L 72.46015 66.938219 
L 71.621053 67.687206 
L 70.781955 68.436193 
L 69.942857 69.18518 
L 69.103759 69.934167 
L 68.264662 70.683155 
L 67.425564 71.432142 
L 66.586466 72.181129 
L 66.558923 72.205714 
L 65.747368 72.930116 
L 64.908271 73.679103 
L 64.069173 74.428091 
L 63.230075 75.177078 
L 62.390977 75.926065 
L 61.55188 76.675052 
L 60.712782 77.424039 
L 59.873684 78.173026 
L 59.034586 78.922014 
L 58.953619 78.994286 
L 58.195489 79.671001 
L 57.356391 80.419988 
L 56.517293 81.168975 
L 55.678195 81.917962 
L 54.839098 82.666949 
L 54 83.415937 
" clip-path="url(#p07d09f6f4f)" style="fill: none; stroke: #7fbc7f; stroke-width: 1.5"/>
    <path d="M 116.212942 51.84 
L 116.093233 51.946853 
L 115.254135 52.695841 
L 114.415038 53.444828 
L 113.57594 54.193815 
L 112.736842 54.942802 
L 111.897744 55.691789 
L 111.058647 56.440776 
L 110.219549 57.189764 
L 109.380451 57.938751 
L 108.607638 58.628571 
L 108.541353 58.687738 
L 107.702256 59.436725 
L 106.863158 60.185712 
L 106.02406 60.9347 
L 105.184962 61.683687 
L 104.345865 62.432674 
L 103.506767 63.181661 
L 102.667669 63.930648 
L 101.828571 64.679635 
L 101.002335 65.417143 
L 100.989474 65.428623 
L 100.150376 66.17761 
L 99.311278 66.926597 
L 98.47218 67.675584 
L 97.633083 68.424571 
L 96.793985 69.173559 
L 95.954887 69.922546 
L 95.115789 70.671533 
L 94.276692 71.42052 
L 93.437594 72.169507 
L 93.397031 72.205714 
L 92.598496 72.918494 
L 91.759398 73.667482 
L 90.920301 74.416469 
L 90.081203 75.165456 
L 89.242105 75.914443 
L 88.403008 76.66343 
L 87.56391 77.412417 
L 86.724812 78.161405 
L 85.885714 78.910392 
L 85.791727 78.994286 
L 85.046617 79.659379 
L 84.207519 80.408366 
L 83.368421 81.157353 
L 82.529323 81.906341 
L 81.690226 82.655328 
L 80.851128 83.404315 
L 80.01203 84.153302 
L 79.172932 84.902289 
L 78.333835 85.651276 
L 78.186423 85.782857 
L 77.494737 86.400264 
L 76.655639 87.149251 
L 75.816541 87.898238 
L 74.977444 88.647225 
L 74.138346 89.396212 
L 73.299248 90.1452 
L 72.46015 90.894187 
L 71.621053 91.643174 
L 70.781955 92.392161 
L 70.58112 92.571429 
L 69.942857 93.141148 
L 69.103759 93.890135 
L 68.264662 94.639123 
L 67.425564 95.38811 
L 66.586466 96.137097 
L 65.747368 96.886084 
L 64.908271 97.635071 
L 64.069173 98.384058 
L 63.230075 99.133046 
L 62.975816 99.36 
L 62.390977 99.882033 
L 61.55188 100.63102 
L 60.712782 101.380007 
L 59.873684 102.128994 
L 59.034586 102.877982 
L 58.195489 103.626969 
L 57.356391 104.375956 
L 56.517293 105.124943 
L 55.678195 105.87393 
L 55.370512 106.148571 
L 54.839098 106.622917 
L 54 107.371905 
" clip-path="url(#p07d09f6f4f)" style="fill: none; stroke: #78b378; stroke-width: 1.5"/>
    <path d="M 143.05105 51.84 
L 142.944361 51.935232 
L 142.105263 52.684219 
L 141.266165 53.433206 
L 140.427068 54.182193 
L 139.58797 54.93118 
L 138.748872 55.680168 
L 137.909774 56.429155 
L 137.070677 57.178142 
L 136.231579 57.927129 
L 135.445746 58.628571 
L 135.392481 58.676116 
L 134.553383 59.425103 
L 133.714286 60.174091 
L 132.875188 60.923078 
L 132.03609 61.672065 
L 131.196992 62.421052 
L 130.357895 63.170039 
L 129.518797 63.919026 
L 128.679699 64.668014 
L 127.840602 65.417001 
L 127.840442 65.417143 
L 127.001504 66.165988 
L 126.162406 66.914975 
L 125.323308 67.663962 
L 124.484211 68.41295 
L 123.645113 69.161937 
L 122.806015 69.910924 
L 121.966917 70.659911 
L 121.12782 71.408898 
L 120.288722 72.157885 
L 120.235139 72.205714 
L 119.449624 72.906873 
L 118.610526 73.65586 
L 117.771429 74.404847 
L 116.932331 75.153834 
L 116.093233 75.902821 
L 115.254135 76.651809 
L 114.415038 77.400796 
L 113.57594 78.149783 
L 112.736842 78.89877 
L 112.629835 78.994286 
L 111.897744 79.647757 
L 111.058647 80.396744 
L 110.219549 81.145732 
L 109.380451 81.894719 
L 108.541353 82.643706 
L 107.702256 83.392693 
L 106.863158 84.14168 
L 106.02406 84.890667 
L 105.184962 85.639655 
L 105.024531 85.782857 
L 104.345865 86.388642 
L 103.506767 87.137629 
L 102.667669 87.886616 
L 101.828571 88.635603 
L 100.989474 89.384591 
L 100.150376 90.133578 
L 99.311278 90.882565 
L 98.47218 91.631552 
L 97.633083 92.380539 
L 97.419228 92.571429 
L 96.793985 93.129526 
L 95.954887 93.878514 
L 95.115789 94.627501 
L 94.276692 95.376488 
L 93.437594 96.125475 
L 92.598496 96.874462 
L 91.759398 97.62345 
L 90.920301 98.372437 
L 90.081203 99.121424 
L 89.813924 99.36 
L 89.242105 99.870411 
L 88.403008 100.619398 
L 87.56391 101.368385 
L 86.724812 102.117373 
L 85.885714 102.86636 
L 85.046617 103.615347 
L 84.207519 104.364334 
L 83.368421 105.113321 
L 82.529323 105.862308 
L 82.20862 106.148571 
L 81.690226 106.611296 
L 80.851128 107.360283 
L 80.01203 108.10927 
L 79.172932 108.858257 
L 78.333835 109.607244 
L 77.494737 110.356232 
L 76.655639 111.105219 
L 75.816541 111.854206 
L 74.977444 112.603193 
L 74.603316 112.937143 
L 74.138346 113.35218 
L 73.299248 114.101167 
L 72.46015 114.850155 
L 71.621053 115.599142 
L 70.781955 116.348129 
L 69.942857 117.097116 
L 69.103759 117.846103 
L 68.264662 118.595091 
L 67.425564 119.344078 
L 66.998013 119.725714 
L 66.586466 120.093065 
L 65.747368 120.842052 
L 64.908271 121.591039 
L 64.069173 122.340026 
L 63.230075 123.089014 
L 62.390977 123.838001 
L 61.55188 124.586988 
L 60.712782 125.335975 
L 59.873684 126.084962 
L 59.392709 126.514286 
L 59.034586 126.833949 
L 58.195489 127.582937 
L 57.356391 128.331924 
L 56.517293 129.080911 
L 55.678195 129.829898 
L 54.839098 130.578885 
L 54 131.327873 
" clip-path="url(#p07d09f6f4f)" style="fill: none; stroke: #70ab70; stroke-width: 1.5"/>
    <path d="M 169.889158 51.84 
L 54 155.28384 
L 54 155.28384 
" clip-path="url(#p07d09f6f4f)" style="fill: none; stroke: #69a369; stroke-width: 1.5"/>
    <path d="M 196.727265 51.84 
L 54 179.239808 
L 54 179.239808 
" clip-path="url(#p07d09f6f4f)" style="fill: none; stroke: #619b61; stroke-width: 1.5"/>
    <path d="M 223.565373 51.84 
L 54 203.195776 
L 54 203.195776 
" clip-path="url(#p07d09f6f4f)" style="fill: none; stroke: #5b945b; stroke-width: 1.5"/>
    <path d="M 250.403481 51.84 
L 54 227.151744 
L 54 227.151744 
" clip-path="url(#p07d09f6f4f)" style="fill: none; stroke: #548d54; stroke-width: 1.5"/>
    <path d="M 277.241589 51.84 
L 54 251.107712 
L 54 251.107712 
" clip-path="url(#p07d09f6f4f)" style="fill: none; stroke: #4e864e; stroke-width: 1.5"/>
    <path d="M 304.079697 51.84 
L 54 275.06368 
L 54 275.06368 
" clip-path="url(#p07d09f6f4f)" style="fill: none; stroke: #477f47; stroke-width: 1.5"/>
    <path d="M 330.917805 51.84 
L 54 299.019648 
L 54 299.019648 
" clip-path="url(#p07d09f6f4f)" style="fill: none; stroke: #427942; stroke-width: 1.5"/>
    <path d="M 357.755912 51.84 
L 54 322.975616 
L 54 322.975616 
" clip-path="url(#p07d09f6f4f)" style="fill: none; stroke: #3c733c; stroke-width: 1.5"/>
    <path d="M 384.59402 51.84 
L 54 346.931584 
L 54 346.931584 
" clip-path="url(#p07d09f6f4f)" style="fill: none; stroke: #376d37; stroke-width: 1.5"/>
    <path d="M 388.8 72.041668 
L 54 370.887552 
L 54 370.887552 
" clip-path="url(#p07d09f6f4f)" style="fill: none; stroke: #316731; stroke-width: 1.5"/>
    <path d="M 388.8 95.997636 
L 65.610354 384.48 
L 65.610354 384.48 
" clip-path="url(#p07d09f6f4f)" style="fill: none; stroke: #2d622d; stroke-width: 1.5"/>
    <path d="M 388.8 119.953604 
L 92.448462 384.48 
L 92.448462 384.48 
" clip-path="url(#p07d09f6f4f)" style="fill: none; stroke: #285d28; stroke-width: 1.5"/>
    <path d="M 388.8 143.909571 
L 119.286569 384.48 
L 119.286569 384.48 
" clip-path="url(#p07d09f6f4f)" style="fill: none; stroke: #245824; stroke-width: 1.5"/>
    <path d="M 388.8 167.865539 
L 146.124677 384.48 
L 146.124677 384.48 
" clip-path="url(#p07d09f6f4f)" style="fill: none; stroke: #1f541f; stroke-width: 1.5"/>
    <path d="M 388.8 191.821507 
L 172.962785 384.48 
L 172.962785 384.48 
" clip-path="url(#p07d09f6f4f)" style="fill: none; stroke: #1c501c; stroke-width: 1.5"/>
    <path d="M 388.8 215.777475 
L 199.800893 384.48 
L 199.800893 384.48 
" clip-path="url(#p07d09f6f4f)" style="fill: none; stroke: #184c18; stroke-width: 1.5"/>
    <path d="M 388.8 239.733443 
L 226.639001 384.48 
L 226.639001 384.48 
" clip-path="url(#p07d09f6f4f)" style="fill: none; stroke: #154815; stroke-width: 1.5"/>
    <path d="M 388.8 263.689411 
L 253.477109 384.48 
L 253.477109 384.48 
" clip-path="url(#p07d09f6f4f)" style="fill: none; stroke: #114511; stroke-width: 1.5"/>
    <path d="M 388.8 287.645379 
L 280.315216 384.48 
L 280.315216 384.48 
" clip-path="url(#p07d09f6f4f)" style="fill: none; stroke: #0f420f; stroke-width: 1.5"/>
    <path d="M 388.8 311.601347 
L 387.960902 312.350334 
L 387.121805 313.099321 
L 386.282707 313.848309 
L 385.443609 314.597296 
L 384.604511 315.346283 
L 383.765414 316.09527 
L 383.206361 316.594286 
L 382.926316 316.844257 
L 382.087218 317.593244 
L 381.24812 318.342232 
L 380.409023 319.091219 
L 379.569925 319.840206 
L 378.730827 320.589193 
L 377.891729 321.33818 
L 377.052632 322.087168 
L 376.213534 322.836155 
L 375.601058 323.382857 
L 375.374436 323.585142 
L 374.535338 324.334129 
L 373.696241 325.083116 
L 372.857143 325.832103 
L 372.018045 326.581091 
L 371.178947 327.330078 
L 370.33985 328.079065 
L 369.500752 328.828052 
L 368.661654 329.577039 
L 367.995754 330.171429 
L 367.822556 330.326026 
L 366.983459 331.075014 
L 366.144361 331.824001 
L 365.305263 332.572988 
L 364.466165 333.321975 
L 363.627068 334.070962 
L 362.78797 334.81995 
L 361.948872 335.568937 
L 361.109774 336.317924 
L 360.39045 336.96 
L 360.270677 337.066911 
L 359.431579 337.815898 
L 358.592481 338.564885 
L 357.753383 339.313873 
L 356.914286 340.06286 
L 356.075188 340.811847 
L 355.23609 341.560834 
L 354.396992 342.309821 
L 353.557895 343.058809 
L 352.785147 343.748571 
L 352.718797 343.807796 
L 351.879699 344.556783 
L 351.040602 345.30577 
L 350.201504 346.054757 
L 349.362406 346.803744 
L 348.523308 347.552732 
L 347.684211 348.301719 
L 346.845113 349.050706 
L 346.006015 349.799693 
L 345.179843 350.537143 
L 345.166917 350.54868 
L 344.32782 351.297667 
L 343.488722 352.046655 
L 342.649624 352.795642 
L 341.810526 353.544629 
L 340.971429 354.293616 
L 340.132331 355.042603 
L 339.293233 355.791591 
L 338.454135 356.540578 
L 337.615038 357.289565 
L 337.574539 357.325714 
L 336.77594 358.038552 
L 335.936842 358.787539 
L 335.097744 359.536526 
L 334.258647 360.285514 
L 333.419549 361.034501 
L 332.580451 361.783488 
L 331.741353 362.532475 
L 330.902256 363.281462 
L 330.063158 364.03045 
L 329.969235 364.114286 
L 329.22406 364.779437 
L 328.384962 365.528424 
L 327.545865 366.277411 
L 326.706767 367.026398 
L 325.867669 367.775385 
L 325.028571 368.524373 
L 324.189474 369.27336 
L 323.350376 370.022347 
L 322.511278 370.771334 
L 322.363932 370.902857 
L 321.67218 371.520321 
L 320.833083 372.269308 
L 319.993985 373.018296 
L 319.154887 373.767283 
L 318.315789 374.51627 
L 317.476692 375.265257 
L 316.637594 376.014244 
L 315.798496 376.763232 
L 314.959398 377.512219 
L 314.758628 377.691429 
L 314.120301 378.261206 
L 313.281203 379.010193 
L 312.442105 379.75918 
L 311.603008 380.508167 
L 310.76391 381.257155 
L 309.924812 382.006142 
L 309.085714 382.755129 
L 308.246617 383.504116 
L 307.407519 384.253103 
L 307.153324 384.48 
" clip-path="url(#p07d09f6f4f)" style="fill: none; stroke: #0c3f0c; stroke-width: 1.5"/>
    <path d="M 388.8 335.557315 
L 387.960902 336.306302 
L 387.228558 336.96 
L 387.121805 337.055289 
L 386.282707 337.804276 
L 385.443609 338.553264 
L 384.604511 339.302251 
L 383.765414 340.051238 
L 382.926316 340.800225 
L 382.087218 341.549212 
L 381.24812 342.2982 
L 380.409023 343.047187 
L 379.623254 343.748571 
L 379.569925 343.796174 
L 378.730827 344.545161 
L 377.891729 345.294148 
L 377.052632 346.043135 
L 376.213534 346.792123 
L 375.374436 347.54111 
L 374.535338 348.290097 
L 373.696241 349.039084 
L 372.857143 349.788071 
L 372.018045 350.537059 
L 372.017951 350.537143 
L 371.178947 351.286046 
L 370.33985 352.035033 
L 369.500752 352.78402 
L 368.661654 353.533007 
L 367.822556 354.281994 
L 366.983459 355.030982 
L 366.144361 355.779969 
L 365.305263 356.528956 
L 364.466165 357.277943 
L 364.412647 357.325714 
L 363.627068 358.02693 
L 362.78797 358.775917 
L 361.948872 359.524905 
L 361.109774 360.273892 
L 360.270677 361.022879 
L 359.431579 361.771866 
L 358.592481 362.520853 
L 357.753383 363.269841 
L 356.914286 364.018828 
L 356.807343 364.114286 
L 356.075188 364.767815 
L 355.23609 365.516802 
L 354.396992 366.265789 
L 353.557895 367.014776 
L 352.718797 367.763764 
L 351.879699 368.512751 
L 351.040602 369.261738 
L 350.201504 370.010725 
L 349.362406 370.759712 
L 349.202039 370.902857 
L 348.523308 371.5087 
L 347.684211 372.257687 
L 346.845113 373.006674 
L 346.006015 373.755661 
L 345.166917 374.504648 
L 344.32782 375.253635 
L 343.488722 376.002623 
L 342.649624 376.75161 
L 341.810526 377.500597 
L 341.596736 377.691429 
L 340.971429 378.249584 
L 340.132331 378.998571 
L 339.293233 379.747558 
L 338.454135 380.496546 
L 337.615038 381.245533 
L 336.77594 381.99452 
L 335.936842 382.743507 
L 335.097744 383.492494 
L 334.258647 384.241482 
L 333.991432 384.48 
" clip-path="url(#p07d09f6f4f)" style="fill: none; stroke: #0a3c0a; stroke-width: 1.5"/>
    <path d="M 388.8 359.513283 
L 387.960902 360.26227 
L 387.121805 361.011257 
L 386.282707 361.760244 
L 385.443609 362.509232 
L 384.604511 363.258219 
L 383.765414 364.007206 
L 383.645451 364.114286 
L 382.926316 364.756193 
L 382.087218 365.50518 
L 381.24812 366.254168 
L 380.409023 367.003155 
L 379.569925 367.752142 
L 378.730827 368.501129 
L 377.891729 369.250116 
L 377.052632 369.999103 
L 376.213534 370.748091 
L 376.040147 370.902857 
L 375.374436 371.497078 
L 374.535338 372.246065 
L 373.696241 372.995052 
L 372.857143 373.744039 
L 372.018045 374.493026 
L 371.178947 375.242014 
L 370.33985 375.991001 
L 369.500752 376.739988 
L 368.661654 377.488975 
L 368.434844 377.691429 
L 367.822556 378.237962 
L 366.983459 378.98695 
L 366.144361 379.735937 
L 365.305263 380.484924 
L 364.466165 381.233911 
L 363.627068 381.982898 
L 362.78797 382.731885 
L 361.948872 383.480873 
L 361.109774 384.22986 
L 360.82954 384.48 
" clip-path="url(#p07d09f6f4f)" style="fill: none; stroke: #073a07; stroke-width: 1.5"/>
    <path d="M 388.8 383.469251 
L 387.960902 384.218238 
L 387.667648 384.48 
" clip-path="url(#p07d09f6f4f)" style="fill: none; stroke: #063806; stroke-width: 1.5"/>
    <path clip-path="url(#p07d09f6f4f)" style="fill: none; stroke: #043604; stroke-width: 1.5"/>
    <path clip-path="url(#p07d09f6f4f)" style="fill: none; stroke: #033503; stroke-width: 1.5"/>
    <path clip-path="url(#p07d09f6f4f)" style="fill: none; stroke: #013401; stroke-width: 1.5"/>
    <path clip-path="url(#p07d09f6f4f)" style="fill: none; stroke: #013301; stroke-width: 1.5"/>
    <path clip-path="url(#p07d09f6f4f)" style="fill: none; stroke: #003200; stroke-width: 1.5"/>
    <path clip-path="url(#p07d09f6f4f)" style="fill: none; stroke: #003200; stroke-width: 1.5"/>
    <path clip-path="url(#p07d09f6f4f)" style="fill: none; stroke: #003200; stroke-width: 1.5"/>
   </g>
   <g id="matplotlib.axis_1"/>
   <g id="matplotlib.axis_2"/>
   <g id="line2d_1">
    <path d="M 136.067606 228.244955 
L 83.506243 326.519517 
L 83.506243 369.36 
L 193.285457 309.310681 
L 300.73174 213.402143 
L 359.293757 103.908091 
L 359.293757 66.96 
L 249.430065 127.055529 
L 136.067606 228.244955 
" clip-path="url(#p07d09f6f4f)" style="fill: none; stroke: #00ffff; stroke-width: 2; stroke-linecap: square"/>
   </g>
   <g id="line2d_2">
    <path d="M 300.73174 213.402143 
L 193.285457 309.310681 
L 300.73174 213.402143 
" clip-path="url(#p07d09f6f4f)" style="fill: none; stroke-dasharray: 7.4,3.2; stroke-dashoffset: 0; stroke: #ff00ff; stroke-width: 2"/>
   </g>
   <g id="PathCollection_2">
    <defs>
     <path id="maa792874e6" d="M 0 5 
C 1.326016 5 2.597899 4.473168 3.535534 3.535534 
C 4.473168 2.597899 5 1.326016 5 0 
C 5 -1.326016 4.473168 -2.597899 3.535534 -3.535534 
C 2.597899 -4.473168 1.326016 -5 0 -5 
C -1.326016 -5 -2.597899 -4.473168 -3.535534 -3.535534 
C -4.473168 -2.597899 -5 -1.326016 -5 0 
C -5 1.326016 -4.473168 2.597899 -3.535534 3.535534 
C -2.597899 4.473168 -1.326016 5 0 5 
z
" style="stroke: #000000"/>
    </defs>
    <g clip-path="url(#p07d09f6f4f)">
     <use xlink:href="#maa792874e6" x="327.704078" y="270.312316" style="fill: #ffffff; stroke: #000000"/>
    </g>
   </g>
   <g id="Quiver_1">
    <path d="M 288.112228 224.655729 
L 321.056738 261.089093 
L 322.077153 258.473724 
L 327.704078 270.312316 
L 316.489714 263.526111 
L 319.194258 262.773222 
L 286.249748 226.339858 
L 288.112228 224.655729 
" clip-path="url(#p07d09f6f4f)" style="fill: #00ff00"/>
   </g>
  </g>
 </g>
 <defs>
  <clipPath id="p07d09f6f4f">
   <rect x="54" y="51.84" width="334.8" height="332.64"/>
  </clipPath>
 </defs>
</svg>
