<?xml version="1.0" encoding="utf-8" standalone="no"?>
<!DOCTYPE svg PUBLIC "-//W3C//DTD SVG 1.1//EN"
  "http://www.w3.org/Graphics/SVG/1.1/DTD/svg11.dtd">
<svg xmlns:xlink="http://www.w3.org/1999/xlink" width="432pt" height="432pt" viewBox="0 0 432 432" xmlns="http://www.w3.org/2000/svg" version="1.1">
 <metadata>
  <rdf:RDF xmlns:dc="http://purl.org/dc/elements/1.1/" xmlns:cc="http://creativecommons.org/ns#" xmlns:rdf="http://www.w3.org/1999/02/22-rdf-syntax-ns#">
   <cc:Work>
    <dc:type rdf:resource="http://purl.org/dc/dcmitype/StillImage"/>
    <dc:date>2025-03-08T13:06:04.761868</dc:date>
    <dc:format>image/svg+xml</dc:format>
    <dc:creator>
     <cc:Agent>
      <dc:title>Matplotlib v3.10.0, https://matplotlib.org/</dc:title>
     </cc:Agent>
    </dc:creator>
   </cc:Work>
  </rdf:RDF>
 </metadata>
 <defs>
  <style type="text/css">*{stroke-linejoin: round; stroke-linecap: butt}</style>
 </defs>
 <g id="figure_1">
  <g id="patch_1">
   <path d="M 0 432 
L 432 432 
L 432 0 
L 0 0 
z
" style="fill: #191919"/>
  </g>
  <g id="axes_1">
   <g id="patch_2">
    <path d="M 54 384.48 
L 388.8 384.48 
L 388.8 51.84 
L 54 51.84 
z
" style="fill: #191919"/>
   </g>
   <g id="PathCollection_1">
    <defs>
     <path id="mb37fc3f691" d="M 0 3.535534 
C 0.937635 3.535534 1.836992 3.163008 2.5 2.5 
C 3.163008 1.836992 3.535534 0.937635 3.535534 0 
C 3.535534 -0.937635 3.163008 -1.836992 2.5 -2.5 
C 1.836992 -3.163008 0.937635 -3.535534 0 -3.535534 
C -0.937635 -3.535534 -1.836992 -3.163008 -2.5 -2.5 
C -3.163008 -1.836992 -3.535534 -0.937635 -3.535534 0 
C -3.535534 0.937635 -3.163008 1.836992 -2.5 2.5 
C -1.836992 3.163008 -0.937635 3.535534 0 3.535534 
z
" style="stroke: #ec2ed7"/>
    </defs>
    <g clip-path="url(#p211edfc6e5)">
     <use xlink:href="#mb37fc3f691" x="359.293757" y="66.96" style="fill: #ec2ed7; stroke: #ec2ed7"/>
     <use xlink:href="#mb37fc3f691" x="83.506243" y="369.36" style="fill: #ec2ed7; stroke: #ec2ed7"/>
     <use xlink:href="#mb37fc3f691" x="359.293757" y="66.96" style="fill: #ec2ed7; stroke: #ec2ed7"/>
    </g>
   </g>
   <g id="matplotlib.axis_1"/>
   <g id="matplotlib.axis_2"/>
   <g id="line2d_1">
    <path d="M 136.067606 228.244955 
L 83.506243 326.519517 
L 83.506243 369.36 
L 220.189701 309.310681 
L 300.73174 213.402143 
L 359.293757 103.908091 
L 359.293757 66.96 
L 249.430065 127.055529 
L 136.067606 228.244955 
" clip-path="url(#p211edfc6e5)" style="fill: none; stroke: #81d41a; stroke-width: 2; stroke-linecap: square"/>
   </g>
   <g id="line2d_2">
    <path d="M 359.293757 66.96 
L 83.506243 369.36 
L 359.293757 66.96 
" clip-path="url(#p211edfc6e5)" style="fill: none; stroke-dasharray: 7.4,3.2; stroke-dashoffset: 0; stroke: #ec2ed7; stroke-width: 2"/>
   </g>
   <g id="PathCollection_2">
    <defs>
     <path id="m3b1d17a2a2" d="M 0 5 
C 1.326016 5 2.597899 4.473168 3.535534 3.535534 
C 4.473168 2.597899 5 1.326016 5 0 
C 5 -1.326016 4.473168 -2.597899 3.535534 -3.535534 
C 2.597899 -4.473168 1.326016 -5 0 -5 
C -1.326016 -5 -2.597899 -4.473168 -3.535534 -3.535534 
C -4.473168 -2.597899 -5 -1.326016 -5 0 
C -5 1.326016 -4.473168 2.597899 -3.535534 3.535534 
C -2.597899 4.473168 -1.326016 5 0 5 
z
" style="stroke: #ffb66c"/>
    </defs>
    <g clip-path="url(#p211edfc6e5)">
     <use xlink:href="#m3b1d17a2a2" x="243.210345" y="194.245037" style="fill: #ffb66c; stroke: #ffb66c"/>
    </g>
   </g>
   <g id="PathCollection_3">
    <defs>
     <path id="m27420cba74" d="M 0 5 
C 1.326016 5 2.597899 4.473168 3.535534 3.535534 
C 4.473168 2.597899 5 1.326016 5 0 
C 5 -1.326016 4.473168 -2.597899 3.535534 -3.535534 
C 2.597899 -4.473168 1.326016 -5 0 -5 
C -1.326016 -5 -2.597899 -4.473168 -3.535534 -3.535534 
C -4.473168 -2.597899 -5 -1.326016 -5 0 
C -5 1.326016 -4.473168 2.597899 -3.535534 3.535534 
C -2.597899 4.473168 -1.326016 5 0 5 
z
" style="stroke: #ffffff"/>
    </defs>
    <g clip-path="url(#p211edfc6e5)">
     <use xlink:href="#m27420cba74" x="327.704078" y="270.312316" style="fill: #ffffff; stroke: #ffffff"/>
    </g>
   </g>
   <g id="Quiver_1">
    <path d="M 326.864053 271.245396 
L 250.768039 202.738342 
L 250.021069 205.444527 
L 243.210345 194.245037 
L 255.061219 199.846048 
L 252.448089 200.872182 
L 328.544103 269.379236 
L 326.864053 271.245396 
" clip-path="url(#p211edfc6e5)" style="fill: #ff0000"/>
   </g>
  </g>
 </g>
 <defs>
  <clipPath id="p211edfc6e5">
   <rect x="54" y="51.84" width="334.8" height="332.64"/>
  </clipPath>
 </defs>
</svg>
