<?xml version="1.0" encoding="utf-8" standalone="no"?>
<!DOCTYPE svg PUBLIC "-//W3C//DTD SVG 1.1//EN"
  "http://www.w3.org/Graphics/SVG/1.1/DTD/svg11.dtd">
<svg xmlns:xlink="http://www.w3.org/1999/xlink" width="576pt" height="504pt" viewBox="0 0 576 504" xmlns="http://www.w3.org/2000/svg" version="1.1">
 <metadata>
  <rdf:RDF xmlns:dc="http://purl.org/dc/elements/1.1/" xmlns:cc="http://creativecommons.org/ns#" xmlns:rdf="http://www.w3.org/1999/02/22-rdf-syntax-ns#">
   <cc:Work>
    <dc:type rdf:resource="http://purl.org/dc/dcmitype/StillImage"/>
    <dc:date>2025-03-06T10:08:23.863720</dc:date>
    <dc:format>image/svg+xml</dc:format>
    <dc:creator>
     <cc:Agent>
      <dc:title>Matplotlib v3.10.0, https://matplotlib.org/</dc:title>
     </cc:Agent>
    </dc:creator>
   </cc:Work>
  </rdf:RDF>
 </metadata>
 <defs>
  <style type="text/css">*{stroke-linejoin: round; stroke-linecap: butt}</style>
 </defs>
 <g id="figure_1">
  <g id="patch_1">
   <path d="M 0 504 
L 576 504 
L 576 0 
L 0 0 
z
" style="fill: #191919"/>
  </g>
  <g id="axes_1">
   <g id="patch_2">
    <path d="M 72 448.56 
L 518.4 448.56 
L 518.4 60.48 
L 72 60.48 
z
" style="fill: #191919"/>
   </g>
   <g id="matplotlib.axis_1">
    <g id="xtick_1">
     <g id="line2d_1">
      <defs>
       <path id="m779fc376c7" d="M 0 0 
L 0 3.5 
" style="stroke: #ffffff; stroke-width: 0.8"/>
      </defs>
      <g>
       <use xlink:href="#m779fc376c7" x="72" y="448.56" style="fill: #ffffff; stroke: #ffffff; stroke-width: 0.8"/>
      </g>
     </g>
     <g id="text_1">
      <!-- −2.0 -->
      <g style="fill: #ffffff" transform="translate(59.858594 463.158437) scale(0.1 -0.1)">
       <defs>
        <path id="DejaVuSans-2212" d="M 678 2272 
L 4684 2272 
L 4684 1741 
L 678 1741 
L 678 2272 
z
" transform="scale(0.015625)"/>
        <path id="DejaVuSans-32" d="M 1228 531 
L 3431 531 
L 3431 0 
L 469 0 
L 469 531 
Q 828 903 1448 1529 
Q 2069 2156 2228 2338 
Q 2531 2678 2651 2914 
Q 2772 3150 2772 3378 
Q 2772 3750 2511 3984 
Q 2250 4219 1831 4219 
Q 1534 4219 1204 4116 
Q 875 4013 500 3803 
L 500 4441 
Q 881 4594 1212 4672 
Q 1544 4750 1819 4750 
Q 2544 4750 2975 4387 
Q 3406 4025 3406 3419 
Q 3406 3131 3298 2873 
Q 3191 2616 2906 2266 
Q 2828 2175 2409 1742 
Q 1991 1309 1228 531 
z
" transform="scale(0.015625)"/>
        <path id="DejaVuSans-2e" d="M 684 794 
L 1344 794 
L 1344 0 
L 684 0 
L 684 794 
z
" transform="scale(0.015625)"/>
        <path id="DejaVuSans-30" d="M 2034 4250 
Q 1547 4250 1301 3770 
Q 1056 3291 1056 2328 
Q 1056 1369 1301 889 
Q 1547 409 2034 409 
Q 2525 409 2770 889 
Q 3016 1369 3016 2328 
Q 3016 3291 2770 3770 
Q 2525 4250 2034 4250 
z
M 2034 4750 
Q 2819 4750 3233 4129 
Q 3647 3509 3647 2328 
Q 3647 1150 3233 529 
Q 2819 -91 2034 -91 
Q 1250 -91 836 529 
Q 422 1150 422 2328 
Q 422 3509 836 4129 
Q 1250 4750 2034 4750 
z
" transform="scale(0.015625)"/>
       </defs>
       <use xlink:href="#DejaVuSans-2212"/>
       <use xlink:href="#DejaVuSans-32" transform="translate(83.789062 0)"/>
       <use xlink:href="#DejaVuSans-2e" transform="translate(147.412109 0)"/>
       <use xlink:href="#DejaVuSans-30" transform="translate(179.199219 0)"/>
      </g>
     </g>
    </g>
    <g id="xtick_2">
     <g id="line2d_2">
      <g>
       <use xlink:href="#m779fc376c7" x="127.8" y="448.56" style="fill: #ffffff; stroke: #ffffff; stroke-width: 0.8"/>
      </g>
     </g>
     <g id="text_2">
      <!-- −1.5 -->
      <g style="fill: #ffffff" transform="translate(115.658594 463.158437) scale(0.1 -0.1)">
       <defs>
        <path id="DejaVuSans-31" d="M 794 531 
L 1825 531 
L 1825 4091 
L 703 3866 
L 703 4441 
L 1819 4666 
L 2450 4666 
L 2450 531 
L 3481 531 
L 3481 0 
L 794 0 
L 794 531 
z
" transform="scale(0.015625)"/>
        <path id="DejaVuSans-35" d="M 691 4666 
L 3169 4666 
L 3169 4134 
L 1269 4134 
L 1269 2991 
Q 1406 3038 1543 3061 
Q 1681 3084 1819 3084 
Q 2600 3084 3056 2656 
Q 3513 2228 3513 1497 
Q 3513 744 3044 326 
Q 2575 -91 1722 -91 
Q 1428 -91 1123 -41 
Q 819 9 494 109 
L 494 744 
Q 775 591 1075 516 
Q 1375 441 1709 441 
Q 2250 441 2565 725 
Q 2881 1009 2881 1497 
Q 2881 1984 2565 2268 
Q 2250 2553 1709 2553 
Q 1456 2553 1204 2497 
Q 953 2441 691 2322 
L 691 4666 
z
" transform="scale(0.015625)"/>
       </defs>
       <use xlink:href="#DejaVuSans-2212"/>
       <use xlink:href="#DejaVuSans-31" transform="translate(83.789062 0)"/>
       <use xlink:href="#DejaVuSans-2e" transform="translate(147.412109 0)"/>
       <use xlink:href="#DejaVuSans-35" transform="translate(179.199219 0)"/>
      </g>
     </g>
    </g>
    <g id="xtick_3">
     <g id="line2d_3">
      <g>
       <use xlink:href="#m779fc376c7" x="183.6" y="448.56" style="fill: #ffffff; stroke: #ffffff; stroke-width: 0.8"/>
      </g>
     </g>
     <g id="text_3">
      <!-- −1.0 -->
      <g style="fill: #ffffff" transform="translate(171.458594 463.158437) scale(0.1 -0.1)">
       <use xlink:href="#DejaVuSans-2212"/>
       <use xlink:href="#DejaVuSans-31" transform="translate(83.789062 0)"/>
       <use xlink:href="#DejaVuSans-2e" transform="translate(147.412109 0)"/>
       <use xlink:href="#DejaVuSans-30" transform="translate(179.199219 0)"/>
      </g>
     </g>
    </g>
    <g id="xtick_4">
     <g id="line2d_4">
      <g>
       <use xlink:href="#m779fc376c7" x="239.4" y="448.56" style="fill: #ffffff; stroke: #ffffff; stroke-width: 0.8"/>
      </g>
     </g>
     <g id="text_4">
      <!-- −0.5 -->
      <g style="fill: #ffffff" transform="translate(227.258594 463.158437) scale(0.1 -0.1)">
       <use xlink:href="#DejaVuSans-2212"/>
       <use xlink:href="#DejaVuSans-30" transform="translate(83.789062 0)"/>
       <use xlink:href="#DejaVuSans-2e" transform="translate(147.412109 0)"/>
       <use xlink:href="#DejaVuSans-35" transform="translate(179.199219 0)"/>
      </g>
     </g>
    </g>
    <g id="xtick_5">
     <g id="line2d_5">
      <g>
       <use xlink:href="#m779fc376c7" x="295.2" y="448.56" style="fill: #ffffff; stroke: #ffffff; stroke-width: 0.8"/>
      </g>
     </g>
     <g id="text_5">
      <!-- 0.0 -->
      <g style="fill: #ffffff" transform="translate(287.248437 463.158437) scale(0.1 -0.1)">
       <use xlink:href="#DejaVuSans-30"/>
       <use xlink:href="#DejaVuSans-2e" transform="translate(63.623047 0)"/>
       <use xlink:href="#DejaVuSans-30" transform="translate(95.410156 0)"/>
      </g>
     </g>
    </g>
    <g id="xtick_6">
     <g id="line2d_6">
      <g>
       <use xlink:href="#m779fc376c7" x="351" y="448.56" style="fill: #ffffff; stroke: #ffffff; stroke-width: 0.8"/>
      </g>
     </g>
     <g id="text_6">
      <!-- 0.5 -->
      <g style="fill: #ffffff" transform="translate(343.048437 463.158437) scale(0.1 -0.1)">
       <use xlink:href="#DejaVuSans-30"/>
       <use xlink:href="#DejaVuSans-2e" transform="translate(63.623047 0)"/>
       <use xlink:href="#DejaVuSans-35" transform="translate(95.410156 0)"/>
      </g>
     </g>
    </g>
    <g id="xtick_7">
     <g id="line2d_7">
      <g>
       <use xlink:href="#m779fc376c7" x="406.8" y="448.56" style="fill: #ffffff; stroke: #ffffff; stroke-width: 0.8"/>
      </g>
     </g>
     <g id="text_7">
      <!-- 1.0 -->
      <g style="fill: #ffffff" transform="translate(398.848437 463.158437) scale(0.1 -0.1)">
       <use xlink:href="#DejaVuSans-31"/>
       <use xlink:href="#DejaVuSans-2e" transform="translate(63.623047 0)"/>
       <use xlink:href="#DejaVuSans-30" transform="translate(95.410156 0)"/>
      </g>
     </g>
    </g>
    <g id="xtick_8">
     <g id="line2d_8">
      <g>
       <use xlink:href="#m779fc376c7" x="462.6" y="448.56" style="fill: #ffffff; stroke: #ffffff; stroke-width: 0.8"/>
      </g>
     </g>
     <g id="text_8">
      <!-- 1.5 -->
      <g style="fill: #ffffff" transform="translate(454.648437 463.158437) scale(0.1 -0.1)">
       <use xlink:href="#DejaVuSans-31"/>
       <use xlink:href="#DejaVuSans-2e" transform="translate(63.623047 0)"/>
       <use xlink:href="#DejaVuSans-35" transform="translate(95.410156 0)"/>
      </g>
     </g>
    </g>
    <g id="xtick_9">
     <g id="line2d_9">
      <g>
       <use xlink:href="#m779fc376c7" x="518.4" y="448.56" style="fill: #ffffff; stroke: #ffffff; stroke-width: 0.8"/>
      </g>
     </g>
     <g id="text_9">
      <!-- 2.0 -->
      <g style="fill: #ffffff" transform="translate(510.448437 463.158437) scale(0.1 -0.1)">
       <use xlink:href="#DejaVuSans-32"/>
       <use xlink:href="#DejaVuSans-2e" transform="translate(63.623047 0)"/>
       <use xlink:href="#DejaVuSans-30" transform="translate(95.410156 0)"/>
      </g>
     </g>
    </g>
    <g id="text_10">
     <!-- $x$ -->
     <g style="fill: #ffffff" transform="translate(290.4 481.395625) scale(0.16 -0.16)">
      <defs>
       <path id="DejaVuSans-Oblique-78" d="M 3841 3500 
L 2234 1784 
L 3219 0 
L 2559 0 
L 1819 1388 
L 531 0 
L -166 0 
L 1556 1844 
L 641 3500 
L 1300 3500 
L 1972 2234 
L 3144 3500 
L 3841 3500 
z
" transform="scale(0.015625)"/>
      </defs>
      <use xlink:href="#DejaVuSans-Oblique-78" transform="translate(0 0.3125)"/>
     </g>
    </g>
   </g>
   <g id="matplotlib.axis_2">
    <g id="ytick_1">
     <g id="line2d_10">
      <defs>
       <path id="ma7b5d974e5" d="M 0 0 
L -3.5 0 
" style="stroke: #ffffff; stroke-width: 0.8"/>
      </defs>
      <g>
       <use xlink:href="#ma7b5d974e5" x="72" y="448.56" style="fill: #ffffff; stroke: #ffffff; stroke-width: 0.8"/>
      </g>
     </g>
     <g id="text_11">
      <!-- −2.0 -->
      <g style="fill: #ffffff" transform="translate(40.717187 452.359219) scale(0.1 -0.1)">
       <use xlink:href="#DejaVuSans-2212"/>
       <use xlink:href="#DejaVuSans-32" transform="translate(83.789062 0)"/>
       <use xlink:href="#DejaVuSans-2e" transform="translate(147.412109 0)"/>
       <use xlink:href="#DejaVuSans-30" transform="translate(179.199219 0)"/>
      </g>
     </g>
    </g>
    <g id="ytick_2">
     <g id="line2d_11">
      <g>
       <use xlink:href="#ma7b5d974e5" x="72" y="400.05" style="fill: #ffffff; stroke: #ffffff; stroke-width: 0.8"/>
      </g>
     </g>
     <g id="text_12">
      <!-- −1.5 -->
      <g style="fill: #ffffff" transform="translate(40.717187 403.849219) scale(0.1 -0.1)">
       <use xlink:href="#DejaVuSans-2212"/>
       <use xlink:href="#DejaVuSans-31" transform="translate(83.789062 0)"/>
       <use xlink:href="#DejaVuSans-2e" transform="translate(147.412109 0)"/>
       <use xlink:href="#DejaVuSans-35" transform="translate(179.199219 0)"/>
      </g>
     </g>
    </g>
    <g id="ytick_3">
     <g id="line2d_12">
      <g>
       <use xlink:href="#ma7b5d974e5" x="72" y="351.54" style="fill: #ffffff; stroke: #ffffff; stroke-width: 0.8"/>
      </g>
     </g>
     <g id="text_13">
      <!-- −1.0 -->
      <g style="fill: #ffffff" transform="translate(40.717187 355.339219) scale(0.1 -0.1)">
       <use xlink:href="#DejaVuSans-2212"/>
       <use xlink:href="#DejaVuSans-31" transform="translate(83.789062 0)"/>
       <use xlink:href="#DejaVuSans-2e" transform="translate(147.412109 0)"/>
       <use xlink:href="#DejaVuSans-30" transform="translate(179.199219 0)"/>
      </g>
     </g>
    </g>
    <g id="ytick_4">
     <g id="line2d_13">
      <g>
       <use xlink:href="#ma7b5d974e5" x="72" y="303.03" style="fill: #ffffff; stroke: #ffffff; stroke-width: 0.8"/>
      </g>
     </g>
     <g id="text_14">
      <!-- −0.5 -->
      <g style="fill: #ffffff" transform="translate(40.717187 306.829219) scale(0.1 -0.1)">
       <use xlink:href="#DejaVuSans-2212"/>
       <use xlink:href="#DejaVuSans-30" transform="translate(83.789062 0)"/>
       <use xlink:href="#DejaVuSans-2e" transform="translate(147.412109 0)"/>
       <use xlink:href="#DejaVuSans-35" transform="translate(179.199219 0)"/>
      </g>
     </g>
    </g>
    <g id="ytick_5">
     <g id="line2d_14">
      <g>
       <use xlink:href="#ma7b5d974e5" x="72" y="254.52" style="fill: #ffffff; stroke: #ffffff; stroke-width: 0.8"/>
      </g>
     </g>
     <g id="text_15">
      <!-- 0.0 -->
      <g style="fill: #ffffff" transform="translate(49.096875 258.319219) scale(0.1 -0.1)">
       <use xlink:href="#DejaVuSans-30"/>
       <use xlink:href="#DejaVuSans-2e" transform="translate(63.623047 0)"/>
       <use xlink:href="#DejaVuSans-30" transform="translate(95.410156 0)"/>
      </g>
     </g>
    </g>
    <g id="ytick_6">
     <g id="line2d_15">
      <g>
       <use xlink:href="#ma7b5d974e5" x="72" y="206.01" style="fill: #ffffff; stroke: #ffffff; stroke-width: 0.8"/>
      </g>
     </g>
     <g id="text_16">
      <!-- 0.5 -->
      <g style="fill: #ffffff" transform="translate(49.096875 209.809219) scale(0.1 -0.1)">
       <use xlink:href="#DejaVuSans-30"/>
       <use xlink:href="#DejaVuSans-2e" transform="translate(63.623047 0)"/>
       <use xlink:href="#DejaVuSans-35" transform="translate(95.410156 0)"/>
      </g>
     </g>
    </g>
    <g id="ytick_7">
     <g id="line2d_16">
      <g>
       <use xlink:href="#ma7b5d974e5" x="72" y="157.5" style="fill: #ffffff; stroke: #ffffff; stroke-width: 0.8"/>
      </g>
     </g>
     <g id="text_17">
      <!-- 1.0 -->
      <g style="fill: #ffffff" transform="translate(49.096875 161.299219) scale(0.1 -0.1)">
       <use xlink:href="#DejaVuSans-31"/>
       <use xlink:href="#DejaVuSans-2e" transform="translate(63.623047 0)"/>
       <use xlink:href="#DejaVuSans-30" transform="translate(95.410156 0)"/>
      </g>
     </g>
    </g>
    <g id="ytick_8">
     <g id="line2d_17">
      <g>
       <use xlink:href="#ma7b5d974e5" x="72" y="108.99" style="fill: #ffffff; stroke: #ffffff; stroke-width: 0.8"/>
      </g>
     </g>
     <g id="text_18">
      <!-- 1.5 -->
      <g style="fill: #ffffff" transform="translate(49.096875 112.789219) scale(0.1 -0.1)">
       <use xlink:href="#DejaVuSans-31"/>
       <use xlink:href="#DejaVuSans-2e" transform="translate(63.623047 0)"/>
       <use xlink:href="#DejaVuSans-35" transform="translate(95.410156 0)"/>
      </g>
     </g>
    </g>
    <g id="ytick_9">
     <g id="line2d_18">
      <g>
       <use xlink:href="#ma7b5d974e5" x="72" y="60.48" style="fill: #ffffff; stroke: #ffffff; stroke-width: 0.8"/>
      </g>
     </g>
     <g id="text_19">
      <!-- 2.0 -->
      <g style="fill: #ffffff" transform="translate(49.096875 64.279219) scale(0.1 -0.1)">
       <use xlink:href="#DejaVuSans-32"/>
       <use xlink:href="#DejaVuSans-2e" transform="translate(63.623047 0)"/>
       <use xlink:href="#DejaVuSans-30" transform="translate(95.410156 0)"/>
      </g>
     </g>
    </g>
    <g id="text_20">
     <!-- $y$ -->
     <g style="fill: #ffffff" transform="translate(33.357187 259.32) rotate(-90) scale(0.16 -0.16)">
      <defs>
       <path id="DejaVuSans-Oblique-79" d="M 1588 -325 
Q 1188 -997 936 -1164 
Q 684 -1331 294 -1331 
L -159 -1331 
L -63 -850 
L 269 -850 
Q 509 -850 678 -719 
Q 847 -588 1056 -206 
L 1234 128 
L 459 3500 
L 1069 3500 
L 1650 819 
L 3256 3500 
L 3859 3500 
L 1588 -325 
z
" transform="scale(0.015625)"/>
      </defs>
      <use xlink:href="#DejaVuSans-Oblique-79" transform="translate(0 0.3125)"/>
     </g>
    </g>
   </g>
   <g id="QuadContourSet_1">
    <path clip-path="url(#p155e4795ce)" style="fill: none; stroke: #beffbe; stroke-width: 1.5"/>
    <path clip-path="url(#p155e4795ce)" style="fill: none; stroke: #b1f1b1; stroke-width: 1.5"/>
    <path d="M 72 442.49625 
L 73.048872 442.724211 
L 73.118797 442.739408 
L 74.237594 442.982566 
L 75.356391 443.225724 
L 76.475188 443.468882 
L 77.52406 443.696842 
L 77.593985 443.712039 
L 78.712782 443.955197 
L 79.831579 444.198355 
L 80.950376 444.441513 
L 81.999248 444.669474 
L 82.069173 444.684671 
L 83.18797 444.927829 
L 84.306767 445.170987 
L 85.425564 445.414145 
L 86.474436 445.642105 
L 86.544361 445.657303 
L 87.663158 445.900461 
L 88.781955 446.143618 
L 89.900752 446.386776 
L 90.949624 446.614737 
L 91.019549 446.629934 
L 92.138346 446.873092 
L 93.257143 447.11625 
L 94.37594 447.359408 
L 95.424812 447.587368 
L 95.494737 447.602566 
L 96.613534 447.845724 
L 97.732331 448.088882 
L 98.851128 448.332039 
L 99.9 448.56 
" clip-path="url(#p155e4795ce)" style="fill: none; stroke: #a4e3a4; stroke-width: 1.5"/>
    <path d="M 72 424.305 
L 73.118797 424.548158 
L 74.237594 424.791316 
L 75.356391 425.034474 
L 76.195489 425.216842 
L 76.475188 425.277632 
L 77.593985 425.520789 
L 78.712782 425.763947 
L 79.831579 426.007105 
L 80.670677 426.189474 
L 80.950376 426.250263 
L 82.069173 426.493421 
L 83.18797 426.736579 
L 84.306767 426.979737 
L 85.145865 427.162105 
L 85.425564 427.222895 
L 86.544361 427.466053 
L 87.663158 427.709211 
L 88.781955 427.952368 
L 89.621053 428.134737 
L 89.900752 428.195526 
L 91.019549 428.438684 
L 92.138346 428.681842 
L 93.257143 428.925 
L 94.096241 429.107368 
L 94.37594 429.168158 
L 95.494737 429.411316 
L 96.613534 429.654474 
L 97.732331 429.897632 
L 98.571429 430.08 
L 98.851128 430.140789 
L 99.969925 430.383947 
L 101.088722 430.627105 
L 102.207519 430.870263 
L 103.046617 431.052632 
L 103.326316 431.113421 
L 104.445113 431.356579 
L 105.56391 431.599737 
L 106.682707 431.842895 
L 107.521805 432.025263 
L 107.801504 432.086053 
L 108.920301 432.329211 
L 110.039098 432.572368 
L 111.157895 432.815526 
L 111.996992 432.997895 
L 112.276692 433.058684 
L 113.395489 433.301842 
L 114.514286 433.545 
L 115.633083 433.788158 
L 116.47218 433.970526 
L 116.75188 434.031316 
L 117.870677 434.274474 
L 118.989474 434.517632 
L 120.108271 434.760789 
L 120.947368 434.943158 
L 121.227068 435.003947 
L 122.345865 435.247105 
L 123.464662 435.490263 
L 124.583459 435.733421 
L 125.422556 435.915789 
L 125.702256 435.976579 
L 126.821053 436.219737 
L 127.93985 436.462895 
L 129.058647 436.706053 
L 129.897744 436.888421 
L 130.177444 436.949211 
L 131.296241 437.192368 
L 132.415038 437.435526 
L 133.533835 437.678684 
L 134.372932 437.861053 
L 134.652632 437.921842 
L 135.771429 438.165 
L 136.890226 438.408158 
L 138.009023 438.651316 
L 138.84812 438.833684 
L 139.12782 438.894474 
L 140.246617 439.137632 
L 141.365414 439.380789 
L 142.484211 439.623947 
L 143.323308 439.806316 
L 143.603008 439.867105 
L 144.721805 440.110263 
L 145.840602 440.353421 
L 146.959398 440.596579 
L 147.798496 440.778947 
L 148.078195 440.839737 
L 149.196992 441.082895 
L 150.315789 441.326053 
L 151.434586 441.569211 
L 152.273684 441.751579 
L 152.553383 441.812368 
L 153.67218 442.055526 
L 154.790977 442.298684 
L 155.909774 442.541842 
L 156.748872 442.724211 
L 157.028571 442.785 
L 158.147368 443.028158 
L 159.266165 443.271316 
L 160.384962 443.514474 
L 161.22406 443.696842 
L 161.503759 443.757632 
L 162.622556 444.000789 
L 163.741353 444.243947 
L 164.86015 444.487105 
L 165.699248 444.669474 
L 165.978947 444.730263 
L 167.097744 444.973421 
L 168.216541 445.216579 
L 169.335338 445.459737 
L 170.174436 445.642105 
L 170.454135 445.702895 
L 171.572932 445.946053 
L 172.691729 446.189211 
L 173.810526 446.432368 
L 174.649624 446.614737 
L 174.929323 446.675526 
L 176.04812 446.918684 
L 177.166917 447.161842 
L 178.285714 447.405 
L 179.124812 447.587368 
L 179.404511 447.648158 
L 180.523308 447.891316 
L 181.642105 448.134474 
L 182.760902 448.377632 
L 183.6 448.56 
" clip-path="url(#p155e4795ce)" style="fill: none; stroke: #98d698; stroke-width: 1.5"/>
    <path d="M 72 406.11375 
L 267.3 448.56 
L 267.3 448.56 
" clip-path="url(#p155e4795ce)" style="fill: none; stroke: #8dca8d; stroke-width: 1.5"/>
    <path d="M 72 387.9225 
L 351 448.56 
L 351 448.56 
" clip-path="url(#p155e4795ce)" style="fill: none; stroke: #82be82; stroke-width: 1.5"/>
    <path d="M 72 369.73125 
L 434.7 448.56 
L 434.7 448.56 
" clip-path="url(#p155e4795ce)" style="fill: none; stroke: #77b277; stroke-width: 1.5"/>
    <path d="M 72 351.54 
L 518.4 448.56 
L 518.4 448.56 
" clip-path="url(#p155e4795ce)" style="fill: none; stroke: #6da76d; stroke-width: 1.5"/>
    <path d="M 72 333.34875 
L 518.4 430.36875 
L 518.4 430.36875 
" clip-path="url(#p155e4795ce)" style="fill: none; stroke: #639d63; stroke-width: 1.5"/>
    <path d="M 72 315.1575 
L 518.4 412.1775 
L 518.4 412.1775 
" clip-path="url(#p155e4795ce)" style="fill: none; stroke: #5a935a; stroke-width: 1.5"/>
    <path d="M 72 296.96625 
L 518.4 393.98625 
L 518.4 393.98625 
" clip-path="url(#p155e4795ce)" style="fill: none; stroke: #518951; stroke-width: 1.5"/>
    <path d="M 72 278.775 
L 518.4 375.795 
L 518.4 375.795 
" clip-path="url(#p155e4795ce)" style="fill: none; stroke: #498049; stroke-width: 1.5"/>
    <path d="M 72 260.58375 
L 518.4 357.60375 
L 518.4 357.60375 
" clip-path="url(#p155e4795ce)" style="fill: none; stroke: #417841; stroke-width: 1.5"/>
    <path d="M 72 242.3925 
L 518.4 339.4125 
L 518.4 339.4125 
" clip-path="url(#p155e4795ce)" style="fill: none; stroke: #397039; stroke-width: 1.5"/>
    <path d="M 72 224.20125 
L 518.4 321.22125 
L 518.4 321.22125 
" clip-path="url(#p155e4795ce)" style="fill: none; stroke: #326832; stroke-width: 1.5"/>
    <path d="M 72 206.01 
L 518.4 303.03 
L 518.4 303.03 
" clip-path="url(#p155e4795ce)" style="fill: none; stroke: #2c612c; stroke-width: 1.5"/>
    <path d="M 72 187.81875 
L 518.4 284.83875 
L 518.4 284.83875 
" clip-path="url(#p155e4795ce)" style="fill: none; stroke: #265b26; stroke-width: 1.5"/>
    <path d="M 72 169.6275 
L 518.4 266.6475 
L 518.4 266.6475 
" clip-path="url(#p155e4795ce)" style="fill: none; stroke: #205520; stroke-width: 1.5"/>
    <path d="M 72 151.43625 
L 518.4 248.45625 
L 518.4 248.45625 
" clip-path="url(#p155e4795ce)" style="fill: none; stroke: #1b4f1b; stroke-width: 1.5"/>
    <path d="M 72 133.245 
L 518.4 230.265 
L 518.4 230.265 
" clip-path="url(#p155e4795ce)" style="fill: none; stroke: #164a16; stroke-width: 1.5"/>
    <path d="M 72 115.05375 
L 518.4 212.07375 
L 518.4 212.07375 
" clip-path="url(#p155e4795ce)" style="fill: none; stroke: #124512; stroke-width: 1.5"/>
    <path d="M 72 96.8625 
L 518.4 193.8825 
L 518.4 193.8825 
" clip-path="url(#p155e4795ce)" style="fill: none; stroke: #0e410e; stroke-width: 1.5"/>
    <path d="M 72 78.67125 
L 518.4 175.69125 
L 518.4 175.69125 
" clip-path="url(#p155e4795ce)" style="fill: none; stroke: #0b3d0b; stroke-width: 1.5"/>
    <path d="M 72 60.48 
L 518.4 157.5 
L 518.4 157.5 
" clip-path="url(#p155e4795ce)" style="fill: none; stroke: #083a08; stroke-width: 1.5"/>
    <path d="M 155.7 60.48 
L 518.4 139.30875 
L 518.4 139.30875 
" clip-path="url(#p155e4795ce)" style="fill: none; stroke: #053805; stroke-width: 1.5"/>
    <path d="M 239.4 60.48 
L 518.4 121.1175 
L 518.4 121.1175 
" clip-path="url(#p155e4795ce)" style="fill: none; stroke: #033503; stroke-width: 1.5"/>
    <path d="M 323.1 60.48 
L 518.4 102.92625 
L 518.4 102.92625 
" clip-path="url(#p155e4795ce)" style="fill: none; stroke: #023402; stroke-width: 1.5"/>
    <path d="M 406.8 60.48 
L 407.639098 60.662368 
L 408.757895 60.905526 
L 409.876692 61.148684 
L 410.995489 61.391842 
L 411.275188 61.452632 
L 412.114286 61.635 
L 413.233083 61.878158 
L 414.35188 62.121316 
L 415.470677 62.364474 
L 415.750376 62.425263 
L 416.589474 62.607632 
L 417.708271 62.850789 
L 418.827068 63.093947 
L 419.945865 63.337105 
L 420.225564 63.397895 
L 421.064662 63.580263 
L 422.183459 63.823421 
L 423.302256 64.066579 
L 424.421053 64.309737 
L 424.700752 64.370526 
L 425.53985 64.552895 
L 426.658647 64.796053 
L 427.777444 65.039211 
L 428.896241 65.282368 
L 429.17594 65.343158 
L 430.015038 65.525526 
L 431.133835 65.768684 
L 432.252632 66.011842 
L 433.371429 66.255 
L 433.651128 66.315789 
L 434.490226 66.498158 
L 435.609023 66.741316 
L 436.72782 66.984474 
L 437.846617 67.227632 
L 438.126316 67.288421 
L 438.965414 67.470789 
L 440.084211 67.713947 
L 441.203008 67.957105 
L 442.321805 68.200263 
L 442.601504 68.261053 
L 443.440602 68.443421 
L 444.559398 68.686579 
L 445.678195 68.929737 
L 446.796992 69.172895 
L 447.076692 69.233684 
L 447.915789 69.416053 
L 449.034586 69.659211 
L 450.153383 69.902368 
L 451.27218 70.145526 
L 451.55188 70.206316 
L 452.390977 70.388684 
L 453.509774 70.631842 
L 454.628571 70.875 
L 455.747368 71.118158 
L 456.027068 71.178947 
L 456.866165 71.361316 
L 457.984962 71.604474 
L 459.103759 71.847632 
L 460.222556 72.090789 
L 460.502256 72.151579 
L 461.341353 72.333947 
L 462.46015 72.577105 
L 463.578947 72.820263 
L 464.697744 73.063421 
L 464.977444 73.124211 
L 465.816541 73.306579 
L 466.935338 73.549737 
L 468.054135 73.792895 
L 469.172932 74.036053 
L 469.452632 74.096842 
L 470.291729 74.279211 
L 471.410526 74.522368 
L 472.529323 74.765526 
L 473.64812 75.008684 
L 473.92782 75.069474 
L 474.766917 75.251842 
L 475.885714 75.495 
L 477.004511 75.738158 
L 478.123308 75.981316 
L 478.403008 76.042105 
L 479.242105 76.224474 
L 480.360902 76.467632 
L 481.479699 76.710789 
L 482.598496 76.953947 
L 482.878195 77.014737 
L 483.717293 77.197105 
L 484.83609 77.440263 
L 485.954887 77.683421 
L 487.073684 77.926579 
L 487.353383 77.987368 
L 488.192481 78.169737 
L 489.311278 78.412895 
L 490.430075 78.656053 
L 491.548872 78.899211 
L 491.828571 78.96 
L 492.667669 79.142368 
L 493.786466 79.385526 
L 494.905263 79.628684 
L 496.02406 79.871842 
L 496.303759 79.932632 
L 497.142857 80.115 
L 498.261654 80.358158 
L 499.380451 80.601316 
L 500.499248 80.844474 
L 500.778947 80.905263 
L 501.618045 81.087632 
L 502.736842 81.330789 
L 503.855639 81.573947 
L 504.974436 81.817105 
L 505.254135 81.877895 
L 506.093233 82.060263 
L 507.21203 82.303421 
L 508.330827 82.546579 
L 509.449624 82.789737 
L 509.729323 82.850526 
L 510.568421 83.032895 
L 511.687218 83.276053 
L 512.806015 83.519211 
L 513.924812 83.762368 
L 514.204511 83.823158 
L 515.043609 84.005526 
L 516.162406 84.248684 
L 517.281203 84.491842 
L 518.4 84.735 
" clip-path="url(#p155e4795ce)" style="fill: none; stroke: #003200; stroke-width: 1.5"/>
    <path d="M 490.5 60.48 
L 491.548872 60.707961 
L 492.667669 60.951118 
L 493.786466 61.194276 
L 494.905263 61.437434 
L 494.975188 61.452632 
L 496.02406 61.680592 
L 497.142857 61.92375 
L 498.261654 62.166908 
L 499.380451 62.410066 
L 499.450376 62.425263 
L 500.499248 62.653224 
L 501.618045 62.896382 
L 502.736842 63.139539 
L 503.855639 63.382697 
L 503.925564 63.397895 
L 504.974436 63.625855 
L 506.093233 63.869013 
L 507.21203 64.112171 
L 508.330827 64.355329 
L 508.400752 64.370526 
L 509.449624 64.598487 
L 510.568421 64.841645 
L 511.687218 65.084803 
L 512.806015 65.327961 
L 512.87594 65.343158 
L 513.924812 65.571118 
L 515.043609 65.814276 
L 516.162406 66.057434 
L 517.281203 66.300592 
L 517.351128 66.315789 
L 518.4 66.54375 
" clip-path="url(#p155e4795ce)" style="fill: none; stroke: #003200; stroke-width: 1.5"/>
    <path clip-path="url(#p155e4795ce)" style="fill: none; stroke: #003200; stroke-width: 1.5"/>
   </g>
   <g id="line2d_19">
    <path d="M 164.07 334.340695 
L 309.15 407.159575 
L 384.48 369.349772 
L 384.48 195.704751 
L 281.25 143.891317 
L 164.07 202.706566 
L 164.07 334.340695 
" clip-path="url(#p155e4795ce)" style="fill: none; stroke: #ff0000; stroke-width: 2; stroke-linecap: square"/>
   </g>
   <g id="patch_3">
    <path d="M 72 448.56 
L 72 60.48 
" style="fill: none; stroke: #000000; stroke-width: 0.8; stroke-linejoin: miter; stroke-linecap: square"/>
   </g>
   <g id="patch_4">
    <path d="M 518.4 448.56 
L 518.4 60.48 
" style="fill: none; stroke: #000000; stroke-width: 0.8; stroke-linejoin: miter; stroke-linecap: square"/>
   </g>
   <g id="patch_5">
    <path d="M 72 448.56 
L 518.4 448.56 
" style="fill: none; stroke: #000000; stroke-width: 0.8; stroke-linejoin: miter; stroke-linecap: square"/>
   </g>
   <g id="patch_6">
    <path d="M 72 60.48 
L 518.4 60.48 
" style="fill: none; stroke: #000000; stroke-width: 0.8; stroke-linejoin: miter; stroke-linecap: square"/>
   </g>
   <g id="PathCollection_1">
    <defs>
     <path id="m3f858066e6" d="M 0 5 
C 1.326016 5 2.597899 4.473168 3.535534 3.535534 
C 4.473168 2.597899 5 1.326016 5 0 
C 5 -1.326016 4.473168 -2.597899 3.535534 -3.535534 
C 2.597899 -4.473168 1.326016 -5 0 -5 
C -1.326016 -5 -2.597899 -4.473168 -3.535534 -3.535534 
C -4.473168 -2.597899 -5 -1.326016 -5 0 
C -5 1.326016 -4.473168 2.597899 -3.535534 3.535534 
C -2.597899 4.473168 -1.326016 5 0 5 
z
" style="stroke: #00ffff"/>
    </defs>
    <g clip-path="url(#p155e4795ce)">
     <use xlink:href="#m3f858066e6" x="281.25" y="143.891317" style="fill: #00ffff; stroke: #00ffff"/>
    </g>
   </g>
  </g>
 </g>
 <defs>
  <clipPath id="p155e4795ce">
   <rect x="72" y="60.48" width="446.4" height="388.08"/>
  </clipPath>
 </defs>
</svg>
