<?xml version="1.0" encoding="UTF-8"?>
<!DOCTYPE svg PUBLIC "-//W3C//DTD SVG 1.1//EN" "http://www.w3.org/Graphics/SVG/1.1/DTD/svg11.dtd">
<svg version="1.2" width="304.8mm" height="304.8mm" viewBox="0 0 30480 30480" preserveAspectRatio="xMidYMid" fill-rule="evenodd" stroke-width="28.222" stroke-linejoin="round" xmlns="http://www.w3.org/2000/svg" xmlns:ooo="http://xml.openoffice.org/svg/export" xmlns:xlink="http://www.w3.org/1999/xlink" xmlns:presentation="http://sun.com/xmlns/staroffice/presentation" xmlns:smil="http://www.w3.org/2001/SMIL20/" xmlns:anim="urn:oasis:names:tc:opendocument:xmlns:animation:1.0" xml:space="preserve">
 <defs class="ClipPathGroup">
  <clipPath id="presentation_clip_path" clipPathUnits="userSpaceOnUse">
   <rect x="0" y="0" width="30480" height="30480"/>
  </clipPath>
  <clipPath id="presentation_clip_path_shrink" clipPathUnits="userSpaceOnUse">
   <rect x="30" y="30" width="30420" height="30420"/>
  </clipPath>
 </defs>
 <defs class="TextShapeIndex">
  <g ooo:slide="id1" ooo:id-list="id3 id4 id5 id6 id7 id8 id9 id10 id11 id12 id13 id14 id15 id16 id17 id18 id19 id20 id21 id22 id23 id24 id25 id26 id27 id28 id29 id30 id31 id32 id33 id34 id35 id36 id37 id38 id39 id40 id41 id42 id43"/>
 </defs>
 <defs class="EmbeddedBulletChars">
  <g id="bullet-char-template-57356" transform="scale(0.00048828125,-0.00048828125)">
   <path d="M 580,1141 L 1163,571 580,0 -4,571 580,1141 Z"/>
  </g>
  <g id="bullet-char-template-57354" transform="scale(0.00048828125,-0.00048828125)">
   <path d="M 8,1128 L 1137,1128 1137,0 8,0 8,1128 Z"/>
  </g>
  <g id="bullet-char-template-10146" transform="scale(0.00048828125,-0.00048828125)">
   <path d="M 174,0 L 602,739 174,1481 1456,739 174,0 Z M 1358,739 L 309,1346 659,739 1358,739 Z"/>
  </g>
  <g id="bullet-char-template-10132" transform="scale(0.00048828125,-0.00048828125)">
   <path d="M 2015,739 L 1276,0 717,0 1260,543 174,543 174,936 1260,936 717,1481 1274,1481 2015,739 Z"/>
  </g>
  <g id="bullet-char-template-10007" transform="scale(0.00048828125,-0.00048828125)">
   <path d="M 0,-2 C -7,14 -16,27 -25,37 L 356,567 C 262,823 215,952 215,954 215,979 228,992 255,992 264,992 276,990 289,987 310,991 331,999 354,1012 L 381,999 492,748 772,1049 836,1024 860,1049 C 881,1039 901,1025 922,1006 886,937 835,863 770,784 769,783 710,716 594,584 L 774,223 C 774,196 753,168 711,139 L 727,119 C 717,90 699,76 672,76 641,76 570,178 457,381 L 164,-76 C 142,-110 111,-127 72,-127 30,-127 9,-110 8,-76 1,-67 -2,-52 -2,-32 -2,-23 -1,-13 0,-2 Z"/>
  </g>
  <g id="bullet-char-template-10004" transform="scale(0.00048828125,-0.00048828125)">
   <path d="M 285,-33 C 182,-33 111,30 74,156 52,228 41,333 41,471 41,549 55,616 82,672 116,743 169,778 240,778 293,778 328,747 346,684 L 369,508 C 377,444 397,411 428,410 L 1163,1116 C 1174,1127 1196,1133 1229,1133 1271,1133 1292,1118 1292,1087 L 1292,965 C 1292,929 1282,901 1262,881 L 442,47 C 390,-6 338,-33 285,-33 Z"/>
  </g>
  <g id="bullet-char-template-9679" transform="scale(0.00048828125,-0.00048828125)">
   <path d="M 813,0 C 632,0 489,54 383,161 276,268 223,411 223,592 223,773 276,916 383,1023 489,1130 632,1184 813,1184 992,1184 1136,1130 1245,1023 1353,916 1407,772 1407,592 1407,412 1353,268 1245,161 1136,54 992,0 813,0 Z"/>
  </g>
  <g id="bullet-char-template-8226" transform="scale(0.00048828125,-0.00048828125)">
   <path d="M 346,457 C 273,457 209,483 155,535 101,586 74,649 74,723 74,796 101,859 155,911 209,963 273,989 346,989 419,989 480,963 531,910 582,859 608,796 608,723 608,648 583,586 532,535 482,483 420,457 346,457 Z"/>
  </g>
  <g id="bullet-char-template-8211" transform="scale(0.00048828125,-0.00048828125)">
   <path d="M -4,459 L 1135,459 1135,606 -4,606 -4,459 Z"/>
  </g>
  <g id="bullet-char-template-61548" transform="scale(0.00048828125,-0.00048828125)">
   <path d="M 173,740 C 173,903 231,1043 346,1159 462,1274 601,1332 765,1332 928,1332 1067,1274 1183,1159 1299,1043 1357,903 1357,740 1357,577 1299,437 1183,322 1067,206 928,148 765,148 601,148 462,206 346,322 231,437 173,577 173,740 Z"/>
  </g>
 </defs>
 <g>
  <g id="id2" class="Master_Slide">
   <g id="bg-id2" class="Background"/>
   <g id="bo-id2" class="BackgroundObjects"/>
  </g>
 </g>
 <g class="SlideGroup">
  <g>
   <g id="container-id1">
    <g id="id1" class="Slide" clip-path="url(#presentation_clip_path)">
     <g class="Page">
      <g id="bg-id1" class="Background">
       <path fill="rgb(25,25,25)" stroke="none" d="M 15240,30479 L 0,30479 0,0 30479,0 30479,30479 15240,30479 Z"/>
      </g>
      <g class="com.sun.star.drawing.LineShape">
       <g id="id3">
        <rect class="BoundingBox" stroke="none" fill="none" x="16176" y="11985" width="1939" height="2829"/>
        <path fill="none" stroke="rgb(114,159,207)" stroke-width="159" stroke-linejoin="round" d="M 18034,14733 L 16256,12065"/>
       </g>
      </g>
      <g class="com.sun.star.drawing.LineShape">
       <g id="id4">
        <rect class="BoundingBox" stroke="none" fill="none" x="18335" y="3984" width="1050" height="4099"/>
        <path fill="none" stroke="rgb(114,159,207)" stroke-width="159" stroke-linejoin="round" d="M 18415,4064 L 19304,8002"/>
       </g>
      </g>
      <g class="com.sun.star.drawing.LineShape">
       <g id="id5">
        <rect class="BoundingBox" stroke="none" fill="none" x="13890" y="13509" width="543" height="3971"/>
        <path fill="none" stroke="rgb(114,159,207)" stroke-width="159" stroke-linejoin="round" d="M 13970,13589 L 14352,17399"/>
       </g>
      </g>
      <g class="com.sun.star.drawing.LineShape">
       <g id="id6">
        <rect class="BoundingBox" stroke="none" fill="none" x="14272" y="17319" width="2827" height="2447"/>
        <path fill="none" stroke="rgb(114,159,207)" stroke-width="159" stroke-linejoin="round" d="M 17018,19685 L 14352,17399"/>
       </g>
      </g>
      <g class="com.sun.star.drawing.LineShape">
       <g id="id7">
        <rect class="BoundingBox" stroke="none" fill="none" x="5127" y="18462" width="4480" height="2194"/>
        <path fill="none" stroke="rgb(114,159,207)" stroke-width="159" stroke-linejoin="round" d="M 9526,20575 L 5207,18542"/>
       </g>
      </g>
      <g class="com.sun.star.drawing.CustomShape">
       <g id="id8">
        <rect class="BoundingBox" stroke="none" fill="none" x="12064" y="20955" width="13211" height="7876"/>
        <path fill="rgb(55,201,30)" fill-opacity="0.29" stroke="rgb(255,255,255)" stroke-opacity="0.29" d="M 25274,24893 C 25274,25584 24969,26263 24389,26861 23809,27460 22976,27957 21972,28302 20968,28648 19829,28830 18670,28830 17510,28830 16371,28648 15367,28302 14363,27957 13530,27460 12950,26861 12370,26263 12065,25584 12065,24893 12065,24201 12370,23522 12950,22924 13530,22325 14363,21828 15367,21483 16371,21137 17510,20955 18669,20955 19829,20955 20968,21137 21972,21483 22976,21828 23809,22325 24389,22924 24969,23522 25274,24201 25274,24892 L 25274,24893 Z"/>
       </g>
      </g>
      <g class="com.sun.star.drawing.CustomShape">
       <g id="id9">
        <rect class="BoundingBox" stroke="none" fill="none" x="22097" y="6830" width="5208" height="12320"/>
        <path fill="rgb(55,201,30)" fill-opacity="0.522" stroke="rgb(255,255,255)" stroke-opacity="0.522" d="M 24701,19149 L 22097,19149 22097,6830 27304,6830 27304,19149 24701,19149 Z"/>
       </g>
      </g>
      <g class="com.sun.star.drawing.PolyPolygonShape">
       <g id="id10">
        <rect class="BoundingBox" stroke="none" fill="none" x="3429" y="3301" width="13082" height="13083"/>
        <path fill="rgb(55,201,30)" fill-opacity="0.38" stroke="rgb(255,255,255)" stroke-opacity="0.38" d="M 8382,3556 L 3429,8509 3556,13921 7894,16383 11557,15748 11303,12954 16510,10033 16256,5080 14159,3301 8382,3556 Z"/>
       </g>
      </g>
      <g class="com.sun.star.drawing.PolyPolygonShape">
       <g id="id11">
        <rect class="BoundingBox" stroke="none" fill="none" x="4365" y="4238" width="10702" height="10956"/>
        <path fill="rgb(55,201,30)" fill-opacity="0.678" stroke="rgb(255,255,255)" stroke-opacity="0.678" d="M 8509,4826 L 4572,8890 4445,13081 7874,15113 10414,14605 10287,12192 14986,9779 14986,5715 12827,4318 8509,4826 Z"/>
        <path fill="none" stroke="rgb(55,201,30)" stroke-width="159" stroke-linejoin="round" d="M 8509,4826 L 4572,8890 4445,13081 7874,15113 10414,14605 10287,12192 14986,9779 14986,5715 12827,4318 8509,4826 Z"/>
       </g>
      </g>
      <g class="com.sun.star.drawing.CustomShape">
       <g id="id12">
        <rect class="BoundingBox" stroke="none" fill="none" x="13255" y="21890" width="10576" height="6131"/>
        <path fill="rgb(55,201,30)" fill-opacity="0.612" stroke="rgb(255,255,255)" stroke-opacity="0.612" d="M 23750,24955 C 23750,25479 23509,25994 23052,26448 22595,26901 21938,27278 21146,27540 20355,27802 19457,27940 18543,27940 17628,27940 16730,27802 15939,27540 15147,27278 14490,26901 14033,26448 13576,25994 13335,25479 13335,24955 13335,24431 13576,23916 14033,23463 14490,23009 15147,22632 15939,22370 16730,22108 17628,21970 18542,21970 19457,21970 20355,22108 21146,22370 21938,22632 22595,23009 23052,23462 23509,23916 23750,24431 23750,24955 L 23750,24955 Z"/>
        <path fill="none" stroke="rgb(55,201,30)" stroke-width="159" stroke-linejoin="round" d="M 23750,24955 C 23750,25479 23509,25994 23052,26448 22595,26901 21938,27278 21146,27540 20355,27802 19457,27940 18543,27940 17628,27940 16730,27802 15939,27540 15147,27278 14490,26901 14033,26448 13576,25994 13335,25479 13335,24955 13335,24431 13576,23916 14033,23463 14490,23009 15147,22632 15939,22370 16730,22108 17628,21970 18542,21970 19457,21970 20355,22108 21146,22370 21938,22632 22595,23009 23052,23462 23509,23916 23750,24431 23750,24955 Z"/>
       </g>
      </g>
      <g class="com.sun.star.drawing.CustomShape">
       <g id="id13">
        <rect class="BoundingBox" stroke="none" fill="none" x="22907" y="7794" width="3463" height="10575"/>
        <path fill="rgb(55,201,30)" fill-opacity="0.741" stroke="rgb(255,255,255)" stroke-opacity="0.741" d="M 24638,18288 L 22987,18288 22987,7874 26289,7874 26289,18288 24638,18288 Z"/>
        <path fill="none" stroke="rgb(55,201,30)" stroke-width="159" stroke-linejoin="round" d="M 24638,18288 L 22987,18288 22987,7874 26289,7874 26289,18288 24638,18288 Z"/>
       </g>
      </g>
      <g class="com.sun.star.drawing.CustomShape">
       <g id="id14">
        <rect class="BoundingBox" stroke="none" fill="none" x="4317" y="24256" width="1020" height="1020"/>
        <path fill="rgb(198,114,207)" stroke="none" d="M 5335,24766 C 5335,24855 5312,24942 5267,25020 5222,25097 5158,25161 5081,25206 5003,25251 4916,25274 4827,25274 4737,25274 4650,25251 4572,25206 4495,25161 4431,25097 4386,25020 4341,24942 4318,24855 4318,24766 4318,24676 4341,24589 4386,24511 4431,24434 4495,24370 4572,24325 4650,24280 4737,24257 4827,24257 4916,24257 5003,24280 5081,24325 5158,24370 5222,24434 5267,24511 5312,24589 5335,24676 5335,24766 L 5335,24766 Z"/>
        <path fill="none" stroke="rgb(198,114,207)" d="M 5335,24766 C 5335,24855 5312,24942 5267,25020 5222,25097 5158,25161 5081,25206 5003,25251 4916,25274 4827,25274 4737,25274 4650,25251 4572,25206 4495,25161 4431,25097 4386,25020 4341,24942 4318,24855 4318,24766 4318,24676 4341,24589 4386,24511 4431,24434 4495,24370 4572,24325 4650,24280 4737,24257 4827,24257 4916,24257 5003,24280 5081,24325 5158,24370 5222,24434 5267,24511 5312,24589 5335,24676 5335,24766 Z"/>
       </g>
      </g>
      <g class="com.sun.star.drawing.LineShape">
       <g id="id15">
        <rect class="BoundingBox" stroke="none" fill="none" x="4746" y="20494" width="4860" height="4352"/>
        <path fill="none" stroke="rgb(198,114,207)" stroke-width="159" stroke-linejoin="round" d="M 9525,20574 L 4826,24765"/>
       </g>
      </g>
      <g class="com.sun.star.drawing.CustomShape">
       <g id="id16">
        <rect class="BoundingBox" stroke="none" fill="none" x="4825" y="17906" width="1020" height="1020"/>
        <path fill="rgb(114,159,207)" stroke="none" d="M 5843,18416 C 5843,18505 5820,18592 5775,18670 5730,18747 5666,18811 5589,18856 5511,18901 5424,18924 5335,18924 5245,18924 5158,18901 5080,18856 5003,18811 4939,18747 4894,18670 4849,18592 4826,18505 4826,18416 4826,18326 4849,18239 4894,18161 4939,18084 5003,18020 5080,17975 5158,17930 5245,17907 5335,17907 5424,17907 5511,17930 5589,17975 5666,18020 5730,18084 5775,18161 5820,18239 5843,18326 5843,18416 L 5843,18416 Z"/>
        <path fill="none" stroke="rgb(114,159,207)" d="M 5843,18416 C 5843,18505 5820,18592 5775,18670 5730,18747 5666,18811 5589,18856 5511,18901 5424,18924 5335,18924 5245,18924 5158,18901 5080,18856 5003,18811 4939,18747 4894,18670 4849,18592 4826,18505 4826,18416 4826,18326 4849,18239 4894,18161 4939,18084 5003,18020 5080,17975 5158,17930 5245,17907 5335,17907 5424,17907 5511,17930 5589,17975 5666,18020 5730,18084 5775,18161 5820,18239 5843,18326 5843,18416 Z"/>
       </g>
      </g>
      <g class="com.sun.star.drawing.CustomShape">
       <g id="id17">
        <rect class="BoundingBox" stroke="none" fill="none" x="9016" y="19938" width="1020" height="1020"/>
        <path fill="rgb(198,114,207)" stroke="none" d="M 10034,20448 C 10034,20537 10011,20624 9966,20702 9921,20779 9857,20843 9780,20888 9702,20933 9615,20956 9526,20956 9436,20956 9349,20933 9271,20888 9194,20843 9130,20779 9085,20702 9040,20624 9017,20537 9017,20448 9017,20358 9040,20271 9085,20193 9130,20116 9194,20052 9271,20007 9349,19962 9436,19939 9526,19939 9615,19939 9702,19962 9780,20007 9857,20052 9921,20116 9966,20193 10011,20271 10034,20358 10034,20448 L 10034,20448 Z"/>
        <path fill="none" stroke="rgb(198,114,207)" d="M 10034,20448 C 10034,20537 10011,20624 9966,20702 9921,20779 9857,20843 9780,20888 9702,20933 9615,20956 9526,20956 9436,20956 9349,20933 9271,20888 9194,20843 9130,20779 9085,20702 9040,20624 9017,20537 9017,20448 9017,20358 9040,20271 9085,20193 9130,20116 9194,20052 9271,20007 9349,19962 9436,19939 9526,19939 9615,19939 9702,19962 9780,20007 9857,20052 9921,20116 9966,20193 10011,20271 10034,20358 10034,20448 Z"/>
       </g>
      </g>
      <g class="com.sun.star.drawing.CustomShape">
       <g id="id18">
        <rect class="BoundingBox" stroke="none" fill="none" x="2793" y="20319" width="1020" height="1020"/>
        <path fill="rgb(114,159,207)" stroke="none" d="M 3811,20829 C 3811,20918 3788,21005 3743,21083 3698,21160 3634,21224 3557,21269 3479,21314 3392,21337 3303,21337 3213,21337 3126,21314 3048,21269 2971,21224 2907,21160 2862,21083 2817,21005 2794,20918 2794,20829 2794,20739 2817,20652 2862,20574 2907,20497 2971,20433 3048,20388 3126,20343 3213,20320 3303,20320 3392,20320 3479,20343 3557,20388 3634,20433 3698,20497 3743,20574 3788,20652 3811,20739 3811,20829 L 3811,20829 Z"/>
        <path fill="none" stroke="rgb(114,159,207)" d="M 3811,20829 C 3811,20918 3788,21005 3743,21083 3698,21160 3634,21224 3557,21269 3479,21314 3392,21337 3303,21337 3213,21337 3126,21314 3048,21269 2971,21224 2907,21160 2862,21083 2817,21005 2794,20918 2794,20829 2794,20739 2817,20652 2862,20574 2907,20497 2971,20433 3048,20388 3126,20343 3213,20320 3303,20320 3392,20320 3479,20343 3557,20388 3634,20433 3698,20497 3743,20574 3788,20652 3811,20739 3811,20829 Z"/>
       </g>
      </g>
      <g class="com.sun.star.drawing.LineShape">
       <g id="id19">
        <rect class="BoundingBox" stroke="none" fill="none" x="3222" y="18463" width="2067" height="2446"/>
        <path fill="none" stroke="rgb(114,159,207)" stroke-width="159" stroke-linejoin="round" d="M 3302,20828 L 5208,18543"/>
       </g>
      </g>
      <g class="com.sun.star.drawing.LineShape">
       <g id="id20">
        <rect class="BoundingBox" stroke="none" fill="none" x="3095" y="15414" width="2194" height="3211"/>
        <path fill="none" stroke="rgb(114,159,207)" stroke-width="159" stroke-linejoin="round" d="M 3175,15494 L 5208,18544"/>
       </g>
      </g>
      <g class="com.sun.star.drawing.CustomShape">
       <g id="id21">
        <rect class="BoundingBox" stroke="none" fill="none" x="2793" y="14985" width="1020" height="1020"/>
        <path fill="rgb(114,159,207)" stroke="none" d="M 3811,15495 C 3811,15584 3788,15671 3743,15749 3698,15826 3634,15890 3557,15935 3479,15980 3392,16003 3303,16003 3213,16003 3126,15980 3048,15935 2971,15890 2907,15826 2862,15749 2817,15671 2794,15584 2794,15495 2794,15405 2817,15318 2862,15240 2907,15163 2971,15099 3048,15054 3126,15009 3213,14986 3302,14986 3392,14986 3479,15009 3557,15054 3634,15099 3698,15163 3743,15240 3788,15318 3811,15405 3811,15495 L 3811,15495 Z"/>
        <path fill="none" stroke="rgb(114,159,207)" d="M 3811,15495 C 3811,15584 3788,15671 3743,15749 3698,15826 3634,15890 3557,15935 3479,15980 3392,16003 3303,16003 3213,16003 3126,15980 3048,15935 2971,15890 2907,15826 2862,15749 2817,15671 2794,15584 2794,15495 2794,15405 2817,15318 2862,15240 2907,15163 2971,15099 3048,15054 3126,15009 3213,14986 3302,14986 3392,14986 3479,15009 3557,15054 3634,15099 3698,15163 3743,15240 3788,15318 3811,15405 3811,15495 Z"/>
       </g>
      </g>
      <g class="com.sun.star.drawing.LineShape">
       <g id="id22">
        <rect class="BoundingBox" stroke="none" fill="none" x="9446" y="17319" width="4986" height="3337"/>
        <path fill="none" stroke="rgb(198,114,207)" stroke-width="159" stroke-linejoin="round" d="M 9526,20575 L 14351,17399"/>
       </g>
      </g>
      <g class="com.sun.star.drawing.CustomShape">
       <g id="id23">
        <rect class="BoundingBox" stroke="none" fill="none" x="13842" y="16890" width="1020" height="1020"/>
        <path fill="rgb(198,114,207)" stroke="none" d="M 14860,17400 C 14860,17489 14837,17576 14792,17654 14747,17731 14683,17795 14606,17840 14528,17885 14441,17908 14352,17908 14262,17908 14175,17885 14097,17840 14020,17795 13956,17731 13911,17654 13866,17576 13843,17489 13843,17400 13843,17310 13866,17223 13911,17145 13956,17068 14020,17004 14097,16959 14175,16914 14262,16891 14352,16891 14441,16891 14528,16914 14606,16959 14683,17004 14747,17068 14792,17145 14837,17223 14860,17310 14860,17400 L 14860,17400 Z"/>
        <path fill="none" stroke="rgb(198,114,207)" d="M 14860,17400 C 14860,17489 14837,17576 14792,17654 14747,17731 14683,17795 14606,17840 14528,17885 14441,17908 14352,17908 14262,17908 14175,17885 14097,17840 14020,17795 13956,17731 13911,17654 13866,17576 13843,17489 13843,17400 13843,17310 13866,17223 13911,17145 13956,17068 14020,17004 14097,16959 14175,16914 14262,16891 14352,16891 14441,16891 14528,16914 14606,16959 14683,17004 14747,17068 14792,17145 14837,17223 14860,17310 14860,17400 Z"/>
       </g>
      </g>
      <g class="com.sun.star.drawing.CustomShape">
       <g id="id24">
        <rect class="BoundingBox" stroke="none" fill="none" x="16636" y="19176" width="1020" height="1020"/>
        <path fill="rgb(114,159,207)" stroke="none" d="M 17654,19686 C 17654,19775 17631,19862 17586,19940 17541,20017 17477,20081 17400,20126 17322,20171 17235,20194 17146,20194 17056,20194 16969,20171 16891,20126 16814,20081 16750,20017 16705,19940 16660,19862 16637,19775 16637,19686 16637,19596 16660,19509 16705,19431 16750,19354 16814,19290 16891,19245 16969,19200 17056,19177 17146,19177 17235,19177 17322,19200 17400,19245 17477,19290 17541,19354 17586,19431 17631,19509 17654,19596 17654,19686 L 17654,19686 Z"/>
        <path fill="none" stroke="rgb(114,159,207)" d="M 17654,19686 C 17654,19775 17631,19862 17586,19940 17541,20017 17477,20081 17400,20126 17322,20171 17235,20194 17146,20194 17056,20194 16969,20171 16891,20126 16814,20081 16750,20017 16705,19940 16660,19862 16637,19775 16637,19686 16637,19596 16660,19509 16705,19431 16750,19354 16814,19290 16891,19245 16969,19200 17056,19177 17146,19177 17235,19177 17322,19200 17400,19245 17477,19290 17541,19354 17586,19431 17631,19509 17654,19596 17654,19686 Z"/>
       </g>
      </g>
      <g class="com.sun.star.drawing.CustomShape">
       <g id="id25">
        <rect class="BoundingBox" stroke="none" fill="none" x="13461" y="12953" width="1020" height="1020"/>
        <path fill="rgb(114,159,207)" stroke="none" d="M 14479,13463 C 14479,13552 14456,13639 14411,13717 14366,13794 14302,13858 14225,13903 14147,13948 14060,13971 13971,13971 13881,13971 13794,13948 13716,13903 13639,13858 13575,13794 13530,13717 13485,13639 13462,13552 13462,13463 13462,13373 13485,13286 13530,13208 13575,13131 13639,13067 13716,13022 13794,12977 13881,12954 13971,12954 14060,12954 14147,12977 14225,13022 14302,13067 14366,13131 14411,13208 14456,13286 14479,13373 14479,13463 L 14479,13463 Z"/>
        <path fill="none" stroke="rgb(114,159,207)" d="M 14479,13463 C 14479,13552 14456,13639 14411,13717 14366,13794 14302,13858 14225,13903 14147,13948 14060,13971 13971,13971 13881,13971 13794,13948 13716,13903 13639,13858 13575,13794 13530,13717 13485,13639 13462,13552 13462,13463 13462,13373 13485,13286 13530,13208 13575,13131 13639,13067 13716,13022 13794,12977 13881,12954 13971,12954 14060,12954 14147,12977 14225,13022 14302,13067 14366,13131 14411,13208 14456,13286 14479,13373 14479,13463 Z"/>
       </g>
      </g>
      <g class="com.sun.star.drawing.CustomShape">
       <g id="id26">
        <rect class="BoundingBox" stroke="none" fill="none" x="18795" y="18033" width="1020" height="1020"/>
        <path fill="rgb(114,159,207)" stroke="none" d="M 19813,18543 C 19813,18632 19790,18719 19745,18797 19700,18874 19636,18938 19559,18983 19481,19028 19394,19051 19305,19051 19215,19051 19128,19028 19050,18983 18973,18938 18909,18874 18864,18797 18819,18719 18796,18632 18796,18543 18796,18453 18819,18366 18864,18288 18909,18211 18973,18147 19050,18102 19128,18057 19215,18034 19305,18034 19394,18034 19481,18057 19559,18102 19636,18147 19700,18211 19745,18288 19790,18366 19813,18453 19813,18543 L 19813,18543 Z"/>
        <path fill="none" stroke="rgb(114,159,207)" d="M 19813,18543 C 19813,18632 19790,18719 19745,18797 19700,18874 19636,18938 19559,18983 19481,19028 19394,19051 19305,19051 19215,19051 19128,19028 19050,18983 18973,18938 18909,18874 18864,18797 18819,18719 18796,18632 18796,18543 18796,18453 18819,18366 18864,18288 18909,18211 18973,18147 19050,18102 19128,18057 19215,18034 19305,18034 19394,18034 19481,18057 19559,18102 19636,18147 19700,18211 19745,18288 19790,18366 19813,18453 19813,18543 Z"/>
       </g>
      </g>
      <g class="com.sun.star.drawing.LineShape">
       <g id="id27">
        <rect class="BoundingBox" stroke="none" fill="none" x="16938" y="18335" width="2574" height="1431"/>
        <path fill="none" stroke="rgb(114,159,207)" stroke-width="159" stroke-linejoin="round" d="M 17018,19685 L 19431,18415"/>
       </g>
      </g>
      <g class="com.sun.star.drawing.CustomShape">
       <g id="id28">
        <rect class="BoundingBox" stroke="none" fill="none" x="17525" y="14223" width="1020" height="1020"/>
        <path fill="rgb(198,114,207)" stroke="none" d="M 18543,14733 C 18543,14822 18520,14909 18475,14987 18430,15064 18366,15128 18289,15173 18211,15218 18124,15241 18035,15241 17945,15241 17858,15218 17780,15173 17703,15128 17639,15064 17594,14987 17549,14909 17526,14822 17526,14733 17526,14643 17549,14556 17594,14478 17639,14401 17703,14337 17780,14292 17858,14247 17945,14224 18035,14224 18124,14224 18211,14247 18289,14292 18366,14337 18430,14401 18475,14478 18520,14556 18543,14643 18543,14733 L 18543,14733 Z"/>
        <path fill="none" stroke="rgb(198,114,207)" d="M 18543,14733 C 18543,14822 18520,14909 18475,14987 18430,15064 18366,15128 18289,15173 18211,15218 18124,15241 18035,15241 17945,15241 17858,15218 17780,15173 17703,15128 17639,15064 17594,14987 17549,14909 17526,14822 17526,14733 17526,14643 17549,14556 17594,14478 17639,14401 17703,14337 17780,14292 17858,14247 17945,14224 18035,14224 18124,14224 18211,14247 18289,14292 18366,14337 18430,14401 18475,14478 18520,14556 18543,14643 18543,14733 Z"/>
       </g>
      </g>
      <g class="com.sun.star.drawing.LineShape">
       <g id="id29">
        <rect class="BoundingBox" stroke="none" fill="none" x="14272" y="14652" width="3843" height="2828"/>
        <path fill="none" stroke="rgb(198,114,207)" stroke-width="159" stroke-linejoin="round" d="M 18034,14732 L 14352,17399"/>
       </g>
      </g>
      <g class="com.sun.star.drawing.CustomShape">
       <g id="id30">
        <rect class="BoundingBox" stroke="none" fill="none" x="15747" y="11556" width="1020" height="1020"/>
        <path fill="rgb(114,159,207)" stroke="none" d="M 16765,12066 C 16765,12155 16742,12242 16697,12320 16652,12397 16588,12461 16511,12506 16433,12551 16346,12574 16257,12574 16167,12574 16080,12551 16002,12506 15925,12461 15861,12397 15816,12320 15771,12242 15748,12155 15748,12066 15748,11976 15771,11889 15816,11811 15861,11734 15925,11670 16002,11625 16080,11580 16167,11557 16257,11557 16346,11557 16433,11580 16511,11625 16588,11670 16652,11734 16697,11811 16742,11889 16765,11976 16765,12066 L 16765,12066 Z"/>
        <path fill="none" stroke="rgb(114,159,207)" d="M 16765,12066 C 16765,12155 16742,12242 16697,12320 16652,12397 16588,12461 16511,12506 16433,12551 16346,12574 16257,12574 16167,12574 16080,12551 16002,12506 15925,12461 15861,12397 15816,12320 15771,12242 15748,12155 15748,12066 15748,11976 15771,11889 15816,11811 15861,11734 15925,11670 16002,11625 16080,11580 16167,11557 16257,11557 16346,11557 16433,11580 16511,11625 16588,11670 16652,11734 16697,11811 16742,11889 16765,11976 16765,12066 Z"/>
       </g>
      </g>
      <g class="com.sun.star.drawing.LineShape">
       <g id="id31">
        <rect class="BoundingBox" stroke="none" fill="none" x="17954" y="7921" width="1431" height="6893"/>
        <path fill="none" stroke="rgb(198,114,207)" stroke-width="159" stroke-linejoin="round" d="M 18034,14733 L 19304,8001"/>
       </g>
      </g>
      <g class="com.sun.star.drawing.CustomShape">
       <g id="id32">
        <rect class="BoundingBox" stroke="none" fill="none" x="18795" y="7365" width="1020" height="1020"/>
        <path fill="rgb(198,114,207)" stroke="none" d="M 19813,7875 C 19813,7964 19790,8051 19745,8129 19700,8206 19636,8270 19559,8315 19481,8360 19394,8383 19305,8383 19215,8383 19128,8360 19050,8315 18973,8270 18909,8206 18864,8129 18819,8051 18796,7964 18796,7875 18796,7785 18819,7698 18864,7620 18909,7543 18973,7479 19050,7434 19128,7389 19215,7366 19305,7366 19394,7366 19481,7389 19559,7434 19636,7479 19700,7543 19745,7620 19790,7698 19813,7785 19813,7874 L 19813,7875 Z"/>
        <path fill="none" stroke="rgb(198,114,207)" d="M 19813,7875 C 19813,7964 19790,8051 19745,8129 19700,8206 19636,8270 19559,8315 19481,8360 19394,8383 19305,8383 19215,8383 19128,8360 19050,8315 18973,8270 18909,8206 18864,8129 18819,8051 18796,7964 18796,7875 18796,7785 18819,7698 18864,7620 18909,7543 18973,7479 19050,7434 19128,7389 19215,7366 19305,7366 19394,7366 19481,7389 19559,7434 19636,7479 19700,7543 19745,7620 19790,7698 19813,7785 19813,7874 L 19813,7875 Z"/>
       </g>
      </g>
      <g class="com.sun.star.drawing.LineShape">
       <g id="id33">
        <rect class="BoundingBox" stroke="none" fill="none" x="19352" y="18335" width="5494" height="3082"/>
        <path fill="none" stroke="rgb(114,159,207)" stroke-width="159" stroke-linejoin="round" d="M 24765,21336 L 19432,18415"/>
       </g>
      </g>
      <g class="com.sun.star.drawing.CustomShape">
       <g id="id34">
        <rect class="BoundingBox" stroke="none" fill="none" x="24383" y="20827" width="1020" height="1020"/>
        <path fill="rgb(114,159,207)" stroke="none" d="M 25401,21337 C 25401,21426 25378,21513 25333,21591 25288,21668 25224,21732 25147,21777 25069,21822 24982,21845 24893,21845 24803,21845 24716,21822 24638,21777 24561,21732 24497,21668 24452,21591 24407,21513 24384,21426 24384,21337 24384,21247 24407,21160 24452,21082 24497,21005 24561,20941 24638,20896 24716,20851 24803,20828 24893,20828 24982,20828 25069,20851 25147,20896 25224,20941 25288,21005 25333,21082 25378,21160 25401,21247 25401,21337 L 25401,21337 Z"/>
        <path fill="none" stroke="rgb(114,159,207)" d="M 25401,21337 C 25401,21426 25378,21513 25333,21591 25288,21668 25224,21732 25147,21777 25069,21822 24982,21845 24893,21845 24803,21845 24716,21822 24638,21777 24561,21732 24497,21668 24452,21591 24407,21513 24384,21426 24384,21337 24384,21247 24407,21160 24452,21082 24497,21005 24561,20941 24638,20896 24716,20851 24803,20828 24893,20828 24982,20828 25069,20851 25147,20896 25224,20941 25288,21005 25333,21082 25378,21160 25401,21247 25401,21337 Z"/>
       </g>
      </g>
      <g class="com.sun.star.drawing.LineShape">
       <g id="id35">
        <rect class="BoundingBox" stroke="none" fill="none" x="24686" y="19986" width="3843" height="1432"/>
        <path fill="none" stroke="rgb(114,159,207)" stroke-width="159" stroke-linejoin="round" d="M 24766,21337 L 28448,20066"/>
       </g>
      </g>
      <g class="com.sun.star.drawing.CustomShape">
       <g id="id36">
        <rect class="BoundingBox" stroke="none" fill="none" x="28193" y="19303" width="1020" height="1020"/>
        <path fill="rgb(114,159,207)" stroke="none" d="M 29211,19813 C 29211,19902 29188,19989 29143,20067 29098,20144 29034,20208 28957,20253 28879,20298 28792,20321 28703,20321 28613,20321 28526,20298 28448,20253 28371,20208 28307,20144 28262,20067 28217,19989 28194,19902 28194,19813 28194,19723 28217,19636 28262,19558 28307,19481 28371,19417 28448,19372 28526,19327 28613,19304 28703,19304 28792,19304 28879,19327 28957,19372 29034,19417 29098,19481 29143,19558 29188,19636 29211,19723 29211,19813 L 29211,19813 Z"/>
        <path fill="none" stroke="rgb(114,159,207)" d="M 29211,19813 C 29211,19902 29188,19989 29143,20067 29098,20144 29034,20208 28957,20253 28879,20298 28792,20321 28703,20321 28613,20321 28526,20298 28448,20253 28371,20208 28307,20144 28262,20067 28217,19989 28194,19902 28194,19813 28194,19723 28217,19636 28262,19558 28307,19481 28371,19417 28448,19372 28526,19327 28613,19304 28703,19304 28792,19304 28879,19327 28957,19372 29034,19417 29098,19481 29143,19558 29188,19636 29211,19723 29211,19813 Z"/>
       </g>
      </g>
      <g class="com.sun.star.drawing.LineShape">
       <g id="id37">
        <rect class="BoundingBox" stroke="none" fill="none" x="24686" y="21258" width="3335" height="3334"/>
        <path fill="none" stroke="rgb(114,159,207)" stroke-width="159" stroke-linejoin="round" d="M 24766,21338 L 27940,24511"/>
       </g>
      </g>
      <g class="com.sun.star.drawing.CustomShape">
       <g id="id38">
        <rect class="BoundingBox" stroke="none" fill="none" x="27558" y="24002" width="1020" height="1020"/>
        <path fill="rgb(114,159,207)" stroke="none" d="M 28576,24512 C 28576,24601 28553,24688 28508,24766 28463,24843 28399,24907 28322,24952 28244,24997 28157,25020 28068,25020 27978,25020 27891,24997 27813,24952 27736,24907 27672,24843 27627,24766 27582,24688 27559,24601 27559,24512 27559,24422 27582,24335 27627,24257 27672,24180 27736,24116 27813,24071 27891,24026 27978,24003 28068,24003 28157,24003 28244,24026 28322,24071 28399,24116 28463,24180 28508,24257 28553,24335 28576,24422 28576,24512 L 28576,24512 Z"/>
        <path fill="none" stroke="rgb(114,159,207)" d="M 28576,24512 C 28576,24601 28553,24688 28508,24766 28463,24843 28399,24907 28322,24952 28244,24997 28157,25020 28068,25020 27978,25020 27891,24997 27813,24952 27736,24907 27672,24843 27627,24766 27582,24688 27559,24601 27559,24512 27559,24422 27582,24335 27627,24257 27672,24180 27736,24116 27813,24071 27891,24026 27978,24003 28068,24003 28157,24003 28244,24026 28322,24071 28399,24116 28463,24180 28508,24257 28553,24335 28576,24422 28576,24512 Z"/>
       </g>
      </g>
      <g class="com.sun.star.drawing.LineShape">
       <g id="id39">
        <rect class="BoundingBox" stroke="none" fill="none" x="19224" y="3222" width="3463" height="4860"/>
        <path fill="none" stroke="rgb(198,114,207)" stroke-width="159" stroke-linejoin="round" d="M 22606,3302 L 19304,8001"/>
       </g>
      </g>
      <g class="com.sun.star.drawing.CustomShape">
       <g id="id40">
        <rect class="BoundingBox" stroke="none" fill="none" x="22224" y="2666" width="1020" height="1020"/>
        <path fill="rgb(198,114,207)" stroke="none" d="M 23242,3176 C 23242,3265 23219,3352 23174,3430 23129,3507 23065,3571 22988,3616 22910,3661 22823,3684 22734,3684 22644,3684 22557,3661 22479,3616 22402,3571 22338,3507 22293,3430 22248,3352 22225,3265 22225,3176 22225,3086 22248,2999 22293,2921 22338,2844 22402,2780 22479,2735 22557,2690 22644,2667 22734,2667 22823,2667 22910,2690 22988,2735 23065,2780 23129,2844 23174,2921 23219,2999 23242,3086 23242,3175 L 23242,3176 Z"/>
        <path fill="none" stroke="rgb(198,114,207)" d="M 23242,3176 C 23242,3265 23219,3352 23174,3430 23129,3507 23065,3571 22988,3616 22910,3661 22823,3684 22734,3684 22644,3684 22557,3661 22479,3616 22402,3571 22338,3507 22293,3430 22248,3352 22225,3265 22225,3176 22225,3086 22248,2999 22293,2921 22338,2844 22402,2780 22479,2735 22557,2690 22644,2667 22734,2667 22823,2667 22910,2690 22988,2735 23065,2780 23129,2844 23174,2921 23219,2999 23242,3086 23242,3175 L 23242,3176 Z"/>
       </g>
      </g>
      <g class="com.sun.star.drawing.CustomShape">
       <g id="id41">
        <rect class="BoundingBox" stroke="none" fill="none" x="17779" y="3301" width="1020" height="1020"/>
        <path fill="rgb(114,159,207)" stroke="none" d="M 18797,3811 C 18797,3900 18774,3987 18729,4065 18684,4142 18620,4206 18543,4251 18465,4296 18378,4319 18289,4319 18199,4319 18112,4296 18034,4251 17957,4206 17893,4142 17848,4065 17803,3987 17780,3900 17780,3811 17780,3721 17803,3634 17848,3556 17893,3479 17957,3415 18034,3370 18112,3325 18199,3302 18289,3302 18378,3302 18465,3325 18543,3370 18620,3415 18684,3479 18729,3556 18774,3634 18797,3721 18797,3811 L 18797,3811 Z"/>
        <path fill="none" stroke="rgb(114,159,207)" d="M 18797,3811 C 18797,3900 18774,3987 18729,4065 18684,4142 18620,4206 18543,4251 18465,4296 18378,4319 18289,4319 18199,4319 18112,4296 18034,4251 17957,4206 17893,4142 17848,4065 17803,3987 17780,3900 17780,3811 17780,3721 17803,3634 17848,3556 17893,3479 17957,3415 18034,3370 18112,3325 18199,3302 18289,3302 18378,3302 18465,3325 18543,3370 18620,3415 18684,3479 18729,3556 18774,3634 18797,3721 18797,3811 Z"/>
       </g>
      </g>
      <g class="Graphic">
       <title>TexMaths
       </title>
       <desc>14§display§\textcolor{white}{q_0}§svg§600§TRUE§
       </desc>
       <g id="id42">
        <rect class="BoundingBox" stroke="none" fill="none" x="2545" y="25781" width="1901" height="1533"/>
        <path fill="rgb(255,255,255)" stroke="none" d="M 3599,25886 C 3599,25877 3592,25864 3577,25864 3554,25864 3467,25950 3431,26013 3384,25897 3300,25862 3231,25862 2977,25862 2712,26181 2712,26493 2712,26704 2839,26838 2996,26838 3089,26838 3173,26786 3250,26709 3231,26784 3160,27075 3153,27094 3136,27154 3119,27163 2998,27165 2970,27165 2949,27165 2949,27208 2949,27210 2949,27232 2977,27232 3046,27232 3121,27225 3192,27225 3265,27225 3343,27232 3414,27232 3424,27232 3452,27232 3452,27189 3452,27165 3431,27165 3396,27165 3293,27165 3293,27150 3293,27131 3293,27116 3297,27103 3302,27083 L 3599,25886 3599,25886 Z M 3003,26790 C 2873,26790 2865,26625 2865,26588 2865,26485 2927,26250 2964,26159 3031,26000 3142,25909 3231,25909 3371,25909 3401,26084 3401,26099 3401,26112 3282,26584 3276,26592 3244,26653 3123,26790 3003,26790 L 3003,26790 Z"/>
        <path fill="rgb(255,255,255)" stroke="none" d="M 4364,26656 C 4364,26490 4344,26371 4275,26266 4228,26196 4135,26136 4015,26136 3665,26136 3665,26548 3665,26656 3665,26765 3665,27167 4015,27167 4364,27167 4364,26765 4364,26656 L 4364,26656 Z M 4015,27125 C 3945,27125 3853,27084 3823,26961 3802,26872 3802,26748 3802,26637 3802,26527 3802,26412 3825,26329 3856,26210 3953,26178 4015,26178 4096,26178 4174,26228 4201,26315 4225,26397 4227,26505 4227,26637 4227,26748 4227,26860 4207,26955 4177,27092 4075,27125 4015,27125 L 4015,27125 Z"/>
       </g>
      </g>
      <g class="Graphic">
       <title>TexMaths
       </title>
       <desc>14§display§\textcolor{white}{q_F}§svg§600§TRUE§
       </desc>
       <g id="id43">
        <rect class="BoundingBox" stroke="none" fill="none" x="23792" y="2151" width="2371" height="1533"/>
        <path fill="rgb(255,255,255)" stroke="none" d="M 24846,2256 C 24846,2247 24839,2234 24824,2234 24801,2234 24714,2320 24678,2383 24631,2267 24547,2232 24478,2232 24224,2232 23959,2551 23959,2863 23959,3074 24086,3208 24243,3208 24336,3208 24420,3156 24497,3079 24478,3154 24407,3445 24400,3464 24383,3524 24366,3533 24245,3535 24217,3535 24196,3535 24196,3578 24196,3580 24196,3602 24224,3602 24293,3602 24368,3595 24439,3595 24512,3595 24590,3602 24661,3602 24671,3602 24699,3602 24699,3559 24699,3535 24678,3535 24643,3535 24540,3535 24540,3520 24540,3501 24540,3486 24544,3473 24549,3453 L 24846,2256 24846,2256 Z M 24250,3160 C 24120,3160 24112,2995 24112,2958 24112,2855 24174,2620 24211,2529 24278,2370 24389,2279 24478,2279 24618,2279 24648,2454 24648,2469 24648,2482 24529,2954 24523,2962 24491,3023 24370,3160 24250,3160 L 24250,3160 Z"/>
        <path fill="rgb(255,255,255)" stroke="none" d="M 25349,3022 L 25510,3022 C 25625,3022 25644,3040 25644,3090 25644,3112 25644,3115 25634,3157 25631,3166 25629,3171 25629,3175 25629,3191 25640,3198 25655,3198 25674,3198 25676,3191 25683,3163 L 25765,2844 C 25766,2839 25771,2817 25771,2814 25771,2799 25760,2791 25745,2791 25724,2791 25722,2800 25715,2827 25685,2945 25641,2967 25513,2967 L 25362,2967 25457,2589 C 25469,2542 25471,2538 25534,2538 L 25765,2538 C 25965,2538 26003,2586 26003,2711 26003,2761 25997,2793 25997,2805 25997,2817 26001,2830 26022,2830 26045,2830 26046,2817 26049,2791 L 26076,2529 C 26081,2483 26070,2483 26033,2483 L 25228,2483 C 25200,2483 25180,2483 25180,2517 25180,2538 25198,2538 25228,2538 25230,2538 25258,2538 25286,2541 25317,2544 25320,2547 25320,2562 25320,2572 25316,2587 25314,2595 L 25117,3384 C 25102,3442 25100,3453 24983,3453 24957,3453 24938,3453 24938,3485 24938,3500 24948,3507 24962,3507 25005,3507 25117,3501 25161,3501 L 25277,3503 C 25316,3503 25358,3507 25396,3507 25406,3507 25429,3507 25429,3474 25429,3453 25411,3453 25376,3453 25373,3453 25335,3453 25298,3450 25266,3447 25251,3445 25251,3424 25251,3418 25251,3414 25255,3397 L 25349,3022 25349,3022 Z"/>
       </g>
      </g>
     </g>
    </g>
   </g>
  </g>
 </g>
</svg>