<?xml version="1.0" encoding="utf-8" standalone="no"?>
<!DOCTYPE svg PUBLIC "-//W3C//DTD SVG 1.1//EN"
  "http://www.w3.org/Graphics/SVG/1.1/DTD/svg11.dtd">
<svg xmlns:xlink="http://www.w3.org/1999/xlink" width="432pt" height="432pt" viewBox="0 0 432 432" xmlns="http://www.w3.org/2000/svg" version="1.1">
 <metadata>
  <rdf:RDF xmlns:dc="http://purl.org/dc/elements/1.1/" xmlns:cc="http://creativecommons.org/ns#" xmlns:rdf="http://www.w3.org/1999/02/22-rdf-syntax-ns#">
   <cc:Work>
    <dc:type rdf:resource="http://purl.org/dc/dcmitype/StillImage"/>
    <dc:date>2025-03-08T01:40:40.822632</dc:date>
    <dc:format>image/svg+xml</dc:format>
    <dc:creator>
     <cc:Agent>
      <dc:title>Matplotlib v3.10.0, https://matplotlib.org/</dc:title>
     </cc:Agent>
    </dc:creator>
   </cc:Work>
  </rdf:RDF>
 </metadata>
 <defs>
  <style type="text/css">*{stroke-linejoin: round; stroke-linecap: butt}</style>
 </defs>
 <g id="figure_1">
  <g id="patch_1">
   <path d="M 0 432 
L 432 432 
L 432 0 
L 0 0 
z
" style="fill: #191919"/>
  </g>
  <g id="axes_1">
   <g id="patch_2">
    <path d="M 54 384.48 
L 388.8 384.48 
L 388.8 51.84 
L 54 51.84 
z
" style="fill: #191919"/>
   </g>
   <g id="PathCollection_1">
    <defs>
     <path id="m2a2d147b12" d="M 0 3.535534 
C 0.937635 3.535534 1.836992 3.163008 2.5 2.5 
C 3.163008 1.836992 3.535534 0.937635 3.535534 0 
C 3.535534 -0.937635 3.163008 -1.836992 2.5 -2.5 
C 1.836992 -3.163008 0.937635 -3.535534 0 -3.535534 
C -0.937635 -3.535534 -1.836992 -3.163008 -2.5 -2.5 
C -3.163008 -1.836992 -3.535534 -0.937635 -3.535534 0 
C -3.535534 0.937635 -3.163008 1.836992 -2.5 2.5 
C -1.836992 3.163008 -0.937635 3.535534 0 3.535534 
z
" style="stroke: #ff00ff"/>
    </defs>
    <g clip-path="url(#pc2c26c3db1)">
     <use xlink:href="#m2a2d147b12" x="300.73174" y="213.402143" style="fill: #ff00ff; stroke: #ff00ff"/>
     <use xlink:href="#m2a2d147b12" x="83.506243" y="369.36" style="fill: #ff00ff; stroke: #ff00ff"/>
     <use xlink:href="#m2a2d147b12" x="300.73174" y="213.402143" style="fill: #ff00ff; stroke: #ff00ff"/>
    </g>
   </g>
   <g id="QuadContourSet_1">
    <path clip-path="url(#pc2c26c3db1)" style="fill: none; stroke: #beffbe; stroke-width: 1.5"/>
    <path clip-path="url(#pc2c26c3db1)" style="fill: none; stroke: #b4f4b4; stroke-width: 1.5"/>
    <path clip-path="url(#pc2c26c3db1)" style="fill: none; stroke: #abeaab; stroke-width: 1.5"/>
    <path clip-path="url(#pc2c26c3db1)" style="fill: none; stroke: #a1e0a1; stroke-width: 1.5"/>
    <path clip-path="url(#pc2c26c3db1)" style="fill: none; stroke: #99d799; stroke-width: 1.5"/>
    <path clip-path="url(#pc2c26c3db1)" style="fill: none; stroke: #90cd90; stroke-width: 1.5"/>
    <path clip-path="url(#pc2c26c3db1)" style="fill: none; stroke: #88c488; stroke-width: 1.5"/>
    <path d="M 80.780398 51.84 
L 80.01203 52.391651 
L 79.172932 52.994084 
L 78.333835 53.596516 
L 77.494737 54.198948 
L 76.655639 54.80138 
L 75.816541 55.403813 
L 74.977444 56.006245 
L 74.138346 56.608677 
L 73.299248 57.21111 
L 72.46015 57.813542 
L 71.621053 58.415974 
L 71.324937 58.628571 
L 70.781955 59.018407 
L 69.942857 59.620839 
L 69.103759 60.223271 
L 68.264662 60.825703 
L 67.425564 61.428136 
L 66.586466 62.030568 
L 65.747368 62.633 
L 64.908271 63.235433 
L 64.069173 63.837865 
L 63.230075 64.440297 
L 62.390977 65.04273 
L 61.869476 65.417143 
L 61.55188 65.645162 
L 60.712782 66.247594 
L 59.873684 66.850026 
L 59.034586 67.452459 
L 58.195489 68.054891 
L 57.356391 68.657323 
L 56.517293 69.259756 
L 55.678195 69.862188 
L 54.839098 70.46462 
L 54 71.067052 
" clip-path="url(#pc2c26c3db1)" style="fill: none; stroke: #7fbc7f; stroke-width: 1.5"/>
    <path d="M 111.403887 51.84 
L 111.058647 52.087866 
L 110.219549 52.690299 
L 109.380451 53.292731 
L 108.541353 53.895163 
L 107.702256 54.497596 
L 106.863158 55.100028 
L 106.02406 55.70246 
L 105.184962 56.304893 
L 104.345865 56.907325 
L 103.506767 57.509757 
L 102.667669 58.112189 
L 101.948427 58.628571 
L 101.828571 58.714622 
L 100.989474 59.317054 
L 100.150376 59.919486 
L 99.311278 60.521919 
L 98.47218 61.124351 
L 97.633083 61.726783 
L 96.793985 62.329216 
L 95.954887 62.931648 
L 95.115789 63.53408 
L 94.276692 64.136512 
L 93.437594 64.738945 
L 92.598496 65.341377 
L 92.492966 65.417143 
L 91.759398 65.943809 
L 90.920301 66.546242 
L 90.081203 67.148674 
L 89.242105 67.751106 
L 88.403008 68.353538 
L 87.56391 68.955971 
L 86.724812 69.558403 
L 85.885714 70.160835 
L 85.046617 70.763268 
L 84.207519 71.3657 
L 83.368421 71.968132 
L 83.037505 72.205714 
L 82.529323 72.570565 
L 81.690226 73.172997 
L 80.851128 73.775429 
L 80.01203 74.377861 
L 79.172932 74.980294 
L 78.333835 75.582726 
L 77.494737 76.185158 
L 76.655639 76.787591 
L 75.816541 77.390023 
L 74.977444 77.992455 
L 74.138346 78.594887 
L 73.582044 78.994286 
L 73.299248 79.19732 
L 72.46015 79.799752 
L 71.621053 80.402184 
L 70.781955 81.004617 
L 69.942857 81.607049 
L 69.103759 82.209481 
L 68.264662 82.811914 
L 67.425564 83.414346 
L 66.586466 84.016778 
L 65.747368 84.61921 
L 64.908271 85.221643 
L 64.126583 85.782857 
L 64.069173 85.824075 
L 63.230075 86.426507 
L 62.390977 87.02894 
L 61.55188 87.631372 
L 60.712782 88.233804 
L 59.873684 88.836237 
L 59.034586 89.438669 
L 58.195489 90.041101 
L 57.356391 90.643533 
L 56.517293 91.245966 
L 55.678195 91.848398 
L 54.839098 92.45083 
L 54.671122 92.571429 
L 54 93.053263 
" clip-path="url(#pc2c26c3db1)" style="fill: none; stroke: #78b378; stroke-width: 1.5"/>
    <path d="M 142.027377 51.84 
L 141.266165 52.386514 
L 140.427068 52.988946 
L 139.58797 53.591379 
L 138.748872 54.193811 
L 137.909774 54.796243 
L 137.070677 55.398675 
L 136.231579 56.001108 
L 135.392481 56.60354 
L 134.553383 57.205972 
L 133.714286 57.808405 
L 132.875188 58.410837 
L 132.571916 58.628571 
L 132.03609 59.013269 
L 131.196992 59.615701 
L 130.357895 60.218134 
L 129.518797 60.820566 
L 128.679699 61.422998 
L 127.840602 62.025431 
L 127.001504 62.627863 
L 126.162406 63.230295 
L 125.323308 63.832728 
L 124.484211 64.43516 
L 123.645113 65.037592 
L 123.116456 65.417143 
L 122.806015 65.640024 
L 121.966917 66.242457 
L 121.12782 66.844889 
L 120.288722 67.447321 
L 119.449624 68.049754 
L 118.610526 68.652186 
L 117.771429 69.254618 
L 116.932331 69.857051 
L 116.093233 70.459483 
L 115.254135 71.061915 
L 114.415038 71.664347 
L 113.660995 72.205714 
L 113.57594 72.26678 
L 112.736842 72.869212 
L 111.897744 73.471644 
L 111.058647 74.074077 
L 110.219549 74.676509 
L 109.380451 75.278941 
L 108.541353 75.881373 
L 107.702256 76.483806 
L 106.863158 77.086238 
L 106.02406 77.68867 
L 105.184962 78.291103 
L 104.345865 78.893535 
L 104.205534 78.994286 
L 103.506767 79.495967 
L 102.667669 80.0984 
L 101.828571 80.700832 
L 100.989474 81.303264 
L 100.150376 81.905696 
L 99.311278 82.508129 
L 98.47218 83.110561 
L 97.633083 83.712993 
L 96.793985 84.315426 
L 95.954887 84.917858 
L 95.115789 85.52029 
L 94.750073 85.782857 
L 94.276692 86.122723 
L 93.437594 86.725155 
L 92.598496 87.327587 
L 91.759398 87.930019 
L 90.920301 88.532452 
L 90.081203 89.134884 
L 89.242105 89.737316 
L 88.403008 90.339749 
L 87.56391 90.942181 
L 86.724812 91.544613 
L 85.885714 92.147045 
L 85.294612 92.571429 
L 85.046617 92.749478 
L 84.207519 93.35191 
L 83.368421 93.954342 
L 82.529323 94.556775 
L 81.690226 95.159207 
L 80.851128 95.761639 
L 80.01203 96.364072 
L 79.172932 96.966504 
L 78.333835 97.568936 
L 77.494737 98.171368 
L 76.655639 98.773801 
L 75.839152 99.36 
L 75.816541 99.376233 
L 74.977444 99.978665 
L 74.138346 100.581098 
L 73.299248 101.18353 
L 72.46015 101.785962 
L 71.621053 102.388394 
L 70.781955 102.990827 
L 69.942857 103.593259 
L 69.103759 104.195691 
L 68.264662 104.798124 
L 67.425564 105.400556 
L 66.586466 106.002988 
L 66.383691 106.148571 
L 65.747368 106.605421 
L 64.908271 107.207853 
L 64.069173 107.810285 
L 63.230075 108.412717 
L 62.390977 109.01515 
L 61.55188 109.617582 
L 60.712782 110.220014 
L 59.873684 110.822447 
L 59.034586 111.424879 
L 58.195489 112.027311 
L 57.356391 112.629744 
L 56.92823 112.937143 
L 56.517293 113.232176 
L 55.678195 113.834608 
L 54.839098 114.43704 
L 54 115.039473 
" clip-path="url(#pc2c26c3db1)" style="fill: none; stroke: #70ab70; stroke-width: 1.5"/>
    <path d="M 172.650867 51.84 
L 54 137.025683 
L 54 137.025683 
" clip-path="url(#pc2c26c3db1)" style="fill: none; stroke: #69a369; stroke-width: 1.5"/>
    <path d="M 203.274357 51.84 
L 54 159.011893 
L 54 159.011893 
" clip-path="url(#pc2c26c3db1)" style="fill: none; stroke: #619b61; stroke-width: 1.5"/>
    <path d="M 233.897847 51.84 
L 54 180.998103 
L 54 180.998103 
" clip-path="url(#pc2c26c3db1)" style="fill: none; stroke: #5b945b; stroke-width: 1.5"/>
    <path d="M 264.521337 51.84 
L 54 202.984313 
L 54 202.984313 
" clip-path="url(#pc2c26c3db1)" style="fill: none; stroke: #548d54; stroke-width: 1.5"/>
    <path d="M 295.144827 51.84 
L 54 224.970523 
L 54 224.970523 
" clip-path="url(#pc2c26c3db1)" style="fill: none; stroke: #4e864e; stroke-width: 1.5"/>
    <path d="M 325.768317 51.84 
L 54 246.956733 
L 54 246.956733 
" clip-path="url(#pc2c26c3db1)" style="fill: none; stroke: #477f47; stroke-width: 1.5"/>
    <path d="M 356.391806 51.84 
L 54 268.942944 
L 54 268.942944 
" clip-path="url(#pc2c26c3db1)" style="fill: none; stroke: #427942; stroke-width: 1.5"/>
    <path d="M 387.015296 51.84 
L 54 290.929154 
L 54 290.929154 
" clip-path="url(#pc2c26c3db1)" style="fill: none; stroke: #3c733c; stroke-width: 1.5"/>
    <path d="M 388.8 72.544878 
L 54 312.915364 
L 54 312.915364 
" clip-path="url(#pc2c26c3db1)" style="fill: none; stroke: #376d37; stroke-width: 1.5"/>
    <path d="M 388.8 94.531088 
L 54 334.901574 
L 54 334.901574 
" clip-path="url(#pc2c26c3db1)" style="fill: none; stroke: #316731; stroke-width: 1.5"/>
    <path d="M 388.8 116.517298 
L 54 356.887784 
L 54 356.887784 
" clip-path="url(#pc2c26c3db1)" style="fill: none; stroke: #2d622d; stroke-width: 1.5"/>
    <path d="M 388.8 138.503508 
L 54 378.873994 
L 54 378.873994 
" clip-path="url(#pc2c26c3db1)" style="fill: none; stroke: #285d28; stroke-width: 1.5"/>
    <path d="M 388.8 160.489718 
L 76.815165 384.48 
L 76.815165 384.48 
" clip-path="url(#pc2c26c3db1)" style="fill: none; stroke: #245824; stroke-width: 1.5"/>
    <path d="M 388.8 182.475928 
L 107.438655 384.48 
L 107.438655 384.48 
" clip-path="url(#pc2c26c3db1)" style="fill: none; stroke: #1f541f; stroke-width: 1.5"/>
    <path d="M 388.8 204.462138 
L 138.062145 384.48 
L 138.062145 384.48 
" clip-path="url(#pc2c26c3db1)" style="fill: none; stroke: #1c501c; stroke-width: 1.5"/>
    <path d="M 388.8 226.448348 
L 168.685635 384.48 
L 168.685635 384.48 
" clip-path="url(#pc2c26c3db1)" style="fill: none; stroke: #184c18; stroke-width: 1.5"/>
    <path d="M 388.8 248.434559 
L 199.309125 384.48 
L 199.309125 384.48 
" clip-path="url(#pc2c26c3db1)" style="fill: none; stroke: #154815; stroke-width: 1.5"/>
    <path d="M 388.8 270.420769 
L 229.932615 384.48 
L 229.932615 384.48 
" clip-path="url(#pc2c26c3db1)" style="fill: none; stroke: #114511; stroke-width: 1.5"/>
    <path d="M 388.8 292.406979 
L 260.556105 384.48 
L 260.556105 384.48 
" clip-path="url(#pc2c26c3db1)" style="fill: none; stroke: #0f420f; stroke-width: 1.5"/>
    <path d="M 388.8 314.393189 
L 291.179594 384.48 
L 291.179594 384.48 
" clip-path="url(#pc2c26c3db1)" style="fill: none; stroke: #0c3f0c; stroke-width: 1.5"/>
    <path d="M 388.8 336.379399 
L 387.99131 336.96 
L 387.960902 336.981831 
L 387.121805 337.584264 
L 386.282707 338.186696 
L 385.443609 338.789128 
L 384.604511 339.391561 
L 383.765414 339.993993 
L 382.926316 340.596425 
L 382.087218 341.198857 
L 381.24812 341.80129 
L 380.409023 342.403722 
L 379.569925 343.006154 
L 378.730827 343.608587 
L 378.535849 343.748571 
L 377.891729 344.211019 
L 377.052632 344.813451 
L 376.213534 345.415883 
L 375.374436 346.018316 
L 374.535338 346.620748 
L 373.696241 347.22318 
L 372.857143 347.825613 
L 372.018045 348.428045 
L 371.178947 349.030477 
L 370.33985 349.63291 
L 369.500752 350.235342 
L 369.080388 350.537143 
L 368.661654 350.837774 
L 367.822556 351.440206 
L 366.983459 352.042639 
L 366.144361 352.645071 
L 365.305263 353.247503 
L 364.466165 353.849936 
L 363.627068 354.452368 
L 362.78797 355.0548 
L 361.948872 355.657233 
L 361.109774 356.259665 
L 360.270677 356.862097 
L 359.624928 357.325714 
L 359.431579 357.464529 
L 358.592481 358.066962 
L 357.753383 358.669394 
L 356.914286 359.271826 
L 356.075188 359.874259 
L 355.23609 360.476691 
L 354.396992 361.079123 
L 353.557895 361.681555 
L 352.718797 362.283988 
L 351.879699 362.88642 
L 351.040602 363.488852 
L 350.201504 364.091285 
L 350.169467 364.114286 
L 349.362406 364.693717 
L 348.523308 365.296149 
L 347.684211 365.898582 
L 346.845113 366.501014 
L 346.006015 367.103446 
L 345.166917 367.705878 
L 344.32782 368.308311 
L 343.488722 368.910743 
L 342.649624 369.513175 
L 341.810526 370.115608 
L 340.971429 370.71804 
L 340.714006 370.902857 
L 340.132331 371.320472 
L 339.293233 371.922905 
L 338.454135 372.525337 
L 337.615038 373.127769 
L 336.77594 373.730201 
L 335.936842 374.332634 
L 335.097744 374.935066 
L 334.258647 375.537498 
L 333.419549 376.139931 
L 332.580451 376.742363 
L 331.741353 377.344795 
L 331.258545 377.691429 
L 330.902256 377.947227 
L 330.063158 378.54966 
L 329.22406 379.152092 
L 328.384962 379.754524 
L 327.545865 380.356957 
L 326.706767 380.959389 
L 325.867669 381.561821 
L 325.028571 382.164254 
L 324.189474 382.766686 
L 323.350376 383.369118 
L 322.511278 383.97155 
L 321.803084 384.48 
" clip-path="url(#pc2c26c3db1)" style="fill: none; stroke: #0a3c0a; stroke-width: 1.5"/>
    <path d="M 388.8 358.365609 
L 387.960902 358.968041 
L 387.121805 359.570474 
L 386.282707 360.172906 
L 385.443609 360.775338 
L 384.604511 361.377771 
L 383.765414 361.980203 
L 382.926316 362.582635 
L 382.087218 363.185068 
L 381.24812 363.7875 
L 380.792957 364.114286 
L 380.409023 364.389932 
L 379.569925 364.992364 
L 378.730827 365.594797 
L 377.891729 366.197229 
L 377.052632 366.799661 
L 376.213534 367.402094 
L 375.374436 368.004526 
L 374.535338 368.606958 
L 373.696241 369.20939 
L 372.857143 369.811823 
L 372.018045 370.414255 
L 371.337496 370.902857 
L 371.178947 371.016687 
L 370.33985 371.61912 
L 369.500752 372.221552 
L 368.661654 372.823984 
L 367.822556 373.426417 
L 366.983459 374.028849 
L 366.144361 374.631281 
L 365.305263 375.233713 
L 364.466165 375.836146 
L 363.627068 376.438578 
L 362.78797 377.04101 
L 361.948872 377.643443 
L 361.882035 377.691429 
L 361.109774 378.245875 
L 360.270677 378.848307 
L 359.431579 379.45074 
L 358.592481 380.053172 
L 357.753383 380.655604 
L 356.914286 381.258036 
L 356.075188 381.860469 
L 355.23609 382.462901 
L 354.396992 383.065333 
L 353.557895 383.667766 
L 352.718797 384.270198 
L 352.426574 384.48 
" clip-path="url(#pc2c26c3db1)" style="fill: none; stroke: #073a07; stroke-width: 1.5"/>
    <path d="M 388.8 380.351819 
L 387.960902 380.954252 
L 387.121805 381.556684 
L 386.282707 382.159116 
L 385.443609 382.761548 
L 384.604511 383.363981 
L 383.765414 383.966413 
L 383.050064 384.48 
" clip-path="url(#pc2c26c3db1)" style="fill: none; stroke: #063806; stroke-width: 1.5"/>
    <path clip-path="url(#pc2c26c3db1)" style="fill: none; stroke: #043604; stroke-width: 1.5"/>
    <path clip-path="url(#pc2c26c3db1)" style="fill: none; stroke: #033503; stroke-width: 1.5"/>
    <path clip-path="url(#pc2c26c3db1)" style="fill: none; stroke: #013401; stroke-width: 1.5"/>
    <path clip-path="url(#pc2c26c3db1)" style="fill: none; stroke: #013301; stroke-width: 1.5"/>
    <path clip-path="url(#pc2c26c3db1)" style="fill: none; stroke: #003200; stroke-width: 1.5"/>
    <path clip-path="url(#pc2c26c3db1)" style="fill: none; stroke: #003200; stroke-width: 1.5"/>
    <path clip-path="url(#pc2c26c3db1)" style="fill: none; stroke: #003200; stroke-width: 1.5"/>
   </g>
   <g id="matplotlib.axis_1"/>
   <g id="matplotlib.axis_2"/>
   <g id="line2d_1">
    <path d="M 136.067606 228.244955 
L 83.506243 326.519517 
L 83.506243 369.36 
L 193.285457 309.310681 
L 300.73174 213.402143 
L 359.293757 103.908091 
L 359.293757 66.96 
L 249.430065 127.055529 
L 136.067606 228.244955 
" clip-path="url(#pc2c26c3db1)" style="fill: none; stroke: #00ffff; stroke-width: 2; stroke-linecap: square"/>
   </g>
   <g id="line2d_2">
    <path d="M 300.73174 213.402143 
L 83.506243 369.36 
L 300.73174 213.402143 
" clip-path="url(#pc2c26c3db1)" style="fill: none; stroke-dasharray: 7.4,3.2; stroke-dashoffset: 0; stroke: #ff00ff; stroke-width: 2"/>
   </g>
   <g id="PathCollection_2">
    <defs>
     <path id="m41d4fd7333" d="M 0 5 
C 1.326016 5 2.597899 4.473168 3.535534 3.535534 
C 4.473168 2.597899 5 1.326016 5 0 
C 5 -1.326016 4.473168 -2.597899 3.535534 -3.535534 
C 2.597899 -4.473168 1.326016 -5 0 -5 
C -1.326016 -5 -2.597899 -4.473168 -3.535534 -3.535534 
C -4.473168 -2.597899 -5 -1.326016 -5 0 
C -5 1.326016 -4.473168 2.597899 -3.535534 3.535534 
C -2.597899 4.473168 -1.326016 5 0 5 
z
" style="stroke: #000000"/>
    </defs>
    <g clip-path="url(#pc2c26c3db1)">
     <use xlink:href="#m41d4fd7333" x="327.704078" y="270.312316" style="fill: #ffffff; stroke: #000000"/>
    </g>
   </g>
   <g id="Quiver_1">
    <path d="M 292.274567 219.464505 
L 322.07318 260.435679 
L 323.365412 257.943383 
L 327.704078 270.312316 
L 317.273301 262.374216 
L 320.042477 261.912623 
L 290.243864 220.941449 
L 292.274567 219.464505 
" clip-path="url(#pc2c26c3db1)" style="fill: #00ff00"/>
   </g>
  </g>
 </g>
 <defs>
  <clipPath id="pc2c26c3db1">
   <rect x="54" y="51.84" width="334.8" height="332.64"/>
  </clipPath>
 </defs>
</svg>
