<?xml version="1.0" encoding="utf-8" standalone="no"?>
<!DOCTYPE svg PUBLIC "-//W3C//DTD SVG 1.1//EN"
  "http://www.w3.org/Graphics/SVG/1.1/DTD/svg11.dtd">
<svg xmlns:xlink="http://www.w3.org/1999/xlink" width="557.28pt" height="501.84pt" viewBox="0 0 557.28 501.84" xmlns="http://www.w3.org/2000/svg" version="1.1">
 <metadata>
  <rdf:RDF xmlns:dc="http://purl.org/dc/elements/1.1/" xmlns:cc="http://creativecommons.org/ns#" xmlns:rdf="http://www.w3.org/1999/02/22-rdf-syntax-ns#">
   <cc:Work>
    <dc:type rdf:resource="http://purl.org/dc/dcmitype/StillImage"/>
    <dc:date>2025-03-05T20:45:58.172313</dc:date>
    <dc:format>image/svg+xml</dc:format>
    <dc:creator>
     <cc:Agent>
      <dc:title>Matplotlib v3.10.0, https://matplotlib.org/</dc:title>
     </cc:Agent>
    </dc:creator>
   </cc:Work>
  </rdf:RDF>
 </metadata>
 <defs>
  <style type="text/css">*{stroke-linejoin: round; stroke-linecap: butt}</style>
 </defs>
 <g id="figure_1">
  <g id="patch_1">
   <path d="M 0 501.84 
L 557.28 501.84 
L 557.28 0 
L 0 0 
z
" style="fill: #191919"/>
  </g>
  <g id="axes_1">
   <g id="patch_2">
    <path d="M 69.66 446.6376 
L 501.552 446.6376 
L 501.552 60.2208 
L 69.66 60.2208 
z
" style="fill: #191919"/>
   </g>
   <g id="matplotlib.axis_1">
    <g id="xtick_1">
     <g id="line2d_1">
      <defs>
       <path id="mf553ce6ff3" d="M 0 0 
L 0 3.5 
" style="stroke: #ffffff; stroke-width: 0.8"/>
      </defs>
      <g>
       <use xlink:href="#mf553ce6ff3" x="69.66" y="446.6376" style="fill: #ffffff; stroke: #ffffff; stroke-width: 0.8"/>
      </g>
     </g>
     <g id="text_1">
      <!-- −2.0 -->
      <g style="fill: #ffffff" transform="translate(57.518594 461.236038) scale(0.1 -0.1)">
       <defs>
        <path id="DejaVuSans-2212" d="M 678 2272 
L 4684 2272 
L 4684 1741 
L 678 1741 
L 678 2272 
z
" transform="scale(0.015625)"/>
        <path id="DejaVuSans-32" d="M 1228 531 
L 3431 531 
L 3431 0 
L 469 0 
L 469 531 
Q 828 903 1448 1529 
Q 2069 2156 2228 2338 
Q 2531 2678 2651 2914 
Q 2772 3150 2772 3378 
Q 2772 3750 2511 3984 
Q 2250 4219 1831 4219 
Q 1534 4219 1204 4116 
Q 875 4013 500 3803 
L 500 4441 
Q 881 4594 1212 4672 
Q 1544 4750 1819 4750 
Q 2544 4750 2975 4387 
Q 3406 4025 3406 3419 
Q 3406 3131 3298 2873 
Q 3191 2616 2906 2266 
Q 2828 2175 2409 1742 
Q 1991 1309 1228 531 
z
" transform="scale(0.015625)"/>
        <path id="DejaVuSans-2e" d="M 684 794 
L 1344 794 
L 1344 0 
L 684 0 
L 684 794 
z
" transform="scale(0.015625)"/>
        <path id="DejaVuSans-30" d="M 2034 4250 
Q 1547 4250 1301 3770 
Q 1056 3291 1056 2328 
Q 1056 1369 1301 889 
Q 1547 409 2034 409 
Q 2525 409 2770 889 
Q 3016 1369 3016 2328 
Q 3016 3291 2770 3770 
Q 2525 4250 2034 4250 
z
M 2034 4750 
Q 2819 4750 3233 4129 
Q 3647 3509 3647 2328 
Q 3647 1150 3233 529 
Q 2819 -91 2034 -91 
Q 1250 -91 836 529 
Q 422 1150 422 2328 
Q 422 3509 836 4129 
Q 1250 4750 2034 4750 
z
" transform="scale(0.015625)"/>
       </defs>
       <use xlink:href="#DejaVuSans-2212"/>
       <use xlink:href="#DejaVuSans-32" transform="translate(83.789062 0)"/>
       <use xlink:href="#DejaVuSans-2e" transform="translate(147.412109 0)"/>
       <use xlink:href="#DejaVuSans-30" transform="translate(179.199219 0)"/>
      </g>
     </g>
    </g>
    <g id="xtick_2">
     <g id="line2d_2">
      <g>
       <use xlink:href="#mf553ce6ff3" x="123.6465" y="446.6376" style="fill: #ffffff; stroke: #ffffff; stroke-width: 0.8"/>
      </g>
     </g>
     <g id="text_2">
      <!-- −1.5 -->
      <g style="fill: #ffffff" transform="translate(111.505094 461.236038) scale(0.1 -0.1)">
       <defs>
        <path id="DejaVuSans-31" d="M 794 531 
L 1825 531 
L 1825 4091 
L 703 3866 
L 703 4441 
L 1819 4666 
L 2450 4666 
L 2450 531 
L 3481 531 
L 3481 0 
L 794 0 
L 794 531 
z
" transform="scale(0.015625)"/>
        <path id="DejaVuSans-35" d="M 691 4666 
L 3169 4666 
L 3169 4134 
L 1269 4134 
L 1269 2991 
Q 1406 3038 1543 3061 
Q 1681 3084 1819 3084 
Q 2600 3084 3056 2656 
Q 3513 2228 3513 1497 
Q 3513 744 3044 326 
Q 2575 -91 1722 -91 
Q 1428 -91 1123 -41 
Q 819 9 494 109 
L 494 744 
Q 775 591 1075 516 
Q 1375 441 1709 441 
Q 2250 441 2565 725 
Q 2881 1009 2881 1497 
Q 2881 1984 2565 2268 
Q 2250 2553 1709 2553 
Q 1456 2553 1204 2497 
Q 953 2441 691 2322 
L 691 4666 
z
" transform="scale(0.015625)"/>
       </defs>
       <use xlink:href="#DejaVuSans-2212"/>
       <use xlink:href="#DejaVuSans-31" transform="translate(83.789062 0)"/>
       <use xlink:href="#DejaVuSans-2e" transform="translate(147.412109 0)"/>
       <use xlink:href="#DejaVuSans-35" transform="translate(179.199219 0)"/>
      </g>
     </g>
    </g>
    <g id="xtick_3">
     <g id="line2d_3">
      <g>
       <use xlink:href="#mf553ce6ff3" x="177.633" y="446.6376" style="fill: #ffffff; stroke: #ffffff; stroke-width: 0.8"/>
      </g>
     </g>
     <g id="text_3">
      <!-- −1.0 -->
      <g style="fill: #ffffff" transform="translate(165.491594 461.236038) scale(0.1 -0.1)">
       <use xlink:href="#DejaVuSans-2212"/>
       <use xlink:href="#DejaVuSans-31" transform="translate(83.789062 0)"/>
       <use xlink:href="#DejaVuSans-2e" transform="translate(147.412109 0)"/>
       <use xlink:href="#DejaVuSans-30" transform="translate(179.199219 0)"/>
      </g>
     </g>
    </g>
    <g id="xtick_4">
     <g id="line2d_4">
      <g>
       <use xlink:href="#mf553ce6ff3" x="231.6195" y="446.6376" style="fill: #ffffff; stroke: #ffffff; stroke-width: 0.8"/>
      </g>
     </g>
     <g id="text_4">
      <!-- −0.5 -->
      <g style="fill: #ffffff" transform="translate(219.478094 461.236038) scale(0.1 -0.1)">
       <use xlink:href="#DejaVuSans-2212"/>
       <use xlink:href="#DejaVuSans-30" transform="translate(83.789062 0)"/>
       <use xlink:href="#DejaVuSans-2e" transform="translate(147.412109 0)"/>
       <use xlink:href="#DejaVuSans-35" transform="translate(179.199219 0)"/>
      </g>
     </g>
    </g>
    <g id="xtick_5">
     <g id="line2d_5">
      <g>
       <use xlink:href="#mf553ce6ff3" x="285.606" y="446.6376" style="fill: #ffffff; stroke: #ffffff; stroke-width: 0.8"/>
      </g>
     </g>
     <g id="text_5">
      <!-- 0.0 -->
      <g style="fill: #ffffff" transform="translate(277.654437 461.236038) scale(0.1 -0.1)">
       <use xlink:href="#DejaVuSans-30"/>
       <use xlink:href="#DejaVuSans-2e" transform="translate(63.623047 0)"/>
       <use xlink:href="#DejaVuSans-30" transform="translate(95.410156 0)"/>
      </g>
     </g>
    </g>
    <g id="xtick_6">
     <g id="line2d_6">
      <g>
       <use xlink:href="#mf553ce6ff3" x="339.5925" y="446.6376" style="fill: #ffffff; stroke: #ffffff; stroke-width: 0.8"/>
      </g>
     </g>
     <g id="text_6">
      <!-- 0.5 -->
      <g style="fill: #ffffff" transform="translate(331.640937 461.236038) scale(0.1 -0.1)">
       <use xlink:href="#DejaVuSans-30"/>
       <use xlink:href="#DejaVuSans-2e" transform="translate(63.623047 0)"/>
       <use xlink:href="#DejaVuSans-35" transform="translate(95.410156 0)"/>
      </g>
     </g>
    </g>
    <g id="xtick_7">
     <g id="line2d_7">
      <g>
       <use xlink:href="#mf553ce6ff3" x="393.579" y="446.6376" style="fill: #ffffff; stroke: #ffffff; stroke-width: 0.8"/>
      </g>
     </g>
     <g id="text_7">
      <!-- 1.0 -->
      <g style="fill: #ffffff" transform="translate(385.627437 461.236038) scale(0.1 -0.1)">
       <use xlink:href="#DejaVuSans-31"/>
       <use xlink:href="#DejaVuSans-2e" transform="translate(63.623047 0)"/>
       <use xlink:href="#DejaVuSans-30" transform="translate(95.410156 0)"/>
      </g>
     </g>
    </g>
    <g id="xtick_8">
     <g id="line2d_8">
      <g>
       <use xlink:href="#mf553ce6ff3" x="447.5655" y="446.6376" style="fill: #ffffff; stroke: #ffffff; stroke-width: 0.8"/>
      </g>
     </g>
     <g id="text_8">
      <!-- 1.5 -->
      <g style="fill: #ffffff" transform="translate(439.613937 461.236038) scale(0.1 -0.1)">
       <use xlink:href="#DejaVuSans-31"/>
       <use xlink:href="#DejaVuSans-2e" transform="translate(63.623047 0)"/>
       <use xlink:href="#DejaVuSans-35" transform="translate(95.410156 0)"/>
      </g>
     </g>
    </g>
    <g id="xtick_9">
     <g id="line2d_9">
      <g>
       <use xlink:href="#mf553ce6ff3" x="501.552" y="446.6376" style="fill: #ffffff; stroke: #ffffff; stroke-width: 0.8"/>
      </g>
     </g>
     <g id="text_9">
      <!-- 2.0 -->
      <g style="fill: #ffffff" transform="translate(493.600437 461.236038) scale(0.1 -0.1)">
       <use xlink:href="#DejaVuSans-32"/>
       <use xlink:href="#DejaVuSans-2e" transform="translate(63.623047 0)"/>
       <use xlink:href="#DejaVuSans-30" transform="translate(95.410156 0)"/>
      </g>
     </g>
    </g>
    <g id="text_10">
     <!-- $x$ -->
     <g style="fill: #ffffff" transform="translate(280.806 479.473225) scale(0.16 -0.16)">
      <defs>
       <path id="DejaVuSans-Oblique-78" d="M 3841 3500 
L 2234 1784 
L 3219 0 
L 2559 0 
L 1819 1388 
L 531 0 
L -166 0 
L 1556 1844 
L 641 3500 
L 1300 3500 
L 1972 2234 
L 3144 3500 
L 3841 3500 
z
" transform="scale(0.015625)"/>
      </defs>
      <use xlink:href="#DejaVuSans-Oblique-78" transform="translate(0 0.3125)"/>
     </g>
    </g>
   </g>
   <g id="matplotlib.axis_2">
    <g id="ytick_1">
     <g id="line2d_10">
      <defs>
       <path id="mc1c6729855" d="M 0 0 
L -3.5 0 
" style="stroke: #ffffff; stroke-width: 0.8"/>
      </defs>
      <g>
       <use xlink:href="#mc1c6729855" x="69.66" y="446.6376" style="fill: #ffffff; stroke: #ffffff; stroke-width: 0.8"/>
      </g>
     </g>
     <g id="text_11">
      <!-- −2.0 -->
      <g style="fill: #ffffff" transform="translate(38.377187 450.436819) scale(0.1 -0.1)">
       <use xlink:href="#DejaVuSans-2212"/>
       <use xlink:href="#DejaVuSans-32" transform="translate(83.789062 0)"/>
       <use xlink:href="#DejaVuSans-2e" transform="translate(147.412109 0)"/>
       <use xlink:href="#DejaVuSans-30" transform="translate(179.199219 0)"/>
      </g>
     </g>
    </g>
    <g id="ytick_2">
     <g id="line2d_11">
      <g>
       <use xlink:href="#mc1c6729855" x="69.66" y="398.3355" style="fill: #ffffff; stroke: #ffffff; stroke-width: 0.8"/>
      </g>
     </g>
     <g id="text_12">
      <!-- −1.5 -->
      <g style="fill: #ffffff" transform="translate(38.377187 402.134719) scale(0.1 -0.1)">
       <use xlink:href="#DejaVuSans-2212"/>
       <use xlink:href="#DejaVuSans-31" transform="translate(83.789062 0)"/>
       <use xlink:href="#DejaVuSans-2e" transform="translate(147.412109 0)"/>
       <use xlink:href="#DejaVuSans-35" transform="translate(179.199219 0)"/>
      </g>
     </g>
    </g>
    <g id="ytick_3">
     <g id="line2d_12">
      <g>
       <use xlink:href="#mc1c6729855" x="69.66" y="350.0334" style="fill: #ffffff; stroke: #ffffff; stroke-width: 0.8"/>
      </g>
     </g>
     <g id="text_13">
      <!-- −1.0 -->
      <g style="fill: #ffffff" transform="translate(38.377187 353.832619) scale(0.1 -0.1)">
       <use xlink:href="#DejaVuSans-2212"/>
       <use xlink:href="#DejaVuSans-31" transform="translate(83.789062 0)"/>
       <use xlink:href="#DejaVuSans-2e" transform="translate(147.412109 0)"/>
       <use xlink:href="#DejaVuSans-30" transform="translate(179.199219 0)"/>
      </g>
     </g>
    </g>
    <g id="ytick_4">
     <g id="line2d_13">
      <g>
       <use xlink:href="#mc1c6729855" x="69.66" y="301.7313" style="fill: #ffffff; stroke: #ffffff; stroke-width: 0.8"/>
      </g>
     </g>
     <g id="text_14">
      <!-- −0.5 -->
      <g style="fill: #ffffff" transform="translate(38.377187 305.530519) scale(0.1 -0.1)">
       <use xlink:href="#DejaVuSans-2212"/>
       <use xlink:href="#DejaVuSans-30" transform="translate(83.789062 0)"/>
       <use xlink:href="#DejaVuSans-2e" transform="translate(147.412109 0)"/>
       <use xlink:href="#DejaVuSans-35" transform="translate(179.199219 0)"/>
      </g>
     </g>
    </g>
    <g id="ytick_5">
     <g id="line2d_14">
      <g>
       <use xlink:href="#mc1c6729855" x="69.66" y="253.4292" style="fill: #ffffff; stroke: #ffffff; stroke-width: 0.8"/>
      </g>
     </g>
     <g id="text_15">
      <!-- 0.0 -->
      <g style="fill: #ffffff" transform="translate(46.756875 257.228419) scale(0.1 -0.1)">
       <use xlink:href="#DejaVuSans-30"/>
       <use xlink:href="#DejaVuSans-2e" transform="translate(63.623047 0)"/>
       <use xlink:href="#DejaVuSans-30" transform="translate(95.410156 0)"/>
      </g>
     </g>
    </g>
    <g id="ytick_6">
     <g id="line2d_15">
      <g>
       <use xlink:href="#mc1c6729855" x="69.66" y="205.1271" style="fill: #ffffff; stroke: #ffffff; stroke-width: 0.8"/>
      </g>
     </g>
     <g id="text_16">
      <!-- 0.5 -->
      <g style="fill: #ffffff" transform="translate(46.756875 208.926319) scale(0.1 -0.1)">
       <use xlink:href="#DejaVuSans-30"/>
       <use xlink:href="#DejaVuSans-2e" transform="translate(63.623047 0)"/>
       <use xlink:href="#DejaVuSans-35" transform="translate(95.410156 0)"/>
      </g>
     </g>
    </g>
    <g id="ytick_7">
     <g id="line2d_16">
      <g>
       <use xlink:href="#mc1c6729855" x="69.66" y="156.825" style="fill: #ffffff; stroke: #ffffff; stroke-width: 0.8"/>
      </g>
     </g>
     <g id="text_17">
      <!-- 1.0 -->
      <g style="fill: #ffffff" transform="translate(46.756875 160.624219) scale(0.1 -0.1)">
       <use xlink:href="#DejaVuSans-31"/>
       <use xlink:href="#DejaVuSans-2e" transform="translate(63.623047 0)"/>
       <use xlink:href="#DejaVuSans-30" transform="translate(95.410156 0)"/>
      </g>
     </g>
    </g>
    <g id="ytick_8">
     <g id="line2d_17">
      <g>
       <use xlink:href="#mc1c6729855" x="69.66" y="108.5229" style="fill: #ffffff; stroke: #ffffff; stroke-width: 0.8"/>
      </g>
     </g>
     <g id="text_18">
      <!-- 1.5 -->
      <g style="fill: #ffffff" transform="translate(46.756875 112.322119) scale(0.1 -0.1)">
       <use xlink:href="#DejaVuSans-31"/>
       <use xlink:href="#DejaVuSans-2e" transform="translate(63.623047 0)"/>
       <use xlink:href="#DejaVuSans-35" transform="translate(95.410156 0)"/>
      </g>
     </g>
    </g>
    <g id="ytick_9">
     <g id="line2d_18">
      <g>
       <use xlink:href="#mc1c6729855" x="69.66" y="60.2208" style="fill: #ffffff; stroke: #ffffff; stroke-width: 0.8"/>
      </g>
     </g>
     <g id="text_19">
      <!-- 2.0 -->
      <g style="fill: #ffffff" transform="translate(46.756875 64.020019) scale(0.1 -0.1)">
       <use xlink:href="#DejaVuSans-32"/>
       <use xlink:href="#DejaVuSans-2e" transform="translate(63.623047 0)"/>
       <use xlink:href="#DejaVuSans-30" transform="translate(95.410156 0)"/>
      </g>
     </g>
    </g>
    <g id="text_20">
     <!-- $y$ -->
     <g style="fill: #ffffff" transform="translate(31.017187 258.2292) rotate(-90) scale(0.16 -0.16)">
      <defs>
       <path id="DejaVuSans-Oblique-79" d="M 1588 -325 
Q 1188 -997 936 -1164 
Q 684 -1331 294 -1331 
L -159 -1331 
L -63 -850 
L 269 -850 
Q 509 -850 678 -719 
Q 847 -588 1056 -206 
L 1234 128 
L 459 3500 
L 1069 3500 
L 1650 819 
L 3256 3500 
L 3859 3500 
L 1588 -325 
z
" transform="scale(0.015625)"/>
      </defs>
      <use xlink:href="#DejaVuSans-Oblique-79" transform="translate(0 0.3125)"/>
     </g>
    </g>
   </g>
   <g id="QuadContourSet_1">
    <path clip-path="url(#p883dcdae4d)" style="fill: none; stroke: #beffbe; stroke-width: 1.5"/>
    <path d="M 386.813774 169.794747 
L 386.187164 169.657137 
L 385.731338 169.549182 
L 384.648902 169.254845 
L 383.566466 168.922529 
L 382.882866 168.688674 
L 382.48403 168.540622 
L 381.401594 168.097602 
L 380.557985 167.720211 
L 380.319158 167.603432 
L 379.236722 167.029111 
L 378.751987 166.751747 
L 378.154286 166.374668 
L 377.280448 165.783284 
L 377.07185 165.625978 
L 376.064497 164.814821 
L 375.989414 164.74656 
L 375.058357 163.846358 
L 374.906977 163.678312 
L 374.226567 162.877895 
L 373.824541 162.322713 
L 373.541232 161.909432 
L 372.992797 160.940968 
L 372.742105 160.380228 
L 372.569053 159.972505 
L 372.267615 159.004042 
L 372.07579 158.035579 
L 371.99358 157.067116 
L 372.020984 156.098653 
L 372.158001 155.130189 
L 372.404632 154.161726 
L 372.742105 153.244294 
L 372.761878 153.193263 
L 373.252582 152.2248 
L 373.824541 151.310986 
L 373.860673 151.256337 
L 374.622952 150.287874 
L 374.906977 149.976797 
L 375.54303 149.319411 
L 375.989414 148.913977 
L 376.648669 148.350947 
L 377.07185 148.028606 
L 377.97761 147.382484 
L 378.154286 147.268749 
L 379.236722 146.61917 
L 379.605387 146.414021 
L 380.319158 146.052139 
L 381.401594 145.546386 
L 381.637464 145.445558 
L 382.48403 145.113217 
L 383.566466 144.727808 
L 384.351078 144.477095 
L 384.648902 144.389111 
L 385.731338 144.105881 
L 386.813774 143.859197 
L 387.896211 143.649059 
L 388.771844 143.508632 
L 388.978647 143.477794 
L 390.061083 143.350364 
L 391.143519 143.256916 
L 392.225955 143.197449 
L 393.308391 143.171963 
L 394.390827 143.180458 
L 395.473263 143.222935 
L 396.555699 143.299393 
L 397.638135 143.409831 
L 398.378649 143.508632 
L 398.720571 143.557694 
L 399.803008 143.74956 
L 400.885444 143.977971 
L 401.96788 144.242928 
L 402.808572 144.477095 
L 403.050316 144.549927 
L 404.132752 144.915571 
L 405.215188 145.320745 
L 405.518992 145.445558 
L 406.297624 145.793882 
L 407.38006 146.321156 
L 407.556313 146.414021 
L 408.462496 146.938054 
L 409.177094 147.382484 
L 409.544932 147.635986 
L 410.514334 148.350947 
L 410.627368 148.444419 
L 411.620379 149.319411 
L 411.709805 149.409077 
L 412.535437 150.287874 
L 412.792241 150.604949 
L 413.290903 151.256337 
L 413.874677 152.164156 
L 413.911648 152.2248 
L 414.389607 153.193263 
L 414.755105 154.161726 
L 414.957113 154.934883 
L 415.005622 155.130189 
L 415.139256 156.098653 
L 415.165983 157.067116 
L 415.085802 158.035579 
L 414.957113 158.701743 
L 414.895681 159.004042 
L 414.586414 159.972505 
L 414.164685 160.940968 
L 413.874677 161.466742 
L 413.617116 161.909432 
L 412.935033 162.877895 
L 412.792241 163.050604 
L 412.096187 163.846358 
L 411.709805 164.231088 
L 411.087487 164.814821 
L 410.627368 165.197087 
L 409.875519 165.783284 
L 409.544932 166.014598 
L 408.462496 166.722321 
L 408.414093 166.751747 
L 407.38006 167.321902 
L 406.598718 167.720211 
L 406.297624 167.860638 
L 405.215188 168.324264 
L 404.281389 168.688674 
L 404.132752 168.742129 
L 403.050316 169.093434 
L 401.96788 169.406761 
L 400.983609 169.657137 
L 400.885444 169.680292 
L 399.803008 169.900397 
L 398.720571 170.085286 
L 397.638135 170.234957 
L 396.555699 170.349412 
L 395.473263 170.42865 
L 394.390827 170.472671 
L 393.308391 170.481475 
L 392.225955 170.455062 
L 391.143519 170.393433 
L 390.061083 170.296587 
L 388.978647 170.164523 
L 387.896211 169.997243 
L 386.813774 169.794747 
z
" clip-path="url(#p883dcdae4d)" style="fill: none; stroke: #bdfebd; stroke-width: 1.5"/>
    <path d="M 382.48403 183.231522 
L 382.392275 183.215621 
L 381.401594 183.037519 
L 380.319158 182.824819 
L 379.236722 182.594017 
L 378.154286 182.345113 
L 377.757178 182.247158 
L 377.07185 182.071542 
L 375.989414 181.775361 
L 374.906977 181.460376 
L 374.317812 181.278695 
L 373.824541 181.120439 
L 372.742105 180.753597 
L 371.659669 180.36719 
L 371.507802 180.310232 
L 370.577233 179.946523 
L 369.494797 179.503069 
L 369.118383 179.341768 
L 368.412361 179.025927 
L 367.329925 178.520411 
L 367.027663 178.373305 
L 366.247489 177.976152 
L 365.168783 177.404842 
L 365.165053 177.402771 
L 364.082617 176.778521 
L 363.510729 176.436379 
L 363.00018 176.115468 
L 362.005798 175.467916 
L 361.917744 175.407516 
L 360.835308 174.639202 
L 360.644826 174.499453 
L 359.752872 173.808195 
L 359.40645 173.530989 
L 358.670436 172.906873 
L 358.276752 172.562526 
L 357.588 171.921842 
L 357.24607 171.594063 
L 356.505564 170.836077 
L 356.305858 170.6256 
L 355.449254 169.657137 
L 355.423128 169.625282 
L 354.676436 168.688674 
L 354.340692 168.231693 
L 353.97513 167.720211 
L 353.341868 166.751747 
L 353.258256 166.610761 
L 352.780514 165.783284 
L 352.278723 164.814821 
L 352.17582 164.590591 
L 351.843093 163.846358 
L 351.465986 162.877895 
L 351.144747 161.909432 
L 351.093383 161.721983 
L 350.884759 160.940968 
L 350.680526 159.972505 
L 350.530755 159.004042 
L 350.435446 158.035579 
L 350.394599 157.067116 
L 350.408215 156.098653 
L 350.476293 155.130189 
L 350.598833 154.161726 
L 350.775835 153.193263 
L 351.007299 152.2248 
L 351.093383 151.933223 
L 351.298383 151.256337 
L 351.647556 150.287874 
L 352.052596 149.319411 
L 352.17582 149.060493 
L 352.52245 148.350947 
L 353.052915 147.382484 
L 353.258256 147.044172 
L 353.651136 146.414021 
L 354.313852 145.445558 
L 354.340692 145.409537 
L 355.05491 144.477095 
L 355.423128 144.032652 
L 355.869769 143.508632 
L 356.505564 142.815034 
L 356.764988 142.540168 
L 357.588 141.72535 
L 357.747928 141.571705 
L 358.670436 140.739982 
L 358.826878 140.603242 
L 359.752872 139.840788 
L 360.011205 139.634779 
L 360.835308 139.013603 
L 361.311535 138.666316 
L 361.917744 138.247204 
L 362.739972 137.697853 
L 363.00018 137.532586 
L 364.082617 136.86901 
L 364.318881 136.729389 
L 365.165053 136.252877 
L 366.072565 135.760926 
L 366.247489 135.670364 
L 367.329925 135.131725 
L 368.040402 134.792463 
L 368.412361 134.622487 
L 369.494797 134.148669 
L 370.270605 133.824 
L 370.577233 133.70097 
L 371.659669 133.286628 
L 372.742105 132.892254 
L 372.848256 132.855537 
L 373.824541 132.531222 
L 374.906977 132.190821 
L 375.930526 131.887074 
L 375.989414 131.870264 
L 377.07185 131.579725 
L 378.154286 131.307633 
L 379.236722 131.053988 
L 379.859759 130.918611 
L 380.319158 130.822453 
L 381.401594 130.613656 
L 382.48403 130.422629 
L 383.566466 130.249371 
L 384.648902 130.093884 
L 385.731338 129.956167 
L 385.785661 129.950147 
L 386.813774 129.840253 
L 387.896211 129.741692 
L 388.978647 129.660273 
L 390.061083 129.595994 
L 391.143519 129.548857 
L 392.225955 129.51886 
L 393.308391 129.506004 
L 394.390827 129.510289 
L 395.473263 129.531716 
L 396.555699 129.570283 
L 397.638135 129.625991 
L 398.720571 129.69884 
L 399.803008 129.78883 
L 400.885444 129.895961 
L 401.357423 129.950147 
L 401.96788 130.022804 
L 403.050316 130.169407 
L 404.132752 130.333779 
L 405.215188 130.515921 
L 406.297624 130.715833 
L 407.305946 130.918611 
L 407.38006 130.934083 
L 408.462496 131.178505 
L 409.544932 131.441373 
L 410.627368 131.722689 
L 411.22096 131.887074 
L 411.709805 132.027812 
L 412.792241 132.358624 
L 413.874677 132.708613 
L 414.305472 132.855537 
L 414.957113 133.086945 
L 416.039549 133.491303 
L 416.888242 133.824 
L 417.121985 133.919571 
L 418.204421 134.382975 
L 419.119778 134.792463 
L 419.286857 134.870566 
L 420.369293 135.398324 
L 421.08354 135.760926 
L 421.451729 135.956641 
L 422.534165 136.55481 
L 422.838489 136.729389 
L 423.616602 137.197809 
L 424.417844 137.697853 
L 424.699038 137.882458 
L 425.781474 138.618239 
L 425.849864 138.666316 
L 426.86391 139.418235 
L 427.146599 139.634779 
L 427.946346 140.282912 
L 428.329352 140.603242 
L 429.028782 141.224213 
L 429.408408 141.571705 
L 430.111218 142.25721 
L 430.392849 142.540168 
L 431.193654 143.401209 
L 431.290728 143.508632 
L 432.104474 144.477095 
L 432.27609 144.698013 
L 432.840786 145.445558 
L 433.358526 146.191866 
L 433.508505 146.414021 
L 434.104209 147.382484 
L 434.440962 147.989148 
L 434.636544 148.350947 
L 435.103477 149.319411 
L 435.513812 150.287874 
L 435.523398 150.314119 
L 435.858781 151.256337 
L 436.14835 152.2248 
L 436.382763 153.193263 
L 436.56202 154.161726 
L 436.605835 154.503648 
L 436.684126 155.130189 
L 436.751358 156.098653 
L 436.764805 157.067116 
L 436.724466 158.035579 
L 436.630341 159.004042 
L 436.605835 159.164499 
L 436.479286 159.972505 
L 436.272451 160.940968 
L 436.01046 161.909432 
L 435.693313 162.877895 
L 435.523398 163.319891 
L 435.315719 163.846358 
L 434.877085 164.814821 
L 434.440962 165.667691 
L 434.380266 165.783284 
L 433.813622 166.751747 
L 433.358526 167.457205 
L 433.184179 167.720211 
L 432.482462 168.688674 
L 432.27609 168.951156 
L 431.705278 169.657137 
L 431.193654 170.243893 
L 430.851107 170.6256 
L 430.111218 171.394174 
L 429.913002 171.594063 
L 429.028782 172.429132 
L 428.883157 172.562526 
L 427.946346 173.369422 
L 427.752763 173.530989 
L 426.86391 174.231045 
L 426.51185 174.499453 
L 425.781474 175.026587 
L 425.149081 175.467916 
L 424.699038 175.766086 
L 423.651517 176.436379 
L 423.616602 176.457644 
L 422.534165 177.093563 
L 421.984133 177.404842 
L 421.451729 177.692292 
L 420.369293 178.254446 
L 420.13099 178.373305 
L 419.286857 178.775829 
L 418.204421 179.270703 
L 418.041995 179.341768 
L 417.121985 179.727344 
L 416.039549 180.160604 
L 415.647266 180.310232 
L 414.957113 180.562839 
L 413.874677 180.939464 
L 412.846288 181.278695 
L 412.792241 181.295831 
L 411.709805 181.620219 
L 410.627368 181.925802 
L 409.544932 182.21258 
L 409.40526 182.247158 
L 408.462496 182.471828 
L 407.38006 182.711681 
L 406.297624 182.933432 
L 405.215188 183.137081 
L 404.757001 183.215621 
L 404.132752 183.318771 
L 403.050316 183.480182 
L 401.96788 183.624142 
L 400.885444 183.750653 
L 399.803008 183.859714 
L 398.720571 183.951326 
L 397.638135 184.025487 
L 396.555699 184.082199 
L 395.473263 184.121461 
L 394.390827 184.143274 
L 393.308391 184.147636 
L 392.225955 184.134549 
L 391.143519 184.104012 
L 390.061083 184.056025 
L 388.978647 183.990588 
L 387.896211 183.907701 
L 386.813774 183.807365 
L 385.731338 183.689579 
L 384.648902 183.554343 
L 383.566466 183.401658 
L 382.48403 183.231522 
z
" clip-path="url(#p883dcdae4d)" style="fill: none; stroke: #bcfdbc; stroke-width: 1.5"/>
    <path d="M 390.061083 197.750129 
L 385.731338 197.506745 
L 381.401594 197.077605 
L 377.07185 196.455255 
L 372.742105 195.631045 
L 368.412361 194.589346 
L 364.082617 193.312876 
L 359.752872 191.778291 
L 355.423128 189.94705 
L 351.633414 188.057937 
L 348.276003 186.121011 
L 345.344559 184.184084 
L 342.433895 181.977634 
L 340.269023 180.10976 
L 338.10415 177.987423 
L 335.885559 175.467916 
L 333.774406 172.581823 
L 332.579101 170.6256 
L 331.128436 167.720211 
L 330.362798 165.783284 
L 329.506061 162.877895 
L 329.124596 160.940968 
L 328.82568 158.035579 
L 328.852854 155.130189 
L 329.206118 152.2248 
L 329.62582 150.287874 
L 330.538016 147.382484 
L 331.806613 144.477095 
L 332.858607 142.540168 
L 334.087423 140.603242 
L 335.939278 138.121272 
L 338.006522 135.760926 
L 340.269023 133.541099 
L 342.433895 131.671844 
L 344.667281 129.950147 
L 347.846075 127.798438 
L 351.093383 125.886093 
L 354.494579 124.139368 
L 358.670436 122.299735 
L 361.917744 121.069308 
L 366.247489 119.668392 
L 370.577233 118.51158 
L 374.906977 117.580677 
L 379.236722 116.859255 
L 383.566466 116.332438 
L 387.896211 116.000066 
L 392.225955 115.851072 
L 396.555699 115.885455 
L 400.885444 116.103216 
L 405.215188 116.507086 
L 409.544932 117.105773 
L 413.874677 117.905503 
L 418.204421 118.918704 
L 422.858598 120.265516 
L 426.86391 121.66588 
L 430.551066 123.170905 
L 434.440962 125.021653 
L 437.688271 126.809731 
L 439.853143 128.142888 
L 443.100451 130.404748 
L 445.265323 132.118786 
L 447.430195 134.044403 
L 449.595068 136.241341 
L 451.656626 138.666316 
L 453.070961 140.603242 
L 454.298469 142.540168 
L 455.350744 144.477095 
L 456.617755 147.382484 
L 457.531425 150.287874 
L 458.106897 153.193263 
L 458.351886 156.098653 
L 458.27104 159.004042 
L 458.033822 160.940968 
L 457.403542 163.846358 
L 456.79429 165.783284 
L 456.031403 167.720211 
L 454.577497 170.6256 
L 452.842376 173.37683 
L 451.270404 175.467916 
L 449.595068 177.414137 
L 447.430195 179.605139 
L 445.265323 181.531012 
L 443.100451 183.249081 
L 439.853143 185.505223 
L 436.605835 187.461874 
L 433.358526 189.172279 
L 429.424888 190.963326 
L 425.781474 192.385287 
L 421.298152 193.868716 
L 417.121985 195.006721 
L 412.792241 195.965082 
L 408.04729 196.774105 
L 404.132752 197.26028 
L 399.803008 197.619829 
L 395.473263 197.792606 
L 391.143519 197.781279 
L 390.061083 197.750129 
L 390.061083 197.750129 
" clip-path="url(#p883dcdae4d)" style="fill: none; stroke: #b9fab9; stroke-width: 1.5"/>
    <path d="M 386.813774 211.30469 
L 381.401594 210.924753 
L 375.989414 210.327515 
L 370.577233 209.498351 
L 365.006177 208.395663 
L 359.752872 207.106028 
L 354.283956 205.490274 
L 348.928511 203.604763 
L 344.598767 201.835762 
L 340.269023 199.822073 
L 336.325544 197.742568 
L 332.69197 195.585469 
L 329.444662 193.428434 
L 326.129626 190.963326 
L 322.7002 188.057937 
L 319.702737 185.142884 
L 317.118258 182.247158 
L 314.875648 179.341768 
L 312.955775 176.436379 
L 311.337238 173.530989 
L 309.960812 170.526156 
L 308.878376 167.536709 
L 308.130275 164.814821 
L 307.576382 161.909432 
L 307.270992 159.004042 
L 307.209914 156.098653 
L 307.393148 153.193263 
L 307.821008 150.287874 
L 308.501396 147.382484 
L 309.436283 144.477095 
L 310.63529 141.571705 
L 312.125684 138.636727 
L 313.877011 135.760926 
L 315.954924 132.855537 
L 318.369265 129.950147 
L 320.785173 127.410113 
L 323.239649 125.107832 
L 326.197353 122.636173 
L 329.444662 120.218976 
L 332.69197 118.064804 
L 335.939278 116.126038 
L 340.269023 113.829052 
L 344.598767 111.814484 
L 348.928511 110.047213 
L 353.258256 108.497713 
L 358.670436 106.840006 
L 363.00018 105.716505 
L 368.412361 104.549847 
L 373.824541 103.627001 
L 379.236722 102.936807 
L 384.648902 102.472254 
L 390.061083 102.224758 
L 395.473263 102.192476 
L 400.885444 102.375408 
L 406.909642 102.833179 
L 411.709805 103.396936 
L 417.121985 104.248597 
L 422.534165 105.341396 
L 428.010998 106.707032 
L 433.358526 108.319438 
L 437.688271 109.841478 
L 442.018015 111.578912 
L 446.347759 113.560947 
L 450.677504 115.822319 
L 453.924812 117.727947 
L 457.778216 120.265516 
L 460.419429 122.210324 
L 463.918497 125.107832 
L 466.976315 128.013221 
L 469.632481 130.918611 
L 471.931848 133.824 
L 473.903247 136.729389 
L 475.573534 139.636849 
L 476.952694 142.540168 
L 478.062462 145.445558 
L 478.91203 148.350947 
L 479.506174 151.256337 
L 479.854466 154.161726 
L 479.956237 157.067116 
L 479.813491 159.972505 
L 479.424223 162.877895 
L 478.788698 165.783284 
L 477.896466 168.688674 
L 476.65597 171.783951 
L 475.313551 174.499453 
L 473.408662 177.692626 
L 471.572284 180.310232 
L 469.216456 183.215621 
L 466.914045 185.696616 
L 464.457641 188.057937 
L 461.501865 190.582577 
L 458.254556 193.046821 
L 455.007248 195.24133 
L 451.75994 197.213988 
L 448.512632 198.99522 
L 444.182887 201.11024 
L 439.853143 202.966958 
L 435.523398 204.596526 
L 430.111218 206.343535 
L 425.781474 207.53209 
L 420.369293 208.775627 
L 414.957113 209.770317 
L 409.544932 210.52955 
L 404.132752 211.061553 
L 398.720571 211.375085 
L 393.308391 211.471078 
L 387.896211 211.353753 
L 386.813774 211.30469 
L 386.813774 211.30469 
" clip-path="url(#p883dcdae4d)" style="fill: none; stroke: #b6f7b6; stroke-width: 1.5"/>
    <path d="M 384.648902 224.900175 
L 378.154286 224.432146 
L 371.659669 223.711028 
L 365.165053 222.725612 
L 359.752872 221.694349 
L 354.340692 220.462327 
L 348.928511 219.019799 
L 343.516331 217.346713 
L 338.10415 215.427483 
L 333.774406 213.696969 
L 329.444662 211.776218 
L 324.576883 209.364126 
L 320.785173 207.274562 
L 316.286652 204.521811 
L 312.058702 201.616421 
L 308.288191 198.711032 
L 304.913581 195.805642 
L 301.892832 192.900253 
L 299.136451 189.932989 
L 296.782379 187.089474 
L 294.645226 184.184084 
L 292.641835 181.076932 
L 291.120284 178.373305 
L 289.706115 175.467916 
L 288.31209 172.014883 
L 287.529331 169.657137 
L 286.753519 166.751747 
L 286.147218 163.644595 
L 285.803361 160.940968 
L 285.624312 158.035579 
L 285.640589 155.130189 
L 285.852193 152.2248 
L 286.260257 149.319411 
L 286.868614 146.414021 
L 287.678824 143.508632 
L 288.695977 140.603242 
L 289.926559 137.697853 
L 291.559398 134.46053 
L 293.059783 131.887074 
L 294.983385 128.981684 
L 297.164436 126.076295 
L 299.62074 123.170905 
L 302.383759 120.253647 
L 305.631068 117.199449 
L 308.886207 114.454737 
L 312.731161 111.549347 
L 316.455429 109.020651 
L 320.214997 106.707032 
L 324.032481 104.574293 
L 328.362226 102.386072 
L 332.69197 100.414619 
L 337.021714 98.638347 
L 342.433895 96.667005 
L 347.846075 94.946516 
L 353.258256 93.458845 
L 358.689613 92.180084 
L 365.165053 90.924718 
L 371.659669 89.939421 
L 378.154286 89.216535 
L 384.648902 88.751259 
L 391.143519 88.534131 
L 397.638135 88.565149 
L 404.132752 88.844315 
L 410.627368 89.373027 
L 417.121985 90.159685 
L 422.534165 91.018727 
L 428.464489 92.180084 
L 433.358526 93.321553 
L 438.770707 94.788246 
L 444.182887 96.484203 
L 449.595068 98.429384 
L 453.924812 100.181855 
L 458.254556 102.127815 
L 462.584301 104.288663 
L 466.944774 106.707032 
L 471.609908 109.612421 
L 475.757193 112.517811 
L 479.458523 115.4232 
L 482.771405 118.328589 
L 485.736847 121.233979 
L 488.562767 124.344166 
L 490.750877 127.044758 
L 492.892511 130.022338 
L 495.057383 133.495771 
L 496.289684 135.760926 
L 497.665773 138.666316 
L 498.824345 141.571705 
L 499.77204 144.477095 
L 500.515233 147.382484 
L 501.055088 150.287874 
L 501.398632 153.193263 
L 501.545865 156.098653 
L 501.496788 159.004042 
L 501.251399 161.909432 
L 500.8097 164.814821 
L 500.168658 167.720211 
L 499.325215 170.6256 
L 498.273062 173.530989 
L 497.005626 176.436379 
L 495.516055 179.341768 
L 493.795275 182.247158 
L 491.810075 185.180014 
L 489.604573 188.057937 
L 487.099909 190.963326 
L 484.233023 193.930416 
L 480.985714 196.927059 
L 477.660464 199.679495 
L 473.743051 202.584884 
L 470.161353 204.976234 
L 465.831609 207.584977 
L 461.501865 209.922983 
L 456.646001 212.269516 
L 451.75994 214.368021 
L 446.347759 216.419302 
L 440.935579 218.212746 
L 435.523398 219.768094 
L 430.111218 221.104929 
L 424.699038 222.234233 
L 419.286857 223.168688 
L 412.792241 224.043372 
L 406.297624 224.657774 
L 399.803008 225.019949 
L 393.308391 225.13288 
L 386.813774 224.999416 
L 384.648902 224.900175 
L 384.648902 224.900175 
" clip-path="url(#p883dcdae4d)" style="fill: none; stroke: #b2f2b2; stroke-width: 1.5"/>
    <path d="M 501.552 202.133811 
L 498.304692 205.088301 
L 495.057383 207.789352 
L 491.73453 210.332589 
L 487.480331 213.305576 
L 483.001891 216.143368 
L 477.924478 219.048758 
L 473.408662 221.38795 
L 467.996481 223.927183 
L 462.584301 226.202233 
L 457.17212 228.242272 
L 451.75994 230.065913 
L 446.347759 231.689857 
L 439.853143 233.389399 
L 433.358526 234.836214 
L 426.86391 236.043961 
L 420.369293 237.023558 
L 413.874677 237.783179 
L 407.38006 238.329566 
L 400.885444 238.664858 
L 394.390827 238.793415 
L 387.896211 238.716281 
L 381.152749 238.418021 
L 374.906977 237.939289 
L 368.412361 237.234221 
L 361.917744 236.31051 
L 355.423128 235.160035 
L 348.928511 233.774263 
L 343.516331 232.429439 
L 337.021714 230.574117 
L 331.38084 228.733389 
L 326.086069 226.796463 
L 320.785173 224.635306 
L 315.372992 222.17894 
L 311.043248 220.013117 
L 305.631068 217.019308 
L 301.052631 214.206442 
L 296.764122 211.301053 
L 292.641835 208.218506 
L 289.316756 205.490274 
L 286.079925 202.584884 
L 282.89991 199.44099 
L 280.441036 196.774105 
L 277.487729 193.223517 
L 275.094029 189.994863 
L 273.157985 187.076895 
L 270.910312 183.215621 
L 268.996136 179.341768 
L 267.745805 176.36163 
L 266.422509 172.562526 
L 265.376284 168.688674 
L 264.628833 164.814821 
L 264.175788 160.940968 
L 264.013084 157.067116 
L 264.139631 153.193263 
L 264.555911 149.319411 
L 265.266901 145.445558 
L 265.99505 142.540168 
L 267.231694 138.666316 
L 268.363459 135.760926 
L 269.910677 132.377035 
L 271.716005 128.981684 
L 273.473663 126.076295 
L 275.435319 123.170905 
L 277.612438 120.265516 
L 280.017362 117.360126 
L 282.89991 114.209051 
L 286.147218 111.004126 
L 289.394526 108.09515 
L 292.641835 105.432104 
L 296.08873 102.833179 
L 300.307865 99.927789 
L 304.966363 97.0224 
L 309.960812 94.209702 
L 314.290556 91.995023 
L 319.702737 89.484811 
L 325.114917 87.232536 
L 330.527098 85.215293 
L 335.939278 83.411833 
L 342.433895 81.510273 
L 348.928511 79.876012 
L 355.423128 78.489286 
L 361.917744 77.339924 
L 368.412361 76.41594 
L 374.906977 75.709306 
L 381.401594 75.21789 
L 387.896211 74.933386 
L 394.390827 74.855794 
L 400.885444 74.985114 
L 407.38006 75.321346 
L 413.874677 75.866271 
L 420.806608 76.684674 
L 427.147984 77.653137 
L 433.358526 78.813475 
L 439.853143 80.260953 
L 445.265323 81.658931 
L 451.75994 83.583276 
L 457.17212 85.406122 
L 462.584301 87.446839 
L 467.996481 89.724305 
L 473.408662 92.260841 
L 478.820842 95.091589 
L 483.796814 97.990863 
L 488.301633 100.896253 
L 492.387785 103.801642 
L 496.13982 106.733475 
L 499.496762 109.612421 
L 501.552 111.513978 
L 501.552 111.513978 
" clip-path="url(#p883dcdae4d)" style="fill: none; stroke: #aeedae; stroke-width: 1.5"/>
    <path d="M 501.552 223.753499 
L 497.222256 226.438554 
L 492.892511 228.921041 
L 487.480331 231.767809 
L 481.661388 234.544168 
L 475.573534 237.165558 
L 469.864242 239.386484 
L 463.666737 241.55638 
L 457.17212 243.582533 
L 450.677504 245.372576 
L 444.182887 246.939544 
L 437.688271 248.295413 
L 431.193654 249.448981 
L 423.616602 250.549924 
L 416.039549 251.395514 
L 408.462496 251.993509 
L 400.885444 252.345343 
L 393.308391 252.4569 
L 385.731338 252.32818 
L 378.154286 251.959006 
L 370.577233 251.343499 
L 363.00018 250.479854 
L 356.505564 249.536218 
L 350.010947 248.398903 
L 343.516331 247.060928 
L 337.021714 245.511116 
L 330.527098 243.740347 
L 324.032481 241.734345 
L 317.537865 239.476653 
L 312.125684 237.386461 
L 306.713504 235.089671 
L 301.301323 232.571228 
L 295.698688 229.701853 
L 290.476962 226.760812 
L 285.064782 223.401331 
L 280.735038 220.455184 
L 276.405293 217.242767 
L 272.652194 214.206442 
L 268.828241 210.829567 
L 265.312329 207.4272 
L 261.691564 203.553347 
L 259.086316 200.479884 
L 256.238527 196.774105 
L 253.584725 192.900253 
L 251.24457 189.0264 
L 249.201004 185.152547 
L 247.442858 181.278695 
L 245.95882 177.404842 
L 244.741837 173.530989 
L 243.784239 169.657137 
L 243.082118 165.783284 
L 242.631215 161.909432 
L 242.429832 158.035579 
L 242.476305 154.161726 
L 242.770635 150.287874 
L 243.316158 146.414021 
L 244.113199 142.540168 
L 245.167276 138.666316 
L 246.484069 134.792463 
L 248.069426 130.918611 
L 249.933778 127.044758 
L 252.086969 123.170905 
L 254.542459 119.297053 
L 256.921444 115.950783 
L 259.620165 112.517811 
L 262.333624 109.379228 
L 265.792662 105.738568 
L 268.828241 102.818394 
L 272.080707 99.927789 
L 276.405293 96.408126 
L 280.735038 93.193316 
L 285.07056 90.243158 
L 290.476962 86.890617 
L 294.806707 84.430979 
L 300.38971 81.526989 
L 305.631068 79.045687 
L 311.093726 76.684674 
L 317.537865 74.174238 
L 324.032481 71.914687 
L 330.537079 69.905432 
L 337.691727 67.968505 
L 343.516331 66.589977 
L 350.010947 65.25081 
L 356.618859 64.094653 
L 364.082617 63.030501 
L 371.659669 62.202701 
L 379.236722 61.624369 
L 386.813774 61.287995 
L 394.390827 61.19312 
L 401.96788 61.339745 
L 409.544932 61.727869 
L 417.121985 62.359548 
L 424.699038 63.240808 
L 432.27609 64.37951 
L 438.770707 65.566781 
L 445.455282 67.000042 
L 451.75994 68.560369 
L 458.254556 70.388483 
L 464.749173 72.455806 
L 471.159739 74.747747 
L 476.65597 76.93066 
L 482.719158 79.590063 
L 487.480331 81.882923 
L 492.892511 84.729325 
L 498.304692 87.862998 
L 501.552 89.897256 
L 501.552 89.897256 
" clip-path="url(#p883dcdae4d)" style="fill: none; stroke: #a8e7a8; stroke-width: 1.5"/>
    <path d="M 501.552 242.142803 
L 496.13982 244.774321 
L 490.727639 247.201265 
L 484.233023 249.862506 
L 477.738406 252.273106 
L 471.243789 254.451668 
L 464.749173 256.413463 
L 458.254556 258.170908 
L 450.677504 259.977037 
L 443.100451 261.532995 
L 435.523398 262.849043 
L 427.946346 263.93467 
L 420.369293 264.797208 
L 412.792241 265.441767 
L 405.215188 265.870994 
L 397.638135 266.088951 
L 390.061083 266.096467 
L 382.48403 265.893541 
L 374.906977 265.479682 
L 367.329925 264.850289 
L 359.752872 264.003533 
L 352.17582 262.933976 
L 344.598767 261.635234 
L 337.021714 260.096111 
L 329.444662 258.308434 
L 322.950045 256.567804 
L 316.455429 254.623492 
L 309.960812 252.463121 
L 303.379132 250.039579 
L 296.971579 247.432405 
L 291.559398 245.026441 
L 285.900496 242.291874 
L 280.378673 239.386484 
L 275.290939 236.481095 
L 269.910677 233.139044 
L 264.833607 229.701853 
L 260.168752 226.261522 
L 255.839008 222.792073 
L 251.509263 219.008776 
L 247.502954 215.174905 
L 243.811397 211.301053 
L 240.454011 207.4272 
L 237.407785 203.553347 
L 234.656923 199.679495 
L 232.025414 195.540518 
L 229.860541 191.711498 
L 228.027052 188.057937 
L 226.323048 184.184084 
L 224.858496 180.310232 
L 223.626702 176.436379 
L 222.623238 172.562526 
L 221.84379 168.688674 
L 221.284673 164.814821 
L 220.945359 160.940968 
L 220.823394 157.067116 
L 220.918256 153.193263 
L 221.230125 149.319411 
L 221.761968 145.445558 
L 222.513451 141.571705 
L 223.488592 137.697853 
L 224.691701 133.824 
L 226.127195 129.950147 
L 227.80029 126.076295 
L 229.860541 121.938803 
L 232.025414 118.109196 
L 234.332376 114.454737 
L 237.048842 110.580884 
L 240.056927 106.707032 
L 243.374522 102.833179 
L 247.022147 98.959326 
L 250.426827 95.644455 
L 254.281676 92.180084 
L 258.00388 89.086956 
L 262.815577 85.400842 
L 267.745805 81.940788 
L 272.894168 78.6216 
L 277.784461 75.716211 
L 283.080905 72.810821 
L 288.84647 69.905432 
L 294.806707 67.156276 
L 300.218887 64.864918 
L 306.713504 62.351985 
L 312.781137 60.2208 
M 474.377916 60.2208 
L 479.916581 62.157726 
L 486.397895 64.646314 
L 492.892511 67.396423 
L 498.312887 69.905432 
L 501.552 71.507724 
L 501.552 71.507724 
" clip-path="url(#p883dcdae4d)" style="fill: none; stroke: #a2e0a2; stroke-width: 1.5"/>
    <path d="M 501.552 259.060287 
L 495.057383 261.690113 
L 487.480331 264.47802 
L 480.985714 266.645029 
L 473.408662 268.929871 
L 465.831609 270.968489 
L 458.254556 272.77322 
L 450.677504 274.355591 
L 443.100451 275.72262 
L 435.523398 276.883646 
L 427.946346 277.843622 
L 420.369293 278.607346 
L 411.709805 279.245362 
L 403.050316 279.635039 
L 394.390827 279.780213 
L 385.731338 279.680884 
L 377.07185 279.337051 
L 368.412361 278.745973 
L 359.752872 277.904758 
L 351.093383 276.807343 
L 343.516331 275.631889 
L 335.939278 274.250185 
L 328.362226 272.65191 
L 320.785173 270.830725 
L 313.20812 268.775084 
L 305.631068 266.472348 
L 298.054015 263.904157 
L 291.559398 261.479162 
L 284.887429 258.755747 
L 278.372361 255.850358 
L 272.075549 252.790541 
L 265.580932 249.349302 
L 260.048416 246.165726 
L 254.756571 242.875721 
L 249.344391 239.236544 
L 244.238613 235.512632 
L 239.344596 231.638779 
L 234.837479 227.764926 
L 230.684431 223.891074 
L 226.613233 219.75553 
L 223.340142 216.143368 
L 220.108466 212.269516 
L 216.871308 208.012478 
L 214.446798 204.521811 
L 211.991425 200.647958 
L 209.772456 196.774105 
L 207.781634 192.900253 
L 206.011079 189.0264 
L 204.456541 185.152547 
L 203.11062 181.278695 
L 201.969777 177.404842 
L 201.030549 173.530989 
L 200.289553 169.657137 
L 199.74455 165.783284 
L 199.394211 161.909432 
L 199.237642 158.035579 
L 199.273773 154.161726 
L 199.552331 149.736351 
L 199.926218 146.414021 
L 200.634767 142.063637 
L 201.35939 138.666316 
L 202.373968 134.792463 
L 203.591018 130.918611 
L 205.014303 127.044758 
L 206.649994 123.170905 
L 208.501795 119.297053 
L 210.577095 115.4232 
L 212.883935 111.549347 
L 215.788872 107.160485 
L 218.228067 103.801642 
L 221.287937 99.927789 
L 224.625529 96.053937 
L 228.257207 92.180084 
L 232.201823 88.306232 
L 236.484097 84.432379 
L 241.132815 80.558526 
L 246.180747 76.684674 
L 251.672705 72.810821 
L 256.921444 69.398357 
L 262.519566 66.031579 
L 268.828241 62.542336 
L 273.346055 60.2208 
L 273.346055 60.2208 
" clip-path="url(#p883dcdae4d)" style="fill: none; stroke: #9bd99b; stroke-width: 1.5"/>
    <path d="M 501.552 275.1402 
L 495.057383 277.418678 
L 487.480331 279.850981 
L 479.903278 282.053094 
L 472.326226 284.036058 
L 463.666737 286.047514 
L 454.95493 287.809642 
L 446.347759 289.301398 
L 437.688271 290.563105 
L 429.028782 291.590247 
L 420.369293 292.387861 
L 411.709805 292.960838 
L 403.050316 293.311756 
L 394.390827 293.44249 
L 385.731338 293.35304 
L 377.07185 293.043407 
L 368.412361 292.512601 
L 359.752872 291.757234 
L 351.093383 290.773597 
L 342.433895 289.55635 
L 333.774406 288.099579 
L 326.197353 286.622256 
L 317.537865 284.693033 
L 309.960812 282.785506 
L 302.383759 280.662844 
L 294.806707 278.31478 
L 287.229654 275.726659 
L 279.652602 272.883507 
L 273.157985 270.229158 
L 266.663368 267.358175 
L 260.168752 264.252951 
L 253.674135 260.893922 
L 248.097029 257.787284 
L 241.767338 253.985676 
L 236.355158 250.47642 
L 230.942977 246.701024 
L 226.347214 243.260337 
L 221.201053 239.113836 
L 216.871308 235.352408 
L 212.541564 231.299856 
L 209.027807 227.764926 
L 204.964511 223.348954 
L 201.717203 219.522005 
L 198.319993 215.174905 
L 195.222586 210.830121 
L 192.38884 206.458737 
L 189.810406 202.051776 
L 187.54605 197.742568 
L 185.297974 192.900253 
L 183.351929 188.057937 
L 182.007846 184.184084 
L 180.586833 179.341768 
L 179.448407 174.499453 
L 178.588301 169.657137 
L 178.002832 164.814821 
L 177.690746 159.972505 
L 177.650104 155.130189 
L 177.880409 150.287874 
L 178.384068 145.445558 
L 179.161034 140.603242 
L 180.215477 135.760926 
L 181.551647 130.918611 
L 183.173885 126.076295 
L 184.683049 122.202442 
L 186.563098 117.946242 
L 188.786572 113.486274 
L 190.937581 109.612421 
L 193.299212 105.738568 
L 196.305023 101.255462 
L 199.421166 97.0224 
L 202.799639 92.819407 
L 206.046947 89.086646 
L 209.494921 85.400842 
L 213.624 81.307113 
L 217.953744 77.332094 
L 222.283489 73.635945 
L 226.975585 69.905432 
L 232.219843 66.031579 
L 237.881628 62.157726 
L 240.882692 60.2208 
L 240.882692 60.2208 
" clip-path="url(#p883dcdae4d)" style="fill: none; stroke: #93d193; stroke-width: 1.5"/>
    <path d="M 501.552 290.683596 
L 493.974947 293.022855 
L 485.315459 295.446449 
L 477.164715 297.494274 
L 468.517106 299.4312 
L 460.419429 301.033014 
L 451.75994 302.527897 
L 443.100451 303.803029 
L 434.440962 304.86492 
L 425.781474 305.717731 
L 417.121985 306.365514 
L 408.462496 306.809849 
L 399.803008 307.05392 
L 391.143519 307.097728 
L 382.48403 306.941272 
L 373.824541 306.584552 
L 365.165053 306.026379 
L 356.285728 305.241979 
L 347.680038 304.273516 
L 339.186586 303.112508 
L 330.527098 301.714307 
L 321.867609 300.093417 
L 313.20812 298.241992 
L 304.548632 296.150409 
L 295.889143 293.808503 
L 288.31209 291.543225 
L 279.897428 288.778105 
L 273.157985 286.362586 
L 265.580932 283.421217 
L 258.00388 280.224197 
L 251.280801 277.156547 
L 243.932211 273.533563 
L 237.437594 270.076843 
L 230.942977 266.357679 
L 224.448361 262.347109 
L 219.030777 258.755747 
L 213.571696 254.881895 
L 208.21182 250.799372 
L 203.71389 247.134189 
L 199.261428 243.260337 
L 195.097068 239.386484 
L 190.892842 235.190655 
L 186.694707 230.670316 
L 183.315789 226.746235 
L 179.505738 221.954147 
L 175.990501 217.111832 
L 173.410198 213.237979 
L 170.463038 208.395663 
L 167.813969 203.553347 
L 165.452089 198.711032 
L 163.368655 193.868716 
L 161.555888 189.0264 
L 160.008633 184.184084 
L 158.720357 179.341768 
L 157.687493 174.499453 
L 156.906538 169.657137 
L 156.374598 164.814821 
L 156.090822 159.972505 
L 156.053879 155.130189 
L 156.263262 150.287874 
L 156.720978 145.445558 
L 157.426516 140.603242 
L 158.419759 135.601892 
L 159.594723 130.918611 
L 161.064444 126.076295 
L 162.796274 121.233979 
L 164.797787 116.391663 
L 167.079248 111.541072 
L 169.637789 106.707032 
L 172.493779 101.864716 
L 175.738737 96.903326 
L 179.138996 92.180084 
L 182.956974 87.337768 
L 186.563098 83.128558 
L 190.735406 78.6216 
L 194.596349 74.747747 
L 198.725479 70.873895 
L 203.882075 66.375305 
L 208.21182 62.8508 
L 211.620074 60.2208 
L 211.620074 60.2208 
" clip-path="url(#p883dcdae4d)" style="fill: none; stroke: #8bc88b; stroke-width: 1.5"/>
    <path d="M 501.552 305.857973 
L 492.892511 308.249578 
L 484.233023 310.407887 
L 475.573534 312.3438 
L 466.914045 314.065515 
L 457.17212 315.754125 
L 448.512632 317.041267 
L 438.770707 318.254773 
L 429.028782 319.225768 
L 419.286857 319.958562 
L 409.544932 320.455707 
L 399.803008 320.72042 
L 390.061083 320.752612 
L 380.319158 320.552553 
L 370.577233 320.119973 
L 360.835308 319.45309 
L 351.093383 318.548797 
L 341.351459 317.402798 
L 331.609534 316.01069 
L 322.950045 314.56016 
L 314.290556 312.904846 
L 305.631068 311.037007 
L 296.971579 308.948509 
L 288.31209 306.630797 
L 279.652602 304.073557 
L 270.993113 301.263422 
L 262.333624 298.184777 
L 254.756571 295.257433 
L 247.179519 292.096993 
L 239.602466 288.687452 
L 231.820591 284.904253 
L 224.44086 281.0304 
L 217.584045 277.156547 
L 211.189168 273.282695 
L 204.964511 269.243958 
L 199.552331 265.495281 
L 194.14015 261.499739 
L 188.72797 257.228779 
L 183.6561 252.944968 
L 178.986045 248.724034 
L 174.343522 244.2288 
L 169.703082 239.386484 
L 165.41342 234.544168 
L 161.454934 229.701853 
L 157.811625 224.859537 
L 154.468383 220.017221 
L 151.413138 215.174905 
L 148.63446 210.332589 
L 146.124533 205.490274 
L 143.8739 200.647958 
L 141.875875 195.805642 
L 140.018346 190.64403 
L 138.61526 186.121011 
L 137.343294 181.278695 
L 136.305118 176.436379 
L 135.497792 171.594063 
L 134.919738 166.751747 
L 134.568528 161.909432 
L 134.44437 157.067116 
L 134.545954 152.2248 
L 134.8744 147.382484 
L 135.429786 142.540168 
L 136.214061 137.697853 
L 137.228993 132.855537 
L 138.477516 128.013221 
L 140.018346 123.004876 
L 141.689849 118.328589 
L 143.662807 113.486274 
L 145.887935 108.643958 
L 148.371906 103.801642 
L 151.122876 98.959326 
L 154.149659 94.117011 
L 157.463655 89.274695 
L 161.076901 84.432379 
L 165.002531 79.590063 
L 169.258066 74.747747 
L 173.863033 69.905432 
L 177.903609 65.945079 
L 183.104103 61.189263 
L 184.211984 60.2208 
L 184.211984 60.2208 
" clip-path="url(#p883dcdae4d)" style="fill: none; stroke: #82be82; stroke-width: 1.5"/>
    <path d="M 501.552 320.767677 
L 491.810075 323.20117 
L 483.150586 325.145966 
L 473.408662 327.096783 
L 463.666737 328.804831 
L 453.924812 330.277409 
L 444.182887 331.520061 
L 434.440962 332.537767 
L 424.699038 333.335009 
L 414.957113 333.913304 
L 405.215188 334.276975 
L 395.473263 334.425312 
L 385.731338 334.360089 
L 375.989414 334.080235 
L 366.247489 333.585405 
L 356.505564 332.873465 
L 346.763639 331.942006 
L 337.021714 330.787363 
L 327.279789 329.405523 
L 317.537865 327.789548 
L 307.79594 325.934026 
L 299.136451 324.076884 
L 290.476962 322.017427 
L 281.817474 319.748337 
L 273.157985 317.259007 
L 264.498496 314.540914 
L 255.839008 311.581298 
L 247.179519 308.366292 
L 239.389258 305.241979 
L 232.025414 302.072623 
L 224.205857 298.462737 
L 216.402853 294.588884 
L 209.131859 290.715032 
L 201.717203 286.476847 
L 195.222586 282.504059 
L 188.72797 278.263127 
L 182.964977 274.251158 
L 176.821173 269.687218 
L 171.408992 265.393587 
L 165.86267 260.692674 
L 160.535125 255.850358 
L 155.573322 251.008042 
L 150.842707 246.044959 
L 146.512962 241.153818 
L 142.668423 236.481095 
L 138.93591 231.590624 
L 135.554323 226.796463 
L 132.406066 221.954147 
L 129.193985 216.540301 
L 126.879447 212.269516 
L 124.485149 207.4272 
L 122.327617 202.584884 
L 120.401231 197.742568 
L 118.701852 192.900253 
L 117.224263 188.057937 
L 115.966057 183.215621 
L 114.923393 178.373305 
L 114.03988 173.158565 
L 113.476731 168.688674 
L 113.068856 163.846358 
L 112.870484 159.004042 
L 112.880902 154.161726 
L 113.100231 149.319411 
L 113.529022 144.477095 
L 114.167473 139.634779 
L 115.122316 134.274544 
L 116.204752 129.451046 
L 117.362109 125.107832 
L 118.861818 120.265516 
L 120.583437 115.4232 
L 122.699368 110.193323 
L 124.864241 105.423772 
L 127.132104 100.896253 
L 129.795187 96.053937 
L 132.709407 91.211621 
L 135.883838 86.369305 
L 139.328457 81.526989 
L 143.265654 76.420789 
L 147.073227 71.842358 
L 151.400893 67.000042 
L 156.053584 62.157726 
L 158.01031 60.2208 
L 158.01031 60.2208 
" clip-path="url(#p883dcdae4d)" style="fill: none; stroke: #79b479; stroke-width: 1.5"/>
    <path d="M 501.552 335.477035 
L 491.810075 337.713113 
L 482.06815 339.714524 
L 472.326226 341.488651 
L 462.584301 343.042569 
L 452.842376 344.38014 
L 443.100451 345.507547 
L 433.358526 346.428011 
L 423.616602 347.144688 
L 412.792241 347.7046 
L 403.050316 347.997365 
L 392.225955 348.089192 
L 381.401594 347.936148 
L 371.659669 347.587695 
L 360.835308 346.966254 
L 351.093383 346.193008 
L 341.351459 345.215392 
L 331.236515 343.980505 
L 321.867609 342.632362 
L 312.125684 341.018721 
L 302.164702 339.138189 
L 292.641835 337.116281 
L 282.89991 334.812786 
L 273.157985 332.263578 
L 263.40574 329.453558 
L 254.187809 326.548168 
L 245.684283 323.642779 
L 237.437594 320.60726 
L 228.778105 317.175114 
L 221.201053 313.954858 
L 212.704489 310.084295 
L 204.964511 306.303224 
L 198.469895 302.928111 
L 190.892842 298.739586 
L 183.859654 294.588884 
L 176.821173 290.156632 
L 170.326556 285.796666 
L 163.673448 281.0304 
L 157.337323 276.176846 
L 151.437013 271.345768 
L 145.899458 266.503453 
L 140.714572 261.661137 
L 135.688602 256.640451 
L 131.320281 251.976505 
L 127.029113 247.07755 
L 122.699368 241.760192 
L 119.426887 237.449558 
L 115.997534 232.607242 
L 112.818253 227.764926 
L 109.710135 222.627077 
L 107.178722 218.080295 
L 104.704142 213.237979 
L 102.451666 208.395663 
L 100.416372 203.553347 
L 98.593482 198.711032 
L 96.720902 193.030466 
L 95.570159 189.0264 
L 94.363788 184.184084 
L 93.357064 179.341768 
L 92.548403 174.499453 
L 91.936239 169.657137 
L 91.518797 164.814821 
L 91.295561 159.972505 
L 91.266542 155.130189 
L 91.431425 150.287874 
L 91.790619 145.445558 
L 92.391158 140.26214 
L 93.094006 135.760926 
L 94.04111 130.918611 
L 95.18743 126.076295 
L 96.720902 120.621036 
L 98.087485 116.391663 
L 99.968211 111.237787 
L 102.133083 105.980441 
L 104.297955 101.252332 
L 106.462827 96.925933 
L 109.04625 92.180084 
L 111.911882 87.337768 
L 115.122316 82.339362 
L 118.371112 77.653137 
L 121.982128 72.810821 
L 125.946677 67.864041 
L 130.276421 62.835395 
L 132.650806 60.2208 
L 132.650806 60.2208 
" clip-path="url(#p883dcdae4d)" style="fill: none; stroke: #6faa6f; stroke-width: 1.5"/>
    <path d="M 501.552 350.032945 
L 491.810075 352.102485 
L 482.06815 353.957904 
L 472.326226 355.605446 
L 461.501865 357.196895 
L 450.677504 358.544422 
L 439.853143 359.651226 
L 429.028782 360.522356 
L 418.204421 361.159956 
L 407.38006 361.567059 
L 396.555699 361.744286 
L 385.731338 361.692833 
L 374.906977 361.412699 
L 364.082617 360.901469 
L 353.258256 360.159121 
L 342.433895 359.182332 
L 331.609534 357.967718 
L 320.785173 356.511542 
L 309.960812 354.807279 
L 300.218887 353.056563 
L 290.476962 351.09488 
L 280.340426 348.822821 
L 270.993113 346.510971 
L 261.251188 343.872951 
L 251.509263 340.990742 
L 241.767338 337.852577 
L 233.10785 334.837917 
L 223.908438 331.390484 
L 215.788872 328.125346 
L 207.129383 324.400135 
L 198.469895 320.406498 
L 190.892842 316.676715 
L 183.315789 312.710103 
L 175.738737 308.488532 
L 168.624422 304.273516 
L 161.667068 299.893924 
L 155.172451 295.556287 
L 148.354715 290.715032 
L 141.952139 285.872716 
L 135.688602 280.824531 
L 130.276421 276.185865 
L 124.864241 271.256067 
L 119.45206 265.996405 
L 115.122316 261.519294 
L 110.792571 256.766687 
L 106.462827 251.696307 
L 102.133083 246.256764 
L 98.478249 241.323411 
L 95.132332 236.481095 
L 92.017645 231.638779 
L 89.126801 226.796463 
L 85.945418 220.985684 
L 83.52712 216.143368 
L 80.896952 210.332589 
L 78.926556 205.490274 
L 76.822242 199.679495 
L 74.996208 193.868716 
L 73.444638 188.057937 
L 72.162507 182.247158 
L 71.1471 176.436379 
L 70.39574 170.6256 
L 69.906605 164.814821 
L 69.678343 159.004042 
L 69.710951 153.193263 
L 70.004432 147.382484 
L 70.558784 141.571705 
L 71.376129 135.760926 
L 72.457965 129.950147 
L 73.806975 124.139368 
L 75.137818 119.297053 
L 76.98678 113.486274 
L 78.74041 108.643958 
L 80.690773 103.801642 
L 83.296855 97.990863 
L 85.896541 92.759792 
L 88.85019 87.337768 
L 91.71864 82.495453 
L 94.810447 77.653137 
L 98.13298 72.810821 
L 102.133083 67.394054 
L 105.501821 63.126189 
L 107.909752 60.2208 
L 107.909752 60.2208 
" clip-path="url(#p883dcdae4d)" style="fill: none; stroke: #659f65; stroke-width: 1.5"/>
    <path d="M 501.552 364.467563 
L 490.727639 366.596357 
L 479.903278 368.482571 
L 469.078917 370.132797 
L 458.254556 371.551082 
L 447.430195 372.743592 
L 436.605835 373.713355 
L 425.781474 374.463344 
L 414.957113 374.996479 
L 404.132752 375.312865 
L 393.308391 375.414752 
L 382.48403 375.30214 
L 371.569618 374.971326 
L 360.835308 374.431026 
L 350.010947 373.670072 
L 339.186586 372.689245 
L 328.362226 371.485571 
L 317.537865 370.05569 
L 306.713504 368.394025 
L 295.889143 366.495824 
L 286.147218 364.579742 
L 276.054671 362.381305 
L 265.580932 359.861976 
L 255.839008 357.294183 
L 246.097083 354.501048 
L 236.355158 351.472469 
L 226.613233 348.197731 
L 217.62967 344.948968 
L 208.21182 341.293372 
L 199.552331 337.69386 
L 190.892842 333.851987 
L 182.233353 329.751482 
L 173.969061 325.579705 
L 165.996812 321.297148 
L 158.230979 316.863537 
L 150.842707 312.383382 
L 144.241483 308.147368 
L 137.118623 303.305053 
L 130.276421 298.362988 
L 123.781805 293.379514 
L 118.120095 288.778105 
L 111.875008 283.390362 
L 106.462827 278.425277 
L 101.184165 273.282695 
L 96.503327 268.440379 
L 92.089333 263.598063 
L 87.930387 258.755747 
L 83.731669 253.548019 
L 79.630829 248.102653 
L 76.154617 243.156541 
L 72.426819 237.449558 
L 69.66 232.889949 
M 69.66 80.759792 
L 72.731396 75.716211 
L 76.154617 70.494234 
L 79.983858 65.063116 
L 83.638331 60.2208 
L 83.638331 60.2208 
" clip-path="url(#p883dcdae4d)" style="fill: none; stroke: #5b955b; stroke-width: 1.5"/>
    <path d="M 501.552 378.804466 
L 490.727639 380.79729 
L 479.903278 382.564592 
L 469.078917 384.111943 
L 458.254556 385.444218 
L 447.128377 386.592884 
L 436.605835 387.47635 
L 425.781474 388.181504 
L 414.957113 388.682841 
L 403.050316 388.999434 
L 391.143519 389.07164 
L 379.236722 388.899457 
L 368.388775 388.529811 
L 357.588 387.957895 
L 346.763639 387.180515 
L 335.939278 386.196126 
L 325.114917 385.002094 
L 314.290556 383.595346 
L 303.466195 381.971136 
L 292.641835 380.125308 
L 281.817474 378.052452 
L 270.993113 375.745705 
L 260.168752 373.197832 
L 250.426827 370.691152 
L 240.684902 367.975303 
L 230.942977 365.041518 
L 221.201053 361.880534 
L 211.459128 358.482437 
L 201.717203 354.833483 
L 193.057714 351.368848 
L 184.398226 347.684582 
L 175.738737 343.76701 
L 167.079248 339.601301 
L 158.596957 335.264337 
L 150.842707 331.059853 
L 142.982995 326.548168 
L 135.03226 321.705853 
L 127.538871 316.863537 
L 120.464828 312.021221 
L 113.779394 307.178905 
L 107.454222 302.336589 
L 101.050647 297.147258 
L 95.638466 292.513419 
L 90.226286 287.625535 
L 84.351897 281.998863 
L 79.401925 276.963901 
L 74.202679 271.345768 
L 69.66 266.119149 
L 69.66 266.119149 
" clip-path="url(#p883dcdae4d)" style="fill: none; stroke: #518a51; stroke-width: 1.5"/>
    <path d="M 501.552 393.06085 
L 490.727639 394.9343 
L 479.903278 396.597688 
L 467.996481 398.190228 
L 457.17212 399.425381 
L 445.265323 400.554932 
L 433.358526 401.44756 
L 421.451729 402.106063 
L 409.544932 402.531138 
L 397.638135 402.725307 
L 385.731338 402.688573 
L 373.824541 402.420933 
L 361.917744 401.921733 
L 350.010947 401.189399 
L 338.10415 400.221693 
L 326.197353 399.015797 
L 314.290556 397.56827 
L 303.466195 396.0392 
L 292.641835 394.30312 
L 281.817474 392.354913 
L 270.993113 390.189294 
L 260.168752 387.800799 
L 249.344391 385.181909 
L 238.52003 382.324908 
L 227.695669 379.220469 
L 217.123636 375.939789 
L 207.129383 372.601388 
L 197.387459 369.11641 
L 187.382735 365.286695 
L 177.903609 361.411834 
L 168.161684 357.16381 
L 159.502195 353.148809 
L 150.701539 348.822821 
L 142.183218 344.382414 
L 134.423037 340.106653 
L 125.946677 335.164358 
L 118.266325 330.422021 
L 110.792571 325.545039 
L 103.215519 320.312159 
L 96.720902 315.575144 
L 90.226286 310.582439 
L 83.651223 305.241979 
L 77.237053 299.722267 
L 71.597438 294.588884 
L 69.66 292.75882 
L 69.66 292.75882 
" clip-path="url(#p883dcdae4d)" style="fill: none; stroke: #477f47; stroke-width: 1.5"/>
    <path d="M 501.552 407.251293 
L 489.645203 409.185296 
L 477.738406 410.881604 
L 465.831609 412.344104 
L 453.924812 413.577903 
L 442.018015 414.585583 
L 430.111218 415.369687 
L 418.204421 415.93272 
L 406.297624 416.275887 
L 394.390827 416.400222 
L 382.48403 416.305727 
L 370.577233 415.992401 
L 358.670436 415.459544 
L 346.389858 414.678316 
L 334.652069 413.709853 
L 322.950045 412.525863 
L 311.043248 411.094463 
L 299.136451 409.430429 
L 287.229654 407.5292 
L 275.322857 405.385233 
L 263.720159 403.056758 
L 252.591699 400.594452 
L 241.767338 397.978619 
L 230.942977 395.137345 
L 220.118617 392.062272 
L 209.294256 388.744625 
L 199.552331 385.542482 
L 188.72797 381.733033 
L 178.496661 377.876716 
L 168.852789 374.002863 
L 159.502195 370.01301 
L 149.760271 365.596665 
L 141.053977 361.412842 
L 132.441293 357.038029 
L 123.781805 352.388512 
L 115.122316 347.468222 
L 107.545263 342.924558 
L 99.968211 338.140186 
L 92.391158 333.095239 
L 84.814105 327.767603 
L 77.94993 322.674316 
L 71.746321 317.832 
L 69.66 316.14816 
L 69.66 316.14816 
" clip-path="url(#p883dcdae4d)" style="fill: none; stroke: #3d743d; stroke-width: 1.5"/>
    <path d="M 501.552 421.386377 
L 489.645203 423.217634 
L 477.738406 424.824706 
L 465.831609 426.212104 
L 453.924812 427.382417 
L 442.018015 428.338831 
L 430.111218 429.083505 
L 418.204421 429.618009 
L 406.297624 429.944124 
L 394.390827 430.062282 
L 382.48403 429.972482 
L 370.577233 429.674725 
L 358.670436 429.168881 
L 346.763639 428.452667 
L 334.856842 427.52522 
L 322.950045 426.384397 
L 311.043248 425.026797 
L 298.745957 423.394484 
L 287.229654 421.649316 
L 275.322857 419.620696 
L 263.41606 417.358312 
L 251.509263 414.856499 
L 240.684902 412.368061 
L 229.860541 409.670082 
L 219.03618 406.755247 
L 208.21182 403.615893 
L 197.100658 400.151368 
L 186.563098 396.628657 
L 176.821173 393.158382 
L 167.079248 389.473343 
L 157.337323 385.562608 
L 147.595398 381.414492 
L 137.620727 376.908253 
L 128.111549 372.352142 
L 119.45206 367.96894 
L 110.792571 363.347848 
L 102.133083 358.471689 
L 93.473594 353.321592 
L 85.896541 348.574048 
L 78.319489 343.58271 
L 70.519948 338.169726 
L 69.66 337.554308 
L 69.66 337.554308 
" clip-path="url(#p883dcdae4d)" style="fill: none; stroke: #346a34; stroke-width: 1.5"/>
    <path d="M 501.552 435.473698 
L 489.645203 437.213188 
L 477.738406 438.740766 
L 465.831609 440.059672 
L 452.842376 441.264002 
L 439.853143 442.226875 
L 426.86391 442.950739 
L 413.874677 443.437018 
L 400.885444 443.687525 
L 387.896211 443.70226 
L 374.906977 443.481225 
L 361.917744 443.024418 
L 348.928511 442.330374 
L 335.939278 441.397526 
L 322.950045 440.223425 
L 310.677159 438.889895 
L 299.136451 437.433787 
L 287.229654 435.723597 
L 275.322857 433.797977 
L 263.41606 431.652373 
L 251.141954 429.205263 
L 239.602466 426.680237 
L 227.695669 423.840886 
L 216.871308 421.046929 
L 206.046947 418.043627 
L 194.750099 414.678316 
L 184.398226 411.37892 
L 173.573865 407.700155 
L 162.749504 403.776609 
L 151.925143 399.596568 
L 141.483495 395.309053 
L 132.441293 391.382535 
L 122.699368 386.917655 
L 114.008683 382.719032 
L 104.297955 377.770849 
L 95.490448 373.0344 
L 86.936224 368.192084 
L 78.319489 363.055491 
L 69.66 357.612895 
L 69.66 357.612895 
" clip-path="url(#p883dcdae4d)" style="fill: none; stroke: #2a602a; stroke-width: 1.5"/>
    <path d="M 267.662258 446.6376 
L 255.839008 444.47673 
L 243.932211 442.086088 
L 232.025414 439.47456 
L 220.118617 436.636036 
L 208.21182 433.563366 
L 196.305023 430.249099 
L 185.480662 427.018206 
L 174.114355 423.394484 
L 163.83194 419.90376 
L 153.007579 416.002174 
L 142.183218 411.857401 
L 132.417736 407.899074 
L 121.616932 403.266344 
L 111.875008 398.846534 
L 102.133083 394.184807 
L 92.391158 389.266027 
L 83.71464 384.655958 
L 75.035415 379.813642 
L 69.66 376.692054 
L 69.66 376.692054 
" clip-path="url(#p883dcdae4d)" style="fill: none; stroke: #225622; stroke-width: 1.5"/>
    <path d="M 201.642194 446.6376 
L 189.810406 443.386032 
L 177.84228 439.858358 
L 165.996812 436.120455 
L 155.172451 432.482338 
L 144.34809 428.623267 
L 133.523729 424.533662 
L 122.699368 420.202329 
L 111.875008 415.617857 
L 101.050647 410.765739 
L 90.907021 405.962147 
L 81.201046 401.119832 
L 71.824872 396.199641 
L 69.66 395.027908 
L 69.66 395.027908 
" clip-path="url(#p883dcdae4d)" style="fill: none; stroke: #1a4e1a; stroke-width: 1.5"/>
    <path d="M 151.180735 446.6376 
L 150.842707 446.524345 
L 149.760271 446.160056 
L 148.677835 445.794148 
L 148.309657 445.669137 
L 147.595398 445.425803 
L 146.512962 445.055413 
L 145.480797 444.700674 
L 145.430526 444.683338 
L 144.34809 444.308436 
L 143.265654 443.931902 
L 142.694071 443.732211 
L 142.183218 443.553133 
L 141.100782 443.172051 
L 140.018346 442.789332 
L 139.946293 442.763747 
L 138.93591 442.403759 
L 137.853474 442.016456 
L 137.237954 441.795284 
L 136.771038 441.626939 
L 135.688602 441.23502 
L 134.606165 440.841453 
L 134.56609 440.826821 
L 133.523729 440.444938 
L 132.441293 440.046718 
L 131.931412 439.858358 
L 131.358857 439.64612 
L 130.276421 439.243216 
L 129.331088 438.889895 
L 129.193985 438.838476 
L 128.111549 438.430855 
L 127.029113 438.021569 
L 126.765353 437.921432 
L 125.946677 437.609545 
L 124.864241 437.195504 
L 124.232723 436.952968 
L 123.781805 436.779192 
L 122.699368 436.360363 
L 121.731862 435.984505 
L 121.616932 435.939702 
L 120.534496 435.516052 
L 119.45206 435.090719 
L 119.262762 435.016042 
L 118.369624 434.662475 
L 117.287188 434.232281 
L 116.824264 434.047579 
L 116.204752 433.799534 
L 115.122316 433.364446 
L 114.41521 433.079116 
L 114.03988 432.927131 
L 112.957444 432.487114 
L 112.034919 432.110653 
L 111.875008 432.045166 
L 110.792571 431.600185 
L 109.710135 431.153497 
L 109.682838 431.142189 
L 108.627699 430.703557 
L 107.545263 430.251865 
L 107.358719 430.173726 
L 106.462827 429.797128 
L 105.380391 429.340395 
L 105.061336 429.205263 
L 104.297955 428.880791 
L 103.215519 428.418982 
L 102.790091 428.2368 
L 102.133083 427.954442 
L 101.050647 427.48752 
L 100.544405 427.268337 
L 99.968211 427.017972 
L 98.885774 426.5459 
L 98.323716 426.299874 
L 97.803338 426.071271 
L 96.720902 425.594014 
L 96.127478 425.331411 
L 95.638466 425.11423 
L 94.55603 424.631748 
L 93.955161 424.362947 
L 93.473594 424.146736 
L 92.391158 423.658992 
L 91.806249 423.394484 
L 91.308722 423.168673 
L 90.226286 422.675629 
L 89.680243 422.426021 
L 89.14385 422.179927 
L 88.061414 421.681545 
L 87.576657 421.457558 
L 86.978977 421.180381 
L 85.896541 420.67662 
L 85.495018 420.489095 
L 84.814105 420.169914 
L 83.731669 419.660736 
L 83.434867 419.520632 
L 82.649233 419.148406 
L 81.566797 418.63377 
L 81.395758 418.552168 
L 80.484361 418.115734 
L 79.401925 417.5956 
L 79.377256 417.583705 
L 78.319489 417.071773 
L 77.379425 416.615242 
L 77.237053 416.545842 
L 76.154617 416.016398 
L 75.401513 415.646779 
L 75.07218 415.484539 
L 73.989744 414.949479 
L 73.443032 414.678316 
L 72.907308 414.411603 
L 71.824872 413.870886 
L 71.50359 413.709853 
L 70.742436 413.326905 
L 69.66 412.780487 
" clip-path="url(#p883dcdae4d)" style="fill: none; stroke: #124612; stroke-width: 1.5"/>
    <path d="M 107.909752 446.6376 
L 107.545263 446.493647 
L 106.462827 446.064525 
L 105.469236 445.669137 
L 105.380391 445.633663 
L 104.297955 445.199847 
L 103.215519 444.764404 
L 103.057685 444.700674 
L 102.133083 444.326078 
L 101.050647 443.885904 
L 100.674093 443.732211 
L 99.968211 443.443125 
L 98.885774 442.998188 
L 98.31752 442.763747 
L 97.803338 442.550895 
L 96.720902 442.101163 
L 95.987377 441.795284 
L 95.638466 441.649294 
L 94.55603 441.194734 
L 93.68309 440.826821 
L 93.473594 440.738224 
L 92.391158 440.278804 
L 91.404102 439.858358 
L 91.308722 439.81759 
L 90.226286 439.353276 
L 89.149874 438.889895 
L 89.14385 438.887292 
L 88.061414 438.41805 
L 86.978977 437.947142 
L 86.920087 437.921432 
L 85.896541 437.473026 
L 84.814105 436.997151 
L 84.713959 436.952968 
L 83.731669 436.518103 
L 82.649233 436.037226 
L 82.530974 435.984505 
L 81.566797 435.553177 
L 80.484361 435.067263 
L 80.370654 435.016042 
L 79.401925 434.578144 
L 78.319489 434.087158 
L 78.232532 434.047579 
L 77.237053 433.592897 
L 76.154617 433.096803 
L 76.116156 433.079116 
L 75.07218 432.597329 
L 74.021189 432.110653 
L 73.989744 432.09604 
L 72.907308 431.59133 
L 71.947296 431.142189 
L 71.824872 431.084711 
L 70.742436 430.574791 
L 69.893924 430.173726 
L 69.66 430.062766 
" clip-path="url(#p883dcdae4d)" style="fill: none; stroke: #0c3f0c; stroke-width: 1.5"/>
    <path clip-path="url(#p883dcdae4d)" style="fill: none; stroke: #073907; stroke-width: 1.5"/>
    <path clip-path="url(#p883dcdae4d)" style="fill: none; stroke: #033503; stroke-width: 1.5"/>
    <path clip-path="url(#p883dcdae4d)" style="fill: none; stroke: #003200; stroke-width: 1.5"/>
    <path clip-path="url(#p883dcdae4d)" style="fill: none; stroke: #003200; stroke-width: 1.5"/>
   </g>
   <g id="line2d_19">
    <path d="M 158.737725 332.907807 
L 299.102625 405.414606 
L 371.9844 367.766845 
L 371.9844 194.866016 
L 272.109375 143.27464 
L 158.737725 201.837824 
L 158.737725 332.907807 
" clip-path="url(#p883dcdae4d)" style="fill: none; stroke: #ff0000; stroke-width: 2; stroke-linecap: square"/>
   </g>
   <g id="line2d_20">
    <path d="M 231.6195 301.7313 
L 238.033096 290.370646 
L 244.192714 279.900667 
L 250.108411 270.251535 
L 255.789846 261.358895 
L 261.246297 253.163437 
L 266.486672 245.610504 
L 271.519528 238.64972 
L 276.353083 232.234662 
L 283.246905 223.542643 
L 289.735315 215.852501 
L 295.842154 209.048755 
L 301.589863 203.029236 
L 306.99956 197.703551 
L 312.091123 192.991726 
L 316.883262 188.823004 
L 321.393585 185.134786 
L 326.997472 180.869819 
L 332.166319 177.247385 
L 334.598261 175.64627 
L 355.412371 186.397993 
L 355.412371 186.397993 
" clip-path="url(#p883dcdae4d)" style="fill: none; stroke: #00ffff; stroke-width: 1.5; stroke-linecap: square"/>
   </g>
   <g id="patch_3">
    <path d="M 69.66 446.6376 
L 69.66 60.2208 
" style="fill: none; stroke: #000000; stroke-width: 0.8; stroke-linejoin: miter; stroke-linecap: square"/>
   </g>
   <g id="patch_4">
    <path d="M 501.552 446.6376 
L 501.552 60.2208 
" style="fill: none; stroke: #000000; stroke-width: 0.8; stroke-linejoin: miter; stroke-linecap: square"/>
   </g>
   <g id="patch_5">
    <path d="M 69.66 446.6376 
L 501.552 446.6376 
" style="fill: none; stroke: #000000; stroke-width: 0.8; stroke-linejoin: miter; stroke-linecap: square"/>
   </g>
   <g id="patch_6">
    <path d="M 69.66 60.2208 
L 501.552 60.2208 
" style="fill: none; stroke: #000000; stroke-width: 0.8; stroke-linejoin: miter; stroke-linecap: square"/>
   </g>
   <g id="PathCollection_1">
    <defs>
     <path id="m2e0722f603" d="M 0 5 
C 1.326016 5 2.597899 4.473168 3.535534 3.535534 
C 4.473168 2.597899 5 1.326016 5 0 
C 5 -1.326016 4.473168 -2.597899 3.535534 -3.535534 
C 2.597899 -4.473168 1.326016 -5 0 -5 
C -1.326016 -5 -2.597899 -4.473168 -3.535534 -3.535534 
C -4.473168 -2.597899 -5 -1.326016 -5 0 
C -5 1.326016 -4.473168 2.597899 -3.535534 3.535534 
C -2.597899 4.473168 -1.326016 5 0 5 
z
" style="stroke: #00ffff"/>
    </defs>
    <g clip-path="url(#p883dcdae4d)">
     <use xlink:href="#m2e0722f603" x="355.412371" y="186.397993" style="fill: #00ffff; stroke: #00ffff"/>
    </g>
   </g>
  </g>
 </g>
 <defs>
  <clipPath id="p883dcdae4d">
   <rect x="69.66" y="60.2208" width="431.892" height="386.4168"/>
  </clipPath>
 </defs>
</svg>
