<?xml version="1.0" encoding="UTF-8"?>
<!DOCTYPE svg PUBLIC "-//W3C//DTD SVG 1.1//EN" "http://www.w3.org/Graphics/SVG/1.1/DTD/svg11.dtd">
<svg version="1.2" width="304.8mm" height="304.8mm" viewBox="0 0 30480 30480" preserveAspectRatio="xMidYMid" fill-rule="evenodd" stroke-width="28.222" stroke-linejoin="round" xmlns="http://www.w3.org/2000/svg" xmlns:ooo="http://xml.openoffice.org/svg/export" xmlns:xlink="http://www.w3.org/1999/xlink" xmlns:presentation="http://sun.com/xmlns/staroffice/presentation" xmlns:smil="http://www.w3.org/2001/SMIL20/" xmlns:anim="urn:oasis:names:tc:opendocument:xmlns:animation:1.0" xml:space="preserve">
 <defs class="ClipPathGroup">
  <clipPath id="presentation_clip_path" clipPathUnits="userSpaceOnUse">
   <rect x="0" y="0" width="30480" height="30480"/>
  </clipPath>
  <clipPath id="presentation_clip_path_shrink" clipPathUnits="userSpaceOnUse">
   <rect x="30" y="30" width="30420" height="30420"/>
  </clipPath>
 </defs>
 <defs class="TextShapeIndex">
  <g ooo:slide="id1" ooo:id-list="id3 id4 id5 id6 id7 id8 id9 id10 id11 id12 id13 id14 id15 id16"/>
 </defs>
 <defs class="EmbeddedBulletChars">
  <g id="bullet-char-template-57356" transform="scale(0.00048828125,-0.00048828125)">
   <path d="M 580,1141 L 1163,571 580,0 -4,571 580,1141 Z"/>
  </g>
  <g id="bullet-char-template-57354" transform="scale(0.00048828125,-0.00048828125)">
   <path d="M 8,1128 L 1137,1128 1137,0 8,0 8,1128 Z"/>
  </g>
  <g id="bullet-char-template-10146" transform="scale(0.00048828125,-0.00048828125)">
   <path d="M 174,0 L 602,739 174,1481 1456,739 174,0 Z M 1358,739 L 309,1346 659,739 1358,739 Z"/>
  </g>
  <g id="bullet-char-template-10132" transform="scale(0.00048828125,-0.00048828125)">
   <path d="M 2015,739 L 1276,0 717,0 1260,543 174,543 174,936 1260,936 717,1481 1274,1481 2015,739 Z"/>
  </g>
  <g id="bullet-char-template-10007" transform="scale(0.00048828125,-0.00048828125)">
   <path d="M 0,-2 C -7,14 -16,27 -25,37 L 356,567 C 262,823 215,952 215,954 215,979 228,992 255,992 264,992 276,990 289,987 310,991 331,999 354,1012 L 381,999 492,748 772,1049 836,1024 860,1049 C 881,1039 901,1025 922,1006 886,937 835,863 770,784 769,783 710,716 594,584 L 774,223 C 774,196 753,168 711,139 L 727,119 C 717,90 699,76 672,76 641,76 570,178 457,381 L 164,-76 C 142,-110 111,-127 72,-127 30,-127 9,-110 8,-76 1,-67 -2,-52 -2,-32 -2,-23 -1,-13 0,-2 Z"/>
  </g>
  <g id="bullet-char-template-10004" transform="scale(0.00048828125,-0.00048828125)">
   <path d="M 285,-33 C 182,-33 111,30 74,156 52,228 41,333 41,471 41,549 55,616 82,672 116,743 169,778 240,778 293,778 328,747 346,684 L 369,508 C 377,444 397,411 428,410 L 1163,1116 C 1174,1127 1196,1133 1229,1133 1271,1133 1292,1118 1292,1087 L 1292,965 C 1292,929 1282,901 1262,881 L 442,47 C 390,-6 338,-33 285,-33 Z"/>
  </g>
  <g id="bullet-char-template-9679" transform="scale(0.00048828125,-0.00048828125)">
   <path d="M 813,0 C 632,0 489,54 383,161 276,268 223,411 223,592 223,773 276,916 383,1023 489,1130 632,1184 813,1184 992,1184 1136,1130 1245,1023 1353,916 1407,772 1407,592 1407,412 1353,268 1245,161 1136,54 992,0 813,0 Z"/>
  </g>
  <g id="bullet-char-template-8226" transform="scale(0.00048828125,-0.00048828125)">
   <path d="M 346,457 C 273,457 209,483 155,535 101,586 74,649 74,723 74,796 101,859 155,911 209,963 273,989 346,989 419,989 480,963 531,910 582,859 608,796 608,723 608,648 583,586 532,535 482,483 420,457 346,457 Z"/>
  </g>
  <g id="bullet-char-template-8211" transform="scale(0.00048828125,-0.00048828125)">
   <path d="M -4,459 L 1135,459 1135,606 -4,606 -4,459 Z"/>
  </g>
  <g id="bullet-char-template-61548" transform="scale(0.00048828125,-0.00048828125)">
   <path d="M 173,740 C 173,903 231,1043 346,1159 462,1274 601,1332 765,1332 928,1332 1067,1274 1183,1159 1299,1043 1357,903 1357,740 1357,577 1299,437 1183,322 1067,206 928,148 765,148 601,148 462,206 346,322 231,437 173,577 173,740 Z"/>
  </g>
 </defs>
 <g>
  <g id="id2" class="Master_Slide">
   <g id="bg-id2" class="Background"/>
   <g id="bo-id2" class="BackgroundObjects"/>
  </g>
 </g>
 <g class="SlideGroup">
  <g>
   <g id="container-id1">
    <g id="id1" class="Slide" clip-path="url(#presentation_clip_path)">
     <g class="Page">
      <g id="bg-id1" class="Background">
       <path fill="rgb(25,25,25)" stroke="none" d="M 15240,30479 L 0,30479 0,0 30479,0 30479,30479 15240,30479 Z"/>
      </g>
      <g class="com.sun.star.drawing.PolyPolygonShape">
       <g id="id3">
        <rect class="BoundingBox" stroke="none" fill="none" x="18670" y="11395" width="10034" height="6767"/>
        <path fill="rgb(129,212,26)" stroke="none" d="M 18671,17219 L 18762,12895 25507,11395 28702,14454 25391,17629 20889,18161 18671,17219 Z"/>
       </g>
      </g>
      <g class="com.sun.star.drawing.LineShape">
       <g id="id4">
        <rect class="BoundingBox" stroke="none" fill="none" x="10742" y="13282" width="7473" height="234"/>
        <path fill="none" stroke="rgb(236,46,215)" stroke-width="106" stroke-linejoin="round" d="M 10795,13462 L 10901,13460"/>
        <path fill="none" stroke="rgb(236,46,215)" stroke-width="106" stroke-linejoin="round" d="M 11007,13458 L 11113,13457"/>
        <path fill="none" stroke="rgb(236,46,215)" stroke-width="106" stroke-linejoin="round" d="M 11219,13455 L 11325,13453"/>
        <path fill="none" stroke="rgb(236,46,215)" stroke-width="106" stroke-linejoin="round" d="M 11431,13451 L 11537,13449"/>
        <path fill="none" stroke="rgb(236,46,215)" stroke-width="106" stroke-linejoin="round" d="M 11643,13447 L 11749,13446"/>
        <path fill="none" stroke="rgb(236,46,215)" stroke-width="106" stroke-linejoin="round" d="M 11855,13444 L 11961,13442"/>
        <path fill="none" stroke="rgb(236,46,215)" stroke-width="106" stroke-linejoin="round" d="M 12067,13440 L 12173,13438"/>
        <path fill="none" stroke="rgb(236,46,215)" stroke-width="106" stroke-linejoin="round" d="M 12279,13436 L 12385,13435"/>
        <path fill="none" stroke="rgb(236,46,215)" stroke-width="106" stroke-linejoin="round" d="M 12491,13433 L 12597,13431"/>
        <path fill="none" stroke="rgb(236,46,215)" stroke-width="106" stroke-linejoin="round" d="M 12703,13429 L 12809,13427"/>
        <path fill="none" stroke="rgb(236,46,215)" stroke-width="106" stroke-linejoin="round" d="M 12915,13425 L 13021,13424"/>
        <path fill="none" stroke="rgb(236,46,215)" stroke-width="106" stroke-linejoin="round" d="M 13127,13422 L 13233,13420"/>
        <path fill="none" stroke="rgb(236,46,215)" stroke-width="106" stroke-linejoin="round" d="M 13339,13418 L 13445,13416"/>
        <path fill="none" stroke="rgb(236,46,215)" stroke-width="106" stroke-linejoin="round" d="M 13551,13414 L 13657,13413"/>
        <path fill="none" stroke="rgb(236,46,215)" stroke-width="106" stroke-linejoin="round" d="M 13763,13411 L 13869,13409"/>
        <path fill="none" stroke="rgb(236,46,215)" stroke-width="106" stroke-linejoin="round" d="M 13975,13407 L 14081,13405"/>
        <path fill="none" stroke="rgb(236,46,215)" stroke-width="106" stroke-linejoin="round" d="M 14186,13404 L 14292,13402"/>
        <path fill="none" stroke="rgb(236,46,215)" stroke-width="106" stroke-linejoin="round" d="M 14398,13400 L 14504,13398"/>
        <path fill="none" stroke="rgb(236,46,215)" stroke-width="106" stroke-linejoin="round" d="M 14610,13396 L 14716,13394"/>
        <path fill="none" stroke="rgb(236,46,215)" stroke-width="106" stroke-linejoin="round" d="M 14822,13393 L 14928,13391"/>
        <path fill="none" stroke="rgb(236,46,215)" stroke-width="106" stroke-linejoin="round" d="M 15034,13389 L 15140,13387"/>
        <path fill="none" stroke="rgb(236,46,215)" stroke-width="106" stroke-linejoin="round" d="M 15246,13385 L 15352,13383"/>
        <path fill="none" stroke="rgb(236,46,215)" stroke-width="106" stroke-linejoin="round" d="M 15458,13382 L 15564,13380"/>
        <path fill="none" stroke="rgb(236,46,215)" stroke-width="106" stroke-linejoin="round" d="M 15670,13378 L 15776,13376"/>
        <path fill="none" stroke="rgb(236,46,215)" stroke-width="106" stroke-linejoin="round" d="M 15882,13374 L 15988,13372"/>
        <path fill="none" stroke="rgb(236,46,215)" stroke-width="106" stroke-linejoin="round" d="M 16094,13371 L 16200,13369"/>
        <path fill="none" stroke="rgb(236,46,215)" stroke-width="106" stroke-linejoin="round" d="M 16306,13367 L 16412,13365"/>
        <path fill="none" stroke="rgb(236,46,215)" stroke-width="106" stroke-linejoin="round" d="M 16518,13363 L 16624,13361"/>
        <path fill="none" stroke="rgb(236,46,215)" stroke-width="106" stroke-linejoin="round" d="M 16730,13360 L 16836,13358"/>
        <path fill="none" stroke="rgb(236,46,215)" stroke-width="106" stroke-linejoin="round" d="M 16942,13356 L 17048,13354"/>
        <path fill="none" stroke="rgb(236,46,215)" stroke-width="106" stroke-linejoin="round" d="M 17154,13352 L 17260,13351"/>
        <path fill="none" stroke="rgb(236,46,215)" stroke-width="106" stroke-linejoin="round" d="M 17366,13349 L 17472,13347"/>
        <path fill="none" stroke="rgb(236,46,215)" stroke-width="106" stroke-linejoin="round" d="M 17578,13345 L 17684,13343"/>
        <path fill="none" stroke="rgb(236,46,215)" stroke-width="106" stroke-linejoin="round" d="M 17790,13341 L 17896,13340"/>
        <path fill="none" stroke="rgb(236,46,215)" stroke-width="106" stroke-linejoin="round" d="M 18002,13338 L 18108,13336"/>
       </g>
      </g>
      <g class="com.sun.star.drawing.CustomShape">
       <g id="id5">
        <rect class="BoundingBox" stroke="none" fill="none" x="18114" y="12907" width="1145" height="1145"/>
        <path fill="rgb(89,131,176)" stroke="none" d="M 19258,13479 C 19258,13579 19232,13678 19181,13765 19131,13852 19059,13924 18972,13974 18885,14025 18786,14051 18686,14051 18586,14051 18487,14025 18400,13974 18313,13924 18241,13852 18191,13765 18140,13678 18114,13579 18114,13479 18114,13379 18140,13280 18191,13193 18241,13106 18313,13034 18400,12984 18487,12933 18586,12907 18686,12907 18786,12907 18885,12933 18972,12984 19059,13034 19131,13106 19181,13193 19232,13280 19258,13379 19258,13479 L 19258,13479 Z"/>
       </g>
      </g>
      <g class="Graphic">
       <title>TexMaths
       </title>
       <desc>14§display§\textcolor{mydarkgreen}{\mathcal{B}}§svg§600§TRUE§
       </desc>
       <g id="id6">
        <rect class="BoundingBox" stroke="none" fill="none" x="22433" y="13924" width="1922" height="2080"/>
        <path fill="rgb(34,75,18)" stroke="none" d="M 23257,14091 C 23262,14063 23262,14058 23262,14050 23262,14032 23257,14024 23234,14024 23205,14024 23128,14063 23076,14089 22956,14148 22858,14197 22858,14244 22858,14260 22876,14260 22886,14260 22917,14260 22985,14223 23034,14200 23003,14454 22941,14785 22894,15007 22798,15447 22749,15605 22621,15856 22609,15880 22609,15885 22609,15887 22609,15906 22629,15906 22634,15906 22676,15906 22785,15859 22827,15787 22860,15727 22959,15538 23037,15238 23094,15015 23192,14676 23377,14410 23496,14241 23605,14164 23768,14164 23909,14164 24036,14254 24036,14392 24036,14619 23789,14702 23519,14793 23488,14803 23309,14865 23309,14930 23309,14945 23327,14948 23335,14948 23345,14948 23405,14938 23460,14938 23722,14938 23935,15093 23935,15339 23935,15660 23659,15763 23423,15763 23224,15763 23128,15655 23094,15618 23083,15605 23081,15600 23060,15600 23003,15600 22871,15680 22871,15727 22871,15735 22972,15906 23252,15906 23618,15906 24155,15647 24155,15230 24155,15013 24010,14850 23745,14800 23953,14712 24256,14526 24256,14283 24256,14133 24132,14021 23940,14021 23852,14021 23519,14045 23205,14433 L 23257,14091 23257,14091 Z"/>
       </g>
      </g>
      <g class="Graphic">
       <title>TexMaths
       </title>
       <desc>14§display§\textcolor{white}{a^*}§svg§600§TRUE§
       </desc>
       <g id="id7">
        <rect class="BoundingBox" stroke="none" fill="none" x="11049" y="10566" width="1906" height="1627"/>
        <defs>
         <clipPath id="clip_path_1" clipPathUnits="userSpaceOnUse">
          <path d="M 11049,10566 L 12954,10566 12954,12192 11049,12192 11049,10566 Z"/>
         </clipPath>
        </defs>
        <g clip-path="url(#clip_path_1)">
         <path fill="rgb(255,255,255)" stroke="none" d="M 11861,11348 C 11822,11268 11759,11209 11661,11209 11406,11209 11136,11528 11136,11845 11136,12049 11256,12192 11426,12192 11469,12192 11578,12183 11709,12029 11726,12120 11802,12192 11907,12192 11983,12192 12033,12142 12068,12073 12105,11995 12133,11862 12133,11858 12133,11836 12114,11836 12107,11836 12085,11836 12083,11845 12077,11875 12039,12016 12000,12144 11911,12144 11852,12144 11846,12088 11846,12044 11846,11997 11850,11979 11874,11884 11898,11793 11902,11771 11922,11689 L 12000,11385 C 12016,11324 12016,11320 12016,11311 12016,11274 11989,11252 11952,11252 11900,11252 11868,11300 11861,11348 L 11861,11348 Z M 11719,11910 C 11709,11949 11709,11953 11676,11990 11580,12110 11491,12144 11430,12144 11321,12144 11291,12025 11291,11940 11291,11832 11360,11565 11410,11465 11478,11337 11576,11257 11663,11257 11804,11257 11835,11435 11835,11448 11835,11461 11831,11474 11828,11485 L 11719,11910 11719,11910 Z"/>
         <path fill="rgb(255,255,255)" stroke="none" d="M 12692,10894 C 12817,10839 12873,10818 12911,10800 12940,10788 12954,10782 12954,10753 12954,10727 12934,10704 12907,10704 12896,10704 12893,10704 12875,10718 L 12668,10856 12690,10631 C 12693,10604 12690,10566 12645,10566 12626,10566 12597,10578 12597,10612 12597,10625 12604,10671 12605,10686 12608,10712 12619,10821 12622,10856 L 12416,10718 C 12401,10709 12396,10704 12383,10704 12355,10704 12335,10727 12335,10753 12335,10783 12354,10791 12367,10797 L 12597,10893 C 12472,10947 12416,10968 12378,10987 12349,10999 12335,11005 12335,11034 12335,11060 12355,11082 12383,11082 12393,11082 12396,11082 12415,11069 L 12622,10931 12597,11175 C 12597,11208 12626,11221 12645,11221 12663,11221 12692,11208 12692,11175 12692,11161 12686,11116 12684,11101 12681,11075 12671,10965 12668,10931 L 12850,11052 C 12890,11082 12893,11082 12907,11082 12934,11082 12954,11060 12954,11034 12954,11003 12936,10996 12922,10990 L 12692,10894 12692,10894 Z"/>
        </g>
       </g>
      </g>
      <g class="Graphic">
       <title>TexMaths
       </title>
       <desc>14§display§\textcolor{white}{b^*}§svg§600§TRUE§
       </desc>
       <g id="id8">
        <rect class="BoundingBox" stroke="none" fill="none" x="18542" y="10668" width="1652" height="1591"/>
        <defs>
         <clipPath id="clip_path_2" clipPathUnits="userSpaceOnUse">
          <path d="M 18542,10668 L 20193,10668 20193,12258 18542,12258 18542,10668 Z"/>
         </clipPath>
        </defs>
        <g clip-path="url(#clip_path_2)">
         <path fill="rgb(255,255,255)" stroke="none" d="M 19051,10786 C 19051,10783 19051,10762 19023,10762 18974,10762 18819,10779 18763,10783 18746,10786 18723,10788 18723,10826 18723,10851 18742,10851 18774,10851 18876,10851 18880,10866 18880,10887 18880,10902 18861,10974 18851,11019 L 18676,11711 C 18651,11817 18642,11851 18642,11925 18642,12126 18755,12258 18912,12258 19164,12258 19425,11942 19425,11636 19425,11443 19313,11297 19142,11297 19044,11297 18957,11358 18893,11424 L 19051,10786 19051,10786 Z M 18851,11588 C 18863,11541 18863,11537 18883,11513 18987,11375 19083,11344 19138,11344 19215,11344 19272,11407 19272,11543 19272,11668 19202,11912 19164,11993 19093,12135 18995,12211 18912,12211 18840,12211 18770,12154 18770,11997 18770,11957 18770,11916 18804,11783 L 18851,11588 18851,11588 Z"/>
         <path fill="rgb(255,255,255)" stroke="none" d="M 19937,10989 C 20059,10935 20114,10915 20151,10897 20180,10885 20193,10879 20193,10851 20193,10825 20174,10803 20147,10803 20136,10803 20133,10803 20116,10817 L 19913,10952 19935,10732 C 19938,10705 19935,10668 19891,10668 19873,10668 19844,10680 19844,10713 19844,10726 19850,10770 19852,10785 19855,10811 19865,10918 19868,10952 L 19667,10817 C 19652,10808 19648,10803 19634,10803 19607,10803 19588,10825 19588,10851 19588,10880 19606,10888 19619,10894 L 19844,10987 C 19722,11041 19667,11062 19630,11079 19601,11091 19588,11097 19588,11125 19588,11151 19607,11173 19634,11173 19645,11173 19648,11173 19666,11160 L 19868,11024 19844,11264 C 19844,11296 19873,11308 19891,11308 19908,11308 19937,11296 19937,11264 19937,11250 19931,11206 19929,11191 19926,11166 19916,11059 19913,11024 L 20092,11143 C 20130,11173 20133,11173 20147,11173 20174,11173 20193,11151 20193,11125 20193,11096 20175,11088 20162,11082 L 19937,10989 19937,10989 Z"/>
        </g>
       </g>
      </g>
      <g class="com.sun.star.drawing.CustomShape">
       <g id="id9">
        <rect class="BoundingBox" stroke="none" fill="none" x="3682" y="9905" width="6732" height="12828"/>
        <path fill="rgb(89,131,176)" stroke="none" d="M 7048,22732 L 3682,22732 3682,9905 10413,9905 10413,22732 7048,22732 Z"/>
       </g>
      </g>
      <g class="Graphic">
       <title>TexMaths
       </title>
       <desc>14§display§\textcolor{mydarkblue}{\mathcal{A}}§svg§600§TRUE§
       </desc>
       <g id="id10">
        <rect class="BoundingBox" stroke="none" fill="none" x="6096" y="14859" width="2496" height="2414"/>
        <defs>
         <clipPath id="clip_path_3" clipPathUnits="userSpaceOnUse">
          <path d="M 6096,14859 L 8591,14859 8591,17272 6096,17272 6096,14859 Z"/>
         </clipPath>
        </defs>
        <g clip-path="url(#clip_path_3)">
         <path fill="rgb(8,69,148)" stroke="none" d="M 7956,16600 C 7972,16797 8009,16941 8025,17000 8059,17141 8075,17209 8210,17209 8350,17209 8591,17069 8591,17006 8591,16991 8578,16984 8563,16984 8522,16984 8457,17019 8447,17025 8425,17038 8419,17038 8413,17038 8325,17038 8306,16953 8269,16766 8247,16662 8219,16537 8194,16109 8172,15790 8160,15472 8160,15153 8160,15078 8163,14997 8163,14922 8163,14872 8163,14859 8128,14859 8084,14859 7956,14912 7900,14997 L 7878,15031 C 7631,15559 7400,15937 7237,16191 7053,16475 6728,16984 6559,16984 6443,16984 6346,16909 6318,16797 6315,16791 6309,16772 6296,16772 6249,16772 6180,16922 6180,17009 6180,17134 6315,17272 6462,17272 6678,17272 7037,16709 7106,16600 L 7956,16600 7956,16600 Z M 7894,15243 L 7894,15425 C 7894,15606 7900,15787 7909,15969 7913,16031 7925,16266 7941,16428 L 7369,16428 C 7318,16428 7272,16428 7190,16478 7409,16141 7590,15815 7609,15781 7766,15503 7850,15322 7891,15243 L 7894,15243 7894,15243 Z"/>
        </g>
       </g>
      </g>
      <g class="com.sun.star.drawing.CustomShape">
       <g id="id11">
        <rect class="BoundingBox" stroke="none" fill="none" x="9778" y="12826" width="1145" height="1145"/>
        <path fill="rgb(129,212,26)" stroke="none" d="M 10922,13398 C 10922,13498 10896,13597 10845,13684 10795,13771 10723,13843 10636,13893 10549,13944 10450,13970 10350,13970 10250,13970 10151,13944 10064,13893 9977,13843 9905,13771 9855,13684 9804,13597 9778,13498 9778,13398 9778,13298 9804,13199 9855,13112 9905,13025 9977,12953 10064,12903 10151,12852 10250,12826 10350,12826 10450,12826 10549,12852 10636,12903 10723,12953 10795,13025 10845,13112 10896,13199 10922,13298 10922,13398 L 10922,13398 Z"/>
       </g>
      </g>
      <g class="com.sun.star.drawing.CustomShape">
       <g id="id12">
        <rect class="BoundingBox" stroke="none" fill="none" x="9651" y="16382" width="1145" height="1145"/>
        <path fill="rgb(129,212,26)" stroke="none" d="M 10795,16954 C 10795,17054 10769,17153 10718,17240 10668,17327 10596,17399 10509,17449 10422,17500 10323,17526 10223,17526 10123,17526 10024,17500 9937,17449 9850,17399 9778,17327 9728,17240 9677,17153 9651,17054 9651,16954 9651,16854 9677,16755 9728,16668 9778,16581 9850,16509 9937,16459 10024,16408 10123,16382 10223,16382 10323,16382 10422,16408 10509,16459 10596,16509 10668,16581 10718,16668 10769,16755 10795,16854 10795,16954 L 10795,16954 Z"/>
       </g>
      </g>
      <g class="com.sun.star.drawing.LineShape">
       <g id="id13">
        <rect class="BoundingBox" stroke="none" fill="none" x="10742" y="16838" width="7473" height="234"/>
        <path fill="none" stroke="rgb(236,46,215)" stroke-width="106" stroke-linejoin="round" d="M 10795,17018 L 10901,17016"/>
        <path fill="none" stroke="rgb(236,46,215)" stroke-width="106" stroke-linejoin="round" d="M 11007,17014 L 11113,17013"/>
        <path fill="none" stroke="rgb(236,46,215)" stroke-width="106" stroke-linejoin="round" d="M 11219,17011 L 11325,17009"/>
        <path fill="none" stroke="rgb(236,46,215)" stroke-width="106" stroke-linejoin="round" d="M 11431,17007 L 11537,17005"/>
        <path fill="none" stroke="rgb(236,46,215)" stroke-width="106" stroke-linejoin="round" d="M 11643,17003 L 11749,17002"/>
        <path fill="none" stroke="rgb(236,46,215)" stroke-width="106" stroke-linejoin="round" d="M 11855,17000 L 11961,16998"/>
        <path fill="none" stroke="rgb(236,46,215)" stroke-width="106" stroke-linejoin="round" d="M 12067,16996 L 12173,16994"/>
        <path fill="none" stroke="rgb(236,46,215)" stroke-width="106" stroke-linejoin="round" d="M 12279,16992 L 12385,16991"/>
        <path fill="none" stroke="rgb(236,46,215)" stroke-width="106" stroke-linejoin="round" d="M 12491,16989 L 12597,16987"/>
        <path fill="none" stroke="rgb(236,46,215)" stroke-width="106" stroke-linejoin="round" d="M 12703,16985 L 12809,16983"/>
        <path fill="none" stroke="rgb(236,46,215)" stroke-width="106" stroke-linejoin="round" d="M 12915,16981 L 13021,16980"/>
        <path fill="none" stroke="rgb(236,46,215)" stroke-width="106" stroke-linejoin="round" d="M 13127,16978 L 13233,16976"/>
        <path fill="none" stroke="rgb(236,46,215)" stroke-width="106" stroke-linejoin="round" d="M 13339,16974 L 13445,16972"/>
        <path fill="none" stroke="rgb(236,46,215)" stroke-width="106" stroke-linejoin="round" d="M 13551,16970 L 13657,16969"/>
        <path fill="none" stroke="rgb(236,46,215)" stroke-width="106" stroke-linejoin="round" d="M 13763,16967 L 13869,16965"/>
        <path fill="none" stroke="rgb(236,46,215)" stroke-width="106" stroke-linejoin="round" d="M 13975,16963 L 14081,16961"/>
        <path fill="none" stroke="rgb(236,46,215)" stroke-width="106" stroke-linejoin="round" d="M 14186,16960 L 14292,16958"/>
        <path fill="none" stroke="rgb(236,46,215)" stroke-width="106" stroke-linejoin="round" d="M 14398,16956 L 14504,16954"/>
        <path fill="none" stroke="rgb(236,46,215)" stroke-width="106" stroke-linejoin="round" d="M 14610,16952 L 14716,16950"/>
        <path fill="none" stroke="rgb(236,46,215)" stroke-width="106" stroke-linejoin="round" d="M 14822,16949 L 14928,16947"/>
        <path fill="none" stroke="rgb(236,46,215)" stroke-width="106" stroke-linejoin="round" d="M 15034,16945 L 15140,16943"/>
        <path fill="none" stroke="rgb(236,46,215)" stroke-width="106" stroke-linejoin="round" d="M 15246,16941 L 15352,16939"/>
        <path fill="none" stroke="rgb(236,46,215)" stroke-width="106" stroke-linejoin="round" d="M 15458,16938 L 15564,16936"/>
        <path fill="none" stroke="rgb(236,46,215)" stroke-width="106" stroke-linejoin="round" d="M 15670,16934 L 15776,16932"/>
        <path fill="none" stroke="rgb(236,46,215)" stroke-width="106" stroke-linejoin="round" d="M 15882,16930 L 15988,16928"/>
        <path fill="none" stroke="rgb(236,46,215)" stroke-width="106" stroke-linejoin="round" d="M 16094,16927 L 16200,16925"/>
        <path fill="none" stroke="rgb(236,46,215)" stroke-width="106" stroke-linejoin="round" d="M 16306,16923 L 16412,16921"/>
        <path fill="none" stroke="rgb(236,46,215)" stroke-width="106" stroke-linejoin="round" d="M 16518,16919 L 16624,16917"/>
        <path fill="none" stroke="rgb(236,46,215)" stroke-width="106" stroke-linejoin="round" d="M 16730,16916 L 16836,16914"/>
        <path fill="none" stroke="rgb(236,46,215)" stroke-width="106" stroke-linejoin="round" d="M 16942,16912 L 17048,16910"/>
        <path fill="none" stroke="rgb(236,46,215)" stroke-width="106" stroke-linejoin="round" d="M 17154,16908 L 17260,16907"/>
        <path fill="none" stroke="rgb(236,46,215)" stroke-width="106" stroke-linejoin="round" d="M 17366,16905 L 17472,16903"/>
        <path fill="none" stroke="rgb(236,46,215)" stroke-width="106" stroke-linejoin="round" d="M 17578,16901 L 17684,16899"/>
        <path fill="none" stroke="rgb(236,46,215)" stroke-width="106" stroke-linejoin="round" d="M 17790,16897 L 17896,16896"/>
        <path fill="none" stroke="rgb(236,46,215)" stroke-width="106" stroke-linejoin="round" d="M 18002,16894 L 18108,16892"/>
       </g>
      </g>
      <g class="com.sun.star.drawing.CustomShape">
       <g id="id14">
        <rect class="BoundingBox" stroke="none" fill="none" x="18033" y="16382" width="1145" height="1145"/>
        <path fill="rgb(89,131,176)" stroke="none" d="M 19177,16954 C 19177,17054 19151,17153 19100,17240 19050,17327 18978,17399 18891,17449 18804,17500 18705,17526 18605,17526 18505,17526 18406,17500 18319,17449 18232,17399 18160,17327 18110,17240 18059,17153 18033,17054 18033,16954 18033,16854 18059,16755 18110,16668 18160,16581 18232,16509 18319,16459 18406,16408 18505,16382 18605,16382 18705,16382 18804,16408 18891,16459 18978,16509 19050,16581 19100,16668 19151,16755 19177,16854 19177,16954 L 19177,16954 Z"/>
       </g>
      </g>
      <g class="Graphic">
       <title>TexMaths
       </title>
       <desc>14§display§\textcolor{white}{a^*}§svg§600§TRUE§
       </desc>
       <g id="id15">
        <rect class="BoundingBox" stroke="none" fill="none" x="10922" y="17678" width="1906" height="1627"/>
        <defs>
         <clipPath id="clip_path_4" clipPathUnits="userSpaceOnUse">
          <path d="M 10922,17678 L 12827,17678 12827,19304 10922,19304 10922,17678 Z"/>
         </clipPath>
        </defs>
        <g clip-path="url(#clip_path_4)">
         <path fill="rgb(255,255,255)" stroke="none" d="M 11734,18460 C 11695,18380 11632,18321 11534,18321 11279,18321 11009,18640 11009,18957 11009,19161 11129,19304 11299,19304 11342,19304 11451,19295 11582,19141 11599,19232 11675,19304 11780,19304 11856,19304 11906,19254 11941,19185 11978,19107 12006,18974 12006,18970 12006,18948 11987,18948 11980,18948 11958,18948 11956,18957 11950,18987 11912,19128 11873,19256 11784,19256 11725,19256 11719,19200 11719,19156 11719,19109 11723,19091 11747,18996 11771,18905 11775,18883 11795,18801 L 11873,18497 C 11889,18436 11889,18432 11889,18423 11889,18386 11862,18364 11825,18364 11773,18364 11741,18412 11734,18460 L 11734,18460 Z M 11592,19022 C 11582,19061 11582,19065 11549,19102 11453,19222 11364,19256 11303,19256 11194,19256 11164,19137 11164,19052 11164,18944 11233,18677 11283,18577 11351,18449 11449,18369 11536,18369 11677,18369 11708,18547 11708,18560 11708,18573 11704,18586 11701,18597 L 11592,19022 11592,19022 Z"/>
         <path fill="rgb(255,255,255)" stroke="none" d="M 12565,18006 C 12690,17951 12746,17930 12784,17912 12813,17900 12827,17894 12827,17865 12827,17839 12807,17816 12780,17816 12769,17816 12766,17816 12748,17830 L 12541,17968 12563,17743 C 12566,17716 12563,17678 12518,17678 12499,17678 12470,17690 12470,17724 12470,17737 12477,17783 12478,17798 12481,17824 12492,17933 12495,17968 L 12289,17830 C 12274,17821 12269,17816 12256,17816 12228,17816 12208,17839 12208,17865 12208,17895 12227,17903 12240,17909 L 12470,18005 C 12345,18059 12289,18080 12251,18099 12222,18111 12208,18117 12208,18146 12208,18172 12228,18194 12256,18194 12266,18194 12269,18194 12288,18181 L 12495,18043 12470,18287 C 12470,18320 12499,18333 12518,18333 12536,18333 12565,18320 12565,18287 12565,18273 12559,18228 12557,18213 12554,18187 12544,18077 12541,18043 L 12723,18164 C 12763,18194 12766,18194 12780,18194 12807,18194 12827,18172 12827,18146 12827,18115 12809,18108 12795,18102 L 12565,18006 12565,18006 Z"/>
        </g>
       </g>
      </g>
      <g class="Graphic">
       <title>TexMaths
       </title>
       <desc>14§display§\textcolor{white}{b^*}§svg§600§TRUE§
       </desc>
       <g id="id16">
        <rect class="BoundingBox" stroke="none" fill="none" x="17907" y="17841" width="1652" height="1591"/>
        <defs>
         <clipPath id="clip_path_5" clipPathUnits="userSpaceOnUse">
          <path d="M 17907,17841 L 19558,17841 19558,19431 17907,19431 17907,17841 Z"/>
         </clipPath>
        </defs>
        <g clip-path="url(#clip_path_5)">
         <path fill="rgb(255,255,255)" stroke="none" d="M 18416,17959 C 18416,17956 18416,17935 18388,17935 18339,17935 18184,17952 18128,17956 18111,17959 18088,17961 18088,17999 18088,18024 18107,18024 18139,18024 18241,18024 18245,18039 18245,18060 18245,18075 18226,18147 18216,18192 L 18041,18884 C 18016,18990 18007,19024 18007,19098 18007,19299 18120,19431 18277,19431 18529,19431 18790,19115 18790,18809 18790,18616 18678,18470 18507,18470 18409,18470 18322,18531 18258,18597 L 18416,17959 18416,17959 Z M 18216,18761 C 18228,18714 18228,18710 18248,18686 18352,18548 18448,18517 18503,18517 18580,18517 18637,18580 18637,18716 18637,18841 18567,19085 18529,19166 18458,19308 18360,19384 18277,19384 18205,19384 18135,19327 18135,19170 18135,19130 18135,19089 18169,18956 L 18216,18761 18216,18761 Z"/>
         <path fill="rgb(255,255,255)" stroke="none" d="M 19302,18162 C 19424,18108 19479,18088 19516,18070 19545,18058 19558,18052 19558,18024 19558,17998 19539,17976 19512,17976 19501,17976 19498,17976 19481,17990 L 19278,18125 19300,17905 C 19303,17878 19300,17841 19256,17841 19238,17841 19209,17853 19209,17886 19209,17899 19215,17943 19217,17958 19220,17984 19230,18091 19233,18125 L 19032,17990 C 19017,17981 19013,17976 18999,17976 18972,17976 18953,17998 18953,18024 18953,18053 18971,18061 18984,18067 L 19209,18160 C 19087,18214 19032,18235 18995,18252 18966,18264 18953,18270 18953,18298 18953,18324 18972,18346 18999,18346 19010,18346 19013,18346 19031,18333 L 19233,18197 19209,18437 C 19209,18469 19238,18481 19256,18481 19273,18481 19302,18469 19302,18437 19302,18423 19296,18379 19294,18364 19291,18339 19281,18232 19278,18197 L 19457,18316 C 19495,18346 19498,18346 19512,18346 19539,18346 19558,18324 19558,18298 19558,18269 19540,18261 19527,18255 L 19302,18162 19302,18162 Z"/>
        </g>
       </g>
      </g>
     </g>
    </g>
   </g>
  </g>
 </g>
</svg>