<?xml version="1.0" encoding="UTF-8"?>
<!DOCTYPE svg PUBLIC "-//W3C//DTD SVG 1.1//EN" "http://www.w3.org/Graphics/SVG/1.1/DTD/svg11.dtd">
<svg version="1.2" width="1930.66mm" height="1930.66mm" viewBox="0 0 193066 193066" preserveAspectRatio="xMidYMid" fill-rule="evenodd" stroke-width="28.222" stroke-linejoin="round" xmlns="http://www.w3.org/2000/svg" xmlns:ooo="http://xml.openoffice.org/svg/export" xmlns:xlink="http://www.w3.org/1999/xlink" xmlns:presentation="http://sun.com/xmlns/staroffice/presentation" xmlns:smil="http://www.w3.org/2001/SMIL20/" xmlns:anim="urn:oasis:names:tc:opendocument:xmlns:animation:1.0" xml:space="preserve">
 <defs class="ClipPathGroup">
  <clipPath id="presentation_clip_path" clipPathUnits="userSpaceOnUse">
   <rect x="0" y="0" width="193066" height="193066"/>
  </clipPath>
  <clipPath id="presentation_clip_path_shrink" clipPathUnits="userSpaceOnUse">
   <rect x="193" y="193" width="192680" height="192680"/>
  </clipPath>
 </defs>
 <defs class="TextShapeIndex">
  <g ooo:slide="id1" ooo:id-list="id3 id4 id5 id6 id7 id8 id9 id10 id11 id12 id13 id14 id15 id16 id17 id18 id19 id20 id21 id22 id23 id24 id25 id26 id27 id28 id29 id30 id31 id32"/>
 </defs>
 <defs class="EmbeddedBulletChars">
  <g id="bullet-char-template-57356" transform="scale(0.00048828125,-0.00048828125)">
   <path d="M 580,1141 L 1163,571 580,0 -4,571 580,1141 Z"/>
  </g>
  <g id="bullet-char-template-57354" transform="scale(0.00048828125,-0.00048828125)">
   <path d="M 8,1128 L 1137,1128 1137,0 8,0 8,1128 Z"/>
  </g>
  <g id="bullet-char-template-10146" transform="scale(0.00048828125,-0.00048828125)">
   <path d="M 174,0 L 602,739 174,1481 1456,739 174,0 Z M 1358,739 L 309,1346 659,739 1358,739 Z"/>
  </g>
  <g id="bullet-char-template-10132" transform="scale(0.00048828125,-0.00048828125)">
   <path d="M 2015,739 L 1276,0 717,0 1260,543 174,543 174,936 1260,936 717,1481 1274,1481 2015,739 Z"/>
  </g>
  <g id="bullet-char-template-10007" transform="scale(0.00048828125,-0.00048828125)">
   <path d="M 0,-2 C -7,14 -16,27 -25,37 L 356,567 C 262,823 215,952 215,954 215,979 228,992 255,992 264,992 276,990 289,987 310,991 331,999 354,1012 L 381,999 492,748 772,1049 836,1024 860,1049 C 881,1039 901,1025 922,1006 886,937 835,863 770,784 769,783 710,716 594,584 L 774,223 C 774,196 753,168 711,139 L 727,119 C 717,90 699,76 672,76 641,76 570,178 457,381 L 164,-76 C 142,-110 111,-127 72,-127 30,-127 9,-110 8,-76 1,-67 -2,-52 -2,-32 -2,-23 -1,-13 0,-2 Z"/>
  </g>
  <g id="bullet-char-template-10004" transform="scale(0.00048828125,-0.00048828125)">
   <path d="M 285,-33 C 182,-33 111,30 74,156 52,228 41,333 41,471 41,549 55,616 82,672 116,743 169,778 240,778 293,778 328,747 346,684 L 369,508 C 377,444 397,411 428,410 L 1163,1116 C 1174,1127 1196,1133 1229,1133 1271,1133 1292,1118 1292,1087 L 1292,965 C 1292,929 1282,901 1262,881 L 442,47 C 390,-6 338,-33 285,-33 Z"/>
  </g>
  <g id="bullet-char-template-9679" transform="scale(0.00048828125,-0.00048828125)">
   <path d="M 813,0 C 632,0 489,54 383,161 276,268 223,411 223,592 223,773 276,916 383,1023 489,1130 632,1184 813,1184 992,1184 1136,1130 1245,1023 1353,916 1407,772 1407,592 1407,412 1353,268 1245,161 1136,54 992,0 813,0 Z"/>
  </g>
  <g id="bullet-char-template-8226" transform="scale(0.00048828125,-0.00048828125)">
   <path d="M 346,457 C 273,457 209,483 155,535 101,586 74,649 74,723 74,796 101,859 155,911 209,963 273,989 346,989 419,989 480,963 531,910 582,859 608,796 608,723 608,648 583,586 532,535 482,483 420,457 346,457 Z"/>
  </g>
  <g id="bullet-char-template-8211" transform="scale(0.00048828125,-0.00048828125)">
   <path d="M -4,459 L 1135,459 1135,606 -4,606 -4,459 Z"/>
  </g>
  <g id="bullet-char-template-61548" transform="scale(0.00048828125,-0.00048828125)">
   <path d="M 173,740 C 173,903 231,1043 346,1159 462,1274 601,1332 765,1332 928,1332 1067,1274 1183,1159 1299,1043 1357,903 1357,740 1357,577 1299,437 1183,322 1067,206 928,148 765,148 601,148 462,206 346,322 231,437 173,577 173,740 Z"/>
  </g>
 </defs>
 <defs class="TextEmbeddedBitmaps"/>
 <g>
  <g id="id2" class="Master_Slide">
   <g id="bg-id2" class="Background"/>
   <g id="bo-id2" class="BackgroundObjects"/>
  </g>
 </g>
 <g class="SlideGroup">
  <g>
   <g id="container-id1">
    <g id="id1" class="Slide" clip-path="url(#presentation_clip_path)">
     <g class="Page">
      <g class="com.sun.star.drawing.ClosedBezierShape">
       <g id="id3">
        <rect class="BoundingBox" stroke="none" fill="none" x="36339" y="36339" width="120413" height="120413"/>
        <path fill="rgb(255,255,255)" stroke="none" d="M 96533,36340 C 63275,36340 36340,63275 36340,96533 36340,129790 63275,156750 96533,156750 129790,156750 156750,129790 156750,96533 156750,63275 129789,36340 96533,36340 Z M 96533,40071 C 65338,40071 40071,65338 40071,96533 40071,127727 65338,152993 96533,152993 127727,152993 152993,127727 152993,96533 152993,65338 127726,40071 96533,40071 Z"/>
       </g>
      </g>
      <g class="com.sun.star.drawing.ClosedBezierShape">
       <g id="id4">
        <rect class="BoundingBox" stroke="none" fill="none" x="53669" y="68512" width="85727" height="57919"/>
        <path fill="rgb(255,255,255)" stroke="none" d="M 54199,68513 L 55708,68513 C 55999,68513 56237,68751 56237,69042 L 56237,121005 77033,121005 C 77192,121005 77350,121085 77456,121190 L 78118,121852 78832,122540 C 79044,122752 79044,123095 78858,123307 78753,123413 78620,123466 78462,123466 L 54199,123466 C 53908,123466 53670,123228 53670,122937 L 53670,69042 C 53670,68751 53908,68513 54199,68513 Z M 55178,69572 L 54729,69572 54729,122408 77165,122408 76821,122064 55708,122064 C 55417,122064 55178,121825 55178,121534 L 55178,69572 Z M 89177,121005 L 90870,121005 96136,114629 C 96321,114391 96637,114364 96875,114549 96902,114576 96928,114602 96955,114629 L 102194,121005 136827,121005 136827,69042 C 136827,68751 137065,68513 137356,68513 L 138865,68513 C 139156,68513 139394,68751 139394,69042 L 139394,122937 C 139394,123228 139156,123466 138865,123466 L 105025,123466 C 104390,124313 103278,125053 101850,125583 100341,126112 98516,126429 96533,126429 94786,126429 93172,126191 91796,125768 90341,125318 89151,124656 88410,123889 88278,123730 88225,123545 88278,123387 L 88674,121693 C 88622,121534 88648,121323 88780,121190 88886,121058 89045,121005 89177,121005 Z M 91135,122064 L 89680,122064 89362,123334 C 89997,123916 90950,124392 92088,124762 93384,125133 94892,125371 96533,125371 98410,125371 100103,125080 101479,124577 102829,124101 103807,123439 104284,122672 104363,122513 104548,122408 104734,122408 L 138335,122408 138335,69572 137886,69572 137886,121534 C 137886,121825 137647,122064 137356,122064 L 101955,122064 C 101797,122064 101638,121984 101532,121878 L 96533,115793 91558,121825 C 91453,121958 91294,122064 91135,122064 Z"/>
       </g>
      </g>
      <g class="com.sun.star.drawing.ClosedBezierShape">
       <g id="id5">
        <rect class="BoundingBox" stroke="none" fill="none" x="55177" y="68036" width="82711" height="54030"/>
        <path fill="rgb(255,255,255)" stroke="none" d="M 55708,68037 L 57586,68037 C 57877,68037 58115,68275 58115,68566 L 58115,119365 75445,119365 C 75604,119365 75736,119444 75842,119550 L 76610,120344 77403,121164 C 77615,121376 77615,121693 77430,121905 77324,122011 77192,122064 77033,122064 L 55708,122064 C 55417,122064 55178,121825 55178,121534 L 55178,68566 C 55178,68275 55417,68037 55708,68037 Z M 57057,69095 L 56237,69095 56237,121005 75789,121005 75207,120423 57586,120423 C 57295,120423 57057,120185 57057,119894 L 57057,69095 Z M 79996,119365 L 85499,119365 C 85790,119365 86029,119603 86029,119894 86029,120106 85870,120317 85658,120397 L 82192,121905 C 82007,121984 81795,121958 81637,121825 L 79652,120317 C 79441,120132 79388,119788 79573,119577 79679,119418 79837,119365 79996,119365 Z M 82959,120423 L 81531,120423 82060,120820 82959,120423 Z M 90421,119365 L 92484,119365 C 92775,119365 93014,119603 93014,119894 93014,120026 92934,120159 92855,120264 L 91532,121878 C 91426,121984 91267,122064 91135,122064 L 89309,122064 C 89018,122064 88780,121825 88780,121534 88780,121402 88807,121296 88886,121217 L 89997,119577 C 90103,119444 90262,119365 90421,119365 Z M 91347,120423 L 90712,120423 90315,121005 90870,121005 91347,120423 Z M 135478,68037 L 137356,68037 C 137647,68037 137886,68275 137886,68566 L 137886,121534 C 137886,121825 137647,122064 137356,122064 L 101955,122064 C 101770,122064 101611,121958 101506,121825 L 100183,120212 C 99998,120000 100024,119656 100262,119471 100368,119391 100474,119365 100606,119365 L 134949,119365 134949,68566 C 134949,68275 135187,68037 135478,68037 Z M 136827,69095 L 136007,69095 136007,119894 C 136007,120185 135769,120423 135478,120423 L 101717,120423 102194,121005 136827,121005 136827,69095 Z"/>
       </g>
      </g>
      <g class="com.sun.star.drawing.ClosedBezierShape">
       <g id="id6">
        <rect class="BoundingBox" stroke="none" fill="none" x="57056" y="67454" width="78953" height="52971"/>
        <path fill="rgb(255,255,255)" stroke="none" d="M 57586,67455 L 59465,67455 C 59756,67455 59994,67693 59994,67984 L 59994,117724 73884,117724 C 74070,117724 74228,117804 74308,117910 L 75048,118703 75816,119524 C 76001,119735 76001,120079 75789,120264 75683,120370 75551,120423 75445,120423 L 75445,120423 57586,120423 C 57295,120423 57057,120185 57057,119894 L 57057,67984 C 57057,67693 57295,67455 57586,67455 Z M 58935,68513 L 58115,68513 58115,119365 74202,119365 73673,118783 59465,118783 C 59174,118783 58935,118545 58935,118254 L 58935,68513 Z M 77880,117724 L 87537,117724 C 87828,117724 88066,117963 88066,118254 88066,118359 88039,118465 87960,118571 L 87193,119629 C 87113,119735 87034,119788 86928,119841 L 85711,120370 C 85632,120397 85552,120423 85499,120423 L 79996,120423 C 79837,120423 79732,120370 79626,120291 L 77536,118650 C 77324,118492 77271,118148 77456,117910 77562,117777 77721,117724 77880,117724 Z M 86505,118783 L 79414,118783 80155,119365 85394,119365 86399,118915 86505,118783 Z M 91558,117724 L 93569,117724 96136,114629 96533,114946 96928,114629 99495,117724 133070,117724 133070,67984 C 133070,67693 133308,67455 133599,67455 L 135478,67455 C 135769,67455 136007,67693 136007,67984 L 136007,119894 C 136007,120185 135769,120423 135478,120423 L 100606,120423 C 100421,120423 100262,120317 100156,120185 L 96533,115793 92881,120212 C 92775,120344 92617,120423 92484,120423 L 90421,120423 C 90130,120423 89892,120185 89892,119894 89892,119762 89944,119656 89997,119550 L 91109,117936 C 91214,117804 91373,117724 91558,117724 Z M 92723,118783 L 91823,118783 91426,119365 92220,119365 92723,118783 Z M 134949,68513 L 134129,68513 134129,118254 C 134129,118545 133890,118783 133599,118783 L 100368,118783 100844,119365 134949,119365 134949,68513 Z"/>
       </g>
      </g>
      <g class="com.sun.star.drawing.ClosedBezierShape">
       <g id="id7">
        <rect class="BoundingBox" stroke="none" fill="none" x="58934" y="66793" width="75197" height="51992"/>
        <path fill="rgb(255,255,255)" stroke="none" d="M 59465,66794 L 61343,66794 C 61634,66794 61872,67032 61872,67323 L 61872,116058 72429,116058 C 72588,116058 72747,116163 72852,116269 L 73540,117063 74281,117883 C 74466,118095 74466,118439 74255,118624 74149,118730 74017,118756 73884,118756 L 59465,118783 C 59174,118783 58935,118545 58935,118254 L 58935,67323 C 58935,67032 59174,66794 59465,66794 Z M 60814,67852 L 59994,67852 59994,117724 72694,117724 72191,117116 61343,117116 C 61052,117116 60814,116878 60814,116587 L 60814,67852 Z M 75789,116058 L 88727,116058 C 89018,116058 89257,116296 89257,116587 89257,116719 89204,116825 89151,116931 L 87960,118545 C 87854,118703 87695,118783 87537,118783 L 77880,118783 C 77721,118783 77615,118730 77509,118624 L 76477,117830 75472,117010 C 75234,116825 75207,116507 75366,116269 75472,116137 75631,116084 75789,116084 L 75789,116058 Z M 87695,117116 L 77297,117116 78038,117724 87272,117724 87695,117116 Z M 92670,116058 L 95183,116058 C 95474,116058 95712,116296 95712,116587 95712,116746 95659,116878 95554,116957 L 94231,118571 C 94125,118703 93993,118756 93834,118756 L 91558,118783 C 91241,118783 91029,118545 91029,118254 91029,118121 91056,118016 91135,117910 L 92220,116296 C 92326,116163 92511,116058 92670,116058 Z M 94072,117116 L 92934,117116 92537,117724 93569,117724 94072,117116 Z M 131721,66794 L 133599,66794 C 133890,66794 134129,67032 134129,67323 L 134129,118254 C 134129,118545 133890,118783 133599,118783 L 99230,118783 C 99071,118783 98913,118677 98807,118545 L 97484,116931 C 97299,116719 97325,116375 97563,116190 97643,116111 97775,116058 97881,116058 L 131192,116058 131192,67323 C 131192,67032 131430,66794 131721,66794 Z M 133070,67852 L 132250,67852 132250,116587 C 132250,116878 132012,117116 131721,117116 L 99019,117116 99495,117724 133070,117724 133070,67852 Z"/>
       </g>
      </g>
      <g class="com.sun.star.drawing.ClosedBezierShape">
       <g id="id8">
        <rect class="BoundingBox" stroke="none" fill="none" x="60813" y="66184" width="71439" height="50934"/>
        <path fill="rgb(255,255,255)" stroke="none" d="M 61396,66211 L 63222,66185 C 63513,66185 63751,66423 63751,66714 L 63751,114417 71027,114417 C 71186,114417 71344,114497 71450,114629 L 72112,115423 72826,116243 C 73011,116481 72985,116798 72773,116984 72667,117089 72535,117116 72429,117116 L 61343,117116 C 61052,117116 60814,116878 60814,116587 L 60814,66741 C 60814,66450 61052,66211 61343,66211 L 61396,66211 Z M 62693,67243 L 61872,67270 61872,116058 71265,116058 70762,115476 63222,115476 C 62931,115476 62693,115237 62693,114946 L 62693,67243 Z M 73752,114417 L 89892,114417 C 90183,114417 90421,114655 90421,114946 90421,115079 90394,115184 90315,115264 L 89151,116904 C 89045,117037 88886,117116 88727,117116 L 75789,117116 C 75657,117116 75525,117063 75445,116984 L 73408,115370 C 73196,115184 73144,114841 73329,114629 73435,114497 73593,114417 73752,114417 Z M 88860,115476 L 75234,115476 75975,116058 88436,116058 88860,115476 Z M 93781,114417 L 129313,114417 129313,66714 C 129313,66423 129551,66185 129842,66185 L 131721,66211 C 132012,66211 132250,66450 132250,66741 L 132250,116587 C 132250,116878 132012,117116 131721,117116 L 97881,117116 C 97696,117116 97537,117037 97458,116904 L 96533,115793 95580,116931 C 95474,117063 95342,117116 95183,117116 L 92670,117116 C 92379,117116 92140,116878 92140,116587 92140,116481 92193,116349 92246,116269 L 93358,114655 C 93463,114497 93622,114417 93781,114417 Z M 95421,115476 L 94072,115476 93675,116058 94945,116058 95421,115476 Z M 129842,115476 L 97643,115476 98145,116058 131192,116058 131192,67270 130371,67243 130371,114946 C 130371,115237 130133,115476 129842,115476 Z"/>
       </g>
      </g>
      <g class="com.sun.star.drawing.ClosedBezierShape">
       <g id="id9">
        <rect class="BoundingBox" stroke="none" fill="none" x="62692" y="65602" width="34371" height="49876"/>
        <path fill="rgb(255,255,255)" stroke="none" d="M 63222,65603 L 91505,65603 C 92855,65603 94231,66344 95289,67402 96347,68487 97061,69889 97061,71239 L 97061,90209 C 97061,90394 96955,90553 96823,90632 94733,92193 92696,93728 90738,95263 91982,95871 93066,96533 94019,97219 95183,98066 96162,98966 96955,99945 97034,100050 97061,100156 97061,100289 L 97061,105686 C 97061,105818 97034,105924 96955,106004 L 90315,115264 C 90235,115396 90050,115476 89892,115476 L 73752,115476 C 73620,115476 73487,115423 73382,115343 72032,114258 70921,113332 69466,112142 70074,112962 70736,113782 71424,114629 71609,114841 71582,115184 71344,115370 71265,115449 71133,115476 71027,115476 L 63222,115476 C 62931,115476 62693,115237 62693,114946 L 62693,66132 C 62693,65841 62931,65603 63222,65603 Z M 91505,66661 L 63751,66661 63751,114417 69916,114417 C 69334,113729 68804,113015 68302,112327 67640,111427 67032,110528 66503,109681 66397,109496 66397,109258 66555,109073 66741,108835 67058,108808 67296,108993 L 73937,114417 89627,114417 96003,105527 96003,100474 C 95315,99627 94442,98833 93410,98066 92299,97272 91029,96558 89548,95871 89468,95845 89389,95792 89336,95712 89151,95474 89204,95157 89415,94971 91532,93305 93728,91611 96003,89944 L 96003,71239 C 96003,70180 95395,69042 94522,68143 93675,67270 92564,66661 91505,66661 Z M 97061,110925 L 97061,114946 C 97061,115237 96823,115476 96533,115476 L 93781,115476 C 93490,115476 93252,115237 93252,114946 93252,114841 93305,114708 93384,114629 L 96109,110634 C 96268,110396 96584,110316 96823,110501 96981,110607 97061,110766 97061,110925 Z M 96003,114417 L 96003,112645 94786,114417 96003,114417 Z"/>
       </g>
      </g>
      <g class="com.sun.star.drawing.ClosedBezierShape">
       <g id="id10">
        <rect class="BoundingBox" stroke="none" fill="none" x="98542" y="104337" width="82" height="372"/>
        <path fill="rgb(255,255,255)" stroke="none" d="M 98622,104707 C 98595,104601 98569,104469 98542,104337 98569,104469 98595,104601 98622,104707 Z"/>
       </g>
      </g>
      <g class="com.sun.star.drawing.ClosedBezierShape">
       <g id="id11">
        <rect class="BoundingBox" stroke="none" fill="none" x="98013" y="103808" width="1140" height="1430"/>
        <path fill="rgb(255,255,255)" stroke="none" d="M 98622,104707 C 98595,104601 98569,104469 98542,104337 98569,104469 98595,104601 98622,104707 Z"/>
        <path fill="none" stroke="rgb(0,0,0)" stroke-width="1058" stroke-linejoin="round" stroke-linecap="round" d="M 98622,104707 C 98595,104601 98569,104469 98542,104337 98569,104469 98595,104601 98622,104707 Z"/>
       </g>
      </g>
      <g class="com.sun.star.drawing.ClosedBezierShape">
       <g id="id12">
        <rect class="BoundingBox" stroke="none" fill="none" x="98675" y="104972" width="81" height="610"/>
        <path fill="rgb(255,255,255)" stroke="none" d="M 98754,105580 C 98754,105395 98728,105183 98675,104972 98728,105183 98754,105395 98754,105580 Z"/>
       </g>
      </g>
      <g class="com.sun.star.drawing.ClosedBezierShape">
       <g id="id13">
        <rect class="BoundingBox" stroke="none" fill="none" x="98146" y="104443" width="1139" height="1668"/>
        <path fill="rgb(255,255,255)" stroke="none" d="M 98754,105580 C 98754,105395 98728,105183 98675,104972 98728,105183 98754,105395 98754,105580 Z"/>
        <path fill="none" stroke="rgb(0,0,0)" stroke-width="1058" stroke-linejoin="round" stroke-linecap="round" d="M 98754,105580 C 98754,105395 98728,105183 98675,104972 98728,105183 98754,105395 98754,105580 Z"/>
       </g>
      </g>
      <g class="com.sun.star.drawing.ClosedBezierShape">
       <g id="id14">
        <rect class="BoundingBox" stroke="none" fill="none" x="96002" y="99752" width="2780" height="6465"/>
        <path fill="rgb(255,255,255)" stroke="none" d="M 97061,101982 L 97061,104046 97643,103225 C 97484,102802 97299,102405 97061,102008 L 97061,101982 Z M 96003,105686 L 96003,100289 C 96003,100130 96083,99971 96215,99865 96427,99680 96770,99733 96955,99945 97352,100447 97696,100950 97987,101479 98304,102035 98542,102590 98754,103120 98807,103278 98780,103464 98675,103622 L 96981,105977 C 96875,106136 96717,106215 96533,106215 96241,106215 96003,105977 96003,105686 Z"/>
       </g>
      </g>
      <g class="com.sun.star.drawing.ClosedBezierShape">
       <g id="id15">
        <rect class="BoundingBox" stroke="none" fill="none" x="96002" y="65602" width="29424" height="25122"/>
        <path fill="rgb(255,255,255)" stroke="none" d="M 119444,74625 C 116481,76742 113253,78991 110052,81240 105580,84362 101135,87484 96849,90632 96611,90791 96294,90738 96109,90500 96030,90421 96003,90315 96003,90209 L 96003,71239 C 96003,69889 96743,68487 97775,67402 98833,66344 100236,65603 101559,65603 L 124895,65603 C 125186,65603 125424,65841 125424,66132 125424,66264 125371,66370 125318,66450 L 119550,74493 C 119524,74546 119471,74572 119444,74625 Z M 109443,80367 C 112512,78223 115581,76080 118756,73805 L 123916,66661 101559,66661 C 100527,66661 99415,67270 98542,68143 97669,69042 97061,70180 97061,71239 L 97061,89151 C 101056,86240 105236,83303 109443,80367 Z"/>
       </g>
      </g>
      <g class="com.sun.star.drawing.ClosedBezierShape">
       <g id="id16">
        <rect class="BoundingBox" stroke="none" fill="none" x="96002" y="65602" width="34371" height="49876"/>
        <path fill="rgb(255,255,255)" stroke="none" d="M 129842,65603 C 130133,65603 130371,65841 130371,66132 L 130371,114946 C 130371,115237 130133,115476 129842,115476 L 96533,115476 C 96241,115476 96003,115237 96003,114946 96003,114841 96030,114735 96109,114655 L 127488,68646 127329,68778 C 126376,69519 125397,70260 124392,71000 124154,71159 123810,71133 123651,70895 123519,70709 123519,70445 123625,70286 L 126720,65841 C 126826,65682 126932,65603 127091,65603 L 129842,65603 Z M 126694,67931 C 127223,67508 127779,67085 128308,66661 L 127382,66661 126323,68222 126694,67931 Z M 129313,67852 L 97537,114417 129313,114417 129313,67852 Z"/>
       </g>
      </g>
      <g class="com.sun.star.drawing.ClosedBezierShape">
       <g id="id17">
        <rect class="BoundingBox" stroke="none" fill="none" x="104677" y="93013" width="23289" height="13866"/>
        <path fill="rgb(255,255,255)" stroke="none" d="M 105898,102194 C 106982,103278 108252,104178 109708,104813 111189,105448 112856,105818 114629,105818 118016,105818 121085,104442 123307,102220 125424,100103 126773,97246 126905,94072 L 123254,94072 C 123122,96241 122169,98198 120741,99654 119180,101215 117010,102167 114629,102167 113174,102167 111824,101823 110634,101215 109628,100685 108729,99945 107988,99098 L 105898,102194 Z M 109284,105765 C 107591,105025 106083,103966 104839,102617 104654,102458 104628,102167 104760,101955 L 107538,97907 C 107565,97854 107617,97801 107670,97749 107908,97590 108226,97643 108411,97881 109099,98886 110025,99706 111110,100262 112168,100818 113359,101109 114629,101109 116719,101109 118598,100262 119973,98886 121349,97510 122196,95633 122196,93543 122196,93252 122434,93014 122725,93014 L 127435,93014 C 127726,93014 127964,93252 127964,93543 127964,97219 126482,100553 124048,102961 121640,105395 118307,106877 114629,106877 112724,106877 110925,106480 109284,105765 Z"/>
       </g>
      </g>
      <g class="com.sun.star.drawing.ClosedBezierShape">
       <g id="id18">
        <rect class="BoundingBox" stroke="none" fill="none" x="110622" y="88303" width="17344" height="5770"/>
        <path fill="rgb(255,255,255)" stroke="none" d="M 112142,93014 L 126905,93014 126905,89362 114629,89362 112142,93014 Z M 127435,94072 L 111163,94072 C 111057,94072 110951,94019 110845,93966 110607,93807 110554,93463 110713,93225 L 113914,88569 C 113994,88410 114179,88304 114364,88304 L 127435,88304 C 127726,88304 127964,88542 127964,88833 L 127964,93543 C 127964,93834 127726,94072 127435,94072 Z"/>
       </g>
      </g>
      <g class="com.sun.star.drawing.ClosedBezierShape">
       <g id="id19">
        <rect class="BoundingBox" stroke="none" fill="none" x="112539" y="107882" width="4150" height="6293"/>
        <path fill="rgb(255,255,255)" stroke="none" d="M 115476,108940 L 113782,108940 114629,111798 115476,108940 Z M 113068,107882 L 116163,107882 C 116216,107882 116269,107882 116322,107908 116587,107988 116746,108279 116666,108570 L 115132,113782 C 115079,113941 114946,114100 114761,114153 114497,114232 114206,114073 114126,113782 L 112565,108596 C 112565,108543 112539,108464 112539,108411 112539,108120 112777,107882 113068,107882 Z"/>
       </g>
      </g>
      <g class="com.sun.star.drawing.ClosedBezierShape">
       <g id="id20">
        <rect class="BoundingBox" stroke="none" fill="none" x="113041" y="106533" width="3177" height="2409"/>
        <path fill="rgb(255,255,255)" stroke="none" d="M 114232,107882 L 114999,107882 C 115052,107882 115079,107856 115105,107829 115132,107803 115158,107776 115158,107723 115158,107697 115132,107644 115105,107617 115079,107591 115052,107591 114999,107591 L 114232,107591 C 114206,107591 114153,107591 114126,107617 114100,107644 114100,107697 114100,107723 114100,107776 114100,107803 114126,107829 114153,107856 114206,107882 114232,107882 Z M 114999,108940 L 114232,108940 C 113914,108940 113597,108808 113385,108596 113174,108358 113041,108067 113041,107723 113041,107406 113174,107089 113385,106877 113597,106666 113914,106533 114232,106533 L 114999,106533 C 115343,106533 115634,106666 115846,106877 116058,107089 116216,107406 116216,107723 116216,108067 116058,108358 115846,108596 115634,108808 115343,108940 114999,108940 Z"/>
       </g>
      </g>
      <g class="com.sun.star.drawing.ClosedBezierShape">
       <g id="id21">
        <rect class="BoundingBox" stroke="none" fill="none" x="86225" y="102779" width="13140" height="19351"/>
        <path fill="rgb(255,255,255)" stroke="none" d="M 87457,119259 L 89151,120794 98278,107432 C 98331,106744 98304,106083 98225,105448 98172,105130 98119,104813 98040,104495 L 87457,119259 Z M 88886,121958 L 86399,119735 C 86214,119550 86161,119233 86320,119021 L 97801,103014 C 97987,102776 98304,102696 98542,102881 98648,102934 98701,103040 98754,103120 98992,103834 99177,104548 99257,105316 99363,106056 99389,106850 99336,107644 99336,107750 99283,107829 99230,107908 L 89680,121905 C 89521,122143 89204,122196 88965,122037 88939,122011 88913,121984 88886,121958 Z"/>
       </g>
      </g>
      <g class="com.sun.star.drawing.ClosedBezierShape">
       <g id="id22">
        <rect class="BoundingBox" stroke="none" fill="none" x="66428" y="108872" width="40048" height="24546"/>
        <path fill="rgb(255,255,255)" stroke="none" d="M 101532,132197 C 100447,132065 99310,131853 98119,131509 95236,130689 91955,129207 88066,126641 L 85050,127726 C 88965,130292 92564,131641 95898,132144 97854,132435 99733,132435 101532,132197 Z M 98410,130477 C 101215,131297 103649,131403 105898,131218 106136,131218 106374,131350 106453,131589 106533,131880 106374,132171 106109,132250 102908,133282 99469,133732 95739,133176 92008,132620 87987,131059 83594,128017 82563,127302 82457,127196 81822,126641 81610,126482 81372,126270 80975,125926 78620,123916 75498,120847 72614,117619 70233,114946 68011,112142 66503,109681 66397,109496 66397,109258 66555,109073 66741,108835 67058,108808 67296,108993 L 70048,111269 C 75842,115978 76742,116719 82298,121005 82351,121058 82430,121111 82457,121217 82536,121376 82510,121534 82430,121667 L 81769,125159 84018,126985 87934,125583 C 88092,125503 88278,125530 88436,125609 92326,128202 95554,129684 98410,130477 Z M 81372,121614 C 76027,117486 75048,116693 69466,112142 70656,113703 72006,115343 73408,116931 75948,119762 78647,122460 80843,124392 L 81372,121614 Z"/>
       </g>
      </g>
      <g class="com.sun.star.drawing.ClosedBezierShape">
       <g id="id23">
        <rect class="BoundingBox" stroke="none" fill="none" x="80677" y="118807" width="9103" height="9317"/>
        <path fill="rgb(255,255,255)" stroke="none" d="M 87140,118968 L 89600,121217 C 89759,121349 89812,121534 89759,121720 L 88648,126191 C 88622,126376 88463,126509 88304,126561 L 84071,128096 C 83912,128149 83700,128123 83568,127990 L 80869,125794 C 80711,125662 80658,125477 80684,125291 L 81425,121349 C 81478,121164 81584,121005 81742,120952 L 86531,118862 C 86743,118756 86981,118809 87140,118968 Z M 88674,121773 L 86664,119947 82404,121799 81769,125159 84018,126985 87695,125662 88674,121773 Z"/>
       </g>
      </g>
      <g class="com.sun.star.drawing.ClosedBezierShape">
       <g id="id24">
        <rect class="BoundingBox" stroke="none" fill="none" x="89222" y="65611" width="41148" height="49877"/>
        <path fill="rgb(255,255,255)" stroke="none" d="M 90738,95263 C 95077,97405 97722,100103 98807,103331 99548,105554 99548,108014 98807,110687 L 127488,68646 C 122037,72826 116058,77033 110052,81213 103384,85896 96690,90579 90738,95263 Z M 97801,103675 C 96770,100553 94045,97934 89548,95871 89468,95845 89389,95792 89336,95712 89151,95474 89204,95157 89415,94971 95527,90103 102485,85235 109470,80367 116428,75472 123387,70604 129498,65735 129684,65576 129948,65576 130133,65709 130371,65868 130451,66185 130266,66450 L 96981,115237 C 96823,115476 96533,115555 96294,115423 96030,115290 95924,114973 96056,114708 98225,110475 98860,106797 97801,103675 Z"/>
       </g>
      </g>
      <g class="com.sun.star.drawing.ClosedBezierShape">
       <g id="id25">
        <rect class="BoundingBox" stroke="none" fill="none" x="65761" y="75550" width="28497" height="30191"/>
        <path fill="rgb(255,255,255)" stroke="none" d="M 65762,80684 L 66423,80684 C 66450,81134 66555,81477 66741,81689 66926,81900 67164,82007 67534,82007 67825,82007 68064,81900 68249,81689 68434,81477 68513,81213 68513,80869 68513,80578 68434,80314 68275,80049 68090,79811 67746,79493 67190,79097 66661,78700 66317,78356 66132,78065 65973,77800 65868,77456 65868,77086 65868,76636 66026,76292 66317,76001 66608,75683 66952,75551 67402,75551 67905,75551 68302,75710 68593,76027 68884,76371 69042,76821 69069,77403 L 68408,77403 C 68381,76980 68274,76662 68116,76451 67957,76239 67720,76133 67429,76133 67138,76133 66926,76213 66741,76398 66582,76557 66503,76795 66503,77086 66503,77245 66529,77377 66582,77509 66635,77668 66741,77774 66820,77880 66979,78065 67217,78250 67534,78488 67825,78700 68037,78858 68116,78911 68487,79229 68778,79546 68937,79837 69095,80128 69175,80472 69175,80843 69175,81398 69016,81822 68725,82139 68408,82483 68011,82642 67508,82642 66952,82642 66529,82457 66238,82139 65947,81795 65788,81319 65762,80684 Z M 73646,80261 L 73646,80419 C 73646,81134 73487,81663 73170,82060 72852,82457 72429,82642 71847,82642 71212,82642 70735,82351 70418,81769 70100,81187 69942,80340 69942,79176 69942,77932 70100,77006 70418,76424 70735,75842 71212,75551 71874,75551 72403,75551 72826,75736 73117,76107 73435,76504 73567,77006 73567,77694 L 72905,77694 C 72879,77192 72773,76795 72588,76557 72429,76292 72191,76160 71874,76160 71450,76160 71132,76398 70947,76848 70761,77297 70656,78065 70656,79123 70656,80155 70762,80896 70974,81346 71186,81795 71530,82007 71979,82007 72297,82007 72561,81875 72747,81584 72905,81293 73011,80922 73011,80419 L 73011,80261 73646,80261 Z M 74546,82510 L 74546,75683 75260,75683 75260,82510 74546,82510 Z M 76504,82510 L 76504,75683 79573,75683 79573,76318 77218,76318 77218,78673 78938,78673 78938,79282 77218,79282 77218,81875 79652,81875 79652,82510 76504,82510 Z M 81584,77800 C 81504,77536 81398,77270 81319,77006 81240,76741 81160,76477 81081,76213 L 81081,82510 80472,82510 80472,75683 81478,75683 82880,79546 C 82986,79864 83092,80155 83198,80446 83277,80711 83356,80975 83436,81240 83409,81054 83409,80843 83409,80631 83383,80419 83383,80128 83383,79758 L 83383,75683 83991,75683 83991,82510 83303,82510 81584,77800 Z M 86082,82510 L 86082,76266 84706,76266 84706,75683 88145,75683 88145,76266 86769,76266 86769,82510 86082,82510 Z M 88860,82510 L 88860,75683 89574,75683 89574,82510 88860,82510 Z M 91558,79864 L 92987,79864 92273,76292 91558,79864 Z M 90341,82510 L 91796,75683 92775,75683 94257,82510 93516,82510 93119,80499 91400,80499 91029,82510 90341,82510 Z M 76742,94045 L 76742,87246 79811,87246 79811,87854 77430,87854 77430,90209 79176,90209 79176,90844 77430,90844 77430,93437 79890,93437 79890,94045 76742,94045 Z M 81504,94045 L 81504,87828 80155,87828 80155,87246 83568,87246 83568,87828 82219,87828 82219,94045 81504,94045 Z M 69942,105607 L 69942,98780 70656,98780 70656,104945 72800,104945 72800,105607 69942,105607 Z M 74255,102961 L 75683,102961 74969,99389 74255,102961 Z M 73011,105607 L 74493,98780 75472,98780 76953,105607 76213,105607 75816,103596 74096,103596 73699,105607 73011,105607 Z M 78356,104972 L 79070,104972 C 79573,104972 79917,104892 80155,104681 80367,104469 80472,104125 80472,103675 80472,103225 80366,102882 80128,102670 79889,102459 79520,102352 79017,102352 L 78356,102352 78356,104972 Z M 78356,101744 L 79017,101744 C 79467,101744 79785,101638 80023,101426 80234,101215 80340,100924 80340,100500 80340,100103 80234,99812 80023,99654 79811,99468 79441,99389 78938,99389 L 78356,99389 78356,101744 Z M 77668,105607 L 77668,98780 78911,98780 C 79414,98780 79785,98833 79996,98886 80234,98966 80446,99098 80605,99283 80737,99415 80843,99574 80922,99786 80975,99998 81028,100209 81028,100447 81028,100844 80949,101162 80763,101426 80605,101691 80367,101876 80049,102008 80419,102141 80711,102352 80896,102617 81081,102908 81160,103252 81160,103702 81160,104337 81002,104813 80631,105130 80287,105448 79732,105607 79017,105607 L 77668,105607 Z M 83806,105739 C 83198,105739 82721,105448 82404,104839 82086,104231 81928,103359 81928,102194 81928,101030 82086,100130 82404,99548 82721,98939 83197,98648 83806,98648 84414,98648 84890,98940 85208,99548 85525,100157 85685,101030 85685,102194 85685,103359 85525,104231 85208,104839 84890,105448 84415,105739 83806,105739 Z M 83806,99283 C 83409,99283 83118,99496 82933,99945 82748,100395 82668,101082 82668,102035 82668,103120 82748,103887 82933,104390 83118,104866 83409,105104 83806,105104 84203,105104 84494,104866 84679,104416 84864,103940 84944,103200 84944,102194 84944,101189 84864,100447 84679,99971 84494,99521 84203,99283 83806,99283 Z M 87404,101770 L 87987,101770 C 88463,101770 88807,101664 89045,101479 89283,101268 89389,100977 89389,100580 89389,100184 89283,99892 89045,99680 88807,99495 88463,99389 87987,99389 L 87404,99389 87404,101770 Z M 86690,105607 L 86690,98780 87934,98780 C 88674,98780 89229,98939 89600,99230 89970,99521 90156,99971 90156,100580 90156,101003 90050,101347 89865,101611 89680,101903 89415,102088 89071,102220 L 90183,105607 89415,105607 88410,102352 C 88198,102379 88066,102379 87960,102379 87854,102379 87748,102379 87669,102379 L 87404,102379 87404,105607 86690,105607 Z"/>
       </g>
      </g>
      <g class="com.sun.star.drawing.ClosedBezierShape">
       <g id="id26">
        <rect class="BoundingBox" stroke="none" fill="none" x="18745" y="18848" width="155470" height="95360"/>
        <path fill="rgb(255,255,255)" stroke="none" d="M 28456,112856 L 20730,114206 20518,112988 28138,111666 C 29567,111401 30467,111110 30863,110792 31234,110448 31366,109946 31234,109284 31128,108623 30837,108200 30361,108014 29884,107829 28932,107882 27530,108120 L 19910,109443 19698,108226 27424,106877 C 28456,106691 29223,106612 29699,106639 30176,106639 30572,106744 30916,106903 31287,107115 31578,107406 31842,107776 32080,108147 32239,108596 32319,109099 32424,109602 32398,110078 32319,110528 32213,110951 32028,111322 31737,111639 31498,111904 31154,112142 30731,112327 30308,112486 29541,112671 28456,112856 Z M 22794,102643 C 22344,102829 21921,103040 21471,103225 21021,103411 20545,103596 20095,103755 L 31181,102908 31287,103993 19222,104919 19090,103120 25731,100103 C 26260,99892 26762,99654 27265,99468 27741,99257 28218,99071 28667,98913 28297,98966 27953,99019 27556,99071 27186,99124 26683,99151 26048,99204 L 18851,99759 18746,98675 30810,97749 30890,98966 22794,102643 Z M 30916,95527 L 18851,95289 18878,94045 30943,94310 30916,95527 Z M 31154,90341 L 18825,91479 18984,90262 27371,89548 C 27636,89521 28165,89495 28958,89495 29117,89495 29223,89495 29276,89495 28906,89362 28562,89257 28271,89177 27979,89071 27688,88965 27424,88886 L 19539,86029 19698,84864 31313,89177 31154,90341 Z M 31763,85261 L 19989,82536 21206,77245 22291,77509 21365,81584 25413,82536 26101,79546 27186,79785 26498,82774 30943,83806 31922,79573 33007,79837 31763,85261 Z M 27292,75181 L 27609,74175 C 27874,73408 27900,72747 27688,72244 27503,71741 27053,71371 26392,71159 25731,70947 25148,70974 24699,71265 24249,71530 23878,72085 23614,72879 L 23296,73858 27292,75181 Z M 33350,78488 L 21894,74705 22582,72614 C 22979,71371 23535,70524 24222,70074 24937,69625 25783,69572 26789,69916 27503,70127 28032,70498 28403,70947 28773,71424 28958,71979 28958,72614 L 35282,72614 34859,73884 28826,73831 C 28747,74149 28666,74387 28614,74572 28561,74757 28509,74916 28456,75075 L 28323,75525 33747,77297 33350,78488 Z M 32848,70233 L 33324,69175 C 34065,69466 34673,69545 35150,69413 35626,69281 35996,68937 36234,68381 36446,67905 36473,67429 36261,66979 36076,66555 35705,66185 35150,65947 34673,65735 34171,65656 33642,65762 33112,65868 32345,66185 31313,66767 30281,67349 29461,67667 28879,67746 28297,67825 27715,67720 27106,67455 26392,67138 25916,66635 25651,65947 25387,65285 25413,64598 25731,63883 26101,63063 26656,62534 27397,62296 28137,62058 28985,62137 29937,62534 L 29461,63592 C 28773,63328 28191,63248 27715,63354 27265,63486 26920,63777 26709,64254 26497,64730 26471,65153 26630,65524 26789,65920 27080,66238 27556,66450 27794,66555 28058,66608 28323,66608 28587,66608 28853,66582 29091,66503 29461,66370 29964,66132 30546,65788 31154,65471 31525,65259 31684,65180 32477,64783 33165,64571 33774,64518 34356,64465 34964,64571 35573,64862 36446,65259 37028,65815 37346,66555 37637,67296 37610,68064 37240,68857 36843,69730 36261,70286 35520,70551 34753,70789 33853,70683 32848,70233 Z M 39198,64571 L 28720,58618 29329,57533 39806,63513 39198,64571 Z M 32663,54120 L 40732,59835 C 40838,59676 40944,59570 40997,59491 41050,59438 41103,59359 41156,59306 41791,58380 41976,57507 41632,56713 41314,55919 40362,54967 38827,53882 37319,52824 36129,52268 35282,52215 34435,52189 33668,52612 33007,53538 32980,53617 32927,53670 32874,53750 32821,53856 32742,53961 32663,54120 Z M 40918,61502 L 31075,54543 32345,52718 C 33165,51554 34144,50998 35282,51025 36420,51077 37848,51686 39595,52903 41314,54120 42399,55284 42822,56343 43219,57427 43034,58512 42214,59676 L 40918,61502 Z M 42796,51157 L 44463,49252 38854,46050 42796,51157 Z M 44886,55893 L 37531,45971 38642,44701 49490,50654 48617,51633 45468,49807 43484,52109 45706,54967 44886,55893 Z M 44145,40521 L 50601,48008 C 50760,47876 50865,47797 50945,47744 51024,47691 51077,47638 51130,47585 52003,46844 52374,46050 52242,45204 52109,44357 51421,43219 50204,41791 48987,40388 47982,39542 47162,39304 46341,39065 45495,39304 44648,40044 44569,40097 44515,40149 44436,40230 44383,40282 44278,40388 44145,40521 Z M 50390,49675 L 42505,40547 44198,39065 C 45257,38166 46341,37848 47453,38166 48537,38457 49781,39409 51157,40997 52559,42611 53326,43987 53459,45124 53617,46262 53141,47294 52083,48220 L 50390,49675 Z M 56501,44463 L 49516,34594 53935,31472 54596,32372 51157,34806 53564,38192 56078,36420 56713,37319 54199,39092 56872,42822 60391,40309 61052,41235 56501,44463 Z M 65338,38774 L 59782,28059 64280,25731 64783,26736 61396,28482 63301,32186 65920,30837 66423,31816 63804,33165 66423,38219 65338,38774 Z M 71186,35943 L 66820,24699 71874,22741 72270,23773 68381,25281 69889,29170 72747,28059 73144,29091 70286,30202 71953,34462 76001,32874 76398,33933 71186,35943 Z M 76557,22476 L 78753,32080 C 78938,32054 79097,32028 79176,32028 79255,32001 79335,32001 79414,31975 80525,31737 81240,31181 81504,30387 81795,29567 81742,28243 81319,26418 80896,24592 80393,23402 79785,22794 79176,22185 78303,22026 77218,22265 77139,22291 77059,22317 76953,22344 76874,22370 76742,22397 76557,22476 Z M 77800,33483 L 75101,21709 77271,21206 C 78647,20889 79732,21127 80578,21921 81398,22688 82060,24117 82536,26180 82986,28244 83039,29832 82616,30890 82219,31975 81346,32663 79970,32980 L 77800,33483 Z M 85632,31763 L 84044,19804 89442,19090 89574,20201 85420,20730 85976,24857 89018,24461 89151,25545 86108,25969 86717,30493 91029,29937 91161,31049 85632,31763 Z M 93649,24143 L 94707,24143 C 95527,24117 96136,23931 96558,23561 96955,23217 97166,22688 97140,21973 97140,21259 96902,20756 96506,20412 96083,20068 95448,19910 94628,19936 L 93569,19936 93649,24143 Z M 92564,30969 L 92299,18904 94495,18851 C 95818,18825 96796,19063 97458,19592 98093,20095 98436,20889 98463,21947 98489,22688 98331,23296 98013,23799 97696,24302 97219,24672 96611,24884 L 98728,30837 97378,30863 95448,25175 C 95104,25175 94839,25201 94680,25201 94469,25228 94310,25228 94151,25228 L 93675,25228 93781,30943 92564,30969 Z M 102035,26418 L 104548,26604 103755,20201 102035,26418 Z M 99495,30943 L 103014,19090 104734,19222 106453,31472 105130,31366 104707,27768 101691,27530 100712,31022 99495,30943 Z M 107723,31869 L 109787,19963 111031,20174 109152,30943 112883,31578 112697,32715 107723,31869 Z M 122619,24381 L 118968,33562 C 119127,33642 119259,33720 119338,33747 119418,33773 119497,33827 119577,33853 120635,34277 121508,34224 122196,33721 122910,33218 123598,32107 124286,30334 124974,28614 125239,27344 125106,26498 124948,25651 124339,25043 123281,24619 123201,24593 123122,24540 123043,24513 122937,24487 122804,24461 122619,24381 Z M 117381,34144 L 121852,22926 123942,23773 C 125239,24302 126006,25122 126244,26233 126482,27344 126218,28879 125424,30837 124630,32821 123757,34144 122831,34779 121878,35441 120767,35494 119444,34991 L 117381,34144 Z M 124789,37240 L 130371,26524 135187,29038 134658,30043 130954,28085 129022,31789 131747,33218 131245,34171 128519,32768 126403,36816 130239,38827 129736,39833 124789,37240 Z M 133917,42426 L 141352,32927 142886,34118 140135,39939 C 139870,40521 139605,41076 139314,41632 139023,42161 138706,42717 138388,43246 138812,42849 139235,42452 139711,42029 140187,41632 140664,41209 141193,40812 L 146246,36764 147754,37954 140293,47453 139447,46765 146352,37954 137383,45151 136774,44701 141696,34277 134764,43087 133917,42426 Z M 141828,49040 L 150162,40283 151035,41156 142727,49913 141828,49040 Z M 151961,47532 C 152199,47109 152438,46685 152676,46262 152940,45865 153205,45442 153469,45019 L 145029,52295 144341,51474 153469,43590 154634,44939 151088,51316 C 150797,51818 150533,52295 150268,52744 149977,53194 149712,53617 149448,54014 149712,53750 149977,53512 150242,53247 150533,52982 150903,52638 151379,52215 L 156856,47506 157570,48326 148416,56210 147622,55284 151961,47532 Z M 154448,56528 L 155798,58671 160454,54199 154448,56528 Z M 149315,57216 L 160904,52929 161830,54385 153046,63089 152358,61978 154978,59491 153337,56925 149950,58248 149315,57216 Z M 156327,62269 L 156856,63301 C 156168,63698 155745,64121 155533,64571 155348,65047 155401,65524 155665,66079 155904,66555 156274,66846 156750,66952 157226,67085 157729,67005 158258,66741 158735,66476 159105,66132 159343,65656 159581,65180 159820,64359 160005,63195 160191,62031 160428,61211 160719,60708 161036,60205 161486,59809 162068,59491 162756,59147 163444,59068 164132,59279 164846,59491 165349,59941 165720,60629 166116,61423 166196,62189 165931,62904 165667,63618 165058,64254 164158,64756 L 163629,63751 C 164264,63354 164688,62931 164899,62507 165085,62084 165058,61608 164820,61132 164582,60708 164264,60417 163867,60311 163471,60179 163021,60232 162571,60470 162333,60602 162148,60761 161962,60973 161804,61158 161671,61396 161566,61661 161460,62031 161327,62534 161222,63222 161116,63883 161036,64306 161010,64492 160825,65338 160560,66026 160243,66529 159899,67032 159449,67429 158840,67746 157994,68169 157200,68302 156433,68090 155665,67852 155083,67349 154660,66555 154237,65709 154157,64915 154422,64174 154713,63407 155348,62772 156327,62269 Z M 159899,78964 L 160534,78620 C 160137,78462 159819,78250 159555,77985 159317,77721 159105,77350 158973,76927 158602,75842 158787,74863 159581,73990 160349,73117 161698,72350 163629,71688 165720,70974 167360,70709 168524,70921 169688,71106 170482,71768 170852,72879 171143,73752 171064,74572 170614,75287 170138,76001 169344,76557 168233,76927 L 167836,75789 C 168656,75472 169238,75101 169582,74652 169926,74202 170006,73726 169821,73223 169582,72509 169000,72112 168127,72059 167254,72006 165905,72297 164079,72905 162412,73487 161275,74070 160640,74678 159978,75287 159793,75948 160057,76715 160243,77245 160560,77588 161063,77747 161539,77932 162121,77906 162809,77668 L 164132,77218 163576,75551 164608,75207 165534,77959 160190,79785 159899,78964 Z M 160560,81610 L 172466,79546 173392,84891 172281,85103 171567,80975 167466,81663 167995,84706 166910,84891 166381,81875 161883,82642 162624,86928 161513,87113 160560,81610 Z M 168630,89204 L 168709,90262 C 168762,91082 169000,91691 169371,92061 169741,92458 170297,92617 170985,92564 171699,92511 172202,92273 172519,91849 172837,91400 172969,90765 172890,89944 L 172810,88886 168630,89204 Z M 161751,88489 L 173789,87563 173948,89759 C 174054,91082 173869,92061 173392,92749 172916,93437 172149,93807 171091,93887 170350,93940 169741,93834 169212,93543 168683,93252 168312,92802 168074,92220 L 162227,94628 162121,93305 167704,91056 C 167677,90712 167652,90473 167625,90288 167599,90102 167598,89918 167572,89759 L 167545,89283 161857,89706 161751,88489 Z M 166857,97696 L 166804,100209 173128,99071 166857,97696 Z M 162201,95421 L 174213,98278 174186,99998 162068,102379 162095,101082 165667,100447 165720,97405 162174,96637 162201,95421 Z M 161804,103649 L 173763,105236 173604,106453 161645,104892 161804,103649 Z M 164555,107141 L 164370,108305 C 163576,108200 162968,108279 162545,108517 162121,108782 161857,109205 161751,109787 161671,110316 161777,110766 162068,111163 162386,111533 162836,111771 163418,111877 163947,111983 164450,111904 164926,111692 165402,111454 166091,110951 166937,110131 167784,109311 168498,108782 169027,108570 169582,108358 170164,108305 170826,108411 171593,108543 172175,108914 172599,109496 173022,110105 173181,110766 173048,111533 172890,112406 172493,113068 171831,113465 171170,113888 170350,114020 169318,113862 L 169503,112750 C 170244,112830 170826,112750 171249,112539 171673,112301 171937,111930 172017,111401 172096,110898 172017,110501 171778,110157 171514,109813 171143,109602 170641,109496 170376,109470 170112,109470 169873,109522 169609,109602 169344,109708 169133,109840 168815,110052 168392,110396 167916,110872 167413,111348 167095,111639 166963,111745 166302,112327 165693,112724 165111,112909 164555,113121 163920,113147 163259,113041 162333,112883 161619,112486 161142,111851 160666,111216 160507,110448 160666,109575 160825,108623 161248,107961 161910,107538 162597,107115 163497,106982 164555,107141 Z"/>
       </g>
      </g>
      <g class="com.sun.star.drawing.ClosedBezierShape">
       <g id="id27">
        <rect class="BoundingBox" stroke="none" fill="none" x="29328" y="129419" width="134938" height="45034"/>
        <path fill="rgb(255,255,255)" stroke="none" d="M 29329,135954 L 39489,129419 42426,133970 41473,134578 39198,131059 35705,133308 37372,135901 36446,136483 34779,133917 30943,136404 33298,140029 32372,140637 29329,135954 Z M 36287,140611 L 37002,141537 C 36393,142066 36048,142569 35943,143045 35837,143521 35970,143997 36340,144500 36684,144897 37081,145135 37557,145162 38060,145188 38536,145029 39013,144659 39436,144341 39727,143918 39886,143415 40044,142913 40097,142066 40071,140875 40044,139685 40124,138812 40335,138282 40547,137727 40918,137251 41447,136854 42055,136377 42717,136166 43431,136245 44145,136351 44754,136668 45230,137277 45786,137991 45997,138732 45865,139500 45706,140267 45257,140955 44463,141616 L 43749,140743 C 44304,140240 44648,139764 44754,139288 44886,138838 44754,138388 44436,137965 44145,137568 43775,137356 43352,137303 42928,137277 42505,137409 42108,137727 41896,137886 41737,138071 41605,138309 41472,138547 41394,138785 41341,139050 41288,139447 41261,139976 41288,140664 41288,141352 41314,141775 41288,141960 41288,142833 41156,143548 40918,144103 40679,144659 40309,145135 39780,145558 39013,146141 38245,146379 37451,146326 36658,146246 35996,145849 35441,145162 34859,144394 34647,143627 34779,142833 34938,142039 35441,141299 36287,140611 Z M 46765,151168 L 46606,151353 C 45733,152252 44860,152781 43987,152887 43114,152993 42320,152702 41605,152014 40785,151220 40521,150268 40812,149130 41103,148019 41976,146696 43378,145241 44886,143653 46209,142674 47347,142304 48485,141934 49463,142172 50310,142966 50998,143627 51289,144368 51210,145214 51130,146061 50681,146934 49860,147781 L 48987,146961 C 49569,146273 49913,145664 49993,145135 50098,144579 49940,144130 49569,143759 49014,143230 48326,143124 47506,143495 46712,143865 45654,144712 44384,146035 43114,147358 42346,148442 42055,149263 41764,150109 41923,150797 42531,151379 42928,151776 43431,151883 44013,151750 44595,151618 45177,151220 45812,150559 L 45971,150400 46765,151168 Z M 48485,158073 C 47638,157385 47320,156459 47532,155269 47744,154104 48485,152702 49755,151062 51051,149448 52241,148389 53326,147913 54410,147437 55390,147516 56263,148204 57110,148892 57427,149818 57216,150982 57004,152173 56263,153575 54993,155189 53723,156803 52533,157861 51448,158338 50337,158840 49358,158735 48485,158073 Z M 55575,149077 C 55020,148654 54358,148654 53617,149051 52877,149474 52003,150347 50972,151644 49781,153178 49040,154343 48776,155216 48485,156089 48643,156724 49199,157174 49755,157597 50390,157597 51157,157147 51924,156724 52850,155798 53961,154369 55073,152967 55734,151856 55999,151009 56263,150163 56104,149527 55575,149077 Z M 54041,161777 L 60549,151591 61608,152252 55734,161460 58935,163497 58300,164476 54041,161777 Z M 63883,162042 L 66185,163074 67640,156803 63883,162042 Z M 59967,165428 L 67323,155507 68884,156195 66291,168286 65100,167757 65947,164211 63169,162968 61052,165931 59967,165428 Z M 76424,160296 L 73752,169821 C 73937,169873 74070,169927 74149,169953 74228,169980 74308,170006 74387,170032 75472,170350 76345,170217 76980,169635 77615,169053 78197,167863 78700,166037 79202,164264 79335,162969 79097,162148 78858,161328 78197,160772 77086,160454 77006,160428 76927,160401 76848,160401 76742,160375 76610,160349 76424,160296 Z M 72244,170561 L 75498,158946 77668,159555 C 79017,159925 79864,160666 80208,161751 80578,162836 80472,164397 79890,166434 79308,168471 78594,169873 77721,170614 76848,171355 75736,171540 74387,171170 L 72244,170561 Z M 81451,172916 L 83621,161036 88965,162015 88780,163100 84653,162359 83886,166434 86928,166990 86717,168074 83700,167519 82880,172017 87140,172810 86955,173922 81451,172916 Z M 93358,174292 L 93701,162227 99124,162386 99098,163497 94919,163391 94786,167545 97854,167625 97828,168736 94760,168656 94628,173207 98966,173339 98939,174451 93358,174292 Z M 102802,165772 C 102590,165349 102379,164899 102167,164476 101955,164026 101744,163576 101559,163127 L 102908,174160 101823,174292 100368,162306 102141,162095 105474,168577 C 105712,169106 105951,169609 106189,170085 106400,170561 106612,171011 106797,171461 106718,171091 106665,170747 106586,170376 106533,169979 106453,169477 106374,168842 L 105501,161671 106586,161539 108041,173525 106850,173683 102802,165772 Z M 116825,171726 L 116534,171064 C 116349,171434 116084,171752 115793,171964 115502,172202 115132,172361 114682,172466 113571,172731 112618,172413 111824,171567 111031,170694 110422,169265 109946,167281 109470,165137 109364,163497 109681,162333 109999,161195 110713,160481 111877,160216 112777,160005 113544,160163 114232,160719 114893,161248 115370,162095 115634,163232 L 114470,163523 C 114232,162650 113888,162042 113491,161671 113094,161301 112618,161169 112089,161275 111348,161460 110925,161989 110766,162836 110634,163709 110792,165085 111216,166963 111613,168683 112089,169873 112618,170588 113147,171276 113809,171540 114576,171355 115132,171223 115502,170932 115714,170456 115952,170006 115978,169424 115819,168709 L 115502,167333 113782,167730 113544,166672 116375,166011 117672,171540 116825,171726 Z M 120847,170482 L 117010,159052 122143,157306 122513,158364 118518,159714 119868,163656 122778,162677 123122,163709 120212,164688 121667,169027 125768,167651 126138,168709 120847,170482 Z M 126773,159131 C 126429,158787 126085,158470 125715,158126 125371,157782 125027,157412 124683,157068 L 129736,166990 128758,167492 123307,156724 124921,155904 130239,160878 C 130636,161275 131033,161645 131403,162015 131774,162386 132144,162756 132462,163127 132276,162809 132091,162492 131906,162148 131721,161830 131483,161380 131192,160798 L 127911,154369 128890,153866 134340,164635 133255,165190 126773,159131 Z M 137489,162730 L 130954,152596 131985,151935 134790,156274 137753,154369 134922,150030 135981,149342 142516,159502 141484,160163 138362,155348 135425,157253 138547,162068 137489,162730 Z M 143309,152808 L 145214,151141 140108,147199 143309,152808 Z M 144738,157782 L 138785,146934 140082,145823 149977,153205 148998,154051 146141,151829 143839,153840 145638,156962 144738,157782 Z M 147860,145638 L 148575,144897 C 149157,144288 149448,143733 149501,143177 149527,142648 149289,142119 148786,141643 148257,141140 147754,140928 147225,140981 146670,141034 146114,141378 145532,141987 L 144818,142727 147860,145638 Z M 151908,151247 L 143177,142886 144712,141299 C 145611,140346 146485,139844 147305,139738 148126,139633 148919,139949 149686,140690 150215,141193 150559,141748 150691,142304 150824,142886 150744,143468 150453,144050 L 156168,146802 155242,147754 149845,145109 C 149607,145347 149448,145532 149315,145664 149183,145823 149077,145929 148972,146061 L 148628,146405 152755,150347 151908,151247 Z M 158047,144209 L 148548,136748 149315,135769 158814,143257 158047,144209 Z M 157729,136589 L 159105,134472 153099,132144 157729,136589 Z M 160534,140981 L 151750,132276 152676,130821 164264,135107 163576,136192 160190,134869 158549,137436 161169,139949 160534,140981 Z"/>
       </g>
      </g>
      <g class="com.sun.star.drawing.ClosedBezierShape">
       <g id="id28">
        <rect class="BoundingBox" stroke="none" fill="none" x="27714" y="120926" width="4235" height="4209"/>
        <path fill="rgb(255,255,255)" stroke="none" d="M 29832,120926 C 30996,120926 31948,121852 31948,123016 31948,124207 30996,125133 29832,125133 28667,125133 27715,124207 27715,123016 27715,121852 28667,120926 29832,120926 Z"/>
       </g>
      </g>
      <g class="com.sun.star.drawing.ClosedBezierShape">
       <g id="id29">
        <rect class="BoundingBox" stroke="none" fill="none" x="161063" y="120926" width="4209" height="4209"/>
        <path fill="rgb(255,255,255)" stroke="none" d="M 163153,120926 C 164344,120926 165270,121852 165270,123016 165270,124207 164344,125133 163153,125133 161989,125133 161063,124207 161063,123016 161063,121852 161989,120926 163153,120926 Z"/>
       </g>
      </g>
      <g class="com.sun.star.drawing.ClosedBezierShape">
       <g id="id30">
        <rect class="BoundingBox" stroke="none" fill="none" x="12" y="39" width="193041" height="192987"/>
        <path fill="rgb(255,255,255)" stroke="none" d="M 91161,40 L 101903,40 101903,8744 C 104469,8877 107035,9141 109549,9512 L 111348,1045 121852,3268 120053,11761 C 122513,12422 124974,13216 127355,14115 L 130874,6204 140690,10570 137145,18481 C 139447,19672 141643,20968 143812,22344 L 148919,15306 157597,21630 152490,28641 C 154475,30281 156353,32001 158179,33800 L 164661,27979 171831,35970 165376,41764 C 166963,43775 168471,45839 169900,47982 L 177414,43643 182785,52929 175271,57269 C 176409,59570 177467,61899 178419,64280 L 186648,61608 189955,71821 181727,74493 C 182362,76953 182891,79467 183314,82007 L 191940,81107 193051,91796 184425,92696 C 184478,93966 184505,95236 184505,96533 184505,97829 184478,99098 184425,100368 L 193051,101294 191940,111957 183314,111057 C 182891,113597 182362,116111 181727,118571 L 189955,121243 186648,131456 178419,128784 C 177467,131165 176409,133520 175271,135795 L 182785,140135 177414,149421 169900,145082 C 168471,147225 166963,149289 165376,151300 L 171831,157121 164661,165085 158179,159264 C 156353,161063 154475,162783 152490,164423 L 157597,171434 148919,177758 143812,170720 C 141643,172096 139447,173392 137145,174583 L 140690,182494 130874,186860 127355,178949 C 124974,179848 122513,180642 120053,181330 L 121852,189796 111348,192019 109549,183552 C 107035,183923 104469,184187 101903,184346 L 101903,193024 91161,193024 91161,184346 C 88595,184187 86029,183923 83515,183552 L 81716,192019 71212,189796 73038,181330 C 70551,180642 68116,179848 65709,178949 L 62190,186860 52374,182494 55919,174583 C 53644,173392 51421,172096 49252,170720 L 44172,177758 35467,171434 40574,164423 C 38616,162783 36711,161063 34885,159264 L 28429,165085 21233,157121 27688,151300 C 26101,149289 24593,147225 23164,145082 L 15650,149421 10279,140135 17793,135795 C 16655,133520 15597,131165 14671,128784 L 6416,131456 3109,121243 11337,118571 C 10702,116111 10200,113597 9776,111057 L 1124,111957 13,101294 8665,100368 C 8586,99098 8559,97829 8559,96533 8559,95236 8612,93966 8665,92696 L 13,91796 1124,81107 9776,82007 C 10200,79467 10702,76953 11337,74493 L 3109,71821 6416,61608 14671,64280 C 15597,61899 16655,59570 17793,57269 L 10279,52929 15650,43643 23164,47982 C 24593,45839 26101,43775 27688,41764 L 21233,35970 28429,27979 34885,33800 C 36711,32001 38616,30281 40574,28641 L 35467,21630 44172,15306 49252,22344 C 51421,20968 53644,19672 55919,18481 L 52374,10570 62190,6204 65709,14115 C 68116,13216 70551,12422 73038,11734 L 71212,3268 81716,1045 83515,9512 C 86029,9141 88595,8877 91161,8744 L 91161,40 Z M 96533,13189 C 50495,13189 13189,50495 13189,96533 13189,142570 50495,179875 96533,179875 142570,179875 179875,142570 179875,96533 179875,50495 142569,13189 96533,13189 Z"/>
       </g>
      </g>
      <g class="com.sun.star.drawing.PolyPolygonShape">
       <g id="id31">
        <rect class="BoundingBox" stroke="none" fill="none" x="114073" y="94071" width="1087" height="7569"/>
        <path fill="rgb(255,255,255)" stroke="none" d="M 114073,101638 L 115158,101638 115158,94072 114073,94072 114073,101638 Z"/>
       </g>
      </g>
      <g class="com.sun.star.drawing.ClosedBezierShape">
       <g id="id32">
        <rect class="BoundingBox" stroke="none" fill="none" x="118634" y="63020" width="10079" height="11644"/>
        <path fill="rgb(255,255,255)" stroke="none" d="M 126006,63751 C 126429,63169 127038,62957 127567,63037 127752,63063 127964,63142 128123,63248 L 128149,63275 C 128308,63407 128440,63539 128546,63698 128784,64121 128784,64677 128414,65259 L 124577,70868 C 124524,70921 124498,70974 124445,71000 L 119471,74572 C 119233,74731 118889,74678 118730,74440 118598,74255 118598,73990 118756,73805 L 124577,65762 126006,63751 Z M 127408,64095 C 127249,64068 127038,64148 126879,64386 125080,66846 123281,69334 121508,71821 L 123757,70207 127540,64650 C 127646,64465 127673,64306 127620,64227 127620,64201 127593,64174 127567,64148 L 127540,64148 C 127514,64121 127461,64095 127408,64095 Z"/>
       </g>
      </g>
     </g>
    </g>
   </g>
  </g>
 </g>
</svg>